<?xml version="1.0" encoding="UTF-8" standalone="no"?><svg xmlns="http://www.w3.org/2000/svg" xmlns:xlink="http://www.w3.org/1999/xlink" contentStyleType="text/css" height="305px" preserveAspectRatio="none" style="width:343px;height:305px;background:#FFFFFF;" version="1.1" viewBox="0 0 343 305" width="343px" zoomAndPan="magnify"><defs/><g><rect fill="#FFFFFF" height="181.1094" style="stroke:#181818;stroke-width:1.0;" width="10" x="220" y="69.9609"/><line style="stroke:#181818;stroke-width:0.5;stroke-dasharray:5.0,5.0;" x1="58" x2="58" y1="37.6094" y2="269.0703"/><line style="stroke:#181818;stroke-width:0.5;stroke-dasharray:5.0,5.0;" x1="225" x2="225" y1="37.6094" y2="269.0703"/><rect fill="#E2E2F0" height="31.6094" rx="2.5" ry="2.5" style="stroke:#181818;stroke-width:0.5;" width="106" x="5" y="5"/><text fill="#000000" font-family="sans-serif" font-size="14" lengthAdjust="spacing" textLength="92" x="12" y="26.5332">Fleet Manager</text><rect fill="#E2E2F0" height="31.6094" rx="2.5" ry="2.5" style="stroke:#181818;stroke-width:0.5;" width="106" x="5" y="268.0703"/><text fill="#000000" font-family="sans-serif" font-size="14" lengthAdjust="spacing" textLength="92" x="12" y="289.6035">Fleet Manager</text><rect fill="#E2E2F0" height="31.6094" rx="2.5" ry="2.5" style="stroke:#181818;stroke-width:0.5;" width="98" x="176" y="5"/><text fill="#000000" font-family="sans-serif" font-size="14" lengthAdjust="spacing" textLength="84" x="183" y="26.5332">RobDroneGo</text><rect fill="#E2E2F0" height="31.6094" rx="2.5" ry="2.5" style="stroke:#181818;stroke-width:0.5;" width="98" x="176" y="268.0703"/><text fill="#000000" font-family="sans-serif" font-size="14" lengthAdjust="spacing" textLength="84" x="183" y="289.6035">RobDroneGo</text><rect fill="#FFFFFF" height="181.1094" style="stroke:#181818;stroke-width:1.0;" width="10" x="220" y="69.9609"/><polygon fill="#181818" points="208,65.9609,218,69.9609,208,73.9609,212,69.9609" style="stroke:#181818;stroke-width:1.0;"/><line style="stroke:#181818;stroke-width:1.0;" x1="58" x2="214" y1="69.9609" y2="69.9609"/><text fill="#000000" font-family="sans-serif" font-size="13" lengthAdjust="spacing" textLength="61" x="65" y="65.1045">open route</text><polygon fill="#181818" points="69,96.3125,59,100.3125,69,104.3125,65,100.3125" style="stroke:#181818;stroke-width:1.0;"/><line style="stroke:#181818;stroke-width:1.0;stroke-dasharray:2.0,2.0;" x1="63" x2="219" y1="100.3125" y2="100.3125"/><text fill="#000000" font-family="sans-serif" font-size="13" lengthAdjust="spacing" textLength="59" x="75" y="95.4561">show form</text><polygon fill="#181818" points="208,126.6641,218,130.6641,208,134.6641,212,130.6641" style="stroke:#181818;stroke-width:1.0;"/><line style="stroke:#181818;stroke-width:1.0;" x1="58" x2="214" y1="130.6641" y2="130.6641"/><text fill="#000000" font-family="sans-serif" font-size="13" lengthAdjust="spacing" textLength="114" x="65" y="125.8076">input robot type info</text><polygon fill="#181818" points="208,157.0156,218,161.0156,208,165.0156,212,161.0156" style="stroke:#181818;stroke-width:1.0;"/><line style="stroke:#181818;stroke-width:1.0;" x1="58" x2="214" y1="161.0156" y2="161.0156"/><text fill="#000000" font-family="sans-serif" font-size="13" lengthAdjust="spacing" textLength="68" x="65" y="156.1592">submit form</text><line style="stroke:#181818;stroke-width:1.0;" x1="230" x2="272" y1="207.7188" y2="207.7188"/><line style="stroke:#181818;stroke-width:1.0;" x1="272" x2="272" y1="207.7188" y2="220.7188"/><line style="stroke:#181818;stroke-width:1.0;" x1="231" x2="272" y1="220.7188" y2="220.7188"/><polygon fill="#181818" points="241,216.7188,231,220.7188,241,224.7188,237,220.7188" style="stroke:#181818;stroke-width:1.0;"/><text fill="#000000" font-family="sans-serif" font-size="13" lengthAdjust="spacing" textLength="91" x="237" y="186.5107">create and save</text><text fill="#000000" font-family="sans-serif" font-size="13" lengthAdjust="spacing" textLength="99" x="237" y="202.8623">new type of robot</text><polygon fill="#181818" points="69,247.0703,59,251.0703,69,255.0703,65,251.0703" style="stroke:#181818;stroke-width:1.0;"/><ellipse cx="224.5" cy="250.3203" fill="none" rx="4" ry="4" style="stroke:#181818;stroke-width:1.5;"/><line style="stroke:#181818;stroke-width:1.0;stroke-dasharray:2.0,2.0;" x1="63" x2="220" y1="251.0703" y2="251.0703"/><text fill="#000000" font-family="sans-serif" font-size="13" lengthAdjust="spacing" textLength="138" x="75" y="246.2139">added new type of robot</text><!--MD5=[5809977f96cdfb3fea5baa1f4ad27cc8]
@startuml SD Lv1

participant "Fleet Manager" as fleetManager
participant RobDroneGo as system
fleetManager -> system : open route
activate system
system - -> fleetManager : show form
fleetManager -> system : input robot type info
fleetManager -> system : submit form

system -> system : create and save\nnew type of robot

fleetManager <- -o system : added new type of robot
deactivate system

@enduml

PlantUML version 1.2022.7(Mon Aug 22 18:01:30 BST 2022)
(GPL source distribution)
Java Runtime: Java(TM) SE Runtime Environment
JVM: Java HotSpot(TM) 64-Bit Server VM
Default Encoding: Cp1252
Language: pt
Country: PT
--></g></svg>