<?xml version="1.0" encoding="UTF-8" standalone="no"?><svg xmlns="http://www.w3.org/2000/svg" xmlns:xlink="http://www.w3.org/1999/xlink" contentStyleType="text/css" height="392px" preserveAspectRatio="none" style="width:532px;height:392px;background:#FFFFFF;" version="1.1" viewBox="0 0 532 392" width="532px" zoomAndPan="magnify"><defs/><g><rect fill="#ADD8E6" height="380.7344" style="stroke:#181818;stroke-width:0.5;" width="383" x="143" y="6"/><text fill="#000000" font-family="sans-serif" font-size="13" font-weight="bold" lengthAdjust="spacing" textLength="81" x="294" y="19.4951">RobDroneGo</text><rect fill="#FFFFFF" height="241.8125" style="stroke:#181818;stroke-width:1.0;" width="10" x="216" y="91.3125"/><rect fill="#FFFFFF" height="134.4063" style="stroke:#181818;stroke-width:1.0;" width="10" x="378.5" y="152.0156"/><rect fill="#FFFFFF" height="30.3516" style="stroke:#181818;stroke-width:1.0;" width="10" x="500.5" y="225.7188"/><line style="stroke:#181818;stroke-width:0.5;stroke-dasharray:5.0,5.0;" x1="71" x2="71" y1="58.9609" y2="351.125"/><line style="stroke:#181818;stroke-width:0.5;stroke-dasharray:5.0,5.0;" x1="221" x2="221" y1="58.9609" y2="351.125"/><line style="stroke:#181818;stroke-width:0.5;stroke-dasharray:5.0,5.0;" x1="383" x2="383" y1="58.9609" y2="351.125"/><line style="stroke:#181818;stroke-width:0.5;stroke-dasharray:5.0,5.0;" x1="505" x2="505" y1="58.9609" y2="351.125"/><rect fill="#E2E2F0" height="31.6094" rx="2.5" ry="2.5" style="stroke:#181818;stroke-width:0.5;" width="132" x="5" y="26.3516"/><text fill="#000000" font-family="sans-serif" font-size="14" lengthAdjust="spacing" textLength="118" x="12" y="47.8848">Fleet Management</text><rect fill="#E2E2F0" height="31.6094" rx="2.5" ry="2.5" style="stroke:#181818;stroke-width:0.5;" width="132" x="5" y="350.125"/><text fill="#000000" font-family="sans-serif" font-size="14" lengthAdjust="spacing" textLength="118" x="12" y="371.6582">Fleet Management</text><rect fill="#E2E2F0" height="31.6094" rx="2.5" ry="2.5" style="stroke:#181818;stroke-width:0.5;" width="148" x="147" y="26.3516"/><text fill="#000000" font-family="sans-serif" font-size="14" lengthAdjust="spacing" textLength="134" x="154" y="47.8848">Fleet Management UI</text><rect fill="#E2E2F0" height="31.6094" rx="2.5" ry="2.5" style="stroke:#181818;stroke-width:0.5;" width="148" x="147" y="350.125"/><text fill="#000000" font-family="sans-serif" font-size="14" lengthAdjust="spacing" textLength="134" x="154" y="371.6582">Fleet Management UI</text><rect fill="#E2E2F0" height="31.6094" rx="2.5" ry="2.5" style="stroke:#181818;stroke-width:0.5;" width="157" x="305" y="26.3516"/><text fill="#000000" font-family="sans-serif" font-size="14" lengthAdjust="spacing" textLength="143" x="312" y="47.8848">Fleet Management API</text><rect fill="#E2E2F0" height="31.6094" rx="2.5" ry="2.5" style="stroke:#181818;stroke-width:0.5;" width="157" x="305" y="350.125"/><text fill="#000000" font-family="sans-serif" font-size="14" lengthAdjust="spacing" textLength="143" x="312" y="371.6582">Fleet Management API</text><rect fill="#E2E2F0" height="31.6094" rx="2.5" ry="2.5" style="stroke:#181818;stroke-width:0.5;" width="33" x="489" y="26.3516"/><text fill="#000000" font-family="sans-serif" font-size="14" lengthAdjust="spacing" textLength="19" x="496" y="47.8848">DB</text><rect fill="#E2E2F0" height="31.6094" rx="2.5" ry="2.5" style="stroke:#181818;stroke-width:0.5;" width="33" x="489" y="350.125"/><text fill="#000000" font-family="sans-serif" font-size="14" lengthAdjust="spacing" textLength="19" x="496" y="371.6582">DB</text><rect fill="#FFFFFF" height="241.8125" style="stroke:#181818;stroke-width:1.0;" width="10" x="216" y="91.3125"/><rect fill="#FFFFFF" height="134.4063" style="stroke:#181818;stroke-width:1.0;" width="10" x="378.5" y="152.0156"/><rect fill="#FFFFFF" height="30.3516" style="stroke:#181818;stroke-width:1.0;" width="10" x="500.5" y="225.7188"/><polygon fill="#181818" points="204,87.3125,214,91.3125,204,95.3125,208,91.3125" style="stroke:#181818;stroke-width:1.0;"/><line style="stroke:#181818;stroke-width:1.0;" x1="71" x2="210" y1="91.3125" y2="91.3125"/><text fill="#000000" font-family="sans-serif" font-size="13" lengthAdjust="spacing" textLength="114" x="78" y="86.4561">input robot type info</text><polygon fill="#181818" points="204,117.6641,214,121.6641,204,125.6641,208,121.6641" style="stroke:#181818;stroke-width:1.0;"/><line style="stroke:#181818;stroke-width:1.0;" x1="71" x2="210" y1="121.6641" y2="121.6641"/><text fill="#000000" font-family="sans-serif" font-size="13" lengthAdjust="spacing" textLength="39" x="78" y="116.8076">submit</text><polygon fill="#181818" points="366.5,148.0156,376.5,152.0156,366.5,156.0156,370.5,152.0156" style="stroke:#181818;stroke-width:1.0;"/><line style="stroke:#181818;stroke-width:1.0;" x1="226" x2="372.5" y1="152.0156" y2="152.0156"/><text fill="#000000" font-family="sans-serif" font-size="13" lengthAdjust="spacing" textLength="119" x="233" y="147.1592">send robot type data</text><line style="stroke:#181818;stroke-width:1.0;" x1="388.5" x2="430.5" y1="182.3672" y2="182.3672"/><line style="stroke:#181818;stroke-width:1.0;" x1="430.5" x2="430.5" y1="182.3672" y2="195.3672"/><line style="stroke:#181818;stroke-width:1.0;" x1="389.5" x2="430.5" y1="195.3672" y2="195.3672"/><polygon fill="#181818" points="399.5,191.3672,389.5,195.3672,399.5,199.3672,395.5,195.3672" style="stroke:#181818;stroke-width:1.0;"/><text fill="#000000" font-family="sans-serif" font-size="13" lengthAdjust="spacing" textLength="98" x="395.5" y="177.5107">create robot type</text><polygon fill="#181818" points="488.5,221.7188,498.5,225.7188,488.5,229.7188,492.5,225.7188" style="stroke:#181818;stroke-width:1.0;"/><line style="stroke:#181818;stroke-width:1.0;" x1="388.5" x2="494.5" y1="225.7188" y2="225.7188"/><text fill="#000000" font-family="sans-serif" font-size="13" lengthAdjust="spacing" textLength="88" x="395.5" y="220.8623">save robot type</text><polygon fill="#181818" points="399.5,252.0703,389.5,256.0703,399.5,260.0703,395.5,256.0703" style="stroke:#181818;stroke-width:1.0;"/><line style="stroke:#181818;stroke-width:1.0;stroke-dasharray:2.0,2.0;" x1="393.5" x2="504.5" y1="256.0703" y2="256.0703"/><text fill="#000000" font-family="sans-serif" font-size="13" lengthAdjust="spacing" textLength="58" x="405.5" y="251.2139">robot type</text><polygon fill="#181818" points="237,282.4219,227,286.4219,237,290.4219,233,286.4219" style="stroke:#181818;stroke-width:1.0;"/><line style="stroke:#181818;stroke-width:1.0;stroke-dasharray:2.0,2.0;" x1="231" x2="382.5" y1="286.4219" y2="286.4219"/><text fill="#000000" font-family="sans-serif" font-size="13" lengthAdjust="spacing" textLength="58" x="243" y="281.5654">robot type</text><polygon fill="#181818" points="82,329.125,72,333.125,82,337.125,78,333.125" style="stroke:#181818;stroke-width:1.0;"/><line style="stroke:#181818;stroke-width:1.0;stroke-dasharray:2.0,2.0;" x1="76" x2="220" y1="333.125" y2="333.125"/><text fill="#000000" font-family="sans-serif" font-size="13" lengthAdjust="spacing" textLength="105" x="88" y="311.917">robot type created</text><text fill="#000000" font-family="sans-serif" font-size="13" lengthAdjust="spacing" textLength="72" x="88" y="328.2686">successfully</text><!--MD5=[a43cbe9fb5ac00a422ad9596c8a18896]
@startuml SD Lv2

participant "Fleet Management" as fleetManager
box "RobDroneGo" #LightBlue
    participant "Fleet Management UI" as fleetUI
    participant "Fleet Management API" as fleetAPI
    participant "DB" as DB
end box

fleetManager -> fleetUI : input robot type info
activate fleetUI
fleetManager -> fleetUI : submit

fleetUI -> fleetAPI : send robot type data
activate fleetAPI
fleetAPI -> fleetAPI : create robot type
fleetAPI -> DB : save robot type
activate DB
DB - -> fleetAPI : robot type
deactivate DB

fleetAPI - -> fleetUI : robot type
deactivate fleetAPI

fleetManager <- - fleetUI : robot type created \nsuccessfully
deactivate fleetUI

@enduml

PlantUML version 1.2022.7(Mon Aug 22 18:01:30 BST 2022)
(GPL source distribution)
Java Runtime: Java(TM) SE Runtime Environment
JVM: Java HotSpot(TM) 64-Bit Server VM
Default Encoding: Cp1252
Language: pt
Country: PT
--></g></svg>