<?xml version="1.0" encoding="UTF-8" standalone="no"?><svg xmlns="http://www.w3.org/2000/svg" xmlns:xlink="http://www.w3.org/1999/xlink" contentStyleType="text/css" height="606px" preserveAspectRatio="none" style="width:1114px;height:606px;background:#FFFFFF;" version="1.1" viewBox="0 0 1114 606" width="1114px" zoomAndPan="magnify"><defs/><g><rect fill="#ADD8E6" height="594.5469" style="stroke:#181818;stroke-width:0.5;" width="636" x="134" y="6"/><text fill="#000000" font-family="sans-serif" font-size="13" font-weight="bold" lengthAdjust="spacing" textLength="136" x="384" y="19.4951">Fleet Management UI</text><rect fill="#DDDDDD" height="573.1953" style="stroke:#181818;stroke-width:0.5;" width="253.5" x="134" y="27.3516"/><text fill="#000000" font-family="sans-serif" font-size="13" font-weight="bold" lengthAdjust="spacing" textLength="32" x="244.75" y="40.8467">View</text><line style="stroke:#181818;stroke-width:0.5;stroke-dasharray:5.0,5.0;" x1="58" x2="58" y1="80.3125" y2="561.9375"/><line style="stroke:#181818;stroke-width:0.5;stroke-dasharray:5.0,5.0;" x1="201" x2="201" y1="80.3125" y2="561.9375"/><rect fill="#FFFFFF" height="433.2734" style="stroke:#181818;stroke-width:1.0;" width="10" x="196" y="110.6641"/><line style="stroke:#181818;stroke-width:0.5;stroke-dasharray:5.0,5.0;" x1="340" x2="340" y1="80.3125" y2="561.9375"/><rect fill="#FFFFFF" height="325.8672" style="stroke:#181818;stroke-width:1.0;" width="10" x="335" y="171.3672"/><line style="stroke:#181818;stroke-width:0.5;stroke-dasharray:5.0,5.0;" x1="467" x2="467" y1="80.3125" y2="561.9375"/><rect fill="#FFFFFF" height="265.1641" style="stroke:#181818;stroke-width:1.0;" width="10" x="462" y="201.7188"/><line style="stroke:#181818;stroke-width:0.5;stroke-dasharray:5.0,5.0;" x1="635" x2="635" y1="80.3125" y2="561.9375"/><rect fill="#FFFFFF" height="30.3516" style="stroke:#181818;stroke-width:1.0;" width="10" x="630" y="232.0703"/><line style="stroke:#181818;stroke-width:0.5;stroke-dasharray:5.0,5.0;" x1="726.5" x2="726.5" y1="80.3125" y2="561.9375"/><rect fill="#FFFFFF" height="143.7578" style="stroke:#181818;stroke-width:1.0;" width="10" x="721.5" y="292.7734"/><line style="stroke:#181818;stroke-width:0.5;stroke-dasharray:5.0,5.0;" x1="864.5" x2="864.5" y1="80.3125" y2="561.9375"/><rect fill="#FFFFFF" height="83.0547" style="stroke:#181818;stroke-width:1.0;" width="10" x="859.5" y="323.125"/><rect fill="#E2E2F0" height="31.6094" rx="2.5" ry="2.5" style="stroke:#181818;stroke-width:0.5;" width="106" x="5" y="47.7031"/><text fill="#000000" font-family="sans-serif" font-size="14" lengthAdjust="spacing" textLength="92" x="12" y="69.2363">Fleet manager</text><rect fill="#E2E2F0" height="31.6094" rx="2.5" ry="2.5" style="stroke:#181818;stroke-width:0.5;" width="126" x="138" y="47.7031"/><text fill="#000000" font-family="sans-serif" font-size="14" lengthAdjust="spacing" textLength="112" x="145" y="69.2363">HTML + CSS + JS</text><rect fill="#E2E2F0" height="31.6094" rx="2.5" ry="2.5" style="stroke:#181818;stroke-width:0.5;" width="87" x="296.5" y="47.7031"/><text fill="#000000" font-family="sans-serif" font-size="14" lengthAdjust="spacing" textLength="73" x="303.5" y="69.2363">Component</text><rect fill="#E2E2F0" height="31.6094" rx="2.5" ry="2.5" style="stroke:#181818;stroke-width:0.5;" width="61" x="436.5" y="47.7031"/><text fill="#000000" font-family="sans-serif" font-size="14" lengthAdjust="spacing" textLength="47" x="443.5" y="69.2363">Service</text><rect fill="#E2E2F0" height="31.6094" rx="2.5" ry="2.5" style="stroke:#181818;stroke-width:0.5;" width="84" x="593" y="47.7031"/><text fill="#000000" font-family="sans-serif" font-size="14" lengthAdjust="spacing" textLength="70" x="600" y="69.2363">API Routes</text><rect fill="#E2E2F0" height="31.6094" rx="2.5" ry="2.5" style="stroke:#181818;stroke-width:0.5;" width="79" x="687" y="47.7031"/><text fill="#000000" font-family="sans-serif" font-size="14" lengthAdjust="spacing" textLength="65" x="694" y="69.2363">Http driver</text><rect fill="#E2E2F0" height="31.6094" rx="2.5" ry="2.5" style="stroke:#181818;stroke-width:0.5;" width="157" x="786" y="47.7031"/><text fill="#000000" font-family="sans-serif" font-size="14" lengthAdjust="spacing" textLength="143" x="793" y="69.2363">Fleet Management API</text><rect fill="#E2E2F0" height="31.6094" rx="2.5" ry="2.5" style="stroke:#181818;stroke-width:0.5;" width="106" x="5" y="561.9375"/><text fill="#000000" font-family="sans-serif" font-size="14" lengthAdjust="spacing" textLength="92" x="12" y="583.4707">Fleet manager</text><rect fill="#E2E2F0" height="31.6094" rx="2.5" ry="2.5" style="stroke:#181818;stroke-width:0.5;" width="126" x="138" y="561.9375"/><text fill="#000000" font-family="sans-serif" font-size="14" lengthAdjust="spacing" textLength="112" x="145" y="583.4707">HTML + CSS + JS</text><rect fill="#E2E2F0" height="31.6094" rx="2.5" ry="2.5" style="stroke:#181818;stroke-width:0.5;" width="87" x="296.5" y="561.9375"/><text fill="#000000" font-family="sans-serif" font-size="14" lengthAdjust="spacing" textLength="73" x="303.5" y="583.4707">Component</text><rect fill="#E2E2F0" height="31.6094" rx="2.5" ry="2.5" style="stroke:#181818;stroke-width:0.5;" width="61" x="436.5" y="561.9375"/><text fill="#000000" font-family="sans-serif" font-size="14" lengthAdjust="spacing" textLength="47" x="443.5" y="583.4707">Service</text><rect fill="#E2E2F0" height="31.6094" rx="2.5" ry="2.5" style="stroke:#181818;stroke-width:0.5;" width="84" x="593" y="561.9375"/><text fill="#000000" font-family="sans-serif" font-size="14" lengthAdjust="spacing" textLength="70" x="600" y="583.4707">API Routes</text><rect fill="#E2E2F0" height="31.6094" rx="2.5" ry="2.5" style="stroke:#181818;stroke-width:0.5;" width="79" x="687" y="561.9375"/><text fill="#000000" font-family="sans-serif" font-size="14" lengthAdjust="spacing" textLength="65" x="694" y="583.4707">Http driver</text><rect fill="#E2E2F0" height="31.6094" rx="2.5" ry="2.5" style="stroke:#181818;stroke-width:0.5;" width="157" x="786" y="561.9375"/><text fill="#000000" font-family="sans-serif" font-size="14" lengthAdjust="spacing" textLength="143" x="793" y="583.4707">Fleet Management API</text><polygon fill="#181818" points="184,106.6641,194,110.6641,184,114.6641,188,110.6641" style="stroke:#181818;stroke-width:1.0;"/><line style="stroke:#181818;stroke-width:1.0;" x1="58" x2="190" y1="110.6641" y2="110.6641"/><text fill="#000000" font-family="sans-serif" font-size="13" lengthAdjust="spacing" textLength="114" x="65" y="105.8076">input robot type info</text><polygon fill="#181818" points="184,137.0156,194,141.0156,184,145.0156,188,141.0156" style="stroke:#181818;stroke-width:1.0;"/><line style="stroke:#181818;stroke-width:1.0;" x1="58" x2="190" y1="141.0156" y2="141.0156"/><text fill="#000000" font-family="sans-serif" font-size="13" lengthAdjust="spacing" textLength="85" x="65" y="136.1592">click on button</text><polygon fill="#181818" points="323,167.3672,333,171.3672,323,175.3672,327,171.3672" style="stroke:#181818;stroke-width:1.0;"/><line style="stroke:#181818;stroke-width:1.0;" x1="206" x2="329" y1="171.3672" y2="171.3672"/><text fill="#000000" font-family="sans-serif" font-size="13" lengthAdjust="spacing" textLength="98" x="213" y="166.5107">create robot type</text><polygon fill="#181818" points="450,197.7188,460,201.7188,450,205.7188,454,201.7188" style="stroke:#181818;stroke-width:1.0;"/><line style="stroke:#181818;stroke-width:1.0;" x1="345" x2="456" y1="201.7188" y2="201.7188"/><text fill="#000000" font-family="sans-serif" font-size="13" lengthAdjust="spacing" textLength="98" x="352" y="196.8623">create robot type</text><polygon fill="#181818" points="618,228.0703,628,232.0703,618,236.0703,622,232.0703" style="stroke:#181818;stroke-width:1.0;"/><line style="stroke:#181818;stroke-width:1.0;" x1="472" x2="624" y1="232.0703" y2="232.0703"/><text fill="#000000" font-family="sans-serif" font-size="13" lengthAdjust="spacing" textLength="139" x="479" y="227.2139">robot.createRobotType()</text><polygon fill="#181818" points="483,258.4219,473,262.4219,483,266.4219,479,262.4219" style="stroke:#181818;stroke-width:1.0;"/><line style="stroke:#181818;stroke-width:1.0;stroke-dasharray:2.0,2.0;" x1="477" x2="629" y1="262.4219" y2="262.4219"/><text fill="#000000" font-family="sans-serif" font-size="13" lengthAdjust="spacing" textLength="50" x="489" y="257.5654">api route</text><polygon fill="#181818" points="709.5,288.7734,719.5,292.7734,709.5,296.7734,713.5,292.7734" style="stroke:#181818;stroke-width:1.0;"/><line style="stroke:#181818;stroke-width:1.0;" x1="472" x2="715.5" y1="292.7734" y2="292.7734"/><text fill="#000000" font-family="sans-serif" font-size="13" lengthAdjust="spacing" textLength="183" x="479" y="287.917">POST(api route, robot type info)</text><polygon fill="#181818" points="847.5,319.125,857.5,323.125,847.5,327.125,851.5,323.125" style="stroke:#181818;stroke-width:1.0;"/><line style="stroke:#181818;stroke-width:1.0;" x1="731.5" x2="853.5" y1="323.125" y2="323.125"/><text fill="#000000" font-family="sans-serif" font-size="13" lengthAdjust="spacing" textLength="75" x="738.5" y="318.2686">send request</text><line style="stroke:#181818;stroke-width:1.0;" x1="869.5" x2="911.5" y1="353.4766" y2="353.4766"/><line style="stroke:#181818;stroke-width:1.0;" x1="911.5" x2="911.5" y1="353.4766" y2="366.4766"/><line style="stroke:#181818;stroke-width:1.0;" x1="870.5" x2="911.5" y1="366.4766" y2="366.4766"/><polygon fill="#181818" points="880.5,362.4766,870.5,366.4766,880.5,370.4766,876.5,366.4766" style="stroke:#181818;stroke-width:1.0;"/><text fill="#000000" font-family="sans-serif" font-size="13" lengthAdjust="spacing" textLength="98" x="876.5" y="348.6201">create robot type</text><path d="M986.5,336.125 L986.5,378.125 L1107.5,378.125 L1107.5,346.125 L1097.5,336.125 L986.5,336.125 " fill="#FEFFDD" style="stroke:#181818;stroke-width:0.5;"/><path d="M1097.5,336.125 L1097.5,346.125 L1107.5,346.125 L1097.5,336.125 " fill="#FEFFDD" style="stroke:#181818;stroke-width:0.5;"/><text fill="#000000" font-family="sans-serif" font-size="13" lengthAdjust="spacing" textLength="100" x="992.5" y="354.6201">procedures in the</text><text fill="#000000" font-family="sans-serif" font-size="13" lengthAdjust="spacing" textLength="95" x="992.5" y="370.9717">user story ID350</text><polygon fill="#181818" points="742.5,402.1797,732.5,406.1797,742.5,410.1797,738.5,406.1797" style="stroke:#181818;stroke-width:1.0;"/><line style="stroke:#181818;stroke-width:1.0;stroke-dasharray:2.0,2.0;" x1="736.5" x2="858.5" y1="406.1797" y2="406.1797"/><text fill="#000000" font-family="sans-serif" font-size="13" lengthAdjust="spacing" textLength="90" x="748.5" y="401.3232">return response</text><polygon fill="#181818" points="483,432.5313,473,436.5313,483,440.5313,479,436.5313" style="stroke:#181818;stroke-width:1.0;"/><line style="stroke:#181818;stroke-width:1.0;stroke-dasharray:2.0,2.0;" x1="477" x2="720.5" y1="436.5313" y2="436.5313"/><text fill="#000000" font-family="sans-serif" font-size="13" lengthAdjust="spacing" textLength="90" x="489" y="431.6748">return response</text><polygon fill="#181818" points="356,462.8828,346,466.8828,356,470.8828,352,466.8828" style="stroke:#181818;stroke-width:1.0;"/><line style="stroke:#181818;stroke-width:1.0;stroke-dasharray:2.0,2.0;" x1="350" x2="461" y1="466.8828" y2="466.8828"/><text fill="#000000" font-family="sans-serif" font-size="13" lengthAdjust="spacing" textLength="90" x="362" y="462.0264">return response</text><polygon fill="#181818" points="217,493.2344,207,497.2344,217,501.2344,213,497.2344" style="stroke:#181818;stroke-width:1.0;"/><line style="stroke:#181818;stroke-width:1.0;stroke-dasharray:2.0,2.0;" x1="211" x2="334" y1="497.2344" y2="497.2344"/><text fill="#000000" font-family="sans-serif" font-size="13" lengthAdjust="spacing" textLength="105" x="223" y="492.3779">robot type created</text><polygon fill="#181818" points="69,539.9375,59,543.9375,69,547.9375,65,543.9375" style="stroke:#181818;stroke-width:1.0;"/><line style="stroke:#181818;stroke-width:1.0;stroke-dasharray:2.0,2.0;" x1="63" x2="195" y1="543.9375" y2="543.9375"/><text fill="#000000" font-family="sans-serif" font-size="13" lengthAdjust="spacing" textLength="105" x="75" y="522.7295">robot type created</text><text fill="#000000" font-family="sans-serif" font-size="13" lengthAdjust="spacing" textLength="72" x="75" y="539.0811">successfully</text><!--MD5=[81adc60a263fef5e25c7d6af1941bf6b]
@startuml SD Lv3

!pragma teoz true

participant "Fleet manager" as fleet
box "Fleet Management UI" #LightBlue

    box "View"
        participant "HTML + CSS + JS" as html
        participant "Component" as component
    end box
    participant "Service" as service
    participant "API Routes" as API_ROUTES
    participant "Http driver" as http

end box
participant "Fleet Management API" as fleetAPI

fleet -> html : input robot type info
activate html
fleet -> html : click on button

    html -> component : create robot type
    activate component

        component -> service : create robot type
        activate service

            service -> API_ROUTES : robot.createRobotType()
            activate API_ROUTES

            API_ROUTES - -> service : api route
            deactivate API_ROUTES

            service -> http : POST(api route, robot type info)
            activate http

                http -> fleetAPI : send request
                activate fleetAPI

                    fleetAPI -> fleetAPI : create robot type
                    note right : procedures in the\nuser story ID350
                    
                fleetAPI - -> http : return response
                deactivate fleetAPI

            http - -> service : return response
            deactivate http

        service - -> component : return response
        deactivate service

    component - -> html : robot type created
    deactivate component

html - -> fleet : robot type created\nsuccessfully
deactivate html


@enduml

PlantUML version 1.2022.7(Mon Aug 22 18:01:30 BST 2022)
(GPL source distribution)
Java Runtime: Java(TM) SE Runtime Environment
JVM: Java HotSpot(TM) 64-Bit Server VM
Default Encoding: Cp1252
Language: pt
Country: PT
--></g></svg>