<?xml version="1.0" encoding="UTF-8" standalone="no"?><svg xmlns="http://www.w3.org/2000/svg" xmlns:xlink="http://www.w3.org/1999/xlink" contentStyleType="text/css" height="827px" preserveAspectRatio="none" style="width:665px;height:827px;background:#FFFFFF;" version="1.1" viewBox="0 0 665 827" width="665px" zoomAndPan="magnify"><defs/><g><rect fill="#ADD8E6" height="815.6016" style="stroke:#181818;stroke-width:0.5;" width="373.5" x="279.5" y="6"/><text fill="#000000" font-family="sans-serif" font-size="13" font-weight="bold" lengthAdjust="spacing" textLength="131" x="400.75" y="19.4951">RobDroneGo System</text><rect fill="#FFFFFF" height="617.0313" style="stroke:#181818;stroke-width:1.0;" width="10" x="291.5" y="114.9609"/><rect fill="#FFFFFF" height="91.0547" style="stroke:#181818;stroke-width:1.0;" width="10" x="458.5" y="145.3125"/><rect fill="#FFFFFF" height="30.3516" style="stroke:#181818;stroke-width:1.0;" width="10" x="458.5" y="266.7188"/><rect fill="#FFFFFF" height="91.0547" style="stroke:#181818;stroke-width:1.0;" width="10" x="458.5" y="352.7734"/><rect fill="#FFFFFF" height="134.4063" style="stroke:#181818;stroke-width:1.0;" width="10" x="458.5" y="558.2344"/><rect fill="#FFFFFF" height="30.3516" style="stroke:#181818;stroke-width:1.0;" width="10" x="627.5" y="175.6641"/><rect fill="#FFFFFF" height="30.3516" style="stroke:#181818;stroke-width:1.0;" width="10" x="627.5" y="383.125"/><rect fill="#FFFFFF" height="30.3516" style="stroke:#181818;stroke-width:1.0;" width="10" x="627.5" y="588.5859"/><rect fill="none" height="139.7578" style="stroke:#000000;stroke-width:1.5;" width="385.5" x="273.5" y="312.0703"/><line style="stroke:#181818;stroke-width:0.5;stroke-dasharray:5.0,5.0;" x1="53" x2="53" y1="82.6094" y2="740.9922"/><line style="stroke:#181818;stroke-width:0.5;stroke-dasharray:5.0,5.0;" x1="296.5" x2="296.5" y1="82.6094" y2="740.9922"/><line style="stroke:#181818;stroke-width:0.5;stroke-dasharray:5.0,5.0;" x1="463" x2="463" y1="82.6094" y2="740.9922"/><line style="stroke:#181818;stroke-width:0.5;stroke-dasharray:5.0,5.0;" x1="558" x2="558" y1="82.6094" y2="740.9922"/><line style="stroke:#181818;stroke-width:0.5;stroke-dasharray:5.0,5.0;" x1="632" x2="632" y1="82.6094" y2="740.9922"/><text fill="#000000" font-family="sans-serif" font-size="14" lengthAdjust="spacing" textLength="91" x="5" y="79.5332">Task Manager</text><ellipse cx="53.5" cy="13.5" fill="#E2E2F0" rx="8" ry="8" style="stroke:#181818;stroke-width:0.5;"/><path d="M53.5,21.5 L53.5,48.5 M40.5,29.5 L66.5,29.5 M53.5,48.5 L40.5,63.5 M53.5,48.5 L66.5,63.5 " fill="none" style="stroke:#181818;stroke-width:0.5;"/><text fill="#000000" font-family="sans-serif" font-size="14" lengthAdjust="spacing" textLength="91" x="5" y="754.5254">Task Manager</text><ellipse cx="53.5" cy="766.1016" fill="#E2E2F0" rx="8" ry="8" style="stroke:#181818;stroke-width:0.5;"/><path d="M53.5,774.1016 L53.5,801.1016 M40.5,782.1016 L66.5,782.1016 M53.5,801.1016 L40.5,816.1016 M53.5,801.1016 L66.5,816.1016 " fill="none" style="stroke:#181818;stroke-width:0.5;"/><rect fill="#E2E2F0" height="31.6094" rx="2.5" ry="2.5" style="stroke:#181818;stroke-width:0.5;" width="26" x="283.5" y="50"/><text fill="#000000" font-family="sans-serif" font-size="14" lengthAdjust="spacing" textLength="12" x="290.5" y="71.5332">UI</text><rect fill="#E2E2F0" height="31.6094" rx="2.5" ry="2.5" style="stroke:#181818;stroke-width:0.5;" width="26" x="283.5" y="739.9922"/><text fill="#000000" font-family="sans-serif" font-size="14" lengthAdjust="spacing" textLength="12" x="290.5" y="761.5254">UI</text><rect fill="#E2E2F0" height="49.2188" rx="2.5" ry="2.5" style="stroke:#181818;stroke-width:0.5;" width="73" x="427" y="32.3906"/><text fill="#000000" font-family="sans-serif" font-size="14" lengthAdjust="spacing" textLength="55" x="434" y="53.9238">Planning</text><text fill="#000000" font-family="sans-serif" font-size="14" lengthAdjust="spacing" textLength="46" x="440.5" y="71.5332">Module</text><rect fill="#E2E2F0" height="49.2188" rx="2.5" ry="2.5" style="stroke:#181818;stroke-width:0.5;" width="73" x="427" y="739.9922"/><text fill="#000000" font-family="sans-serif" font-size="14" lengthAdjust="spacing" textLength="55" x="434" y="761.5254">Planning</text><text fill="#000000" font-family="sans-serif" font-size="14" lengthAdjust="spacing" textLength="46" x="440.5" y="779.1348">Module</text><rect fill="#E2E2F0" height="49.2188" rx="2.5" ry="2.5" style="stroke:#181818;stroke-width:0.5;" width="96" x="510" y="32.3906"/><text fill="#000000" font-family="sans-serif" font-size="14" lengthAdjust="spacing" textLength="29" x="541.5" y="53.9238">User</text><text fill="#000000" font-family="sans-serif" font-size="14" lengthAdjust="spacing" textLength="82" x="517" y="71.5332">Management</text><rect fill="#E2E2F0" height="49.2188" rx="2.5" ry="2.5" style="stroke:#181818;stroke-width:0.5;" width="96" x="510" y="739.9922"/><text fill="#000000" font-family="sans-serif" font-size="14" lengthAdjust="spacing" textLength="29" x="541.5" y="761.5254">User</text><text fill="#000000" font-family="sans-serif" font-size="14" lengthAdjust="spacing" textLength="82" x="517" y="779.1348">Management</text><rect fill="#E2E2F0" height="31.6094" rx="2.5" ry="2.5" style="stroke:#181818;stroke-width:0.5;" width="33" x="616" y="50"/><text fill="#000000" font-family="sans-serif" font-size="14" lengthAdjust="spacing" textLength="19" x="623" y="71.5332">DB</text><rect fill="#E2E2F0" height="31.6094" rx="2.5" ry="2.5" style="stroke:#181818;stroke-width:0.5;" width="33" x="616" y="739.9922"/><text fill="#000000" font-family="sans-serif" font-size="14" lengthAdjust="spacing" textLength="19" x="623" y="761.5254">DB</text><rect fill="#FFFFFF" height="617.0313" style="stroke:#181818;stroke-width:1.0;" width="10" x="291.5" y="114.9609"/><rect fill="#FFFFFF" height="91.0547" style="stroke:#181818;stroke-width:1.0;" width="10" x="458.5" y="145.3125"/><rect fill="#FFFFFF" height="30.3516" style="stroke:#181818;stroke-width:1.0;" width="10" x="458.5" y="266.7188"/><rect fill="#FFFFFF" height="91.0547" style="stroke:#181818;stroke-width:1.0;" width="10" x="458.5" y="352.7734"/><rect fill="#FFFFFF" height="134.4063" style="stroke:#181818;stroke-width:1.0;" width="10" x="458.5" y="558.2344"/><rect fill="#FFFFFF" height="30.3516" style="stroke:#181818;stroke-width:1.0;" width="10" x="627.5" y="175.6641"/><rect fill="#FFFFFF" height="30.3516" style="stroke:#181818;stroke-width:1.0;" width="10" x="627.5" y="383.125"/><rect fill="#FFFFFF" height="30.3516" style="stroke:#181818;stroke-width:1.0;" width="10" x="627.5" y="588.5859"/><polygon fill="#181818" points="279.5,110.9609,289.5,114.9609,279.5,118.9609,283.5,114.9609" style="stroke:#181818;stroke-width:1.0;"/><line style="stroke:#181818;stroke-width:1.0;" x1="53.5" x2="285.5" y1="114.9609" y2="114.9609"/><text fill="#000000" font-family="sans-serif" font-size="13" lengthAdjust="spacing" textLength="86" x="60.5" y="110.1045">Go to /task/list</text><polygon fill="#181818" points="446.5,141.3125,456.5,145.3125,446.5,149.3125,450.5,145.3125" style="stroke:#181818;stroke-width:1.0;"/><line style="stroke:#181818;stroke-width:1.0;" x1="301.5" x2="452.5" y1="145.3125" y2="145.3125"/><text fill="#000000" font-family="sans-serif" font-size="13" lengthAdjust="spacing" textLength="71" x="308.5" y="140.4561">Get task list</text><polygon fill="#181818" points="615.5,171.6641,625.5,175.6641,615.5,179.6641,619.5,175.6641" style="stroke:#181818;stroke-width:1.0;"/><line style="stroke:#181818;stroke-width:1.0;" x1="468.5" x2="621.5" y1="175.6641" y2="175.6641"/><text fill="#000000" font-family="sans-serif" font-size="13" lengthAdjust="spacing" textLength="71" x="475.5" y="170.8076">Get task list</text><polygon fill="#181818" points="479.5,202.0156,469.5,206.0156,479.5,210.0156,475.5,206.0156" style="stroke:#181818;stroke-width:1.0;"/><line style="stroke:#181818;stroke-width:1.0;stroke-dasharray:2.0,2.0;" x1="473.5" x2="631.5" y1="206.0156" y2="206.0156"/><text fill="#000000" font-family="sans-serif" font-size="13" lengthAdjust="spacing" textLength="88" x="485.5" y="201.1592">Return task list</text><polygon fill="#181818" points="312.5,232.3672,302.5,236.3672,312.5,240.3672,308.5,236.3672" style="stroke:#181818;stroke-width:1.0;"/><line style="stroke:#181818;stroke-width:1.0;stroke-dasharray:2.0,2.0;" x1="306.5" x2="462.5" y1="236.3672" y2="236.3672"/><text fill="#000000" font-family="sans-serif" font-size="13" lengthAdjust="spacing" textLength="88" x="318.5" y="231.5107">Return task list</text><polygon fill="#181818" points="446.5,262.7188,456.5,266.7188,446.5,270.7188,450.5,266.7188" style="stroke:#181818;stroke-width:1.0;"/><line style="stroke:#181818;stroke-width:1.0;" x1="301.5" x2="452.5" y1="266.7188" y2="266.7188"/><text fill="#000000" font-family="sans-serif" font-size="13" lengthAdjust="spacing" textLength="113" x="308.5" y="261.8623">Get planning status</text><polygon fill="#181818" points="312.5,293.0703,302.5,297.0703,312.5,301.0703,308.5,297.0703" style="stroke:#181818;stroke-width:1.0;"/><line style="stroke:#181818;stroke-width:1.0;stroke-dasharray:2.0,2.0;" x1="306.5" x2="462.5" y1="297.0703" y2="297.0703"/><text fill="#000000" font-family="sans-serif" font-size="13" lengthAdjust="spacing" textLength="130" x="318.5" y="292.2139">Return planning status</text><path d="M273.5,312.0703 L338.5,312.0703 L338.5,320.4219 L328.5,330.4219 L273.5,330.4219 L273.5,312.0703 " fill="#EEEEEE" style="stroke:#000000;stroke-width:1.5;"/><rect fill="none" height="139.7578" style="stroke:#000000;stroke-width:1.5;" width="385.5" x="273.5" y="312.0703"/><text fill="#000000" font-family="sans-serif" font-size="13" font-weight="bold" lengthAdjust="spacing" textLength="20" x="288.5" y="326.5654">opt</text><text fill="#000000" font-family="sans-serif" font-size="11" font-weight="bold" lengthAdjust="spacing" textLength="159" x="353.5" y="325.4893">[planning status is 'planned']</text><polygon fill="#181818" points="446.5,348.7734,456.5,352.7734,446.5,356.7734,450.5,352.7734" style="stroke:#181818;stroke-width:1.0;"/><line style="stroke:#181818;stroke-width:1.0;" x1="301.5" x2="452.5" y1="352.7734" y2="352.7734"/><text fill="#000000" font-family="sans-serif" font-size="13" lengthAdjust="spacing" textLength="116" x="308.5" y="347.917">Get planning results</text><polygon fill="#181818" points="615.5,379.125,625.5,383.125,615.5,387.125,619.5,383.125" style="stroke:#181818;stroke-width:1.0;"/><line style="stroke:#181818;stroke-width:1.0;" x1="468.5" x2="621.5" y1="383.125" y2="383.125"/><text fill="#000000" font-family="sans-serif" font-size="13" lengthAdjust="spacing" textLength="116" x="475.5" y="378.2686">Get planning results</text><polygon fill="#181818" points="479.5,409.4766,469.5,413.4766,479.5,417.4766,475.5,413.4766" style="stroke:#181818;stroke-width:1.0;"/><line style="stroke:#181818;stroke-width:1.0;stroke-dasharray:2.0,2.0;" x1="473.5" x2="631.5" y1="413.4766" y2="413.4766"/><text fill="#000000" font-family="sans-serif" font-size="13" lengthAdjust="spacing" textLength="133" x="485.5" y="408.6201">Return planning results</text><polygon fill="#181818" points="312.5,439.8281,302.5,443.8281,312.5,447.8281,308.5,443.8281" style="stroke:#181818;stroke-width:1.0;"/><line style="stroke:#181818;stroke-width:1.0;stroke-dasharray:2.0,2.0;" x1="306.5" x2="462.5" y1="443.8281" y2="443.8281"/><text fill="#000000" font-family="sans-serif" font-size="13" lengthAdjust="spacing" textLength="133" x="318.5" y="438.9717">Return planning results</text><polygon fill="#181818" points="64.5,493.5313,54.5,497.5313,64.5,501.5313,60.5,497.5313" style="stroke:#181818;stroke-width:1.0;"/><line style="stroke:#181818;stroke-width:1.0;stroke-dasharray:2.0,2.0;" x1="58.5" x2="290.5" y1="497.5313" y2="497.5313"/><text fill="#000000" font-family="sans-serif" font-size="13" lengthAdjust="spacing" textLength="107" x="70.5" y="476.3232">Show task list and</text><text fill="#000000" font-family="sans-serif" font-size="13" lengthAdjust="spacing" textLength="126" x="74.5" y="492.6748">planning results if any</text><polygon fill="#181818" points="279.5,523.8828,289.5,527.8828,279.5,531.8828,283.5,527.8828" style="stroke:#181818;stroke-width:1.0;"/><line style="stroke:#181818;stroke-width:1.0;" x1="53.5" x2="285.5" y1="527.8828" y2="527.8828"/><text fill="#000000" font-family="sans-serif" font-size="13" lengthAdjust="spacing" textLength="150" x="60.5" y="523.0264">Select 'Plan Tasks' button</text><polygon fill="#181818" points="446.5,554.2344,456.5,558.2344,446.5,562.2344,450.5,558.2344" style="stroke:#181818;stroke-width:1.0;"/><line style="stroke:#181818;stroke-width:1.0;" x1="301.5" x2="452.5" y1="558.2344" y2="558.2344"/><text fill="#000000" font-family="sans-serif" font-size="13" lengthAdjust="spacing" textLength="99" x="308.5" y="553.3779">Tasks to plan list</text><polygon fill="#181818" points="615.5,584.5859,625.5,588.5859,615.5,592.5859,619.5,588.5859" style="stroke:#181818;stroke-width:1.0;"/><line style="stroke:#181818;stroke-width:1.0;" x1="468.5" x2="621.5" y1="588.5859" y2="588.5859"/><text fill="#000000" font-family="sans-serif" font-size="13" lengthAdjust="spacing" textLength="121" x="475.5" y="583.7295">Get tasks to plan list</text><polygon fill="#181818" points="479.5,614.9375,469.5,618.9375,479.5,622.9375,475.5,618.9375" style="stroke:#181818;stroke-width:1.0;"/><line style="stroke:#181818;stroke-width:1.0;stroke-dasharray:2.0,2.0;" x1="473.5" x2="631.5" y1="618.9375" y2="618.9375"/><text fill="#000000" font-family="sans-serif" font-size="13" lengthAdjust="spacing" textLength="95" x="485.5" y="614.0811">Return tasks list</text><line style="stroke:#181818;stroke-width:1.0;" x1="468.5" x2="510.5" y1="649.2891" y2="649.2891"/><line style="stroke:#181818;stroke-width:1.0;" x1="510.5" x2="510.5" y1="649.2891" y2="662.2891"/><line style="stroke:#181818;stroke-width:1.0;" x1="469.5" x2="510.5" y1="662.2891" y2="662.2891"/><line style="stroke:#181818;stroke-width:1.0;" x1="469.5" x2="479.5" y1="662.2891" y2="658.2891"/><line style="stroke:#181818;stroke-width:1.0;" x1="469.5" x2="479.5" y1="662.2891" y2="666.2891"/><text fill="#000000" font-family="sans-serif" font-size="13" lengthAdjust="spacing" textLength="62" x="475.5" y="644.4326">Plan tasks</text><polygon fill="#181818" points="312.5,688.6406,302.5,692.6406,312.5,696.6406,308.5,692.6406" style="stroke:#181818;stroke-width:1.0;"/><line style="stroke:#181818;stroke-width:1.0;stroke-dasharray:2.0,2.0;" x1="306.5" x2="462.5" y1="692.6406" y2="692.6406"/><text fill="#000000" font-family="sans-serif" font-size="13" lengthAdjust="spacing" textLength="61" x="318.5" y="687.7842">Return OK</text><polygon fill="#181818" points="64.5,718.9922,54.5,722.9922,64.5,726.9922,60.5,722.9922" style="stroke:#181818;stroke-width:1.0;"/><line style="stroke:#181818;stroke-width:1.0;stroke-dasharray:2.0,2.0;" x1="58.5" x2="290.5" y1="722.9922" y2="722.9922"/><text fill="#000000" font-family="sans-serif" font-size="13" lengthAdjust="spacing" textLength="214" x="70.5" y="718.1357">Show Planning in progress animation</text><!--MD5=[1367643d73b7f7e93b0fbe2829c471ad]
@startuml SD Lv2

actor "Task Manager" as user
box "RobDroneGo System" #LightBlue
    participant "UI" as UI
    participant "Planning \nModule" as PlanningModule
    participant "User \nManagement" as UserModule
    participant "DB" as DB
end box

user -> UI : Go to /task/list
activate UI
UI -> PlanningModule : Get task list
activate PlanningModule
PlanningModule -> DB : Get task list
activate DB
DB - -> PlanningModule : Return task list
deactivate DB
PlanningModule - -> UI : Return task list
deactivate PlanningModule
UI -> PlanningModule : Get planning status
activate PlanningModule
PlanningModule - -> UI : Return planning status
deactivate PlanningModule
opt planning status is 'planned'
    UI -> PlanningModule : Get planning results
    activate PlanningModule
    PlanningModule -> DB : Get planning results
    activate DB
    DB - -> PlanningModule : Return planning results
    deactivate DB
    PlanningModule - -> UI : Return planning results
    deactivate PlanningModule
end
UI - -> user : Show task list and\n planning results if any

user -> UI : Select 'Plan Tasks' button
UI -> PlanningModule : Tasks to plan list
activate PlanningModule
PlanningModule -> DB : Get tasks to plan list
activate DB
DB - -> PlanningModule : Return tasks list
deactivate DB
PlanningModule ->> PlanningModule : Plan tasks
PlanningModule - -> UI : Return OK
deactivate PlanningModule
UI - -> user : Show Planning in progress animation



@enduml

PlantUML version 1.2022.7(Mon Aug 22 18:01:30 BST 2022)
(GPL source distribution)
Java Runtime: Java(TM) SE Runtime Environment
JVM: Java HotSpot(TM) Client VM
Default Encoding: Cp1252
Language: en
Country: US
--></g></svg>