<?xml version="1.0" encoding="UTF-8" standalone="no"?><svg xmlns="http://www.w3.org/2000/svg" xmlns:xlink="http://www.w3.org/1999/xlink" contentStyleType="text/css" height="1906px" preserveAspectRatio="none" style="width:2605px;height:1906px;background:#FFFFFF;" version="1.1" viewBox="0 0 2605 1906" width="2605px" zoomAndPan="magnify"><defs/><g><rect fill="#ADD8E6" height="1894.6094" style="stroke:#181818;stroke-width:0.5;" width="780" x="145.5" y="6"/><text fill="#000000" font-family="sans-serif" font-size="13" font-weight="bold" lengthAdjust="spacing" textLength="98" x="486.5" y="19.4951">RobDroneGo UI</text><rect fill="#DDDDDD" height="1873.2578" style="stroke:#181818;stroke-width:0.5;" width="367.5" x="145.5" y="27.3516"/><text fill="#000000" font-family="sans-serif" font-size="13" font-weight="bold" lengthAdjust="spacing" textLength="32" x="313.25" y="40.8467">View</text><rect fill="#DDDDDD" height="1894.6094" style="stroke:#181818;stroke-width:0.5;" width="740.5" x="937.5" y="6"/><text fill="#000000" font-family="sans-serif" font-size="13" font-weight="bold" lengthAdjust="spacing" textLength="268" x="1173.75" y="19.4951">RobDroneGo Backend (Task Management)</text><rect fill="#DDDDDD" height="1894.6094" style="stroke:#181818;stroke-width:0.5;" width="897.5" x="1690" y="6"/><text fill="#000000" font-family="sans-serif" font-size="13" font-weight="bold" lengthAdjust="spacing" textLength="260" x="2008.75" y="19.4951">RobDroneGo Backend (Planning Module)</text><rect fill="none" height="651.7344" style="stroke:#000000;stroke-width:1.5;" width="2403" x="196.5" y="1094.5625"/><line style="stroke:#181818;stroke-width:0.5;stroke-dasharray:5.0,5.0;" x1="53.5" x2="53.5" y1="125.3125" y2="1817"/><line style="stroke:#181818;stroke-width:0.5;stroke-dasharray:5.0,5.0;" x1="212.5" x2="212.5" y1="125.3125" y2="1817"/><rect fill="#FFFFFF" height="1626.9844" style="stroke:#181818;stroke-width:1.0;" width="10" x="207.5" y="172.0156"/><line style="stroke:#181818;stroke-width:0.5;stroke-dasharray:5.0,5.0;" x1="463.5" x2="463.5" y1="125.3125" y2="1817"/><rect fill="#FFFFFF" height="576.6797" style="stroke:#181818;stroke-width:1.0;" width="10" x="458.5" y="202.3672"/><rect fill="#FFFFFF" height="928.8984" style="stroke:#181818;stroke-width:1.0;" width="10" x="458.5" y="809.3984"/><line style="stroke:#181818;stroke-width:0.5;stroke-dasharray:5.0,5.0;" x1="572" x2="572" y1="125.3125" y2="1817"/><line style="stroke:#181818;stroke-width:0.5;stroke-dasharray:5.0,5.0;" x1="684.5" x2="684.5" y1="125.3125" y2="1817"/><rect fill="#FFFFFF" height="515.9766" style="stroke:#181818;stroke-width:1.0;" width="10" x="679.5" y="232.7188"/><rect fill="#FFFFFF" height="212.4609" style="stroke:#181818;stroke-width:1.0;" width="10" x="679.5" y="839.75"/><rect fill="#FFFFFF" height="562.6797" style="stroke:#181818;stroke-width:1.0;" width="10" x="679.5" y="1145.2656"/><line style="stroke:#181818;stroke-width:0.5;stroke-dasharray:5.0,5.0;" x1="890.5" x2="890.5" y1="125.3125" y2="1817"/><rect fill="#FFFFFF" height="30.3516" style="stroke:#181818;stroke-width:1.0;" width="10" x="885.5" y="687.9922"/><rect fill="#FFFFFF" height="30.3516" style="stroke:#181818;stroke-width:1.0;" width="10" x="885.5" y="1600.5391"/><line style="stroke:#181818;stroke-width:0.5;stroke-dasharray:5.0,5.0;" x1="973" x2="973" y1="125.3125" y2="1817"/><rect fill="#FFFFFF" height="394.5703" style="stroke:#181818;stroke-width:1.0;" width="10" x="968" y="263.0703"/><line style="stroke:#181818;stroke-width:0.5;stroke-dasharray:5.0,5.0;" x1="1118" x2="1118" y1="125.3125" y2="1817"/><rect fill="#FFFFFF" height="333.8672" style="stroke:#181818;stroke-width:1.0;" width="10" x="1113" y="293.4219"/><line style="stroke:#181818;stroke-width:0.5;stroke-dasharray:5.0,5.0;" x1="1188" x2="1188" y1="125.3125" y2="1817"/><line style="stroke:#181818;stroke-width:0.5;stroke-dasharray:5.0,5.0;" x1="1263" x2="1263" y1="125.3125" y2="1817"/><rect fill="#FFFFFF" height="273.1641" style="stroke:#181818;stroke-width:1.0;" width="10" x="1258" y="323.7734"/><line style="stroke:#181818;stroke-width:0.5;stroke-dasharray:5.0,5.0;" x1="1336.5" x2="1336.5" y1="125.3125" y2="1817"/><line style="stroke:#181818;stroke-width:0.5;stroke-dasharray:5.0,5.0;" x1="1436" x2="1436" y1="125.3125" y2="1817"/><rect fill="#FFFFFF" height="151.7578" style="stroke:#181818;stroke-width:1.0;" width="10" x="1431" y="354.125"/><line style="stroke:#181818;stroke-width:0.5;stroke-dasharray:5.0,5.0;" x1="1558" x2="1558" y1="125.3125" y2="1817"/><rect fill="#FFFFFF" height="30.3516" style="stroke:#181818;stroke-width:1.0;" width="10" x="1553" y="384.4766"/><line style="stroke:#181818;stroke-width:0.5;stroke-dasharray:5.0,5.0;" x1="1643" x2="1643" y1="125.3125" y2="1817"/><rect fill="#FFFFFF" height="30.3516" style="stroke:#181818;stroke-width:1.0;" width="10" x="1638" y="445.1797"/><rect fill="#FFFFFF" height="30.3516" style="stroke:#181818;stroke-width:1.0;" width="10" x="1638" y="536.2344"/><line style="stroke:#181818;stroke-width:0.5;stroke-dasharray:5.0,5.0;" x1="1725.5" x2="1725.5" y1="125.3125" y2="1817"/><rect fill="#FFFFFF" height="151.7578" style="stroke:#181818;stroke-width:1.0;" width="10" x="1720.5" y="870.1016"/><rect fill="#FFFFFF" height="394.5703" style="stroke:#181818;stroke-width:1.0;" width="10" x="1720.5" y="1175.6172"/><line style="stroke:#181818;stroke-width:0.5;stroke-dasharray:5.0,5.0;" x1="1946.5" x2="1946.5" y1="125.3125" y2="1817"/><rect fill="#FFFFFF" height="91.0547" style="stroke:#181818;stroke-width:1.0;" width="10" x="1941.5" y="900.4531"/><rect fill="#FFFFFF" height="333.8672" style="stroke:#181818;stroke-width:1.0;" width="10" x="1941.5" y="1205.9688"/><line style="stroke:#181818;stroke-width:0.5;stroke-dasharray:5.0,5.0;" x1="2016.5" x2="2016.5" y1="125.3125" y2="1817"/><line style="stroke:#181818;stroke-width:0.5;stroke-dasharray:5.0,5.0;" x1="2123.5" x2="2123.5" y1="125.3125" y2="1817"/><rect fill="#FFFFFF" height="30.3516" style="stroke:#181818;stroke-width:1.0;" width="10" x="2118.5" y="930.8047"/><rect fill="#FFFFFF" height="273.1641" style="stroke:#181818;stroke-width:1.0;" width="10" x="2118.5" y="1236.3203"/><line style="stroke:#181818;stroke-width:0.5;stroke-dasharray:5.0,5.0;" x1="2203" x2="2203" y1="125.3125" y2="1817"/><line style="stroke:#181818;stroke-width:0.5;stroke-dasharray:5.0,5.0;" x1="2300.5" x2="2300.5" y1="125.3125" y2="1817"/><rect fill="#FFFFFF" height="151.7578" style="stroke:#181818;stroke-width:1.0;" width="10" x="2295.5" y="1266.6719"/><line style="stroke:#181818;stroke-width:0.5;stroke-dasharray:5.0,5.0;" x1="2467.5" x2="2467.5" y1="125.3125" y2="1817"/><rect fill="#FFFFFF" height="30.3516" style="stroke:#181818;stroke-width:1.0;" width="10" x="2462.5" y="1297.0234"/><line style="stroke:#181818;stroke-width:0.5;stroke-dasharray:5.0,5.0;" x1="2552.5" x2="2552.5" y1="125.3125" y2="1817"/><rect fill="#FFFFFF" height="30.3516" style="stroke:#181818;stroke-width:1.0;" width="10" x="2547.5" y="1357.7266"/><rect fill="#FFFFFF" height="30.3516" style="stroke:#181818;stroke-width:1.0;" width="10" x="2547.5" y="1448.7813"/><text fill="#000000" font-family="sans-serif" font-size="14" lengthAdjust="spacing" textLength="91" x="5" y="122.2363">Task Manager</text><ellipse cx="53.5" cy="56.2031" fill="#E2E2F0" rx="8" ry="8" style="stroke:#181818;stroke-width:0.5;"/><path d="M53.5,64.2031 L53.5,91.2031 M40.5,72.2031 L66.5,72.2031 M53.5,91.2031 L40.5,106.2031 M53.5,91.2031 L66.5,106.2031 " fill="none" style="stroke:#181818;stroke-width:0.5;"/><rect fill="#E2E2F0" height="31.6094" rx="2.5" ry="2.5" style="stroke:#181818;stroke-width:0.5;" width="126" x="149.5" y="92.7031"/><text fill="#000000" font-family="sans-serif" font-size="14" lengthAdjust="spacing" textLength="112" x="156.5" y="114.2363">HTML + CSS + JS</text><rect fill="#E2E2F0" height="49.2188" rx="2.5" ry="2.5" style="stroke:#181818;stroke-width:0.5;" width="91" x="418" y="75.0938"/><text fill="#000000" font-family="sans-serif" font-size="14" lengthAdjust="spacing" textLength="57" x="435" y="96.627">Task List</text><text fill="#000000" font-family="sans-serif" font-size="14" lengthAdjust="spacing" textLength="73" x="429" y="114.2363">Component</text><rect fill="#E2E2F0" height="31.6094" rx="2.5" ry="2.5" style="stroke:#181818;stroke-width:0.5;" width="86" x="529" y="92.7031"/><text fill="#000000" font-family="sans-serif" font-size="14" lengthAdjust="spacing" textLength="72" x="536" y="114.2363">Data Model</text><rect fill="#E2E2F0" height="49.2188" rx="2.5" ry="2.5" style="stroke:#181818;stroke-width:0.5;" width="102" x="633.5" y="75.0938"/><text fill="#000000" font-family="sans-serif" font-size="14" lengthAdjust="spacing" textLength="88" x="640.5" y="96.627">Task Request</text><text fill="#000000" font-family="sans-serif" font-size="14" lengthAdjust="spacing" textLength="47" x="663" y="114.2363">Service</text><rect fill="#E2E2F0" height="31.6094" rx="2.5" ry="2.5" style="stroke:#181818;stroke-width:0.5;" width="62" x="859.5" y="92.7031"/><text fill="#000000" font-family="sans-serif" font-size="14" lengthAdjust="spacing" textLength="48" x="866.5" y="114.2363">Mapper</text><rect fill="#E2E2F0" height="31.6094" rx="2.5" ry="2.5" style="stroke:#181818;stroke-width:0.5;" width="63" x="941.5" y="92.7031"/><text fill="#000000" font-family="sans-serif" font-size="14" lengthAdjust="spacing" textLength="49" x="948.5" y="114.2363">Routing</text><rect fill="#E2E2F0" height="31.6094" rx="2.5" ry="2.5" style="stroke:#181818;stroke-width:0.5;" width="76" x="1080" y="92.7031"/><text fill="#000000" font-family="sans-serif" font-size="14" lengthAdjust="spacing" textLength="62" x="1087" y="114.2363">Controller</text><rect fill="#E2E2F0" height="31.6094" rx="2.5" ry="2.5" style="stroke:#181818;stroke-width:0.5;" width="44" x="1166" y="92.7031"/><text fill="#000000" font-family="sans-serif" font-size="14" lengthAdjust="spacing" textLength="30" x="1173" y="114.2363">DTO</text><rect fill="#E2E2F0" height="49.2188" rx="2.5" ry="2.5" style="stroke:#181818;stroke-width:0.5;" width="61" x="1232.5" y="75.0938"/><text fill="#000000" font-family="sans-serif" font-size="14" lengthAdjust="spacing" textLength="31" x="1245.5" y="96.627">Task</text><text fill="#000000" font-family="sans-serif" font-size="14" lengthAdjust="spacing" textLength="47" x="1239.5" y="114.2363">Service</text><rect fill="#E2E2F0" height="49.2188" rx="2.5" ry="2.5" style="stroke:#181818;stroke-width:0.5;" width="66" x="1303.5" y="75.0938"/><text fill="#000000" font-family="sans-serif" font-size="14" lengthAdjust="spacing" textLength="48" x="1310.5" y="96.627">Domain</text><text fill="#000000" font-family="sans-serif" font-size="14" lengthAdjust="spacing" textLength="38" x="1321.5" y="114.2363">Model</text><rect fill="#E2E2F0" height="31.6094" rx="2.5" ry="2.5" style="stroke:#181818;stroke-width:0.5;" width="82" x="1395" y="92.7031"/><text fill="#000000" font-family="sans-serif" font-size="14" lengthAdjust="spacing" textLength="68" x="1402" y="114.2363">Repository</text><rect fill="#E2E2F0" height="31.6094" rx="2.5" ry="2.5" style="stroke:#181818;stroke-width:0.5;" width="88" x="1514" y="92.7031"/><text fill="#000000" font-family="sans-serif" font-size="14" lengthAdjust="spacing" textLength="74" x="1521" y="114.2363">Persistance</text><rect fill="#E2E2F0" height="31.6094" rx="2.5" ry="2.5" style="stroke:#181818;stroke-width:0.5;" width="62" x="1612" y="92.7031"/><text fill="#000000" font-family="sans-serif" font-size="14" lengthAdjust="spacing" textLength="48" x="1619" y="114.2363">Mapper</text><rect fill="#E2E2F0" height="31.6094" rx="2.5" ry="2.5" style="stroke:#181818;stroke-width:0.5;" width="63" x="1694" y="92.7031"/><text fill="#000000" font-family="sans-serif" font-size="14" lengthAdjust="spacing" textLength="49" x="1701" y="114.2363">Routing</text><rect fill="#E2E2F0" height="31.6094" rx="2.5" ry="2.5" style="stroke:#181818;stroke-width:0.5;" width="76" x="1908.5" y="92.7031"/><text fill="#000000" font-family="sans-serif" font-size="14" lengthAdjust="spacing" textLength="62" x="1915.5" y="114.2363">Controller</text><rect fill="#E2E2F0" height="31.6094" rx="2.5" ry="2.5" style="stroke:#181818;stroke-width:0.5;" width="44" x="1994.5" y="92.7031"/><text fill="#000000" font-family="sans-serif" font-size="14" lengthAdjust="spacing" textLength="30" x="2001.5" y="114.2363">DTO</text><rect fill="#E2E2F0" height="49.2188" rx="2.5" ry="2.5" style="stroke:#181818;stroke-width:0.5;" width="73" x="2087" y="75.0938"/><text fill="#000000" font-family="sans-serif" font-size="14" lengthAdjust="spacing" textLength="55" x="2094" y="96.627">Planning</text><text fill="#000000" font-family="sans-serif" font-size="14" lengthAdjust="spacing" textLength="47" x="2100" y="114.2363">Service</text><rect fill="#E2E2F0" height="49.2188" rx="2.5" ry="2.5" style="stroke:#181818;stroke-width:0.5;" width="66" x="2170" y="75.0938"/><text fill="#000000" font-family="sans-serif" font-size="14" lengthAdjust="spacing" textLength="48" x="2177" y="96.627">Domain</text><text fill="#000000" font-family="sans-serif" font-size="14" lengthAdjust="spacing" textLength="38" x="2188" y="114.2363">Model</text><rect fill="#E2E2F0" height="31.6094" rx="2.5" ry="2.5" style="stroke:#181818;stroke-width:0.5;" width="82" x="2259.5" y="92.7031"/><text fill="#000000" font-family="sans-serif" font-size="14" lengthAdjust="spacing" textLength="68" x="2266.5" y="114.2363">Repository</text><rect fill="#E2E2F0" height="31.6094" rx="2.5" ry="2.5" style="stroke:#181818;stroke-width:0.5;" width="88" x="2423.5" y="92.7031"/><text fill="#000000" font-family="sans-serif" font-size="14" lengthAdjust="spacing" textLength="74" x="2430.5" y="114.2363">Persistance</text><rect fill="#E2E2F0" height="31.6094" rx="2.5" ry="2.5" style="stroke:#181818;stroke-width:0.5;" width="62" x="2521.5" y="92.7031"/><text fill="#000000" font-family="sans-serif" font-size="14" lengthAdjust="spacing" textLength="48" x="2528.5" y="114.2363">Mapper</text><text fill="#000000" font-family="sans-serif" font-size="14" lengthAdjust="spacing" textLength="91" x="5" y="1891.5332">Task Manager</text><ellipse cx="53.5" cy="1825.5" fill="#E2E2F0" rx="8" ry="8" style="stroke:#181818;stroke-width:0.5;"/><path d="M53.5,1833.5 L53.5,1860.5 M40.5,1841.5 L66.5,1841.5 M53.5,1860.5 L40.5,1875.5 M53.5,1860.5 L66.5,1875.5 " fill="none" style="stroke:#181818;stroke-width:0.5;"/><rect fill="#E2E2F0" height="31.6094" rx="2.5" ry="2.5" style="stroke:#181818;stroke-width:0.5;" width="126" x="149.5" y="1817"/><text fill="#000000" font-family="sans-serif" font-size="14" lengthAdjust="spacing" textLength="112" x="156.5" y="1838.5332">HTML + CSS + JS</text><rect fill="#E2E2F0" height="49.2188" rx="2.5" ry="2.5" style="stroke:#181818;stroke-width:0.5;" width="91" x="418" y="1817"/><text fill="#000000" font-family="sans-serif" font-size="14" lengthAdjust="spacing" textLength="57" x="435" y="1838.5332">Task List</text><text fill="#000000" font-family="sans-serif" font-size="14" lengthAdjust="spacing" textLength="73" x="429" y="1856.1426">Component</text><rect fill="#E2E2F0" height="31.6094" rx="2.5" ry="2.5" style="stroke:#181818;stroke-width:0.5;" width="86" x="529" y="1817"/><text fill="#000000" font-family="sans-serif" font-size="14" lengthAdjust="spacing" textLength="72" x="536" y="1838.5332">Data Model</text><rect fill="#E2E2F0" height="49.2188" rx="2.5" ry="2.5" style="stroke:#181818;stroke-width:0.5;" width="102" x="633.5" y="1817"/><text fill="#000000" font-family="sans-serif" font-size="14" lengthAdjust="spacing" textLength="88" x="640.5" y="1838.5332">Task Request</text><text fill="#000000" font-family="sans-serif" font-size="14" lengthAdjust="spacing" textLength="47" x="663" y="1856.1426">Service</text><rect fill="#E2E2F0" height="31.6094" rx="2.5" ry="2.5" style="stroke:#181818;stroke-width:0.5;" width="62" x="859.5" y="1817"/><text fill="#000000" font-family="sans-serif" font-size="14" lengthAdjust="spacing" textLength="48" x="866.5" y="1838.5332">Mapper</text><rect fill="#E2E2F0" height="31.6094" rx="2.5" ry="2.5" style="stroke:#181818;stroke-width:0.5;" width="63" x="941.5" y="1817"/><text fill="#000000" font-family="sans-serif" font-size="14" lengthAdjust="spacing" textLength="49" x="948.5" y="1838.5332">Routing</text><rect fill="#E2E2F0" height="31.6094" rx="2.5" ry="2.5" style="stroke:#181818;stroke-width:0.5;" width="76" x="1080" y="1817"/><text fill="#000000" font-family="sans-serif" font-size="14" lengthAdjust="spacing" textLength="62" x="1087" y="1838.5332">Controller</text><rect fill="#E2E2F0" height="31.6094" rx="2.5" ry="2.5" style="stroke:#181818;stroke-width:0.5;" width="44" x="1166" y="1817"/><text fill="#000000" font-family="sans-serif" font-size="14" lengthAdjust="spacing" textLength="30" x="1173" y="1838.5332">DTO</text><rect fill="#E2E2F0" height="49.2188" rx="2.5" ry="2.5" style="stroke:#181818;stroke-width:0.5;" width="61" x="1232.5" y="1817"/><text fill="#000000" font-family="sans-serif" font-size="14" lengthAdjust="spacing" textLength="31" x="1245.5" y="1838.5332">Task</text><text fill="#000000" font-family="sans-serif" font-size="14" lengthAdjust="spacing" textLength="47" x="1239.5" y="1856.1426">Service</text><rect fill="#E2E2F0" height="49.2188" rx="2.5" ry="2.5" style="stroke:#181818;stroke-width:0.5;" width="66" x="1303.5" y="1817"/><text fill="#000000" font-family="sans-serif" font-size="14" lengthAdjust="spacing" textLength="48" x="1310.5" y="1838.5332">Domain</text><text fill="#000000" font-family="sans-serif" font-size="14" lengthAdjust="spacing" textLength="38" x="1321.5" y="1856.1426">Model</text><rect fill="#E2E2F0" height="31.6094" rx="2.5" ry="2.5" style="stroke:#181818;stroke-width:0.5;" width="82" x="1395" y="1817"/><text fill="#000000" font-family="sans-serif" font-size="14" lengthAdjust="spacing" textLength="68" x="1402" y="1838.5332">Repository</text><rect fill="#E2E2F0" height="31.6094" rx="2.5" ry="2.5" style="stroke:#181818;stroke-width:0.5;" width="88" x="1514" y="1817"/><text fill="#000000" font-family="sans-serif" font-size="14" lengthAdjust="spacing" textLength="74" x="1521" y="1838.5332">Persistance</text><rect fill="#E2E2F0" height="31.6094" rx="2.5" ry="2.5" style="stroke:#181818;stroke-width:0.5;" width="62" x="1612" y="1817"/><text fill="#000000" font-family="sans-serif" font-size="14" lengthAdjust="spacing" textLength="48" x="1619" y="1838.5332">Mapper</text><rect fill="#E2E2F0" height="31.6094" rx="2.5" ry="2.5" style="stroke:#181818;stroke-width:0.5;" width="63" x="1694" y="1817"/><text fill="#000000" font-family="sans-serif" font-size="14" lengthAdjust="spacing" textLength="49" x="1701" y="1838.5332">Routing</text><rect fill="#E2E2F0" height="31.6094" rx="2.5" ry="2.5" style="stroke:#181818;stroke-width:0.5;" width="76" x="1908.5" y="1817"/><text fill="#000000" font-family="sans-serif" font-size="14" lengthAdjust="spacing" textLength="62" x="1915.5" y="1838.5332">Controller</text><rect fill="#E2E2F0" height="31.6094" rx="2.5" ry="2.5" style="stroke:#181818;stroke-width:0.5;" width="44" x="1994.5" y="1817"/><text fill="#000000" font-family="sans-serif" font-size="14" lengthAdjust="spacing" textLength="30" x="2001.5" y="1838.5332">DTO</text><rect fill="#E2E2F0" height="49.2188" rx="2.5" ry="2.5" style="stroke:#181818;stroke-width:0.5;" width="73" x="2087" y="1817"/><text fill="#000000" font-family="sans-serif" font-size="14" lengthAdjust="spacing" textLength="55" x="2094" y="1838.5332">Planning</text><text fill="#000000" font-family="sans-serif" font-size="14" lengthAdjust="spacing" textLength="47" x="2100" y="1856.1426">Service</text><rect fill="#E2E2F0" height="49.2188" rx="2.5" ry="2.5" style="stroke:#181818;stroke-width:0.5;" width="66" x="2170" y="1817"/><text fill="#000000" font-family="sans-serif" font-size="14" lengthAdjust="spacing" textLength="48" x="2177" y="1838.5332">Domain</text><text fill="#000000" font-family="sans-serif" font-size="14" lengthAdjust="spacing" textLength="38" x="2188" y="1856.1426">Model</text><rect fill="#E2E2F0" height="31.6094" rx="2.5" ry="2.5" style="stroke:#181818;stroke-width:0.5;" width="82" x="2259.5" y="1817"/><text fill="#000000" font-family="sans-serif" font-size="14" lengthAdjust="spacing" textLength="68" x="2266.5" y="1838.5332">Repository</text><rect fill="#E2E2F0" height="31.6094" rx="2.5" ry="2.5" style="stroke:#181818;stroke-width:0.5;" width="88" x="2423.5" y="1817"/><text fill="#000000" font-family="sans-serif" font-size="14" lengthAdjust="spacing" textLength="74" x="2430.5" y="1838.5332">Persistance</text><rect fill="#E2E2F0" height="31.6094" rx="2.5" ry="2.5" style="stroke:#181818;stroke-width:0.5;" width="62" x="2521.5" y="1817"/><text fill="#000000" font-family="sans-serif" font-size="14" lengthAdjust="spacing" textLength="48" x="2528.5" y="1838.5332">Mapper</text><polygon fill="#181818" points="195.5,168.0156,205.5,172.0156,195.5,176.0156,199.5,172.0156" style="stroke:#181818;stroke-width:1.0;"/><line style="stroke:#181818;stroke-width:1.0;" x1="53.5" x2="201.5" y1="172.0156" y2="172.0156"/><text fill="#000000" font-family="sans-serif" font-size="13" lengthAdjust="spacing" textLength="86" x="60.5" y="150.8076">Go to /task/list</text><text fill="#000000" font-family="sans-serif" font-size="13" lengthAdjust="spacing" textLength="60" x="64.5" y="167.1592">SPA route</text><polygon fill="#181818" points="446.5,198.3672,456.5,202.3672,446.5,206.3672,450.5,202.3672" style="stroke:#181818;stroke-width:1.0;"/><line style="stroke:#181818;stroke-width:1.0;" x1="217.5" x2="452.5" y1="202.3672" y2="202.3672"/><text fill="#000000" font-family="sans-serif" font-size="13" lengthAdjust="spacing" textLength="71" x="224.5" y="197.5107">Get task list</text><polygon fill="#181818" points="667.5,228.7188,677.5,232.7188,667.5,236.7188,671.5,232.7188" style="stroke:#181818;stroke-width:1.0;"/><line style="stroke:#181818;stroke-width:1.0;" x1="468.5" x2="673.5" y1="232.7188" y2="232.7188"/><text fill="#000000" font-family="sans-serif" font-size="13" lengthAdjust="spacing" textLength="71" x="475.5" y="227.8623">Get task list</text><polygon fill="#181818" points="956,259.0703,966,263.0703,956,267.0703,960,263.0703" style="stroke:#181818;stroke-width:1.0;"/><line style="stroke:#181818;stroke-width:1.0;" x1="689.5" x2="962" y1="263.0703" y2="263.0703"/><text fill="#000000" font-family="sans-serif" font-size="13" lengthAdjust="spacing" textLength="102" x="696.5" y="258.2139">Get /taskRequest</text><polygon fill="#181818" points="1101,289.4219,1111,293.4219,1101,297.4219,1105,293.4219" style="stroke:#181818;stroke-width:1.0;"/><line style="stroke:#181818;stroke-width:1.0;" x1="978" x2="1107" y1="293.4219" y2="293.4219"/><text fill="#000000" font-family="sans-serif" font-size="13" lengthAdjust="spacing" textLength="41" x="985" y="288.5654">getAll()</text><polygon fill="#181818" points="1246,319.7734,1256,323.7734,1246,327.7734,1250,323.7734" style="stroke:#181818;stroke-width:1.0;"/><line style="stroke:#181818;stroke-width:1.0;" x1="1123" x2="1252" y1="323.7734" y2="323.7734"/><text fill="#000000" font-family="sans-serif" font-size="13" lengthAdjust="spacing" textLength="41" x="1130" y="318.917">getAll()</text><polygon fill="#181818" points="1419,350.125,1429,354.125,1419,358.125,1423,354.125" style="stroke:#181818;stroke-width:1.0;"/><line style="stroke:#181818;stroke-width:1.0;" x1="1268" x2="1425" y1="354.125" y2="354.125"/><text fill="#000000" font-family="sans-serif" font-size="13" lengthAdjust="spacing" textLength="41" x="1275" y="349.2686">getAll()</text><polygon fill="#181818" points="1541,380.4766,1551,384.4766,1541,388.4766,1545,384.4766" style="stroke:#181818;stroke-width:1.0;"/><line style="stroke:#181818;stroke-width:1.0;" x1="1441" x2="1547" y1="384.4766" y2="384.4766"/><text fill="#000000" font-family="sans-serif" font-size="13" lengthAdjust="spacing" textLength="28" x="1448" y="379.6201">find()</text><polygon fill="#181818" points="1452,410.8281,1442,414.8281,1452,418.8281,1448,414.8281" style="stroke:#181818;stroke-width:1.0;"/><line style="stroke:#181818;stroke-width:1.0;stroke-dasharray:2.0,2.0;" x1="1446" x2="1552" y1="414.8281" y2="414.8281"/><text fill="#000000" font-family="sans-serif" font-size="13" lengthAdjust="spacing" textLength="88" x="1458" y="409.9717">Return task list</text><polygon fill="#181818" points="1626,441.1797,1636,445.1797,1626,449.1797,1630,445.1797" style="stroke:#181818;stroke-width:1.0;"/><line style="stroke:#181818;stroke-width:1.0;" x1="1441" x2="1632" y1="445.1797" y2="445.1797"/><text fill="#000000" font-family="sans-serif" font-size="13" lengthAdjust="spacing" textLength="127" x="1448" y="440.3232">map to Domain Model</text><polygon fill="#181818" points="1452,471.5313,1442,475.5313,1452,479.5313,1448,475.5313" style="stroke:#181818;stroke-width:1.0;"/><line style="stroke:#181818;stroke-width:1.0;stroke-dasharray:2.0,2.0;" x1="1446" x2="1637" y1="475.5313" y2="475.5313"/><text fill="#000000" font-family="sans-serif" font-size="13" lengthAdjust="spacing" textLength="139" x="1458" y="470.6748">Return TaskRequest list</text><polygon fill="#181818" points="1279,501.8828,1269,505.8828,1279,509.8828,1275,505.8828" style="stroke:#181818;stroke-width:1.0;"/><line style="stroke:#181818;stroke-width:1.0;stroke-dasharray:2.0,2.0;" x1="1273" x2="1430" y1="505.8828" y2="505.8828"/><text fill="#000000" font-family="sans-serif" font-size="13" lengthAdjust="spacing" textLength="139" x="1285" y="501.0264">Return TaskRequest list</text><polygon fill="#181818" points="1626,532.2344,1636,536.2344,1626,540.2344,1630,536.2344" style="stroke:#181818;stroke-width:1.0;"/><line style="stroke:#181818;stroke-width:1.0;" x1="1268" x2="1632" y1="536.2344" y2="536.2344"/><text fill="#000000" font-family="sans-serif" font-size="13" lengthAdjust="spacing" textLength="70" x="1275" y="531.3779">map to DTO</text><polygon fill="#181818" points="1279,562.5859,1269,566.5859,1279,570.5859,1275,566.5859" style="stroke:#181818;stroke-width:1.0;"/><line style="stroke:#181818;stroke-width:1.0;stroke-dasharray:2.0,2.0;" x1="1273" x2="1637" y1="566.5859" y2="566.5859"/><text fill="#000000" font-family="sans-serif" font-size="13" lengthAdjust="spacing" textLength="111" x="1285" y="561.7295">Return TaskDto list</text><polygon fill="#181818" points="1134,592.9375,1124,596.9375,1134,600.9375,1130,596.9375" style="stroke:#181818;stroke-width:1.0;"/><line style="stroke:#181818;stroke-width:1.0;stroke-dasharray:2.0,2.0;" x1="1128" x2="1257" y1="596.9375" y2="596.9375"/><text fill="#000000" font-family="sans-serif" font-size="13" lengthAdjust="spacing" textLength="111" x="1140" y="592.0811">Return TaskDto list</text><polygon fill="#181818" points="989,623.2891,979,627.2891,989,631.2891,985,627.2891" style="stroke:#181818;stroke-width:1.0;"/><line style="stroke:#181818;stroke-width:1.0;stroke-dasharray:2.0,2.0;" x1="983" x2="1112" y1="627.2891" y2="627.2891"/><text fill="#000000" font-family="sans-serif" font-size="13" lengthAdjust="spacing" textLength="111" x="995" y="622.4326">Return TaskDto list</text><polygon fill="#181818" points="700.5,653.6406,690.5,657.6406,700.5,661.6406,696.5,657.6406" style="stroke:#181818;stroke-width:1.0;"/><line style="stroke:#181818;stroke-width:1.0;stroke-dasharray:2.0,2.0;" x1="694.5" x2="967" y1="657.6406" y2="657.6406"/><text fill="#000000" font-family="sans-serif" font-size="13" lengthAdjust="spacing" textLength="111" x="706.5" y="652.7842">Return TaskDto list</text><polygon fill="#181818" points="873.5,683.9922,883.5,687.9922,873.5,691.9922,877.5,687.9922" style="stroke:#181818;stroke-width:1.0;"/><line style="stroke:#181818;stroke-width:1.0;stroke-dasharray:2.0,2.0;" x1="689.5" x2="879.5" y1="687.9922" y2="687.9922"/><text fill="#000000" font-family="sans-serif" font-size="13" lengthAdjust="spacing" textLength="79" x="696.5" y="683.1357">map to Model</text><polygon fill="#181818" points="700.5,714.3438,690.5,718.3438,700.5,722.3438,696.5,718.3438" style="stroke:#181818;stroke-width:1.0;"/><line style="stroke:#181818;stroke-width:1.0;stroke-dasharray:2.0,2.0;" x1="694.5" x2="884.5" y1="718.3438" y2="718.3438"/><text fill="#000000" font-family="sans-serif" font-size="13" lengthAdjust="spacing" textLength="126" x="706.5" y="713.4873">Return TaskModel list</text><polygon fill="#181818" points="479.5,744.6953,469.5,748.6953,479.5,752.6953,475.5,748.6953" style="stroke:#181818;stroke-width:1.0;"/><line style="stroke:#181818;stroke-width:1.0;stroke-dasharray:2.0,2.0;" x1="473.5" x2="678.5" y1="748.6953" y2="748.6953"/><text fill="#000000" font-family="sans-serif" font-size="13" lengthAdjust="spacing" textLength="126" x="485.5" y="743.8389">Return TaskModel list</text><polygon fill="#181818" points="228.5,775.0469,218.5,779.0469,228.5,783.0469,224.5,779.0469" style="stroke:#181818;stroke-width:1.0;"/><line style="stroke:#181818;stroke-width:1.0;stroke-dasharray:2.0,2.0;" x1="222.5" x2="457.5" y1="779.0469" y2="779.0469"/><text fill="#000000" font-family="sans-serif" font-size="13" lengthAdjust="spacing" textLength="121" x="234.5" y="774.1904">Update with Task list</text><polygon fill="#181818" points="446.5,805.3984,456.5,809.3984,446.5,813.3984,450.5,809.3984" style="stroke:#181818;stroke-width:1.0;"/><line style="stroke:#181818;stroke-width:1.0;" x1="217.5" x2="452.5" y1="809.3984" y2="809.3984"/><text fill="#000000" font-family="sans-serif" font-size="13" lengthAdjust="spacing" textLength="113" x="224.5" y="804.542">Get planning status</text><polygon fill="#181818" points="667.5,835.75,677.5,839.75,667.5,843.75,671.5,839.75" style="stroke:#181818;stroke-width:1.0;"/><line style="stroke:#181818;stroke-width:1.0;" x1="468.5" x2="673.5" y1="839.75" y2="839.75"/><text fill="#000000" font-family="sans-serif" font-size="13" lengthAdjust="spacing" textLength="113" x="475.5" y="834.8936">Get planning status</text><polygon fill="#181818" points="1708.5,866.1016,1718.5,870.1016,1708.5,874.1016,1712.5,870.1016" style="stroke:#181818;stroke-width:1.0;"/><line style="stroke:#181818;stroke-width:1.0;" x1="689.5" x2="1714.5" y1="870.1016" y2="870.1016"/><text fill="#000000" font-family="sans-serif" font-size="13" lengthAdjust="spacing" textLength="198" x="696.5" y="865.2451">Get /planning/task-planning-status</text><polygon fill="#181818" points="1929.5,896.4531,1939.5,900.4531,1929.5,904.4531,1933.5,900.4531" style="stroke:#181818;stroke-width:1.0;"/><line style="stroke:#181818;stroke-width:1.0;" x1="1730.5" x2="1935.5" y1="900.4531" y2="900.4531"/><text fill="#000000" font-family="sans-serif" font-size="13" lengthAdjust="spacing" textLength="142" x="1737.5" y="895.5967">getTaskPlanningStatus()</text><polygon fill="#181818" points="2106.5,926.8047,2116.5,930.8047,2106.5,934.8047,2110.5,930.8047" style="stroke:#181818;stroke-width:1.0;"/><line style="stroke:#181818;stroke-width:1.0;" x1="1951.5" x2="2112.5" y1="930.8047" y2="930.8047"/><text fill="#000000" font-family="sans-serif" font-size="13" lengthAdjust="spacing" textLength="142" x="1958.5" y="925.9482">getTaskPlanningStatus()</text><polygon fill="#181818" points="1962.5,957.1563,1952.5,961.1563,1962.5,965.1563,1958.5,961.1563" style="stroke:#181818;stroke-width:1.0;"/><line style="stroke:#181818;stroke-width:1.0;stroke-dasharray:2.0,2.0;" x1="1956.5" x2="2117.5" y1="961.1563" y2="961.1563"/><text fill="#000000" font-family="sans-serif" font-size="13" lengthAdjust="spacing" textLength="130" x="1968.5" y="956.2998">Return planning status</text><polygon fill="#181818" points="1741.5,987.5078,1731.5,991.5078,1741.5,995.5078,1737.5,991.5078" style="stroke:#181818;stroke-width:1.0;"/><line style="stroke:#181818;stroke-width:1.0;stroke-dasharray:2.0,2.0;" x1="1735.5" x2="1940.5" y1="991.5078" y2="991.5078"/><text fill="#000000" font-family="sans-serif" font-size="13" lengthAdjust="spacing" textLength="187" x="1747.5" y="986.6514">Return planning status message</text><polygon fill="#181818" points="700.5,1017.8594,690.5,1021.8594,700.5,1025.8594,696.5,1021.8594" style="stroke:#181818;stroke-width:1.0;"/><line style="stroke:#181818;stroke-width:1.0;stroke-dasharray:2.0,2.0;" x1="694.5" x2="1719.5" y1="1021.8594" y2="1021.8594"/><text fill="#000000" font-family="sans-serif" font-size="13" lengthAdjust="spacing" textLength="187" x="706.5" y="1017.0029">Return planning status message</text><polygon fill="#181818" points="479.5,1048.2109,469.5,1052.2109,479.5,1056.2109,475.5,1052.2109" style="stroke:#181818;stroke-width:1.0;"/><line style="stroke:#181818;stroke-width:1.0;stroke-dasharray:2.0,2.0;" x1="473.5" x2="678.5" y1="1052.2109" y2="1052.2109"/><text fill="#000000" font-family="sans-serif" font-size="13" lengthAdjust="spacing" textLength="187" x="485.5" y="1047.3545">Return planning status message</text><polygon fill="#181818" points="228.5,1078.5625,218.5,1082.5625,228.5,1086.5625,224.5,1082.5625" style="stroke:#181818;stroke-width:1.0;"/><line style="stroke:#181818;stroke-width:1.0;stroke-dasharray:2.0,2.0;" x1="222.5" x2="457.5" y1="1082.5625" y2="1082.5625"/><text fill="#000000" font-family="sans-serif" font-size="13" lengthAdjust="spacing" textLength="217" x="234.5" y="1077.7061">Update with planning status message</text><path d="M196.5,1094.5625 L261.5,1094.5625 L261.5,1102.9141 L251.5,1112.9141 L196.5,1112.9141 L196.5,1094.5625 " fill="#EEEEEE" style="stroke:#000000;stroke-width:1.5;"/><rect fill="none" height="651.7344" style="stroke:#000000;stroke-width:1.5;" width="2403" x="196.5" y="1094.5625"/><text fill="#000000" font-family="sans-serif" font-size="13" font-weight="bold" lengthAdjust="spacing" textLength="20" x="211.5" y="1109.0576">opt</text><text fill="#000000" font-family="sans-serif" font-size="11" font-weight="bold" lengthAdjust="spacing" textLength="159" x="276.5" y="1107.9814">[planning status is 'planned']</text><polygon fill="#181818" points="667.5,1141.2656,677.5,1145.2656,667.5,1149.2656,671.5,1145.2656" style="stroke:#181818;stroke-width:1.0;"/><line style="stroke:#181818;stroke-width:1.0;" x1="468.5" x2="673.5" y1="1145.2656" y2="1145.2656"/><text fill="#000000" font-family="sans-serif" font-size="13" lengthAdjust="spacing" textLength="116" x="475.5" y="1140.4092">Get planning results</text><polygon fill="#181818" points="1708.5,1171.6172,1718.5,1175.6172,1708.5,1179.6172,1712.5,1175.6172" style="stroke:#181818;stroke-width:1.0;"/><line style="stroke:#181818;stroke-width:1.0;" x1="689.5" x2="1714.5" y1="1175.6172" y2="1175.6172"/><text fill="#000000" font-family="sans-serif" font-size="13" lengthAdjust="spacing" textLength="201" x="696.5" y="1170.7607">Get /planning/task-planning-results</text><polygon fill="#181818" points="1929.5,1201.9688,1939.5,1205.9688,1929.5,1209.9688,1933.5,1205.9688" style="stroke:#181818;stroke-width:1.0;"/><line style="stroke:#181818;stroke-width:1.0;" x1="1730.5" x2="1935.5" y1="1205.9688" y2="1205.9688"/><text fill="#000000" font-family="sans-serif" font-size="13" lengthAdjust="spacing" textLength="148" x="1737.5" y="1201.1123">getTaskPlanningResults()</text><polygon fill="#181818" points="2106.5,1232.3203,2116.5,1236.3203,2106.5,1240.3203,2110.5,1236.3203" style="stroke:#181818;stroke-width:1.0;"/><line style="stroke:#181818;stroke-width:1.0;" x1="1951.5" x2="2112.5" y1="1236.3203" y2="1236.3203"/><text fill="#000000" font-family="sans-serif" font-size="13" lengthAdjust="spacing" textLength="148" x="1958.5" y="1231.4639">getTaskPlanningResults()</text><polygon fill="#181818" points="2283.5,1262.6719,2293.5,1266.6719,2283.5,1270.6719,2287.5,1266.6719" style="stroke:#181818;stroke-width:1.0;"/><line style="stroke:#181818;stroke-width:1.0;" x1="2128.5" x2="2289.5" y1="1266.6719" y2="1266.6719"/><text fill="#000000" font-family="sans-serif" font-size="13" lengthAdjust="spacing" textLength="148" x="2135.5" y="1261.8154">getTaskPlanningResults()</text><polygon fill="#181818" points="2450.5,1293.0234,2460.5,1297.0234,2450.5,1301.0234,2454.5,1297.0234" style="stroke:#181818;stroke-width:1.0;"/><line style="stroke:#181818;stroke-width:1.0;" x1="2305.5" x2="2456.5" y1="1297.0234" y2="1297.0234"/><text fill="#000000" font-family="sans-serif" font-size="13" lengthAdjust="spacing" textLength="120" x="2312.5" y="1292.167">getPlanningResults()</text><polygon fill="#181818" points="2316.5,1323.375,2306.5,1327.375,2316.5,1331.375,2312.5,1327.375" style="stroke:#181818;stroke-width:1.0;"/><line style="stroke:#181818;stroke-width:1.0;stroke-dasharray:2.0,2.0;" x1="2310.5" x2="2461.5" y1="1327.375" y2="1327.375"/><text fill="#000000" font-family="sans-serif" font-size="13" lengthAdjust="spacing" textLength="133" x="2322.5" y="1322.5186">Return planning results</text><polygon fill="#181818" points="2535.5,1353.7266,2545.5,1357.7266,2535.5,1361.7266,2539.5,1357.7266" style="stroke:#181818;stroke-width:1.0;"/><line style="stroke:#181818;stroke-width:1.0;" x1="2305.5" x2="2541.5" y1="1357.7266" y2="1357.7266"/><text fill="#000000" font-family="sans-serif" font-size="13" lengthAdjust="spacing" textLength="127" x="2312.5" y="1352.8701">map to Domain Model</text><polygon fill="#181818" points="2316.5,1384.0781,2306.5,1388.0781,2316.5,1392.0781,2312.5,1388.0781" style="stroke:#181818;stroke-width:1.0;"/><line style="stroke:#181818;stroke-width:1.0;stroke-dasharray:2.0,2.0;" x1="2310.5" x2="2546.5" y1="1388.0781" y2="1388.0781"/><text fill="#000000" font-family="sans-serif" font-size="13" lengthAdjust="spacing" textLength="133" x="2322.5" y="1383.2217">Return planning results</text><polygon fill="#181818" points="2139.5,1414.4297,2129.5,1418.4297,2139.5,1422.4297,2135.5,1418.4297" style="stroke:#181818;stroke-width:1.0;"/><line style="stroke:#181818;stroke-width:1.0;stroke-dasharray:2.0,2.0;" x1="2133.5" x2="2294.5" y1="1418.4297" y2="1418.4297"/><text fill="#000000" font-family="sans-serif" font-size="13" lengthAdjust="spacing" textLength="133" x="2145.5" y="1413.5732">Return planning results</text><polygon fill="#181818" points="2535.5,1444.7813,2545.5,1448.7813,2535.5,1452.7813,2539.5,1448.7813" style="stroke:#181818;stroke-width:1.0;"/><line style="stroke:#181818;stroke-width:1.0;" x1="2128.5" x2="2541.5" y1="1448.7813" y2="1448.7813"/><text fill="#000000" font-family="sans-serif" font-size="13" lengthAdjust="spacing" textLength="70" x="2135.5" y="1443.9248">map to DTO</text><polygon fill="#181818" points="2139.5,1475.1328,2129.5,1479.1328,2139.5,1483.1328,2135.5,1479.1328" style="stroke:#181818;stroke-width:1.0;"/><line style="stroke:#181818;stroke-width:1.0;stroke-dasharray:2.0,2.0;" x1="2133.5" x2="2546.5" y1="1479.1328" y2="1479.1328"/><text fill="#000000" font-family="sans-serif" font-size="13" lengthAdjust="spacing" textLength="133" x="2145.5" y="1474.2764">Return planning results</text><polygon fill="#181818" points="1962.5,1505.4844,1952.5,1509.4844,1962.5,1513.4844,1958.5,1509.4844" style="stroke:#181818;stroke-width:1.0;"/><line style="stroke:#181818;stroke-width:1.0;stroke-dasharray:2.0,2.0;" x1="1956.5" x2="2117.5" y1="1509.4844" y2="1509.4844"/><text fill="#000000" font-family="sans-serif" font-size="13" lengthAdjust="spacing" textLength="133" x="1968.5" y="1504.6279">Return planning results</text><polygon fill="#181818" points="1741.5,1535.8359,1731.5,1539.8359,1741.5,1543.8359,1737.5,1539.8359" style="stroke:#181818;stroke-width:1.0;"/><line style="stroke:#181818;stroke-width:1.0;stroke-dasharray:2.0,2.0;" x1="1735.5" x2="1940.5" y1="1539.8359" y2="1539.8359"/><text fill="#000000" font-family="sans-serif" font-size="13" lengthAdjust="spacing" textLength="133" x="1747.5" y="1534.9795">Return planning results</text><polygon fill="#181818" points="700.5,1566.1875,690.5,1570.1875,700.5,1574.1875,696.5,1570.1875" style="stroke:#181818;stroke-width:1.0;"/><line style="stroke:#181818;stroke-width:1.0;stroke-dasharray:2.0,2.0;" x1="694.5" x2="1719.5" y1="1570.1875" y2="1570.1875"/><text fill="#000000" font-family="sans-serif" font-size="13" lengthAdjust="spacing" textLength="133" x="706.5" y="1565.3311">Return planning results</text><polygon fill="#181818" points="873.5,1596.5391,883.5,1600.5391,873.5,1604.5391,877.5,1600.5391" style="stroke:#181818;stroke-width:1.0;"/><line style="stroke:#181818;stroke-width:1.0;" x1="689.5" x2="879.5" y1="1600.5391" y2="1600.5391"/><text fill="#000000" font-family="sans-serif" font-size="13" lengthAdjust="spacing" textLength="79" x="696.5" y="1595.6826">map to Model</text><polygon fill="#181818" points="700.5,1626.8906,690.5,1630.8906,700.5,1634.8906,696.5,1630.8906" style="stroke:#181818;stroke-width:1.0;"/><line style="stroke:#181818;stroke-width:1.0;stroke-dasharray:2.0,2.0;" x1="694.5" x2="884.5" y1="1630.8906" y2="1630.8906"/><text fill="#000000" font-family="sans-serif" font-size="13" lengthAdjust="spacing" textLength="172" x="706.5" y="1626.0342">Return planning results model</text><polygon fill="#181818" points="479.5,1657.2422,469.5,1661.2422,479.5,1665.2422,475.5,1661.2422" style="stroke:#181818;stroke-width:1.0;"/><line style="stroke:#181818;stroke-width:1.0;stroke-dasharray:2.0,2.0;" x1="473.5" x2="678.5" y1="1661.2422" y2="1661.2422"/><text fill="#000000" font-family="sans-serif" font-size="13" lengthAdjust="spacing" textLength="172" x="485.5" y="1656.3857">Return planning results model</text><polygon fill="#181818" points="479.5,1703.9453,469.5,1707.9453,479.5,1711.9453,475.5,1707.9453" style="stroke:#181818;stroke-width:1.0;"/><line style="stroke:#181818;stroke-width:1.0;stroke-dasharray:2.0,2.0;" x1="473.5" x2="678.5" y1="1707.9453" y2="1707.9453"/><text fill="#000000" font-family="sans-serif" font-size="13" lengthAdjust="spacing" textLength="91" x="485.5" y="1686.7373">Update task list</text><text fill="#000000" font-family="sans-serif" font-size="13" lengthAdjust="spacing" textLength="118" x="489.5" y="1703.0889">with planning results</text><polygon fill="#181818" points="228.5,1734.2969,218.5,1738.2969,228.5,1742.2969,224.5,1738.2969" style="stroke:#181818;stroke-width:1.0;"/><line style="stroke:#181818;stroke-width:1.0;stroke-dasharray:2.0,2.0;" x1="222.5" x2="457.5" y1="1738.2969" y2="1738.2969"/><text fill="#000000" font-family="sans-serif" font-size="13" lengthAdjust="spacing" textLength="163" x="234.5" y="1733.4404">Update with planning results</text><polygon fill="#181818" points="64.5,1795,54.5,1799,64.5,1803,60.5,1799" style="stroke:#181818;stroke-width:1.0;"/><line style="stroke:#181818;stroke-width:1.0;stroke-dasharray:2.0,2.0;" x1="58.5" x2="206.5" y1="1799" y2="1799"/><text fill="#000000" font-family="sans-serif" font-size="13" lengthAdjust="spacing" textLength="110" x="70.5" y="1777.792">Show Task list and</text><text fill="#000000" font-family="sans-serif" font-size="13" lengthAdjust="spacing" textLength="126" x="74.5" y="1794.1436">planning results if any</text><!--MD5=[e133e25cfbabddfa9bb772bb5c86680d]
@startuml SD Lv3

!pragma teoz true

actor "Task Manager" as user
box "RobDroneGo UI" #LightBlue
    box "View"
        participant "HTML + CSS + JS" as FrontEnd
        participant "Task List\n Component" as UIComponent
    end box
    participant "Data Model" as ModelFE
    participant "Task Request\n Service" as TaskServiceFE
    participant "Mapper" as TaskMapperFE
end box

box "RobDroneGo Backend (Task Management)"
    participant "Routing" as TaskRouteBE
    participant "Controller" as TaskControllerBE
    participant "DTO" as TaskDtoBE
    participant "Task \nService" as TaskServiceBE
    participant "Domain \n  Model" as TaskDomainModelBE
    participant "Repository" as TaskRepositoryBE
    participant "Persistance" as TaskPersistanceBE
    participant "Mapper" as TaskMapperBE
end box
box "RobDroneGo Backend (Planning Module)"
    participant "Routing" as PlanningRouteBE
    participant "Controller" as PlanningControllerBE
    participant "DTO" as PlanningDtoBE
    participant "Planning \nService" as PlanningServiceBE
    participant "Domain \n  Model" as PlanningDomainModelBE
    participant "Repository" as PlanningRepositoryBE
    participant "Persistance" as PlanningPersistanceBE
    participant "Mapper" as PlanningMapperBE
end box

user -> FrontEnd : Go to /task/list\n SPA route
activate FrontEnd
FrontEnd -> UIComponent : Get task list
activate UIComponent
UIComponent -> TaskServiceFE : Get task list
activate TaskServiceFE
TaskServiceFE -> TaskRouteBE : Get /taskRequest
activate TaskRouteBE
TaskRouteBE -> TaskControllerBE : getAll()
activate TaskControllerBE
TaskControllerBE -> TaskServiceBE : getAll()
activate TaskServiceBE
TaskServiceBE -> TaskRepositoryBE : getAll()
activate TaskRepositoryBE
TaskRepositoryBE -> TaskPersistanceBE : find()
activate TaskPersistanceBE
TaskPersistanceBE - -> TaskRepositoryBE : Return task list
deactivate TaskPersistanceBE
TaskRepositoryBE -> TaskMapperBE : map to Domain Model
activate TaskMapperBE
TaskMapperBE - -> TaskRepositoryBE : Return TaskRequest list
deactivate TaskMapperBE
TaskRepositoryBE - -> TaskServiceBE : Return TaskRequest list
deactivate TaskRepositoryBE
TaskServiceBE -> TaskMapperBE : map to DTO
activate TaskMapperBE
TaskMapperBE - -> TaskServiceBE : Return TaskDto list
deactivate TaskMapperBE
TaskServiceBE - -> TaskControllerBE : Return TaskDto list
deactivate TaskServiceBE
TaskControllerBE - -> TaskRouteBE : Return TaskDto list
deactivate TaskControllerBE
TaskRouteBE - -> TaskServiceFE : Return TaskDto list
deactivate TaskRouteBE
TaskServiceFE - -> TaskMapperFE : map to Model
activate TaskMapperFE
TaskMapperFE - -> TaskServiceFE : Return TaskModel list
deactivate TaskMapperFE
TaskServiceFE - -> UIComponent : Return TaskModel list
deactivate TaskServiceFE
UIComponent - -> FrontEnd : Update with Task list
deactivate UIComponent

FrontEnd -> UIComponent : Get planning status
activate UIComponent
UIComponent -> TaskServiceFE : Get planning status
activate TaskServiceFE
TaskServiceFE -> PlanningRouteBE : Get /planning/task-planning-status
activate PlanningRouteBE
PlanningRouteBE -> PlanningControllerBE : getTaskPlanningStatus()
activate PlanningControllerBE
PlanningControllerBE -> PlanningServiceBE : getTaskPlanningStatus()
activate PlanningServiceBE
PlanningServiceBE - -> PlanningControllerBE : Return planning status
deactivate PlanningServiceBE
PlanningControllerBE - -> PlanningRouteBE : Return planning status message
deactivate PlanningControllerBE
PlanningRouteBE - -> TaskServiceFE : Return planning status message
deactivate PlanningRouteBE
TaskServiceFE - -> UIComponent : Return planning status message
deactivate TaskServiceFE
UIComponent - -> FrontEnd : Update with planning status message

opt planning status is 'planned'
UIComponent -> TaskServiceFE : Get planning results
activate TaskServiceFE
TaskServiceFE -> PlanningRouteBE : Get /planning/task-planning-results
activate PlanningRouteBE
PlanningRouteBE -> PlanningControllerBE : getTaskPlanningResults()
activate PlanningControllerBE
PlanningControllerBE -> PlanningServiceBE : getTaskPlanningResults()
activate PlanningServiceBE
PlanningServiceBE -> PlanningRepositoryBE : getTaskPlanningResults()
activate PlanningRepositoryBE
PlanningRepositoryBE -> PlanningPersistanceBE : getPlanningResults()
activate PlanningPersistanceBE
PlanningPersistanceBE - -> PlanningRepositoryBE : Return planning results
deactivate PlanningPersistanceBE
PlanningRepositoryBE -> PlanningMapperBE : map to Domain Model
activate PlanningMapperBE
PlanningMapperBE - -> PlanningRepositoryBE : Return planning results
deactivate PlanningMapperBE
PlanningRepositoryBE - -> PlanningServiceBE : Return planning results
deactivate PlanningRepositoryBE
PlanningServiceBE -> PlanningMapperBE : map to DTO
activate PlanningMapperBE
PlanningMapperBE - -> PlanningServiceBE : Return planning results
deactivate PlanningMapperBE
PlanningServiceBE - -> PlanningControllerBE : Return planning results
deactivate PlanningServiceBE
PlanningControllerBE - -> PlanningRouteBE : Return planning results
deactivate PlanningControllerBE
PlanningRouteBE - -> TaskServiceFE : Return planning results
deactivate PlanningRouteBE
TaskServiceFE -> TaskMapperFE : map to Model
activate TaskMapperFE
TaskMapperFE - -> TaskServiceFE : Return planning results model
deactivate TaskMapperFE
TaskServiceFE - -> UIComponent : Return planning results model
deactivate PlanningRouteBE
TaskServiceFE - -> UIComponent : Update task list\n with planning results
deactivate TaskServiceFE
UIComponent - -> FrontEnd : Update with planning results
deactivate UIComponent
end

FrontEnd - -> user : Show Task list and\n planning results if any
deactivate FrontEnd

@enduml

PlantUML version 1.2022.7(Mon Aug 22 18:01:30 BST 2022)
(GPL source distribution)
Java Runtime: Java(TM) SE Runtime Environment
JVM: Java HotSpot(TM) Client VM
Default Encoding: Cp1252
Language: en
Country: US
--></g></svg>