<?xml version="1.0" encoding="UTF-8" standalone="no"?><svg xmlns="http://www.w3.org/2000/svg" xmlns:xlink="http://www.w3.org/1999/xlink" contentStyleType="text/css" height="409px" preserveAspectRatio="none" style="width:351px;height:409px;background:#FFFFFF;" version="1.1" viewBox="0 0 351 409" width="351px" zoomAndPan="magnify"><defs/><g><rect fill="#FFFFFF" height="194.1094" style="stroke:#181818;stroke-width:1.0;" width="10" x="227.5" y="114.9609"/><line style="stroke:#181818;stroke-width:0.5;stroke-dasharray:5.0,5.0;" x1="53" x2="53" y1="82.6094" y2="327.0703"/><line style="stroke:#181818;stroke-width:0.5;stroke-dasharray:5.0,5.0;" x1="232.5" x2="232.5" y1="82.6094" y2="327.0703"/><text fill="#000000" font-family="sans-serif" font-size="14" lengthAdjust="spacing" textLength="91" x="5" y="79.5332">Task Manager</text><ellipse cx="53.5" cy="13.5" fill="#E2E2F0" rx="8" ry="8" style="stroke:#181818;stroke-width:0.5;"/><path d="M53.5,21.5 L53.5,48.5 M40.5,29.5 L66.5,29.5 M53.5,48.5 L40.5,63.5 M53.5,48.5 L66.5,63.5 " fill="none" style="stroke:#181818;stroke-width:0.5;"/><text fill="#000000" font-family="sans-serif" font-size="14" lengthAdjust="spacing" textLength="91" x="5" y="340.6035">Task Manager</text><ellipse cx="53.5" cy="352.1797" fill="#E2E2F0" rx="8" ry="8" style="stroke:#181818;stroke-width:0.5;"/><path d="M53.5,360.1797 L53.5,387.1797 M40.5,368.1797 L66.5,368.1797 M53.5,387.1797 L40.5,402.1797 M53.5,387.1797 L66.5,402.1797 " fill="none" style="stroke:#181818;stroke-width:0.5;"/><rect fill="#E2E2F0" height="31.6094" rx="2.5" ry="2.5" style="stroke:#181818;stroke-width:0.5;" width="98" x="183.5" y="50"/><text fill="#000000" font-family="sans-serif" font-size="14" lengthAdjust="spacing" textLength="84" x="190.5" y="71.5332">RobDroneGo</text><rect fill="#E2E2F0" height="31.6094" rx="2.5" ry="2.5" style="stroke:#181818;stroke-width:0.5;" width="98" x="183.5" y="326.0703"/><text fill="#000000" font-family="sans-serif" font-size="14" lengthAdjust="spacing" textLength="84" x="190.5" y="347.6035">RobDroneGo</text><rect fill="#FFFFFF" height="194.1094" style="stroke:#181818;stroke-width:1.0;" width="10" x="227.5" y="114.9609"/><polygon fill="#181818" points="215.5,110.9609,225.5,114.9609,215.5,118.9609,219.5,114.9609" style="stroke:#181818;stroke-width:1.0;"/><line style="stroke:#181818;stroke-width:1.0;" x1="53.5" x2="221.5" y1="114.9609" y2="114.9609"/><text fill="#000000" font-family="sans-serif" font-size="13" lengthAdjust="spacing" textLength="86" x="60.5" y="110.1045">Go to /task/list</text><line style="stroke:#181818;stroke-width:1.0;" x1="237.5" x2="279.5" y1="161.6641" y2="161.6641"/><line style="stroke:#181818;stroke-width:1.0;" x1="279.5" x2="279.5" y1="161.6641" y2="174.6641"/><line style="stroke:#181818;stroke-width:1.0;" x1="238.5" x2="279.5" y1="174.6641" y2="174.6641"/><polygon fill="#181818" points="248.5,170.6641,238.5,174.6641,248.5,178.6641,244.5,174.6641" style="stroke:#181818;stroke-width:1.0;"/><text fill="#000000" font-family="sans-serif" font-size="13" lengthAdjust="spacing" textLength="100" x="244.5" y="140.4561">Check user's role</text><text fill="#000000" font-family="sans-serif" font-size="13" lengthAdjust="spacing" textLength="95" x="244.5" y="156.8076">and permissions</text><polygon fill="#181818" points="64.5,201.0156,54.5,205.0156,64.5,209.0156,60.5,205.0156" style="stroke:#181818;stroke-width:1.0;"/><line style="stroke:#181818;stroke-width:1.0;stroke-dasharray:2.0,2.0;" x1="58.5" x2="226.5" y1="205.0156" y2="205.0156"/><text fill="#000000" font-family="sans-serif" font-size="13" lengthAdjust="spacing" textLength="57" x="70.5" y="200.1592">List tasks</text><polygon fill="#181818" points="215.5,231.3672,225.5,235.3672,215.5,239.3672,219.5,235.3672" style="stroke:#181818;stroke-width:1.0;"/><line style="stroke:#181818;stroke-width:1.0;" x1="53.5" x2="221.5" y1="235.3672" y2="235.3672"/><text fill="#000000" font-family="sans-serif" font-size="13" lengthAdjust="spacing" textLength="150" x="60.5" y="230.5107">Select 'Plan Tasks' button</text><line style="stroke:#181818;stroke-width:1.0;" x1="237.5" x2="279.5" y1="265.7188" y2="265.7188"/><line style="stroke:#181818;stroke-width:1.0;" x1="279.5" x2="279.5" y1="265.7188" y2="278.7188"/><line style="stroke:#181818;stroke-width:1.0;" x1="238.5" x2="279.5" y1="278.7188" y2="278.7188"/><polygon fill="#181818" points="248.5,274.7188,238.5,278.7188,248.5,282.7188,244.5,278.7188" style="stroke:#181818;stroke-width:1.0;"/><text fill="#000000" font-family="sans-serif" font-size="13" lengthAdjust="spacing" textLength="62" x="244.5" y="260.8623">Plan tasks</text><polygon fill="#181818" points="64.5,305.0703,54.5,309.0703,64.5,313.0703,60.5,309.0703" style="stroke:#181818;stroke-width:1.0;"/><line style="stroke:#181818;stroke-width:1.0;stroke-dasharray:2.0,2.0;" x1="58.5" x2="231.5" y1="309.0703" y2="309.0703"/><text fill="#000000" font-family="sans-serif" font-size="13" lengthAdjust="spacing" textLength="106" x="70.5" y="304.2139">List planned tasks</text><!--MD5=[a712c3262c4e7d7e64dafd20e67e4348]
@startuml SD Lv1

actor "Task Manager" as user
participant RobDroneGo as system

user -> system : Go to /task/list
activate  system

system -> system : Check user's role\nand permissions

user <- - system : List tasks

user -> system : Select 'Plan Tasks' button

system -> system : Plan tasks

user <- - system : List planned tasks

deactivate system

@enduml

PlantUML version 1.2022.7(Mon Aug 22 18:01:30 BST 2022)
(GPL source distribution)
Java Runtime: Java(TM) SE Runtime Environment
JVM: Java HotSpot(TM) Client VM
Default Encoding: Cp1252
Language: en
Country: US
--></g></svg>