<?xml version="1.0" encoding="UTF-8" standalone="no"?><svg xmlns="http://www.w3.org/2000/svg" xmlns:xlink="http://www.w3.org/1999/xlink" contentStyleType="text/css" height="214px" preserveAspectRatio="none" style="width:303px;height:214px;background:#FFFFFF;" version="1.1" viewBox="0 0 303 214" width="303px" zoomAndPan="magnify"><defs/><g><rect fill="#FFFFFF" height="73.7031" style="stroke:#181818;stroke-width:1.0;" width="10" x="184" y="86.3125"/><line style="stroke:#181818;stroke-width:0.5;stroke-dasharray:5.0,5.0;" x1="189" x2="189" y1="37.6094" y2="178.0156"/><rect fill="#E2E2F0" height="31.6094" rx="2.5" ry="2.5" style="stroke:#181818;stroke-width:0.5;" width="98" x="140" y="5"/><text fill="#000000" font-family="sans-serif" font-size="14" lengthAdjust="spacing" textLength="84" x="147" y="26.5332">RobDroneGo</text><rect fill="#E2E2F0" height="31.6094" rx="2.5" ry="2.5" style="stroke:#181818;stroke-width:0.5;" width="98" x="140" y="177.0156"/><text fill="#000000" font-family="sans-serif" font-size="14" lengthAdjust="spacing" textLength="84" x="147" y="198.5488">RobDroneGo</text><rect fill="#FFFFFF" height="73.7031" style="stroke:#181818;stroke-width:1.0;" width="10" x="184" y="86.3125"/><ellipse cx="7.5" cy="85.5625" fill="none" rx="4" ry="4" style="stroke:#181818;stroke-width:1.5;"/><polygon fill="#181818" points="172,82.3125,182,86.3125,172,90.3125,176,86.3125" style="stroke:#181818;stroke-width:1.0;"/><line style="stroke:#181818;stroke-width:1.0;" x1="12" x2="178" y1="86.3125" y2="86.3125"/><text fill="#000000" font-family="sans-serif" font-size="13" lengthAdjust="spacing" textLength="153" x="15" y="65.1045">Patch (map, buildingCode,</text><text fill="#000000" font-family="sans-serif" font-size="13" lengthAdjust="spacing" textLength="73" x="15" y="81.4561">floorNumber)</text><line style="stroke:#181818;stroke-width:1.0;" x1="194" x2="236" y1="116.6641" y2="116.6641"/><line style="stroke:#181818;stroke-width:1.0;" x1="236" x2="236" y1="116.6641" y2="129.6641"/><line style="stroke:#181818;stroke-width:1.0;" x1="195" x2="236" y1="129.6641" y2="129.6641"/><polygon fill="#181818" points="205,125.6641,195,129.6641,205,133.6641,201,129.6641" style="stroke:#181818;stroke-width:1.0;"/><text fill="#000000" font-family="sans-serif" font-size="13" lengthAdjust="spacing" textLength="95" x="201" y="111.8076">Add map to floor</text><ellipse cx="7.5" cy="159.2656" fill="none" rx="4" ry="4" style="stroke:#181818;stroke-width:1.5;"/><polygon fill="#181818" points="24.5,156.0156,14.5,160.0156,24.5,164.0156,20.5,160.0156" style="stroke:#181818;stroke-width:1.0;"/><ellipse cx="188.5" cy="159.2656" fill="none" rx="4" ry="4" style="stroke:#181818;stroke-width:1.5;"/><line style="stroke:#181818;stroke-width:1.0;stroke-dasharray:2.0,2.0;" x1="22.5" x2="184" y1="160.0156" y2="160.0156"/><text fill="#000000" font-family="sans-serif" font-size="13" lengthAdjust="spacing" textLength="80" x="25" y="155.1592">floor with map</text><!--MD5=[d9010878dcfed9f69b8db8720a27f4a0]
@startuml SD Lv1

participant RobDroneGo as system
[o-> system : Patch (map, buildingCode, \nfloorNumber)
activate system

system -> system : Add map to floor

[o<- -o system : floor with map
deactivate system

@enduml

PlantUML version 1.2022.7(Mon Aug 22 18:01:30 BST 2022)
(GPL source distribution)
Java Runtime: Java(TM) SE Runtime Environment
JVM: Java HotSpot(TM) 64-Bit Server VM
Default Encoding: Cp1252
Language: pt
Country: PT
--></g></svg>