<?xml version="1.0" encoding="UTF-8" standalone="no"?><svg xmlns="http://www.w3.org/2000/svg" xmlns:xlink="http://www.w3.org/1999/xlink" contentStyleType="text/css" height="482px" preserveAspectRatio="none" style="width:339px;height:482px;background:#FFFFFF;" version="1.1" viewBox="0 0 339 482" width="339px" zoomAndPan="magnify"><defs/><g><rect fill="#ADD8E6" height="470.7891" style="stroke:#181818;stroke-width:0.5;" width="224.5" x="109" y="6"/><text fill="#000000" font-family="sans-serif" font-size="13" font-weight="bold" lengthAdjust="spacing" textLength="81" x="180.75" y="19.4951">RobDroneGo</text><rect fill="#FFFFFF" height="315.5156" style="stroke:#181818;stroke-width:1.0;" width="10" x="184" y="107.6641"/><rect fill="#FFFFFF" height="30.3516" style="stroke:#181818;stroke-width:1.0;" width="10" x="308" y="138.0156"/><rect fill="#FFFFFF" height="30.3516" style="stroke:#181818;stroke-width:1.0;" width="10" x="308" y="242.0703"/><rect fill="#FFFFFF" height="30.3516" style="stroke:#181818;stroke-width:1.0;" width="10" x="308" y="362.4766"/><line style="stroke:#181818;stroke-width:0.5;stroke-dasharray:5.0,5.0;" x1="14" x2="14" y1="58.9609" y2="441.1797"/><line style="stroke:#181818;stroke-width:0.5;stroke-dasharray:5.0,5.0;" x1="189" x2="189" y1="58.9609" y2="441.1797"/><line style="stroke:#181818;stroke-width:0.5;stroke-dasharray:5.0,5.0;" x1="312.5" x2="312.5" y1="58.9609" y2="441.1797"/><rect fill="#E2E2F0" height="31.6094" rx="2.5" ry="2.5" style="stroke:#181818;stroke-width:0.5;" width="18" x="5" y="26.3516"/><text fill="#000000" font-family="sans-serif" font-size="14" lengthAdjust="spacing" textLength="4" x="12" y="47.8848"> </text><rect fill="#E2E2F0" height="31.6094" rx="2.5" ry="2.5" style="stroke:#181818;stroke-width:0.5;" width="18" x="5" y="440.1797"/><text fill="#000000" font-family="sans-serif" font-size="14" lengthAdjust="spacing" textLength="4" x="12" y="461.7129"> </text><rect fill="#E2E2F0" height="31.6094" rx="2.5" ry="2.5" style="stroke:#181818;stroke-width:0.5;" width="152" x="113" y="26.3516"/><text fill="#000000" font-family="sans-serif" font-size="14" lengthAdjust="spacing" textLength="138" x="120" y="47.8848">Campus Management</text><rect fill="#E2E2F0" height="31.6094" rx="2.5" ry="2.5" style="stroke:#181818;stroke-width:0.5;" width="152" x="113" y="440.1797"/><text fill="#000000" font-family="sans-serif" font-size="14" lengthAdjust="spacing" textLength="138" x="120" y="461.7129">Campus Management</text><rect fill="#E2E2F0" height="31.6094" rx="2.5" ry="2.5" style="stroke:#181818;stroke-width:0.5;" width="33" x="296.5" y="26.3516"/><text fill="#000000" font-family="sans-serif" font-size="14" lengthAdjust="spacing" textLength="19" x="303.5" y="47.8848">DB</text><rect fill="#E2E2F0" height="31.6094" rx="2.5" ry="2.5" style="stroke:#181818;stroke-width:0.5;" width="33" x="296.5" y="440.1797"/><text fill="#000000" font-family="sans-serif" font-size="14" lengthAdjust="spacing" textLength="19" x="303.5" y="461.7129">DB</text><rect fill="#FFFFFF" height="315.5156" style="stroke:#181818;stroke-width:1.0;" width="10" x="184" y="107.6641"/><rect fill="#FFFFFF" height="30.3516" style="stroke:#181818;stroke-width:1.0;" width="10" x="308" y="138.0156"/><rect fill="#FFFFFF" height="30.3516" style="stroke:#181818;stroke-width:1.0;" width="10" x="308" y="242.0703"/><rect fill="#FFFFFF" height="30.3516" style="stroke:#181818;stroke-width:1.0;" width="10" x="308" y="362.4766"/><ellipse cx="7.5" cy="106.9141" fill="none" rx="4" ry="4" style="stroke:#181818;stroke-width:1.5;"/><polygon fill="#181818" points="172,103.6641,182,107.6641,172,111.6641,176,107.6641" style="stroke:#181818;stroke-width:1.0;"/><line style="stroke:#181818;stroke-width:1.0;" x1="12" x2="178" y1="107.6641" y2="107.6641"/><text fill="#000000" font-family="sans-serif" font-size="13" lengthAdjust="spacing" textLength="153" x="15" y="86.4561">Patch (map, buildingCode,</text><text fill="#000000" font-family="sans-serif" font-size="13" lengthAdjust="spacing" textLength="73" x="15" y="102.8076">floorNumber)</text><polygon fill="#181818" points="296,134.0156,306,138.0156,296,142.0156,300,138.0156" style="stroke:#181818;stroke-width:1.0;"/><line style="stroke:#181818;stroke-width:1.0;" x1="194" x2="302" y1="138.0156" y2="138.0156"/><text fill="#000000" font-family="sans-serif" font-size="13" lengthAdjust="spacing" textLength="72" x="201" y="133.1592">load building</text><polygon fill="#181818" points="205,164.3672,195,168.3672,205,172.3672,201,168.3672" style="stroke:#181818;stroke-width:1.0;"/><line style="stroke:#181818;stroke-width:1.0;stroke-dasharray:2.0,2.0;" x1="199" x2="312" y1="168.3672" y2="168.3672"/><text fill="#000000" font-family="sans-serif" font-size="13" lengthAdjust="spacing" textLength="44" x="211" y="163.5107">building</text><line style="stroke:#181818;stroke-width:1.0;" x1="194" x2="236" y1="198.7188" y2="198.7188"/><line style="stroke:#181818;stroke-width:1.0;" x1="236" x2="236" y1="198.7188" y2="211.7188"/><line style="stroke:#181818;stroke-width:1.0;" x1="195" x2="236" y1="211.7188" y2="211.7188"/><polygon fill="#181818" points="205,207.7188,195,211.7188,205,215.7188,201,211.7188" style="stroke:#181818;stroke-width:1.0;"/><text fill="#000000" font-family="sans-serif" font-size="13" lengthAdjust="spacing" textLength="100" x="201" y="193.8623">verify size of map</text><polygon fill="#181818" points="296,238.0703,306,242.0703,296,246.0703,300,242.0703" style="stroke:#181818;stroke-width:1.0;"/><line style="stroke:#181818;stroke-width:1.0;" x1="194" x2="302" y1="242.0703" y2="242.0703"/><text fill="#000000" font-family="sans-serif" font-size="13" lengthAdjust="spacing" textLength="52" x="201" y="237.2139">load floor</text><polygon fill="#181818" points="205,268.4219,195,272.4219,205,276.4219,201,272.4219" style="stroke:#181818;stroke-width:1.0;"/><line style="stroke:#181818;stroke-width:1.0;stroke-dasharray:2.0,2.0;" x1="199" x2="312" y1="272.4219" y2="272.4219"/><text fill="#000000" font-family="sans-serif" font-size="13" lengthAdjust="spacing" textLength="24" x="211" y="267.5654">floor</text><line style="stroke:#181818;stroke-width:1.0;" x1="194" x2="236" y1="302.7734" y2="302.7734"/><line style="stroke:#181818;stroke-width:1.0;" x1="236" x2="236" y1="302.7734" y2="315.7734"/><line style="stroke:#181818;stroke-width:1.0;" x1="195" x2="236" y1="315.7734" y2="315.7734"/><polygon fill="#181818" points="205,311.7734,195,315.7734,205,319.7734,201,315.7734" style="stroke:#181818;stroke-width:1.0;"/><text fill="#000000" font-family="sans-serif" font-size="13" lengthAdjust="spacing" textLength="93" x="201" y="297.917">add map to floor</text><polygon fill="#181818" points="296,358.4766,306,362.4766,296,366.4766,300,362.4766" style="stroke:#181818;stroke-width:1.0;"/><line style="stroke:#181818;stroke-width:1.0;" x1="194" x2="302" y1="362.4766" y2="362.4766"/><text fill="#000000" font-family="sans-serif" font-size="13" lengthAdjust="spacing" textLength="54" x="201" y="341.2686">save floor</text><text fill="#000000" font-family="sans-serif" font-size="13" lengthAdjust="spacing" textLength="52" x="201" y="357.6201">with map</text><polygon fill="#181818" points="205,388.8281,195,392.8281,205,396.8281,201,392.8281" style="stroke:#181818;stroke-width:1.0;"/><line style="stroke:#181818;stroke-width:1.0;stroke-dasharray:2.0,2.0;" x1="199" x2="312" y1="392.8281" y2="392.8281"/><text fill="#000000" font-family="sans-serif" font-size="13" lengthAdjust="spacing" textLength="24" x="211" y="387.9717">floor</text><ellipse cx="7.5" cy="422.4297" fill="none" rx="4" ry="4" style="stroke:#181818;stroke-width:1.5;"/><polygon fill="#181818" points="24.5,419.1797,14.5,423.1797,24.5,427.1797,20.5,423.1797" style="stroke:#181818;stroke-width:1.0;"/><ellipse cx="188.5" cy="422.4297" fill="none" rx="4" ry="4" style="stroke:#181818;stroke-width:1.5;"/><line style="stroke:#181818;stroke-width:1.0;stroke-dasharray:2.0,2.0;" x1="22.5" x2="184" y1="423.1797" y2="423.1797"/><text fill="#000000" font-family="sans-serif" font-size="13" lengthAdjust="spacing" textLength="24" x="25" y="418.3232">floor</text><!--MD5=[ecdc16cb9a39f28deecaec41b9cec0be]
@startuml SD Lv2

participant " "
box "RobDroneGo" #LightBlue
    participant "Campus Management" as campus
    participant "DB" as DB
end box

[o-> campus : Patch (map, buildingCode, \nfloorNumber)
activate campus

campus -> DB : load building
activate DB
DB - -> campus : building
deactivate DB

campus -> campus : verify size of map

campus -> DB : load floor
activate DB
DB - -> campus : floor
deactivate DB

campus -> campus : add map to floor

campus -> DB : save floor\nwith map
activate DB
DB - -> campus : floor
deactivate DB

[o<- -o campus : floor
deactivate campus

@enduml

PlantUML version 1.2022.7(Mon Aug 22 18:01:30 BST 2022)
(GPL source distribution)
Java Runtime: Java(TM) SE Runtime Environment
JVM: Java HotSpot(TM) 64-Bit Server VM
Default Encoding: Cp1252
Language: pt
Country: PT
--></g></svg>