<?xml version="1.0" encoding="UTF-8" standalone="no"?><svg xmlns="http://www.w3.org/2000/svg" xmlns:xlink="http://www.w3.org/1999/xlink" contentStyleType="text/css" height="753px" preserveAspectRatio="none" style="width:1877px;height:753px;background:#FFFFFF;" version="1.1" viewBox="0 0 1877 753" width="1877px" zoomAndPan="magnify"><defs/><g><rect fill="#ADD8E6" height="741.8984" style="stroke:#181818;stroke-width:0.5;" width="887" x="241" y="6"/><text fill="#000000" font-family="sans-serif" font-size="13" font-weight="bold" lengthAdjust="spacing" textLength="98" x="635.5" y="19.4951">RobDroneGo UI</text><rect fill="#DDDDDD" height="720.5469" style="stroke:#181818;stroke-width:0.5;" width="351.5" x="241" y="27.3516"/><text fill="#000000" font-family="sans-serif" font-size="13" font-weight="bold" lengthAdjust="spacing" textLength="32" x="400.75" y="40.8467">View</text><rect fill="#DDDDDD" height="741.8984" style="stroke:#181818;stroke-width:0.5;" width="379" x="1211.5" y="6"/><text fill="#000000" font-family="sans-serif" font-size="13" font-weight="bold" lengthAdjust="spacing" textLength="140" x="1331" y="19.4951">RobDroneGo Backend</text><line style="stroke:#181818;stroke-width:0.5;stroke-dasharray:5.0,5.0;" x1="64" x2="64" y1="125.3125" y2="664.2891"/><line style="stroke:#181818;stroke-width:0.5;stroke-dasharray:5.0,5.0;" x1="308" x2="308" y1="125.3125" y2="664.2891"/><rect fill="#FFFFFF" height="490.625" style="stroke:#181818;stroke-width:1.0;" width="10" x="303" y="155.6641"/><line style="stroke:#181818;stroke-width:0.5;stroke-dasharray:5.0,5.0;" x1="532" x2="532" y1="125.3125" y2="664.2891"/><rect fill="#FFFFFF" height="429.9219" style="stroke:#181818;stroke-width:1.0;" width="10" x="527" y="186.0156"/><line style="stroke:#181818;stroke-width:0.5;stroke-dasharray:5.0,5.0;" x1="742" x2="742" y1="125.3125" y2="664.2891"/><rect fill="#FFFFFF" height="369.2188" style="stroke:#181818;stroke-width:1.0;" width="10" x="737" y="216.3672"/><line style="stroke:#181818;stroke-width:0.5;stroke-dasharray:5.0,5.0;" x1="982" x2="982" y1="125.3125" y2="664.2891"/><rect fill="#FFFFFF" height="30.3516" style="stroke:#181818;stroke-width:1.0;" width="10" x="977" y="246.7188"/><line style="stroke:#181818;stroke-width:0.5;stroke-dasharray:5.0,5.0;" x1="1079" x2="1079" y1="125.3125" y2="664.2891"/><rect fill="#FFFFFF" height="247.8125" style="stroke:#181818;stroke-width:1.0;" width="10" x="1074" y="307.4219"/><line style="stroke:#181818;stroke-width:0.5;stroke-dasharray:5.0,5.0;" x1="1280" x2="1280" y1="125.3125" y2="664.2891"/><rect fill="#FFFFFF" height="73.7031" style="stroke:#181818;stroke-width:1.0;" width="10" x="1275" y="337.7734"/><line style="stroke:#181818;stroke-width:0.5;stroke-dasharray:5.0,5.0;" x1="1498" x2="1498" y1="125.3125" y2="664.2891"/><rect fill="#FFFFFF" height="83.0547" style="stroke:#181818;stroke-width:1.0;" width="10" x="1493" y="441.8281"/><text fill="#000000" font-family="sans-serif" font-size="14" lengthAdjust="spacing" textLength="112" x="5" y="122.2363">Campus Manager</text><ellipse cx="64" cy="56.2031" fill="#E2E2F0" rx="8" ry="8" style="stroke:#181818;stroke-width:0.5;"/><path d="M64,64.2031 L64,91.2031 M51,72.2031 L77,72.2031 M64,91.2031 L51,106.2031 M64,91.2031 L77,106.2031 " fill="none" style="stroke:#181818;stroke-width:0.5;"/><rect fill="#E2E2F0" height="31.6094" rx="2.5" ry="2.5" style="stroke:#181818;stroke-width:0.5;" width="126" x="245" y="92.7031"/><text fill="#000000" font-family="sans-serif" font-size="14" lengthAdjust="spacing" textLength="112" x="252" y="114.2363">HTML + CSS + JS</text><rect fill="#E2E2F0" height="31.6094" rx="2.5" ry="2.5" style="stroke:#181818;stroke-width:0.5;" width="113" x="475.5" y="92.7031"/><text fill="#000000" font-family="sans-serif" font-size="14" lengthAdjust="spacing" textLength="99" x="482.5" y="114.2363">List Component</text><rect fill="#E2E2F0" height="31.6094" rx="2.5" ry="2.5" style="stroke:#181818;stroke-width:0.5;" width="77" x="703.5" y="92.7031"/><text fill="#000000" font-family="sans-serif" font-size="14" lengthAdjust="spacing" textLength="63" x="710.5" y="114.2363">UI Service</text><rect fill="#E2E2F0" height="31.6094" rx="2.5" ry="2.5" style="stroke:#181818;stroke-width:0.5;" width="84" x="940" y="92.7031"/><text fill="#000000" font-family="sans-serif" font-size="14" lengthAdjust="spacing" textLength="70" x="947" y="114.2363">API Routes</text><rect fill="#E2E2F0" height="31.6094" rx="2.5" ry="2.5" style="stroke:#181818;stroke-width:0.5;" width="90" x="1034" y="92.7031"/><text fill="#000000" font-family="sans-serif" font-size="14" lengthAdjust="spacing" textLength="76" x="1041" y="114.2363">HTTP Client</text><rect fill="#E2E2F0" height="31.6094" rx="2.5" ry="2.5" style="stroke:#181818;stroke-width:0.5;" width="129" x="1215.5" y="92.7031"/><text fill="#000000" font-family="sans-serif" font-size="14" lengthAdjust="spacing" textLength="115" x="1222.5" y="114.2363">Authentication API</text><rect fill="#E2E2F0" height="31.6094" rx="2.5" ry="2.5" style="stroke:#181818;stroke-width:0.5;" width="177" x="1409.5" y="92.7031"/><text fill="#000000" font-family="sans-serif" font-size="14" lengthAdjust="spacing" textLength="163" x="1416.5" y="114.2363">Campus Management API</text><text fill="#000000" font-family="sans-serif" font-size="14" lengthAdjust="spacing" textLength="112" x="5" y="738.8223">Campus Manager</text><ellipse cx="64" cy="672.7891" fill="#E2E2F0" rx="8" ry="8" style="stroke:#181818;stroke-width:0.5;"/><path d="M64,680.7891 L64,707.7891 M51,688.7891 L77,688.7891 M64,707.7891 L51,722.7891 M64,707.7891 L77,722.7891 " fill="none" style="stroke:#181818;stroke-width:0.5;"/><rect fill="#E2E2F0" height="31.6094" rx="2.5" ry="2.5" style="stroke:#181818;stroke-width:0.5;" width="126" x="245" y="664.2891"/><text fill="#000000" font-family="sans-serif" font-size="14" lengthAdjust="spacing" textLength="112" x="252" y="685.8223">HTML + CSS + JS</text><rect fill="#E2E2F0" height="31.6094" rx="2.5" ry="2.5" style="stroke:#181818;stroke-width:0.5;" width="113" x="475.5" y="664.2891"/><text fill="#000000" font-family="sans-serif" font-size="14" lengthAdjust="spacing" textLength="99" x="482.5" y="685.8223">List Component</text><rect fill="#E2E2F0" height="31.6094" rx="2.5" ry="2.5" style="stroke:#181818;stroke-width:0.5;" width="77" x="703.5" y="664.2891"/><text fill="#000000" font-family="sans-serif" font-size="14" lengthAdjust="spacing" textLength="63" x="710.5" y="685.8223">UI Service</text><rect fill="#E2E2F0" height="31.6094" rx="2.5" ry="2.5" style="stroke:#181818;stroke-width:0.5;" width="84" x="940" y="664.2891"/><text fill="#000000" font-family="sans-serif" font-size="14" lengthAdjust="spacing" textLength="70" x="947" y="685.8223">API Routes</text><rect fill="#E2E2F0" height="31.6094" rx="2.5" ry="2.5" style="stroke:#181818;stroke-width:0.5;" width="90" x="1034" y="664.2891"/><text fill="#000000" font-family="sans-serif" font-size="14" lengthAdjust="spacing" textLength="76" x="1041" y="685.8223">HTTP Client</text><rect fill="#E2E2F0" height="31.6094" rx="2.5" ry="2.5" style="stroke:#181818;stroke-width:0.5;" width="129" x="1215.5" y="664.2891"/><text fill="#000000" font-family="sans-serif" font-size="14" lengthAdjust="spacing" textLength="115" x="1222.5" y="685.8223">Authentication API</text><rect fill="#E2E2F0" height="31.6094" rx="2.5" ry="2.5" style="stroke:#181818;stroke-width:0.5;" width="177" x="1409.5" y="664.2891"/><text fill="#000000" font-family="sans-serif" font-size="14" lengthAdjust="spacing" textLength="163" x="1416.5" y="685.8223">Campus Management API</text><polygon fill="#181818" points="291,151.6641,301,155.6641,291,159.6641,295,155.6641" style="stroke:#181818;stroke-width:1.0;"/><line style="stroke:#181818;stroke-width:1.0;" x1="64" x2="297" y1="155.6641" y2="155.6641"/><text fill="#000000" font-family="sans-serif" font-size="13" lengthAdjust="spacing" textLength="215" x="71" y="150.8076">Request Elevator Served Floors Page</text><polygon fill="#181818" points="515,182.0156,525,186.0156,515,190.0156,519,186.0156" style="stroke:#181818;stroke-width:1.0;"/><line style="stroke:#181818;stroke-width:1.0;" x1="313" x2="521" y1="186.0156" y2="186.0156"/><text fill="#000000" font-family="sans-serif" font-size="13" lengthAdjust="spacing" textLength="186" x="320" y="181.1592">Load Elevator Served Floors List</text><polygon fill="#181818" points="725,212.3672,735,216.3672,725,220.3672,729,216.3672" style="stroke:#181818;stroke-width:1.0;"/><line style="stroke:#181818;stroke-width:1.0;" x1="537" x2="731" y1="216.3672" y2="216.3672"/><text fill="#000000" font-family="sans-serif" font-size="13" lengthAdjust="spacing" textLength="181" x="544" y="211.5107">Request Elevator Served Floors</text><polygon fill="#181818" points="965,242.7188,975,246.7188,965,250.7188,969,246.7188" style="stroke:#181818;stroke-width:1.0;"/><line style="stroke:#181818;stroke-width:1.0;" x1="747" x2="971" y1="246.7188" y2="246.7188"/><text fill="#000000" font-family="sans-serif" font-size="13" lengthAdjust="spacing" textLength="211" x="754" y="241.8623">Fetch Auth and Elevator Floors APIs</text><polygon fill="#181818" points="758,273.0703,748,277.0703,758,281.0703,754,277.0703" style="stroke:#181818;stroke-width:1.0;"/><line style="stroke:#181818;stroke-width:1.0;stroke-dasharray:2.0,2.0;" x1="752" x2="976" y1="277.0703" y2="277.0703"/><text fill="#000000" font-family="sans-serif" font-size="13" lengthAdjust="spacing" textLength="83" x="764" y="272.2139">API Endpoints</text><polygon fill="#181818" points="1062,303.4219,1072,307.4219,1062,311.4219,1066,307.4219" style="stroke:#181818;stroke-width:1.0;"/><line style="stroke:#181818;stroke-width:1.0;" x1="747" x2="1068" y1="307.4219" y2="307.4219"/><text fill="#000000" font-family="sans-serif" font-size="13" lengthAdjust="spacing" textLength="215" x="754" y="302.5654">GET /campus/floor/served-by-elevator</text><polygon fill="#181818" points="1263,333.7734,1273,337.7734,1263,341.7734,1267,337.7734" style="stroke:#181818;stroke-width:1.0;"/><line style="stroke:#181818;stroke-width:1.0;" x1="1084" x2="1269" y1="337.7734" y2="337.7734"/><text fill="#000000" font-family="sans-serif" font-size="13" lengthAdjust="spacing" textLength="154" x="1091" y="332.917">Validate User Permissions</text><line style="stroke:#181818;stroke-width:1.0;" x1="1285" x2="1327" y1="368.125" y2="368.125"/><line style="stroke:#181818;stroke-width:1.0;" x1="1327" x2="1327" y1="368.125" y2="381.125"/><line style="stroke:#181818;stroke-width:1.0;" x1="1286" x2="1327" y1="381.125" y2="381.125"/><polygon fill="#181818" points="1296,377.125,1286,381.125,1296,385.125,1292,381.125" style="stroke:#181818;stroke-width:1.0;"/><text fill="#000000" font-family="sans-serif" font-size="13" lengthAdjust="spacing" textLength="199" x="1292" y="363.2686">Check User Role and Permissions</text><polygon fill="#181818" points="1095,407.4766,1085,411.4766,1095,415.4766,1091,411.4766" style="stroke:#181818;stroke-width:1.0;"/><line style="stroke:#181818;stroke-width:1.0;stroke-dasharray:2.0,2.0;" x1="1089" x2="1274" y1="411.4766" y2="411.4766"/><text fill="#000000" font-family="sans-serif" font-size="13" lengthAdjust="spacing" textLength="167" x="1101" y="406.6201">Permission Validation Result</text><polygon fill="#181818" points="1481,437.8281,1491,441.8281,1481,445.8281,1485,441.8281" style="stroke:#181818;stroke-width:1.0;"/><line style="stroke:#181818;stroke-width:1.0;" x1="1084" x2="1487" y1="441.8281" y2="441.8281"/><text fill="#000000" font-family="sans-serif" font-size="13" lengthAdjust="spacing" textLength="181" x="1091" y="436.9717">Request Elevator Served Floors</text><line style="stroke:#181818;stroke-width:1.0;" x1="1503" x2="1545" y1="472.1797" y2="472.1797"/><line style="stroke:#181818;stroke-width:1.0;" x1="1545" x2="1545" y1="472.1797" y2="485.1797"/><line style="stroke:#181818;stroke-width:1.0;" x1="1504" x2="1545" y1="485.1797" y2="485.1797"/><polygon fill="#181818" points="1514,481.1797,1504,485.1797,1514,489.1797,1510,485.1797" style="stroke:#181818;stroke-width:1.0;"/><text fill="#000000" font-family="sans-serif" font-size="13" lengthAdjust="spacing" textLength="117" x="1510" y="467.3232">Retrieve Floors Data</text><path d="M1639,454.8281 L1639,496.8281 L1870,496.8281 L1870,464.8281 L1860,454.8281 L1639,454.8281 " fill="#FEFFDD" style="stroke:#181818;stroke-width:0.5;"/><path d="M1860,454.8281 L1860,464.8281 L1870,464.8281 L1860,454.8281 " fill="#FEFFDD" style="stroke:#181818;stroke-width:0.5;"/><text fill="#000000" font-family="sans-serif" font-size="13" lengthAdjust="spacing" textLength="210" x="1645" y="473.3232">Elevator Served Floor Retrieval Logic</text><text fill="#000000" font-family="sans-serif" font-size="13" lengthAdjust="spacing" textLength="118" x="1645" y="489.6748">detailed in US ID300</text><polygon fill="#181818" points="1095,520.8828,1085,524.8828,1095,528.8828,1091,524.8828" style="stroke:#181818;stroke-width:1.0;"/><line style="stroke:#181818;stroke-width:1.0;stroke-dasharray:2.0,2.0;" x1="1089" x2="1492" y1="524.8828" y2="524.8828"/><text fill="#000000" font-family="sans-serif" font-size="13" lengthAdjust="spacing" textLength="154" x="1101" y="520.0264">Elevator Served Floors List</text><polygon fill="#181818" points="758,551.2344,748,555.2344,758,559.2344,754,555.2344" style="stroke:#181818;stroke-width:1.0;"/><line style="stroke:#181818;stroke-width:1.0;stroke-dasharray:2.0,2.0;" x1="752" x2="1073" y1="555.2344" y2="555.2344"/><text fill="#000000" font-family="sans-serif" font-size="13" lengthAdjust="spacing" textLength="160" x="764" y="550.3779">Elevator Served Floors Data</text><polygon fill="#181818" points="548,581.5859,538,585.5859,548,589.5859,544,585.5859" style="stroke:#181818;stroke-width:1.0;"/><line style="stroke:#181818;stroke-width:1.0;stroke-dasharray:2.0,2.0;" x1="542" x2="736" y1="585.5859" y2="585.5859"/><text fill="#000000" font-family="sans-serif" font-size="13" lengthAdjust="spacing" textLength="108" x="554" y="580.7295">Display Floors List</text><polygon fill="#181818" points="324,611.9375,314,615.9375,324,619.9375,320,615.9375" style="stroke:#181818;stroke-width:1.0;"/><line style="stroke:#181818;stroke-width:1.0;stroke-dasharray:2.0,2.0;" x1="318" x2="526" y1="615.9375" y2="615.9375"/><text fill="#000000" font-family="sans-serif" font-size="13" lengthAdjust="spacing" textLength="190" x="330" y="611.0811">Show Elevator Served Floors List</text><polygon fill="#181818" points="75,642.2891,65,646.2891,75,650.2891,71,646.2891" style="stroke:#181818;stroke-width:1.0;"/><line style="stroke:#181818;stroke-width:1.0;stroke-dasharray:2.0,2.0;" x1="69" x2="302" y1="646.2891" y2="646.2891"/><text fill="#000000" font-family="sans-serif" font-size="13" lengthAdjust="spacing" textLength="176" x="81" y="641.4326">Display Elevator Served Floors</text><!--MD5=[b73668baa43d55f85beb790a2d0eb3a9]
@startuml SD Lv3

!pragma teoz true

actor "Campus Manager" as user
box "RobDroneGo UI" #LightBlue

    box "View"
        participant "HTML + CSS + JS" as FrontEnd
        participant "List Component" as List
    end box
    participant "UI Service" as UIService
    participant "API Routes" as API_ROUTES
    participant "HTTP Client" as HttpClient

end box
box "RobDroneGo Backend"
    participant "Authentication API" as AuthAPI
    participant "Campus Management API" as CampusAPI
end box


user -> FrontEnd : Request Elevator Served Floors Page
activate FrontEnd

    FrontEnd -> List : Load Elevator Served Floors List
    activate List

        List -> UIService : Request Elevator Served Floors
        activate UIService

            UIService -> API_ROUTES : Fetch Auth and Elevator Floors APIs
            activate API_ROUTES

            API_ROUTES - -> UIService : API Endpoints
            deactivate API_ROUTES

            UIService -> HttpClient : GET /campus/floor/served-by-elevator
            activate HttpClient

                HttpClient -> AuthAPI : Validate User Permissions
                activate AuthAPI

                    AuthAPI -> AuthAPI : Check User Role and Permissions

                AuthAPI - -> HttpClient : Permission Validation Result
                deactivate AuthAPI

                HttpClient -> CampusAPI : Request Elevator Served Floors
                activate CampusAPI

                    CampusAPI -> CampusAPI : Retrieve Floors Data
                    note right
                        Elevator Served Floor Retrieval Logic
                        detailed in US ID300
                    end note

                CampusAPI - -> HttpClient : Elevator Served Floors List
                deactivate CampusAPI

            HttpClient - -> UIService : Elevator Served Floors Data
            deactivate HttpClient

        UIService - -> List : Display Floors List
        deactivate UIService

    List - -> FrontEnd : Show Elevator Served Floors List
    deactivate List

FrontEnd - -> user : Display Elevator Served Floors
deactivate FrontEnd

@enduml

PlantUML version 1.2022.7(Mon Aug 22 18:01:30 BST 2022)
(GPL source distribution)
Java Runtime: Java(TM) SE Runtime Environment
JVM: Java HotSpot(TM) Client VM
Default Encoding: Cp1252
Language: en
Country: US
--></g></svg>