<?xml version="1.0" encoding="UTF-8" standalone="no"?><svg xmlns="http://www.w3.org/2000/svg" xmlns:xlink="http://www.w3.org/1999/xlink" contentStyleType="text/css" height="305px" preserveAspectRatio="none" style="width:422px;height:305px;background:#FFFFFF;" version="1.1" viewBox="0 0 422 305" width="422px" zoomAndPan="magnify"><defs/><g><rect fill="#FFFFFF" height="90.0547" style="stroke:#181818;stroke-width:1.0;" width="10" x="298" y="114.9609"/><line style="stroke:#181818;stroke-width:0.5;stroke-dasharray:5.0,5.0;" x1="64" x2="64" y1="82.6094" y2="223.0156"/><line style="stroke:#181818;stroke-width:0.5;stroke-dasharray:5.0,5.0;" x1="303" x2="303" y1="82.6094" y2="223.0156"/><text fill="#000000" font-family="sans-serif" font-size="14" lengthAdjust="spacing" textLength="112" x="5" y="79.5332">Campus Manager</text><ellipse cx="64" cy="13.5" fill="#E2E2F0" rx="8" ry="8" style="stroke:#181818;stroke-width:0.5;"/><path d="M64,21.5 L64,48.5 M51,29.5 L77,29.5 M64,48.5 L51,63.5 M64,48.5 L77,63.5 " fill="none" style="stroke:#181818;stroke-width:0.5;"/><text fill="#000000" font-family="sans-serif" font-size="14" lengthAdjust="spacing" textLength="112" x="5" y="236.5488">Campus Manager</text><ellipse cx="64" cy="248.125" fill="#E2E2F0" rx="8" ry="8" style="stroke:#181818;stroke-width:0.5;"/><path d="M64,256.125 L64,283.125 M51,264.125 L77,264.125 M64,283.125 L51,298.125 M64,283.125 L77,298.125 " fill="none" style="stroke:#181818;stroke-width:0.5;"/><rect fill="#E2E2F0" height="31.6094" rx="2.5" ry="2.5" style="stroke:#181818;stroke-width:0.5;" width="98" x="254" y="50"/><text fill="#000000" font-family="sans-serif" font-size="14" lengthAdjust="spacing" textLength="84" x="261" y="71.5332">RobDroneGo</text><rect fill="#E2E2F0" height="31.6094" rx="2.5" ry="2.5" style="stroke:#181818;stroke-width:0.5;" width="98" x="254" y="222.0156"/><text fill="#000000" font-family="sans-serif" font-size="14" lengthAdjust="spacing" textLength="84" x="261" y="243.5488">RobDroneGo</text><rect fill="#FFFFFF" height="90.0547" style="stroke:#181818;stroke-width:1.0;" width="10" x="298" y="114.9609"/><polygon fill="#181818" points="286,110.9609,296,114.9609,286,118.9609,290,114.9609" style="stroke:#181818;stroke-width:1.0;"/><line style="stroke:#181818;stroke-width:1.0;" x1="64" x2="292" y1="114.9609" y2="114.9609"/><text fill="#000000" font-family="sans-serif" font-size="13" lengthAdjust="spacing" textLength="215" x="71" y="110.1045">GET /campus/floor/served-by-elevator</text><line style="stroke:#181818;stroke-width:1.0;" x1="308" x2="350" y1="161.6641" y2="161.6641"/><line style="stroke:#181818;stroke-width:1.0;" x1="350" x2="350" y1="161.6641" y2="174.6641"/><line style="stroke:#181818;stroke-width:1.0;" x1="309" x2="350" y1="174.6641" y2="174.6641"/><polygon fill="#181818" points="319,170.6641,309,174.6641,319,178.6641,315,174.6641" style="stroke:#181818;stroke-width:1.0;"/><text fill="#000000" font-family="sans-serif" font-size="13" lengthAdjust="spacing" textLength="100" x="315" y="140.4561">Check user's role</text><text fill="#000000" font-family="sans-serif" font-size="13" lengthAdjust="spacing" textLength="95" x="315" y="156.8076">and permissions</text><polygon fill="#181818" points="75,201.0156,65,205.0156,75,209.0156,71,205.0156" style="stroke:#181818;stroke-width:1.0;"/><line style="stroke:#181818;stroke-width:1.0;stroke-dasharray:2.0,2.0;" x1="69" x2="302" y1="205.0156" y2="205.0156"/><text fill="#000000" font-family="sans-serif" font-size="13" lengthAdjust="spacing" textLength="209" x="81" y="200.1592">Show list of floors served by elevator</text><!--MD5=[1897f9d1352e4a0f9d4402ecd91b2dec]
@startuml SD Lv1

actor "Campus Manager" as user
participant RobDroneGo as system

user -> system : GET /campus/floor/served-by-elevator
activate system

system -> system : Check user's role\nand permissions

user <- - system : Show list of floors served by elevator

deactivate system

@enduml

PlantUML version 1.2022.7(Mon Aug 22 18:01:30 BST 2022)
(GPL source distribution)
Java Runtime: Java(TM) SE Runtime Environment
JVM: Java HotSpot(TM) Client VM
Default Encoding: Cp1252
Language: en
Country: US
--></g></svg>