<?xml version="1.0" encoding="UTF-8" standalone="no"?><svg xmlns="http://www.w3.org/2000/svg" xmlns:xlink="http://www.w3.org/1999/xlink" contentStyleType="text/css" height="740px" preserveAspectRatio="none" style="width:647px;height:740px;background:#FFFFFF;" version="1.1" viewBox="0 0 647 740" width="647px" zoomAndPan="magnify"><defs/><g><rect fill="#ADD8E6" height="728.6016" style="stroke:#181818;stroke-width:0.5;" width="452" x="189" y="6"/><text fill="#000000" font-family="sans-serif" font-size="13" font-weight="bold" lengthAdjust="spacing" textLength="81" x="374.5" y="19.4951">RobDroneGo</text><rect fill="#FFFFFF" height="589.6797" style="stroke:#181818;stroke-width:1.0;" width="10" x="272" y="91.3125"/><rect fill="#FFFFFF" height="91.0547" style="stroke:#181818;stroke-width:1.0;" width="10" x="454.5" y="121.6641"/><rect fill="#FFFFFF" height="91.0547" style="stroke:#181818;stroke-width:1.0;" width="10" x="454.5" y="303.7734"/><rect fill="#FFFFFF" height="134.4063" style="stroke:#181818;stroke-width:1.0;" width="10" x="454.5" y="516.2344"/><rect fill="#FFFFFF" height="30.3516" style="stroke:#181818;stroke-width:1.0;" width="10" x="615.5" y="152.0156"/><rect fill="#FFFFFF" height="30.3516" style="stroke:#181818;stroke-width:1.0;" width="10" x="615.5" y="334.125"/><rect fill="#FFFFFF" height="30.3516" style="stroke:#181818;stroke-width:1.0;" width="10" x="615.5" y="589.9375"/><line style="stroke:#181818;stroke-width:0.5;stroke-dasharray:5.0,5.0;" x1="81" x2="81" y1="58.9609" y2="698.9922"/><line style="stroke:#181818;stroke-width:0.5;stroke-dasharray:5.0,5.0;" x1="277" x2="277" y1="58.9609" y2="698.9922"/><line style="stroke:#181818;stroke-width:0.5;stroke-dasharray:5.0,5.0;" x1="459" x2="459" y1="58.9609" y2="698.9922"/><line style="stroke:#181818;stroke-width:0.5;stroke-dasharray:5.0,5.0;" x1="620" x2="620" y1="58.9609" y2="698.9922"/><rect fill="#E2E2F0" height="31.6094" rx="2.5" ry="2.5" style="stroke:#181818;stroke-width:0.5;" width="152" x="5" y="26.3516"/><text fill="#000000" font-family="sans-serif" font-size="14" lengthAdjust="spacing" textLength="138" x="12" y="47.8848">Campus Management</text><rect fill="#E2E2F0" height="31.6094" rx="2.5" ry="2.5" style="stroke:#181818;stroke-width:0.5;" width="152" x="5" y="697.9922"/><text fill="#000000" font-family="sans-serif" font-size="14" lengthAdjust="spacing" textLength="138" x="12" y="719.5254">Campus Management</text><rect fill="#E2E2F0" height="31.6094" rx="2.5" ry="2.5" style="stroke:#181818;stroke-width:0.5;" width="168" x="193" y="26.3516"/><text fill="#000000" font-family="sans-serif" font-size="14" lengthAdjust="spacing" textLength="154" x="200" y="47.8848">Campus Management UI</text><rect fill="#E2E2F0" height="31.6094" rx="2.5" ry="2.5" style="stroke:#181818;stroke-width:0.5;" width="168" x="193" y="697.9922"/><text fill="#000000" font-family="sans-serif" font-size="14" lengthAdjust="spacing" textLength="154" x="200" y="719.5254">Campus Management UI</text><rect fill="#E2E2F0" height="31.6094" rx="2.5" ry="2.5" style="stroke:#181818;stroke-width:0.5;" width="177" x="371" y="26.3516"/><text fill="#000000" font-family="sans-serif" font-size="14" lengthAdjust="spacing" textLength="163" x="378" y="47.8848">Campus Management API</text><rect fill="#E2E2F0" height="31.6094" rx="2.5" ry="2.5" style="stroke:#181818;stroke-width:0.5;" width="177" x="371" y="697.9922"/><text fill="#000000" font-family="sans-serif" font-size="14" lengthAdjust="spacing" textLength="163" x="378" y="719.5254">Campus Management API</text><rect fill="#E2E2F0" height="31.6094" rx="2.5" ry="2.5" style="stroke:#181818;stroke-width:0.5;" width="33" x="604" y="26.3516"/><text fill="#000000" font-family="sans-serif" font-size="14" lengthAdjust="spacing" textLength="19" x="611" y="47.8848">DB</text><rect fill="#E2E2F0" height="31.6094" rx="2.5" ry="2.5" style="stroke:#181818;stroke-width:0.5;" width="33" x="604" y="697.9922"/><text fill="#000000" font-family="sans-serif" font-size="14" lengthAdjust="spacing" textLength="19" x="611" y="719.5254">DB</text><rect fill="#FFFFFF" height="589.6797" style="stroke:#181818;stroke-width:1.0;" width="10" x="272" y="91.3125"/><rect fill="#FFFFFF" height="91.0547" style="stroke:#181818;stroke-width:1.0;" width="10" x="454.5" y="121.6641"/><rect fill="#FFFFFF" height="91.0547" style="stroke:#181818;stroke-width:1.0;" width="10" x="454.5" y="303.7734"/><rect fill="#FFFFFF" height="134.4063" style="stroke:#181818;stroke-width:1.0;" width="10" x="454.5" y="516.2344"/><rect fill="#FFFFFF" height="30.3516" style="stroke:#181818;stroke-width:1.0;" width="10" x="615.5" y="152.0156"/><rect fill="#FFFFFF" height="30.3516" style="stroke:#181818;stroke-width:1.0;" width="10" x="615.5" y="334.125"/><rect fill="#FFFFFF" height="30.3516" style="stroke:#181818;stroke-width:1.0;" width="10" x="615.5" y="589.9375"/><polygon fill="#181818" points="260,87.3125,270,91.3125,260,95.3125,264,91.3125" style="stroke:#181818;stroke-width:1.0;"/><line style="stroke:#181818;stroke-width:1.0;" x1="81" x2="266" y1="91.3125" y2="91.3125"/><text fill="#000000" font-family="sans-serif" font-size="13" lengthAdjust="spacing" textLength="61" x="88" y="86.4561">open route</text><polygon fill="#181818" points="442.5,117.6641,452.5,121.6641,442.5,125.6641,446.5,121.6641" style="stroke:#181818;stroke-width:1.0;"/><line style="stroke:#181818;stroke-width:1.0;" x1="282" x2="448.5" y1="121.6641" y2="121.6641"/><text fill="#000000" font-family="sans-serif" font-size="13" lengthAdjust="spacing" textLength="96" x="289" y="116.8076">load all buildings</text><polygon fill="#181818" points="603.5,148.0156,613.5,152.0156,603.5,156.0156,607.5,152.0156" style="stroke:#181818;stroke-width:1.0;"/><line style="stroke:#181818;stroke-width:1.0;" x1="464.5" x2="609.5" y1="152.0156" y2="152.0156"/><text fill="#000000" font-family="sans-serif" font-size="13" lengthAdjust="spacing" textLength="90" x="471.5" y="147.1592">get all buildings</text><polygon fill="#181818" points="475.5,178.3672,465.5,182.3672,475.5,186.3672,471.5,182.3672" style="stroke:#181818;stroke-width:1.0;"/><line style="stroke:#181818;stroke-width:1.0;stroke-dasharray:2.0,2.0;" x1="469.5" x2="619.5" y1="182.3672" y2="182.3672"/><text fill="#000000" font-family="sans-serif" font-size="13" lengthAdjust="spacing" textLength="86" x="481.5" y="177.5107">list of buildings</text><polygon fill="#181818" points="293,208.7188,283,212.7188,293,216.7188,289,212.7188" style="stroke:#181818;stroke-width:1.0;"/><line style="stroke:#181818;stroke-width:1.0;stroke-dasharray:2.0,2.0;" x1="287" x2="458.5" y1="212.7188" y2="212.7188"/><text fill="#000000" font-family="sans-serif" font-size="13" lengthAdjust="spacing" textLength="86" x="299" y="207.8623">list of buildings</text><polygon fill="#181818" points="92,239.0703,82,243.0703,92,247.0703,88,243.0703" style="stroke:#181818;stroke-width:1.0;"/><line style="stroke:#181818;stroke-width:1.0;stroke-dasharray:2.0,2.0;" x1="86" x2="271" y1="243.0703" y2="243.0703"/><text fill="#000000" font-family="sans-serif" font-size="13" lengthAdjust="spacing" textLength="137" x="98" y="238.2139">show list of all buildings</text><polygon fill="#181818" points="260,269.4219,270,273.4219,260,277.4219,264,273.4219" style="stroke:#181818;stroke-width:1.0;"/><line style="stroke:#181818;stroke-width:1.0;" x1="81" x2="266" y1="273.4219" y2="273.4219"/><text fill="#000000" font-family="sans-serif" font-size="13" lengthAdjust="spacing" textLength="83" x="88" y="268.5654">select building</text><polygon fill="#181818" points="442.5,299.7734,452.5,303.7734,442.5,307.7734,446.5,303.7734" style="stroke:#181818;stroke-width:1.0;"/><line style="stroke:#181818;stroke-width:1.0;" x1="282" x2="448.5" y1="303.7734" y2="303.7734"/><text fill="#000000" font-family="sans-serif" font-size="13" lengthAdjust="spacing" textLength="138" x="289" y="298.917">load all floors of building</text><polygon fill="#181818" points="603.5,330.125,613.5,334.125,603.5,338.125,607.5,334.125" style="stroke:#181818;stroke-width:1.0;"/><line style="stroke:#181818;stroke-width:1.0;" x1="464.5" x2="609.5" y1="334.125" y2="334.125"/><text fill="#000000" font-family="sans-serif" font-size="13" lengthAdjust="spacing" textLength="132" x="471.5" y="329.2686">get all floors of building</text><polygon fill="#181818" points="475.5,360.4766,465.5,364.4766,475.5,368.4766,471.5,364.4766" style="stroke:#181818;stroke-width:1.0;"/><line style="stroke:#181818;stroke-width:1.0;stroke-dasharray:2.0,2.0;" x1="469.5" x2="619.5" y1="364.4766" y2="364.4766"/><text fill="#000000" font-family="sans-serif" font-size="13" lengthAdjust="spacing" textLength="66" x="481.5" y="359.6201">list of floors</text><polygon fill="#181818" points="293,390.8281,283,394.8281,293,398.8281,289,394.8281" style="stroke:#181818;stroke-width:1.0;"/><line style="stroke:#181818;stroke-width:1.0;stroke-dasharray:2.0,2.0;" x1="287" x2="458.5" y1="394.8281" y2="394.8281"/><text fill="#000000" font-family="sans-serif" font-size="13" lengthAdjust="spacing" textLength="66" x="299" y="389.9717">list of floors</text><polygon fill="#181818" points="92,421.1797,82,425.1797,92,429.1797,88,425.1797" style="stroke:#181818;stroke-width:1.0;"/><line style="stroke:#181818;stroke-width:1.0;stroke-dasharray:2.0,2.0;" x1="86" x2="271" y1="425.1797" y2="425.1797"/><text fill="#000000" font-family="sans-serif" font-size="13" lengthAdjust="spacing" textLength="100" x="98" y="420.3232">show list of floors</text><polygon fill="#181818" points="260,451.5313,270,455.5313,260,459.5313,264,455.5313" style="stroke:#181818;stroke-width:1.0;"/><line style="stroke:#181818;stroke-width:1.0;" x1="81" x2="266" y1="455.5313" y2="455.5313"/><text fill="#000000" font-family="sans-serif" font-size="13" lengthAdjust="spacing" textLength="70" x="88" y="450.6748">select floors</text><polygon fill="#181818" points="260,481.8828,270,485.8828,260,489.8828,264,485.8828" style="stroke:#181818;stroke-width:1.0;"/><line style="stroke:#181818;stroke-width:1.0;" x1="81" x2="266" y1="485.8828" y2="485.8828"/><text fill="#000000" font-family="sans-serif" font-size="13" lengthAdjust="spacing" textLength="143" x="88" y="481.0264">input elevator information</text><polygon fill="#181818" points="442.5,512.2344,452.5,516.2344,442.5,520.2344,446.5,516.2344" style="stroke:#181818;stroke-width:1.0;"/><line style="stroke:#181818;stroke-width:1.0;" x1="282" x2="448.5" y1="516.2344" y2="516.2344"/><text fill="#000000" font-family="sans-serif" font-size="13" lengthAdjust="spacing" textLength="111" x="289" y="511.3779">elevator information</text><line style="stroke:#181818;stroke-width:1.0;" x1="464.5" x2="506.5" y1="546.5859" y2="546.5859"/><line style="stroke:#181818;stroke-width:1.0;" x1="506.5" x2="506.5" y1="546.5859" y2="559.5859"/><line style="stroke:#181818;stroke-width:1.0;" x1="465.5" x2="506.5" y1="559.5859" y2="559.5859"/><polygon fill="#181818" points="475.5,555.5859,465.5,559.5859,475.5,563.5859,471.5,559.5859" style="stroke:#181818;stroke-width:1.0;"/><text fill="#000000" font-family="sans-serif" font-size="13" lengthAdjust="spacing" textLength="84" x="471.5" y="541.7295">create elevator</text><polygon fill="#181818" points="603.5,585.9375,613.5,589.9375,603.5,593.9375,607.5,589.9375" style="stroke:#181818;stroke-width:1.0;"/><line style="stroke:#181818;stroke-width:1.0;" x1="464.5" x2="609.5" y1="589.9375" y2="589.9375"/><text fill="#000000" font-family="sans-serif" font-size="13" lengthAdjust="spacing" textLength="74" x="471.5" y="585.0811">save elevator</text><polygon fill="#181818" points="475.5,616.2891,465.5,620.2891,475.5,624.2891,471.5,620.2891" style="stroke:#181818;stroke-width:1.0;"/><line style="stroke:#181818;stroke-width:1.0;stroke-dasharray:2.0,2.0;" x1="469.5" x2="619.5" y1="620.2891" y2="620.2891"/><text fill="#000000" font-family="sans-serif" font-size="13" lengthAdjust="spacing" textLength="81" x="481.5" y="615.4326">elevator saved</text><polygon fill="#181818" points="293,646.6406,283,650.6406,293,654.6406,289,650.6406" style="stroke:#181818;stroke-width:1.0;"/><line style="stroke:#181818;stroke-width:1.0;stroke-dasharray:2.0,2.0;" x1="287" x2="458.5" y1="650.6406" y2="650.6406"/><text fill="#000000" font-family="sans-serif" font-size="13" lengthAdjust="spacing" textLength="81" x="299" y="645.7842">elevator saved</text><polygon fill="#181818" points="92,676.9922,82,680.9922,92,684.9922,88,680.9922" style="stroke:#181818;stroke-width:1.0;"/><line style="stroke:#181818;stroke-width:1.0;stroke-dasharray:2.0,2.0;" x1="86" x2="276" y1="680.9922" y2="680.9922"/><text fill="#000000" font-family="sans-serif" font-size="13" lengthAdjust="spacing" textLength="167" x="98" y="676.1357">elevator created successfully</text><!--MD5=[d7abeb9eda95824d6f7adf7ed2eaf0e7]
@startuml SD Lv2

participant "Campus Management" as campusManager
box "RobDroneGo" #LightBlue
    participant "Campus Management UI" as campusUI
    participant "Campus Management API" as campusAPI
    participant "DB" as DB
end box

campusManager -> campusUI : open route
activate campusUI

    campusUI -> campusAPI : load all buildings
    activate campusAPI

    campusAPI -> DB : get all buildings
    activate DB
    DB - -> campusAPI : list of buildings
    deactivate DB

    campusAPI - -> campusUI : list of buildings
    deactivate campusAPI

campusManager <- - campusUI : show list of all buildings

campusManager -> campusUI : select building

    campusUI -> campusAPI : load all floors of building
    activate campusAPI

    campusAPI -> DB : get all floors of building
    activate DB
    DB - -> campusAPI : list of floors
    deactivate DB

    campusAPI - -> campusUI : list of floors
    deactivate campusAPI

campusManager <- - campusUI : show list of floors

campusManager -> campusUI : select floors

campusManager -> campusUI : input elevator information
    
        campusUI -> campusAPI : elevator information
        activate campusAPI
        campusAPI -> campusAPI : create elevator
    
        campusAPI -> DB : save elevator
        activate DB
        DB - -> campusAPI : elevator saved
        deactivate DB
    
        campusAPI - -> campusUI : elevator saved
        deactivate campusAPI
    
campusManager <- - campusUI : elevator created successfully
deactivate campusUI

@enduml

PlantUML version 1.2022.7(Mon Aug 22 18:01:30 BST 2022)
(GPL source distribution)
Java Runtime: Java(TM) SE Runtime Environment
JVM: Java HotSpot(TM) 64-Bit Server VM
Default Encoding: Cp1252
Language: pt
Country: PT
--></g></svg>