<?xml version="1.0" encoding="UTF-8" standalone="no"?><svg xmlns="http://www.w3.org/2000/svg" xmlns:xlink="http://www.w3.org/1999/xlink" contentStyleType="text/css" height="1424px" preserveAspectRatio="none" style="width:1654px;height:1424px;background:#FFFFFF;" version="1.1" viewBox="0 0 1654 1424" width="1654px" zoomAndPan="magnify"><defs/><g><rect fill="#ADD8E6" height="1412.0391" style="stroke:#181818;stroke-width:0.5;" width="1077.5" x="231" y="6"/><text fill="#000000" font-family="sans-serif" font-size="13" font-weight="bold" lengthAdjust="spacing" textLength="155" x="692.25" y="19.4951">Campus Management UI</text><rect fill="#DDDDDD" height="1390.6875" style="stroke:#181818;stroke-width:0.5;" width="352.5" x="231" y="27.3516"/><text fill="#000000" font-family="sans-serif" font-size="13" font-weight="bold" lengthAdjust="spacing" textLength="32" x="391.25" y="40.8467">View</text><line style="stroke:#181818;stroke-width:0.5;stroke-dasharray:5.0,5.0;" x1="68" x2="68" y1="80.3125" y2="1379.4297"/><line style="stroke:#181818;stroke-width:0.5;stroke-dasharray:5.0,5.0;" x1="298" x2="298" y1="80.3125" y2="1379.4297"/><rect fill="#FFFFFF" height="1250.7656" style="stroke:#181818;stroke-width:1.0;" width="10" x="293" y="110.6641"/><line style="stroke:#181818;stroke-width:0.5;stroke-dasharray:5.0,5.0;" x1="536" x2="536" y1="80.3125" y2="1379.4297"/><rect fill="#FFFFFF" height="325.8672" style="stroke:#181818;stroke-width:1.0;" width="10" x="531" y="141.0156"/><rect fill="#FFFFFF" height="325.8672" style="stroke:#181818;stroke-width:1.0;" width="10" x="531" y="557.9375"/><rect fill="#FFFFFF" height="325.8672" style="stroke:#181818;stroke-width:1.0;" width="10" x="531" y="1005.2109"/><line style="stroke:#181818;stroke-width:0.5;stroke-dasharray:5.0,5.0;" x1="657" x2="657" y1="80.3125" y2="1379.4297"/><rect fill="#FFFFFF" height="265.1641" style="stroke:#181818;stroke-width:1.0;" width="10" x="652" y="171.3672"/><line style="stroke:#181818;stroke-width:0.5;stroke-dasharray:5.0,5.0;" x1="815" x2="815" y1="80.3125" y2="1379.4297"/><rect fill="#FFFFFF" height="265.1641" style="stroke:#181818;stroke-width:1.0;" width="10" x="810" y="588.2891"/><line style="stroke:#181818;stroke-width:0.5;stroke-dasharray:5.0,5.0;" x1="932.5" x2="932.5" y1="80.3125" y2="1379.4297"/><rect fill="#FFFFFF" height="265.1641" style="stroke:#181818;stroke-width:1.0;" width="10" x="927.5" y="1035.5625"/><line style="stroke:#181818;stroke-width:0.5;stroke-dasharray:5.0,5.0;" x1="1173.5" x2="1173.5" y1="80.3125" y2="1379.4297"/><rect fill="#FFFFFF" height="30.3516" style="stroke:#181818;stroke-width:1.0;" width="10" x="1168.5" y="201.7188"/><rect fill="#FFFFFF" height="30.3516" style="stroke:#181818;stroke-width:1.0;" width="10" x="1168.5" y="618.6406"/><rect fill="#FFFFFF" height="30.3516" style="stroke:#181818;stroke-width:1.0;" width="10" x="1168.5" y="1065.9141"/><line style="stroke:#181818;stroke-width:0.5;stroke-dasharray:5.0,5.0;" x1="1265" x2="1265" y1="80.3125" y2="1379.4297"/><rect fill="#FFFFFF" height="143.7578" style="stroke:#181818;stroke-width:1.0;" width="10" x="1260" y="262.4219"/><rect fill="#FFFFFF" height="143.7578" style="stroke:#181818;stroke-width:1.0;" width="10" x="1260" y="679.3438"/><rect fill="#FFFFFF" height="143.7578" style="stroke:#181818;stroke-width:1.0;" width="10" x="1260" y="1126.6172"/><line style="stroke:#181818;stroke-width:0.5;stroke-dasharray:5.0,5.0;" x1="1413" x2="1413" y1="80.3125" y2="1379.4297"/><rect fill="#FFFFFF" height="83.0547" style="stroke:#181818;stroke-width:1.0;" width="10" x="1408" y="292.7734"/><rect fill="#FFFFFF" height="83.0547" style="stroke:#181818;stroke-width:1.0;" width="10" x="1408" y="709.6953"/><rect fill="#FFFFFF" height="83.0547" style="stroke:#181818;stroke-width:1.0;" width="10" x="1408" y="1156.9688"/><rect fill="#E2E2F0" height="31.6094" rx="2.5" ry="2.5" style="stroke:#181818;stroke-width:0.5;" width="126" x="5" y="47.7031"/><text fill="#000000" font-family="sans-serif" font-size="14" lengthAdjust="spacing" textLength="112" x="12" y="69.2363">Campus manager</text><rect fill="#E2E2F0" height="31.6094" rx="2.5" ry="2.5" style="stroke:#181818;stroke-width:0.5;" width="126" x="235" y="47.7031"/><text fill="#000000" font-family="sans-serif" font-size="14" lengthAdjust="spacing" textLength="112" x="242" y="69.2363">HTML + CSS + JS</text><rect fill="#E2E2F0" height="31.6094" rx="2.5" ry="2.5" style="stroke:#181818;stroke-width:0.5;" width="87" x="492.5" y="47.7031"/><text fill="#000000" font-family="sans-serif" font-size="14" lengthAdjust="spacing" textLength="73" x="499.5" y="69.2363">Component</text><rect fill="#E2E2F0" height="31.6094" rx="2.5" ry="2.5" style="stroke:#181818;stroke-width:0.5;" width="115" x="599.5" y="47.7031"/><text fill="#000000" font-family="sans-serif" font-size="14" lengthAdjust="spacing" textLength="101" x="606.5" y="69.2363">Building Service</text><rect fill="#E2E2F0" height="31.6094" rx="2.5" ry="2.5" style="stroke:#181818;stroke-width:0.5;" width="98" x="766" y="47.7031"/><text fill="#000000" font-family="sans-serif" font-size="14" lengthAdjust="spacing" textLength="84" x="773" y="69.2363">Floor Service</text><rect fill="#E2E2F0" height="31.6094" rx="2.5" ry="2.5" style="stroke:#181818;stroke-width:0.5;" width="117" x="874" y="47.7031"/><text fill="#000000" font-family="sans-serif" font-size="14" lengthAdjust="spacing" textLength="103" x="881" y="69.2363">Elevator Service</text><rect fill="#E2E2F0" height="31.6094" rx="2.5" ry="2.5" style="stroke:#181818;stroke-width:0.5;" width="84" x="1131.5" y="47.7031"/><text fill="#000000" font-family="sans-serif" font-size="14" lengthAdjust="spacing" textLength="70" x="1138.5" y="69.2363">API Routes</text><rect fill="#E2E2F0" height="31.6094" rx="2.5" ry="2.5" style="stroke:#181818;stroke-width:0.5;" width="79" x="1225.5" y="47.7031"/><text fill="#000000" font-family="sans-serif" font-size="14" lengthAdjust="spacing" textLength="65" x="1232.5" y="69.2363">Http driver</text><rect fill="#E2E2F0" height="31.6094" rx="2.5" ry="2.5" style="stroke:#181818;stroke-width:0.5;" width="177" x="1324.5" y="47.7031"/><text fill="#000000" font-family="sans-serif" font-size="14" lengthAdjust="spacing" textLength="163" x="1331.5" y="69.2363">Campus Management API</text><rect fill="#E2E2F0" height="31.6094" rx="2.5" ry="2.5" style="stroke:#181818;stroke-width:0.5;" width="126" x="5" y="1379.4297"/><text fill="#000000" font-family="sans-serif" font-size="14" lengthAdjust="spacing" textLength="112" x="12" y="1400.9629">Campus manager</text><rect fill="#E2E2F0" height="31.6094" rx="2.5" ry="2.5" style="stroke:#181818;stroke-width:0.5;" width="126" x="235" y="1379.4297"/><text fill="#000000" font-family="sans-serif" font-size="14" lengthAdjust="spacing" textLength="112" x="242" y="1400.9629">HTML + CSS + JS</text><rect fill="#E2E2F0" height="31.6094" rx="2.5" ry="2.5" style="stroke:#181818;stroke-width:0.5;" width="87" x="492.5" y="1379.4297"/><text fill="#000000" font-family="sans-serif" font-size="14" lengthAdjust="spacing" textLength="73" x="499.5" y="1400.9629">Component</text><rect fill="#E2E2F0" height="31.6094" rx="2.5" ry="2.5" style="stroke:#181818;stroke-width:0.5;" width="115" x="599.5" y="1379.4297"/><text fill="#000000" font-family="sans-serif" font-size="14" lengthAdjust="spacing" textLength="101" x="606.5" y="1400.9629">Building Service</text><rect fill="#E2E2F0" height="31.6094" rx="2.5" ry="2.5" style="stroke:#181818;stroke-width:0.5;" width="98" x="766" y="1379.4297"/><text fill="#000000" font-family="sans-serif" font-size="14" lengthAdjust="spacing" textLength="84" x="773" y="1400.9629">Floor Service</text><rect fill="#E2E2F0" height="31.6094" rx="2.5" ry="2.5" style="stroke:#181818;stroke-width:0.5;" width="117" x="874" y="1379.4297"/><text fill="#000000" font-family="sans-serif" font-size="14" lengthAdjust="spacing" textLength="103" x="881" y="1400.9629">Elevator Service</text><rect fill="#E2E2F0" height="31.6094" rx="2.5" ry="2.5" style="stroke:#181818;stroke-width:0.5;" width="84" x="1131.5" y="1379.4297"/><text fill="#000000" font-family="sans-serif" font-size="14" lengthAdjust="spacing" textLength="70" x="1138.5" y="1400.9629">API Routes</text><rect fill="#E2E2F0" height="31.6094" rx="2.5" ry="2.5" style="stroke:#181818;stroke-width:0.5;" width="79" x="1225.5" y="1379.4297"/><text fill="#000000" font-family="sans-serif" font-size="14" lengthAdjust="spacing" textLength="65" x="1232.5" y="1400.9629">Http driver</text><rect fill="#E2E2F0" height="31.6094" rx="2.5" ry="2.5" style="stroke:#181818;stroke-width:0.5;" width="177" x="1324.5" y="1379.4297"/><text fill="#000000" font-family="sans-serif" font-size="14" lengthAdjust="spacing" textLength="163" x="1331.5" y="1400.9629">Campus Management API</text><polygon fill="#181818" points="281,106.6641,291,110.6641,281,114.6641,285,110.6641" style="stroke:#181818;stroke-width:1.0;"/><line style="stroke:#181818;stroke-width:1.0;" x1="68" x2="287" y1="110.6641" y2="110.6641"/><text fill="#000000" font-family="sans-serif" font-size="13" lengthAdjust="spacing" textLength="57" x="75" y="105.8076">load route</text><polygon fill="#181818" points="519,137.0156,529,141.0156,519,145.0156,523,141.0156" style="stroke:#181818;stroke-width:1.0;"/><line style="stroke:#181818;stroke-width:1.0;" x1="303" x2="525" y1="141.0156" y2="141.0156"/><text fill="#000000" font-family="sans-serif" font-size="13" lengthAdjust="spacing" textLength="96" x="310" y="136.1592">load all buildings</text><polygon fill="#181818" points="640,167.3672,650,171.3672,640,175.3672,644,171.3672" style="stroke:#181818;stroke-width:1.0;"/><line style="stroke:#181818;stroke-width:1.0;" x1="541" x2="646" y1="171.3672" y2="171.3672"/><text fill="#000000" font-family="sans-serif" font-size="13" lengthAdjust="spacing" textLength="90" x="548" y="166.5107">get all buildings</text><polygon fill="#181818" points="1156.5,197.7188,1166.5,201.7188,1156.5,205.7188,1160.5,201.7188" style="stroke:#181818;stroke-width:1.0;"/><line style="stroke:#181818;stroke-width:1.0;" x1="662" x2="1162.5" y1="201.7188" y2="201.7188"/><text fill="#000000" font-family="sans-serif" font-size="13" lengthAdjust="spacing" textLength="81" x="669" y="196.8623">building.getAll</text><polygon fill="#181818" points="673,228.0703,663,232.0703,673,236.0703,669,232.0703" style="stroke:#181818;stroke-width:1.0;"/><line style="stroke:#181818;stroke-width:1.0;stroke-dasharray:2.0,2.0;" x1="667" x2="1167.5" y1="232.0703" y2="232.0703"/><text fill="#000000" font-family="sans-serif" font-size="13" lengthAdjust="spacing" textLength="50" x="679" y="227.2139">api route</text><polygon fill="#181818" points="1248,258.4219,1258,262.4219,1248,266.4219,1252,262.4219" style="stroke:#181818;stroke-width:1.0;"/><line style="stroke:#181818;stroke-width:1.0;" x1="662" x2="1254" y1="262.4219" y2="262.4219"/><text fill="#000000" font-family="sans-serif" font-size="13" lengthAdjust="spacing" textLength="76" x="669" y="257.5654">get(api route)</text><polygon fill="#181818" points="1396,288.7734,1406,292.7734,1396,296.7734,1400,292.7734" style="stroke:#181818;stroke-width:1.0;"/><line style="stroke:#181818;stroke-width:1.0;" x1="1270" x2="1402" y1="292.7734" y2="292.7734"/><text fill="#000000" font-family="sans-serif" font-size="13" lengthAdjust="spacing" textLength="75" x="1277" y="287.917">send request</text><line style="stroke:#181818;stroke-width:1.0;" x1="1418" x2="1460" y1="323.125" y2="323.125"/><line style="stroke:#181818;stroke-width:1.0;" x1="1460" x2="1460" y1="323.125" y2="336.125"/><line style="stroke:#181818;stroke-width:1.0;" x1="1419" x2="1460" y1="336.125" y2="336.125"/><polygon fill="#181818" points="1429,332.125,1419,336.125,1429,340.125,1425,336.125" style="stroke:#181818;stroke-width:1.0;"/><text fill="#000000" font-family="sans-serif" font-size="13" lengthAdjust="spacing" textLength="89" x="1425" y="318.2686">list all buildings</text><path d="M1526,305.7734 L1526,347.7734 L1647,347.7734 L1647,315.7734 L1637,305.7734 L1526,305.7734 " fill="#FEFFDD" style="stroke:#181818;stroke-width:0.5;"/><path d="M1637,305.7734 L1637,315.7734 L1647,315.7734 L1637,305.7734 " fill="#FEFFDD" style="stroke:#181818;stroke-width:0.5;"/><text fill="#000000" font-family="sans-serif" font-size="13" lengthAdjust="spacing" textLength="100" x="1532" y="324.2686">procedures in the</text><text fill="#000000" font-family="sans-serif" font-size="13" lengthAdjust="spacing" textLength="95" x="1532" y="340.6201">user story ID170</text><polygon fill="#181818" points="1281,371.8281,1271,375.8281,1281,379.8281,1277,375.8281" style="stroke:#181818;stroke-width:1.0;"/><line style="stroke:#181818;stroke-width:1.0;stroke-dasharray:2.0,2.0;" x1="1275" x2="1407" y1="375.8281" y2="375.8281"/><text fill="#000000" font-family="sans-serif" font-size="13" lengthAdjust="spacing" textLength="54" x="1287" y="370.9717">return list</text><polygon fill="#181818" points="673,402.1797,663,406.1797,673,410.1797,669,406.1797" style="stroke:#181818;stroke-width:1.0;"/><line style="stroke:#181818;stroke-width:1.0;stroke-dasharray:2.0,2.0;" x1="667" x2="1259" y1="406.1797" y2="406.1797"/><text fill="#000000" font-family="sans-serif" font-size="13" lengthAdjust="spacing" textLength="54" x="679" y="401.3232">return list</text><polygon fill="#181818" points="552,432.5313,542,436.5313,552,440.5313,548,436.5313" style="stroke:#181818;stroke-width:1.0;"/><line style="stroke:#181818;stroke-width:1.0;stroke-dasharray:2.0,2.0;" x1="546" x2="651" y1="436.5313" y2="436.5313"/><text fill="#000000" font-family="sans-serif" font-size="13" lengthAdjust="spacing" textLength="54" x="558" y="431.6748">return list</text><polygon fill="#181818" points="314,462.8828,304,466.8828,314,470.8828,310,466.8828" style="stroke:#181818;stroke-width:1.0;"/><line style="stroke:#181818;stroke-width:1.0;stroke-dasharray:2.0,2.0;" x1="308" x2="530" y1="466.8828" y2="466.8828"/><text fill="#000000" font-family="sans-serif" font-size="13" lengthAdjust="spacing" textLength="88" x="320" y="462.0264">return buildings</text><polygon fill="#181818" points="79,493.2344,69,497.2344,79,501.2344,75,497.2344" style="stroke:#181818;stroke-width:1.0;"/><line style="stroke:#181818;stroke-width:1.0;stroke-dasharray:2.0,2.0;" x1="73" x2="292" y1="497.2344" y2="497.2344"/><text fill="#000000" font-family="sans-serif" font-size="13" lengthAdjust="spacing" textLength="106" x="85" y="492.3779">show list buildings</text><polygon fill="#181818" points="281,523.5859,291,527.5859,281,531.5859,285,527.5859" style="stroke:#181818;stroke-width:1.0;"/><line style="stroke:#181818;stroke-width:1.0;stroke-dasharray:2.0,2.0;" x1="68" x2="287" y1="527.5859" y2="527.5859"/><text fill="#000000" font-family="sans-serif" font-size="13" lengthAdjust="spacing" textLength="83" x="75" y="522.7295">select building</text><polygon fill="#181818" points="519,553.9375,529,557.9375,519,561.9375,523,557.9375" style="stroke:#181818;stroke-width:1.0;"/><line style="stroke:#181818;stroke-width:1.0;" x1="303" x2="525" y1="557.9375" y2="557.9375"/><text fill="#000000" font-family="sans-serif" font-size="13" lengthAdjust="spacing" textLength="76" x="310" y="553.0811">load all floors</text><polygon fill="#181818" points="798,584.2891,808,588.2891,798,592.2891,802,588.2891" style="stroke:#181818;stroke-width:1.0;"/><line style="stroke:#181818;stroke-width:1.0;" x1="541" x2="804" y1="588.2891" y2="588.2891"/><text fill="#000000" font-family="sans-serif" font-size="13" lengthAdjust="spacing" textLength="250" x="548" y="583.4326">get getFloorsByBuildingCode(buildingCode)</text><polygon fill="#181818" points="1156.5,614.6406,1166.5,618.6406,1156.5,622.6406,1160.5,618.6406" style="stroke:#181818;stroke-width:1.0;"/><line style="stroke:#181818;stroke-width:1.0;" x1="820" x2="1162.5" y1="618.6406" y2="618.6406"/><text fill="#000000" font-family="sans-serif" font-size="13" lengthAdjust="spacing" textLength="220" x="827" y="613.7842">floor.getByBuildingCode(buildingCode)</text><polygon fill="#181818" points="831,644.9922,821,648.9922,831,652.9922,827,648.9922" style="stroke:#181818;stroke-width:1.0;"/><line style="stroke:#181818;stroke-width:1.0;stroke-dasharray:2.0,2.0;" x1="825" x2="1167.5" y1="648.9922" y2="648.9922"/><text fill="#000000" font-family="sans-serif" font-size="13" lengthAdjust="spacing" textLength="50" x="837" y="644.1357">api route</text><polygon fill="#181818" points="1248,675.3438,1258,679.3438,1248,683.3438,1252,679.3438" style="stroke:#181818;stroke-width:1.0;"/><line style="stroke:#181818;stroke-width:1.0;" x1="820" x2="1254" y1="679.3438" y2="679.3438"/><text fill="#000000" font-family="sans-serif" font-size="13" lengthAdjust="spacing" textLength="76" x="827" y="674.4873">get(api route)</text><polygon fill="#181818" points="1396,705.6953,1406,709.6953,1396,713.6953,1400,709.6953" style="stroke:#181818;stroke-width:1.0;"/><line style="stroke:#181818;stroke-width:1.0;" x1="1270" x2="1402" y1="709.6953" y2="709.6953"/><text fill="#000000" font-family="sans-serif" font-size="13" lengthAdjust="spacing" textLength="75" x="1277" y="704.8389">send request</text><line style="stroke:#181818;stroke-width:1.0;" x1="1418" x2="1460" y1="740.0469" y2="740.0469"/><line style="stroke:#181818;stroke-width:1.0;" x1="1460" x2="1460" y1="740.0469" y2="753.0469"/><line style="stroke:#181818;stroke-width:1.0;" x1="1419" x2="1460" y1="753.0469" y2="753.0469"/><polygon fill="#181818" points="1429,749.0469,1419,753.0469,1429,757.0469,1425,753.0469" style="stroke:#181818;stroke-width:1.0;"/><text fill="#000000" font-family="sans-serif" font-size="13" lengthAdjust="spacing" textLength="69" x="1425" y="735.1904">list all floors</text><path d="M1506,722.6953 L1506,764.6953 L1627,764.6953 L1627,732.6953 L1617,722.6953 L1506,722.6953 " fill="#FEFFDD" style="stroke:#181818;stroke-width:0.5;"/><path d="M1617,722.6953 L1617,732.6953 L1627,732.6953 L1617,722.6953 " fill="#FEFFDD" style="stroke:#181818;stroke-width:0.5;"/><text fill="#000000" font-family="sans-serif" font-size="13" lengthAdjust="spacing" textLength="100" x="1512" y="741.1904">procedures in the</text><text fill="#000000" font-family="sans-serif" font-size="13" lengthAdjust="spacing" textLength="95" x="1512" y="757.542">user story ID210</text><polygon fill="#181818" points="1281,788.75,1271,792.75,1281,796.75,1277,792.75" style="stroke:#181818;stroke-width:1.0;"/><line style="stroke:#181818;stroke-width:1.0;stroke-dasharray:2.0,2.0;" x1="1275" x2="1407" y1="792.75" y2="792.75"/><text fill="#000000" font-family="sans-serif" font-size="13" lengthAdjust="spacing" textLength="54" x="1287" y="787.8936">return list</text><polygon fill="#181818" points="831,819.1016,821,823.1016,831,827.1016,827,823.1016" style="stroke:#181818;stroke-width:1.0;"/><line style="stroke:#181818;stroke-width:1.0;stroke-dasharray:2.0,2.0;" x1="825" x2="1259" y1="823.1016" y2="823.1016"/><text fill="#000000" font-family="sans-serif" font-size="13" lengthAdjust="spacing" textLength="54" x="837" y="818.2451">return list</text><polygon fill="#181818" points="552,849.4531,542,853.4531,552,857.4531,548,853.4531" style="stroke:#181818;stroke-width:1.0;"/><line style="stroke:#181818;stroke-width:1.0;stroke-dasharray:2.0,2.0;" x1="546" x2="809" y1="853.4531" y2="853.4531"/><text fill="#000000" font-family="sans-serif" font-size="13" lengthAdjust="spacing" textLength="54" x="558" y="848.5967">return list</text><polygon fill="#181818" points="314,879.8047,304,883.8047,314,887.8047,310,883.8047" style="stroke:#181818;stroke-width:1.0;"/><line style="stroke:#181818;stroke-width:1.0;stroke-dasharray:2.0,2.0;" x1="308" x2="530" y1="883.8047" y2="883.8047"/><text fill="#000000" font-family="sans-serif" font-size="13" lengthAdjust="spacing" textLength="68" x="320" y="878.9482">return floors</text><polygon fill="#181818" points="79,910.1563,69,914.1563,79,918.1563,75,914.1563" style="stroke:#181818;stroke-width:1.0;"/><line style="stroke:#181818;stroke-width:1.0;stroke-dasharray:2.0,2.0;" x1="73" x2="292" y1="914.1563" y2="914.1563"/><text fill="#000000" font-family="sans-serif" font-size="13" lengthAdjust="spacing" textLength="86" x="85" y="909.2998">show list floors</text><polygon fill="#181818" points="281,940.5078,291,944.5078,281,948.5078,285,944.5078" style="stroke:#181818;stroke-width:1.0;"/><line style="stroke:#181818;stroke-width:1.0;stroke-dasharray:2.0,2.0;" x1="68" x2="287" y1="944.5078" y2="944.5078"/><text fill="#000000" font-family="sans-serif" font-size="13" lengthAdjust="spacing" textLength="70" x="75" y="939.6514">select floors</text><polygon fill="#181818" points="281,970.8594,291,974.8594,281,978.8594,285,974.8594" style="stroke:#181818;stroke-width:1.0;"/><line style="stroke:#181818;stroke-width:1.0;" x1="68" x2="287" y1="974.8594" y2="974.8594"/><text fill="#000000" font-family="sans-serif" font-size="13" lengthAdjust="spacing" textLength="143" x="75" y="970.0029">input elevator information</text><polygon fill="#181818" points="519,1001.2109,529,1005.2109,519,1009.2109,523,1005.2109" style="stroke:#181818;stroke-width:1.0;"/><line style="stroke:#181818;stroke-width:1.0;" x1="303" x2="525" y1="1005.2109" y2="1005.2109"/><text fill="#000000" font-family="sans-serif" font-size="13" lengthAdjust="spacing" textLength="111" x="310" y="1000.3545">elevator information</text><polygon fill="#181818" points="915.5,1031.5625,925.5,1035.5625,915.5,1039.5625,919.5,1035.5625" style="stroke:#181818;stroke-width:1.0;"/><line style="stroke:#181818;stroke-width:1.0;" x1="541" x2="921.5" y1="1035.5625" y2="1035.5625"/><text fill="#000000" font-family="sans-serif" font-size="13" lengthAdjust="spacing" textLength="134" x="548" y="1030.7061">uploadelevator(elevator)</text><polygon fill="#181818" points="1156.5,1061.9141,1166.5,1065.9141,1156.5,1069.9141,1160.5,1065.9141" style="stroke:#181818;stroke-width:1.0;"/><line style="stroke:#181818;stroke-width:1.0;" x1="937.5" x2="1162.5" y1="1065.9141" y2="1065.9141"/><text fill="#000000" font-family="sans-serif" font-size="13" lengthAdjust="spacing" textLength="212" x="944.5" y="1061.0576">elevator.createElevator(buildingCode)</text><polygon fill="#181818" points="948.5,1092.2656,938.5,1096.2656,948.5,1100.2656,944.5,1096.2656" style="stroke:#181818;stroke-width:1.0;"/><line style="stroke:#181818;stroke-width:1.0;stroke-dasharray:2.0,2.0;" x1="942.5" x2="1167.5" y1="1096.2656" y2="1096.2656"/><text fill="#000000" font-family="sans-serif" font-size="13" lengthAdjust="spacing" textLength="50" x="954.5" y="1091.4092">api route</text><polygon fill="#181818" points="1248,1122.6172,1258,1126.6172,1248,1130.6172,1252,1126.6172" style="stroke:#181818;stroke-width:1.0;"/><line style="stroke:#181818;stroke-width:1.0;" x1="937.5" x2="1254" y1="1126.6172" y2="1126.6172"/><text fill="#000000" font-family="sans-serif" font-size="13" lengthAdjust="spacing" textLength="135" x="944.5" y="1121.7607">post(api route, elevator)</text><polygon fill="#181818" points="1396,1152.9688,1406,1156.9688,1396,1160.9688,1400,1156.9688" style="stroke:#181818;stroke-width:1.0;"/><line style="stroke:#181818;stroke-width:1.0;" x1="1270" x2="1402" y1="1156.9688" y2="1156.9688"/><text fill="#000000" font-family="sans-serif" font-size="13" lengthAdjust="spacing" textLength="75" x="1277" y="1152.1123">send request</text><line style="stroke:#181818;stroke-width:1.0;" x1="1418" x2="1460" y1="1187.3203" y2="1187.3203"/><line style="stroke:#181818;stroke-width:1.0;" x1="1460" x2="1460" y1="1187.3203" y2="1200.3203"/><line style="stroke:#181818;stroke-width:1.0;" x1="1419" x2="1460" y1="1200.3203" y2="1200.3203"/><polygon fill="#181818" points="1429,1196.3203,1419,1200.3203,1429,1204.3203,1425,1200.3203" style="stroke:#181818;stroke-width:1.0;"/><text fill="#000000" font-family="sans-serif" font-size="13" lengthAdjust="spacing" textLength="84" x="1425" y="1182.4639">create elevator</text><path d="M1521,1169.9688 L1521,1211.9688 L1642,1211.9688 L1642,1179.9688 L1632,1169.9688 L1521,1169.9688 " fill="#FEFFDD" style="stroke:#181818;stroke-width:0.5;"/><path d="M1632,1169.9688 L1632,1179.9688 L1642,1179.9688 L1632,1169.9688 " fill="#FEFFDD" style="stroke:#181818;stroke-width:0.5;"/><text fill="#000000" font-family="sans-serif" font-size="13" lengthAdjust="spacing" textLength="100" x="1527" y="1188.4639">procedures in the</text><text fill="#000000" font-family="sans-serif" font-size="13" lengthAdjust="spacing" textLength="95" x="1527" y="1204.8154">user story ID270</text><polygon fill="#181818" points="1281,1236.0234,1271,1240.0234,1281,1244.0234,1277,1240.0234" style="stroke:#181818;stroke-width:1.0;"/><line style="stroke:#181818;stroke-width:1.0;stroke-dasharray:2.0,2.0;" x1="1275" x2="1407" y1="1240.0234" y2="1240.0234"/><text fill="#000000" font-family="sans-serif" font-size="13" lengthAdjust="spacing" textLength="81" x="1287" y="1235.167">return elevator</text><polygon fill="#181818" points="948.5,1266.375,938.5,1270.375,948.5,1274.375,944.5,1270.375" style="stroke:#181818;stroke-width:1.0;"/><line style="stroke:#181818;stroke-width:1.0;stroke-dasharray:2.0,2.0;" x1="942.5" x2="1259" y1="1270.375" y2="1270.375"/><text fill="#000000" font-family="sans-serif" font-size="13" lengthAdjust="spacing" textLength="81" x="954.5" y="1265.5186">return elevator</text><polygon fill="#181818" points="552,1296.7266,542,1300.7266,552,1304.7266,548,1300.7266" style="stroke:#181818;stroke-width:1.0;"/><line style="stroke:#181818;stroke-width:1.0;stroke-dasharray:2.0,2.0;" x1="546" x2="926.5" y1="1300.7266" y2="1300.7266"/><text fill="#000000" font-family="sans-serif" font-size="13" lengthAdjust="spacing" textLength="81" x="558" y="1295.8701">return elevator</text><polygon fill="#181818" points="314,1327.0781,304,1331.0781,314,1335.0781,310,1331.0781" style="stroke:#181818;stroke-width:1.0;"/><line style="stroke:#181818;stroke-width:1.0;stroke-dasharray:2.0,2.0;" x1="308" x2="530" y1="1331.0781" y2="1331.0781"/><text fill="#000000" font-family="sans-serif" font-size="13" lengthAdjust="spacing" textLength="204" x="320" y="1326.2217">return created elevator successfully</text><polygon fill="#181818" points="79,1357.4297,69,1361.4297,79,1365.4297,75,1361.4297" style="stroke:#181818;stroke-width:1.0;"/><line style="stroke:#181818;stroke-width:1.0;stroke-dasharray:2.0,2.0;" x1="73" x2="292" y1="1361.4297" y2="1361.4297"/><text fill="#000000" font-family="sans-serif" font-size="13" lengthAdjust="spacing" textLength="201" x="85" y="1356.5732">show created elevator successfully</text><!--MD5=[d2df3eb182671aa84d2dbedb78c2a3a5]
@startuml SD Lv3

!pragma teoz true

participant "Campus manager" as Campus
box "Campus Management UI" #LightBlue

    box "View"
        participant "HTML + CSS + JS" as html
        participant "Component" as component
    end box
    participant "Building Service" as buildingService
    participant "Floor Service" as floorService
    participant "Elevator Service" as elevatorService
    participant "API Routes" as API_ROUTES
    participant "Http driver" as http

end box
participant "Campus Management API" as CampusAPI


Campus -> html : load route
activate html

    html -> component : load all buildings
    activate component

        component -> buildingService : get all buildings
        activate buildingService

            buildingService -> API_ROUTES : building.getAll
            activate API_ROUTES

            API_ROUTES - -> buildingService : api route
            deactivate API_ROUTES

            buildingService -> http : get(api route)
            activate http

                http -> CampusAPI : send request
                activate CampusAPI

                    CampusAPI -> CampusAPI : list all buildings
                    note right : procedures in the\nuser story ID170
                    
                CampusAPI - -> http : return list
                deactivate CampusAPI

            http - -> buildingService : return list
            deactivate http

        buildingService - -> component : return list
        deactivate buildingService

    component - -> html : return buildings
    deactivate component

html - -> Campus : show list buildings

Campus - -> html : select building

    html -> component : load all floors
    activate component

        component -> floorService : get getFloorsByBuildingCode(buildingCode)
        activate floorService

            floorService -> API_ROUTES : floor.getByBuildingCode(buildingCode)
            activate API_ROUTES

            API_ROUTES - -> floorService : api route
            deactivate API_ROUTES

            floorService -> http : get(api route)
            activate http

                http -> CampusAPI : send request
                activate CampusAPI

                    CampusAPI -> CampusAPI : list all floors
                    note right : procedures in the\nuser story ID210
                    
                CampusAPI - -> http : return list
                deactivate CampusAPI

            http - -> floorService : return list
            deactivate http

        floorService - -> component : return list
        deactivate floorService
    
    component - -> html : return floors
    deactivate component

html - -> Campus : show list floors

Campus - -> html : select floors

Campus -> html : input elevator information

    html -> component : elevator information
    activate component

        component -> elevatorService : uploadelevator(elevator)
        activate elevatorService

            elevatorService -> API_ROUTES : elevator.createElevator(buildingCode)
            activate API_ROUTES

            API_ROUTES - -> elevatorService : api route
            deactivate API_ROUTES

            elevatorService -> http : post(api route, elevator)
            activate http

                http -> CampusAPI : send request
                activate CampusAPI

                    CampusAPI -> CampusAPI : create elevator
                    note right : procedures in the\nuser story ID270
                    
                CampusAPI - -> http : return elevator
                deactivate CampusAPI

            http - -> elevatorService : return elevator
            deactivate http

        elevatorService - -> component : return elevator
        deactivate elevatorService

    component - -> html : return created elevator successfully
    deactivate component

html - -> Campus : show created elevator successfully
deactivate html


@enduml

PlantUML version 1.2022.7(Mon Aug 22 18:01:30 BST 2022)
(GPL source distribution)
Java Runtime: Java(TM) SE Runtime Environment
JVM: Java HotSpot(TM) 64-Bit Server VM
Default Encoding: Cp1252
Language: pt
Country: PT
--></g></svg>