<?xml version="1.0" encoding="UTF-8" standalone="no"?><svg xmlns="http://www.w3.org/2000/svg" xmlns:xlink="http://www.w3.org/1999/xlink" contentStyleType="text/css" height="214px" preserveAspectRatio="none" style="width:450px;height:214px;background:#FFFFFF;" version="1.1" viewBox="0 0 450 214" width="450px" zoomAndPan="magnify"><defs/><g><rect fill="#FFFFFF" height="90.0547" style="stroke:#181818;stroke-width:1.0;" width="10" x="234" y="69.9609"/><line style="stroke:#181818;stroke-width:0.5;stroke-dasharray:5.0,5.0;" x1="68" x2="68" y1="37.6094" y2="178.0156"/><line style="stroke:#181818;stroke-width:0.5;stroke-dasharray:5.0,5.0;" x1="239" x2="239" y1="37.6094" y2="178.0156"/><rect fill="#E2E2F0" height="31.6094" rx="2.5" ry="2.5" style="stroke:#181818;stroke-width:0.5;" width="126" x="5" y="5"/><text fill="#000000" font-family="sans-serif" font-size="14" lengthAdjust="spacing" textLength="112" x="12" y="26.5332">Campus Manager</text><rect fill="#E2E2F0" height="31.6094" rx="2.5" ry="2.5" style="stroke:#181818;stroke-width:0.5;" width="126" x="5" y="177.0156"/><text fill="#000000" font-family="sans-serif" font-size="14" lengthAdjust="spacing" textLength="112" x="12" y="198.5488">Campus Manager</text><rect fill="#E2E2F0" height="31.6094" rx="2.5" ry="2.5" style="stroke:#181818;stroke-width:0.5;" width="98" x="190" y="5"/><text fill="#000000" font-family="sans-serif" font-size="14" lengthAdjust="spacing" textLength="84" x="197" y="26.5332">RobDroneGo</text><rect fill="#E2E2F0" height="31.6094" rx="2.5" ry="2.5" style="stroke:#181818;stroke-width:0.5;" width="98" x="190" y="177.0156"/><text fill="#000000" font-family="sans-serif" font-size="14" lengthAdjust="spacing" textLength="84" x="197" y="198.5488">RobDroneGo</text><rect fill="#FFFFFF" height="90.0547" style="stroke:#181818;stroke-width:1.0;" width="10" x="234" y="69.9609"/><polygon fill="#181818" points="222,65.9609,232,69.9609,222,73.9609,226,69.9609" style="stroke:#181818;stroke-width:1.0;"/><line style="stroke:#181818;stroke-width:1.0;" x1="68" x2="228" y1="69.9609" y2="69.9609"/><text fill="#000000" font-family="sans-serif" font-size="13" lengthAdjust="spacing" textLength="147" x="75" y="65.1045">open route (buildingCode)</text><line style="stroke:#181818;stroke-width:1.0;" x1="244" x2="286" y1="116.6641" y2="116.6641"/><line style="stroke:#181818;stroke-width:1.0;" x1="286" x2="286" y1="116.6641" y2="129.6641"/><line style="stroke:#181818;stroke-width:1.0;" x1="245" x2="286" y1="129.6641" y2="129.6641"/><polygon fill="#181818" points="255,125.6641,245,129.6641,255,133.6641,251,129.6641" style="stroke:#181818;stroke-width:1.0;"/><text fill="#000000" font-family="sans-serif" font-size="13" lengthAdjust="spacing" textLength="192" x="251" y="95.4561">get list of all floors with passages</text><text fill="#000000" font-family="sans-serif" font-size="13" lengthAdjust="spacing" textLength="112" x="251" y="111.8076">to diferent buildings</text><polygon fill="#181818" points="79,156.0156,69,160.0156,79,164.0156,75,160.0156" style="stroke:#181818;stroke-width:1.0;"/><ellipse cx="238.5" cy="159.2656" fill="none" rx="4" ry="4" style="stroke:#181818;stroke-width:1.5;"/><line style="stroke:#181818;stroke-width:1.0;stroke-dasharray:2.0,2.0;" x1="73" x2="234" y1="160.0156" y2="160.0156"/><text fill="#000000" font-family="sans-serif" font-size="13" lengthAdjust="spacing" textLength="117" x="85" y="155.1592">show list of all floors</text><!--MD5=[a3af174522d9c2e4eac384090adc9750]
@startuml SD Lv1

participant "Campus Manager" as campusManager
participant RobDroneGo as system
campusManager -> system : open route (buildingCode)
activate system

system -> system : get list of all floors with passages\nto diferent buildings

campusManager <- -o system : show list of all floors

deactivate system

@enduml

PlantUML version 1.2022.7(Mon Aug 22 18:01:30 BST 2022)
(GPL source distribution)
Java Runtime: Java(TM) SE Runtime Environment
JVM: Java HotSpot(TM) 64-Bit Server VM
Default Encoding: Cp1252
Language: pt
Country: PT
--></g></svg>