<?xml version="1.0" encoding="UTF-8" standalone="no"?><svg xmlns="http://www.w3.org/2000/svg" xmlns:xlink="http://www.w3.org/1999/xlink" contentStyleType="text/css" height="576px" preserveAspectRatio="none" style="width:1623px;height:576px;background:#FFFFFF;" version="1.1" viewBox="0 0 1623 576" width="1623px" zoomAndPan="magnify"><defs/><g><rect fill="#ADD8E6" height="564.1953" style="stroke:#181818;stroke-width:0.5;" width="1142" x="173" y="6"/><text fill="#000000" font-family="sans-serif" font-size="13" font-weight="bold" lengthAdjust="spacing" textLength="155" x="666.5" y="19.4951">Campus Management UI</text><rect fill="#DDDDDD" height="542.8438" style="stroke:#181818;stroke-width:0.5;" width="289.5" x="173" y="27.3516"/><text fill="#000000" font-family="sans-serif" font-size="13" font-weight="bold" lengthAdjust="spacing" textLength="32" x="301.75" y="40.8467">View</text><line style="stroke:#181818;stroke-width:0.5;stroke-dasharray:5.0,5.0;" x1="68" x2="68" y1="80.3125" y2="531.5859"/><line style="stroke:#181818;stroke-width:0.5;stroke-dasharray:5.0,5.0;" x1="240" x2="240" y1="80.3125" y2="531.5859"/><rect fill="#FFFFFF" height="402.9219" style="stroke:#181818;stroke-width:1.0;" width="10" x="235" y="110.6641"/><line style="stroke:#181818;stroke-width:0.5;stroke-dasharray:5.0,5.0;" x1="415" x2="415" y1="80.3125" y2="531.5859"/><rect fill="#FFFFFF" height="325.8672" style="stroke:#181818;stroke-width:1.0;" width="10" x="410" y="157.3672"/><line style="stroke:#181818;stroke-width:0.5;stroke-dasharray:5.0,5.0;" x1="771" x2="771" y1="80.3125" y2="531.5859"/><rect fill="#FFFFFF" height="265.1641" style="stroke:#181818;stroke-width:1.0;" width="10" x="766" y="187.7188"/><line style="stroke:#181818;stroke-width:0.5;stroke-dasharray:5.0,5.0;" x1="1180" x2="1180" y1="80.3125" y2="531.5859"/><rect fill="#FFFFFF" height="30.3516" style="stroke:#181818;stroke-width:1.0;" width="10" x="1175" y="218.0703"/><line style="stroke:#181818;stroke-width:0.5;stroke-dasharray:5.0,5.0;" x1="1271.5" x2="1271.5" y1="80.3125" y2="531.5859"/><rect fill="#FFFFFF" height="143.7578" style="stroke:#181818;stroke-width:1.0;" width="10" x="1266.5" y="278.7734"/><line style="stroke:#181818;stroke-width:0.5;stroke-dasharray:5.0,5.0;" x1="1419.5" x2="1419.5" y1="80.3125" y2="531.5859"/><rect fill="#FFFFFF" height="83.0547" style="stroke:#181818;stroke-width:1.0;" width="10" x="1414.5" y="309.125"/><rect fill="#E2E2F0" height="31.6094" rx="2.5" ry="2.5" style="stroke:#181818;stroke-width:0.5;" width="126" x="5" y="47.7031"/><text fill="#000000" font-family="sans-serif" font-size="14" lengthAdjust="spacing" textLength="112" x="12" y="69.2363">Campus manager</text><rect fill="#E2E2F0" height="31.6094" rx="2.5" ry="2.5" style="stroke:#181818;stroke-width:0.5;" width="126" x="177" y="47.7031"/><text fill="#000000" font-family="sans-serif" font-size="14" lengthAdjust="spacing" textLength="112" x="184" y="69.2363">HTML + CSS + JS</text><rect fill="#E2E2F0" height="31.6094" rx="2.5" ry="2.5" style="stroke:#181818;stroke-width:0.5;" width="87" x="371.5" y="47.7031"/><text fill="#000000" font-family="sans-serif" font-size="14" lengthAdjust="spacing" textLength="73" x="378.5" y="69.2363">Component</text><rect fill="#E2E2F0" height="31.6094" rx="2.5" ry="2.5" style="stroke:#181818;stroke-width:0.5;" width="120" x="711" y="47.7031"/><text fill="#000000" font-family="sans-serif" font-size="14" lengthAdjust="spacing" textLength="106" x="718" y="69.2363">Passage Service</text><rect fill="#E2E2F0" height="31.6094" rx="2.5" ry="2.5" style="stroke:#181818;stroke-width:0.5;" width="84" x="1138" y="47.7031"/><text fill="#000000" font-family="sans-serif" font-size="14" lengthAdjust="spacing" textLength="70" x="1145" y="69.2363">API Routes</text><rect fill="#E2E2F0" height="31.6094" rx="2.5" ry="2.5" style="stroke:#181818;stroke-width:0.5;" width="79" x="1232" y="47.7031"/><text fill="#000000" font-family="sans-serif" font-size="14" lengthAdjust="spacing" textLength="65" x="1239" y="69.2363">Http driver</text><rect fill="#E2E2F0" height="31.6094" rx="2.5" ry="2.5" style="stroke:#181818;stroke-width:0.5;" width="177" x="1331" y="47.7031"/><text fill="#000000" font-family="sans-serif" font-size="14" lengthAdjust="spacing" textLength="163" x="1338" y="69.2363">Campus Management API</text><rect fill="#E2E2F0" height="31.6094" rx="2.5" ry="2.5" style="stroke:#181818;stroke-width:0.5;" width="126" x="5" y="531.5859"/><text fill="#000000" font-family="sans-serif" font-size="14" lengthAdjust="spacing" textLength="112" x="12" y="553.1191">Campus manager</text><rect fill="#E2E2F0" height="31.6094" rx="2.5" ry="2.5" style="stroke:#181818;stroke-width:0.5;" width="126" x="177" y="531.5859"/><text fill="#000000" font-family="sans-serif" font-size="14" lengthAdjust="spacing" textLength="112" x="184" y="553.1191">HTML + CSS + JS</text><rect fill="#E2E2F0" height="31.6094" rx="2.5" ry="2.5" style="stroke:#181818;stroke-width:0.5;" width="87" x="371.5" y="531.5859"/><text fill="#000000" font-family="sans-serif" font-size="14" lengthAdjust="spacing" textLength="73" x="378.5" y="553.1191">Component</text><rect fill="#E2E2F0" height="31.6094" rx="2.5" ry="2.5" style="stroke:#181818;stroke-width:0.5;" width="120" x="711" y="531.5859"/><text fill="#000000" font-family="sans-serif" font-size="14" lengthAdjust="spacing" textLength="106" x="718" y="553.1191">Passage Service</text><rect fill="#E2E2F0" height="31.6094" rx="2.5" ry="2.5" style="stroke:#181818;stroke-width:0.5;" width="84" x="1138" y="531.5859"/><text fill="#000000" font-family="sans-serif" font-size="14" lengthAdjust="spacing" textLength="70" x="1145" y="553.1191">API Routes</text><rect fill="#E2E2F0" height="31.6094" rx="2.5" ry="2.5" style="stroke:#181818;stroke-width:0.5;" width="79" x="1232" y="531.5859"/><text fill="#000000" font-family="sans-serif" font-size="14" lengthAdjust="spacing" textLength="65" x="1239" y="553.1191">Http driver</text><rect fill="#E2E2F0" height="31.6094" rx="2.5" ry="2.5" style="stroke:#181818;stroke-width:0.5;" width="177" x="1331" y="531.5859"/><text fill="#000000" font-family="sans-serif" font-size="14" lengthAdjust="spacing" textLength="163" x="1338" y="553.1191">Campus Management API</text><polygon fill="#181818" points="223,106.6641,233,110.6641,223,114.6641,227,110.6641" style="stroke:#181818;stroke-width:1.0;"/><line style="stroke:#181818;stroke-width:1.0;" x1="68" x2="229" y1="110.6641" y2="110.6641"/><text fill="#000000" font-family="sans-serif" font-size="13" lengthAdjust="spacing" textLength="143" x="75" y="105.8076">load route (buildingCode)</text><polygon fill="#181818" points="398,153.3672,408,157.3672,398,161.3672,402,157.3672" style="stroke:#181818;stroke-width:1.0;"/><line style="stroke:#181818;stroke-width:1.0;" x1="245" x2="404" y1="157.3672" y2="157.3672"/><text fill="#000000" font-family="sans-serif" font-size="13" lengthAdjust="spacing" textLength="146" x="252" y="136.1592">load floors with passages</text><text fill="#000000" font-family="sans-serif" font-size="13" lengthAdjust="spacing" textLength="112" x="252" y="152.5107">to diferent buildings</text><polygon fill="#181818" points="754,183.7188,764,187.7188,754,191.7188,758,187.7188" style="stroke:#181818;stroke-width:1.0;"/><line style="stroke:#181818;stroke-width:1.0;" x1="420" x2="760" y1="187.7188" y2="187.7188"/><text fill="#000000" font-family="sans-serif" font-size="13" lengthAdjust="spacing" textLength="327" x="427" y="182.8623">listFloorsWithPassagesToDifferentBuilding(buildingCode)</text><polygon fill="#181818" points="1163,214.0703,1173,218.0703,1163,222.0703,1167,218.0703" style="stroke:#181818;stroke-width:1.0;"/><line style="stroke:#181818;stroke-width:1.0;" x1="776" x2="1169" y1="218.0703" y2="218.0703"/><text fill="#000000" font-family="sans-serif" font-size="13" lengthAdjust="spacing" textLength="380" x="783" y="213.2139">passage.listFloorsWithPassagesToDifferentBuilding(buildingCode)</text><polygon fill="#181818" points="787,244.4219,777,248.4219,787,252.4219,783,248.4219" style="stroke:#181818;stroke-width:1.0;"/><line style="stroke:#181818;stroke-width:1.0;stroke-dasharray:2.0,2.0;" x1="781" x2="1174" y1="248.4219" y2="248.4219"/><text fill="#000000" font-family="sans-serif" font-size="13" lengthAdjust="spacing" textLength="50" x="793" y="243.5654">api route</text><polygon fill="#181818" points="1254.5,274.7734,1264.5,278.7734,1254.5,282.7734,1258.5,278.7734" style="stroke:#181818;stroke-width:1.0;"/><line style="stroke:#181818;stroke-width:1.0;" x1="776" x2="1260.5" y1="278.7734" y2="278.7734"/><text fill="#000000" font-family="sans-serif" font-size="13" lengthAdjust="spacing" textLength="76" x="783" y="273.917">get(api route)</text><polygon fill="#181818" points="1402.5,305.125,1412.5,309.125,1402.5,313.125,1406.5,309.125" style="stroke:#181818;stroke-width:1.0;"/><line style="stroke:#181818;stroke-width:1.0;" x1="1276.5" x2="1408.5" y1="309.125" y2="309.125"/><text fill="#000000" font-family="sans-serif" font-size="13" lengthAdjust="spacing" textLength="75" x="1283.5" y="304.2686">send request</text><line style="stroke:#181818;stroke-width:1.0;" x1="1424.5" x2="1466.5" y1="339.4766" y2="339.4766"/><line style="stroke:#181818;stroke-width:1.0;" x1="1466.5" x2="1466.5" y1="339.4766" y2="352.4766"/><line style="stroke:#181818;stroke-width:1.0;" x1="1425.5" x2="1466.5" y1="352.4766" y2="352.4766"/><polygon fill="#181818" points="1435.5,348.4766,1425.5,352.4766,1435.5,356.4766,1431.5,352.4766" style="stroke:#181818;stroke-width:1.0;"/><text fill="#000000" font-family="sans-serif" font-size="13" lengthAdjust="spacing" textLength="52" x="1431.5" y="334.6201">list floors</text><path d="M1495.5,322.125 L1495.5,364.125 L1616.5,364.125 L1616.5,332.125 L1606.5,322.125 L1495.5,322.125 " fill="#FEFFDD" style="stroke:#181818;stroke-width:0.5;"/><path d="M1606.5,322.125 L1606.5,332.125 L1616.5,332.125 L1606.5,322.125 " fill="#FEFFDD" style="stroke:#181818;stroke-width:0.5;"/><text fill="#000000" font-family="sans-serif" font-size="13" lengthAdjust="spacing" textLength="100" x="1501.5" y="340.6201">procedures in the</text><text fill="#000000" font-family="sans-serif" font-size="13" lengthAdjust="spacing" textLength="95" x="1501.5" y="356.9717">user story ID220</text><polygon fill="#181818" points="1287.5,388.1797,1277.5,392.1797,1287.5,396.1797,1283.5,392.1797" style="stroke:#181818;stroke-width:1.0;"/><line style="stroke:#181818;stroke-width:1.0;stroke-dasharray:2.0,2.0;" x1="1281.5" x2="1413.5" y1="392.1797" y2="392.1797"/><text fill="#000000" font-family="sans-serif" font-size="13" lengthAdjust="spacing" textLength="103" x="1293.5" y="387.3232">return list of floors</text><polygon fill="#181818" points="787,418.5313,777,422.5313,787,426.5313,783,422.5313" style="stroke:#181818;stroke-width:1.0;"/><line style="stroke:#181818;stroke-width:1.0;stroke-dasharray:2.0,2.0;" x1="781" x2="1265.5" y1="422.5313" y2="422.5313"/><text fill="#000000" font-family="sans-serif" font-size="13" lengthAdjust="spacing" textLength="103" x="793" y="417.6748">return list of floors</text><polygon fill="#181818" points="431,448.8828,421,452.8828,431,456.8828,427,452.8828" style="stroke:#181818;stroke-width:1.0;"/><line style="stroke:#181818;stroke-width:1.0;stroke-dasharray:2.0,2.0;" x1="425" x2="765" y1="452.8828" y2="452.8828"/><text fill="#000000" font-family="sans-serif" font-size="13" lengthAdjust="spacing" textLength="103" x="437" y="448.0264">return list of floors</text><polygon fill="#181818" points="256,479.2344,246,483.2344,256,487.2344,252,483.2344" style="stroke:#181818;stroke-width:1.0;"/><line style="stroke:#181818;stroke-width:1.0;stroke-dasharray:2.0,2.0;" x1="250" x2="409" y1="483.2344" y2="483.2344"/><text fill="#000000" font-family="sans-serif" font-size="13" lengthAdjust="spacing" textLength="66" x="262" y="478.3779">list of floors</text><polygon fill="#181818" points="79,509.5859,69,513.5859,79,517.5859,75,513.5859" style="stroke:#181818;stroke-width:1.0;"/><line style="stroke:#181818;stroke-width:1.0;stroke-dasharray:2.0,2.0;" x1="73" x2="234" y1="513.5859" y2="513.5859"/><text fill="#000000" font-family="sans-serif" font-size="13" lengthAdjust="spacing" textLength="100" x="85" y="508.7295">show list of floors</text><!--MD5=[624097d4fe5c11c59e050219196e2d35]
@startuml SD Lv3

!pragma teoz true

participant "Campus manager" as Campus
box "Campus Management UI" #LightBlue

    box "View"
        participant "HTML + CSS + JS" as html
        participant "Component" as component
    end box
    participant "Passage Service" as passageService
    participant "API Routes" as API_ROUTES
    participant "Http driver" as http

end box
participant "Campus Management API" as CampusAPI


Campus -> html : load route (buildingCode)
activate html

    html -> component : load floors with passages\nto diferent buildings
    activate component

        component -> passageService : listFloorsWithPassagesToDifferentBuilding(buildingCode)
        activate passageService

            passageService -> API_ROUTES : passage.listFloorsWithPassagesToDifferentBuilding(buildingCode)
            activate API_ROUTES

            API_ROUTES - -> passageService : api route
            deactivate API_ROUTES

            passageService -> http : get(api route)
            activate http

                http -> CampusAPI : send request
                activate CampusAPI

                    CampusAPI -> CampusAPI : list floors
                    note right : procedures in the\nuser story ID220
                    
                CampusAPI - -> http : return list of floors
                deactivate CampusAPI

            http - -> passageService : return list of floors
            deactivate http

        passageService - -> component : return list of floors
        deactivate passageService

    component - -> html : list of floors
    deactivate component

html - -> Campus : show list of floors
deactivate html


@enduml

PlantUML version 1.2022.7(Mon Aug 22 18:01:30 BST 2022)
(GPL source distribution)
Java Runtime: Java(TM) SE Runtime Environment
JVM: Java HotSpot(TM) 64-Bit Server VM
Default Encoding: Cp1252
Language: pt
Country: PT
--></g></svg>