<?xml version="1.0" encoding="UTF-8" standalone="no"?><svg xmlns="http://www.w3.org/2000/svg" xmlns:xlink="http://www.w3.org/1999/xlink" contentStyleType="text/css" height="576px" preserveAspectRatio="none" style="width:963px;height:576px;background:#FFFFFF;" version="1.1" viewBox="0 0 963 576" width="963px" zoomAndPan="magnify"><defs/><g><rect fill="#ADD8E6" height="564.1953" style="stroke:#181818;stroke-width:0.5;" width="517.5" x="125" y="6"/><text fill="#000000" font-family="sans-serif" font-size="13" font-weight="bold" lengthAdjust="spacing" textLength="136" x="315.75" y="19.4951">Fleet Management UI</text><rect fill="#DDDDDD" height="542.8438" style="stroke:#181818;stroke-width:0.5;" width="231" x="125" y="27.3516"/><text fill="#000000" font-family="sans-serif" font-size="13" font-weight="bold" lengthAdjust="spacing" textLength="32" x="224.5" y="40.8467">View</text><line style="stroke:#181818;stroke-width:0.5;stroke-dasharray:5.0,5.0;" x1="58" x2="58" y1="80.3125" y2="531.5859"/><line style="stroke:#181818;stroke-width:0.5;stroke-dasharray:5.0,5.0;" x1="192" x2="192" y1="80.3125" y2="531.5859"/><rect fill="#FFFFFF" height="402.9219" style="stroke:#181818;stroke-width:1.0;" width="10" x="187" y="110.6641"/><line style="stroke:#181818;stroke-width:0.5;stroke-dasharray:5.0,5.0;" x1="308.5" x2="308.5" y1="80.3125" y2="531.5859"/><rect fill="#FFFFFF" height="325.8672" style="stroke:#181818;stroke-width:1.0;" width="10" x="303.5" y="141.0156"/><line style="stroke:#181818;stroke-width:0.5;stroke-dasharray:5.0,5.0;" x1="412.5" x2="412.5" y1="80.3125" y2="531.5859"/><rect fill="#FFFFFF" height="265.1641" style="stroke:#181818;stroke-width:1.0;" width="10" x="407.5" y="171.3672"/><line style="stroke:#181818;stroke-width:0.5;stroke-dasharray:5.0,5.0;" x1="507.5" x2="507.5" y1="80.3125" y2="531.5859"/><rect fill="#FFFFFF" height="30.3516" style="stroke:#181818;stroke-width:1.0;" width="10" x="502.5" y="201.7188"/><line style="stroke:#181818;stroke-width:0.5;stroke-dasharray:5.0,5.0;" x1="599" x2="599" y1="80.3125" y2="531.5859"/><rect fill="#FFFFFF" height="143.7578" style="stroke:#181818;stroke-width:1.0;" width="10" x="594" y="262.4219"/><line style="stroke:#181818;stroke-width:0.5;stroke-dasharray:5.0,5.0;" x1="737" x2="737" y1="80.3125" y2="531.5859"/><rect fill="#FFFFFF" height="83.0547" style="stroke:#181818;stroke-width:1.0;" width="10" x="732" y="292.7734"/><rect fill="#E2E2F0" height="31.6094" rx="2.5" ry="2.5" style="stroke:#181818;stroke-width:0.5;" width="106" x="5" y="47.7031"/><text fill="#000000" font-family="sans-serif" font-size="14" lengthAdjust="spacing" textLength="92" x="12" y="69.2363">Fleet manager</text><rect fill="#E2E2F0" height="31.6094" rx="2.5" ry="2.5" style="stroke:#181818;stroke-width:0.5;" width="126" x="129" y="47.7031"/><text fill="#000000" font-family="sans-serif" font-size="14" lengthAdjust="spacing" textLength="112" x="136" y="69.2363">HTML + CSS + JS</text><rect fill="#E2E2F0" height="31.6094" rx="2.5" ry="2.5" style="stroke:#181818;stroke-width:0.5;" width="87" x="265" y="47.7031"/><text fill="#000000" font-family="sans-serif" font-size="14" lengthAdjust="spacing" textLength="73" x="272" y="69.2363">Component</text><rect fill="#E2E2F0" height="31.6094" rx="2.5" ry="2.5" style="stroke:#181818;stroke-width:0.5;" width="61" x="382" y="47.7031"/><text fill="#000000" font-family="sans-serif" font-size="14" lengthAdjust="spacing" textLength="47" x="389" y="69.2363">Service</text><rect fill="#E2E2F0" height="31.6094" rx="2.5" ry="2.5" style="stroke:#181818;stroke-width:0.5;" width="84" x="465.5" y="47.7031"/><text fill="#000000" font-family="sans-serif" font-size="14" lengthAdjust="spacing" textLength="70" x="472.5" y="69.2363">API Routes</text><rect fill="#E2E2F0" height="31.6094" rx="2.5" ry="2.5" style="stroke:#181818;stroke-width:0.5;" width="79" x="559.5" y="47.7031"/><text fill="#000000" font-family="sans-serif" font-size="14" lengthAdjust="spacing" textLength="65" x="566.5" y="69.2363">Http driver</text><rect fill="#E2E2F0" height="31.6094" rx="2.5" ry="2.5" style="stroke:#181818;stroke-width:0.5;" width="157" x="658.5" y="47.7031"/><text fill="#000000" font-family="sans-serif" font-size="14" lengthAdjust="spacing" textLength="143" x="665.5" y="69.2363">Fleet Management API</text><rect fill="#E2E2F0" height="31.6094" rx="2.5" ry="2.5" style="stroke:#181818;stroke-width:0.5;" width="106" x="5" y="531.5859"/><text fill="#000000" font-family="sans-serif" font-size="14" lengthAdjust="spacing" textLength="92" x="12" y="553.1191">Fleet manager</text><rect fill="#E2E2F0" height="31.6094" rx="2.5" ry="2.5" style="stroke:#181818;stroke-width:0.5;" width="126" x="129" y="531.5859"/><text fill="#000000" font-family="sans-serif" font-size="14" lengthAdjust="spacing" textLength="112" x="136" y="553.1191">HTML + CSS + JS</text><rect fill="#E2E2F0" height="31.6094" rx="2.5" ry="2.5" style="stroke:#181818;stroke-width:0.5;" width="87" x="265" y="531.5859"/><text fill="#000000" font-family="sans-serif" font-size="14" lengthAdjust="spacing" textLength="73" x="272" y="553.1191">Component</text><rect fill="#E2E2F0" height="31.6094" rx="2.5" ry="2.5" style="stroke:#181818;stroke-width:0.5;" width="61" x="382" y="531.5859"/><text fill="#000000" font-family="sans-serif" font-size="14" lengthAdjust="spacing" textLength="47" x="389" y="553.1191">Service</text><rect fill="#E2E2F0" height="31.6094" rx="2.5" ry="2.5" style="stroke:#181818;stroke-width:0.5;" width="84" x="465.5" y="531.5859"/><text fill="#000000" font-family="sans-serif" font-size="14" lengthAdjust="spacing" textLength="70" x="472.5" y="553.1191">API Routes</text><rect fill="#E2E2F0" height="31.6094" rx="2.5" ry="2.5" style="stroke:#181818;stroke-width:0.5;" width="79" x="559.5" y="531.5859"/><text fill="#000000" font-family="sans-serif" font-size="14" lengthAdjust="spacing" textLength="65" x="566.5" y="553.1191">Http driver</text><rect fill="#E2E2F0" height="31.6094" rx="2.5" ry="2.5" style="stroke:#181818;stroke-width:0.5;" width="157" x="658.5" y="531.5859"/><text fill="#000000" font-family="sans-serif" font-size="14" lengthAdjust="spacing" textLength="143" x="665.5" y="553.1191">Fleet Management API</text><polygon fill="#181818" points="175,106.6641,185,110.6641,175,114.6641,179,110.6641" style="stroke:#181818;stroke-width:1.0;"/><line style="stroke:#181818;stroke-width:1.0;" x1="58" x2="181" y1="110.6641" y2="110.6641"/><text fill="#000000" font-family="sans-serif" font-size="13" lengthAdjust="spacing" textLength="57" x="65" y="105.8076">load route</text><polygon fill="#181818" points="291.5,137.0156,301.5,141.0156,291.5,145.0156,295.5,141.0156" style="stroke:#181818;stroke-width:1.0;"/><line style="stroke:#181818;stroke-width:1.0;" x1="197" x2="297.5" y1="141.0156" y2="141.0156"/><text fill="#000000" font-family="sans-serif" font-size="13" lengthAdjust="spacing" textLength="81" x="204" y="136.1592">load all robots</text><polygon fill="#181818" points="395.5,167.3672,405.5,171.3672,395.5,175.3672,399.5,171.3672" style="stroke:#181818;stroke-width:1.0;"/><line style="stroke:#181818;stroke-width:1.0;" x1="313.5" x2="401.5" y1="171.3672" y2="171.3672"/><text fill="#000000" font-family="sans-serif" font-size="13" lengthAdjust="spacing" textLength="75" x="320.5" y="166.5107">get all robots</text><polygon fill="#181818" points="490.5,197.7188,500.5,201.7188,490.5,205.7188,494.5,201.7188" style="stroke:#181818;stroke-width:1.0;"/><line style="stroke:#181818;stroke-width:1.0;" x1="417.5" x2="496.5" y1="201.7188" y2="201.7188"/><text fill="#000000" font-family="sans-serif" font-size="13" lengthAdjust="spacing" textLength="66" x="424.5" y="196.8623">robot.getAll</text><polygon fill="#181818" points="428.5,228.0703,418.5,232.0703,428.5,236.0703,424.5,232.0703" style="stroke:#181818;stroke-width:1.0;"/><line style="stroke:#181818;stroke-width:1.0;stroke-dasharray:2.0,2.0;" x1="422.5" x2="501.5" y1="232.0703" y2="232.0703"/><text fill="#000000" font-family="sans-serif" font-size="13" lengthAdjust="spacing" textLength="50" x="434.5" y="227.2139">api route</text><polygon fill="#181818" points="582,258.4219,592,262.4219,582,266.4219,586,262.4219" style="stroke:#181818;stroke-width:1.0;"/><line style="stroke:#181818;stroke-width:1.0;" x1="417.5" x2="588" y1="262.4219" y2="262.4219"/><text fill="#000000" font-family="sans-serif" font-size="13" lengthAdjust="spacing" textLength="76" x="424.5" y="257.5654">get(api route)</text><polygon fill="#181818" points="720,288.7734,730,292.7734,720,296.7734,724,292.7734" style="stroke:#181818;stroke-width:1.0;"/><line style="stroke:#181818;stroke-width:1.0;" x1="604" x2="726" y1="292.7734" y2="292.7734"/><text fill="#000000" font-family="sans-serif" font-size="13" lengthAdjust="spacing" textLength="75" x="611" y="287.917">send request</text><line style="stroke:#181818;stroke-width:1.0;" x1="742" x2="784" y1="323.125" y2="323.125"/><line style="stroke:#181818;stroke-width:1.0;" x1="784" x2="784" y1="323.125" y2="336.125"/><line style="stroke:#181818;stroke-width:1.0;" x1="743" x2="784" y1="336.125" y2="336.125"/><polygon fill="#181818" points="753,332.125,743,336.125,753,340.125,749,336.125" style="stroke:#181818;stroke-width:1.0;"/><text fill="#000000" font-family="sans-serif" font-size="13" lengthAdjust="spacing" textLength="74" x="749" y="318.2686">list all robots</text><path d="M835,305.7734 L835,347.7734 L956,347.7734 L956,315.7734 L946,305.7734 L835,305.7734 " fill="#FEFFDD" style="stroke:#181818;stroke-width:0.5;"/><path d="M946,305.7734 L946,315.7734 L956,315.7734 L946,305.7734 " fill="#FEFFDD" style="stroke:#181818;stroke-width:0.5;"/><text fill="#000000" font-family="sans-serif" font-size="13" lengthAdjust="spacing" textLength="100" x="841" y="324.2686">procedures in the</text><text fill="#000000" font-family="sans-serif" font-size="13" lengthAdjust="spacing" textLength="95" x="841" y="340.6201">user story ID380</text><polygon fill="#181818" points="615,371.8281,605,375.8281,615,379.8281,611,375.8281" style="stroke:#181818;stroke-width:1.0;"/><line style="stroke:#181818;stroke-width:1.0;stroke-dasharray:2.0,2.0;" x1="609" x2="731" y1="375.8281" y2="375.8281"/><text fill="#000000" font-family="sans-serif" font-size="13" lengthAdjust="spacing" textLength="54" x="621" y="370.9717">return list</text><polygon fill="#181818" points="428.5,402.1797,418.5,406.1797,428.5,410.1797,424.5,406.1797" style="stroke:#181818;stroke-width:1.0;"/><line style="stroke:#181818;stroke-width:1.0;stroke-dasharray:2.0,2.0;" x1="422.5" x2="593" y1="406.1797" y2="406.1797"/><text fill="#000000" font-family="sans-serif" font-size="13" lengthAdjust="spacing" textLength="54" x="434.5" y="401.3232">return list</text><polygon fill="#181818" points="324.5,432.5313,314.5,436.5313,324.5,440.5313,320.5,436.5313" style="stroke:#181818;stroke-width:1.0;"/><line style="stroke:#181818;stroke-width:1.0;stroke-dasharray:2.0,2.0;" x1="318.5" x2="406.5" y1="436.5313" y2="436.5313"/><text fill="#000000" font-family="sans-serif" font-size="13" lengthAdjust="spacing" textLength="54" x="330.5" y="431.6748">return list</text><polygon fill="#181818" points="208,462.8828,198,466.8828,208,470.8828,204,466.8828" style="stroke:#181818;stroke-width:1.0;"/><line style="stroke:#181818;stroke-width:1.0;stroke-dasharray:2.0,2.0;" x1="202" x2="302.5" y1="466.8828" y2="466.8828"/><text fill="#000000" font-family="sans-serif" font-size="13" lengthAdjust="spacing" textLength="73" x="214" y="462.0264">return robots</text><polygon fill="#181818" points="69,509.5859,59,513.5859,69,517.5859,65,513.5859" style="stroke:#181818;stroke-width:1.0;"/><line style="stroke:#181818;stroke-width:1.0;stroke-dasharray:2.0,2.0;" x1="63" x2="186" y1="513.5859" y2="513.5859"/><text fill="#000000" font-family="sans-serif" font-size="13" lengthAdjust="spacing" textLength="105" x="75" y="492.3779">robot type created</text><text fill="#000000" font-family="sans-serif" font-size="13" lengthAdjust="spacing" textLength="72" x="75" y="508.7295">successfully</text><!--MD5=[da7cabf7f81f07e39b8cbaadc4723bf7]
@startuml SD Lv3

!pragma teoz true

participant "Fleet manager" as fleet
box "Fleet Management UI" #LightBlue

    box "View"
        participant "HTML + CSS + JS" as html
        participant "Component" as component
    end box
    participant "Service" as service
    participant "API Routes" as API_ROUTES
    participant "Http driver" as http

end box
participant "Fleet Management API" as fleetAPI


fleet -> html : load route
activate html

    html -> component : load all robots
    activate component

        component -> service : get all robots
        activate service

            service -> API_ROUTES : robot.getAll
            activate API_ROUTES

            API_ROUTES - -> service : api route
            deactivate API_ROUTES

            service -> http : get(api route)
            activate http

                http -> fleetAPI : send request
                activate fleetAPI

                    fleetAPI -> fleetAPI : list all robots
                    note right : procedures in the\nuser story ID380
                    
                fleetAPI - -> http : return list
                deactivate fleetAPI

            http - -> service : return list
            deactivate http

        service - -> component : return list
        deactivate service

    component - -> html : return robots
    deactivate component

html - -> fleet : robot type created\nsuccessfully
deactivate html


@enduml

PlantUML version 1.2022.7(Mon Aug 22 18:01:30 BST 2022)
(GPL source distribution)
Java Runtime: Java(TM) SE Runtime Environment
JVM: Java HotSpot(TM) 64-Bit Server VM
Default Encoding: Cp1252
Language: pt
Country: PT
--></g></svg>