<?xml version="1.0" encoding="UTF-8" standalone="no"?><svg xmlns="http://www.w3.org/2000/svg" xmlns:xlink="http://www.w3.org/1999/xlink" contentStyleType="text/css" height="405px" preserveAspectRatio="none" style="width:273px;height:405px;background:#FFFFFF;" version="1.1" viewBox="0 0 273 405" width="273px" zoomAndPan="magnify"><defs/><g><rect fill="#ADD8E6" height="393.7344" style="stroke:#181818;stroke-width:0.5;" width="208.5" x="59" y="6"/><text fill="#000000" font-family="sans-serif" font-size="13" font-weight="bold" lengthAdjust="spacing" textLength="81" x="122.75" y="19.4951">RobDroneGo</text><rect fill="#FFFFFF" height="254.8125" style="stroke:#181818;stroke-width:1.0;" width="10" x="134" y="91.3125"/><rect fill="#FFFFFF" height="30.3516" style="stroke:#181818;stroke-width:1.0;" width="10" x="242" y="121.6641"/><rect fill="#FFFFFF" height="30.3516" style="stroke:#181818;stroke-width:1.0;" width="10" x="242" y="285.4219"/><line style="stroke:#181818;stroke-width:0.5;stroke-dasharray:5.0,5.0;" x1="14" x2="14" y1="58.9609" y2="364.125"/><line style="stroke:#181818;stroke-width:0.5;stroke-dasharray:5.0,5.0;" x1="139" x2="139" y1="58.9609" y2="364.125"/><line style="stroke:#181818;stroke-width:0.5;stroke-dasharray:5.0,5.0;" x1="246.5" x2="246.5" y1="58.9609" y2="364.125"/><rect fill="#E2E2F0" height="31.6094" rx="2.5" ry="2.5" style="stroke:#181818;stroke-width:0.5;" width="18" x="5" y="26.3516"/><text fill="#000000" font-family="sans-serif" font-size="14" lengthAdjust="spacing" textLength="4" x="12" y="47.8848"> </text><rect fill="#E2E2F0" height="31.6094" rx="2.5" ry="2.5" style="stroke:#181818;stroke-width:0.5;" width="18" x="5" y="363.125"/><text fill="#000000" font-family="sans-serif" font-size="14" lengthAdjust="spacing" textLength="4" x="12" y="384.6582"> </text><rect fill="#E2E2F0" height="31.6094" rx="2.5" ry="2.5" style="stroke:#181818;stroke-width:0.5;" width="152" x="63" y="26.3516"/><text fill="#000000" font-family="sans-serif" font-size="14" lengthAdjust="spacing" textLength="138" x="70" y="47.8848">Campus Management</text><rect fill="#E2E2F0" height="31.6094" rx="2.5" ry="2.5" style="stroke:#181818;stroke-width:0.5;" width="152" x="63" y="363.125"/><text fill="#000000" font-family="sans-serif" font-size="14" lengthAdjust="spacing" textLength="138" x="70" y="384.6582">Campus Management</text><rect fill="#E2E2F0" height="31.6094" rx="2.5" ry="2.5" style="stroke:#181818;stroke-width:0.5;" width="33" x="230.5" y="26.3516"/><text fill="#000000" font-family="sans-serif" font-size="14" lengthAdjust="spacing" textLength="19" x="237.5" y="47.8848">DB</text><rect fill="#E2E2F0" height="31.6094" rx="2.5" ry="2.5" style="stroke:#181818;stroke-width:0.5;" width="33" x="230.5" y="363.125"/><text fill="#000000" font-family="sans-serif" font-size="14" lengthAdjust="spacing" textLength="19" x="237.5" y="384.6582">DB</text><rect fill="#FFFFFF" height="254.8125" style="stroke:#181818;stroke-width:1.0;" width="10" x="134" y="91.3125"/><rect fill="#FFFFFF" height="30.3516" style="stroke:#181818;stroke-width:1.0;" width="10" x="242" y="121.6641"/><rect fill="#FFFFFF" height="30.3516" style="stroke:#181818;stroke-width:1.0;" width="10" x="242" y="285.4219"/><ellipse cx="7.5" cy="90.5625" fill="none" rx="4" ry="4" style="stroke:#181818;stroke-width:1.5;"/><polygon fill="#181818" points="122,87.3125,132,91.3125,122,95.3125,126,91.3125" style="stroke:#181818;stroke-width:1.0;"/><line style="stroke:#181818;stroke-width:1.0;" x1="12" x2="128" y1="91.3125" y2="91.3125"/><text fill="#000000" font-family="sans-serif" font-size="13" lengthAdjust="spacing" textLength="107" x="15" y="86.4561">Post (elevator info)</text><polygon fill="#181818" points="230,117.6641,240,121.6641,230,125.6641,234,121.6641" style="stroke:#181818;stroke-width:1.0;"/><line style="stroke:#181818;stroke-width:1.0;" x1="144" x2="236" y1="121.6641" y2="121.6641"/><text fill="#000000" font-family="sans-serif" font-size="13" lengthAdjust="spacing" textLength="72" x="151" y="116.8076">load building</text><polygon fill="#181818" points="155,148.0156,145,152.0156,155,156.0156,151,152.0156" style="stroke:#181818;stroke-width:1.0;"/><line style="stroke:#181818;stroke-width:1.0;stroke-dasharray:2.0,2.0;" x1="149" x2="246" y1="152.0156" y2="152.0156"/><text fill="#000000" font-family="sans-serif" font-size="13" lengthAdjust="spacing" textLength="44" x="161" y="147.1592">building</text><line style="stroke:#181818;stroke-width:1.0;" x1="144" x2="186" y1="182.3672" y2="182.3672"/><line style="stroke:#181818;stroke-width:1.0;" x1="186" x2="186" y1="182.3672" y2="195.3672"/><line style="stroke:#181818;stroke-width:1.0;" x1="145" x2="186" y1="195.3672" y2="195.3672"/><polygon fill="#181818" points="155,191.3672,145,195.3672,155,199.3672,151,195.3672" style="stroke:#181818;stroke-width:1.0;"/><text fill="#000000" font-family="sans-serif" font-size="13" lengthAdjust="spacing" textLength="84" x="151" y="177.5107">create elevator</text><line style="stroke:#181818;stroke-width:1.0;" x1="144" x2="186" y1="242.0703" y2="242.0703"/><line style="stroke:#181818;stroke-width:1.0;" x1="186" x2="186" y1="242.0703" y2="255.0703"/><line style="stroke:#181818;stroke-width:1.0;" x1="145" x2="186" y1="255.0703" y2="255.0703"/><polygon fill="#181818" points="155,251.0703,145,255.0703,155,259.0703,151,255.0703" style="stroke:#181818;stroke-width:1.0;"/><text fill="#000000" font-family="sans-serif" font-size="13" lengthAdjust="spacing" textLength="69" x="151" y="220.8623">add elevator</text><text fill="#000000" font-family="sans-serif" font-size="13" lengthAdjust="spacing" textLength="59" x="151" y="237.2139">to building</text><polygon fill="#181818" points="230,281.4219,240,285.4219,230,289.4219,234,285.4219" style="stroke:#181818;stroke-width:1.0;"/><line style="stroke:#181818;stroke-width:1.0;" x1="144" x2="236" y1="285.4219" y2="285.4219"/><text fill="#000000" font-family="sans-serif" font-size="13" lengthAdjust="spacing" textLength="74" x="151" y="280.5654">save building</text><polygon fill="#181818" points="155,311.7734,145,315.7734,155,319.7734,151,315.7734" style="stroke:#181818;stroke-width:1.0;"/><line style="stroke:#181818;stroke-width:1.0;stroke-dasharray:2.0,2.0;" x1="149" x2="246" y1="315.7734" y2="315.7734"/><text fill="#000000" font-family="sans-serif" font-size="13" lengthAdjust="spacing" textLength="44" x="161" y="310.917">building</text><ellipse cx="7.5" cy="345.375" fill="none" rx="4" ry="4" style="stroke:#181818;stroke-width:1.5;"/><polygon fill="#181818" points="24.5,342.125,14.5,346.125,24.5,350.125,20.5,346.125" style="stroke:#181818;stroke-width:1.0;"/><ellipse cx="138.5" cy="345.375" fill="none" rx="4" ry="4" style="stroke:#181818;stroke-width:1.5;"/><line style="stroke:#181818;stroke-width:1.0;stroke-dasharray:2.0,2.0;" x1="22.5" x2="134" y1="346.125" y2="346.125"/><text fill="#000000" font-family="sans-serif" font-size="13" lengthAdjust="spacing" textLength="44" x="25" y="341.2686">building</text><!--MD5=[5f0ea0750dc2585f4762f0c8436522cf]
@startuml SD Lv2

participant " "
box "RobDroneGo" #LightBlue
    participant "Campus Management" as campus
    participant "DB" as DB
end box

[o-> campus : Post (elevator info)
activate campus

campus -> DB : load building
activate DB
DB - -> campus : building
deactivate DB

campus -> campus : create elevator
campus -> campus : add elevator\nto building

campus -> DB : save building
activate DB
DB - -> campus : building
deactivate DB

[o<- -o campus : building
deactivate campus

@enduml

PlantUML version 1.2022.7(Mon Aug 22 18:01:30 BST 2022)
(GPL source distribution)
Java Runtime: Java(TM) SE Runtime Environment
JVM: Java HotSpot(TM) 64-Bit Server VM
Default Encoding: Cp1252
Language: pt
Country: PT
--></g></svg>