<?xml version="1.0" encoding="UTF-8" standalone="no"?><svg xmlns="http://www.w3.org/2000/svg" xmlns:xlink="http://www.w3.org/1999/xlink" contentStyleType="text/css" height="918px" preserveAspectRatio="none" style="width:496px;height:918px;background:#FFFFFF;" version="1.1" viewBox="0 0 496 918" width="496px" zoomAndPan="magnify"><defs/><g><!--MD5=[6382fda4633d3737a57bd90999b909fb]
cluster campus--><g id="cluster_campus"><rect fill="#99DDFF" height="852" rx="2.5" ry="2.5" style="stroke:#181818;stroke-width:1.0;" width="483" x="7" y="60"/><rect fill="#99DDFF" height="10" style="stroke:#181818;stroke-width:1.0;" width="15" x="470" y="65"/><rect fill="#99DDFF" height="2" style="stroke:#181818;stroke-width:1.0;" width="4" x="468" y="67"/><rect fill="#99DDFF" height="2" style="stroke:#181818;stroke-width:1.0;" width="4" x="468" y="71"/><text fill="#000000" font-family="sans-serif" font-size="14" font-weight="bold" lengthAdjust="spacing" textLength="131" x="183" y="87.5332">Fleet Management</text></g><!--MD5=[a00b70601fc0f23814f5bc4fb9c1a59b]
cluster Framework And Drivers Layer--><g id="cluster_Framework And Drivers Layer"><path d="M33.5,104 L241.5,104 A3.75,3.75 0 0 1 244,106.5 L251,127.6094 L299.5,127.6094 A2.5,2.5 0 0 1 302,130.1094 L302,201.5 A2.5,2.5 0 0 1 299.5,204 L33.5,204 A2.5,2.5 0 0 1 31,201.5 L31,106.5 A2.5,2.5 0 0 1 33.5,104 " fill="#00FFFF" style="stroke:#000000;stroke-width:1.5;"/><line style="stroke:#000000;stroke-width:1.5;" x1="31" x2="251" y1="127.6094" y2="127.6094"/><text fill="#000000" font-family="sans-serif" font-size="14" font-weight="bold" lengthAdjust="spacing" textLength="207" x="35" y="120.5332">Framework And Drivers Layer</text></g><!--MD5=[25deb2d1fce5dd98d4c0c0d14c16086b]
cluster Interface Adapters Layer--><g id="cluster_Interface Adapters Layer"><path d="M164.5,332 L337.5,332 A3.75,3.75 0 0 1 340,334.5 L347,355.6094 L436.5,355.6094 A2.5,2.5 0 0 1 439,358.1094 L439,429.5 A2.5,2.5 0 0 1 436.5,432 L164.5,432 A2.5,2.5 0 0 1 162,429.5 L162,334.5 A2.5,2.5 0 0 1 164.5,332 " fill="#77FFAA" style="stroke:#000000;stroke-width:1.5;"/><line style="stroke:#000000;stroke-width:1.5;" x1="162" x2="347" y1="355.6094" y2="355.6094"/><text fill="#000000" font-family="sans-serif" font-size="14" font-weight="bold" lengthAdjust="spacing" textLength="172" x="166" y="348.5332">Interface Adapters Layer</text></g><!--MD5=[b8393d82f2444e332493eabe5d0dc1af]
cluster Application Business Rules--><g id="cluster_Application Business Rules"><path d="M169.5,560 L361.5,560 A3.75,3.75 0 0 1 364,562.5 L371,583.6094 L371.5,583.6094 A2.5,2.5 0 0 1 374,586.1094 L374,657.5 A2.5,2.5 0 0 1 371.5,660 L169.5,660 A2.5,2.5 0 0 1 167,657.5 L167,562.5 A2.5,2.5 0 0 1 169.5,560 " fill="#FF6666" style="stroke:#000000;stroke-width:1.5;"/><line style="stroke:#000000;stroke-width:1.5;" x1="167" x2="371" y1="583.6094" y2="583.6094"/><text fill="#000000" font-family="sans-serif" font-size="14" font-weight="bold" lengthAdjust="spacing" textLength="191" x="171" y="576.5332">Application Business Rules</text></g><!--MD5=[fdded0eb0050d8dc91ab4a1c8d8f2292]
cluster Enterprise Business Rules--><g id="cluster_Enterprise Business Rules"><path d="M233.5,788 L421.5,788 A3.75,3.75 0 0 1 424,790.5 L431,811.6094 L431.5,811.6094 A2.5,2.5 0 0 1 434,814.1094 L434,885.5 A2.5,2.5 0 0 1 431.5,888 L233.5,888 A2.5,2.5 0 0 1 231,885.5 L231,790.5 A2.5,2.5 0 0 1 233.5,788 " fill="#EEDDAA" style="stroke:#000000;stroke-width:1.5;"/><line style="stroke:#000000;stroke-width:1.5;" x1="231" x2="431" y1="811.6094" y2="811.6094"/><text fill="#000000" font-family="sans-serif" font-size="14" font-weight="bold" lengthAdjust="spacing" textLength="187" x="235" y="804.5332">Enterprise Business Rules</text></g><!--MD5=[5a3402b68d5bf050f68d5518987e333e]
entity PER_API--><g id="elem_PER_API"><ellipse cx="417" cy="278" fill="#F1F1F1" rx="8" ry="8" style="stroke:#181818;stroke-width:0.5;"/><text fill="#000000" font-family="sans-serif" font-size="14" lengthAdjust="spacing" textLength="99" x="367.5" y="309.5332">Persistence API</text></g><!--MD5=[ce3c832af00b05a00a51abc1b426ce28]
entity CRTL_API--><g id="elem_CRTL_API"><ellipse cx="74" cy="278" fill="#F1F1F1" rx="8" ry="8" style="stroke:#181818;stroke-width:0.5;"/><text fill="#000000" font-family="sans-serif" font-size="14" lengthAdjust="spacing" textLength="87" x="30.5" y="309.5332">Controller API</text></g><!--MD5=[da0ef23a9c816bd8c7b91fae44b58d63]
entity REPO_API--><g id="elem_REPO_API"><ellipse cx="369" cy="506" fill="#F1F1F1" rx="8" ry="8" style="stroke:#181818;stroke-width:0.5;"/><text fill="#000000" font-family="sans-serif" font-size="14" lengthAdjust="spacing" textLength="59" x="339.5" y="537.5332">Repo API</text></g><!--MD5=[30d85f3125b7a53865e5f4719123efb6]
entity APP_API--><g id="elem_APP_API"><ellipse cx="239" cy="506" fill="#F1F1F1" rx="8" ry="8" style="stroke:#181818;stroke-width:0.5;"/><text fill="#000000" font-family="sans-serif" font-size="14" lengthAdjust="spacing" textLength="101" x="188.5" y="537.5332">App Service API</text></g><!--MD5=[07a00e9f9694fcf0c9c28cac3f0a547a]
entity MODEL_API--><g id="elem_MODEL_API"><ellipse cx="332" cy="734" fill="#F1F1F1" rx="8" ry="8" style="stroke:#181818;stroke-width:0.5;"/><text fill="#000000" font-family="sans-serif" font-size="14" lengthAdjust="spacing" textLength="63" x="300.5" y="765.5332">Model API</text></g><!--MD5=[b06a3a4d51b9328e4175a01932b95be7]
entity DATA_API--><g id="elem_DATA_API"><ellipse cx="169" cy="278" fill="#F1F1F1" rx="8" ry="8" style="stroke:#181818;stroke-width:0.5;"/><text fill="#000000" font-family="sans-serif" font-size="14" lengthAdjust="spacing" textLength="97" x="120.5" y="309.5332">Data Model API</text></g><!--MD5=[4c532a2f71ebde4f3db08a6bedb73265]
entity DATA--><g id="elem_DATA"><rect fill="#99DDFF" height="47.6094" rx="2.5" ry="2.5" style="stroke:#181818;stroke-width:0.5;" width="112" x="213" y="254"/><rect fill="#99DDFF" height="10" style="stroke:#181818;stroke-width:0.5;" width="15" x="305" y="259"/><rect fill="#99DDFF" height="2" style="stroke:#181818;stroke-width:0.5;" width="4" x="303" y="261"/><rect fill="#99DDFF" height="2" style="stroke:#181818;stroke-width:0.5;" width="4" x="303" y="265"/><text fill="#000000" font-family="sans-serif" font-size="14" lengthAdjust="spacing" textLength="72" x="228" y="288.5332">Data Model</text></g><!--MD5=[03daee95c47d28e2008f8fcdb06be569]
entity DTO_API--><g id="elem_DTO_API"><ellipse cx="137" cy="506" fill="#F1F1F1" rx="8" ry="8" style="stroke:#181818;stroke-width:0.5;"/><text fill="#000000" font-family="sans-serif" font-size="14" lengthAdjust="spacing" textLength="55" x="109.5" y="537.5332">DTO API</text></g><!--MD5=[97de1061a0ab8445a0a4bfc3e13b8318]
entity DTO--><g id="elem_DTO"><rect fill="#99DDFF" height="47.6094" rx="2.5" ry="2.5" style="stroke:#181818;stroke-width:0.5;" width="70" x="23" y="482"/><rect fill="#99DDFF" height="10" style="stroke:#181818;stroke-width:0.5;" width="15" x="73" y="487"/><rect fill="#99DDFF" height="2" style="stroke:#181818;stroke-width:0.5;" width="4" x="71" y="489"/><rect fill="#99DDFF" height="2" style="stroke:#181818;stroke-width:0.5;" width="4" x="71" y="493"/><text fill="#000000" font-family="sans-serif" font-size="14" lengthAdjust="spacing" textLength="30" x="38" y="516.5332">DTO</text></g><!--MD5=[7a980fe5388f2c0b48dbfb0a8ec1f254]
entity Routing--><g id="elem_Routing"><rect fill="#99DDFF" height="47.6094" rx="2.5" ry="2.5" style="stroke:#181818;stroke-width:0.5;" width="89" x="47.5" y="140"/><rect fill="#99DDFF" height="10" style="stroke:#181818;stroke-width:0.5;" width="15" x="116.5" y="145"/><rect fill="#99DDFF" height="2" style="stroke:#181818;stroke-width:0.5;" width="4" x="114.5" y="147"/><rect fill="#99DDFF" height="2" style="stroke:#181818;stroke-width:0.5;" width="4" x="114.5" y="151"/><text fill="#000000" font-family="sans-serif" font-size="14" lengthAdjust="spacing" textLength="49" x="62.5" y="174.5332">Routing</text></g><!--MD5=[e7b4ba715b9378c57f39440bbe1913bc]
entity Persistence--><g id="elem_Persistence"><rect fill="#99DDFF" height="47.6094" rx="2.5" ry="2.5" style="stroke:#181818;stroke-width:0.5;" width="114" x="172" y="140"/><rect fill="#99DDFF" height="10" style="stroke:#181818;stroke-width:0.5;" width="15" x="266" y="145"/><rect fill="#99DDFF" height="2" style="stroke:#181818;stroke-width:0.5;" width="4" x="264" y="147"/><rect fill="#99DDFF" height="2" style="stroke:#181818;stroke-width:0.5;" width="4" x="264" y="151"/><text fill="#000000" font-family="sans-serif" font-size="14" lengthAdjust="spacing" textLength="74" x="187" y="174.5332">Persistence</text></g><!--MD5=[f855680bc6c989572ebb25245d27968d]
entity Controller--><g id="elem_Controller"><rect fill="#99DDFF" height="47.6094" rx="2.5" ry="2.5" style="stroke:#181818;stroke-width:0.5;" width="102" x="178" y="368"/><rect fill="#99DDFF" height="10" style="stroke:#181818;stroke-width:0.5;" width="15" x="260" y="373"/><rect fill="#99DDFF" height="2" style="stroke:#181818;stroke-width:0.5;" width="4" x="258" y="375"/><rect fill="#99DDFF" height="2" style="stroke:#181818;stroke-width:0.5;" width="4" x="258" y="379"/><text fill="#000000" font-family="sans-serif" font-size="14" lengthAdjust="spacing" textLength="62" x="193" y="402.5332">Controller</text></g><!--MD5=[4e260e4024c27e03c495c33059d2b5ff]
entity Repository--><g id="elem_Repository"><rect fill="#99DDFF" height="47.6094" rx="2.5" ry="2.5" style="stroke:#181818;stroke-width:0.5;" width="108" x="315" y="368"/><rect fill="#99DDFF" height="10" style="stroke:#181818;stroke-width:0.5;" width="15" x="403" y="373"/><rect fill="#99DDFF" height="2" style="stroke:#181818;stroke-width:0.5;" width="4" x="401" y="375"/><rect fill="#99DDFF" height="2" style="stroke:#181818;stroke-width:0.5;" width="4" x="401" y="379"/><text fill="#000000" font-family="sans-serif" font-size="14" lengthAdjust="spacing" textLength="68" x="330" y="402.5332">Repository</text></g><!--MD5=[e5b7da8fa23ec8cac7d321a34f6e9ee1]
entity Application--><g id="elem_Application"><rect fill="#99DDFF" height="47.6094" rx="2.5" ry="2.5" style="stroke:#181818;stroke-width:0.5;" width="167" x="186.5" y="596"/><rect fill="#99DDFF" height="10" style="stroke:#181818;stroke-width:0.5;" width="15" x="333.5" y="601"/><rect fill="#99DDFF" height="2" style="stroke:#181818;stroke-width:0.5;" width="4" x="331.5" y="603"/><rect fill="#99DDFF" height="2" style="stroke:#181818;stroke-width:0.5;" width="4" x="331.5" y="607"/><text fill="#000000" font-family="sans-serif" font-size="14" lengthAdjust="spacing" textLength="127" x="201.5" y="630.5332">Application Services</text></g><!--MD5=[2fb3fc8e03cad589fa238654c03a9f58]
entity Domain--><g id="elem_Domain"><rect fill="#99DDFF" height="47.6094" rx="2.5" ry="2.5" style="stroke:#181818;stroke-width:0.5;" width="130" x="267" y="824"/><rect fill="#99DDFF" height="10" style="stroke:#181818;stroke-width:0.5;" width="15" x="377" y="829"/><rect fill="#99DDFF" height="2" style="stroke:#181818;stroke-width:0.5;" width="4" x="375" y="831"/><rect fill="#99DDFF" height="2" style="stroke:#181818;stroke-width:0.5;" width="4" x="375" y="835"/><text fill="#000000" font-family="sans-serif" font-size="14" lengthAdjust="spacing" textLength="90" x="282" y="858.5332">Domain Model</text></g><!--MD5=[645d8587175d8f7ad110cd370775931d]
entity API--><g id="elem_API"><ellipse cx="116" cy="14" fill="#F1F1F1" rx="8" ry="8" style="stroke:#181818;stroke-width:0.5;"/><text fill="#000000" font-family="sans-serif" font-size="14" lengthAdjust="spacing" textLength="21" x="105.5" y="45.5332">API</text></g><!--MD5=[63743408f3629d57639022219c0253d4]
entity UI_API--><g id="elem_UI_API"><ellipse cx="27" cy="14" fill="#F1F1F1" rx="8" ry="8" style="stroke:#181818;stroke-width:0.5;"/><text fill="#000000" font-family="sans-serif" font-size="14" lengthAdjust="spacing" textLength="37" x="8.5" y="45.5332">UI API</text></g><!--MD5=[765522d02420a6f826548b3dddd5143a]
entity DMS--><g id="elem_DMS"><ellipse cx="229" cy="14" fill="#F1F1F1" rx="8" ry="8" style="stroke:#181818;stroke-width:0.5;"/><text fill="#000000" font-family="sans-serif" font-size="14" lengthAdjust="spacing" textLength="30" x="214" y="45.5332">DMS</text></g><!--MD5=[b9211db5413aa7321327bdf9c64a5720]
link DTO to DTO_API--><g id="link_DTO_DTO_API"><path d="M93.18,506 C104.71,506 116.23,506 127.76,506 " fill="none" id="DTO-DTO_API" style="stroke:#181818;stroke-width:1.0;"/></g><!--MD5=[675998b013e53b766f7e1814c9c0440e]
link DATA_API to DATA--><g id="link_DATA_API_DATA"><path d="M178.38,278 C189.82,278 201.27,278 212.71,278 " fill="none" id="DATA_API-DATA" style="stroke:#181818;stroke-width:1.0;"/></g><!--MD5=[376a6fe321f8dad670864a0c2e37a5fe]
link MODEL_API to Domain--><g id="link_MODEL_API_Domain"><path d="M332,743.05 C332,759.71 332,798.47 332,823.67 " fill="none" id="MODEL_API-Domain" style="stroke:#181818;stroke-width:1.0;"/></g><!--MD5=[b5edcff4c86c342ef2aaa92becfeb4f9]
link APP_API to Application--><g id="link_APP_API_Application"><path d="M241.23,515.05 C245.84,531.71 256.57,570.47 263.54,595.67 " fill="none" id="APP_API-Application" style="stroke:#181818;stroke-width:1.0;"/></g><!--MD5=[32f4a2c4880326d3f85dbc4351bde1d5]
link CRTL_API to Controller--><g id="link_CRTL_API_Controller"><path d="M83.23,285.67 C105.13,301.49 161.06,341.91 196.93,367.83 " fill="none" id="CRTL_API-Controller" style="stroke:#181818;stroke-width:1.0;"/></g><!--MD5=[3afd70cb235b5d7cdc57b21879f87716]
link Repository to REPO_API--><g id="link_Repository_REPO_API"><path d="M369,416.21 C369,437.1 369,467.41 369,486.66 " fill="none" id="Repository-to-REPO_API" style="stroke:#181818;stroke-width:1.0;"/><path d="M377.4572,493.7118 A9,9 0 0 0 360.5428 493.7118" fill="none" style="stroke:#181818;stroke-width:1.5;"/></g><!--MD5=[f44bba821150b15c29f75a64e99198ac]
link Persistence to PER_API--><g id="link_Persistence_PER_API"><path d="M267.95,188.21 C312.7,214.86 383.13,256.82 407.96,271.62 " fill="none" id="Persistence-PER_API" style="stroke:#181818;stroke-width:1.0;"/></g><!--MD5=[632be075b26105e52dc056da85a4d0cd]
link Application to MODEL_API--><g id="link_Application_MODEL_API"><path d="M282.85,644.21 C294.69,665.59 311.98,696.84 322.59,715.99 " fill="none" id="Application-to-MODEL_API" style="stroke:#181818;stroke-width:1.0;"/><path d="M333.3712,718.0035 A9,9 0 0 0 318.5694 726.1891" fill="none" style="stroke:#181818;stroke-width:1.5;"/></g><!--MD5=[15b255d6993b3ef8f4ee302a1cc04bd7]
link Repository to MODEL_API--><g id="link_Repository_MODEL_API"><path d="M389.73,416.12 C402.34,431.8 417.27,453.66 424,476 C431.69,501.53 429.15,509.83 424,536 C409.88,607.8 364.39,683.83 343.13,716.51 " fill="none" id="Repository-to-MODEL_API" style="stroke:#181818;stroke-width:1.0;"/><path d="M346.3527,726.9654 A9,9 0 0 0 332.2419 717.6387" fill="none" style="stroke:#181818;stroke-width:1.5;"/></g><!--MD5=[d84684af38c237a8f2be0e74076a364d]
link Controller to APP_API--><g id="link_Controller_APP_API"><path d="M231.07,416.21 C232.94,437.1 235.64,467.41 237.36,486.66 " fill="none" id="Controller-to-APP_API" style="stroke:#181818;stroke-width:1.0;"/><path d="M246.4212,492.9746 A9,9 0 0 0 229.5733 494.4733" fill="none" style="stroke:#181818;stroke-width:1.5;"/></g><!--MD5=[3154db2f39545300c1ea84ba831c44b5]
link Controller to DTO_API--><g id="link_Controller_DTO_API"><path d="M209.94,416.21 C192.05,437.99 165.76,469.99 150.11,489.04 " fill="none" id="Controller-to-DTO_API" style="stroke:#181818;stroke-width:1.0;"/><path d="M152.227,499.7852 A9,9 0 0 0 139.1639 489.0402" fill="none" style="stroke:#181818;stroke-width:1.5;"/></g><!--MD5=[9abfca17e66e51ff953688282b5727cf]
reverse link DTO_API to Application--><g id="link_DTO_API_Application"><path d="M150.47,523.06 C154.36,527.41 158.72,532.01 163,536 C186.4,557.79 215.13,579.85 236.93,595.75 " fill="none" id="DTO_API-backto-Application" style="stroke:#181818;stroke-width:1.0;"/><path d="M139.321,523.1028 A9,9 0 0 0 152.1087 512.0315" fill="none" style="stroke:#181818;stroke-width:1.5;"/></g><!--MD5=[0886370319163653f9d9646ed851a0db]
link Routing to CRTL_API--><g id="link_Routing_CRTL_API"><path d="M88.27,188.21 C84.91,209.1 80.04,239.41 76.95,258.66 " fill="none" id="Routing-to-CRTL_API" style="stroke:#181818;stroke-width:1.0;"/><path d="M84.1584,267.0921 A9,9 0 0 0 67.458 264.4094" fill="none" style="stroke:#181818;stroke-width:1.5;"/></g><!--MD5=[2c1e39a74aff03851f7cea9a1fc67396]
link REPO_API to Application--><g id="link_REPO_API_Application"><path d="M361.88,515.05 C347.16,531.71 312.9,570.47 290.63,595.67 " fill="none" id="REPO_API-Application" style="stroke:#181818;stroke-width:1.0;"/></g><!--MD5=[1f360e7a8a1d7a31d8a81e9ca079f5aa]
reverse link PER_API to Repository--><g id="link_PER_API_Repository"><path d="M409.57,296.34 C401.36,315.49 388.11,346.41 379,367.67 " fill="none" id="PER_API-backto-Repository" style="stroke:#181818;stroke-width:1.0;"/><path d="M404.5634,286.5596 A9,9 0 0 0 420.119 293.2021" fill="none" style="stroke:#181818;stroke-width:1.5;"/></g><!--MD5=[fa416516be9b3ef4d6a923f12e5f6311]
reverse link DATA_API to Repository--><g id="link_DATA_API_Repository"><path d="M180.22,295.35 C184.32,300.15 189.35,304.94 195,308 C235.72,330.09 256.39,303.63 298,324 C319.01,334.28 338,352.95 351.04,367.97 " fill="none" id="DATA_API-backto-Repository" style="stroke:#181818;stroke-width:1.0;"/><path d="M169.0385,294.6076 A9,9 0 0 0 182.5061 284.3742" fill="none" style="stroke:#181818;stroke-width:1.5;"/></g><!--MD5=[9ea5a6317d2b3062ab739d74ebe335f6]
link Persistence to DATA_API--><g id="link_Persistence_DATA_API"><path d="M216.57,188.21 C205.16,209.5 188.53,240.55 178.25,259.73 " fill="none" id="Persistence-to-DATA_API" style="stroke:#181818;stroke-width:1.0;"/><path d="M182.3093,270.0643 A9,9 0 0 0 167.3942 262.087" fill="none" style="stroke:#181818;stroke-width:1.5;"/></g><!--MD5=[5140373be9a7eb8e10e722af5777aac6]
reverse link DMS to Persistence--><g id="link_DMS_Persistence"><path d="M229,33.72 C229,60.7 229,110.48 229,139.77 " fill="none" id="DMS-backto-Persistence" style="stroke:#181818;stroke-width:1.0;"/><path d="M220.5428,26.4582 A9,9 0 0 0 237.4572 26.4582" fill="none" style="stroke:#181818;stroke-width:1.5;"/></g><!--MD5=[18da7eab31bf7aee7e47abfc552b5f0f]
link API to Routing--><g id="link_API_Routing"><path d="M114.64,23.38 C111.05,45.52 101.22,106.15 95.77,139.77 " fill="none" id="API-Routing" style="stroke:#181818;stroke-width:1.0;"/></g><!--MD5=[8a6b1aac21dd383c2d24dc340016d410]
link UI_API to Routing--><g id="link_UI_API_Routing"><path d="M30.68,23.38 C40.4,45.52 67.03,106.15 81.8,139.77 " fill="none" id="UI_API-Routing" style="stroke:#181818;stroke-width:1.0;"/></g><!--MD5=[4a707b23532ab04cf0942fd3e4e2832d]
@startuml LVL3_FleetManagement

<style>
component {
    BackgroundColor #99ddff
}
</style>

interface "API" as API
interface "UI API" as UI_API

component "Fleet Management" as campus{
    
    interface "Persistence API" as PER_API
    package "Framework And Drivers Layer" #00ffff {
        component Routing
        component Persistence
    }

    interface "Controller API" as CRTL_API
    interface "Repo API" as REPO_API
    package "Interface Adapters Layer" #77ffaa{
        component Controller
        component Repository
    }

    interface "App Service API" as APP_API
    package "Application Business Rules" #ff6666 {
        component "Application Services" as Application
    }

    interface "Model API" as MODEL_API
    package "Enterprise Business Rules" #eeddaa {
        component "Domain Model" as Domain
    }
    
    interface "Data Model API" as DATA_API
    component "Data Model" as DATA
    
    interface "DTO API" as DTO_API
    component "DTO" as DTO

    DTO -right- DTO_API
    DATA -left- DATA_API

    Domain -up- MODEL_API
    Application -up- APP_API
    Controller -up- CRTL_API
    Repository -down-( REPO_API
    Persistence -down- PER_API

    Application -down-( MODEL_API
    Repository -down-( MODEL_API

    Controller -down-( APP_API

    Controller -down-( DTO_API
    Application -up-( DTO_API

    Routing -down-( CRTL_API

    Application -up- REPO_API

    Repository -up-( PER_API

    Repository -up-( DATA_API
    Persistence -down-( DATA_API
    

}
Persistence -up-( DMS
Routing -up- API
Routing -up- UI_API



@enduml

PlantUML version 1.2022.7(Mon Aug 22 18:01:30 BST 2022)
(GPL source distribution)
Java Runtime: Java(TM) SE Runtime Environment
JVM: Java HotSpot(TM) Client VM
Default Encoding: Cp1252
Language: en
Country: US
--></g></svg>