<?xml version="1.0" encoding="UTF-8" standalone="no"?><svg xmlns="http://www.w3.org/2000/svg" xmlns:xlink="http://www.w3.org/1999/xlink" contentStyleType="text/css" height="614px" preserveAspectRatio="none" style="width:767px;height:614px;background:#FFFFFF;" version="1.1" viewBox="0 0 767 614" width="767px" zoomAndPan="magnify"><defs/><g><rect fill="#ADD8E6" height="602.1406" style="stroke:#181818;stroke-width:0.5;" width="496.5" x="264.5" y="6"/><text fill="#000000" font-family="sans-serif" font-size="13" font-weight="bold" lengthAdjust="spacing" textLength="131" x="447.25" y="19.4951">RobDroneGo System</text><rect fill="#FFFFFF" height="212.4609" style="stroke:#181818;stroke-width:1.0;" width="10" x="276.5" y="114.9609"/><rect fill="#FFFFFF" height="151.7578" style="stroke:#181818;stroke-width:1.0;" width="10" x="276.5" y="357.7734"/><rect fill="#FFFFFF" height="30.3516" style="stroke:#181818;stroke-width:1.0;" width="10" x="513.5" y="145.3125"/><rect fill="#FFFFFF" height="91.0547" style="stroke:#181818;stroke-width:1.0;" width="10" x="513.5" y="206.0156"/><rect fill="#FFFFFF" height="91.0547" style="stroke:#181818;stroke-width:1.0;" width="10" x="513.5" y="388.125"/><rect fill="#FFFFFF" height="30.3516" style="stroke:#181818;stroke-width:1.0;" width="10" x="735.5" y="236.3672"/><rect fill="#FFFFFF" height="30.3516" style="stroke:#181818;stroke-width:1.0;" width="10" x="735.5" y="418.4766"/><line style="stroke:#181818;stroke-width:0.5;stroke-dasharray:5.0,5.0;" x1="74" x2="74" y1="82.6094" y2="527.5313"/><line style="stroke:#181818;stroke-width:0.5;stroke-dasharray:5.0,5.0;" x1="281.5" x2="281.5" y1="82.6094" y2="527.5313"/><line style="stroke:#181818;stroke-width:0.5;stroke-dasharray:5.0,5.0;" x1="518.5" x2="518.5" y1="82.6094" y2="527.5313"/><line style="stroke:#181818;stroke-width:0.5;stroke-dasharray:5.0,5.0;" x1="740" x2="740" y1="82.6094" y2="527.5313"/><text fill="#000000" font-family="sans-serif" font-size="14" lengthAdjust="spacing" textLength="133" x="5" y="79.5332">System Administrator</text><ellipse cx="74.5" cy="13.5" fill="#E2E2F0" rx="8" ry="8" style="stroke:#181818;stroke-width:0.5;"/><path d="M74.5,21.5 L74.5,48.5 M61.5,29.5 L87.5,29.5 M74.5,48.5 L61.5,63.5 M74.5,48.5 L87.5,63.5 " fill="none" style="stroke:#181818;stroke-width:0.5;"/><text fill="#000000" font-family="sans-serif" font-size="14" lengthAdjust="spacing" textLength="133" x="5" y="541.0645">System Administrator</text><ellipse cx="74.5" cy="552.6406" fill="#E2E2F0" rx="8" ry="8" style="stroke:#181818;stroke-width:0.5;"/><path d="M74.5,560.6406 L74.5,587.6406 M61.5,568.6406 L87.5,568.6406 M74.5,587.6406 L61.5,602.6406 M74.5,587.6406 L87.5,602.6406 " fill="none" style="stroke:#181818;stroke-width:0.5;"/><rect fill="#E2E2F0" height="31.6094" rx="2.5" ry="2.5" style="stroke:#181818;stroke-width:0.5;" width="26" x="268.5" y="50"/><text fill="#000000" font-family="sans-serif" font-size="14" lengthAdjust="spacing" textLength="12" x="275.5" y="71.5332">UI</text><rect fill="#E2E2F0" height="31.6094" rx="2.5" ry="2.5" style="stroke:#181818;stroke-width:0.5;" width="26" x="268.5" y="526.5313"/><text fill="#000000" font-family="sans-serif" font-size="14" lengthAdjust="spacing" textLength="12" x="275.5" y="548.0645">UI</text><rect fill="#E2E2F0" height="49.2188" rx="2.5" ry="2.5" style="stroke:#181818;stroke-width:0.5;" width="96" x="470.5" y="32.3906"/><text fill="#000000" font-family="sans-serif" font-size="14" lengthAdjust="spacing" textLength="29" x="502" y="53.9238">User</text><text fill="#000000" font-family="sans-serif" font-size="14" lengthAdjust="spacing" textLength="82" x="477.5" y="71.5332">Management</text><rect fill="#E2E2F0" height="49.2188" rx="2.5" ry="2.5" style="stroke:#181818;stroke-width:0.5;" width="96" x="470.5" y="526.5313"/><text fill="#000000" font-family="sans-serif" font-size="14" lengthAdjust="spacing" textLength="29" x="502" y="548.0645">User</text><text fill="#000000" font-family="sans-serif" font-size="14" lengthAdjust="spacing" textLength="82" x="477.5" y="565.6738">Management</text><rect fill="#E2E2F0" height="31.6094" rx="2.5" ry="2.5" style="stroke:#181818;stroke-width:0.5;" width="33" x="724" y="50"/><text fill="#000000" font-family="sans-serif" font-size="14" lengthAdjust="spacing" textLength="19" x="731" y="71.5332">DB</text><rect fill="#E2E2F0" height="31.6094" rx="2.5" ry="2.5" style="stroke:#181818;stroke-width:0.5;" width="33" x="724" y="526.5313"/><text fill="#000000" font-family="sans-serif" font-size="14" lengthAdjust="spacing" textLength="19" x="731" y="548.0645">DB</text><rect fill="#FFFFFF" height="212.4609" style="stroke:#181818;stroke-width:1.0;" width="10" x="276.5" y="114.9609"/><rect fill="#FFFFFF" height="151.7578" style="stroke:#181818;stroke-width:1.0;" width="10" x="276.5" y="357.7734"/><rect fill="#FFFFFF" height="30.3516" style="stroke:#181818;stroke-width:1.0;" width="10" x="513.5" y="145.3125"/><rect fill="#FFFFFF" height="91.0547" style="stroke:#181818;stroke-width:1.0;" width="10" x="513.5" y="206.0156"/><rect fill="#FFFFFF" height="91.0547" style="stroke:#181818;stroke-width:1.0;" width="10" x="513.5" y="388.125"/><rect fill="#FFFFFF" height="30.3516" style="stroke:#181818;stroke-width:1.0;" width="10" x="735.5" y="236.3672"/><rect fill="#FFFFFF" height="30.3516" style="stroke:#181818;stroke-width:1.0;" width="10" x="735.5" y="418.4766"/><polygon fill="#181818" points="264.5,110.9609,274.5,114.9609,264.5,118.9609,268.5,114.9609" style="stroke:#181818;stroke-width:1.0;"/><line style="stroke:#181818;stroke-width:1.0;" x1="74.5" x2="270.5" y1="114.9609" y2="114.9609"/><text fill="#000000" font-family="sans-serif" font-size="13" lengthAdjust="spacing" textLength="183" x="81.5" y="110.1045">Go to /system/users SPA route</text><polygon fill="#181818" points="501.5,141.3125,511.5,145.3125,501.5,149.3125,505.5,145.3125" style="stroke:#181818;stroke-width:1.0;"/><line style="stroke:#181818;stroke-width:1.0;" x1="286.5" x2="507.5" y1="145.3125" y2="145.3125"/><text fill="#000000" font-family="sans-serif" font-size="13" lengthAdjust="spacing" textLength="195" x="293.5" y="140.4561">Verify user's role and permissions</text><polygon fill="#181818" points="297.5,171.6641,287.5,175.6641,297.5,179.6641,293.5,175.6641" style="stroke:#181818;stroke-width:1.0;"/><line style="stroke:#181818;stroke-width:1.0;stroke-dasharray:2.0,2.0;" x1="291.5" x2="517.5" y1="175.6641" y2="175.6641"/><text fill="#000000" font-family="sans-serif" font-size="13" lengthAdjust="spacing" textLength="126" x="303.5" y="170.8076">Permissions validated</text><polygon fill="#181818" points="501.5,202.0156,511.5,206.0156,501.5,210.0156,505.5,206.0156" style="stroke:#181818;stroke-width:1.0;"/><line style="stroke:#181818;stroke-width:1.0;" x1="286.5" x2="507.5" y1="206.0156" y2="206.0156"/><text fill="#000000" font-family="sans-serif" font-size="13" lengthAdjust="spacing" textLength="166" x="293.5" y="201.1592">Request list of system users</text><polygon fill="#181818" points="723.5,232.3672,733.5,236.3672,723.5,240.3672,727.5,236.3672" style="stroke:#181818;stroke-width:1.0;"/><line style="stroke:#181818;stroke-width:1.0;" x1="523.5" x2="729.5" y1="236.3672" y2="236.3672"/><text fill="#000000" font-family="sans-serif" font-size="13" lengthAdjust="spacing" textLength="71" x="530.5" y="231.5107">Query users</text><polygon fill="#181818" points="534.5,262.7188,524.5,266.7188,534.5,270.7188,530.5,266.7188" style="stroke:#181818;stroke-width:1.0;"/><line style="stroke:#181818;stroke-width:1.0;stroke-dasharray:2.0,2.0;" x1="528.5" x2="739.5" y1="266.7188" y2="266.7188"/><text fill="#000000" font-family="sans-serif" font-size="13" lengthAdjust="spacing" textLength="71" x="540.5" y="261.8623">List of users</text><polygon fill="#181818" points="297.5,293.0703,287.5,297.0703,297.5,301.0703,293.5,297.0703" style="stroke:#181818;stroke-width:1.0;"/><line style="stroke:#181818;stroke-width:1.0;stroke-dasharray:2.0,2.0;" x1="291.5" x2="517.5" y1="297.0703" y2="297.0703"/><text fill="#000000" font-family="sans-serif" font-size="13" lengthAdjust="spacing" textLength="71" x="303.5" y="292.2139">List of users</text><polygon fill="#181818" points="85.5,323.4219,75.5,327.4219,85.5,331.4219,81.5,327.4219" style="stroke:#181818;stroke-width:1.0;"/><line style="stroke:#181818;stroke-width:1.0;stroke-dasharray:2.0,2.0;" x1="79.5" x2="280.5" y1="327.4219" y2="327.4219"/><text fill="#000000" font-family="sans-serif" font-size="13" lengthAdjust="spacing" textLength="150" x="91.5" y="322.5654">Show list of system users</text><polygon fill="#181818" points="264.5,353.7734,274.5,357.7734,264.5,361.7734,268.5,357.7734" style="stroke:#181818;stroke-width:1.0;"/><line style="stroke:#181818;stroke-width:1.0;" x1="74.5" x2="270.5" y1="357.7734" y2="357.7734"/><text fill="#000000" font-family="sans-serif" font-size="13" lengthAdjust="spacing" textLength="172" x="81.5" y="352.917">Toggle 'isConfirmed' on a user</text><polygon fill="#181818" points="501.5,384.125,511.5,388.125,501.5,392.125,505.5,388.125" style="stroke:#181818;stroke-width:1.0;"/><line style="stroke:#181818;stroke-width:1.0;" x1="286.5" x2="507.5" y1="388.125" y2="388.125"/><text fill="#000000" font-family="sans-serif" font-size="13" lengthAdjust="spacing" textLength="208" x="293.5" y="383.2686">Request change confirmation status</text><polygon fill="#181818" points="723.5,414.4766,733.5,418.4766,723.5,422.4766,727.5,418.4766" style="stroke:#181818;stroke-width:1.0;"/><line style="stroke:#181818;stroke-width:1.0;" x1="523.5" x2="729.5" y1="418.4766" y2="418.4766"/><text fill="#000000" font-family="sans-serif" font-size="13" lengthAdjust="spacing" textLength="193" x="530.5" y="413.6201">Update user's confirmation status</text><polygon fill="#181818" points="534.5,444.8281,524.5,448.8281,534.5,452.8281,530.5,448.8281" style="stroke:#181818;stroke-width:1.0;"/><line style="stroke:#181818;stroke-width:1.0;stroke-dasharray:2.0,2.0;" x1="528.5" x2="739.5" y1="448.8281" y2="448.8281"/><text fill="#000000" font-family="sans-serif" font-size="13" lengthAdjust="spacing" textLength="162" x="540.5" y="443.9717">Confirmation status updated</text><polygon fill="#181818" points="297.5,475.1797,287.5,479.1797,297.5,483.1797,293.5,479.1797" style="stroke:#181818;stroke-width:1.0;"/><line style="stroke:#181818;stroke-width:1.0;stroke-dasharray:2.0,2.0;" x1="291.5" x2="517.5" y1="479.1797" y2="479.1797"/><text fill="#000000" font-family="sans-serif" font-size="13" lengthAdjust="spacing" textLength="162" x="303.5" y="474.3232">Confirmation status updated</text><polygon fill="#181818" points="85.5,505.5313,75.5,509.5313,85.5,513.5313,81.5,509.5313" style="stroke:#181818;stroke-width:1.0;"/><line style="stroke:#181818;stroke-width:1.0;stroke-dasharray:2.0,2.0;" x1="79.5" x2="280.5" y1="509.5313" y2="509.5313"/><text fill="#000000" font-family="sans-serif" font-size="13" lengthAdjust="spacing" textLength="162" x="91.5" y="504.6748">Confirmation status updated</text><!--MD5=[a38da7b7d9cc2fbac904887f3575fc7c]
@startuml SD Lv2

actor "System Administrator" as user
box "RobDroneGo System" #LightBlue
    participant "UI" as UI
    participant "User \nManagement" as UserModule
    participant "DB" as DB
end box

user -> UI : Go to /system/users SPA route

activate UI
UI -> UserModule : Verify user's role and permissions
activate UserModule
UserModule - -> UI : Permissions validated
deactivate UserModule
UI -> UserModule : Request list of system users
activate UserModule
UserModule -> DB : Query users
activate DB
DB - -> UserModule : List of users
deactivate DB
UserModule - -> UI : List of users
deactivate UserModule
UI - -> user : Show list of system users
deactivate UI

user -> UI : Toggle 'isConfirmed' on a user
activate UI
UI -> UserModule : Request change confirmation status
activate UserModule
UserModule -> DB : Update user's confirmation status
activate DB
DB - -> UserModule : Confirmation status updated
deactivate DB
UserModule - -> UI : Confirmation status updated
deactivate UserModule
UI - -> user : Confirmation status updated
deactivate UI

@enduml

PlantUML version 1.2022.7(Mon Aug 22 18:01:30 BST 2022)
(GPL source distribution)
Java Runtime: Java(TM) SE Runtime Environment
JVM: Java HotSpot(TM) Client VM
Default Encoding: Cp1252
Language: en
Country: US
--></g></svg>