<?xml version="1.0" encoding="UTF-8" standalone="no"?><svg xmlns="http://www.w3.org/2000/svg" xmlns:xlink="http://www.w3.org/1999/xlink" contentStyleType="text/css" height="305px" preserveAspectRatio="none" style="width:400px;height:305px;background:#FFFFFF;" version="1.1" viewBox="0 0 400 305" width="400px" zoomAndPan="magnify"><defs/><g><rect fill="#FFFFFF" height="90.0547" style="stroke:#181818;stroke-width:1.0;" width="10" x="276.5" y="114.9609"/><line style="stroke:#181818;stroke-width:0.5;stroke-dasharray:5.0,5.0;" x1="74" x2="74" y1="82.6094" y2="223.0156"/><line style="stroke:#181818;stroke-width:0.5;stroke-dasharray:5.0,5.0;" x1="281.5" x2="281.5" y1="82.6094" y2="223.0156"/><text fill="#000000" font-family="sans-serif" font-size="14" lengthAdjust="spacing" textLength="133" x="5" y="79.5332">System Administrator</text><ellipse cx="74.5" cy="13.5" fill="#E2E2F0" rx="8" ry="8" style="stroke:#181818;stroke-width:0.5;"/><path d="M74.5,21.5 L74.5,48.5 M61.5,29.5 L87.5,29.5 M74.5,48.5 L61.5,63.5 M74.5,48.5 L87.5,63.5 " fill="none" style="stroke:#181818;stroke-width:0.5;"/><text fill="#000000" font-family="sans-serif" font-size="14" lengthAdjust="spacing" textLength="133" x="5" y="236.5488">System Administrator</text><ellipse cx="74.5" cy="248.125" fill="#E2E2F0" rx="8" ry="8" style="stroke:#181818;stroke-width:0.5;"/><path d="M74.5,256.125 L74.5,283.125 M61.5,264.125 L87.5,264.125 M74.5,283.125 L61.5,298.125 M74.5,283.125 L87.5,298.125 " fill="none" style="stroke:#181818;stroke-width:0.5;"/><rect fill="#E2E2F0" height="31.6094" rx="2.5" ry="2.5" style="stroke:#181818;stroke-width:0.5;" width="98" x="232.5" y="50"/><text fill="#000000" font-family="sans-serif" font-size="14" lengthAdjust="spacing" textLength="84" x="239.5" y="71.5332">RobDroneGo</text><rect fill="#E2E2F0" height="31.6094" rx="2.5" ry="2.5" style="stroke:#181818;stroke-width:0.5;" width="98" x="232.5" y="222.0156"/><text fill="#000000" font-family="sans-serif" font-size="14" lengthAdjust="spacing" textLength="84" x="239.5" y="243.5488">RobDroneGo</text><rect fill="#FFFFFF" height="90.0547" style="stroke:#181818;stroke-width:1.0;" width="10" x="276.5" y="114.9609"/><polygon fill="#181818" points="264.5,110.9609,274.5,114.9609,264.5,118.9609,268.5,114.9609" style="stroke:#181818;stroke-width:1.0;"/><line style="stroke:#181818;stroke-width:1.0;" x1="74.5" x2="270.5" y1="114.9609" y2="114.9609"/><text fill="#000000" font-family="sans-serif" font-size="13" lengthAdjust="spacing" textLength="183" x="81.5" y="110.1045">Go to /system/users SPA route</text><line style="stroke:#181818;stroke-width:1.0;" x1="286.5" x2="328.5" y1="161.6641" y2="161.6641"/><line style="stroke:#181818;stroke-width:1.0;" x1="328.5" x2="328.5" y1="161.6641" y2="174.6641"/><line style="stroke:#181818;stroke-width:1.0;" x1="287.5" x2="328.5" y1="174.6641" y2="174.6641"/><polygon fill="#181818" points="297.5,170.6641,287.5,174.6641,297.5,178.6641,293.5,174.6641" style="stroke:#181818;stroke-width:1.0;"/><text fill="#000000" font-family="sans-serif" font-size="13" lengthAdjust="spacing" textLength="100" x="293.5" y="140.4561">Check user's role</text><text fill="#000000" font-family="sans-serif" font-size="13" lengthAdjust="spacing" textLength="95" x="293.5" y="156.8076">and permissions</text><polygon fill="#181818" points="85.5,201.0156,75.5,205.0156,85.5,209.0156,81.5,205.0156" style="stroke:#181818;stroke-width:1.0;"/><line style="stroke:#181818;stroke-width:1.0;stroke-dasharray:2.0,2.0;" x1="79.5" x2="280.5" y1="205.0156" y2="205.0156"/><text fill="#000000" font-family="sans-serif" font-size="13" lengthAdjust="spacing" textLength="150" x="91.5" y="200.1592">Show list of system users</text><!--MD5=[ad3225fe23aa481bcdaa767332863770]
@startuml SD Lv1

actor "System Administrator" as user
participant RobDroneGo as system

user -> system : Go to /system/users SPA route
activate  system

system -> system : Check user's role\nand permissions

user <- - system : Show list of system users

deactivate system

@enduml

PlantUML version 1.2022.7(Mon Aug 22 18:01:30 BST 2022)
(GPL source distribution)
Java Runtime: Java(TM) SE Runtime Environment
JVM: Java HotSpot(TM) Client VM
Default Encoding: Cp1252
Language: en
Country: US
--></g></svg>