<?xml version="1.0" encoding="UTF-8" standalone="no"?><svg xmlns="http://www.w3.org/2000/svg" xmlns:xlink="http://www.w3.org/1999/xlink" contentStyleType="text/css" height="1232px" preserveAspectRatio="none" style="width:2064px;height:1232px;background:#FFFFFF;" version="1.1" viewBox="0 0 2064 1232" width="2064px" zoomAndPan="magnify"><defs/><g><!--MD5=[8a509646a725e4b29ac3346bf48b9d0c]
cluster local--><g id="cluster_local"><polygon fill="#99DDFF" points="411,16,421,6,567,6,567,185,557,195,411,195,411,16" style="stroke:#181818;stroke-width:1.0;"/><line style="stroke:#181818;stroke-width:1.0;" x1="557" x2="567" y1="16" y2="6"/><line style="stroke:#181818;stroke-width:1.0;" x1="411" x2="557" y1="16" y2="16"/><line style="stroke:#181818;stroke-width:1.0;" x1="557" x2="557" y1="16" y2="195"/><text fill="#000000" font-family="sans-serif" font-size="14" font-weight="bold" lengthAdjust="spacing" textLength="39" x="465.5" y="33.5332">client</text></g><!--MD5=[8699c0c8e953ee53654a072cc875bfb4]
cluster Browser--><g id="cluster_Browser"><rect fill="#99DDFF" height="100" rx="2.5" ry="2.5" style="stroke:#181818;stroke-width:1.0;" width="84" x="451" y="63"/><rect fill="#99DDFF" height="10" style="stroke:#181818;stroke-width:1.0;" width="15" x="515" y="68"/><rect fill="#99DDFF" height="2" style="stroke:#181818;stroke-width:1.0;" width="4" x="513" y="70"/><rect fill="#99DDFF" height="2" style="stroke:#181818;stroke-width:1.0;" width="4" x="513" y="74"/><text fill="#000000" font-family="sans-serif" font-size="14" font-weight="bold" lengthAdjust="spacing" textLength="59" x="463.5" y="90.5332">Browser</text></g><!--MD5=[da1343c312cc520ff5027d899b18df0c]
cluster server1--><g id="cluster_server1"><polygon fill="#99DDFF" points="16,540,26,530,262,530,262,867.5,252,877.5,16,877.5,16,540" style="stroke:#181818;stroke-width:1.0;"/><line style="stroke:#181818;stroke-width:1.0;" x1="252" x2="262" y1="540" y2="530"/><line style="stroke:#181818;stroke-width:1.0;" x1="16" x2="252" y1="540" y2="540"/><line style="stroke:#181818;stroke-width:1.0;" x1="252" x2="252" y1="540" y2="877.5"/><text fill="#000000" font-family="sans-serif" font-size="14" font-weight="bold" lengthAdjust="spacing" textLength="128" x="71" y="557.5332">cluster server1:80</text></g><!--MD5=[6446fa30aa650be1d41573f8a65b8169]
cluster ui1--><g id="cluster_ui1"><rect fill="#99DDFF" height="258.5" rx="2.5" ry="2.5" style="stroke:#181818;stroke-width:1.0;" width="174" x="48" y="587"/><rect fill="#99DDFF" height="10" style="stroke:#181818;stroke-width:1.0;" width="15" x="202" y="592"/><rect fill="#99DDFF" height="2" style="stroke:#181818;stroke-width:1.0;" width="4" x="200" y="594"/><rect fill="#99DDFF" height="2" style="stroke:#181818;stroke-width:1.0;" width="4" x="200" y="598"/><text fill="#000000" font-family="sans-serif" font-size="14" font-weight="bold" lengthAdjust="spacing" textLength="14" x="128" y="614.5332">UI</text></g><!--MD5=[a9c83c87e0eb36f75a71543853428e21]
cluster server2--><g id="cluster_server2"><polygon fill="#99DDFF" points="348,540,358,530,594,530,594,867.5,584,877.5,348,877.5,348,540" style="stroke:#181818;stroke-width:1.0;"/><line style="stroke:#181818;stroke-width:1.0;" x1="584" x2="594" y1="540" y2="530"/><line style="stroke:#181818;stroke-width:1.0;" x1="348" x2="584" y1="540" y2="540"/><line style="stroke:#181818;stroke-width:1.0;" x1="584" x2="584" y1="540" y2="877.5"/><text fill="#000000" font-family="sans-serif" font-size="14" font-weight="bold" lengthAdjust="spacing" textLength="128" x="403" y="557.5332">cluster server2:80</text></g><!--MD5=[f429a095ac81c7457c20324de7650113]
cluster ui2--><g id="cluster_ui2"><rect fill="#99DDFF" height="258.5" rx="2.5" ry="2.5" style="stroke:#181818;stroke-width:1.0;" width="174" x="380" y="587"/><rect fill="#99DDFF" height="10" style="stroke:#181818;stroke-width:1.0;" width="15" x="534" y="592"/><rect fill="#99DDFF" height="2" style="stroke:#181818;stroke-width:1.0;" width="4" x="532" y="594"/><rect fill="#99DDFF" height="2" style="stroke:#181818;stroke-width:1.0;" width="4" x="532" y="598"/><text fill="#000000" font-family="sans-serif" font-size="14" font-weight="bold" lengthAdjust="spacing" textLength="14" x="460" y="614.5332">UI</text></g><!--MD5=[cab17a09d23fc61601dce9ed7286e19b]
cluster server3--><g id="cluster_server3"><polygon fill="#99DDFF" points="634,746,644,736,1667,736,1667,1061,1657,1071,634,1071,634,746" style="stroke:#181818;stroke-width:1.0;"/><line style="stroke:#181818;stroke-width:1.0;" x1="1657" x2="1667" y1="746" y2="736"/><line style="stroke:#181818;stroke-width:1.0;" x1="634" x2="1657" y1="746" y2="746"/><line style="stroke:#181818;stroke-width:1.0;" x1="1657" x2="1657" y1="746" y2="1071"/><text fill="#000000" font-family="sans-serif" font-size="14" font-weight="bold" lengthAdjust="spacing" textLength="91" x="1101" y="763.5332">server3:4000</text></g><!--MD5=[712b83cd5dd2a1f2db4c480698e73b7c]
cluster server4--><g id="cluster_server4"><polygon fill="#99DDFF" points="1707,540,1717,530,2047,530,2047,867.5,2037,877.5,1707,877.5,1707,540" style="stroke:#181818;stroke-width:1.0;"/><line style="stroke:#181818;stroke-width:1.0;" x1="2037" x2="2047" y1="540" y2="530"/><line style="stroke:#181818;stroke-width:1.0;" x1="1707" x2="2037" y1="540" y2="540"/><line style="stroke:#181818;stroke-width:1.0;" x1="2037" x2="2037" y1="540" y2="877.5"/><text fill="#000000" font-family="sans-serif" font-size="14" font-weight="bold" lengthAdjust="spacing" textLength="91" x="1827.5" y="557.5332">server4:4400</text></g><!--MD5=[b643d504dac5da8229759e8d683f567c]
cluster planning--><g id="cluster_planning"><rect fill="#99DDFF" height="258.5" rx="2.5" ry="2.5" style="stroke:#181818;stroke-width:1.0;" width="268" x="1747" y="587"/><rect fill="#99DDFF" height="10" style="stroke:#181818;stroke-width:1.0;" width="15" x="1995" y="592"/><rect fill="#99DDFF" height="2" style="stroke:#181818;stroke-width:1.0;" width="4" x="1993" y="594"/><rect fill="#99DDFF" height="2" style="stroke:#181818;stroke-width:1.0;" width="4" x="1993" y="598"/><text fill="#000000" font-family="sans-serif" font-size="14" font-weight="bold" lengthAdjust="spacing" textLength="118" x="1822" y="614.5332">Planning Module</text></g><!--MD5=[10e7aed38d998cc13ec8524fa7c99f6f]
cluster DMS--><g id="cluster_DMS"><path d="M1707,953.5 C1707,943.5 1818.5,943.5 1818.5,943.5 C1818.5,943.5 1930,943.5 1930,953.5 L1930,1205 C1930,1215 1818.5,1215 1818.5,1215 C1818.5,1215 1707,1215 1707,1205 L1707,953.5 " fill="#99DDFF" style="stroke:#181818;stroke-width:1.0;"/><path d="M1707,953.5 C1707,963.5 1818.5,963.5 1818.5,963.5 C1818.5,963.5 1930,963.5 1930,953.5 " fill="none" style="stroke:#181818;stroke-width:1.0;"/><text fill="#000000" font-family="sans-serif" font-size="14" font-weight="bold" lengthAdjust="spacing" textLength="32" x="1802.5" y="980.0332">DMS</text></g><!--MD5=[bf1b4add2ee2e1b53e65912b20fb7ef4]
entity ui--><g id="elem_ui"><rect fill="#99DDFF" height="47.6094" rx="2.5" ry="2.5" style="stroke:#181818;stroke-width:0.5;" width="52" x="467" y="99"/><rect fill="#99DDFF" height="10" style="stroke:#181818;stroke-width:0.5;" width="15" x="499" y="104"/><rect fill="#99DDFF" height="2" style="stroke:#181818;stroke-width:0.5;" width="4" x="497" y="106"/><rect fill="#99DDFF" height="2" style="stroke:#181818;stroke-width:0.5;" width="4" x="497" y="110"/><text fill="#000000" font-family="sans-serif" font-size="14" lengthAdjust="spacing" textLength="12" x="482" y="133.5332">UI</text></g><!--MD5=[a3b6e82a564b0c1f96fe5061f9deda86]
entity DeiVpnGateway--><g id="elem_DeiVpnGateway"><polygon fill="#99DDFF" points="319,277,329,267,519,267,519,304.6094,509,314.6094,319,314.6094,319,277" style="stroke:#181818;stroke-width:0.5;"/><line style="stroke:#181818;stroke-width:0.5;" x1="509" x2="519" y1="277" y2="267"/><line style="stroke:#181818;stroke-width:0.5;" x1="319" x2="509" y1="277" y2="277"/><line style="stroke:#181818;stroke-width:0.5;" x1="509" x2="509" y1="277" y2="314.6094"/><text fill="#000000" font-family="sans-serif" font-size="14" lengthAdjust="spacing" textLength="160" x="334" y="301.5332">DEI VPN Gateway:80/443</text></g><!--MD5=[c05fcadc036a699206cfdfa4a4fdb889]
entity controller--><g id="elem_controller"><polygon fill="#99DDFF" points="344.5,403,354.5,393,493.5,393,493.5,448.2188,483.5,458.2188,344.5,458.2188,344.5,403" style="stroke:#181818;stroke-width:0.5;"/><line style="stroke:#181818;stroke-width:0.5;" x1="483.5" x2="493.5" y1="403" y2="393"/><line style="stroke:#181818;stroke-width:0.5;" x1="344.5" x2="483.5" y1="403" y2="403"/><line style="stroke:#181818;stroke-width:0.5;" x1="483.5" x2="483.5" y1="403" y2="458.2188"/><text fill="#000000" font-family="sans-serif" font-size="14" lengthAdjust="spacing" textLength="105" x="359.5" y="427.5332">cluster controller</text><text fill="#000000" font-family="sans-serif" font-size="14" lengthAdjust="spacing" textLength="88" x="359.5" y="445.1426">server:80/443</text></g><!--MD5=[3d098108c22956cc48f2af11d1845fc9]
entity a_ui1--><g id="elem_a_ui1"><rect fill="#99DDFF" height="40.6094" rx="2.5" ry="2.5" style="stroke:#181818;stroke-width:0.5;" width="105" x="82.5" y="623"/><polygon fill="#99DDFF" points="170.5,628,170.5,642,182.5,642,182.5,634,176.5,628,170.5,628" style="stroke:#181818;stroke-width:0.5;"/><line style="stroke:#181818;stroke-width:0.5;" x1="176.5" x2="176.5" y1="628" y2="634"/><line style="stroke:#181818;stroke-width:0.5;" x1="182.5" x2="176.5" y1="634" y2="634"/><text fill="#000000" font-family="sans-serif" font-size="14" lengthAdjust="spacing" textLength="75" x="92.5" y="650.5332">«artifact» UI</text></g><!--MD5=[0447b257df7cff2c3d1cef6fa0a4d263]
entity c_ui1--><g id="elem_c_ui1"><rect fill="#99DDFF" height="47.6094" rx="2.5" ry="2.5" style="stroke:#181818;stroke-width:0.5;" width="142" x="64" y="781.5"/><rect fill="#99DDFF" height="10" style="stroke:#181818;stroke-width:0.5;" width="15" x="186" y="786.5"/><rect fill="#99DDFF" height="2" style="stroke:#181818;stroke-width:0.5;" width="4" x="184" y="788.5"/><rect fill="#99DDFF" height="2" style="stroke:#181818;stroke-width:0.5;" width="4" x="184" y="792.5"/><text fill="#000000" font-family="sans-serif" font-size="14" lengthAdjust="spacing" textLength="102" x="79" y="816.0332">«component» UI</text></g><!--MD5=[ed203a727f1167b5856680be41649141]
entity a_ui2--><g id="elem_a_ui2"><rect fill="#99DDFF" height="40.6094" rx="2.5" ry="2.5" style="stroke:#181818;stroke-width:0.5;" width="105" x="414.5" y="623"/><polygon fill="#99DDFF" points="502.5,628,502.5,642,514.5,642,514.5,634,508.5,628,502.5,628" style="stroke:#181818;stroke-width:0.5;"/><line style="stroke:#181818;stroke-width:0.5;" x1="508.5" x2="508.5" y1="628" y2="634"/><line style="stroke:#181818;stroke-width:0.5;" x1="514.5" x2="508.5" y1="634" y2="634"/><text fill="#000000" font-family="sans-serif" font-size="14" lengthAdjust="spacing" textLength="75" x="424.5" y="650.5332">«artifact» UI</text></g><!--MD5=[09d7b14187385bff4397e500f55e5a98]
entity c_ui2--><g id="elem_c_ui2"><rect fill="#99DDFF" height="47.6094" rx="2.5" ry="2.5" style="stroke:#181818;stroke-width:0.5;" width="142" x="396" y="781.5"/><rect fill="#99DDFF" height="10" style="stroke:#181818;stroke-width:0.5;" width="15" x="518" y="786.5"/><rect fill="#99DDFF" height="2" style="stroke:#181818;stroke-width:0.5;" width="4" x="516" y="788.5"/><rect fill="#99DDFF" height="2" style="stroke:#181818;stroke-width:0.5;" width="4" x="516" y="792.5"/><text fill="#000000" font-family="sans-serif" font-size="14" lengthAdjust="spacing" textLength="102" x="411" y="816.0332">«component» UI</text></g><!--MD5=[21f5c52b2cd06c3864764fccdea43e13]
entity a_fleet--><g id="elem_a_fleet"><rect fill="#99DDFF" height="40.6094" rx="2.5" ry="2.5" style="stroke:#181818;stroke-width:0.5;" width="211" x="924.5" y="785"/><polygon fill="#99DDFF" points="1118.5,790,1118.5,804,1130.5,804,1130.5,796,1124.5,790,1118.5,790" style="stroke:#181818;stroke-width:0.5;"/><line style="stroke:#181818;stroke-width:0.5;" x1="1124.5" x2="1124.5" y1="790" y2="796"/><line style="stroke:#181818;stroke-width:0.5;" x1="1130.5" x2="1124.5" y1="796" y2="796"/><text fill="#000000" font-family="sans-serif" font-size="14" lengthAdjust="spacing" textLength="181" x="934.5" y="812.5332">«artifact» Fleet Management</text></g><!--MD5=[7e4f23ae3161799779c458edd94125fa]
entity a_campus--><g id="elem_a_campus"><rect fill="#99DDFF" height="40.6094" rx="2.5" ry="2.5" style="stroke:#181818;stroke-width:0.5;" width="231" x="658.5" y="785"/><polygon fill="#99DDFF" points="872.5,790,872.5,804,884.5,804,884.5,796,878.5,790,872.5,790" style="stroke:#181818;stroke-width:0.5;"/><line style="stroke:#181818;stroke-width:0.5;" x1="878.5" x2="878.5" y1="790" y2="796"/><line style="stroke:#181818;stroke-width:0.5;" x1="884.5" x2="878.5" y1="796" y2="796"/><text fill="#000000" font-family="sans-serif" font-size="14" lengthAdjust="spacing" textLength="201" x="668.5" y="812.5332">«artifact» Campus Management</text></g><!--MD5=[a163312de0940cd91b13a5bbd3f5e542]
entity a_task--><g id="elem_a_task"><rect fill="#99DDFF" height="40.6094" rx="2.5" ry="2.5" style="stroke:#181818;stroke-width:0.5;" width="210" x="1414" y="785"/><polygon fill="#99DDFF" points="1607,790,1607,804,1619,804,1619,796,1613,790,1607,790" style="stroke:#181818;stroke-width:0.5;"/><line style="stroke:#181818;stroke-width:0.5;" x1="1613" x2="1613" y1="790" y2="796"/><line style="stroke:#181818;stroke-width:0.5;" x1="1619" x2="1613" y1="796" y2="796"/><text fill="#000000" font-family="sans-serif" font-size="14" lengthAdjust="spacing" textLength="180" x="1424" y="812.5332">«artifact» Task Management</text></g><!--MD5=[2e443cf9e6e8565968b32f2953d47e1f]
entity a_user--><g id="elem_a_user"><rect fill="#99DDFF" height="40.6094" rx="2.5" ry="2.5" style="stroke:#181818;stroke-width:0.5;" width="208" x="1171" y="785"/><polygon fill="#99DDFF" points="1362,790,1362,804,1374,804,1374,796,1368,790,1362,790" style="stroke:#181818;stroke-width:0.5;"/><line style="stroke:#181818;stroke-width:0.5;" x1="1368" x2="1368" y1="790" y2="796"/><line style="stroke:#181818;stroke-width:0.5;" x1="1374" x2="1368" y1="796" y2="796"/><text fill="#000000" font-family="sans-serif" font-size="14" lengthAdjust="spacing" textLength="178" x="1181" y="812.5332">«artifact» User Management</text></g><!--MD5=[ec7051895fcd99bc65c0f5c20ed8650b]
entity c_md--><g id="elem_c_md"><rect fill="#99DDFF" height="47.6094" rx="2.5" ry="2.5" style="stroke:#181818;stroke-width:0.5;" width="151" x="1076.5" y="999"/><rect fill="#99DDFF" height="10" style="stroke:#181818;stroke-width:0.5;" width="15" x="1207.5" y="1004"/><rect fill="#99DDFF" height="2" style="stroke:#181818;stroke-width:0.5;" width="4" x="1205.5" y="1006"/><rect fill="#99DDFF" height="2" style="stroke:#181818;stroke-width:0.5;" width="4" x="1205.5" y="1010"/><text fill="#000000" font-family="sans-serif" font-size="14" lengthAdjust="spacing" textLength="111" x="1091.5" y="1033.5332">«component» MD</text></g><!--MD5=[4d9981a41787232e7b87299127725687]
entity a_planning--><g id="elem_a_planning"><rect fill="#99DDFF" height="40.6094" rx="2.5" ry="2.5" style="stroke:#181818;stroke-width:0.5;" width="198" x="1782" y="623"/><polygon fill="#99DDFF" points="1963,628,1963,642,1975,642,1975,634,1969,628,1963,628" style="stroke:#181818;stroke-width:0.5;"/><line style="stroke:#181818;stroke-width:0.5;" x1="1969" x2="1969" y1="628" y2="634"/><line style="stroke:#181818;stroke-width:0.5;" x1="1975" x2="1969" y1="634" y2="634"/><text fill="#000000" font-family="sans-serif" font-size="14" lengthAdjust="spacing" textLength="168" x="1792" y="650.5332">«artifact» Planning Module</text></g><!--MD5=[e506d5fd28071aef17298ce2894ceba9]
entity c_planning--><g id="elem_c_planning"><rect fill="#99DDFF" height="47.6094" rx="2.5" ry="2.5" style="stroke:#181818;stroke-width:0.5;" width="235" x="1763.5" y="781.5"/><rect fill="#99DDFF" height="10" style="stroke:#181818;stroke-width:0.5;" width="15" x="1978.5" y="786.5"/><rect fill="#99DDFF" height="2" style="stroke:#181818;stroke-width:0.5;" width="4" x="1976.5" y="788.5"/><rect fill="#99DDFF" height="2" style="stroke:#181818;stroke-width:0.5;" width="4" x="1976.5" y="792.5"/><text fill="#000000" font-family="sans-serif" font-size="14" lengthAdjust="spacing" textLength="195" x="1778.5" y="816.0332">«component» Planning Module</text></g><!--MD5=[ebe46283e455e487d213c01667312086]
entity a_db--><g id="elem_a_db"><rect fill="#99DDFF" height="40.6094" rx="2.5" ry="2.5" style="stroke:#181818;stroke-width:0.5;" width="155" x="1750.5" y="1002.5"/><polygon fill="#99DDFF" points="1888.5,1007.5,1888.5,1021.5,1900.5,1021.5,1900.5,1013.5,1894.5,1007.5,1888.5,1007.5" style="stroke:#181818;stroke-width:0.5;"/><line style="stroke:#181818;stroke-width:0.5;" x1="1894.5" x2="1894.5" y1="1007.5" y2="1013.5"/><line style="stroke:#181818;stroke-width:0.5;" x1="1900.5" x2="1894.5" y1="1013.5" y2="1013.5"/><text fill="#000000" font-family="sans-serif" font-size="14" lengthAdjust="spacing" textLength="125" x="1760.5" y="1030.0332">«artifact» MongoDB</text></g><!--MD5=[8b648137391aaf78da48d7a207f55883]
entity c_md2--><g id="elem_c_md2"><rect fill="#99DDFF" height="47.6094" rx="2.5" ry="2.5" style="stroke:#181818;stroke-width:0.5;" width="151" x="1752.5" y="1143"/><rect fill="#99DDFF" height="10" style="stroke:#181818;stroke-width:0.5;" width="15" x="1883.5" y="1148"/><rect fill="#99DDFF" height="2" style="stroke:#181818;stroke-width:0.5;" width="4" x="1881.5" y="1150"/><rect fill="#99DDFF" height="2" style="stroke:#181818;stroke-width:0.5;" width="4" x="1881.5" y="1154"/><text fill="#000000" font-family="sans-serif" font-size="14" lengthAdjust="spacing" textLength="111" x="1767.5" y="1177.5332">«component» MD</text></g><!--MD5=[efde0f625c1baef0df90c2cd27ff1478]
link a_ui1 to c_ui1--><g id="link_a_ui1_c_ui1"><path d="M135,664.12 C135,692.12 135,743.72 135,775.96 " fill="none" id="a_ui1-to-c_ui1" style="stroke:#181818;stroke-width:1.0;stroke-dasharray:7.0,7.0;"/><polygon fill="#181818" points="135,781.35,139,772.35,135,776.35,131,772.35,135,781.35" style="stroke:#181818;stroke-width:1.0;"/><text fill="#000000" font-family="sans-serif" font-size="13" lengthAdjust="spacing" textLength="63" x="136" y="708.4951">«manifest»</text></g><!--MD5=[56dc0d8284f5f89f100485952449b902]
link a_ui2 to c_ui2--><g id="link_a_ui2_c_ui2"><path d="M467,664.12 C467,692.12 467,743.72 467,775.96 " fill="none" id="a_ui2-to-c_ui2" style="stroke:#181818;stroke-width:1.0;stroke-dasharray:7.0,7.0;"/><polygon fill="#181818" points="467,781.35,471,772.35,467,776.35,463,772.35,467,781.35" style="stroke:#181818;stroke-width:1.0;"/><text fill="#000000" font-family="sans-serif" font-size="13" lengthAdjust="spacing" textLength="63" x="468" y="708.4951">«manifest»</text></g><!--MD5=[d61bf1768b70561e411c6eed4d5fe5c7]
link a_fleet to c_md--><g id="link_a_fleet_c_md"><path d="M1041.04,826 C1062.82,864.47 1111.35,950.2 1136.39,994.43 " fill="none" id="a_fleet-to-c_md" style="stroke:#181818;stroke-width:1.0;stroke-dasharray:7.0,7.0;"/><polygon fill="#181818" points="1138.89,998.84,1137.9289,989.0381,1136.4231,994.4909,1130.9704,992.9851,1138.89,998.84" style="stroke:#181818;stroke-width:1.0;"/><text fill="#000000" font-family="sans-serif" font-size="13" lengthAdjust="spacing" textLength="63" x="1092" y="915.9951">«manifest»</text></g><!--MD5=[397e3631fe252c2d0a02a6d4118d43e9]
link a_campus to c_md--><g id="link_a_campus_c_md"><path d="M802.3,826.15 C828.88,844.34 870.01,871.77 907,893.5 C972.19,931.8 1049.85,971.59 1099.99,996.55 " fill="none" id="a_campus-to-c_md" style="stroke:#181818;stroke-width:1.0;stroke-dasharray:7.0,7.0;"/><polygon fill="#181818" points="1104.76,998.92,1098.4893,991.3254,1100.285,996.6897,1094.9207,998.4854,1104.76,998.92" style="stroke:#181818;stroke-width:1.0;"/><text fill="#000000" font-family="sans-serif" font-size="13" lengthAdjust="spacing" textLength="63" x="947" y="915.9951">«manifest»</text></g><!--MD5=[eac11c82ad96511b4d7a872895afcbcb]
link a_task to c_md--><g id="link_a_task_c_md"><path d="M1493.52,826.22 C1469.31,844.59 1431.57,872.24 1397,893.5 C1333.19,932.74 1256.19,971.86 1205.76,996.45 " fill="none" id="a_task-to-c_md" style="stroke:#181818;stroke-width:1.0;stroke-dasharray:7.0,7.0;"/><polygon fill="#181818" points="1200.96,998.78,1210.8028,998.4336,1205.4548,996.5899,1207.2985,991.2419,1200.96,998.78" style="stroke:#181818;stroke-width:1.0;"/><text fill="#000000" font-family="sans-serif" font-size="13" lengthAdjust="spacing" textLength="63" x="1378" y="915.9951">«manifest»</text></g><!--MD5=[23ab48a11a0bcf35db74bc46871e5b65]
link a_user to c_md--><g id="link_a_user_c_md"><path d="M1263.87,826 C1241.91,864.47 1192.98,950.2 1167.74,994.43 " fill="none" id="a_user-to-c_md" style="stroke:#181818;stroke-width:1.0;stroke-dasharray:7.0,7.0;"/><polygon fill="#181818" points="1165.22,998.84,1173.1479,992.9963,1167.693,994.4944,1166.1949,989.0395,1165.22,998.84" style="stroke:#181818;stroke-width:1.0;"/><text fill="#000000" font-family="sans-serif" font-size="13" lengthAdjust="spacing" textLength="63" x="1218" y="915.9951">«manifest»</text></g><!--MD5=[2241c91401cd54063f780366fcb891e2]
link a_planning to c_planning--><g id="link_a_planning_c_planning"><path d="M1881,664.12 C1881,692.12 1881,743.72 1881,775.96 " fill="none" id="a_planning-to-c_planning" style="stroke:#181818;stroke-width:1.0;stroke-dasharray:7.0,7.0;"/><polygon fill="#181818" points="1881,781.35,1885,772.35,1881,776.35,1877,772.35,1881,781.35" style="stroke:#181818;stroke-width:1.0;"/><text fill="#000000" font-family="sans-serif" font-size="13" lengthAdjust="spacing" textLength="63" x="1882" y="708.4951">«manifest»</text></g><!--MD5=[d9f1b32e0488f0100f818b40d1991548]
link a_db to c_md2--><g id="link_a_db_c_md2"><path d="M1828,1043.74 C1828,1068.14 1828,1109.81 1828,1137.63 " fill="none" id="a_db-to-c_md2" style="stroke:#181818;stroke-width:1.0;stroke-dasharray:7.0,7.0;"/><polygon fill="#181818" points="1828,1142.65,1832,1133.65,1828,1137.65,1824,1133.65,1828,1142.65" style="stroke:#181818;stroke-width:1.0;"/><text fill="#000000" font-family="sans-serif" font-size="13" lengthAdjust="spacing" textLength="63" x="1829" y="1109.4951">«manifest»</text></g><!--MD5=[dba0c87089d34163a503ecad8989b06e]
link local to DeiVpnGateway--><g id="link_local_DeiVpnGateway"><path d="M419,195.0957 C419,195.3366 419,195.5776 419,195.8187 C419,196.301 419,196.7838 419,197.267 C419,199.2 419,201.14 419,203.083 C419,210.8548 419,218.6726 419,226.263 C419,241.4438 419,255.715 419,266.89 " fill="none" id="local-DeiVpnGateway" style="stroke:#181818;stroke-width:1.0;"/><text fill="#000000" font-family="sans-serif" font-size="13" lengthAdjust="spacing" textLength="33" x="420" y="233.4951">http/s</text></g><!--MD5=[cc7970933e99bb2ee3cd1fd69973438a]
link DeiVpnGateway to controller--><g id="link_DeiVpnGateway_controller"><path d="M419,315.08 C419,336.58 419,368.83 419,392.75 " fill="none" id="DeiVpnGateway-controller" style="stroke:#181818;stroke-width:1.0;"/><text fill="#000000" font-family="sans-serif" font-size="13" lengthAdjust="spacing" textLength="33" x="420" y="359.4951">http/s</text></g><!--MD5=[6d8b83de283b304255c5e26e6766fa59]
link controller to server1--><g id="link_controller_server1"><path d="M394.65,458.37 C372.06,487.945 337.635,533.0125 308.4975,571.1575 C293.9288,590.23 280.6819,607.5719 270.8972,620.3812 C268.451,623.5836 266.2212,626.5027 264.2413,629.0947 C263.7463,629.7427 263.2669,630.3702 262.8037,630.9767 C262.5721,631.2799 262.3445,631.5778 262.121,631.8704 " fill="none" id="controller-server1" style="stroke:#181818;stroke-width:1.0;"/><text fill="#000000" font-family="sans-serif" font-size="13" lengthAdjust="spacing" textLength="33" x="371" y="502.4951">http/s</text></g><!--MD5=[91f2b97d5991129afd13837e2a1282f5]
link controller to server2--><g id="link_controller_server2"><path d="M488.47,458.02 C512.41,472.03 537.37,490.7 554,514 C556.1038,516.9475 558.0698,520.0187 559.907,523.1873 C560.8257,524.7715 561.7121,526.3801 562.5675,528.0098 C562.7813,528.4172 562.9932,528.8259 563.2032,529.2359 C563.3082,529.4409 563.4127,529.6462 563.5167,529.8518 " fill="none" id="controller-server2" style="stroke:#181818;stroke-width:1.0;"/><text fill="#000000" font-family="sans-serif" font-size="13" lengthAdjust="spacing" textLength="33" x="546" y="502.4951">http/s</text></g><!--MD5=[6e06fe010d71f40e3869c7944773e1db]
link server1 to server3--><g id="link_server1_server3"><path d="M262.2162,653.5559 C262.2919,653.6355 262.368,653.7155 262.4447,653.7959 C262.598,653.9568 262.7531,654.1192 262.9102,654.2833 C267.9353,659.5328 274.8756,666.4081 283.1813,673.6713 C299.7925,688.1975 321.865,704.275 345,712 C362.06,717.7 1625.99,708.72 1640,720 C1643.6888,722.97 1646.7573,726.4884 1649.3026,730.3754 C1649.9389,731.3471 1650.5425,732.3419 1651.1148,733.3569 C1651.401,733.8644 1651.6794,734.3769 1651.9502,734.8942 C1652.0856,735.1528 1652.2191,735.4126 1652.3507,735.6736 " fill="none" id="server1-server3" style="stroke:#181818;stroke-width:1.0;"/><text fill="#000000" font-family="sans-serif" font-size="13" lengthAdjust="spacing" textLength="33" x="346" y="708.4951">http/s</text></g><!--MD5=[40059543903b02b4750d8799b5dd92c9]
link server2 to server3--><g id="link_server2_server3"><path d="M594.2947,644.5028 C594.6827,644.5032 595.0837,644.5037 595.4978,644.5043 C596.3258,644.5054 597.2058,644.5067 598.1368,644.5082 C605.5852,644.5206 616.3016,644.5491 629.8418,644.6126 C656.9221,644.7396 695.2977,645.0066 741.4147,645.5658 C833.6488,646.6841 956.8488,648.9706 1082.585,653.6413 C1334.0575,662.9825 1595.675,681.86 1640,720 C1643.59,723.09 1646.5842,726.6989 1649.0749,730.6522 C1649.6976,731.6406 1650.2888,732.6504 1650.85,733.6791 C1651.1306,734.1934 1651.4037,734.7125 1651.6694,735.2359 C1651.7358,735.3667 1651.8018,735.4978 1651.8674,735.6292 " fill="none" id="server2-server3" style="stroke:#181818;stroke-width:1.0;"/><text fill="#000000" font-family="sans-serif" font-size="13" lengthAdjust="spacing" textLength="33" x="1626" y="708.4951">http/s</text></g><!--MD5=[c9d07ceb4bf2d1792dcdf1610fc5b77b]
link server3 to DMS--><g id="link_server3_DMS"><path d="M1667.0643,837.5339 C1667.1414,837.8305 1667.2189,838.1288 1667.2968,838.4286 C1667.6085,839.6281 1667.9269,840.8529 1668.2514,842.1017 C1673.4441,862.0822 1680.2281,888.1869 1687.0113,914.2887 C1693.7944,940.3906 1700.5766,966.4897 1705.7655,986.4589 C1706.0898,987.707 1706.4079,988.9311 1706.7193,990.1298 C1706.7972,990.4295 1706.8747,990.7276 1706.9517,991.024 " fill="none" id="server3-DMS" style="stroke:#181818;stroke-width:1.0;"/><text fill="#000000" font-family="sans-serif" font-size="13" lengthAdjust="spacing" textLength="14" x="1700.96" y="1019.3451">db</text></g><!--MD5=[116db286e9f29585409e55278430e13b]
link server4 to server3--><g id="link_server4_server3"><path d="M1706.9357,667.544 C1706.8586,667.7642 1706.7811,667.9857 1706.7032,668.2083 C1706.3915,669.0989 1706.0731,670.0083 1705.7486,670.9355 C1700.5559,685.7703 1693.7719,705.1519 1686.9888,724.5313 C1680.2056,743.9106 1673.4234,763.2878 1668.2345,778.1139 C1667.9102,779.0405 1667.5921,779.9494 1667.2807,780.8394 C1667.2028,781.0618 1667.1253,781.2832 1667.0483,781.5033 " fill="none" id="server4-server3" style="stroke:#181818;stroke-width:1.0;"/><text fill="#000000" font-family="sans-serif" font-size="13" lengthAdjust="spacing" textLength="33" x="1697" y="708.4951">http/s</text></g><!--MD5=[cc72431fe2f4e1cdaba0c722e36df345]
@startuml Map_IVL2_Physical

<style>
node {
    BackgroundColor #99ddff
}
component {
    BackgroundColor #99ddff
}
database {
    BackgroundColor #99ddff
}
artifact {
    BackgroundColor #99ddff
}

</style>

node "client" as local {
    component Browser{
        component UI as ui
    }
}

node "DEI VPN Gateway:80/443" as DeiVpnGateway{
}
node "cluster controller \nserver:80/443" as controller{
}
node "cluster server1:80" as server1{
    component UI as ui1 {
        artifact "<<artifact>> UI" as a_ui1
        component "<<component>> UI" as c_ui1

        a_ui1 -[dashed]-> c_ui1 : <<manifest>>
    }
}
node "cluster server2:80" as server2{
    component UI as ui2 {
        artifact "<<artifact>> UI" as a_ui2
        component "<<component>> UI" as c_ui2

        a_ui2 -[dashed]-> c_ui2 : <<manifest>>
    }
}

node "server3:4000" as server3{
    artifact "<<artifact>> Fleet Management" as a_fleet
    artifact "<<artifact>> Campus Management" as a_campus
    artifact "<<artifact>> Task Management" as a_task
    artifact "<<artifact>> User Management" as a_user

    ' component "<<component>> Fleet Management" as c_fleet
    ' component "<<component>> Campus Management" as c_campus
    ' component "<<component>> Task Management" as c_task
    ' component "<<component>> User Management" as c_user
    component "<<component>> MD" as c_md

    a_fleet -[dashed]-> c_md : <<manifest>>
    a_campus -[dashed]-> c_md : <<manifest>>
    a_task -[dashed]-> c_md : <<manifest>>
    a_user -[dashed]-> c_md : <<manifest>>
}

node "server4:4400" as server4{
    component "Planning Module" as planning {
        artifact "<<artifact>> Planning Module" as a_planning
        component "<<component>> Planning Module" as c_planning

        a_planning -[dashed]-> c_planning : <<manifest>>
    }
}

database DMS {
    artifact "<<artifact>> MongoDB" as a_db
    component "<<component>> MD" as c_md2

    a_db -[dashed]-> c_md2 : <<manifest>>
}
local - - DeiVpnGateway : http/s
DeiVpnGateway - - controller : http/s
controller - - server1 : http/s
controller - - server2 : http/s
server1 - - server3 : http/s
server2 - - server3 : http/s
server3 - - "db" DMS
server4 - - server3 : http/s

@enduml

@startuml Map_IVL2_Physical

<style>
node {
    BackgroundColor #99ddff
}
component {
    BackgroundColor #99ddff
}
database {
    BackgroundColor #99ddff
}
artifact {
    BackgroundColor #99ddff
}

</style>

node "client" as local {
    component Browser{
        component UI as ui
    }
}

node "DEI VPN Gateway:80/443" as DeiVpnGateway{
}
node "cluster controller \nserver:80/443" as controller{
}
node "cluster server1:80" as server1{
    component UI as ui1 {
        artifact "<<artifact>> UI" as a_ui1
        component "<<component>> UI" as c_ui1

        a_ui1 -[dashed]-> c_ui1 : <<manifest>>
    }
}
node "cluster server2:80" as server2{
    component UI as ui2 {
        artifact "<<artifact>> UI" as a_ui2
        component "<<component>> UI" as c_ui2

        a_ui2 -[dashed]-> c_ui2 : <<manifest>>
    }
}

node "server3:4000" as server3{
    artifact "<<artifact>> Fleet Management" as a_fleet
    artifact "<<artifact>> Campus Management" as a_campus
    artifact "<<artifact>> Task Management" as a_task
    artifact "<<artifact>> User Management" as a_user

    component "<<component>> MD" as c_md

    a_fleet -[dashed]-> c_md : <<manifest>>
    a_campus -[dashed]-> c_md : <<manifest>>
    a_task -[dashed]-> c_md : <<manifest>>
    a_user -[dashed]-> c_md : <<manifest>>
}

node "server4:4400" as server4{
    component "Planning Module" as planning {
        artifact "<<artifact>> Planning Module" as a_planning
        component "<<component>> Planning Module" as c_planning

        a_planning -[dashed]-> c_planning : <<manifest>>
    }
}

database DMS {
    artifact "<<artifact>> MongoDB" as a_db
    component "<<component>> MD" as c_md2

    a_db -[dashed]-> c_md2 : <<manifest>>
}
local - - DeiVpnGateway : http/s
DeiVpnGateway - - controller : http/s
controller - - server1 : http/s
controller - - server2 : http/s
server1 - - server3 : http/s
server2 - - server3 : http/s
server3 - - "db" DMS
server4 - - server3 : http/s

@enduml

PlantUML version 1.2022.7(Mon Aug 22 18:01:30 BST 2022)
(GPL source distribution)
Java Runtime: Java(TM) SE Runtime Environment
JVM: Java HotSpot(TM) Client VM
Default Encoding: Cp1252
Language: en
Country: US
--></g></svg>