<?xml version="1.0" encoding="UTF-8" standalone="no"?><svg xmlns="http://www.w3.org/2000/svg" xmlns:xlink="http://www.w3.org/1999/xlink" contentStyleType="text/css" height="424px" preserveAspectRatio="none" style="width:530px;height:424px;background:#FFFFFF;" version="1.1" viewBox="0 0 530 424" width="530px" zoomAndPan="magnify"><defs/><g><rect fill="#ADD8E6" height="412.5703" style="stroke:#181818;stroke-width:0.5;" width="357.5" x="160" y="6"/><text fill="#000000" font-family="sans-serif" font-size="13" font-weight="bold" lengthAdjust="spacing" textLength="81" x="298.25" y="19.4951">RobDroneGo</text><rect fill="#FFFFFF" height="220.4609" style="stroke:#181818;stroke-width:1.0;" width="10" x="235" y="91.3125"/><rect fill="#FFFFFF" height="30.3516" style="stroke:#181818;stroke-width:1.0;" width="10" x="492" y="121.6641"/><rect fill="#FFFFFF" height="30.3516" style="stroke:#181818;stroke-width:1.0;" width="10" x="492" y="251.0703"/><rect fill="none" height="198.9453" style="stroke:#000000;stroke-width:1.5;" width="512.5" x="11" y="167.0156"/><line style="stroke:#181818;stroke-width:0.5;stroke-dasharray:5.0,5.0;" x1="14" x2="14" y1="58.9609" y2="382.9609"/><line style="stroke:#181818;stroke-width:0.5;stroke-dasharray:5.0,5.0;" x1="240" x2="240" y1="58.9609" y2="382.9609"/><line style="stroke:#181818;stroke-width:0.5;stroke-dasharray:5.0,5.0;" x1="496.5" x2="496.5" y1="58.9609" y2="382.9609"/><rect fill="#E2E2F0" height="31.6094" rx="2.5" ry="2.5" style="stroke:#181818;stroke-width:0.5;" width="18" x="5" y="26.3516"/><text fill="#000000" font-family="sans-serif" font-size="14" lengthAdjust="spacing" textLength="4" x="12" y="47.8848"> </text><rect fill="#E2E2F0" height="31.6094" rx="2.5" ry="2.5" style="stroke:#181818;stroke-width:0.5;" width="18" x="5" y="381.9609"/><text fill="#000000" font-family="sans-serif" font-size="14" lengthAdjust="spacing" textLength="4" x="12" y="403.4941"> </text><rect fill="#E2E2F0" height="31.6094" rx="2.5" ry="2.5" style="stroke:#181818;stroke-width:0.5;" width="152" x="164" y="26.3516"/><text fill="#000000" font-family="sans-serif" font-size="14" lengthAdjust="spacing" textLength="138" x="171" y="47.8848">Campus Management</text><rect fill="#E2E2F0" height="31.6094" rx="2.5" ry="2.5" style="stroke:#181818;stroke-width:0.5;" width="152" x="164" y="381.9609"/><text fill="#000000" font-family="sans-serif" font-size="14" lengthAdjust="spacing" textLength="138" x="171" y="403.4941">Campus Management</text><rect fill="#E2E2F0" height="31.6094" rx="2.5" ry="2.5" style="stroke:#181818;stroke-width:0.5;" width="33" x="480.5" y="26.3516"/><text fill="#000000" font-family="sans-serif" font-size="14" lengthAdjust="spacing" textLength="19" x="487.5" y="47.8848">DB</text><rect fill="#E2E2F0" height="31.6094" rx="2.5" ry="2.5" style="stroke:#181818;stroke-width:0.5;" width="33" x="480.5" y="381.9609"/><text fill="#000000" font-family="sans-serif" font-size="14" lengthAdjust="spacing" textLength="19" x="487.5" y="403.4941">DB</text><rect fill="#FFFFFF" height="220.4609" style="stroke:#181818;stroke-width:1.0;" width="10" x="235" y="91.3125"/><rect fill="#FFFFFF" height="30.3516" style="stroke:#181818;stroke-width:1.0;" width="10" x="492" y="121.6641"/><rect fill="#FFFFFF" height="30.3516" style="stroke:#181818;stroke-width:1.0;" width="10" x="492" y="251.0703"/><ellipse cx="7.5" cy="90.5625" fill="none" rx="4" ry="4" style="stroke:#181818;stroke-width:1.5;"/><polygon fill="#181818" points="223,87.3125,233,91.3125,223,95.3125,227,91.3125" style="stroke:#181818;stroke-width:1.0;"/><line style="stroke:#181818;stroke-width:1.0;" x1="12" x2="229" y1="91.3125" y2="91.3125"/><text fill="#000000" font-family="sans-serif" font-size="13" lengthAdjust="spacing" textLength="165" x="15" y="86.4561">PUT /building/{code}/elevator</text><polygon fill="#181818" points="480,117.6641,490,121.6641,480,125.6641,484,121.6641" style="stroke:#181818;stroke-width:1.0;"/><line style="stroke:#181818;stroke-width:1.0;" x1="245" x2="486" y1="121.6641" y2="121.6641"/><text fill="#000000" font-family="sans-serif" font-size="13" lengthAdjust="spacing" textLength="118" x="252" y="116.8076">find building by code</text><polygon fill="#181818" points="256,148.0156,246,152.0156,256,156.0156,252,152.0156" style="stroke:#181818;stroke-width:1.0;"/><line style="stroke:#181818;stroke-width:1.0;stroke-dasharray:2.0,2.0;" x1="250" x2="496" y1="152.0156" y2="152.0156"/><text fill="#000000" font-family="sans-serif" font-size="13" lengthAdjust="spacing" textLength="138" x="262" y="147.1592">building data / not found</text><path d="M11,167.0156 L72,167.0156 L72,175.3672 L62,185.3672 L11,185.3672 L11,167.0156 " fill="#EEEEEE" style="stroke:#000000;stroke-width:1.5;"/><rect fill="none" height="198.9453" style="stroke:#000000;stroke-width:1.5;" width="512.5" x="11" y="167.0156"/><text fill="#000000" font-family="sans-serif" font-size="13" font-weight="bold" lengthAdjust="spacing" textLength="16" x="26" y="181.5107">alt</text><text fill="#000000" font-family="sans-serif" font-size="11" font-weight="bold" lengthAdjust="spacing" textLength="168" x="87" y="180.4346">[if building and elevator found]</text><line style="stroke:#181818;stroke-width:1.0;" x1="245" x2="287" y1="207.7188" y2="207.7188"/><line style="stroke:#181818;stroke-width:1.0;" x1="287" x2="287" y1="207.7188" y2="220.7188"/><line style="stroke:#181818;stroke-width:1.0;" x1="246" x2="287" y1="220.7188" y2="220.7188"/><polygon fill="#181818" points="256,216.7188,246,220.7188,256,224.7188,252,220.7188" style="stroke:#181818;stroke-width:1.0;"/><text fill="#000000" font-family="sans-serif" font-size="13" lengthAdjust="spacing" textLength="233" x="252" y="202.8623">update elevator properties within building</text><polygon fill="#181818" points="480,247.0703,490,251.0703,480,255.0703,484,251.0703" style="stroke:#181818;stroke-width:1.0;"/><line style="stroke:#181818;stroke-width:1.0;" x1="245" x2="486" y1="251.0703" y2="251.0703"/><text fill="#000000" font-family="sans-serif" font-size="13" lengthAdjust="spacing" textLength="199" x="252" y="246.2139">save updated building with elevator</text><polygon fill="#181818" points="256,277.4219,246,281.4219,256,285.4219,252,281.4219" style="stroke:#181818;stroke-width:1.0;"/><line style="stroke:#181818;stroke-width:1.0;stroke-dasharray:2.0,2.0;" x1="250" x2="496" y1="281.4219" y2="281.4219"/><text fill="#000000" font-family="sans-serif" font-size="13" lengthAdjust="spacing" textLength="89" x="262" y="276.5654">operation result</text><ellipse cx="7.5" cy="311.0234" fill="none" rx="4" ry="4" style="stroke:#181818;stroke-width:1.5;"/><polygon fill="#181818" points="24.5,307.7734,14.5,311.7734,24.5,315.7734,20.5,311.7734" style="stroke:#181818;stroke-width:1.0;"/><ellipse cx="239.5" cy="311.0234" fill="none" rx="4" ry="4" style="stroke:#181818;stroke-width:1.5;"/><line style="stroke:#181818;stroke-width:1.0;stroke-dasharray:2.0,2.0;" x1="22.5" x2="235" y1="311.7734" y2="311.7734"/><text fill="#000000" font-family="sans-serif" font-size="13" lengthAdjust="spacing" textLength="141" x="25" y="306.917">update result for elevator</text><line style="stroke:#000000;stroke-width:1.0;stroke-dasharray:2.0,2.0;" x1="11" x2="523.5" y1="320.7734" y2="320.7734"/><text fill="#000000" font-family="sans-serif" font-size="11" font-weight="bold" lengthAdjust="spacing" textLength="237" x="16" y="332.1924">[if building not found or elevator not found]</text><ellipse cx="7.5" cy="357.2109" fill="none" rx="4" ry="4" style="stroke:#181818;stroke-width:1.5;"/><polygon fill="#181818" points="24.5,353.9609,14.5,357.9609,24.5,361.9609,20.5,357.9609" style="stroke:#181818;stroke-width:1.0;"/><ellipse cx="239.5" cy="357.2109" fill="none" rx="4" ry="4" style="stroke:#181818;stroke-width:1.5;"/><line style="stroke:#181818;stroke-width:1.0;stroke-dasharray:2.0,2.0;" x1="22.5" x2="235" y1="357.9609" y2="357.9609"/><text fill="#000000" font-family="sans-serif" font-size="13" lengthAdjust="spacing" textLength="208" x="25" y="353.1045">error "Building or Elevator not found"</text><!--MD5=[c7f4bc25e618cf6b358b7ab78e36716b]
@startuml SD Lv2

participant " "
box "RobDroneGo" #LightBlue
    participant "Campus Management" as campus
    participant "DB" as DB
end box

[o-> campus : PUT /building/{code}/elevator
activate campus

campus -> DB : find building by code
activate DB
DB - -> campus : building data / not found
deactivate DB

alt if building and elevator found

    campus -> campus : update elevator properties within building

    campus -> DB : save updated building with elevator
    activate DB
    DB - -> campus : operation result
    deactivate DB

    [o<- -o campus : update result for elevator
    deactivate campus

else if building not found or elevator not found

    [o<- -o campus : error "Building or Elevator not found"
    deactivate campus

end

@enduml

PlantUML version 1.2022.7(Mon Aug 22 18:01:30 BST 2022)
(GPL source distribution)
Java Runtime: Java(TM) SE Runtime Environment
JVM: Java HotSpot(TM) Client VM
Default Encoding: Cp1252
Language: en
Country: US
--></g></svg>