<?xml version="1.0" encoding="UTF-8" standalone="no"?><svg xmlns="http://www.w3.org/2000/svg" xmlns:xlink="http://www.w3.org/1999/xlink" contentStyleType="text/css" height="276px" preserveAspectRatio="none" style="width:422px;height:276px;background:#FFFFFF;" version="1.1" viewBox="0 0 422 276" width="422px" zoomAndPan="magnify"><defs/><g><rect fill="#FFFFFF" height="160.2422" style="stroke:#181818;stroke-width:1.0;" width="10" x="235" y="69.9609"/><rect fill="none" height="138.2422" style="stroke:#000000;stroke-width:1.5;" width="404" x="11" y="84.9609"/><line style="stroke:#181818;stroke-width:0.5;stroke-dasharray:5.0,5.0;" x1="240" x2="240" y1="37.6094" y2="240.2031"/><rect fill="#E2E2F0" height="31.6094" rx="2.5" ry="2.5" style="stroke:#181818;stroke-width:0.5;" width="98" x="191" y="5"/><text fill="#000000" font-family="sans-serif" font-size="14" lengthAdjust="spacing" textLength="84" x="198" y="26.5332">RobDroneGo</text><rect fill="#E2E2F0" height="31.6094" rx="2.5" ry="2.5" style="stroke:#181818;stroke-width:0.5;" width="98" x="191" y="239.2031"/><text fill="#000000" font-family="sans-serif" font-size="14" lengthAdjust="spacing" textLength="84" x="198" y="260.7363">RobDroneGo</text><rect fill="#FFFFFF" height="160.2422" style="stroke:#181818;stroke-width:1.0;" width="10" x="235" y="69.9609"/><ellipse cx="7.5" cy="69.2109" fill="none" rx="4" ry="4" style="stroke:#181818;stroke-width:1.5;"/><polygon fill="#181818" points="223,65.9609,233,69.9609,223,73.9609,227,69.9609" style="stroke:#181818;stroke-width:1.0;"/><line style="stroke:#181818;stroke-width:1.0;" x1="12" x2="229" y1="69.9609" y2="69.9609"/><text fill="#000000" font-family="sans-serif" font-size="13" lengthAdjust="spacing" textLength="165" x="15" y="65.1045">PUT /building/{code}/elevator</text><path d="M11,84.9609 L72,84.9609 L72,93.3125 L62,103.3125 L11,103.3125 L11,84.9609 " fill="#EEEEEE" style="stroke:#000000;stroke-width:1.5;"/><rect fill="none" height="138.2422" style="stroke:#000000;stroke-width:1.5;" width="404" x="11" y="84.9609"/><text fill="#000000" font-family="sans-serif" font-size="13" font-weight="bold" lengthAdjust="spacing" textLength="16" x="26" y="99.4561">alt</text><text fill="#000000" font-family="sans-serif" font-size="11" font-weight="bold" lengthAdjust="spacing" textLength="163" x="87" y="98.3799">[if building and elevator exist]</text><line style="stroke:#181818;stroke-width:1.0;" x1="245" x2="287" y1="125.6641" y2="125.6641"/><line style="stroke:#181818;stroke-width:1.0;" x1="287" x2="287" y1="125.6641" y2="138.6641"/><line style="stroke:#181818;stroke-width:1.0;" x1="246" x2="287" y1="138.6641" y2="138.6641"/><polygon fill="#181818" points="256,134.6641,246,138.6641,256,142.6641,252,138.6641" style="stroke:#181818;stroke-width:1.0;"/><text fill="#000000" font-family="sans-serif" font-size="13" lengthAdjust="spacing" textLength="151" x="252" y="120.8076">Update elevator in building</text><ellipse cx="7.5" cy="168.2656" fill="none" rx="4" ry="4" style="stroke:#181818;stroke-width:1.5;"/><polygon fill="#181818" points="24.5,165.0156,14.5,169.0156,24.5,173.0156,20.5,169.0156" style="stroke:#181818;stroke-width:1.0;"/><ellipse cx="234.5" cy="168.2656" fill="none" rx="4" ry="4" style="stroke:#181818;stroke-width:1.5;"/><line style="stroke:#181818;stroke-width:1.0;stroke-dasharray:2.0,2.0;" x1="22.5" x2="230" y1="169.0156" y2="169.0156"/><text fill="#000000" font-family="sans-serif" font-size="13" lengthAdjust="spacing" textLength="141" x="25" y="164.1592">update result for elevator</text><line style="stroke:#000000;stroke-width:1.0;stroke-dasharray:2.0,2.0;" x1="11" x2="415" y1="178.0156" y2="178.0156"/><text fill="#000000" font-family="sans-serif" font-size="11" font-weight="bold" lengthAdjust="spacing" textLength="289" x="16" y="189.4346">[if building does not exist or elevator does not exist]</text><ellipse cx="7.5" cy="214.4531" fill="none" rx="4" ry="4" style="stroke:#181818;stroke-width:1.5;"/><polygon fill="#181818" points="24.5,211.2031,14.5,215.2031,24.5,219.2031,20.5,215.2031" style="stroke:#181818;stroke-width:1.0;"/><ellipse cx="234.5" cy="214.4531" fill="none" rx="4" ry="4" style="stroke:#181818;stroke-width:1.5;"/><line style="stroke:#181818;stroke-width:1.0;stroke-dasharray:2.0,2.0;" x1="22.5" x2="230" y1="215.2031" y2="215.2031"/><text fill="#000000" font-family="sans-serif" font-size="13" lengthAdjust="spacing" textLength="208" x="25" y="210.3467">error "Building or Elevator not found"</text><!--MD5=[7e0619098087e4be726ed6ce25b86d8b]
@startuml SD Lv1

participant RobDroneGo as system

[o-> system : PUT /building/{code}/elevator
activate system

alt if building and elevator exist

    system -> system : Update elevator in building

    [o<- -o system : update result for elevator

else if building does not exist or elevator does not exist

    [o<- -o system : error "Building or Elevator not found"

end
deactivate system

@enduml

PlantUML version 1.2022.7(Mon Aug 22 18:01:30 BST 2022)
(GPL source distribution)
Java Runtime: Java(TM) SE Runtime Environment
JVM: Java HotSpot(TM) Client VM
Default Encoding: Cp1252
Language: en
Country: US
--></g></svg>