<?xml version="1.0" encoding="UTF-8" standalone="no"?><svg xmlns="http://www.w3.org/2000/svg" xmlns:xlink="http://www.w3.org/1999/xlink" contentStyleType="text/css" height="697px" preserveAspectRatio="none" style="width:637px;height:697px;background:#FFFFFF;" version="1.1" viewBox="0 0 637 697" width="637px" zoomAndPan="magnify"><defs/><g><rect fill="#ADD8E6" height="685.25" style="stroke:#181818;stroke-width:0.5;" width="452" x="179" y="6"/><text fill="#000000" font-family="sans-serif" font-size="13" font-weight="bold" lengthAdjust="spacing" textLength="81" x="364.5" y="19.4951">RobDroneGo</text><rect fill="#FFFFFF" height="546.3281" style="stroke:#181818;stroke-width:1.0;" width="10" x="262" y="91.3125"/><rect fill="#FFFFFF" height="91.0547" style="stroke:#181818;stroke-width:1.0;" width="10" x="444.5" y="121.6641"/><rect fill="#FFFFFF" height="91.0547" style="stroke:#181818;stroke-width:1.0;" width="10" x="444.5" y="303.7734"/><rect fill="#FFFFFF" height="91.0547" style="stroke:#181818;stroke-width:1.0;" width="10" x="444.5" y="516.2344"/><rect fill="#FFFFFF" height="30.3516" style="stroke:#181818;stroke-width:1.0;" width="10" x="605.5" y="152.0156"/><rect fill="#FFFFFF" height="30.3516" style="stroke:#181818;stroke-width:1.0;" width="10" x="605.5" y="334.125"/><rect fill="#FFFFFF" height="30.3516" style="stroke:#181818;stroke-width:1.0;" width="10" x="605.5" y="546.5859"/><line style="stroke:#181818;stroke-width:0.5;stroke-dasharray:5.0,5.0;" x1="81" x2="81" y1="58.9609" y2="655.6406"/><line style="stroke:#181818;stroke-width:0.5;stroke-dasharray:5.0,5.0;" x1="267" x2="267" y1="58.9609" y2="655.6406"/><line style="stroke:#181818;stroke-width:0.5;stroke-dasharray:5.0,5.0;" x1="449" x2="449" y1="58.9609" y2="655.6406"/><line style="stroke:#181818;stroke-width:0.5;stroke-dasharray:5.0,5.0;" x1="610" x2="610" y1="58.9609" y2="655.6406"/><rect fill="#E2E2F0" height="31.6094" rx="2.5" ry="2.5" style="stroke:#181818;stroke-width:0.5;" width="152" x="5" y="26.3516"/><text fill="#000000" font-family="sans-serif" font-size="14" lengthAdjust="spacing" textLength="138" x="12" y="47.8848">Campus Management</text><rect fill="#E2E2F0" height="31.6094" rx="2.5" ry="2.5" style="stroke:#181818;stroke-width:0.5;" width="152" x="5" y="654.6406"/><text fill="#000000" font-family="sans-serif" font-size="14" lengthAdjust="spacing" textLength="138" x="12" y="676.1738">Campus Management</text><rect fill="#E2E2F0" height="31.6094" rx="2.5" ry="2.5" style="stroke:#181818;stroke-width:0.5;" width="168" x="183" y="26.3516"/><text fill="#000000" font-family="sans-serif" font-size="14" lengthAdjust="spacing" textLength="154" x="190" y="47.8848">Campus Management UI</text><rect fill="#E2E2F0" height="31.6094" rx="2.5" ry="2.5" style="stroke:#181818;stroke-width:0.5;" width="168" x="183" y="654.6406"/><text fill="#000000" font-family="sans-serif" font-size="14" lengthAdjust="spacing" textLength="154" x="190" y="676.1738">Campus Management UI</text><rect fill="#E2E2F0" height="31.6094" rx="2.5" ry="2.5" style="stroke:#181818;stroke-width:0.5;" width="177" x="361" y="26.3516"/><text fill="#000000" font-family="sans-serif" font-size="14" lengthAdjust="spacing" textLength="163" x="368" y="47.8848">Campus Management API</text><rect fill="#E2E2F0" height="31.6094" rx="2.5" ry="2.5" style="stroke:#181818;stroke-width:0.5;" width="177" x="361" y="654.6406"/><text fill="#000000" font-family="sans-serif" font-size="14" lengthAdjust="spacing" textLength="163" x="368" y="676.1738">Campus Management API</text><rect fill="#E2E2F0" height="31.6094" rx="2.5" ry="2.5" style="stroke:#181818;stroke-width:0.5;" width="33" x="594" y="26.3516"/><text fill="#000000" font-family="sans-serif" font-size="14" lengthAdjust="spacing" textLength="19" x="601" y="47.8848">DB</text><rect fill="#E2E2F0" height="31.6094" rx="2.5" ry="2.5" style="stroke:#181818;stroke-width:0.5;" width="33" x="594" y="654.6406"/><text fill="#000000" font-family="sans-serif" font-size="14" lengthAdjust="spacing" textLength="19" x="601" y="676.1738">DB</text><rect fill="#FFFFFF" height="546.3281" style="stroke:#181818;stroke-width:1.0;" width="10" x="262" y="91.3125"/><rect fill="#FFFFFF" height="91.0547" style="stroke:#181818;stroke-width:1.0;" width="10" x="444.5" y="121.6641"/><rect fill="#FFFFFF" height="91.0547" style="stroke:#181818;stroke-width:1.0;" width="10" x="444.5" y="303.7734"/><rect fill="#FFFFFF" height="91.0547" style="stroke:#181818;stroke-width:1.0;" width="10" x="444.5" y="516.2344"/><rect fill="#FFFFFF" height="30.3516" style="stroke:#181818;stroke-width:1.0;" width="10" x="605.5" y="152.0156"/><rect fill="#FFFFFF" height="30.3516" style="stroke:#181818;stroke-width:1.0;" width="10" x="605.5" y="334.125"/><rect fill="#FFFFFF" height="30.3516" style="stroke:#181818;stroke-width:1.0;" width="10" x="605.5" y="546.5859"/><polygon fill="#181818" points="250,87.3125,260,91.3125,250,95.3125,254,91.3125" style="stroke:#181818;stroke-width:1.0;"/><line style="stroke:#181818;stroke-width:1.0;" x1="81" x2="256" y1="91.3125" y2="91.3125"/><text fill="#000000" font-family="sans-serif" font-size="13" lengthAdjust="spacing" textLength="61" x="88" y="86.4561">open route</text><polygon fill="#181818" points="432.5,117.6641,442.5,121.6641,432.5,125.6641,436.5,121.6641" style="stroke:#181818;stroke-width:1.0;"/><line style="stroke:#181818;stroke-width:1.0;" x1="272" x2="438.5" y1="121.6641" y2="121.6641"/><text fill="#000000" font-family="sans-serif" font-size="13" lengthAdjust="spacing" textLength="96" x="279" y="116.8076">load all buildings</text><polygon fill="#181818" points="593.5,148.0156,603.5,152.0156,593.5,156.0156,597.5,152.0156" style="stroke:#181818;stroke-width:1.0;"/><line style="stroke:#181818;stroke-width:1.0;" x1="454.5" x2="599.5" y1="152.0156" y2="152.0156"/><text fill="#000000" font-family="sans-serif" font-size="13" lengthAdjust="spacing" textLength="90" x="461.5" y="147.1592">get all buildings</text><polygon fill="#181818" points="465.5,178.3672,455.5,182.3672,465.5,186.3672,461.5,182.3672" style="stroke:#181818;stroke-width:1.0;"/><line style="stroke:#181818;stroke-width:1.0;stroke-dasharray:2.0,2.0;" x1="459.5" x2="609.5" y1="182.3672" y2="182.3672"/><text fill="#000000" font-family="sans-serif" font-size="13" lengthAdjust="spacing" textLength="86" x="471.5" y="177.5107">list of buildings</text><polygon fill="#181818" points="283,208.7188,273,212.7188,283,216.7188,279,212.7188" style="stroke:#181818;stroke-width:1.0;"/><line style="stroke:#181818;stroke-width:1.0;stroke-dasharray:2.0,2.0;" x1="277" x2="448.5" y1="212.7188" y2="212.7188"/><text fill="#000000" font-family="sans-serif" font-size="13" lengthAdjust="spacing" textLength="86" x="289" y="207.8623">list of buildings</text><polygon fill="#181818" points="92,239.0703,82,243.0703,92,247.0703,88,243.0703" style="stroke:#181818;stroke-width:1.0;"/><line style="stroke:#181818;stroke-width:1.0;stroke-dasharray:2.0,2.0;" x1="86" x2="261" y1="243.0703" y2="243.0703"/><text fill="#000000" font-family="sans-serif" font-size="13" lengthAdjust="spacing" textLength="137" x="98" y="238.2139">show list of all buildings</text><polygon fill="#181818" points="250,269.4219,260,273.4219,250,277.4219,254,273.4219" style="stroke:#181818;stroke-width:1.0;"/><line style="stroke:#181818;stroke-width:1.0;" x1="81" x2="256" y1="273.4219" y2="273.4219"/><text fill="#000000" font-family="sans-serif" font-size="13" lengthAdjust="spacing" textLength="83" x="88" y="268.5654">select building</text><polygon fill="#181818" points="432.5,299.7734,442.5,303.7734,432.5,307.7734,436.5,303.7734" style="stroke:#181818;stroke-width:1.0;"/><line style="stroke:#181818;stroke-width:1.0;" x1="272" x2="438.5" y1="303.7734" y2="303.7734"/><text fill="#000000" font-family="sans-serif" font-size="13" lengthAdjust="spacing" textLength="138" x="279" y="298.917">load all floors of building</text><polygon fill="#181818" points="593.5,330.125,603.5,334.125,593.5,338.125,597.5,334.125" style="stroke:#181818;stroke-width:1.0;"/><line style="stroke:#181818;stroke-width:1.0;" x1="454.5" x2="599.5" y1="334.125" y2="334.125"/><text fill="#000000" font-family="sans-serif" font-size="13" lengthAdjust="spacing" textLength="132" x="461.5" y="329.2686">get all floors of building</text><polygon fill="#181818" points="465.5,360.4766,455.5,364.4766,465.5,368.4766,461.5,364.4766" style="stroke:#181818;stroke-width:1.0;"/><line style="stroke:#181818;stroke-width:1.0;stroke-dasharray:2.0,2.0;" x1="459.5" x2="609.5" y1="364.4766" y2="364.4766"/><text fill="#000000" font-family="sans-serif" font-size="13" lengthAdjust="spacing" textLength="66" x="471.5" y="359.6201">list of floors</text><polygon fill="#181818" points="283,390.8281,273,394.8281,283,398.8281,279,394.8281" style="stroke:#181818;stroke-width:1.0;"/><line style="stroke:#181818;stroke-width:1.0;stroke-dasharray:2.0,2.0;" x1="277" x2="448.5" y1="394.8281" y2="394.8281"/><text fill="#000000" font-family="sans-serif" font-size="13" lengthAdjust="spacing" textLength="66" x="289" y="389.9717">list of floors</text><polygon fill="#181818" points="92,421.1797,82,425.1797,92,429.1797,88,425.1797" style="stroke:#181818;stroke-width:1.0;"/><line style="stroke:#181818;stroke-width:1.0;stroke-dasharray:2.0,2.0;" x1="86" x2="261" y1="425.1797" y2="425.1797"/><text fill="#000000" font-family="sans-serif" font-size="13" lengthAdjust="spacing" textLength="100" x="98" y="420.3232">show list of floors</text><polygon fill="#181818" points="250,451.5313,260,455.5313,250,459.5313,254,455.5313" style="stroke:#181818;stroke-width:1.0;"/><line style="stroke:#181818;stroke-width:1.0;" x1="81" x2="256" y1="455.5313" y2="455.5313"/><text fill="#000000" font-family="sans-serif" font-size="13" lengthAdjust="spacing" textLength="63" x="88" y="450.6748">select floor</text><polygon fill="#181818" points="250,481.8828,260,485.8828,250,489.8828,254,485.8828" style="stroke:#181818;stroke-width:1.0;"/><line style="stroke:#181818;stroke-width:1.0;" x1="81" x2="256" y1="485.8828" y2="485.8828"/><text fill="#000000" font-family="sans-serif" font-size="13" lengthAdjust="spacing" textLength="67" x="88" y="481.0264">upload map</text><polygon fill="#181818" points="432.5,512.2344,442.5,516.2344,432.5,520.2344,436.5,516.2344" style="stroke:#181818;stroke-width:1.0;"/><line style="stroke:#181818;stroke-width:1.0;" x1="272" x2="438.5" y1="516.2344" y2="516.2344"/><text fill="#000000" font-family="sans-serif" font-size="13" lengthAdjust="spacing" textLength="67" x="279" y="511.3779">upload map</text><polygon fill="#181818" points="593.5,542.5859,603.5,546.5859,593.5,550.5859,597.5,546.5859" style="stroke:#181818;stroke-width:1.0;"/><line style="stroke:#181818;stroke-width:1.0;" x1="454.5" x2="599.5" y1="546.5859" y2="546.5859"/><text fill="#000000" font-family="sans-serif" font-size="13" lengthAdjust="spacing" textLength="55" x="461.5" y="541.7295">save map</text><polygon fill="#181818" points="465.5,572.9375,455.5,576.9375,465.5,580.9375,461.5,576.9375" style="stroke:#181818;stroke-width:1.0;"/><line style="stroke:#181818;stroke-width:1.0;stroke-dasharray:2.0,2.0;" x1="459.5" x2="609.5" y1="576.9375" y2="576.9375"/><text fill="#000000" font-family="sans-serif" font-size="13" lengthAdjust="spacing" textLength="81" x="471.5" y="572.0811">map uploaded</text><polygon fill="#181818" points="283,603.2891,273,607.2891,283,611.2891,279,607.2891" style="stroke:#181818;stroke-width:1.0;"/><line style="stroke:#181818;stroke-width:1.0;stroke-dasharray:2.0,2.0;" x1="277" x2="448.5" y1="607.2891" y2="607.2891"/><text fill="#000000" font-family="sans-serif" font-size="13" lengthAdjust="spacing" textLength="81" x="289" y="602.4326">map uploaded</text><polygon fill="#181818" points="92,633.6406,82,637.6406,92,641.6406,88,637.6406" style="stroke:#181818;stroke-width:1.0;"/><line style="stroke:#181818;stroke-width:1.0;stroke-dasharray:2.0,2.0;" x1="86" x2="266" y1="637.6406" y2="637.6406"/><text fill="#000000" font-family="sans-serif" font-size="13" lengthAdjust="spacing" textLength="157" x="98" y="632.7842">map uploaded successfully</text><!--MD5=[f4ec04e58efbdcccc75a8181a1525622]
@startuml SD Lv2

participant "Campus Management" as campusManager
box "RobDroneGo" #LightBlue
    participant "Campus Management UI" as campusUI
    participant "Campus Management API" as campusAPI
    participant "DB" as DB
end box

campusManager -> campusUI : open route
activate campusUI

    campusUI -> campusAPI : load all buildings
    activate campusAPI

    campusAPI -> DB : get all buildings
    activate DB
    DB - -> campusAPI : list of buildings
    deactivate DB

    campusAPI - -> campusUI : list of buildings
    deactivate campusAPI

campusManager <- - campusUI : show list of all buildings

campusManager -> campusUI : select building

    campusUI -> campusAPI : load all floors of building
    activate campusAPI

    campusAPI -> DB : get all floors of building
    activate DB
    DB - -> campusAPI : list of floors
    deactivate DB

    campusAPI - -> campusUI : list of floors
    deactivate campusAPI

campusManager <- - campusUI : show list of floors

campusManager -> campusUI : select floor

campusManager -> campusUI : upload map
    
        campusUI -> campusAPI : upload map
        activate campusAPI
    
        campusAPI -> DB : save map
        activate DB
        DB - -> campusAPI : map uploaded
        deactivate DB
    
        campusAPI - -> campusUI : map uploaded
        deactivate campusAPI
    
campusManager <- - campusUI : map uploaded successfully
deactivate campusUI

@enduml

PlantUML version 1.2022.7(Mon Aug 22 18:01:30 BST 2022)
(GPL source distribution)
Java Runtime: Java(TM) SE Runtime Environment
JVM: Java HotSpot(TM) 64-Bit Server VM
Default Encoding: Cp1252
Language: pt
Country: PT
--></g></svg>