<?xml version="1.0" encoding="UTF-8" standalone="no"?><svg xmlns="http://www.w3.org/2000/svg" xmlns:xlink="http://www.w3.org/1999/xlink" contentStyleType="text/css" height="1424px" preserveAspectRatio="none" style="width:1660px;height:1424px;background:#FFFFFF;" version="1.1" viewBox="0 0 1660 1424" width="1660px" zoomAndPan="magnify"><defs/><g><rect fill="#ADD8E6" height="1412.0391" style="stroke:#181818;stroke-width:0.5;" width="1094" x="221" y="6"/><text fill="#000000" font-family="sans-serif" font-size="13" font-weight="bold" lengthAdjust="spacing" textLength="155" x="690.5" y="19.4951">Campus Management UI</text><rect fill="#DDDDDD" height="1390.6875" style="stroke:#181818;stroke-width:0.5;" width="342.5" x="221" y="27.3516"/><text fill="#000000" font-family="sans-serif" font-size="13" font-weight="bold" lengthAdjust="spacing" textLength="32" x="376.25" y="40.8467">View</text><line style="stroke:#181818;stroke-width:0.5;stroke-dasharray:5.0,5.0;" x1="68" x2="68" y1="80.3125" y2="1379.4297"/><line style="stroke:#181818;stroke-width:0.5;stroke-dasharray:5.0,5.0;" x1="288" x2="288" y1="80.3125" y2="1379.4297"/><rect fill="#FFFFFF" height="1250.7656" style="stroke:#181818;stroke-width:1.0;" width="10" x="283" y="110.6641"/><line style="stroke:#181818;stroke-width:0.5;stroke-dasharray:5.0,5.0;" x1="516" x2="516" y1="80.3125" y2="1379.4297"/><rect fill="#FFFFFF" height="325.8672" style="stroke:#181818;stroke-width:1.0;" width="10" x="511" y="141.0156"/><rect fill="#FFFFFF" height="325.8672" style="stroke:#181818;stroke-width:1.0;" width="10" x="511" y="557.9375"/><rect fill="#FFFFFF" height="325.8672" style="stroke:#181818;stroke-width:1.0;" width="10" x="511" y="1005.2109"/><line style="stroke:#181818;stroke-width:0.5;stroke-dasharray:5.0,5.0;" x1="637" x2="637" y1="80.3125" y2="1379.4297"/><rect fill="#FFFFFF" height="265.1641" style="stroke:#181818;stroke-width:1.0;" width="10" x="632" y="171.3672"/><line style="stroke:#181818;stroke-width:0.5;stroke-dasharray:5.0,5.0;" x1="795" x2="795" y1="80.3125" y2="1379.4297"/><rect fill="#FFFFFF" height="265.1641" style="stroke:#181818;stroke-width:1.0;" width="10" x="790" y="588.2891"/><line style="stroke:#181818;stroke-width:0.5;stroke-dasharray:5.0,5.0;" x1="900" x2="900" y1="80.3125" y2="1379.4297"/><rect fill="#FFFFFF" height="265.1641" style="stroke:#181818;stroke-width:1.0;" width="10" x="895" y="1035.5625"/><line style="stroke:#181818;stroke-width:0.5;stroke-dasharray:5.0,5.0;" x1="1180" x2="1180" y1="80.3125" y2="1379.4297"/><rect fill="#FFFFFF" height="30.3516" style="stroke:#181818;stroke-width:1.0;" width="10" x="1175" y="201.7188"/><rect fill="#FFFFFF" height="30.3516" style="stroke:#181818;stroke-width:1.0;" width="10" x="1175" y="618.6406"/><rect fill="#FFFFFF" height="30.3516" style="stroke:#181818;stroke-width:1.0;" width="10" x="1175" y="1065.9141"/><line style="stroke:#181818;stroke-width:0.5;stroke-dasharray:5.0,5.0;" x1="1271.5" x2="1271.5" y1="80.3125" y2="1379.4297"/><rect fill="#FFFFFF" height="143.7578" style="stroke:#181818;stroke-width:1.0;" width="10" x="1266.5" y="262.4219"/><rect fill="#FFFFFF" height="143.7578" style="stroke:#181818;stroke-width:1.0;" width="10" x="1266.5" y="679.3438"/><rect fill="#FFFFFF" height="143.7578" style="stroke:#181818;stroke-width:1.0;" width="10" x="1266.5" y="1126.6172"/><line style="stroke:#181818;stroke-width:0.5;stroke-dasharray:5.0,5.0;" x1="1419.5" x2="1419.5" y1="80.3125" y2="1379.4297"/><rect fill="#FFFFFF" height="83.0547" style="stroke:#181818;stroke-width:1.0;" width="10" x="1414.5" y="292.7734"/><rect fill="#FFFFFF" height="83.0547" style="stroke:#181818;stroke-width:1.0;" width="10" x="1414.5" y="709.6953"/><rect fill="#FFFFFF" height="83.0547" style="stroke:#181818;stroke-width:1.0;" width="10" x="1414.5" y="1156.9688"/><rect fill="#E2E2F0" height="31.6094" rx="2.5" ry="2.5" style="stroke:#181818;stroke-width:0.5;" width="126" x="5" y="47.7031"/><text fill="#000000" font-family="sans-serif" font-size="14" lengthAdjust="spacing" textLength="112" x="12" y="69.2363">Campus manager</text><rect fill="#E2E2F0" height="31.6094" rx="2.5" ry="2.5" style="stroke:#181818;stroke-width:0.5;" width="126" x="225" y="47.7031"/><text fill="#000000" font-family="sans-serif" font-size="14" lengthAdjust="spacing" textLength="112" x="232" y="69.2363">HTML + CSS + JS</text><rect fill="#E2E2F0" height="31.6094" rx="2.5" ry="2.5" style="stroke:#181818;stroke-width:0.5;" width="87" x="472.5" y="47.7031"/><text fill="#000000" font-family="sans-serif" font-size="14" lengthAdjust="spacing" textLength="73" x="479.5" y="69.2363">Component</text><rect fill="#E2E2F0" height="31.6094" rx="2.5" ry="2.5" style="stroke:#181818;stroke-width:0.5;" width="115" x="579.5" y="47.7031"/><text fill="#000000" font-family="sans-serif" font-size="14" lengthAdjust="spacing" textLength="101" x="586.5" y="69.2363">Building Service</text><rect fill="#E2E2F0" height="31.6094" rx="2.5" ry="2.5" style="stroke:#181818;stroke-width:0.5;" width="98" x="746" y="47.7031"/><text fill="#000000" font-family="sans-serif" font-size="14" lengthAdjust="spacing" textLength="84" x="753" y="69.2363">Floor Service</text><rect fill="#E2E2F0" height="31.6094" rx="2.5" ry="2.5" style="stroke:#181818;stroke-width:0.5;" width="92" x="854" y="47.7031"/><text fill="#000000" font-family="sans-serif" font-size="14" lengthAdjust="spacing" textLength="78" x="861" y="69.2363">Map Service</text><rect fill="#E2E2F0" height="31.6094" rx="2.5" ry="2.5" style="stroke:#181818;stroke-width:0.5;" width="84" x="1138" y="47.7031"/><text fill="#000000" font-family="sans-serif" font-size="14" lengthAdjust="spacing" textLength="70" x="1145" y="69.2363">API Routes</text><rect fill="#E2E2F0" height="31.6094" rx="2.5" ry="2.5" style="stroke:#181818;stroke-width:0.5;" width="79" x="1232" y="47.7031"/><text fill="#000000" font-family="sans-serif" font-size="14" lengthAdjust="spacing" textLength="65" x="1239" y="69.2363">Http driver</text><rect fill="#E2E2F0" height="31.6094" rx="2.5" ry="2.5" style="stroke:#181818;stroke-width:0.5;" width="177" x="1331" y="47.7031"/><text fill="#000000" font-family="sans-serif" font-size="14" lengthAdjust="spacing" textLength="163" x="1338" y="69.2363">Campus Management API</text><rect fill="#E2E2F0" height="31.6094" rx="2.5" ry="2.5" style="stroke:#181818;stroke-width:0.5;" width="126" x="5" y="1379.4297"/><text fill="#000000" font-family="sans-serif" font-size="14" lengthAdjust="spacing" textLength="112" x="12" y="1400.9629">Campus manager</text><rect fill="#E2E2F0" height="31.6094" rx="2.5" ry="2.5" style="stroke:#181818;stroke-width:0.5;" width="126" x="225" y="1379.4297"/><text fill="#000000" font-family="sans-serif" font-size="14" lengthAdjust="spacing" textLength="112" x="232" y="1400.9629">HTML + CSS + JS</text><rect fill="#E2E2F0" height="31.6094" rx="2.5" ry="2.5" style="stroke:#181818;stroke-width:0.5;" width="87" x="472.5" y="1379.4297"/><text fill="#000000" font-family="sans-serif" font-size="14" lengthAdjust="spacing" textLength="73" x="479.5" y="1400.9629">Component</text><rect fill="#E2E2F0" height="31.6094" rx="2.5" ry="2.5" style="stroke:#181818;stroke-width:0.5;" width="115" x="579.5" y="1379.4297"/><text fill="#000000" font-family="sans-serif" font-size="14" lengthAdjust="spacing" textLength="101" x="586.5" y="1400.9629">Building Service</text><rect fill="#E2E2F0" height="31.6094" rx="2.5" ry="2.5" style="stroke:#181818;stroke-width:0.5;" width="98" x="746" y="1379.4297"/><text fill="#000000" font-family="sans-serif" font-size="14" lengthAdjust="spacing" textLength="84" x="753" y="1400.9629">Floor Service</text><rect fill="#E2E2F0" height="31.6094" rx="2.5" ry="2.5" style="stroke:#181818;stroke-width:0.5;" width="92" x="854" y="1379.4297"/><text fill="#000000" font-family="sans-serif" font-size="14" lengthAdjust="spacing" textLength="78" x="861" y="1400.9629">Map Service</text><rect fill="#E2E2F0" height="31.6094" rx="2.5" ry="2.5" style="stroke:#181818;stroke-width:0.5;" width="84" x="1138" y="1379.4297"/><text fill="#000000" font-family="sans-serif" font-size="14" lengthAdjust="spacing" textLength="70" x="1145" y="1400.9629">API Routes</text><rect fill="#E2E2F0" height="31.6094" rx="2.5" ry="2.5" style="stroke:#181818;stroke-width:0.5;" width="79" x="1232" y="1379.4297"/><text fill="#000000" font-family="sans-serif" font-size="14" lengthAdjust="spacing" textLength="65" x="1239" y="1400.9629">Http driver</text><rect fill="#E2E2F0" height="31.6094" rx="2.5" ry="2.5" style="stroke:#181818;stroke-width:0.5;" width="177" x="1331" y="1379.4297"/><text fill="#000000" font-family="sans-serif" font-size="14" lengthAdjust="spacing" textLength="163" x="1338" y="1400.9629">Campus Management API</text><polygon fill="#181818" points="271,106.6641,281,110.6641,271,114.6641,275,110.6641" style="stroke:#181818;stroke-width:1.0;"/><line style="stroke:#181818;stroke-width:1.0;" x1="68" x2="277" y1="110.6641" y2="110.6641"/><text fill="#000000" font-family="sans-serif" font-size="13" lengthAdjust="spacing" textLength="57" x="75" y="105.8076">load route</text><polygon fill="#181818" points="499,137.0156,509,141.0156,499,145.0156,503,141.0156" style="stroke:#181818;stroke-width:1.0;"/><line style="stroke:#181818;stroke-width:1.0;" x1="293" x2="505" y1="141.0156" y2="141.0156"/><text fill="#000000" font-family="sans-serif" font-size="13" lengthAdjust="spacing" textLength="96" x="300" y="136.1592">load all buildings</text><polygon fill="#181818" points="620,167.3672,630,171.3672,620,175.3672,624,171.3672" style="stroke:#181818;stroke-width:1.0;"/><line style="stroke:#181818;stroke-width:1.0;" x1="521" x2="626" y1="171.3672" y2="171.3672"/><text fill="#000000" font-family="sans-serif" font-size="13" lengthAdjust="spacing" textLength="90" x="528" y="166.5107">get all buildings</text><polygon fill="#181818" points="1163,197.7188,1173,201.7188,1163,205.7188,1167,201.7188" style="stroke:#181818;stroke-width:1.0;"/><line style="stroke:#181818;stroke-width:1.0;" x1="642" x2="1169" y1="201.7188" y2="201.7188"/><text fill="#000000" font-family="sans-serif" font-size="13" lengthAdjust="spacing" textLength="81" x="649" y="196.8623">building.getAll</text><polygon fill="#181818" points="653,228.0703,643,232.0703,653,236.0703,649,232.0703" style="stroke:#181818;stroke-width:1.0;"/><line style="stroke:#181818;stroke-width:1.0;stroke-dasharray:2.0,2.0;" x1="647" x2="1174" y1="232.0703" y2="232.0703"/><text fill="#000000" font-family="sans-serif" font-size="13" lengthAdjust="spacing" textLength="50" x="659" y="227.2139">api route</text><polygon fill="#181818" points="1254.5,258.4219,1264.5,262.4219,1254.5,266.4219,1258.5,262.4219" style="stroke:#181818;stroke-width:1.0;"/><line style="stroke:#181818;stroke-width:1.0;" x1="642" x2="1260.5" y1="262.4219" y2="262.4219"/><text fill="#000000" font-family="sans-serif" font-size="13" lengthAdjust="spacing" textLength="76" x="649" y="257.5654">get(api route)</text><polygon fill="#181818" points="1402.5,288.7734,1412.5,292.7734,1402.5,296.7734,1406.5,292.7734" style="stroke:#181818;stroke-width:1.0;"/><line style="stroke:#181818;stroke-width:1.0;" x1="1276.5" x2="1408.5" y1="292.7734" y2="292.7734"/><text fill="#000000" font-family="sans-serif" font-size="13" lengthAdjust="spacing" textLength="75" x="1283.5" y="287.917">send request</text><line style="stroke:#181818;stroke-width:1.0;" x1="1424.5" x2="1466.5" y1="323.125" y2="323.125"/><line style="stroke:#181818;stroke-width:1.0;" x1="1466.5" x2="1466.5" y1="323.125" y2="336.125"/><line style="stroke:#181818;stroke-width:1.0;" x1="1425.5" x2="1466.5" y1="336.125" y2="336.125"/><polygon fill="#181818" points="1435.5,332.125,1425.5,336.125,1435.5,340.125,1431.5,336.125" style="stroke:#181818;stroke-width:1.0;"/><text fill="#000000" font-family="sans-serif" font-size="13" lengthAdjust="spacing" textLength="89" x="1431.5" y="318.2686">list all buildings</text><path d="M1532.5,305.7734 L1532.5,347.7734 L1653.5,347.7734 L1653.5,315.7734 L1643.5,305.7734 L1532.5,305.7734 " fill="#FEFFDD" style="stroke:#181818;stroke-width:0.5;"/><path d="M1643.5,305.7734 L1643.5,315.7734 L1653.5,315.7734 L1643.5,305.7734 " fill="#FEFFDD" style="stroke:#181818;stroke-width:0.5;"/><text fill="#000000" font-family="sans-serif" font-size="13" lengthAdjust="spacing" textLength="100" x="1538.5" y="324.2686">procedures in the</text><text fill="#000000" font-family="sans-serif" font-size="13" lengthAdjust="spacing" textLength="95" x="1538.5" y="340.6201">user story ID170</text><polygon fill="#181818" points="1287.5,371.8281,1277.5,375.8281,1287.5,379.8281,1283.5,375.8281" style="stroke:#181818;stroke-width:1.0;"/><line style="stroke:#181818;stroke-width:1.0;stroke-dasharray:2.0,2.0;" x1="1281.5" x2="1413.5" y1="375.8281" y2="375.8281"/><text fill="#000000" font-family="sans-serif" font-size="13" lengthAdjust="spacing" textLength="54" x="1293.5" y="370.9717">return list</text><polygon fill="#181818" points="653,402.1797,643,406.1797,653,410.1797,649,406.1797" style="stroke:#181818;stroke-width:1.0;"/><line style="stroke:#181818;stroke-width:1.0;stroke-dasharray:2.0,2.0;" x1="647" x2="1265.5" y1="406.1797" y2="406.1797"/><text fill="#000000" font-family="sans-serif" font-size="13" lengthAdjust="spacing" textLength="54" x="659" y="401.3232">return list</text><polygon fill="#181818" points="532,432.5313,522,436.5313,532,440.5313,528,436.5313" style="stroke:#181818;stroke-width:1.0;"/><line style="stroke:#181818;stroke-width:1.0;stroke-dasharray:2.0,2.0;" x1="526" x2="631" y1="436.5313" y2="436.5313"/><text fill="#000000" font-family="sans-serif" font-size="13" lengthAdjust="spacing" textLength="54" x="538" y="431.6748">return list</text><polygon fill="#181818" points="304,462.8828,294,466.8828,304,470.8828,300,466.8828" style="stroke:#181818;stroke-width:1.0;"/><line style="stroke:#181818;stroke-width:1.0;stroke-dasharray:2.0,2.0;" x1="298" x2="510" y1="466.8828" y2="466.8828"/><text fill="#000000" font-family="sans-serif" font-size="13" lengthAdjust="spacing" textLength="88" x="310" y="462.0264">return buildings</text><polygon fill="#181818" points="79,493.2344,69,497.2344,79,501.2344,75,497.2344" style="stroke:#181818;stroke-width:1.0;"/><line style="stroke:#181818;stroke-width:1.0;stroke-dasharray:2.0,2.0;" x1="73" x2="282" y1="497.2344" y2="497.2344"/><text fill="#000000" font-family="sans-serif" font-size="13" lengthAdjust="spacing" textLength="106" x="85" y="492.3779">show list buildings</text><polygon fill="#181818" points="271,523.5859,281,527.5859,271,531.5859,275,527.5859" style="stroke:#181818;stroke-width:1.0;"/><line style="stroke:#181818;stroke-width:1.0;stroke-dasharray:2.0,2.0;" x1="68" x2="277" y1="527.5859" y2="527.5859"/><text fill="#000000" font-family="sans-serif" font-size="13" lengthAdjust="spacing" textLength="83" x="75" y="522.7295">select building</text><polygon fill="#181818" points="499,553.9375,509,557.9375,499,561.9375,503,557.9375" style="stroke:#181818;stroke-width:1.0;"/><line style="stroke:#181818;stroke-width:1.0;" x1="293" x2="505" y1="557.9375" y2="557.9375"/><text fill="#000000" font-family="sans-serif" font-size="13" lengthAdjust="spacing" textLength="76" x="300" y="553.0811">load all floors</text><polygon fill="#181818" points="778,584.2891,788,588.2891,778,592.2891,782,588.2891" style="stroke:#181818;stroke-width:1.0;"/><line style="stroke:#181818;stroke-width:1.0;" x1="521" x2="784" y1="588.2891" y2="588.2891"/><text fill="#000000" font-family="sans-serif" font-size="13" lengthAdjust="spacing" textLength="250" x="528" y="583.4326">get getFloorsByBuildingCode(buildingCode)</text><polygon fill="#181818" points="1163,614.6406,1173,618.6406,1163,622.6406,1167,618.6406" style="stroke:#181818;stroke-width:1.0;"/><line style="stroke:#181818;stroke-width:1.0;" x1="800" x2="1169" y1="618.6406" y2="618.6406"/><text fill="#000000" font-family="sans-serif" font-size="13" lengthAdjust="spacing" textLength="220" x="807" y="613.7842">floor.getByBuildingCode(buildingCode)</text><polygon fill="#181818" points="811,644.9922,801,648.9922,811,652.9922,807,648.9922" style="stroke:#181818;stroke-width:1.0;"/><line style="stroke:#181818;stroke-width:1.0;stroke-dasharray:2.0,2.0;" x1="805" x2="1174" y1="648.9922" y2="648.9922"/><text fill="#000000" font-family="sans-serif" font-size="13" lengthAdjust="spacing" textLength="50" x="817" y="644.1357">api route</text><polygon fill="#181818" points="1254.5,675.3438,1264.5,679.3438,1254.5,683.3438,1258.5,679.3438" style="stroke:#181818;stroke-width:1.0;"/><line style="stroke:#181818;stroke-width:1.0;" x1="800" x2="1260.5" y1="679.3438" y2="679.3438"/><text fill="#000000" font-family="sans-serif" font-size="13" lengthAdjust="spacing" textLength="76" x="807" y="674.4873">get(api route)</text><polygon fill="#181818" points="1402.5,705.6953,1412.5,709.6953,1402.5,713.6953,1406.5,709.6953" style="stroke:#181818;stroke-width:1.0;"/><line style="stroke:#181818;stroke-width:1.0;" x1="1276.5" x2="1408.5" y1="709.6953" y2="709.6953"/><text fill="#000000" font-family="sans-serif" font-size="13" lengthAdjust="spacing" textLength="75" x="1283.5" y="704.8389">send request</text><line style="stroke:#181818;stroke-width:1.0;" x1="1424.5" x2="1466.5" y1="740.0469" y2="740.0469"/><line style="stroke:#181818;stroke-width:1.0;" x1="1466.5" x2="1466.5" y1="740.0469" y2="753.0469"/><line style="stroke:#181818;stroke-width:1.0;" x1="1425.5" x2="1466.5" y1="753.0469" y2="753.0469"/><polygon fill="#181818" points="1435.5,749.0469,1425.5,753.0469,1435.5,757.0469,1431.5,753.0469" style="stroke:#181818;stroke-width:1.0;"/><text fill="#000000" font-family="sans-serif" font-size="13" lengthAdjust="spacing" textLength="69" x="1431.5" y="735.1904">list all floors</text><path d="M1512.5,722.6953 L1512.5,764.6953 L1633.5,764.6953 L1633.5,732.6953 L1623.5,722.6953 L1512.5,722.6953 " fill="#FEFFDD" style="stroke:#181818;stroke-width:0.5;"/><path d="M1623.5,722.6953 L1623.5,732.6953 L1633.5,732.6953 L1623.5,722.6953 " fill="#FEFFDD" style="stroke:#181818;stroke-width:0.5;"/><text fill="#000000" font-family="sans-serif" font-size="13" lengthAdjust="spacing" textLength="100" x="1518.5" y="741.1904">procedures in the</text><text fill="#000000" font-family="sans-serif" font-size="13" lengthAdjust="spacing" textLength="95" x="1518.5" y="757.542">user story ID210</text><polygon fill="#181818" points="1287.5,788.75,1277.5,792.75,1287.5,796.75,1283.5,792.75" style="stroke:#181818;stroke-width:1.0;"/><line style="stroke:#181818;stroke-width:1.0;stroke-dasharray:2.0,2.0;" x1="1281.5" x2="1413.5" y1="792.75" y2="792.75"/><text fill="#000000" font-family="sans-serif" font-size="13" lengthAdjust="spacing" textLength="54" x="1293.5" y="787.8936">return list</text><polygon fill="#181818" points="811,819.1016,801,823.1016,811,827.1016,807,823.1016" style="stroke:#181818;stroke-width:1.0;"/><line style="stroke:#181818;stroke-width:1.0;stroke-dasharray:2.0,2.0;" x1="805" x2="1265.5" y1="823.1016" y2="823.1016"/><text fill="#000000" font-family="sans-serif" font-size="13" lengthAdjust="spacing" textLength="54" x="817" y="818.2451">return list</text><polygon fill="#181818" points="532,849.4531,522,853.4531,532,857.4531,528,853.4531" style="stroke:#181818;stroke-width:1.0;"/><line style="stroke:#181818;stroke-width:1.0;stroke-dasharray:2.0,2.0;" x1="526" x2="789" y1="853.4531" y2="853.4531"/><text fill="#000000" font-family="sans-serif" font-size="13" lengthAdjust="spacing" textLength="54" x="538" y="848.5967">return list</text><polygon fill="#181818" points="304,879.8047,294,883.8047,304,887.8047,300,883.8047" style="stroke:#181818;stroke-width:1.0;"/><line style="stroke:#181818;stroke-width:1.0;stroke-dasharray:2.0,2.0;" x1="298" x2="510" y1="883.8047" y2="883.8047"/><text fill="#000000" font-family="sans-serif" font-size="13" lengthAdjust="spacing" textLength="68" x="310" y="878.9482">return floors</text><polygon fill="#181818" points="79,910.1563,69,914.1563,79,918.1563,75,914.1563" style="stroke:#181818;stroke-width:1.0;"/><line style="stroke:#181818;stroke-width:1.0;stroke-dasharray:2.0,2.0;" x1="73" x2="282" y1="914.1563" y2="914.1563"/><text fill="#000000" font-family="sans-serif" font-size="13" lengthAdjust="spacing" textLength="86" x="85" y="909.2998">show list floors</text><polygon fill="#181818" points="271,940.5078,281,944.5078,271,948.5078,275,944.5078" style="stroke:#181818;stroke-width:1.0;"/><line style="stroke:#181818;stroke-width:1.0;stroke-dasharray:2.0,2.0;" x1="68" x2="277" y1="944.5078" y2="944.5078"/><text fill="#000000" font-family="sans-serif" font-size="13" lengthAdjust="spacing" textLength="63" x="75" y="939.6514">select floor</text><polygon fill="#181818" points="271,970.8594,281,974.8594,271,978.8594,275,974.8594" style="stroke:#181818;stroke-width:1.0;"/><line style="stroke:#181818;stroke-width:1.0;" x1="68" x2="277" y1="974.8594" y2="974.8594"/><text fill="#000000" font-family="sans-serif" font-size="13" lengthAdjust="spacing" textLength="67" x="75" y="970.0029">upload map</text><polygon fill="#181818" points="499,1001.2109,509,1005.2109,499,1009.2109,503,1005.2109" style="stroke:#181818;stroke-width:1.0;"/><line style="stroke:#181818;stroke-width:1.0;" x1="293" x2="505" y1="1005.2109" y2="1005.2109"/><text fill="#000000" font-family="sans-serif" font-size="13" lengthAdjust="spacing" textLength="67" x="300" y="1000.3545">upload map</text><polygon fill="#181818" points="883,1031.5625,893,1035.5625,883,1039.5625,887,1035.5625" style="stroke:#181818;stroke-width:1.0;"/><line style="stroke:#181818;stroke-width:1.0;" x1="521" x2="889" y1="1035.5625" y2="1035.5625"/><text fill="#000000" font-family="sans-serif" font-size="13" lengthAdjust="spacing" textLength="96" x="528" y="1030.7061">uploadMap(map)</text><polygon fill="#181818" points="1163,1061.9141,1173,1065.9141,1163,1069.9141,1167,1065.9141" style="stroke:#181818;stroke-width:1.0;"/><line style="stroke:#181818;stroke-width:1.0;" x1="905" x2="1169" y1="1065.9141" y2="1065.9141"/><text fill="#000000" font-family="sans-serif" font-size="13" lengthAdjust="spacing" textLength="251" x="912" y="1061.0576">map.uploadMap(buildingCode, floorNumber)</text><polygon fill="#181818" points="916,1092.2656,906,1096.2656,916,1100.2656,912,1096.2656" style="stroke:#181818;stroke-width:1.0;"/><line style="stroke:#181818;stroke-width:1.0;stroke-dasharray:2.0,2.0;" x1="910" x2="1174" y1="1096.2656" y2="1096.2656"/><text fill="#000000" font-family="sans-serif" font-size="13" lengthAdjust="spacing" textLength="50" x="922" y="1091.4092">api route</text><polygon fill="#181818" points="1254.5,1122.6172,1264.5,1126.6172,1254.5,1130.6172,1258.5,1126.6172" style="stroke:#181818;stroke-width:1.0;"/><line style="stroke:#181818;stroke-width:1.0;" x1="905" x2="1260.5" y1="1126.6172" y2="1126.6172"/><text fill="#000000" font-family="sans-serif" font-size="13" lengthAdjust="spacing" textLength="123" x="912" y="1121.7607">patch(api route, map)</text><polygon fill="#181818" points="1402.5,1152.9688,1412.5,1156.9688,1402.5,1160.9688,1406.5,1156.9688" style="stroke:#181818;stroke-width:1.0;"/><line style="stroke:#181818;stroke-width:1.0;" x1="1276.5" x2="1408.5" y1="1156.9688" y2="1156.9688"/><text fill="#000000" font-family="sans-serif" font-size="13" lengthAdjust="spacing" textLength="75" x="1283.5" y="1152.1123">send request</text><line style="stroke:#181818;stroke-width:1.0;" x1="1424.5" x2="1466.5" y1="1187.3203" y2="1187.3203"/><line style="stroke:#181818;stroke-width:1.0;" x1="1466.5" x2="1466.5" y1="1187.3203" y2="1200.3203"/><line style="stroke:#181818;stroke-width:1.0;" x1="1425.5" x2="1466.5" y1="1200.3203" y2="1200.3203"/><polygon fill="#181818" points="1435.5,1196.3203,1425.5,1200.3203,1435.5,1204.3203,1431.5,1200.3203" style="stroke:#181818;stroke-width:1.0;"/><text fill="#000000" font-family="sans-serif" font-size="13" lengthAdjust="spacing" textLength="47" x="1431.5" y="1182.4639">get map</text><path d="M1490.5,1169.9688 L1490.5,1211.9688 L1611.5,1211.9688 L1611.5,1179.9688 L1601.5,1169.9688 L1490.5,1169.9688 " fill="#FEFFDD" style="stroke:#181818;stroke-width:0.5;"/><path d="M1601.5,1169.9688 L1601.5,1179.9688 L1611.5,1179.9688 L1601.5,1169.9688 " fill="#FEFFDD" style="stroke:#181818;stroke-width:0.5;"/><text fill="#000000" font-family="sans-serif" font-size="13" lengthAdjust="spacing" textLength="100" x="1496.5" y="1188.4639">procedures in the</text><text fill="#000000" font-family="sans-serif" font-size="13" lengthAdjust="spacing" textLength="95" x="1496.5" y="1204.8154">user story ID230</text><polygon fill="#181818" points="1287.5,1236.0234,1277.5,1240.0234,1287.5,1244.0234,1283.5,1240.0234" style="stroke:#181818;stroke-width:1.0;"/><line style="stroke:#181818;stroke-width:1.0;stroke-dasharray:2.0,2.0;" x1="1281.5" x2="1413.5" y1="1240.0234" y2="1240.0234"/><text fill="#000000" font-family="sans-serif" font-size="13" lengthAdjust="spacing" textLength="62" x="1293.5" y="1235.167">return map</text><polygon fill="#181818" points="916,1266.375,906,1270.375,916,1274.375,912,1270.375" style="stroke:#181818;stroke-width:1.0;"/><line style="stroke:#181818;stroke-width:1.0;stroke-dasharray:2.0,2.0;" x1="910" x2="1265.5" y1="1270.375" y2="1270.375"/><text fill="#000000" font-family="sans-serif" font-size="13" lengthAdjust="spacing" textLength="62" x="922" y="1265.5186">return map</text><polygon fill="#181818" points="532,1296.7266,522,1300.7266,532,1304.7266,528,1300.7266" style="stroke:#181818;stroke-width:1.0;"/><line style="stroke:#181818;stroke-width:1.0;stroke-dasharray:2.0,2.0;" x1="526" x2="894" y1="1300.7266" y2="1300.7266"/><text fill="#000000" font-family="sans-serif" font-size="13" lengthAdjust="spacing" textLength="62" x="538" y="1295.8701">return map</text><polygon fill="#181818" points="304,1327.0781,294,1331.0781,304,1335.0781,300,1331.0781" style="stroke:#181818;stroke-width:1.0;"/><line style="stroke:#181818;stroke-width:1.0;stroke-dasharray:2.0,2.0;" x1="298" x2="510" y1="1331.0781" y2="1331.0781"/><text fill="#000000" font-family="sans-serif" font-size="13" lengthAdjust="spacing" textLength="194" x="310" y="1326.2217">return uploaded map successfully</text><polygon fill="#181818" points="79,1357.4297,69,1361.4297,79,1365.4297,75,1361.4297" style="stroke:#181818;stroke-width:1.0;"/><line style="stroke:#181818;stroke-width:1.0;stroke-dasharray:2.0,2.0;" x1="73" x2="282" y1="1361.4297" y2="1361.4297"/><text fill="#000000" font-family="sans-serif" font-size="13" lengthAdjust="spacing" textLength="191" x="85" y="1356.5732">show uploaded map successfully</text><!--MD5=[c3b9293f4442d62813113a8c1d93d95d]
@startuml SD Lv3

!pragma teoz true

participant "Campus manager" as Campus
box "Campus Management UI" #LightBlue

    box "View"
        participant "HTML + CSS + JS" as html
        participant "Component" as component
    end box
    participant "Building Service" as buildingService
    participant "Floor Service" as floorService
    participant "Map Service" as mapService
    participant "API Routes" as API_ROUTES
    participant "Http driver" as http

end box
participant "Campus Management API" as CampusAPI


Campus -> html : load route
activate html

    html -> component : load all buildings
    activate component

        component -> buildingService : get all buildings
        activate buildingService

            buildingService -> API_ROUTES : building.getAll
            activate API_ROUTES

            API_ROUTES - -> buildingService : api route
            deactivate API_ROUTES

            buildingService -> http : get(api route)
            activate http

                http -> CampusAPI : send request
                activate CampusAPI

                    CampusAPI -> CampusAPI : list all buildings
                    note right : procedures in the\nuser story ID170
                    
                CampusAPI - -> http : return list
                deactivate CampusAPI

            http - -> buildingService : return list
            deactivate http

        buildingService - -> component : return list
        deactivate buildingService

    component - -> html : return buildings
    deactivate component

html - -> Campus : show list buildings

Campus - -> html : select building

    html -> component : load all floors
    activate component

        component -> floorService : get getFloorsByBuildingCode(buildingCode)
        activate floorService

            floorService -> API_ROUTES : floor.getByBuildingCode(buildingCode)
            activate API_ROUTES

            API_ROUTES - -> floorService : api route
            deactivate API_ROUTES

            floorService -> http : get(api route)
            activate http

                http -> CampusAPI : send request
                activate CampusAPI

                    CampusAPI -> CampusAPI : list all floors
                    note right : procedures in the\nuser story ID210
                    
                CampusAPI - -> http : return list
                deactivate CampusAPI

            http - -> floorService : return list
            deactivate http

        floorService - -> component : return list
        deactivate floorService
    
    component - -> html : return floors
    deactivate component

html - -> Campus : show list floors

Campus - -> html : select floor

Campus -> html : upload map

    html -> component : upload map
    activate component

        component -> mapService : uploadMap(map)
        activate mapService

            mapService -> API_ROUTES : map.uploadMap(buildingCode, floorNumber)
            activate API_ROUTES

            API_ROUTES - -> mapService : api route
            deactivate API_ROUTES

            mapService -> http : patch(api route, map)
            activate http

                http -> CampusAPI : send request
                activate CampusAPI

                    CampusAPI -> CampusAPI : get map
                    note right : procedures in the\nuser story ID230
                    
                CampusAPI - -> http : return map
                deactivate CampusAPI

            http - -> mapService : return map
            deactivate http

        mapService - -> component : return map
        deactivate mapService

    component - -> html : return uploaded map successfully
    deactivate component

html - -> Campus : show uploaded map successfully
deactivate html


@enduml

PlantUML version 1.2022.7(Mon Aug 22 18:01:30 BST 2022)
(GPL source distribution)
Java Runtime: Java(TM) SE Runtime Environment
JVM: Java HotSpot(TM) 64-Bit Server VM
Default Encoding: Cp1252
Language: pt
Country: PT
--></g></svg>