<?xml version="1.0" encoding="UTF-8" standalone="no"?><svg xmlns="http://www.w3.org/2000/svg" xmlns:xlink="http://www.w3.org/1999/xlink" contentStyleType="text/css" height="279px" preserveAspectRatio="none" style="width:368px;height:279px;background:#FFFFFF;" version="1.1" viewBox="0 0 368 279" width="368px" zoomAndPan="magnify"><defs/><g><rect fill="#FFFFFF" height="146.4063" style="stroke:#181818;stroke-width:1.0;" width="10" x="226" y="86.3125"/><rect fill="none" height="124.4063" style="stroke:#000000;stroke-width:1.5;" width="350" x="11" y="101.3125"/><line style="stroke:#181818;stroke-width:0.5;stroke-dasharray:5.0,5.0;" x1="231" x2="231" y1="37.6094" y2="242.7188"/><rect fill="#E2E2F0" height="31.6094" rx="2.5" ry="2.5" style="stroke:#181818;stroke-width:0.5;" width="152" x="155" y="5"/><text fill="#000000" font-family="sans-serif" font-size="14" lengthAdjust="spacing" textLength="138" x="162" y="26.5332">Campus Management</text><rect fill="#E2E2F0" height="31.6094" rx="2.5" ry="2.5" style="stroke:#181818;stroke-width:0.5;" width="152" x="155" y="241.7188"/><text fill="#000000" font-family="sans-serif" font-size="14" lengthAdjust="spacing" textLength="138" x="162" y="263.252">Campus Management</text><rect fill="#FFFFFF" height="146.4063" style="stroke:#181818;stroke-width:1.0;" width="10" x="226" y="86.3125"/><ellipse cx="7.5" cy="85.5625" fill="none" rx="4" ry="4" style="stroke:#181818;stroke-width:1.5;"/><polygon fill="#181818" points="214,82.3125,224,86.3125,214,90.3125,218,86.3125" style="stroke:#181818;stroke-width:1.0;"/><line style="stroke:#181818;stroke-width:1.0;" x1="12" x2="220" y1="86.3125" y2="86.3125"/><text fill="#000000" font-family="sans-serif" font-size="13" lengthAdjust="spacing" textLength="199" x="15" y="65.1045">GET /passages?building1={code1}</text><text fill="#000000" font-family="sans-serif" font-size="13" lengthAdjust="spacing" textLength="111" x="47" y="81.4561">&amp;building2={code2}</text><path d="M11,101.3125 L72,101.3125 L72,109.6641 L62,119.6641 L11,119.6641 L11,101.3125 " fill="#EEEEEE" style="stroke:#000000;stroke-width:1.5;"/><rect fill="none" height="124.4063" style="stroke:#000000;stroke-width:1.5;" width="350" x="11" y="101.3125"/><text fill="#000000" font-family="sans-serif" font-size="13" font-weight="bold" lengthAdjust="spacing" textLength="16" x="26" y="115.8076">alt</text><text fill="#000000" font-family="sans-serif" font-size="11" font-weight="bold" lengthAdjust="spacing" textLength="208" x="87" y="114.7314">[if passages exist between buildings]</text><line style="stroke:#181818;stroke-width:1.0;" x1="236" x2="278" y1="142.0156" y2="142.0156"/><line style="stroke:#181818;stroke-width:1.0;" x1="278" x2="278" y1="142.0156" y2="155.0156"/><line style="stroke:#181818;stroke-width:1.0;" x1="237" x2="278" y1="155.0156" y2="155.0156"/><polygon fill="#181818" points="247,151.0156,237,155.0156,247,159.0156,243,155.0156" style="stroke:#181818;stroke-width:1.0;"/><text fill="#000000" font-family="sans-serif" font-size="13" lengthAdjust="spacing" textLength="106" x="243" y="137.1592">Retrieve passages</text><ellipse cx="7.5" cy="184.6172" fill="none" rx="4" ry="4" style="stroke:#181818;stroke-width:1.5;"/><polygon fill="#181818" points="24.5,181.3672,14.5,185.3672,24.5,189.3672,20.5,185.3672" style="stroke:#181818;stroke-width:1.0;"/><ellipse cx="225.5" cy="184.6172" fill="none" rx="4" ry="4" style="stroke:#181818;stroke-width:1.5;"/><line style="stroke:#181818;stroke-width:1.0;stroke-dasharray:2.0,2.0;" x1="22.5" x2="221" y1="185.3672" y2="185.3672"/><text fill="#000000" font-family="sans-serif" font-size="13" lengthAdjust="spacing" textLength="77" x="25" y="180.5107">passages list</text><line style="stroke:#000000;stroke-width:1.0;stroke-dasharray:2.0,2.0;" x1="11" x2="361" y1="194.3672" y2="194.3672"/><ellipse cx="7.5" cy="216.9688" fill="none" rx="4" ry="4" style="stroke:#181818;stroke-width:1.5;"/><polygon fill="#181818" points="24.5,213.7188,14.5,217.7188,24.5,221.7188,20.5,217.7188" style="stroke:#181818;stroke-width:1.0;"/><ellipse cx="225.5" cy="216.9688" fill="none" rx="4" ry="4" style="stroke:#181818;stroke-width:1.5;"/><line style="stroke:#181818;stroke-width:1.0;stroke-dasharray:2.0,2.0;" x1="22.5" x2="221" y1="217.7188" y2="217.7188"/><text fill="#000000" font-family="sans-serif" font-size="13" lengthAdjust="spacing" textLength="57" x="25" y="212.8623">empty list</text><!--MD5=[522e0b4c55b1c573db9f053ab2419b3c]
@startuml SD Lv1

participant "Campus Management" as system

[o-> system : GET /passages?building1={code1}\n\t&building2={code2}
activate system

alt if passages exist between buildings
    system -> system : Retrieve passages
    [o<- -o system : passages list
else
    [o<- -o system : empty list
end

deactivate system

@enduml

PlantUML version 1.2022.7(Mon Aug 22 18:01:30 BST 2022)
(GPL source distribution)
Java Runtime: Java(TM) SE Runtime Environment
JVM: Java HotSpot(TM) Client VM
Default Encoding: Cp1252
Language: en
Country: US
--></g></svg>