<?xml version="1.0" encoding="UTF-8" standalone="no"?><svg xmlns="http://www.w3.org/2000/svg" xmlns:xlink="http://www.w3.org/1999/xlink" contentStyleType="text/css" height="654px" preserveAspectRatio="none" style="width:1854px;height:654px;background:#FFFFFF;" version="1.1" viewBox="0 0 1854 654" width="1854px" zoomAndPan="magnify"><defs/><g><rect fill="#ADD8E6" height="642.5469" style="stroke:#181818;stroke-width:0.5;" width="869" x="190" y="6"/><text fill="#000000" font-family="sans-serif" font-size="13" font-weight="bold" lengthAdjust="spacing" textLength="98" x="575.5" y="19.4951">RobDroneGo UI</text><rect fill="#DDDDDD" height="621.1953" style="stroke:#181818;stroke-width:0.5;" width="379" x="190" y="27.3516"/><text fill="#000000" font-family="sans-serif" font-size="13" font-weight="bold" lengthAdjust="spacing" textLength="32" x="363.5" y="40.8467">View</text><rect fill="#DDDDDD" height="642.5469" style="stroke:#181818;stroke-width:0.5;" width="369" x="1135" y="6"/><text fill="#000000" font-family="sans-serif" font-size="13" font-weight="bold" lengthAdjust="spacing" textLength="139" x="1250" y="19.4951">RobDroneGo backend</text><line style="stroke:#181818;stroke-width:0.5;stroke-dasharray:5.0,5.0;" x1="62" x2="62" y1="80.3125" y2="609.9375"/><line style="stroke:#181818;stroke-width:0.5;stroke-dasharray:5.0,5.0;" x1="257" x2="257" y1="80.3125" y2="609.9375"/><rect fill="#FFFFFF" height="377.2188" style="stroke:#181818;stroke-width:1.0;" width="10" x="252" y="110.6641"/><line style="stroke:#181818;stroke-width:0.5;stroke-dasharray:5.0,5.0;" x1="503" x2="503" y1="80.3125" y2="609.9375"/><rect fill="#FFFFFF" height="316.5156" style="stroke:#181818;stroke-width:1.0;" width="10" x="498" y="141.0156"/><line style="stroke:#181818;stroke-width:0.5;stroke-dasharray:5.0,5.0;" x1="685" x2="685" y1="80.3125" y2="609.9375"/><rect fill="#FFFFFF" height="255.8125" style="stroke:#181818;stroke-width:1.0;" width="10" x="680" y="171.3672"/><line style="stroke:#181818;stroke-width:0.5;stroke-dasharray:5.0,5.0;" x1="916" x2="916" y1="80.3125" y2="609.9375"/><rect fill="#FFFFFF" height="30.3516" style="stroke:#181818;stroke-width:1.0;" width="10" x="911" y="201.7188"/><line style="stroke:#181818;stroke-width:0.5;stroke-dasharray:5.0,5.0;" x1="1011.5" x2="1011.5" y1="80.3125" y2="609.9375"/><rect fill="#FFFFFF" height="134.4063" style="stroke:#181818;stroke-width:1.0;" width="10" x="1006.5" y="262.4219"/><rect fill="#FFFFFF" height="114.0547" style="stroke:#181818;stroke-width:1.0;" width="10" x="1006.5" y="495.8828"/><line style="stroke:#181818;stroke-width:0.5;stroke-dasharray:5.0,5.0;" x1="1203.5" x2="1203.5" y1="80.3125" y2="609.9375"/><rect fill="#FFFFFF" height="73.7031" style="stroke:#181818;stroke-width:1.0;" width="10" x="1198.5" y="292.7734"/><line style="stroke:#181818;stroke-width:0.5;stroke-dasharray:5.0,5.0;" x1="1412.5" x2="1412.5" y1="80.3125" y2="609.9375"/><rect fill="#FFFFFF" height="73.7031" style="stroke:#181818;stroke-width:1.0;" width="10" x="1407.5" y="518.2344"/><rect fill="#E2E2F0" height="31.6094" rx="2.5" ry="2.5" style="stroke:#181818;stroke-width:0.5;" width="114" x="5" y="47.7031"/><text fill="#000000" font-family="sans-serif" font-size="14" lengthAdjust="spacing" textLength="100" x="12" y="69.2363">RobDroneGo UI</text><rect fill="#E2E2F0" height="31.6094" rx="2.5" ry="2.5" style="stroke:#181818;stroke-width:0.5;" width="126" x="194" y="47.7031"/><text fill="#000000" font-family="sans-serif" font-size="14" lengthAdjust="spacing" textLength="112" x="201" y="69.2363">HTML + CSS + JS</text><rect fill="#E2E2F0" height="31.6094" rx="2.5" ry="2.5" style="stroke:#181818;stroke-width:0.5;" width="124" x="441" y="47.7031"/><text fill="#000000" font-family="sans-serif" font-size="14" lengthAdjust="spacing" textLength="110" x="448" y="69.2363">Form Component</text><rect fill="#E2E2F0" height="31.6094" rx="2.5" ry="2.5" style="stroke:#181818;stroke-width:0.5;" width="77" x="646.5" y="47.7031"/><text fill="#000000" font-family="sans-serif" font-size="14" lengthAdjust="spacing" textLength="63" x="653.5" y="69.2363">UI Service</text><rect fill="#E2E2F0" height="31.6094" rx="2.5" ry="2.5" style="stroke:#181818;stroke-width:0.5;" width="84" x="874" y="47.7031"/><text fill="#000000" font-family="sans-serif" font-size="14" lengthAdjust="spacing" textLength="70" x="881" y="69.2363">API Routes</text><rect fill="#E2E2F0" height="31.6094" rx="2.5" ry="2.5" style="stroke:#181818;stroke-width:0.5;" width="87" x="968" y="47.7031"/><text fill="#000000" font-family="sans-serif" font-size="14" lengthAdjust="spacing" textLength="73" x="975" y="69.2363">HTTP client</text><rect fill="#E2E2F0" height="31.6094" rx="2.5" ry="2.5" style="stroke:#181818;stroke-width:0.5;" width="129" x="1139" y="47.7031"/><text fill="#000000" font-family="sans-serif" font-size="14" lengthAdjust="spacing" textLength="115" x="1146" y="69.2363">Authentication API</text><rect fill="#E2E2F0" height="31.6094" rx="2.5" ry="2.5" style="stroke:#181818;stroke-width:0.5;" width="175" x="1325" y="47.7031"/><text fill="#000000" font-family="sans-serif" font-size="14" lengthAdjust="spacing" textLength="161" x="1332" y="69.2363">Building Management API</text><rect fill="#E2E2F0" height="31.6094" rx="2.5" ry="2.5" style="stroke:#181818;stroke-width:0.5;" width="114" x="5" y="609.9375"/><text fill="#000000" font-family="sans-serif" font-size="14" lengthAdjust="spacing" textLength="100" x="12" y="631.4707">RobDroneGo UI</text><rect fill="#E2E2F0" height="31.6094" rx="2.5" ry="2.5" style="stroke:#181818;stroke-width:0.5;" width="126" x="194" y="609.9375"/><text fill="#000000" font-family="sans-serif" font-size="14" lengthAdjust="spacing" textLength="112" x="201" y="631.4707">HTML + CSS + JS</text><rect fill="#E2E2F0" height="31.6094" rx="2.5" ry="2.5" style="stroke:#181818;stroke-width:0.5;" width="124" x="441" y="609.9375"/><text fill="#000000" font-family="sans-serif" font-size="14" lengthAdjust="spacing" textLength="110" x="448" y="631.4707">Form Component</text><rect fill="#E2E2F0" height="31.6094" rx="2.5" ry="2.5" style="stroke:#181818;stroke-width:0.5;" width="77" x="646.5" y="609.9375"/><text fill="#000000" font-family="sans-serif" font-size="14" lengthAdjust="spacing" textLength="63" x="653.5" y="631.4707">UI Service</text><rect fill="#E2E2F0" height="31.6094" rx="2.5" ry="2.5" style="stroke:#181818;stroke-width:0.5;" width="84" x="874" y="609.9375"/><text fill="#000000" font-family="sans-serif" font-size="14" lengthAdjust="spacing" textLength="70" x="881" y="631.4707">API Routes</text><rect fill="#E2E2F0" height="31.6094" rx="2.5" ry="2.5" style="stroke:#181818;stroke-width:0.5;" width="87" x="968" y="609.9375"/><text fill="#000000" font-family="sans-serif" font-size="14" lengthAdjust="spacing" textLength="73" x="975" y="631.4707">HTTP client</text><rect fill="#E2E2F0" height="31.6094" rx="2.5" ry="2.5" style="stroke:#181818;stroke-width:0.5;" width="129" x="1139" y="609.9375"/><text fill="#000000" font-family="sans-serif" font-size="14" lengthAdjust="spacing" textLength="115" x="1146" y="631.4707">Authentication API</text><rect fill="#E2E2F0" height="31.6094" rx="2.5" ry="2.5" style="stroke:#181818;stroke-width:0.5;" width="175" x="1325" y="609.9375"/><text fill="#000000" font-family="sans-serif" font-size="14" lengthAdjust="spacing" textLength="161" x="1332" y="631.4707">Building Management API</text><polygon fill="#181818" points="240,106.6641,250,110.6641,240,114.6641,244,110.6641" style="stroke:#181818;stroke-width:1.0;"/><line style="stroke:#181818;stroke-width:1.0;" x1="62" x2="246" y1="110.6641" y2="110.6641"/><text fill="#000000" font-family="sans-serif" font-size="13" lengthAdjust="spacing" textLength="160" x="69" y="105.8076">Request ecreate room page</text><polygon fill="#181818" points="486,137.0156,496,141.0156,486,145.0156,490,141.0156" style="stroke:#181818;stroke-width:1.0;"/><line style="stroke:#181818;stroke-width:1.0;" x1="262" x2="492" y1="141.0156" y2="141.0156"/><text fill="#000000" font-family="sans-serif" font-size="13" lengthAdjust="spacing" textLength="140" x="269" y="136.1592">Load room creation form</text><polygon fill="#181818" points="668,167.3672,678,171.3672,668,175.3672,672,171.3672" style="stroke:#181818;stroke-width:1.0;"/><line style="stroke:#181818;stroke-width:1.0;" x1="508" x2="674" y1="171.3672" y2="171.3672"/><text fill="#000000" font-family="sans-serif" font-size="13" lengthAdjust="spacing" textLength="153" x="515" y="166.5107">Submit room creation form</text><polygon fill="#181818" points="899,197.7188,909,201.7188,899,205.7188,903,201.7188" style="stroke:#181818;stroke-width:1.0;"/><line style="stroke:#181818;stroke-width:1.0;" x1="690" x2="905" y1="201.7188" y2="201.7188"/><text fill="#000000" font-family="sans-serif" font-size="13" lengthAdjust="spacing" textLength="202" x="697" y="196.8623">Fetch auth and room creation APIs</text><polygon fill="#181818" points="701,228.0703,691,232.0703,701,236.0703,697,232.0703" style="stroke:#181818;stroke-width:1.0;"/><line style="stroke:#181818;stroke-width:1.0;stroke-dasharray:2.0,2.0;" x1="695" x2="910" y1="232.0703" y2="232.0703"/><text fill="#000000" font-family="sans-serif" font-size="13" lengthAdjust="spacing" textLength="81" x="707" y="227.2139">API endpoints</text><polygon fill="#181818" points="994.5,258.4219,1004.5,262.4219,994.5,266.4219,998.5,262.4219" style="stroke:#181818;stroke-width:1.0;"/><line style="stroke:#181818;stroke-width:1.0;" x1="690" x2="1000.5" y1="262.4219" y2="262.4219"/><text fill="#000000" font-family="sans-serif" font-size="13" lengthAdjust="spacing" textLength="228" x="697" y="257.5654">POST api/room/create (auth&amp;room info)</text><polygon fill="#181818" points="1186.5,288.7734,1196.5,292.7734,1186.5,296.7734,1190.5,292.7734" style="stroke:#181818;stroke-width:1.0;"/><line style="stroke:#181818;stroke-width:1.0;" x1="1016.5" x2="1192.5" y1="292.7734" y2="292.7734"/><text fill="#000000" font-family="sans-serif" font-size="13" lengthAdjust="spacing" textLength="143" x="1023.5" y="287.917">Validate user permission</text><line style="stroke:#181818;stroke-width:1.0;" x1="1208.5" x2="1250.5" y1="323.125" y2="323.125"/><line style="stroke:#181818;stroke-width:1.0;" x1="1250.5" x2="1250.5" y1="323.125" y2="336.125"/><line style="stroke:#181818;stroke-width:1.0;" x1="1209.5" x2="1250.5" y1="336.125" y2="336.125"/><polygon fill="#181818" points="1219.5,332.125,1209.5,336.125,1219.5,340.125,1215.5,336.125" style="stroke:#181818;stroke-width:1.0;"/><text fill="#000000" font-family="sans-serif" font-size="13" lengthAdjust="spacing" textLength="190" x="1215.5" y="318.2686">Check user role and permissions</text><polygon fill="#181818" points="1027.5,362.4766,1017.5,366.4766,1027.5,370.4766,1023.5,366.4766" style="stroke:#181818;stroke-width:1.0;"/><line style="stroke:#181818;stroke-width:1.0;stroke-dasharray:2.0,2.0;" x1="1021.5" x2="1197.5" y1="366.4766" y2="366.4766"/><text fill="#000000" font-family="sans-serif" font-size="13" lengthAdjust="spacing" textLength="158" x="1033.5" y="361.6201">Permission validation result</text><polygon fill="#181818" points="701,392.8281,691,396.8281,701,400.8281,697,396.8281" style="stroke:#181818;stroke-width:1.0;"/><line style="stroke:#181818;stroke-width:1.0;stroke-dasharray:2.0,2.0;" x1="695" x2="1005.5" y1="396.8281" y2="396.8281"/><text fill="#000000" font-family="sans-serif" font-size="13" lengthAdjust="spacing" textLength="124" x="707" y="391.9717">Room creation status</text><polygon fill="#181818" points="519,423.1797,509,427.1797,519,431.1797,515,427.1797" style="stroke:#181818;stroke-width:1.0;"/><line style="stroke:#181818;stroke-width:1.0;stroke-dasharray:2.0,2.0;" x1="513" x2="679" y1="427.1797" y2="427.1797"/><text fill="#000000" font-family="sans-serif" font-size="13" lengthAdjust="spacing" textLength="127" x="525" y="422.3232">Display status to user</text><polygon fill="#181818" points="273,453.5313,263,457.5313,273,461.5313,269,457.5313" style="stroke:#181818;stroke-width:1.0;"/><line style="stroke:#181818;stroke-width:1.0;stroke-dasharray:2.0,2.0;" x1="267" x2="497" y1="457.5313" y2="457.5313"/><text fill="#000000" font-family="sans-serif" font-size="13" lengthAdjust="spacing" textLength="212" x="279" y="452.6748">Show room creation status message</text><polygon fill="#181818" points="73,483.8828,63,487.8828,73,491.8828,69,487.8828" style="stroke:#181818;stroke-width:1.0;"/><line style="stroke:#181818;stroke-width:1.0;stroke-dasharray:2.0,2.0;" x1="67" x2="251" y1="487.8828" y2="487.8828"/><text fill="#000000" font-family="sans-serif" font-size="13" lengthAdjust="spacing" textLength="166" x="79" y="483.0264">Display room creatoin status</text><polygon fill="#181818" points="1395.5,514.2344,1405.5,518.2344,1395.5,522.2344,1399.5,518.2344" style="stroke:#181818;stroke-width:1.0;"/><line style="stroke:#181818;stroke-width:1.0;" x1="1016.5" x2="1401.5" y1="518.2344" y2="518.2344"/><text fill="#000000" font-family="sans-serif" font-size="13" lengthAdjust="spacing" textLength="118" x="1023.5" y="513.3779">Create room request</text><line style="stroke:#181818;stroke-width:1.0;" x1="1417.5" x2="1459.5" y1="548.5859" y2="548.5859"/><line style="stroke:#181818;stroke-width:1.0;" x1="1459.5" x2="1459.5" y1="548.5859" y2="561.5859"/><line style="stroke:#181818;stroke-width:1.0;" x1="1418.5" x2="1459.5" y1="561.5859" y2="561.5859"/><polygon fill="#181818" points="1428.5,557.5859,1418.5,561.5859,1428.5,565.5859,1424.5,561.5859" style="stroke:#181818;stroke-width:1.0;"/><text fill="#000000" font-family="sans-serif" font-size="13" lengthAdjust="spacing" textLength="129" x="1424.5" y="543.7295">Create and store room</text><path d="M1565.5,531.2344 L1565.5,557.2344 L1847.5,557.2344 L1847.5,541.2344 L1837.5,531.2344 L1565.5,531.2344 " fill="#FEFFDD" style="stroke:#181818;stroke-width:0.5;"/><path d="M1837.5,531.2344 L1837.5,541.2344 L1847.5,541.2344 L1837.5,531.2344 " fill="#FEFFDD" style="stroke:#181818;stroke-width:0.5;"/><text fill="#000000" font-family="sans-serif" font-size="13" lengthAdjust="spacing" textLength="261" x="1571.5" y="549.7295">Room creation process is in user story ID310</text><polygon fill="#181818" points="1027.5,587.9375,1017.5,591.9375,1027.5,595.9375,1023.5,591.9375" style="stroke:#181818;stroke-width:1.0;"/><line style="stroke:#181818;stroke-width:1.0;stroke-dasharray:2.0,2.0;" x1="1021.5" x2="1406.5" y1="591.9375" y2="591.9375"/><text fill="#000000" font-family="sans-serif" font-size="13" lengthAdjust="spacing" textLength="141" x="1033.5" y="587.0811">Room creation response</text><!--MD5=[3d1db2b737d8f32fe802d734c5cfbb31]
@startuml SD Lv3

!pragma teoz true

participant "RobDroneGo UI" as CampusUI
box "RobDroneGo UI" #LightBlue
    box "View"
        participant "HTML + CSS + JS" as html
        participant "Form Component" as component
    end box
    participant "UI Service" as UIService
  
    participant "API Routes" as API_ROUTES
    participant "HTTP client" as http
end box

box "RobDroneGo backend" 
participant "Authentication API" as AuthAPI
participant "Building Management API" as BuildingAPI

CampusUI -> html : Request ecreate room page
activate html
    html -> component : Load room creation form
    activate component
        component -> UIService : Submit room creation form
        activate UIService
            UIService -> API_ROUTES : Fetch auth and room creation APIs
            activate API_ROUTES
            API_ROUTES - -> UIService : API endpoints
            deactivate API_ROUTES

            UIService -> http : POST api/room/create (auth&room info)
            activate http
                http -> AuthAPI : Validate user permission
                activate AuthAPI
                    AuthAPI -> AuthAPI : Check user role and permissions
                AuthAPI - -> http : Permission validation result
                deactivate AuthAPI
            http - -> UIService : Room creation status
            deactivate http
        UIService - -> component : Display status to user
        deactivate UIService
    html <- - component : Show room creation status message
    deactivate component    
CampusUI <- - html : Display room creatoin status
deactivate html

activate http
http -> BuildingAPI : Create room request
activate BuildingAPI
BuildingAPI -> BuildingAPI: Create and store room
note right : Room creation process is in user story ID310 
http <- - BuildingAPI : Room creation response
deactivate BuildingAPI



@enduml

PlantUML version 1.2022.7(Mon Aug 22 17:01:30 GMT 2022)
(GPL source distribution)
Java Runtime: OpenJDK Runtime Environment
JVM: OpenJDK 64-Bit Server VM
Default Encoding: Cp1252
Language: fi
Country: FI
--></g></svg>