<?xml version="1.0" encoding="UTF-8" standalone="no"?><svg xmlns="http://www.w3.org/2000/svg" xmlns:xlink="http://www.w3.org/1999/xlink" contentStyleType="text/css" height="791px" preserveAspectRatio="none" style="width:1234px;height:791px;background:#FFFFFF;" version="1.1" viewBox="0 0 1234 791" width="1234px" zoomAndPan="magnify"><defs/><g><rect fill="#ADD8E6" height="779.7891" style="stroke:#181818;stroke-width:0.5;" width="1042.5" x="185.5" y="6"/><text fill="#000000" font-family="sans-serif" font-size="13" font-weight="bold" lengthAdjust="spacing" textLength="138" x="637.75" y="19.4951">Campus Management</text><rect fill="#00FFFF" height="758.4375" style="stroke:#181818;stroke-width:0.5;" width="225" x="185.5" y="27.3516"/><text fill="#000000" font-family="sans-serif" font-size="13" font-weight="bold" lengthAdjust="spacing" textLength="189" x="203.5" y="40.8467">Framework And Drivers Layer</text><rect fill="#77FFAA" height="758.4375" style="stroke:#181818;stroke-width:0.5;" width="284" x="518.5" y="27.3516"/><text fill="#000000" font-family="sans-serif" font-size="13" font-weight="bold" lengthAdjust="spacing" textLength="156" x="582.5" y="40.8467">Interface Adapters Layer</text><rect fill="#FF6666" height="758.4375" style="stroke:#181818;stroke-width:0.5;" width="194" x="1034" y="27.3516"/><text fill="#000000" font-family="sans-serif" font-size="13" font-weight="bold" lengthAdjust="spacing" textLength="170" x="1046" y="40.8467">Application Business Rules</text><rect fill="none" height="388.0547" style="stroke:#000000;stroke-width:1.5;" width="999.5" x="205" y="304.7734"/><line style="stroke:#181818;stroke-width:0.5;stroke-dasharray:5.0,5.0;" x1="221" x2="221" y1="80.3125" y2="747.1797"/><rect fill="#FFFFFF" height="618.5156" style="stroke:#181818;stroke-width:1.0;" width="10" x="216" y="110.6641"/><line style="stroke:#181818;stroke-width:0.5;stroke-dasharray:5.0,5.0;" x1="334.5" x2="334.5" y1="80.3125" y2="747.1797"/><line style="stroke:#181818;stroke-width:0.5;stroke-dasharray:5.0,5.0;" x1="469.5" x2="469.5" y1="80.3125" y2="747.1797"/><line style="stroke:#181818;stroke-width:0.5;stroke-dasharray:5.0,5.0;" x1="587.5" x2="587.5" y1="80.3125" y2="747.1797"/><rect fill="#FFFFFF" height="570.8125" style="stroke:#181818;stroke-width:1.0;" width="10" x="582.5" y="141.0156"/><line style="stroke:#181818;stroke-width:0.5;stroke-dasharray:5.0,5.0;" x1="730.5" x2="730.5" y1="80.3125" y2="747.1797"/><rect fill="#FFFFFF" height="60.7031" style="stroke:#181818;stroke-width:1.0;" width="10" x="725.5" y="201.7188"/><rect fill="#FFFFFF" height="60.7031" style="stroke:#181818;stroke-width:1.0;" width="10" x="725.5" y="442.0156"/><line style="stroke:#181818;stroke-width:0.5;stroke-dasharray:5.0,5.0;" x1="868.5" x2="868.5" y1="80.3125" y2="747.1797"/><rect fill="#FFFFFF" height="30.3516" style="stroke:#181818;stroke-width:1.0;" width="10" x="863.5" y="563.4219"/><line style="stroke:#181818;stroke-width:0.5;stroke-dasharray:5.0,5.0;" x1="979.5" x2="979.5" y1="80.3125" y2="747.1797"/><rect fill="#FFFFFF" height="91.0547" style="stroke:#181818;stroke-width:1.0;" width="10" x="974.5" y="533.0703"/><line style="stroke:#181818;stroke-width:0.5;stroke-dasharray:5.0,5.0;" x1="1131" x2="1131" y1="80.3125" y2="747.1797"/><rect fill="#FFFFFF" height="121.4063" style="stroke:#181818;stroke-width:1.0;" width="10" x="1126" y="171.3672"/><rect fill="#FFFFFF" height="242.8125" style="stroke:#181818;stroke-width:1.0;" width="10" x="1126" y="411.6641"/><rect fill="#E2E2F0" height="31.6094" rx="2.5" ry="2.5" style="stroke:#181818;stroke-width:0.5;" width="63" x="189.5" y="47.7031"/><text fill="#000000" font-family="sans-serif" font-size="14" lengthAdjust="spacing" textLength="49" x="196.5" y="69.2363">Routing</text><rect fill="#E2E2F0" height="31.6094" rx="2.5" ry="2.5" style="stroke:#181818;stroke-width:0.5;" width="144" x="262.5" y="47.7031"/><text fill="#000000" font-family="sans-serif" font-size="14" lengthAdjust="spacing" textLength="130" x="269.5" y="69.2363">Elevator Persistence</text><rect fill="#E2E2F0" height="31.6094" rx="2.5" ry="2.5" style="stroke:#181818;stroke-width:0.5;" width="86" x="426.5" y="47.7031"/><text fill="#000000" font-family="sans-serif" font-size="14" lengthAdjust="spacing" textLength="72" x="433.5" y="69.2363">Data Model</text><rect fill="#E2E2F0" height="31.6094" rx="2.5" ry="2.5" style="stroke:#181818;stroke-width:0.5;" width="130" x="522.5" y="47.7031"/><text fill="#000000" font-family="sans-serif" font-size="14" lengthAdjust="spacing" textLength="116" x="529.5" y="69.2363">Building Controller</text><rect fill="#E2E2F0" height="31.6094" rx="2.5" ry="2.5" style="stroke:#181818;stroke-width:0.5;" width="136" x="662.5" y="47.7031"/><text fill="#000000" font-family="sans-serif" font-size="14" lengthAdjust="spacing" textLength="122" x="669.5" y="69.2363">Building Repository</text><rect fill="#E2E2F0" height="31.6094" rx="2.5" ry="2.5" style="stroke:#181818;stroke-width:0.5;" width="100" x="818.5" y="47.7031"/><text fill="#000000" font-family="sans-serif" font-size="14" lengthAdjust="spacing" textLength="86" x="825.5" y="69.2363">Elevator DTO</text><rect fill="#E2E2F0" height="31.6094" rx="2.5" ry="2.5" style="stroke:#181818;stroke-width:0.5;" width="97" x="931" y="47.7031"/><text fill="#000000" font-family="sans-serif" font-size="14" lengthAdjust="spacing" textLength="83" x="938" y="69.2363">Elevator Map</text><rect fill="#E2E2F0" height="31.6094" rx="2.5" ry="2.5" style="stroke:#181818;stroke-width:0.5;" width="115" x="1073.5" y="47.7031"/><text fill="#000000" font-family="sans-serif" font-size="14" lengthAdjust="spacing" textLength="101" x="1080.5" y="69.2363">Building Service</text><rect fill="#E2E2F0" height="31.6094" rx="2.5" ry="2.5" style="stroke:#181818;stroke-width:0.5;" width="63" x="189.5" y="747.1797"/><text fill="#000000" font-family="sans-serif" font-size="14" lengthAdjust="spacing" textLength="49" x="196.5" y="768.7129">Routing</text><rect fill="#E2E2F0" height="31.6094" rx="2.5" ry="2.5" style="stroke:#181818;stroke-width:0.5;" width="144" x="262.5" y="747.1797"/><text fill="#000000" font-family="sans-serif" font-size="14" lengthAdjust="spacing" textLength="130" x="269.5" y="768.7129">Elevator Persistence</text><rect fill="#E2E2F0" height="31.6094" rx="2.5" ry="2.5" style="stroke:#181818;stroke-width:0.5;" width="86" x="426.5" y="747.1797"/><text fill="#000000" font-family="sans-serif" font-size="14" lengthAdjust="spacing" textLength="72" x="433.5" y="768.7129">Data Model</text><rect fill="#E2E2F0" height="31.6094" rx="2.5" ry="2.5" style="stroke:#181818;stroke-width:0.5;" width="130" x="522.5" y="747.1797"/><text fill="#000000" font-family="sans-serif" font-size="14" lengthAdjust="spacing" textLength="116" x="529.5" y="768.7129">Building Controller</text><rect fill="#E2E2F0" height="31.6094" rx="2.5" ry="2.5" style="stroke:#181818;stroke-width:0.5;" width="136" x="662.5" y="747.1797"/><text fill="#000000" font-family="sans-serif" font-size="14" lengthAdjust="spacing" textLength="122" x="669.5" y="768.7129">Building Repository</text><rect fill="#E2E2F0" height="31.6094" rx="2.5" ry="2.5" style="stroke:#181818;stroke-width:0.5;" width="100" x="818.5" y="747.1797"/><text fill="#000000" font-family="sans-serif" font-size="14" lengthAdjust="spacing" textLength="86" x="825.5" y="768.7129">Elevator DTO</text><rect fill="#E2E2F0" height="31.6094" rx="2.5" ry="2.5" style="stroke:#181818;stroke-width:0.5;" width="97" x="931" y="747.1797"/><text fill="#000000" font-family="sans-serif" font-size="14" lengthAdjust="spacing" textLength="83" x="938" y="768.7129">Elevator Map</text><rect fill="#E2E2F0" height="31.6094" rx="2.5" ry="2.5" style="stroke:#181818;stroke-width:0.5;" width="115" x="1073.5" y="747.1797"/><text fill="#000000" font-family="sans-serif" font-size="14" lengthAdjust="spacing" textLength="101" x="1080.5" y="768.7129">Building Service</text><ellipse cx="10.5" cy="109.9141" fill="none" rx="4" ry="4" style="stroke:#181818;stroke-width:1.5;"/><polygon fill="#181818" points="204,106.6641,214,110.6641,204,114.6641,208,110.6641" style="stroke:#181818;stroke-width:1.0;"/><line style="stroke:#181818;stroke-width:1.0;" x1="15" x2="210" y1="110.6641" y2="110.6641"/><text fill="#000000" font-family="sans-serif" font-size="13" lengthAdjust="spacing" textLength="169" x="18" y="105.8076">GET /building/:code/elevators</text><polygon fill="#181818" points="570.5,137.0156,580.5,141.0156,570.5,145.0156,574.5,141.0156" style="stroke:#181818;stroke-width:1.0;"/><line style="stroke:#181818;stroke-width:1.0;" x1="226" x2="576.5" y1="141.0156" y2="141.0156"/><text fill="#000000" font-family="sans-serif" font-size="13" lengthAdjust="spacing" textLength="211" x="233" y="136.1592">listElevatorsInBuilding(req, res, next)</text><polygon fill="#181818" points="1114,167.3672,1124,171.3672,1114,175.3672,1118,171.3672" style="stroke:#181818;stroke-width:1.0;"/><line style="stroke:#181818;stroke-width:1.0;" x1="592.5" x2="1120" y1="171.3672" y2="171.3672"/><text fill="#000000" font-family="sans-serif" font-size="13" lengthAdjust="spacing" textLength="192" x="599.5" y="166.5107">getBuildingByCode(buildingCode)</text><polygon fill="#181818" points="746.5,197.7188,736.5,201.7188,746.5,205.7188,742.5,201.7188" style="stroke:#181818;stroke-width:1.0;"/><line style="stroke:#181818;stroke-width:1.0;" x1="740.5" x2="1125" y1="201.7188" y2="201.7188"/><text fill="#000000" font-family="sans-serif" font-size="13" lengthAdjust="spacing" textLength="148" x="752.5" y="196.8623">findByCode(buildingCode)</text><polygon fill="#181818" points="345.5,228.0703,335.5,232.0703,345.5,236.0703,341.5,232.0703" style="stroke:#181818;stroke-width:1.0;"/><line style="stroke:#181818;stroke-width:1.0;" x1="339.5" x2="724.5" y1="232.0703" y2="232.0703"/><text fill="#000000" font-family="sans-serif" font-size="13" lengthAdjust="spacing" textLength="28" x="351.5" y="227.2139">find()</text><polygon fill="#181818" points="713.5,258.4219,723.5,262.4219,713.5,266.4219,717.5,262.4219" style="stroke:#181818;stroke-width:1.0;"/><line style="stroke:#181818;stroke-width:1.0;stroke-dasharray:2.0,2.0;" x1="334.5" x2="719.5" y1="262.4219" y2="262.4219"/><text fill="#000000" font-family="sans-serif" font-size="13" lengthAdjust="spacing" textLength="51" x="341.5" y="257.5654">building?</text><polygon fill="#181818" points="603.5,288.7734,593.5,292.7734,603.5,296.7734,599.5,292.7734" style="stroke:#181818;stroke-width:1.0;"/><line style="stroke:#181818;stroke-width:1.0;stroke-dasharray:2.0,2.0;" x1="597.5" x2="1125" y1="292.7734" y2="292.7734"/><text fill="#000000" font-family="sans-serif" font-size="13" lengthAdjust="spacing" textLength="81" x="609.5" y="287.917">buildingResult</text><path d="M205,304.7734 L266,304.7734 L266,313.125 L256,323.125 L205,323.125 L205,304.7734 " fill="#EEEEEE" style="stroke:#000000;stroke-width:1.5;"/><rect fill="none" height="388.0547" style="stroke:#000000;stroke-width:1.5;" width="999.5" x="205" y="304.7734"/><text fill="#000000" font-family="sans-serif" font-size="13" font-weight="bold" lengthAdjust="spacing" textLength="16" x="220" y="319.2686">alt</text><text fill="#000000" font-family="sans-serif" font-size="11" font-weight="bold" lengthAdjust="spacing" textLength="118" x="281" y="318.1924">[if building not found]</text><line style="stroke:#000000;stroke-width:1.0;stroke-dasharray:2.0,2.0;" x1="205" x2="1204.5" y1="374.4766" y2="374.4766"/><text fill="#000000" font-family="sans-serif" font-size="11" font-weight="bold" lengthAdjust="spacing" textLength="87" x="210" y="385.8955">[building found]</text><polygon fill="#181818" points="237,351.4766,227,355.4766,237,359.4766,233,355.4766" style="stroke:#181818;stroke-width:1.0;"/><line style="stroke:#181818;stroke-width:1.0;stroke-dasharray:2.0,2.0;" x1="231" x2="581.5" y1="355.4766" y2="355.4766"/><text fill="#000000" font-family="sans-serif" font-size="13" lengthAdjust="spacing" textLength="313" x="243" y="350.6201">res.status(404).json({ message: "Building not found" })</text><polygon fill="#181818" points="1114,407.6641,1124,411.6641,1114,415.6641,1118,411.6641" style="stroke:#181818;stroke-width:1.0;"/><line style="stroke:#181818;stroke-width:1.0;" x1="592.5" x2="1120" y1="411.6641" y2="411.6641"/><text fill="#000000" font-family="sans-serif" font-size="13" lengthAdjust="spacing" textLength="208" x="599.5" y="406.8076">listElevatorsInBuilding(buildingCode)</text><polygon fill="#181818" points="746.5,438.0156,736.5,442.0156,746.5,446.0156,742.5,442.0156" style="stroke:#181818;stroke-width:1.0;"/><line style="stroke:#181818;stroke-width:1.0;" x1="740.5" x2="1125" y1="442.0156" y2="442.0156"/><text fill="#000000" font-family="sans-serif" font-size="13" lengthAdjust="spacing" textLength="211" x="752.5" y="437.1592">findElevatorsInBuilding(buildingCode)</text><polygon fill="#181818" points="345.5,468.3672,335.5,472.3672,345.5,476.3672,341.5,472.3672" style="stroke:#181818;stroke-width:1.0;"/><line style="stroke:#181818;stroke-width:1.0;" x1="339.5" x2="724.5" y1="472.3672" y2="472.3672"/><text fill="#000000" font-family="sans-serif" font-size="13" lengthAdjust="spacing" textLength="81" x="351.5" y="467.5107">findElevators()</text><polygon fill="#181818" points="713.5,498.7188,723.5,502.7188,713.5,506.7188,717.5,502.7188" style="stroke:#181818;stroke-width:1.0;"/><line style="stroke:#181818;stroke-width:1.0;stroke-dasharray:2.0,2.0;" x1="334.5" x2="719.5" y1="502.7188" y2="502.7188"/><text fill="#000000" font-family="sans-serif" font-size="13" lengthAdjust="spacing" textLength="51" x="341.5" y="497.8623">elevators</text><polygon fill="#181818" points="995.5,529.0703,985.5,533.0703,995.5,537.0703,991.5,533.0703" style="stroke:#181818;stroke-width:1.0;"/><line style="stroke:#181818;stroke-width:1.0;" x1="989.5" x2="1125" y1="533.0703" y2="533.0703"/><text fill="#000000" font-family="sans-serif" font-size="13" lengthAdjust="spacing" textLength="96" x="1001.5" y="528.2139">toDTO(elevators)</text><polygon fill="#181818" points="884.5,559.4219,874.5,563.4219,884.5,567.4219,880.5,563.4219" style="stroke:#181818;stroke-width:1.0;"/><line style="stroke:#181818;stroke-width:1.0;" x1="878.5" x2="973.5" y1="563.4219" y2="563.4219"/><text fill="#000000" font-family="sans-serif" font-size="13" lengthAdjust="spacing" textLength="77" x="890.5" y="558.5654">createDTOs()</text><polygon fill="#181818" points="962.5,589.7734,972.5,593.7734,962.5,597.7734,966.5,593.7734" style="stroke:#181818;stroke-width:1.0;"/><line style="stroke:#181818;stroke-width:1.0;stroke-dasharray:2.0,2.0;" x1="873.5" x2="968.5" y1="593.7734" y2="593.7734"/><text fill="#000000" font-family="sans-serif" font-size="13" lengthAdjust="spacing" textLength="77" x="880.5" y="588.917">elevatorDTOs</text><polygon fill="#181818" points="1114,620.125,1124,624.125,1114,628.125,1118,624.125" style="stroke:#181818;stroke-width:1.0;"/><line style="stroke:#181818;stroke-width:1.0;stroke-dasharray:2.0,2.0;" x1="984.5" x2="1120" y1="624.125" y2="624.125"/><text fill="#000000" font-family="sans-serif" font-size="13" lengthAdjust="spacing" textLength="77" x="991.5" y="619.2686">elevatorDTOs</text><polygon fill="#181818" points="603.5,650.4766,593.5,654.4766,603.5,658.4766,599.5,654.4766" style="stroke:#181818;stroke-width:1.0;"/><line style="stroke:#181818;stroke-width:1.0;stroke-dasharray:2.0,2.0;" x1="597.5" x2="1125" y1="654.4766" y2="654.4766"/><text fill="#000000" font-family="sans-serif" font-size="13" lengthAdjust="spacing" textLength="239" x="609.5" y="649.6201">Result.ok&lt;IElevatorDTO[]&gt;(elevatorDTOs)</text><polygon fill="#181818" points="237,680.8281,227,684.8281,237,688.8281,233,684.8281" style="stroke:#181818;stroke-width:1.0;"/><line style="stroke:#181818;stroke-width:1.0;stroke-dasharray:2.0,2.0;" x1="231" x2="581.5" y1="684.8281" y2="684.8281"/><text fill="#000000" font-family="sans-serif" font-size="13" lengthAdjust="spacing" textLength="200" x="243" y="679.9717">res.status(200).json(elevatorDTOs)</text><ellipse cx="10.5" cy="728.4297" fill="none" rx="4" ry="4" style="stroke:#181818;stroke-width:1.5;"/><polygon fill="#181818" points="27.5,725.1797,17.5,729.1797,27.5,733.1797,23.5,729.1797" style="stroke:#181818;stroke-width:1.0;"/><ellipse cx="215.5" cy="728.4297" fill="none" rx="4" ry="4" style="stroke:#181818;stroke-width:1.5;"/><line style="stroke:#181818;stroke-width:1.0;stroke-dasharray:2.0,2.0;" x1="25.5" x2="211" y1="729.1797" y2="729.1797"/><text fill="#000000" font-family="sans-serif" font-size="13" lengthAdjust="spacing" textLength="192" x="28" y="724.3232">List of elevators or error message</text><!--MD5=[50c2431c23b87d3fe61c9af51e2e8e9b]
@startuml SD Lv3

!pragma teoz true

box "Campus Management" #LightBlue

    box "Framework And Drivers Layer" #00ffff
        participant Routing
        participant "Elevator Persistence" as ElevatorSchema
    end box

    participant "Data Model" as Data
    box "Interface Adapters Layer" #77ffaa
        participant "Building Controller" as Controller
        participant "Building Repository" as BuildingRepository
    end box

    participant "Elevator DTO" as ElevatorDTO
    participant "Elevator Map" as ElevatorMap
    box "Application Business Rules" #ff6666
        participant "Building Service" as Service
    end box

end box

[o-> Routing : GET /building/:code/elevators
activate Routing

    Routing -> Controller : listElevatorsInBuilding(req, res, next)
    activate Controller
        Controller -> Service : getBuildingByCode(buildingCode)
        activate Service
            Service -> BuildingRepository : findByCode(buildingCode)
            activate BuildingRepository
                BuildingRepository -> ElevatorSchema : find()
                ElevatorSchema - -> BuildingRepository : building?
            deactivate BuildingRepository
            Service - -> Controller : buildingResult
        deactivate Service

        alt if building not found
            Controller - -> Routing : res.status(404).json({ message: "Building not found" })
        else building found
            Controller -> Service : listElevatorsInBuilding(buildingCode)
            activate Service
                Service -> BuildingRepository : findElevatorsInBuilding(buildingCode)
                activate BuildingRepository
                    BuildingRepository -> ElevatorSchema : findElevators()
                    ElevatorSchema - -> BuildingRepository : elevators
                deactivate BuildingRepository

                Service -> ElevatorMap : toDTO(elevators)
                activate ElevatorMap
                    ElevatorMap -> ElevatorDTO : createDTOs()
                    activate ElevatorDTO
                    ElevatorDTO - -> ElevatorMap : elevatorDTOs
                    deactivate ElevatorDTO
                    ElevatorMap - -> Service : elevatorDTOs
                deactivate ElevatorMap

                Service - -> Controller : Result.ok<IElevatorDTO[]>(elevatorDTOs)
            deactivate Service

            Controller - -> Routing : res.status(200).json(elevatorDTOs)
        end
    deactivate Controller

[o<- -o Routing : List of elevators or error message
deactivate Routing

@enduml

PlantUML version 1.2022.7(Mon Aug 22 18:01:30 BST 2022)
(GPL source distribution)
Java Runtime: Java(TM) SE Runtime Environment
JVM: Java HotSpot(TM) Client VM
Default Encoding: Cp1252
Language: en
Country: US
--></g></svg>