<?xml version="1.0" encoding="UTF-8" standalone="no"?><svg xmlns="http://www.w3.org/2000/svg" xmlns:xlink="http://www.w3.org/1999/xlink" contentStyleType="text/css" height="1057px" preserveAspectRatio="none" style="width:2498px;height:1057px;background:#FFFFFF;" version="1.1" viewBox="0 0 2498 1057" width="2498px" zoomAndPan="magnify"><defs/><g><rect fill="#ADD8E6" height="1045.4141" style="stroke:#181818;stroke-width:0.5;" width="761" x="228.5" y="6"/><text fill="#000000" font-family="sans-serif" font-size="13" font-weight="bold" lengthAdjust="spacing" textLength="98" x="560" y="19.4951">RobDroneGo UI</text><rect fill="#DDDDDD" height="1024.0625" style="stroke:#181818;stroke-width:0.5;" width="298" x="228.5" y="27.3516"/><text fill="#000000" font-family="sans-serif" font-size="13" font-weight="bold" lengthAdjust="spacing" textLength="32" x="361.5" y="40.8467">View</text><rect fill="#DDDDDD" height="1045.4141" style="stroke:#181818;stroke-width:0.5;" width="1297.5" x="1001.5" y="6"/><text fill="#000000" font-family="sans-serif" font-size="13" font-weight="bold" lengthAdjust="spacing" textLength="268" x="1516.25" y="19.4951">RobDroneGo Backend (Task Management)</text><line style="stroke:#181818;stroke-width:0.5;stroke-dasharray:5.0,5.0;" x1="22.5" x2="22.5" y1="125.3125" y2="967.8047"/><line style="stroke:#181818;stroke-width:0.5;stroke-dasharray:5.0,5.0;" x1="295.5" x2="295.5" y1="125.3125" y2="967.8047"/><rect fill="#FFFFFF" height="777.7891" style="stroke:#181818;stroke-width:1.0;" width="10" x="290.5" y="172.0156"/><line style="stroke:#181818;stroke-width:0.5;stroke-dasharray:5.0,5.0;" x1="458.5" x2="458.5" y1="125.3125" y2="967.8047"/><rect fill="#FFFFFF" height="680.7344" style="stroke:#181818;stroke-width:1.0;" width="10" x="453.5" y="238.7188"/><line style="stroke:#181818;stroke-width:0.5;stroke-dasharray:5.0,5.0;" x1="585.5" x2="585.5" y1="125.3125" y2="967.8047"/><line style="stroke:#181818;stroke-width:0.5;stroke-dasharray:5.0,5.0;" x1="775.5" x2="775.5" y1="125.3125" y2="967.8047"/><rect fill="#FFFFFF" height="620.0313" style="stroke:#181818;stroke-width:1.0;" width="10" x="770.5" y="269.0703"/><line style="stroke:#181818;stroke-width:0.5;stroke-dasharray:5.0,5.0;" x1="954.5" x2="954.5" y1="125.3125" y2="967.8047"/><rect fill="#FFFFFF" height="30.3516" style="stroke:#181818;stroke-width:1.0;" width="10" x="949.5" y="828.3984"/><line style="stroke:#181818;stroke-width:0.5;stroke-dasharray:5.0,5.0;" x1="1037" x2="1037" y1="125.3125" y2="967.8047"/><rect fill="#FFFFFF" height="498.625" style="stroke:#181818;stroke-width:1.0;" width="10" x="1032" y="299.4219"/><line style="stroke:#181818;stroke-width:0.5;stroke-dasharray:5.0,5.0;" x1="1354" x2="1354" y1="125.3125" y2="967.8047"/><rect fill="#FFFFFF" height="437.9219" style="stroke:#181818;stroke-width:1.0;" width="10" x="1349" y="329.7734"/><line style="stroke:#181818;stroke-width:0.5;stroke-dasharray:5.0,5.0;" x1="1424" x2="1424" y1="125.3125" y2="967.8047"/><line style="stroke:#181818;stroke-width:0.5;stroke-dasharray:5.0,5.0;" x1="1671" x2="1671" y1="125.3125" y2="967.8047"/><rect fill="#FFFFFF" height="377.2188" style="stroke:#181818;stroke-width:1.0;" width="10" x="1666" y="360.125"/><line style="stroke:#181818;stroke-width:0.5;stroke-dasharray:5.0,5.0;" x1="1855" x2="1855" y1="125.3125" y2="967.8047"/><line style="stroke:#181818;stroke-width:0.5;stroke-dasharray:5.0,5.0;" x1="1939" x2="1939" y1="125.3125" y2="967.8047"/><rect fill="#FFFFFF" height="91.0547" style="stroke:#181818;stroke-width:1.0;" width="10" x="1934" y="390.4766"/><rect fill="#FFFFFF" height="91.0547" style="stroke:#181818;stroke-width:1.0;" width="10" x="1934" y="555.2344"/><line style="stroke:#181818;stroke-width:0.5;stroke-dasharray:5.0,5.0;" x1="2179" x2="2179" y1="125.3125" y2="967.8047"/><rect fill="#FFFFFF" height="30.3516" style="stroke:#181818;stroke-width:1.0;" width="10" x="2174" y="420.8281"/><rect fill="#FFFFFF" height="30.3516" style="stroke:#181818;stroke-width:1.0;" width="10" x="2174" y="585.5859"/><line style="stroke:#181818;stroke-width:0.5;stroke-dasharray:5.0,5.0;" x1="2264" x2="2264" y1="125.3125" y2="967.8047"/><rect fill="#FFFFFF" height="30.3516" style="stroke:#181818;stroke-width:1.0;" width="10" x="2259" y="676.6406"/><line style="stroke:#181818;stroke-width:0.5;stroke-dasharray:5.0,5.0;" x1="2403.5" x2="2403.5" y1="125.3125" y2="967.8047"/><text fill="#000000" font-family="sans-serif" font-size="14" lengthAdjust="spacing" textLength="29" x="5" y="122.2363">User</text><ellipse cx="22.5" cy="56.2031" fill="#E2E2F0" rx="8" ry="8" style="stroke:#181818;stroke-width:0.5;"/><path d="M22.5,64.2031 L22.5,91.2031 M9.5,72.2031 L35.5,72.2031 M22.5,91.2031 L9.5,106.2031 M22.5,91.2031 L35.5,106.2031 " fill="none" style="stroke:#181818;stroke-width:0.5;"/><rect fill="#E2E2F0" height="31.6094" rx="2.5" ry="2.5" style="stroke:#181818;stroke-width:0.5;" width="126" x="232.5" y="92.7031"/><text fill="#000000" font-family="sans-serif" font-size="14" lengthAdjust="spacing" textLength="112" x="239.5" y="114.2363">HTML + CSS + JS</text><rect fill="#E2E2F0" height="49.2188" rx="2.5" ry="2.5" style="stroke:#181818;stroke-width:0.5;" width="128" x="394.5" y="75.0938"/><text fill="#000000" font-family="sans-serif" font-size="14" lengthAdjust="spacing" textLength="88" x="414.5" y="96.627">Task Request</text><text fill="#000000" font-family="sans-serif" font-size="14" lengthAdjust="spacing" textLength="110" x="405.5" y="114.2363">Form Component</text><rect fill="#E2E2F0" height="31.6094" rx="2.5" ry="2.5" style="stroke:#181818;stroke-width:0.5;" width="86" x="542.5" y="92.7031"/><text fill="#000000" font-family="sans-serif" font-size="14" lengthAdjust="spacing" textLength="72" x="549.5" y="114.2363">Data Model</text><rect fill="#E2E2F0" height="49.2188" rx="2.5" ry="2.5" style="stroke:#181818;stroke-width:0.5;" width="102" x="724.5" y="75.0938"/><text fill="#000000" font-family="sans-serif" font-size="14" lengthAdjust="spacing" textLength="88" x="731.5" y="96.627">Task Request</text><text fill="#000000" font-family="sans-serif" font-size="14" lengthAdjust="spacing" textLength="47" x="754" y="114.2363">Service</text><rect fill="#E2E2F0" height="31.6094" rx="2.5" ry="2.5" style="stroke:#181818;stroke-width:0.5;" width="62" x="923.5" y="92.7031"/><text fill="#000000" font-family="sans-serif" font-size="14" lengthAdjust="spacing" textLength="48" x="930.5" y="114.2363">Mapper</text><rect fill="#E2E2F0" height="31.6094" rx="2.5" ry="2.5" style="stroke:#181818;stroke-width:0.5;" width="63" x="1005.5" y="92.7031"/><text fill="#000000" font-family="sans-serif" font-size="14" lengthAdjust="spacing" textLength="49" x="1012.5" y="114.2363">Routing</text><rect fill="#E2E2F0" height="31.6094" rx="2.5" ry="2.5" style="stroke:#181818;stroke-width:0.5;" width="76" x="1316" y="92.7031"/><text fill="#000000" font-family="sans-serif" font-size="14" lengthAdjust="spacing" textLength="62" x="1323" y="114.2363">Controller</text><rect fill="#E2E2F0" height="31.6094" rx="2.5" ry="2.5" style="stroke:#181818;stroke-width:0.5;" width="44" x="1402" y="92.7031"/><text fill="#000000" font-family="sans-serif" font-size="14" lengthAdjust="spacing" textLength="30" x="1409" y="114.2363">DTO</text><rect fill="#E2E2F0" height="49.2188" rx="2.5" ry="2.5" style="stroke:#181818;stroke-width:0.5;" width="61" x="1640.5" y="75.0938"/><text fill="#000000" font-family="sans-serif" font-size="14" lengthAdjust="spacing" textLength="31" x="1653.5" y="96.627">Task</text><text fill="#000000" font-family="sans-serif" font-size="14" lengthAdjust="spacing" textLength="47" x="1647.5" y="114.2363">Service</text><rect fill="#E2E2F0" height="49.2188" rx="2.5" ry="2.5" style="stroke:#181818;stroke-width:0.5;" width="66" x="1822" y="75.0938"/><text fill="#000000" font-family="sans-serif" font-size="14" lengthAdjust="spacing" textLength="48" x="1829" y="96.627">Domain</text><text fill="#000000" font-family="sans-serif" font-size="14" lengthAdjust="spacing" textLength="38" x="1840" y="114.2363">Model</text><rect fill="#E2E2F0" height="31.6094" rx="2.5" ry="2.5" style="stroke:#181818;stroke-width:0.5;" width="82" x="1898" y="92.7031"/><text fill="#000000" font-family="sans-serif" font-size="14" lengthAdjust="spacing" textLength="68" x="1905" y="114.2363">Repository</text><rect fill="#E2E2F0" height="31.6094" rx="2.5" ry="2.5" style="stroke:#181818;stroke-width:0.5;" width="88" x="2135" y="92.7031"/><text fill="#000000" font-family="sans-serif" font-size="14" lengthAdjust="spacing" textLength="74" x="2142" y="114.2363">Persistance</text><rect fill="#E2E2F0" height="31.6094" rx="2.5" ry="2.5" style="stroke:#181818;stroke-width:0.5;" width="62" x="2233" y="92.7031"/><text fill="#000000" font-family="sans-serif" font-size="14" lengthAdjust="spacing" textLength="48" x="2240" y="114.2363">Mapper</text><rect fill="#E2E2F0" height="31.6094" rx="2.5" ry="2.5" style="stroke:#181818;stroke-width:0.5;" width="177" x="2315" y="92.7031"/><text fill="#000000" font-family="sans-serif" font-size="14" lengthAdjust="spacing" textLength="163" x="2322" y="114.2363">Campus Management API</text><text fill="#000000" font-family="sans-serif" font-size="14" lengthAdjust="spacing" textLength="29" x="5" y="1042.3379">User</text><ellipse cx="22.5" cy="976.3047" fill="#E2E2F0" rx="8" ry="8" style="stroke:#181818;stroke-width:0.5;"/><path d="M22.5,984.3047 L22.5,1011.3047 M9.5,992.3047 L35.5,992.3047 M22.5,1011.3047 L9.5,1026.3047 M22.5,1011.3047 L35.5,1026.3047 " fill="none" style="stroke:#181818;stroke-width:0.5;"/><rect fill="#E2E2F0" height="31.6094" rx="2.5" ry="2.5" style="stroke:#181818;stroke-width:0.5;" width="126" x="232.5" y="967.8047"/><text fill="#000000" font-family="sans-serif" font-size="14" lengthAdjust="spacing" textLength="112" x="239.5" y="989.3379">HTML + CSS + JS</text><rect fill="#E2E2F0" height="49.2188" rx="2.5" ry="2.5" style="stroke:#181818;stroke-width:0.5;" width="128" x="394.5" y="967.8047"/><text fill="#000000" font-family="sans-serif" font-size="14" lengthAdjust="spacing" textLength="88" x="414.5" y="989.3379">Task Request</text><text fill="#000000" font-family="sans-serif" font-size="14" lengthAdjust="spacing" textLength="110" x="405.5" y="1006.9473">Form Component</text><rect fill="#E2E2F0" height="31.6094" rx="2.5" ry="2.5" style="stroke:#181818;stroke-width:0.5;" width="86" x="542.5" y="967.8047"/><text fill="#000000" font-family="sans-serif" font-size="14" lengthAdjust="spacing" textLength="72" x="549.5" y="989.3379">Data Model</text><rect fill="#E2E2F0" height="49.2188" rx="2.5" ry="2.5" style="stroke:#181818;stroke-width:0.5;" width="102" x="724.5" y="967.8047"/><text fill="#000000" font-family="sans-serif" font-size="14" lengthAdjust="spacing" textLength="88" x="731.5" y="989.3379">Task Request</text><text fill="#000000" font-family="sans-serif" font-size="14" lengthAdjust="spacing" textLength="47" x="754" y="1006.9473">Service</text><rect fill="#E2E2F0" height="31.6094" rx="2.5" ry="2.5" style="stroke:#181818;stroke-width:0.5;" width="62" x="923.5" y="967.8047"/><text fill="#000000" font-family="sans-serif" font-size="14" lengthAdjust="spacing" textLength="48" x="930.5" y="989.3379">Mapper</text><rect fill="#E2E2F0" height="31.6094" rx="2.5" ry="2.5" style="stroke:#181818;stroke-width:0.5;" width="63" x="1005.5" y="967.8047"/><text fill="#000000" font-family="sans-serif" font-size="14" lengthAdjust="spacing" textLength="49" x="1012.5" y="989.3379">Routing</text><rect fill="#E2E2F0" height="31.6094" rx="2.5" ry="2.5" style="stroke:#181818;stroke-width:0.5;" width="76" x="1316" y="967.8047"/><text fill="#000000" font-family="sans-serif" font-size="14" lengthAdjust="spacing" textLength="62" x="1323" y="989.3379">Controller</text><rect fill="#E2E2F0" height="31.6094" rx="2.5" ry="2.5" style="stroke:#181818;stroke-width:0.5;" width="44" x="1402" y="967.8047"/><text fill="#000000" font-family="sans-serif" font-size="14" lengthAdjust="spacing" textLength="30" x="1409" y="989.3379">DTO</text><rect fill="#E2E2F0" height="49.2188" rx="2.5" ry="2.5" style="stroke:#181818;stroke-width:0.5;" width="61" x="1640.5" y="967.8047"/><text fill="#000000" font-family="sans-serif" font-size="14" lengthAdjust="spacing" textLength="31" x="1653.5" y="989.3379">Task</text><text fill="#000000" font-family="sans-serif" font-size="14" lengthAdjust="spacing" textLength="47" x="1647.5" y="1006.9473">Service</text><rect fill="#E2E2F0" height="49.2188" rx="2.5" ry="2.5" style="stroke:#181818;stroke-width:0.5;" width="66" x="1822" y="967.8047"/><text fill="#000000" font-family="sans-serif" font-size="14" lengthAdjust="spacing" textLength="48" x="1829" y="989.3379">Domain</text><text fill="#000000" font-family="sans-serif" font-size="14" lengthAdjust="spacing" textLength="38" x="1840" y="1006.9473">Model</text><rect fill="#E2E2F0" height="31.6094" rx="2.5" ry="2.5" style="stroke:#181818;stroke-width:0.5;" width="82" x="1898" y="967.8047"/><text fill="#000000" font-family="sans-serif" font-size="14" lengthAdjust="spacing" textLength="68" x="1905" y="989.3379">Repository</text><rect fill="#E2E2F0" height="31.6094" rx="2.5" ry="2.5" style="stroke:#181818;stroke-width:0.5;" width="88" x="2135" y="967.8047"/><text fill="#000000" font-family="sans-serif" font-size="14" lengthAdjust="spacing" textLength="74" x="2142" y="989.3379">Persistance</text><rect fill="#E2E2F0" height="31.6094" rx="2.5" ry="2.5" style="stroke:#181818;stroke-width:0.5;" width="62" x="2233" y="967.8047"/><text fill="#000000" font-family="sans-serif" font-size="14" lengthAdjust="spacing" textLength="48" x="2240" y="989.3379">Mapper</text><rect fill="#E2E2F0" height="31.6094" rx="2.5" ry="2.5" style="stroke:#181818;stroke-width:0.5;" width="177" x="2315" y="967.8047"/><text fill="#000000" font-family="sans-serif" font-size="14" lengthAdjust="spacing" textLength="163" x="2322" y="989.3379">Campus Management API</text><polygon fill="#181818" points="278.5,168.0156,288.5,172.0156,278.5,176.0156,282.5,172.0156" style="stroke:#181818;stroke-width:1.0;"/><line style="stroke:#181818;stroke-width:1.0;" x1="22.5" x2="284.5" y1="172.0156" y2="172.0156"/><text fill="#000000" font-family="sans-serif" font-size="13" lengthAdjust="spacing" textLength="141" x="29.5" y="150.8076">Go to /task/request-task</text><text fill="#000000" font-family="sans-serif" font-size="13" lengthAdjust="spacing" textLength="60" x="33.5" y="167.1592">SPA route</text><path d="M305.5,138.3125 L305.5,180.3125 L525.5,180.3125 L525.5,148.3125 L515.5,138.3125 L305.5,138.3125 " fill="#FEFFDD" style="stroke:#181818;stroke-width:0.5;"/><path d="M515.5,138.3125 L515.5,148.3125 L525.5,148.3125 L515.5,138.3125 " fill="#FEFFDD" style="stroke:#181818;stroke-width:0.5;"/><text fill="#000000" font-family="sans-serif" font-size="13" lengthAdjust="spacing" textLength="137" x="311.5" y="156.8076">this user story uses the</text><text fill="#000000" font-family="sans-serif" font-size="13" lengthAdjust="spacing" textLength="199" x="311.5" y="173.1592">list of tasks from user story ID-480</text><polygon fill="#181818" points="278.5,204.3672,288.5,208.3672,278.5,212.3672,282.5,208.3672" style="stroke:#181818;stroke-width:1.0;"/><line style="stroke:#181818;stroke-width:1.0;" x1="22.5" x2="284.5" y1="208.3672" y2="208.3672"/><text fill="#000000" font-family="sans-serif" font-size="13" lengthAdjust="spacing" textLength="244" x="29.5" y="203.5107">click on "approve" button or "reject" button</text><polygon fill="#181818" points="441.5,234.7188,451.5,238.7188,441.5,242.7188,445.5,238.7188" style="stroke:#181818;stroke-width:1.0;"/><line style="stroke:#181818;stroke-width:1.0;" x1="300.5" x2="447.5" y1="238.7188" y2="238.7188"/><text fill="#000000" font-family="sans-serif" font-size="13" lengthAdjust="spacing" textLength="134" x="307.5" y="233.8623">approve or reject action</text><polygon fill="#181818" points="758.5,265.0703,768.5,269.0703,758.5,273.0703,762.5,269.0703" style="stroke:#181818;stroke-width:1.0;"/><line style="stroke:#181818;stroke-width:1.0;" x1="463.5" x2="764.5" y1="269.0703" y2="269.0703"/><text fill="#000000" font-family="sans-serif" font-size="13" lengthAdjust="spacing" textLength="288" x="470.5" y="264.2139">updateTaskRequestStatus(taskRequestId, status)</text><polygon fill="#181818" points="1020,295.4219,1030,299.4219,1020,303.4219,1024,299.4219" style="stroke:#181818;stroke-width:1.0;"/><line style="stroke:#181818;stroke-width:1.0;" x1="780.5" x2="1026" y1="299.4219" y2="299.4219"/><text fill="#000000" font-family="sans-serif" font-size="13" lengthAdjust="spacing" textLength="188" x="787.5" y="294.5654">PATCH /task-requests/:id/status</text><polygon fill="#181818" points="1337,325.7734,1347,329.7734,1337,333.7734,1341,329.7734" style="stroke:#181818;stroke-width:1.0;"/><line style="stroke:#181818;stroke-width:1.0;" x1="1042" x2="1343" y1="329.7734" y2="329.7734"/><text fill="#000000" font-family="sans-serif" font-size="13" lengthAdjust="spacing" textLength="288" x="1049" y="324.917">updateTaskRequestStatus(taskRequestId, status)</text><polygon fill="#181818" points="1654,356.125,1664,360.125,1654,364.125,1658,360.125" style="stroke:#181818;stroke-width:1.0;"/><line style="stroke:#181818;stroke-width:1.0;" x1="1359" x2="1660" y1="360.125" y2="360.125"/><text fill="#000000" font-family="sans-serif" font-size="13" lengthAdjust="spacing" textLength="288" x="1366" y="355.2686">updateTaskRequestStatus(taskRequestId, status)</text><polygon fill="#181818" points="1922,386.4766,1932,390.4766,1922,394.4766,1926,390.4766" style="stroke:#181818;stroke-width:1.0;"/><line style="stroke:#181818;stroke-width:1.0;" x1="1676" x2="1928" y1="390.4766" y2="390.4766"/><text fill="#000000" font-family="sans-serif" font-size="13" lengthAdjust="spacing" textLength="211" x="1683" y="385.6201">getTaskRequestById(taskRequestId)</text><polygon fill="#181818" points="2162,416.8281,2172,420.8281,2162,424.8281,2166,420.8281" style="stroke:#181818;stroke-width:1.0;"/><line style="stroke:#181818;stroke-width:1.0;" x1="1944" x2="2168" y1="420.8281" y2="420.8281"/><text fill="#000000" font-family="sans-serif" font-size="13" lengthAdjust="spacing" textLength="211" x="1951" y="415.9717">getTaskRequestById(taskRequestId)</text><polygon fill="#181818" points="1955,447.1797,1945,451.1797,1955,455.1797,1951,451.1797" style="stroke:#181818;stroke-width:1.0;"/><line style="stroke:#181818;stroke-width:1.0;stroke-dasharray:2.0,2.0;" x1="1949" x2="2173" y1="451.1797" y2="451.1797"/><text fill="#000000" font-family="sans-serif" font-size="13" lengthAdjust="spacing" textLength="73" x="1961" y="446.3232">taskRequest</text><polygon fill="#181818" points="1687,477.5313,1677,481.5313,1687,485.5313,1683,481.5313" style="stroke:#181818;stroke-width:1.0;"/><line style="stroke:#181818;stroke-width:1.0;stroke-dasharray:2.0,2.0;" x1="1681" x2="1933" y1="481.5313" y2="481.5313"/><text fill="#000000" font-family="sans-serif" font-size="13" lengthAdjust="spacing" textLength="73" x="1693" y="476.6748">taskRequest</text><line style="stroke:#181818;stroke-width:1.0;" x1="1676" x2="1718" y1="511.8828" y2="511.8828"/><line style="stroke:#181818;stroke-width:1.0;" x1="1718" x2="1718" y1="511.8828" y2="524.8828"/><line style="stroke:#181818;stroke-width:1.0;" x1="1677" x2="1718" y1="524.8828" y2="524.8828"/><polygon fill="#181818" points="1687,520.8828,1677,524.8828,1687,528.8828,1683,524.8828" style="stroke:#181818;stroke-width:1.0;"/><text fill="#000000" font-family="sans-serif" font-size="13" lengthAdjust="spacing" textLength="165" x="1683" y="507.0264">taskRequest.status = status</text><polygon fill="#181818" points="1922,551.2344,1932,555.2344,1922,559.2344,1926,555.2344" style="stroke:#181818;stroke-width:1.0;"/><line style="stroke:#181818;stroke-width:1.0;" x1="1676" x2="1928" y1="555.2344" y2="555.2344"/><text fill="#000000" font-family="sans-serif" font-size="13" lengthAdjust="spacing" textLength="107" x="1683" y="550.3779">save(taskRequest)</text><polygon fill="#181818" points="2162,581.5859,2172,585.5859,2162,589.5859,2166,585.5859" style="stroke:#181818;stroke-width:1.0;"/><line style="stroke:#181818;stroke-width:1.0;" x1="1944" x2="2168" y1="585.5859" y2="585.5859"/><text fill="#000000" font-family="sans-serif" font-size="13" lengthAdjust="spacing" textLength="107" x="1951" y="580.7295">save(taskRequest)</text><polygon fill="#181818" points="1955,611.9375,1945,615.9375,1955,619.9375,1951,615.9375" style="stroke:#181818;stroke-width:1.0;"/><line style="stroke:#181818;stroke-width:1.0;stroke-dasharray:2.0,2.0;" x1="1949" x2="2173" y1="615.9375" y2="615.9375"/><text fill="#000000" font-family="sans-serif" font-size="13" lengthAdjust="spacing" textLength="73" x="1961" y="611.0811">taskRequest</text><polygon fill="#181818" points="1687,642.2891,1677,646.2891,1687,650.2891,1683,646.2891" style="stroke:#181818;stroke-width:1.0;"/><line style="stroke:#181818;stroke-width:1.0;stroke-dasharray:2.0,2.0;" x1="1681" x2="1933" y1="646.2891" y2="646.2891"/><text fill="#000000" font-family="sans-serif" font-size="13" lengthAdjust="spacing" textLength="73" x="1693" y="641.4326">taskRequest</text><polygon fill="#181818" points="2247,672.6406,2257,676.6406,2247,680.6406,2251,676.6406" style="stroke:#181818;stroke-width:1.0;"/><line style="stroke:#181818;stroke-width:1.0;" x1="1676" x2="2253" y1="676.6406" y2="676.6406"/><text fill="#000000" font-family="sans-serif" font-size="13" lengthAdjust="spacing" textLength="115" x="1683" y="671.7842">ToDto(taskRequest)</text><polygon fill="#181818" points="1687,702.9922,1677,706.9922,1687,710.9922,1683,706.9922" style="stroke:#181818;stroke-width:1.0;"/><line style="stroke:#181818;stroke-width:1.0;stroke-dasharray:2.0,2.0;" x1="1681" x2="2258" y1="706.9922" y2="706.9922"/><text fill="#000000" font-family="sans-serif" font-size="13" lengthAdjust="spacing" textLength="93" x="1693" y="702.1357">taskRequestDto</text><polygon fill="#181818" points="1370,733.3438,1360,737.3438,1370,741.3438,1366,737.3438" style="stroke:#181818;stroke-width:1.0;"/><line style="stroke:#181818;stroke-width:1.0;" x1="1364" x2="1665" y1="737.3438" y2="737.3438"/><text fill="#000000" font-family="sans-serif" font-size="13" lengthAdjust="spacing" textLength="93" x="1376" y="732.4873">taskRequestDto</text><polygon fill="#181818" points="1053,763.6953,1043,767.6953,1053,771.6953,1049,767.6953" style="stroke:#181818;stroke-width:1.0;"/><line style="stroke:#181818;stroke-width:1.0;" x1="1047" x2="1348" y1="767.6953" y2="767.6953"/><text fill="#000000" font-family="sans-serif" font-size="13" lengthAdjust="spacing" textLength="93" x="1059" y="762.8389">taskRequestDto</text><polygon fill="#181818" points="791.5,794.0469,781.5,798.0469,791.5,802.0469,787.5,798.0469" style="stroke:#181818;stroke-width:1.0;"/><line style="stroke:#181818;stroke-width:1.0;" x1="785.5" x2="1031" y1="798.0469" y2="798.0469"/><text fill="#000000" font-family="sans-serif" font-size="13" lengthAdjust="spacing" textLength="93" x="797.5" y="793.1904">taskRequestDto</text><polygon fill="#181818" points="937.5,824.3984,947.5,828.3984,937.5,832.3984,941.5,828.3984" style="stroke:#181818;stroke-width:1.0;"/><line style="stroke:#181818;stroke-width:1.0;" x1="780.5" x2="943.5" y1="828.3984" y2="828.3984"/><text fill="#000000" font-family="sans-serif" font-size="13" lengthAdjust="spacing" textLength="150" x="787.5" y="823.542">ToModel(taskRequestDto)</text><polygon fill="#181818" points="791.5,854.75,781.5,858.75,791.5,862.75,787.5,858.75" style="stroke:#181818;stroke-width:1.0;"/><line style="stroke:#181818;stroke-width:1.0;stroke-dasharray:2.0,2.0;" x1="785.5" x2="948.5" y1="858.75" y2="858.75"/><text fill="#000000" font-family="sans-serif" font-size="13" lengthAdjust="spacing" textLength="73" x="797.5" y="853.8936">taskRequest</text><polygon fill="#181818" points="474.5,885.1016,464.5,889.1016,474.5,893.1016,470.5,889.1016" style="stroke:#181818;stroke-width:1.0;"/><line style="stroke:#181818;stroke-width:1.0;stroke-dasharray:2.0,2.0;" x1="468.5" x2="769.5" y1="889.1016" y2="889.1016"/><text fill="#000000" font-family="sans-serif" font-size="13" lengthAdjust="spacing" textLength="73" x="480.5" y="884.2451">taskRequest</text><polygon fill="#181818" points="311.5,915.4531,301.5,919.4531,311.5,923.4531,307.5,919.4531" style="stroke:#181818;stroke-width:1.0;"/><line style="stroke:#181818;stroke-width:1.0;stroke-dasharray:2.0,2.0;" x1="305.5" x2="452.5" y1="919.4531" y2="919.4531"/><text fill="#000000" font-family="sans-serif" font-size="13" lengthAdjust="spacing" textLength="73" x="317.5" y="914.5967">taskRequest</text><polygon fill="#181818" points="33.5,945.8047,23.5,949.8047,33.5,953.8047,29.5,949.8047" style="stroke:#181818;stroke-width:1.0;"/><line style="stroke:#181818;stroke-width:1.0;stroke-dasharray:2.0,2.0;" x1="27.5" x2="289.5" y1="949.8047" y2="949.8047"/><text fill="#000000" font-family="sans-serif" font-size="13" lengthAdjust="spacing" textLength="183" x="39.5" y="944.9482">update information taskRequest</text><!--MD5=[3467b9208c8ee8f56217db809caa7320]
@startuml SD Lv3

!pragma teoz true

actor "User" as user
box "RobDroneGo UI" #LightBlue
    box "View"
        participant "HTML + CSS + JS" as FrontEnd
        participant "Task Request\n Form Component" as UIComponent
    end box
    participant "Data Model" as ModelFE
    participant "Task Request\n Service" as TaskServiceFE
    participant "Mapper" as TaskMapperFE
end box
box "RobDroneGo Backend (Task Management)"
    participant "Routing" as TaskRouteBE
    participant "Controller" as TaskControllerBE
    participant "DTO" as TaskDtoBE
    participant "Task \nService" as TaskServiceBE
    participant "Domain \n  Model" as TaskDomainModelBE
    participant "Repository" as TaskRepositoryBE
    participant "Persistance" as TaskPersistanceBE
    participant "Mapper" as TaskMapperBE
end box

participant "Campus Management API" as CampusAPI
  
user -> FrontEnd : Go to /task/request-task\n SPA route
activate FrontEnd
note right
    this user story uses the
    list of tasks from user story ID-480
end note

user -> FrontEnd : click on "approve" button or "reject" button
FrontEnd -> UIComponent : approve or reject action
activate UIComponent
UIComponent -> TaskServiceFE : updateTaskRequestStatus(taskRequestId, status)
activate TaskServiceFE
TaskServiceFE -> TaskRouteBE : PATCH /task-requests/:id/status
activate TaskRouteBE
TaskRouteBE -> TaskControllerBE : updateTaskRequestStatus(taskRequestId, status)
activate TaskControllerBE
TaskControllerBE -> TaskServiceBE : updateTaskRequestStatus(taskRequestId, status)
activate TaskServiceBE
TaskServiceBE -> TaskRepositoryBE : getTaskRequestById(taskRequestId)
activate TaskRepositoryBE
TaskRepositoryBE -> TaskPersistanceBE : getTaskRequestById(taskRequestId)
activate TaskPersistanceBE
TaskPersistanceBE - -> TaskRepositoryBE : taskRequest
deactivate TaskPersistanceBE
TaskRepositoryBE - -> TaskServiceBE : taskRequest
deactivate TaskRepositoryBE
TaskServiceBE -> TaskServiceBE : taskRequest.status = status
TaskServiceBE -> TaskRepositoryBE : save(taskRequest)
activate TaskRepositoryBE
TaskRepositoryBE -> TaskPersistanceBE : save(taskRequest)
activate TaskPersistanceBE
TaskPersistanceBE - -> TaskRepositoryBE : taskRequest
deactivate TaskPersistanceBE
TaskRepositoryBE - -> TaskServiceBE : taskRequest
deactivate TaskRepositoryBE
TaskServiceBE -> TaskMapperBE : ToDto(taskRequest)
activate TaskMapperBE
TaskMapperBE - -> TaskServiceBE : taskRequestDto
deactivate TaskMapperBE
TaskServiceBE -> TaskControllerBE : taskRequestDto
deactivate TaskServiceBE
TaskControllerBE -> TaskRouteBE : taskRequestDto
deactivate TaskControllerBE
TaskRouteBE -> TaskServiceFE : taskRequestDto
deactivate TaskRouteBE
TaskServiceFE -> TaskMapperFE : ToModel(taskRequestDto)
activate TaskMapperFE
TaskMapperFE - -> TaskServiceFE : taskRequest
deactivate TaskMapperFE
TaskServiceFE - -> UIComponent : taskRequest
deactivate TaskServiceFE
UIComponent - -> FrontEnd : taskRequest
deactivate UIComponent
FrontEnd - -> user : update information taskRequest
deactivate FrontEnd

@enduml

PlantUML version 1.2022.7(Mon Aug 22 18:01:30 BST 2022)
(GPL source distribution)
Java Runtime: Java(TM) SE Runtime Environment
JVM: Java HotSpot(TM) 64-Bit Server VM
Default Encoding: Cp1252
Language: pt
Country: PT
--></g></svg>