<?xml version="1.0" encoding="UTF-8" standalone="no"?><svg xmlns="http://www.w3.org/2000/svg" xmlns:xlink="http://www.w3.org/1999/xlink" contentStyleType="text/css" height="214px" preserveAspectRatio="none" style="width:331px;height:214px;background:#FFFFFF;" version="1.1" viewBox="0 0 331 214" width="331px" zoomAndPan="magnify"><defs/><g><rect fill="#FFFFFF" height="90.0547" style="stroke:#181818;stroke-width:1.0;" width="10" x="134" y="69.9609"/><line style="stroke:#181818;stroke-width:0.5;stroke-dasharray:5.0,5.0;" x1="139" x2="139" y1="37.6094" y2="178.0156"/><rect fill="#E2E2F0" height="31.6094" rx="2.5" ry="2.5" style="stroke:#181818;stroke-width:0.5;" width="98" x="90" y="5"/><text fill="#000000" font-family="sans-serif" font-size="14" lengthAdjust="spacing" textLength="84" x="97" y="26.5332">RobDroneGo</text><rect fill="#E2E2F0" height="31.6094" rx="2.5" ry="2.5" style="stroke:#181818;stroke-width:0.5;" width="98" x="90" y="177.0156"/><text fill="#000000" font-family="sans-serif" font-size="14" lengthAdjust="spacing" textLength="84" x="97" y="198.5488">RobDroneGo</text><rect fill="#FFFFFF" height="90.0547" style="stroke:#181818;stroke-width:1.0;" width="10" x="134" y="69.9609"/><ellipse cx="7.5" cy="69.2109" fill="none" rx="4" ry="4" style="stroke:#181818;stroke-width:1.5;"/><polygon fill="#181818" points="122,65.9609,132,69.9609,122,73.9609,126,69.9609" style="stroke:#181818;stroke-width:1.0;"/><line style="stroke:#181818;stroke-width:1.0;" x1="12" x2="128" y1="69.9609" y2="69.9609"/><text fill="#000000" font-family="sans-serif" font-size="13" lengthAdjust="spacing" textLength="107" x="15" y="65.1045">Get (buildingCode)</text><line style="stroke:#181818;stroke-width:1.0;" x1="144" x2="186" y1="116.6641" y2="116.6641"/><line style="stroke:#181818;stroke-width:1.0;" x1="186" x2="186" y1="116.6641" y2="129.6641"/><line style="stroke:#181818;stroke-width:1.0;" x1="145" x2="186" y1="129.6641" y2="129.6641"/><polygon fill="#181818" points="155,125.6641,145,129.6641,155,133.6641,151,129.6641" style="stroke:#181818;stroke-width:1.0;"/><text fill="#000000" font-family="sans-serif" font-size="13" lengthAdjust="spacing" textLength="122" x="151" y="95.4561">Query passages with</text><text fill="#000000" font-family="sans-serif" font-size="13" lengthAdjust="spacing" textLength="173" x="151" y="111.8076">buildingCode and diffrent ones</text><ellipse cx="7.5" cy="159.2656" fill="none" rx="4" ry="4" style="stroke:#181818;stroke-width:1.5;"/><polygon fill="#181818" points="24.5,156.0156,14.5,160.0156,24.5,164.0156,20.5,160.0156" style="stroke:#181818;stroke-width:1.0;"/><ellipse cx="138.5" cy="159.2656" fill="none" rx="4" ry="4" style="stroke:#181818;stroke-width:1.5;"/><line style="stroke:#181818;stroke-width:1.0;stroke-dasharray:2.0,2.0;" x1="22.5" x2="134" y1="160.0156" y2="160.0156"/><text fill="#000000" font-family="sans-serif" font-size="13" lengthAdjust="spacing" textLength="36" x="25" y="155.1592">Floors</text><!--MD5=[f3e8b731aa86cb0c212c9284454c744f]
@startuml SD Lv1

participant RobDroneGo as system
[o-> system : Get (buildingCode)
activate system

system -> system : Query passages with \nbuildingCode and diffrent ones 

[o<- -o system : Floors
deactivate system

@enduml

PlantUML version 1.2022.7(Mon Aug 22 18:01:30 BST 2022)
(GPL source distribution)
Java Runtime: Java(TM) SE Runtime Environment
JVM: Java HotSpot(TM) 64-Bit Server VM
Default Encoding: Cp1252
Language: pt
Country: PT
--></g></svg>