<?xml version="1.0" encoding="UTF-8" standalone="no"?><svg xmlns="http://www.w3.org/2000/svg" xmlns:xlink="http://www.w3.org/1999/xlink" contentStyleType="text/css" height="335px" preserveAspectRatio="none" style="width:341px;height:335px;background:#FFFFFF;" version="1.1" viewBox="0 0 341 335" width="341px" zoomAndPan="magnify"><defs/><g><rect fill="#ADD8E6" height="323.3828" style="stroke:#181818;stroke-width:0.5;" width="276.5" x="59" y="6"/><text fill="#000000" font-family="sans-serif" font-size="13" font-weight="bold" lengthAdjust="spacing" textLength="81" x="156.75" y="19.4951">RobDroneGo</text><rect fill="#FFFFFF" height="184.4609" style="stroke:#181818;stroke-width:1.0;" width="10" x="134" y="91.3125"/><rect fill="#FFFFFF" height="30.3516" style="stroke:#181818;stroke-width:1.0;" width="10" x="310" y="138.0156"/><rect fill="#FFFFFF" height="30.3516" style="stroke:#181818;stroke-width:1.0;" width="10" x="310" y="215.0703"/><line style="stroke:#181818;stroke-width:0.5;stroke-dasharray:5.0,5.0;" x1="14" x2="14" y1="58.9609" y2="293.7734"/><line style="stroke:#181818;stroke-width:0.5;stroke-dasharray:5.0,5.0;" x1="139" x2="139" y1="58.9609" y2="293.7734"/><line style="stroke:#181818;stroke-width:0.5;stroke-dasharray:5.0,5.0;" x1="314.5" x2="314.5" y1="58.9609" y2="293.7734"/><rect fill="#E2E2F0" height="31.6094" rx="2.5" ry="2.5" style="stroke:#181818;stroke-width:0.5;" width="18" x="5" y="26.3516"/><text fill="#000000" font-family="sans-serif" font-size="14" lengthAdjust="spacing" textLength="4" x="12" y="47.8848"> </text><rect fill="#E2E2F0" height="31.6094" rx="2.5" ry="2.5" style="stroke:#181818;stroke-width:0.5;" width="18" x="5" y="292.7734"/><text fill="#000000" font-family="sans-serif" font-size="14" lengthAdjust="spacing" textLength="4" x="12" y="314.3066"> </text><rect fill="#E2E2F0" height="31.6094" rx="2.5" ry="2.5" style="stroke:#181818;stroke-width:0.5;" width="152" x="63" y="26.3516"/><text fill="#000000" font-family="sans-serif" font-size="14" lengthAdjust="spacing" textLength="138" x="70" y="47.8848">Campus Management</text><rect fill="#E2E2F0" height="31.6094" rx="2.5" ry="2.5" style="stroke:#181818;stroke-width:0.5;" width="152" x="63" y="292.7734"/><text fill="#000000" font-family="sans-serif" font-size="14" lengthAdjust="spacing" textLength="138" x="70" y="314.3066">Campus Management</text><rect fill="#E2E2F0" height="31.6094" rx="2.5" ry="2.5" style="stroke:#181818;stroke-width:0.5;" width="33" x="298.5" y="26.3516"/><text fill="#000000" font-family="sans-serif" font-size="14" lengthAdjust="spacing" textLength="19" x="305.5" y="47.8848">DB</text><rect fill="#E2E2F0" height="31.6094" rx="2.5" ry="2.5" style="stroke:#181818;stroke-width:0.5;" width="33" x="298.5" y="292.7734"/><text fill="#000000" font-family="sans-serif" font-size="14" lengthAdjust="spacing" textLength="19" x="305.5" y="314.3066">DB</text><rect fill="#FFFFFF" height="184.4609" style="stroke:#181818;stroke-width:1.0;" width="10" x="134" y="91.3125"/><rect fill="#FFFFFF" height="30.3516" style="stroke:#181818;stroke-width:1.0;" width="10" x="310" y="138.0156"/><rect fill="#FFFFFF" height="30.3516" style="stroke:#181818;stroke-width:1.0;" width="10" x="310" y="215.0703"/><ellipse cx="7.5" cy="90.5625" fill="none" rx="4" ry="4" style="stroke:#181818;stroke-width:1.5;"/><polygon fill="#181818" points="122,87.3125,132,91.3125,122,95.3125,126,91.3125" style="stroke:#181818;stroke-width:1.0;"/><line style="stroke:#181818;stroke-width:1.0;" x1="12" x2="128" y1="91.3125" y2="91.3125"/><text fill="#000000" font-family="sans-serif" font-size="13" lengthAdjust="spacing" textLength="107" x="15" y="86.4561">Get (buildingCode)</text><polygon fill="#181818" points="298,134.0156,308,138.0156,298,142.0156,302,138.0156" style="stroke:#181818;stroke-width:1.0;"/><line style="stroke:#181818;stroke-width:1.0;" x1="144" x2="304" y1="138.0156" y2="138.0156"/><text fill="#000000" font-family="sans-serif" font-size="13" lengthAdjust="spacing" textLength="130" x="151" y="116.8076">load passages by floor</text><text fill="#000000" font-family="sans-serif" font-size="13" lengthAdjust="spacing" textLength="147" x="151" y="133.1592">with diferent buildingCode</text><polygon fill="#181818" points="155,164.3672,145,168.3672,155,172.3672,151,168.3672" style="stroke:#181818;stroke-width:1.0;"/><line style="stroke:#181818;stroke-width:1.0;stroke-dasharray:2.0,2.0;" x1="149" x2="314" y1="168.3672" y2="168.3672"/><text fill="#000000" font-family="sans-serif" font-size="13" lengthAdjust="spacing" textLength="56" x="161" y="163.5107">passages</text><polygon fill="#181818" points="298,211.0703,308,215.0703,298,219.0703,302,215.0703" style="stroke:#181818;stroke-width:1.0;"/><line style="stroke:#181818;stroke-width:1.0;" x1="144" x2="304" y1="215.0703" y2="215.0703"/><text fill="#000000" font-family="sans-serif" font-size="13" lengthAdjust="spacing" textLength="86" x="151" y="193.8623">load floors with</text><text fill="#000000" font-family="sans-serif" font-size="13" lengthAdjust="spacing" textLength="100" x="151" y="210.2139">that buildingCode</text><polygon fill="#181818" points="155,241.4219,145,245.4219,155,249.4219,151,245.4219" style="stroke:#181818;stroke-width:1.0;"/><line style="stroke:#181818;stroke-width:1.0;stroke-dasharray:2.0,2.0;" x1="149" x2="314" y1="245.4219" y2="245.4219"/><text fill="#000000" font-family="sans-serif" font-size="13" lengthAdjust="spacing" textLength="31" x="161" y="240.5654">floors</text><ellipse cx="7.5" cy="275.0234" fill="none" rx="4" ry="4" style="stroke:#181818;stroke-width:1.5;"/><polygon fill="#181818" points="24.5,271.7734,14.5,275.7734,24.5,279.7734,20.5,275.7734" style="stroke:#181818;stroke-width:1.0;"/><ellipse cx="138.5" cy="275.0234" fill="none" rx="4" ry="4" style="stroke:#181818;stroke-width:1.5;"/><line style="stroke:#181818;stroke-width:1.0;stroke-dasharray:2.0,2.0;" x1="22.5" x2="134" y1="275.7734" y2="275.7734"/><text fill="#000000" font-family="sans-serif" font-size="13" lengthAdjust="spacing" textLength="31" x="25" y="270.917">floors</text><!--MD5=[1773c32693aa0710b7c71fc94347eaaf]
@startuml SD Lv2

participant " "
box "RobDroneGo" #LightBlue
    participant "Campus Management" as campus
    participant "DB" as DB
end box

[o-> campus : Get (buildingCode)
activate campus

campus -> DB : load passages by floor\nwith diferent buildingCode
activate DB
DB - -> campus : passages
deactivate DB

campus -> DB : load floors with\nthat buildingCode
activate DB
DB - -> campus : floors
deactivate DB

[o<- -o campus : floors
deactivate campus

@enduml

PlantUML version 1.2022.7(Mon Aug 22 18:01:30 BST 2022)
(GPL source distribution)
Java Runtime: Java(TM) SE Runtime Environment
JVM: Java HotSpot(TM) 64-Bit Server VM
Default Encoding: Cp1252
Language: pt
Country: PT
--></g></svg>