<?xml version="1.0" encoding="UTF-8" standalone="no"?><svg xmlns="http://www.w3.org/2000/svg" xmlns:xlink="http://www.w3.org/1999/xlink" contentStyleType="text/css" height="323px" preserveAspectRatio="none" style="width:558px;height:323px;background:#FFFFFF;" version="1.1" viewBox="0 0 558 323" width="558px" zoomAndPan="magnify"><defs/><g><rect fill="#ADD8E6" height="311.0313" style="stroke:#181818;stroke-width:0.5;" width="364.5" x="188" y="6"/><text fill="#000000" font-family="sans-serif" font-size="13" font-weight="bold" lengthAdjust="spacing" textLength="188" x="276.25" y="19.4951">Campus Management System</text><rect fill="#FFFFFF" height="163.7578" style="stroke:#181818;stroke-width:1.0;" width="10" x="263" y="107.6641"/><rect fill="#FFFFFF" height="30.3516" style="stroke:#181818;stroke-width:1.0;" width="10" x="527" y="138.0156"/><rect fill="none" height="81.0547" style="stroke:#000000;stroke-width:1.5;" width="344" x="10" y="183.3672"/><line style="stroke:#181818;stroke-width:0.5;stroke-dasharray:5.0,5.0;" x1="45" x2="45" y1="58.9609" y2="281.4219"/><line style="stroke:#181818;stroke-width:0.5;stroke-dasharray:5.0,5.0;" x1="268" x2="268" y1="58.9609" y2="281.4219"/><line style="stroke:#181818;stroke-width:0.5;stroke-dasharray:5.0,5.0;" x1="531.5" x2="531.5" y1="58.9609" y2="281.4219"/><rect fill="#E2E2F0" height="31.6094" rx="2.5" ry="2.5" style="stroke:#181818;stroke-width:0.5;" width="50" x="20" y="26.3516"/><text fill="#000000" font-family="sans-serif" font-size="14" lengthAdjust="spacing" textLength="36" x="27" y="47.8848">Client</text><rect fill="#E2E2F0" height="31.6094" rx="2.5" ry="2.5" style="stroke:#181818;stroke-width:0.5;" width="50" x="20" y="280.4219"/><text fill="#000000" font-family="sans-serif" font-size="14" lengthAdjust="spacing" textLength="36" x="27" y="301.9551">Client</text><rect fill="#E2E2F0" height="31.6094" rx="2.5" ry="2.5" style="stroke:#181818;stroke-width:0.5;" width="152" x="192" y="26.3516"/><text fill="#000000" font-family="sans-serif" font-size="14" lengthAdjust="spacing" textLength="138" x="199" y="47.8848">Campus Management</text><rect fill="#E2E2F0" height="31.6094" rx="2.5" ry="2.5" style="stroke:#181818;stroke-width:0.5;" width="152" x="192" y="280.4219"/><text fill="#000000" font-family="sans-serif" font-size="14" lengthAdjust="spacing" textLength="138" x="199" y="301.9551">Campus Management</text><rect fill="#E2E2F0" height="31.6094" rx="2.5" ry="2.5" style="stroke:#181818;stroke-width:0.5;" width="33" x="515.5" y="26.3516"/><text fill="#000000" font-family="sans-serif" font-size="14" lengthAdjust="spacing" textLength="19" x="522.5" y="47.8848">DB</text><rect fill="#E2E2F0" height="31.6094" rx="2.5" ry="2.5" style="stroke:#181818;stroke-width:0.5;" width="33" x="515.5" y="280.4219"/><text fill="#000000" font-family="sans-serif" font-size="14" lengthAdjust="spacing" textLength="19" x="522.5" y="301.9551">DB</text><rect fill="#FFFFFF" height="163.7578" style="stroke:#181818;stroke-width:1.0;" width="10" x="263" y="107.6641"/><rect fill="#FFFFFF" height="30.3516" style="stroke:#181818;stroke-width:1.0;" width="10" x="527" y="138.0156"/><polygon fill="#181818" points="251,103.6641,261,107.6641,251,111.6641,255,107.6641" style="stroke:#181818;stroke-width:1.0;"/><line style="stroke:#181818;stroke-width:1.0;" x1="45" x2="257" y1="107.6641" y2="107.6641"/><text fill="#000000" font-family="sans-serif" font-size="13" lengthAdjust="spacing" textLength="199" x="52" y="86.4561">GET /passages?building1={code1}</text><text fill="#000000" font-family="sans-serif" font-size="13" lengthAdjust="spacing" textLength="111" x="84" y="102.8076">&amp;building2={code2}</text><polygon fill="#181818" points="515,134.0156,525,138.0156,515,142.0156,519,138.0156" style="stroke:#181818;stroke-width:1.0;"/><line style="stroke:#181818;stroke-width:1.0;" x1="273" x2="521" y1="138.0156" y2="138.0156"/><text fill="#000000" font-family="sans-serif" font-size="13" lengthAdjust="spacing" textLength="235" x="280" y="133.1592">find passages between code1 and code2</text><polygon fill="#181818" points="284,164.3672,274,168.3672,284,172.3672,280,168.3672" style="stroke:#181818;stroke-width:1.0;"/><line style="stroke:#181818;stroke-width:1.0;stroke-dasharray:2.0,2.0;" x1="278" x2="531" y1="168.3672" y2="168.3672"/><text fill="#000000" font-family="sans-serif" font-size="13" lengthAdjust="spacing" textLength="139" x="290" y="163.5107">list of passages / empty</text><path d="M10,183.3672 L71,183.3672 L71,191.7188 L61,201.7188 L10,201.7188 L10,183.3672 " fill="#EEEEEE" style="stroke:#000000;stroke-width:1.5;"/><rect fill="none" height="81.0547" style="stroke:#000000;stroke-width:1.5;" width="344" x="10" y="183.3672"/><text fill="#000000" font-family="sans-serif" font-size="13" font-weight="bold" lengthAdjust="spacing" textLength="16" x="25" y="197.8623">alt</text><text fill="#000000" font-family="sans-serif" font-size="11" font-weight="bold" lengthAdjust="spacing" textLength="102" x="86" y="196.7861">[if passages exist]</text><polygon fill="#181818" points="56,220.0703,46,224.0703,56,228.0703,52,224.0703" style="stroke:#181818;stroke-width:1.0;"/><line style="stroke:#181818;stroke-width:1.0;stroke-dasharray:2.0,2.0;" x1="50" x2="262" y1="224.0703" y2="224.0703"/><text fill="#000000" font-family="sans-serif" font-size="13" lengthAdjust="spacing" textLength="77" x="62" y="219.2139">passages list</text><line style="stroke:#000000;stroke-width:1.0;stroke-dasharray:2.0,2.0;" x1="10" x2="354" y1="233.0703" y2="233.0703"/><polygon fill="#181818" points="56,252.4219,46,256.4219,56,260.4219,52,256.4219" style="stroke:#181818;stroke-width:1.0;"/><line style="stroke:#181818;stroke-width:1.0;stroke-dasharray:2.0,2.0;" x1="50" x2="262" y1="256.4219" y2="256.4219"/><text fill="#000000" font-family="sans-serif" font-size="13" lengthAdjust="spacing" textLength="57" x="62" y="251.5654">empty list</text><!--MD5=[7eb1921b6eb12a073495f09fd89ee8a2]
@startuml SD Lv2

participant "Client" as Client
box "Campus Management System" #LightBlue
    participant "Campus Management" as Campus
    participant "DB" as DB
end box

Client -> Campus : GET /passages?building1={code1}\n\t&building2={code2}
activate Campus

Campus -> DB : find passages between code1 and code2
activate DB
DB - -> Campus : list of passages / empty
deactivate DB

alt if passages exist
    Client <- - Campus : passages list
else
    Client <- - Campus : empty list
end

deactivate Campus

@enduml

PlantUML version 1.2022.7(Mon Aug 22 18:01:30 BST 2022)
(GPL source distribution)
Java Runtime: Java(TM) SE Runtime Environment
JVM: Java HotSpot(TM) Client VM
Default Encoding: Cp1252
Language: en
Country: US
--></g></svg>