<?xml version="1.0" encoding="UTF-8" standalone="no"?><svg xmlns="http://www.w3.org/2000/svg" xmlns:xlink="http://www.w3.org/1999/xlink" contentStyleType="text/css" height="323px" preserveAspectRatio="none" style="width:521px;height:323px;background:#FFFFFF;" version="1.1" viewBox="0 0 521 323" width="521px" zoomAndPan="magnify"><defs/><g><rect fill="#ADD8E6" height="311.0313" style="stroke:#181818;stroke-width:0.5;" width="364.5" x="151" y="6"/><text fill="#000000" font-family="sans-serif" font-size="13" font-weight="bold" lengthAdjust="spacing" textLength="188" x="239.25" y="19.4951">Campus Management System</text><rect fill="#FFFFFF" height="163.7578" style="stroke:#181818;stroke-width:1.0;" width="10" x="226" y="107.6641"/><rect fill="#FFFFFF" height="30.3516" style="stroke:#181818;stroke-width:1.0;" width="10" x="490" y="138.0156"/><rect fill="none" height="81.0547" style="stroke:#000000;stroke-width:1.5;" width="306" x="11" y="183.3672"/><line style="stroke:#181818;stroke-width:0.5;stroke-dasharray:5.0,5.0;" x1="231" x2="231" y1="58.9609" y2="281.4219"/><line style="stroke:#181818;stroke-width:0.5;stroke-dasharray:5.0,5.0;" x1="494.5" x2="494.5" y1="58.9609" y2="281.4219"/><rect fill="#E2E2F0" height="31.6094" rx="2.5" ry="2.5" style="stroke:#181818;stroke-width:0.5;" width="152" x="155" y="26.3516"/><text fill="#000000" font-family="sans-serif" font-size="14" lengthAdjust="spacing" textLength="138" x="162" y="47.8848">Campus Management</text><rect fill="#E2E2F0" height="31.6094" rx="2.5" ry="2.5" style="stroke:#181818;stroke-width:0.5;" width="152" x="155" y="280.4219"/><text fill="#000000" font-family="sans-serif" font-size="14" lengthAdjust="spacing" textLength="138" x="162" y="301.9551">Campus Management</text><rect fill="#E2E2F0" height="31.6094" rx="2.5" ry="2.5" style="stroke:#181818;stroke-width:0.5;" width="33" x="478.5" y="26.3516"/><text fill="#000000" font-family="sans-serif" font-size="14" lengthAdjust="spacing" textLength="19" x="485.5" y="47.8848">DB</text><rect fill="#E2E2F0" height="31.6094" rx="2.5" ry="2.5" style="stroke:#181818;stroke-width:0.5;" width="33" x="478.5" y="280.4219"/><text fill="#000000" font-family="sans-serif" font-size="14" lengthAdjust="spacing" textLength="19" x="485.5" y="301.9551">DB</text><rect fill="#FFFFFF" height="163.7578" style="stroke:#181818;stroke-width:1.0;" width="10" x="226" y="107.6641"/><rect fill="#FFFFFF" height="30.3516" style="stroke:#181818;stroke-width:1.0;" width="10" x="490" y="138.0156"/><ellipse cx="7.5" cy="106.9141" fill="none" rx="4" ry="4" style="stroke:#181818;stroke-width:1.5;"/><polygon fill="#181818" points="214,103.6641,224,107.6641,214,111.6641,218,107.6641" style="stroke:#181818;stroke-width:1.0;"/><line style="stroke:#181818;stroke-width:1.0;" x1="12" x2="220" y1="107.6641" y2="107.6641"/><text fill="#000000" font-family="sans-serif" font-size="13" lengthAdjust="spacing" textLength="199" x="15" y="86.4561">GET /passages?building1={code1}</text><text fill="#000000" font-family="sans-serif" font-size="13" lengthAdjust="spacing" textLength="111" x="47" y="102.8076">&amp;building2={code2}</text><polygon fill="#181818" points="478,134.0156,488,138.0156,478,142.0156,482,138.0156" style="stroke:#181818;stroke-width:1.0;"/><line style="stroke:#181818;stroke-width:1.0;" x1="236" x2="484" y1="138.0156" y2="138.0156"/><text fill="#000000" font-family="sans-serif" font-size="13" lengthAdjust="spacing" textLength="235" x="243" y="133.1592">find passages between code1 and code2</text><polygon fill="#181818" points="247,164.3672,237,168.3672,247,172.3672,243,168.3672" style="stroke:#181818;stroke-width:1.0;"/><line style="stroke:#181818;stroke-width:1.0;stroke-dasharray:2.0,2.0;" x1="241" x2="494" y1="168.3672" y2="168.3672"/><text fill="#000000" font-family="sans-serif" font-size="13" lengthAdjust="spacing" textLength="139" x="253" y="163.5107">list of passages / empty</text><path d="M11,183.3672 L72,183.3672 L72,191.7188 L62,201.7188 L11,201.7188 L11,183.3672 " fill="#EEEEEE" style="stroke:#000000;stroke-width:1.5;"/><rect fill="none" height="81.0547" style="stroke:#000000;stroke-width:1.5;" width="306" x="11" y="183.3672"/><text fill="#000000" font-family="sans-serif" font-size="13" font-weight="bold" lengthAdjust="spacing" textLength="16" x="26" y="197.8623">alt</text><text fill="#000000" font-family="sans-serif" font-size="11" font-weight="bold" lengthAdjust="spacing" textLength="102" x="87" y="196.7861">[if passages exist]</text><ellipse cx="7.5" cy="223.3203" fill="none" rx="4" ry="4" style="stroke:#181818;stroke-width:1.5;"/><polygon fill="#181818" points="24.5,220.0703,14.5,224.0703,24.5,228.0703,20.5,224.0703" style="stroke:#181818;stroke-width:1.0;"/><ellipse cx="225.5" cy="223.3203" fill="none" rx="4" ry="4" style="stroke:#181818;stroke-width:1.5;"/><line style="stroke:#181818;stroke-width:1.0;stroke-dasharray:2.0,2.0;" x1="22.5" x2="221" y1="224.0703" y2="224.0703"/><text fill="#000000" font-family="sans-serif" font-size="13" lengthAdjust="spacing" textLength="77" x="25" y="219.2139">passages list</text><line style="stroke:#000000;stroke-width:1.0;stroke-dasharray:2.0,2.0;" x1="11" x2="317" y1="233.0703" y2="233.0703"/><ellipse cx="7.5" cy="255.6719" fill="none" rx="4" ry="4" style="stroke:#181818;stroke-width:1.5;"/><polygon fill="#181818" points="24.5,252.4219,14.5,256.4219,24.5,260.4219,20.5,256.4219" style="stroke:#181818;stroke-width:1.0;"/><ellipse cx="225.5" cy="255.6719" fill="none" rx="4" ry="4" style="stroke:#181818;stroke-width:1.5;"/><line style="stroke:#181818;stroke-width:1.0;stroke-dasharray:2.0,2.0;" x1="22.5" x2="221" y1="256.4219" y2="256.4219"/><text fill="#000000" font-family="sans-serif" font-size="13" lengthAdjust="spacing" textLength="57" x="25" y="251.5654">empty list</text><!--MD5=[a7f2478726377216cc9b0a95aae89aa6]
@startuml SD Lv2

box "Campus Management System" #LightBlue
    participant "Campus Management" as Campus
    participant "DB" as DB
end box

[o-> Campus : GET /passages?building1={code1}\n\t&building2={code2}
activate Campus

Campus -> DB : find passages between code1 and code2
activate DB
DB - -> Campus : list of passages / empty
deactivate DB

alt if passages exist
    [o<- -o Campus : passages list
else
    [o<- -o Campus : empty list
end

deactivate Campus

@enduml

PlantUML version 1.2022.7(Mon Aug 22 18:01:30 BST 2022)
(GPL source distribution)
Java Runtime: Java(TM) SE Runtime Environment
JVM: Java HotSpot(TM) Client VM
Default Encoding: Cp1252
Language: en
Country: US
--></g></svg>