<?xml version="1.0" encoding="UTF-8" standalone="no"?><svg xmlns="http://www.w3.org/2000/svg" xmlns:xlink="http://www.w3.org/1999/xlink" contentStyleType="text/css" height="1543px" preserveAspectRatio="none" style="width:1572px;height:1543px;background:#FFFFFF;" version="1.1" viewBox="0 0 1572 1543" width="1572px" zoomAndPan="magnify"><defs/><g><!--MD5=[79efd02527a48d03834afa6499b87e11]
cluster Robot Aggregate--><g id="cluster_Robot Aggregate"><rect fill="none" height="188" rx="2.5" ry="2.5" style="stroke:#000000;stroke-width:1.5;" width="135" x="487" y="234"/><text fill="#000000" font-family="sans-serif" font-size="14" font-weight="bold" lengthAdjust="spacing" textLength="119" x="495" y="250.5332">Robot Aggregate</text></g><!--MD5=[41c9a686ef473cfdc51aafeb06231e37]
cluster RobotType Aggregate--><g id="cluster_RobotType Aggregate"><rect fill="none" height="156" rx="2.5" ry="2.5" style="stroke:#000000;stroke-width:1.5;" width="168" x="752" y="7"/><text fill="#000000" font-family="sans-serif" font-size="14" font-weight="bold" lengthAdjust="spacing" textLength="152" x="760" y="23.5332">RobotType Aggregate</text></g><!--MD5=[aeecaefc43c868fbd9995fffb16fa69b]
cluster Building Aggregate--><g id="cluster_Building Aggregate"><rect fill="none" height="332" rx="2.5" ry="2.5" style="stroke:#000000;stroke-width:1.5;" width="334" x="1232.5" y="609"/><text fill="#000000" font-family="sans-serif" font-size="14" font-weight="bold" lengthAdjust="spacing" textLength="135" x="1332" y="625.5332">Building Aggregate</text></g><!--MD5=[dbd23724a134564676f2a4407de2031d]
cluster Floor Aggregate--><g id="cluster_Floor Aggregate"><rect fill="none" height="172" rx="2.5" ry="2.5" style="stroke:#000000;stroke-width:1.5;" width="373" x="1006.5" y="413"/><text fill="#000000" font-family="sans-serif" font-size="14" font-weight="bold" lengthAdjust="spacing" textLength="114" x="1136" y="429.5332">Floor Aggregate</text></g><!--MD5=[32647ba93dd8243e888a331c07e24740]
cluster BaseUser Aggregate--><g id="cluster_BaseUser Aggregate"><rect fill="none" height="246" rx="2.5" ry="2.5" style="stroke:#000000;stroke-width:1.5;" width="324" x="1242.5" y="1017"/><text fill="#000000" font-family="sans-serif" font-size="14" font-weight="bold" lengthAdjust="spacing" textLength="145" x="1332" y="1033.5332">BaseUser Aggregate</text></g><!--MD5=[908c327d643b526f81c437f9b6a684b6]
cluster Task Aggregate--><g id="cluster_Task Aggregate"><rect fill="none" height="180" rx="2.5" ry="2.5" style="stroke:#000000;stroke-width:1.5;" width="401.5" x="502" y="955"/><text fill="#000000" font-family="sans-serif" font-size="14" font-weight="bold" lengthAdjust="spacing" textLength="109" x="648.25" y="971.5332">Task Aggregate</text></g><!--MD5=[02b3ac50cc04d41141109ff5835f0873]
cluster Task Type Aggregate--><g id="cluster_Task Type Aggregate"><rect fill="none" height="214" rx="2.5" ry="2.5" style="stroke:#000000;stroke-width:1.5;" width="162" x="1224.5" y="28"/><text fill="#000000" font-family="sans-serif" font-size="14" font-weight="bold" lengthAdjust="spacing" textLength="146" x="1232.5" y="44.5332">Task Type Aggregate</text></g><!--MD5=[64c2789ce9da9aabf40f155f4b04aeec]
cluster Fleet Manager Aggregate--><g id="cluster_Fleet Manager Aggregate"><rect fill="none" height="118" rx="2.5" ry="2.5" style="stroke:#000000;stroke-width:1.5;" width="195" x="188.5" y="166"/><text fill="#000000" font-family="sans-serif" font-size="14" font-weight="bold" lengthAdjust="spacing" textLength="179" x="196.5" y="182.5332">Fleet Manager Aggregate</text></g><!--MD5=[2baf81593da472bb97ebb1443eec6efe]
cluster Task Manager Aggregate--><g id="cluster_Task Manager Aggregate"><rect fill="none" height="118" rx="2.5" ry="2.5" style="stroke:#000000;stroke-width:1.5;" width="191" x="190" y="948"/><text fill="#000000" font-family="sans-serif" font-size="14" font-weight="bold" lengthAdjust="spacing" textLength="175" x="198" y="964.5332">Task Manager Aggregate</text></g><!--MD5=[dc553f7639cdba08e7081e24d0e25571]
cluster Campus Aggregate--><g id="cluster_Campus Aggregate"><rect fill="none" height="104" rx="2.5" ry="2.5" style="stroke:#000000;stroke-width:1.5;" width="149" x="7" y="615"/><text fill="#000000" font-family="sans-serif" font-size="14" font-weight="bold" lengthAdjust="spacing" textLength="133" x="15" y="631.5332">Campus Aggregate</text></g><!--MD5=[77703938d318df1b4ec307e4e8c1bd3f]
cluster Surveillance Task Aggregate--><g id="cluster_Surveillance Task Aggregate"><rect fill="none" height="118" rx="2.5" ry="2.5" style="stroke:#000000;stroke-width:1.5;" width="429.5" x="199.5" y="769"/><text fill="#000000" font-family="sans-serif" font-size="14" font-weight="bold" lengthAdjust="spacing" textLength="201" x="313.75" y="785.5332">Surveillance Task Aggregate</text></g><!--MD5=[90cdabe10cdb4b454fb79c0cd58e02d9]
cluster Delivery Task Aggregate--><g id="cluster_Delivery Task Aggregate"><rect fill="none" height="242" rx="2.5" ry="2.5" style="stroke:#000000;stroke-width:1.5;" width="187" x="192" y="1229"/><text fill="#000000" font-family="sans-serif" font-size="14" font-weight="bold" lengthAdjust="spacing" textLength="171" x="200" y="1245.5332">Delivery Task Aggregate</text></g><!--MD5=[b25bf56504b46c11a6fb85cb1afde3e0]
cluster Room Aggregate--><g id="cluster_Room Aggregate"><rect fill="none" height="188" rx="2.5" ry="2.5" style="stroke:#000000;stroke-width:1.5;" width="387" x="779.5" y="1223"/><text fill="#000000" font-family="sans-serif" font-size="14" font-weight="bold" lengthAdjust="spacing" textLength="117" x="914.5" y="1239.5332">Room Aggregate</text></g><!--MD5=[6a2800ab2051bd6f72341d6b86d73ca7]
cluster Passage Aggregate--><g id="cluster_Passage Aggregate"><rect fill="none" height="118" rx="2.5" ry="2.5" style="stroke:#000000;stroke-width:1.5;" width="152" x="760.5" y="421"/><text fill="#000000" font-family="sans-serif" font-size="14" font-weight="bold" lengthAdjust="spacing" textLength="136" x="768.5" y="437.5332">Passage Aggregate</text></g><!--MD5=[d0083cf0b2d9f17e335f85bf9624e57e]
cluster User--><g id="cluster_User"><rect fill="none" height="118" rx="2.5" ry="2.5" style="stroke:#000000;stroke-width:1.5;" width="104" x="1035" y="1081"/><text fill="#000000" font-family="sans-serif" font-size="14" font-weight="bold" lengthAdjust="spacing" textLength="33" x="1070.5" y="1097.5332">User</text></g><!--MD5=[60fb4f72b7635aa97affd2efc062a79f]
class Robot--><g id="elem_Robot"><rect codeLine="28" fill="#D8F5FF" height="136.2344" id="Robot" rx="2.5" ry="2.5" style="stroke:#1E90FF;stroke-width:0.5;" width="80" x="514" y="270"/><ellipse cx="533.05" cy="298.8984" fill="#ADD1B2" rx="11" ry="11" style="stroke:#181818;stroke-width:1.0;"/><path d="M531.9094,299.6953 L531.9094,302.1953 L536.2375,302.1953 L536.2375,301.2734 Q536.2375,300.6641 536.4797,300.3984 Q536.7219,300.1328 537.0969,300.1328 Q537.4719,300.1328 537.7063,300.3984 Q537.9406,300.6641 537.9406,301.2734 L537.9406,303.8984 L529.9406,303.8984 Q529.3156,303.8984 529.0578,303.6641 Q528.8,303.4297 528.8,303.0391 Q528.8,302.6641 529.0656,302.4297 Q529.3313,302.1953 529.9406,302.1953 L530.2063,302.1953 L530.2063,295.5391 L529.9406,295.5391 Q529.3156,295.5391 529.0578,295.3047 Q528.8,295.0703 528.8,294.6797 Q528.8,294.3047 529.0578,294.0703 Q529.3156,293.8359 529.9406,293.8359 L537.5656,293.8359 L537.5656,296.4297 Q537.5656,297.0391 537.3391,297.2969 Q537.1125,297.5547 536.7219,297.5547 Q536.3469,297.5547 536.1125,297.2969 Q535.8781,297.0391 535.8781,296.4297 L535.8781,295.5391 L531.9094,295.5391 L531.9094,297.9922 L533.3938,297.9922 Q533.3938,297.3359 533.5188,297.1484 Q533.7844,296.7422 534.2531,296.7422 Q534.6281,296.7422 534.8625,297 Q535.0969,297.2578 535.0969,297.8672 L535.0969,299.8359 Q535.0969,300.3828 534.9719,300.5703 Q534.7063,300.9609 534.2531,300.9609 Q533.7844,300.9609 533.5188,300.5547 Q533.3938,300.3672 533.3938,299.6953 L531.9094,299.6953 Z " fill="#000000"/><text fill="#000000" font-family="sans-serif" font-size="12" font-style="italic" lengthAdjust="spacing" textLength="43" x="545.95" y="287.457">«entity»</text><text fill="#000000" font-family="sans-serif" font-size="12" font-style="italic" lengthAdjust="spacing" textLength="35" x="549.95" y="302.5508">«root»</text><text fill="#000000" font-family="sans-serif" font-size="14" lengthAdjust="spacing" textLength="38" x="548.45" y="319.7207">Robot</text><line style="stroke:#1E90FF;stroke-width:0.5;" x1="515" x2="593" y1="327.7969" y2="327.7969"/><text fill="#000000" font-family="sans-serif" font-size="14" lengthAdjust="spacing" textLength="11" x="520" y="346.3301">id</text><text fill="#000000" font-family="sans-serif" font-size="14" lengthAdjust="spacing" textLength="54" x="520" y="363.9395">fullName</text><text fill="#000000" font-family="sans-serif" font-size="14" lengthAdjust="spacing" textLength="68" x="520" y="381.5488">shortName</text><text fill="#000000" font-family="sans-serif" font-size="14" lengthAdjust="spacing" textLength="65" x="520" y="399.1582">?location?</text></g><!--MD5=[ccfa383e5efe879a22324d26e60c61a8]
class RobotType--><g id="elem_RobotType"><rect codeLine="38" fill="#D8F5FF" height="103.5313" id="RobotType" rx="2.5" ry="2.5" style="stroke:#1E90FF;stroke-width:0.5;" width="102" x="785" y="43"/><ellipse cx="800" cy="64.3516" fill="#ADD1B2" rx="11" ry="11" style="stroke:#181818;stroke-width:1.0;"/><path d="M798.8594,65.1484 L798.8594,67.6484 L803.1875,67.6484 L803.1875,66.7266 Q803.1875,66.1172 803.4297,65.8516 Q803.6719,65.5859 804.0469,65.5859 Q804.4219,65.5859 804.6563,65.8516 Q804.8906,66.1172 804.8906,66.7266 L804.8906,69.3516 L796.8906,69.3516 Q796.2656,69.3516 796.0078,69.1172 Q795.75,68.8828 795.75,68.4922 Q795.75,68.1172 796.0156,67.8828 Q796.2813,67.6484 796.8906,67.6484 L797.1563,67.6484 L797.1563,60.9922 L796.8906,60.9922 Q796.2656,60.9922 796.0078,60.7578 Q795.75,60.5234 795.75,60.1328 Q795.75,59.7578 796.0078,59.5234 Q796.2656,59.2891 796.8906,59.2891 L804.5156,59.2891 L804.5156,61.8828 Q804.5156,62.4922 804.2891,62.75 Q804.0625,63.0078 803.6719,63.0078 Q803.2969,63.0078 803.0625,62.75 Q802.8281,62.4922 802.8281,61.8828 L802.8281,60.9922 L798.8594,60.9922 L798.8594,63.4453 L800.3438,63.4453 Q800.3438,62.7891 800.4688,62.6016 Q800.7344,62.1953 801.2031,62.1953 Q801.5781,62.1953 801.8125,62.4531 Q802.0469,62.7109 802.0469,63.3203 L802.0469,65.2891 Q802.0469,65.8359 801.9219,66.0234 Q801.6563,66.4141 801.2031,66.4141 Q800.7344,66.4141 800.4688,66.0078 Q800.3438,65.8203 800.3438,65.1484 L798.8594,65.1484 Z " fill="#000000"/><text fill="#000000" font-family="sans-serif" font-size="12" font-style="italic" lengthAdjust="spacing" textLength="43" x="827.5" y="60.457">«entity»</text><text fill="#000000" font-family="sans-serif" font-size="14" lengthAdjust="spacing" textLength="70" x="814" y="77.627">RobotType</text><line style="stroke:#1E90FF;stroke-width:0.5;" x1="786" x2="886" y1="85.7031" y2="85.7031"/><text fill="#000000" font-family="sans-serif" font-size="14" lengthAdjust="spacing" textLength="37" x="791" y="104.2363">brand</text><text fill="#000000" font-family="sans-serif" font-size="14" lengthAdjust="spacing" textLength="38" x="791" y="121.8457">model</text><text fill="#000000" font-family="sans-serif" font-size="14" lengthAdjust="spacing" textLength="35" x="791" y="139.4551">name</text></g><!--MD5=[8560f289a30852a9f75d64e53f926853]
class Building--><g id="elem_Building"><rect codeLine="47" fill="#D8F5FF" height="83.4063" id="Building" rx="2.5" ry="2.5" style="stroke:#1E90FF;stroke-width:0.5;" width="113" x="1248.5" y="704.5"/><ellipse cx="1277.45" cy="733.3984" fill="#ADD1B2" rx="11" ry="11" style="stroke:#181818;stroke-width:1.0;"/><path d="M1276.3094,734.1953 L1276.3094,736.6953 L1280.6375,736.6953 L1280.6375,735.7734 Q1280.6375,735.1641 1280.8797,734.8984 Q1281.1219,734.6328 1281.4969,734.6328 Q1281.8719,734.6328 1282.1063,734.8984 Q1282.3406,735.1641 1282.3406,735.7734 L1282.3406,738.3984 L1274.3406,738.3984 Q1273.7156,738.3984 1273.4578,738.1641 Q1273.2,737.9297 1273.2,737.5391 Q1273.2,737.1641 1273.4656,736.9297 Q1273.7313,736.6953 1274.3406,736.6953 L1274.6063,736.6953 L1274.6063,730.0391 L1274.3406,730.0391 Q1273.7156,730.0391 1273.4578,729.8047 Q1273.2,729.5703 1273.2,729.1797 Q1273.2,728.8047 1273.4578,728.5703 Q1273.7156,728.3359 1274.3406,728.3359 L1281.9656,728.3359 L1281.9656,730.9297 Q1281.9656,731.5391 1281.7391,731.7969 Q1281.5125,732.0547 1281.1219,732.0547 Q1280.7469,732.0547 1280.5125,731.7969 Q1280.2781,731.5391 1280.2781,730.9297 L1280.2781,730.0391 L1276.3094,730.0391 L1276.3094,732.4922 L1277.7938,732.4922 Q1277.7938,731.8359 1277.9188,731.6484 Q1278.1844,731.2422 1278.6531,731.2422 Q1279.0281,731.2422 1279.2625,731.5 Q1279.4969,731.7578 1279.4969,732.3672 L1279.4969,734.3359 Q1279.4969,734.8828 1279.3719,735.0703 Q1279.1063,735.4609 1278.6531,735.4609 Q1278.1844,735.4609 1277.9188,735.0547 Q1277.7938,734.8672 1277.7938,734.1953 L1276.3094,734.1953 Z " fill="#000000"/><text fill="#000000" font-family="sans-serif" font-size="12" font-style="italic" lengthAdjust="spacing" textLength="43" x="1298.05" y="721.957">«entity»</text><text fill="#000000" font-family="sans-serif" font-size="12" font-style="italic" lengthAdjust="spacing" textLength="35" x="1302.05" y="737.0508">«root»</text><text fill="#000000" font-family="sans-serif" font-size="14" lengthAdjust="spacing" textLength="50" x="1294.55" y="754.2207">Building</text><line style="stroke:#1E90FF;stroke-width:0.5;" x1="1249.5" x2="1360.5" y1="762.2969" y2="762.2969"/><text fill="#000000" font-family="sans-serif" font-size="14" lengthAdjust="spacing" textLength="101" x="1254.5" y="780.8301">floorDimensions</text></g><!--MD5=[93e485d66e62470c0e68a81214641dfb]
class Elevator--><g id="elem_Elevator"><rect codeLine="60" fill="#D8F5FF" height="50.7031" id="Elevator" rx="2.5" ry="2.5" style="stroke:#1E90FF;stroke-width:0.5;" width="84" x="1450" y="721.5"/><ellipse cx="1465" cy="742.8516" fill="#ADD1B2" rx="11" ry="11" style="stroke:#181818;stroke-width:1.0;"/><path d="M1463.8594,743.6484 L1463.8594,746.1484 L1468.1875,746.1484 L1468.1875,745.2266 Q1468.1875,744.6172 1468.4297,744.3516 Q1468.6719,744.0859 1469.0469,744.0859 Q1469.4219,744.0859 1469.6563,744.3516 Q1469.8906,744.6172 1469.8906,745.2266 L1469.8906,747.8516 L1461.8906,747.8516 Q1461.2656,747.8516 1461.0078,747.6172 Q1460.75,747.3828 1460.75,746.9922 Q1460.75,746.6172 1461.0156,746.3828 Q1461.2813,746.1484 1461.8906,746.1484 L1462.1563,746.1484 L1462.1563,739.4922 L1461.8906,739.4922 Q1461.2656,739.4922 1461.0078,739.2578 Q1460.75,739.0234 1460.75,738.6328 Q1460.75,738.2578 1461.0078,738.0234 Q1461.2656,737.7891 1461.8906,737.7891 L1469.5156,737.7891 L1469.5156,740.3828 Q1469.5156,740.9922 1469.2891,741.25 Q1469.0625,741.5078 1468.6719,741.5078 Q1468.2969,741.5078 1468.0625,741.25 Q1467.8281,740.9922 1467.8281,740.3828 L1467.8281,739.4922 L1463.8594,739.4922 L1463.8594,741.9453 L1465.3438,741.9453 Q1465.3438,741.2891 1465.4688,741.1016 Q1465.7344,740.6953 1466.2031,740.6953 Q1466.5781,740.6953 1466.8125,740.9531 Q1467.0469,741.2109 1467.0469,741.8203 L1467.0469,743.7891 Q1467.0469,744.3359 1466.9219,744.5234 Q1466.6563,744.9141 1466.2031,744.9141 Q1465.7344,744.9141 1465.4688,744.5078 Q1465.3438,744.3203 1465.3438,743.6484 L1463.8594,743.6484 Z " fill="#000000"/><text fill="#000000" font-family="sans-serif" font-size="12" font-style="italic" lengthAdjust="spacing" textLength="44" x="1483" y="738.957">«Entity»</text><text fill="#000000" font-family="sans-serif" font-size="14" lengthAdjust="spacing" textLength="52" x="1479" y="756.127">Elevator</text><line style="stroke:#1E90FF;stroke-width:0.5;" x1="1451" x2="1533" y1="764.2031" y2="764.2031"/></g><!--MD5=[6932706212af0c5b7cbe8a453bb70d5d]
entity Name--><g id="elem_Name"><rect fill="#D8F5FF" height="41.2188" rx="2.5" ry="2.5" style="stroke:#1E90FF;stroke-width:0.5;" width="117" x="1433.5" y="645.5"/><text fill="#000000" font-family="sans-serif" font-size="14" font-style="italic" lengthAdjust="spacing" textLength="97" x="1443.5" y="663.0332">«Value Object»</text><text fill="#000000" font-family="sans-serif" font-size="14" lengthAdjust="spacing" textLength="36" x="1474" y="680.6426">Name</text></g><!--MD5=[b465bb439034b63929654574fc79a74c]
entity Description--><g id="elem_Description"><rect fill="#D8F5FF" height="41.2188" rx="2.5" ry="2.5" style="stroke:#1E90FF;stroke-width:0.5;" width="117" x="1433.5" y="883.5"/><text fill="#000000" font-family="sans-serif" font-size="14" font-style="italic" lengthAdjust="spacing" textLength="97" x="1443.5" y="901.0332">«Value Object»</text><text fill="#000000" font-family="sans-serif" font-size="14" lengthAdjust="spacing" textLength="71" x="1456.5" y="918.6426">Description</text></g><!--MD5=[9c442af377b6b7b7a3f508cc1fb70c5e]
entity Code--><g id="elem_Code"><rect fill="#D8F5FF" height="41.2188" rx="2.5" ry="2.5" style="stroke:#1E90FF;stroke-width:0.5;" width="117" x="1433.5" y="807.5"/><text fill="#000000" font-family="sans-serif" font-size="14" font-style="italic" lengthAdjust="spacing" textLength="97" x="1443.5" y="825.0332">«Value Object»</text><text fill="#000000" font-family="sans-serif" font-size="14" lengthAdjust="spacing" textLength="34" x="1475" y="842.6426">Code</text></g><!--MD5=[b098efa4dd65edfeebe973e4edec7c36]
class Floor--><g id="elem_Floor"><rect codeLine="72" fill="#D8F5FF" height="118.625" id="Floor" rx="2.5" ry="2.5" style="stroke:#1E90FF;stroke-width:0.5;" width="129" x="1022.5" y="449.5"/><ellipse cx="1063.6" cy="478.3984" fill="#ADD1B2" rx="11" ry="11" style="stroke:#181818;stroke-width:1.0;"/><path d="M1062.4594,479.1953 L1062.4594,481.6953 L1066.7875,481.6953 L1066.7875,480.7734 Q1066.7875,480.1641 1067.0297,479.8984 Q1067.2719,479.6328 1067.6469,479.6328 Q1068.0219,479.6328 1068.2563,479.8984 Q1068.4906,480.1641 1068.4906,480.7734 L1068.4906,483.3984 L1060.4906,483.3984 Q1059.8656,483.3984 1059.6078,483.1641 Q1059.35,482.9297 1059.35,482.5391 Q1059.35,482.1641 1059.6156,481.9297 Q1059.8813,481.6953 1060.4906,481.6953 L1060.7563,481.6953 L1060.7563,475.0391 L1060.4906,475.0391 Q1059.8656,475.0391 1059.6078,474.8047 Q1059.35,474.5703 1059.35,474.1797 Q1059.35,473.8047 1059.6078,473.5703 Q1059.8656,473.3359 1060.4906,473.3359 L1068.1156,473.3359 L1068.1156,475.9297 Q1068.1156,476.5391 1067.8891,476.7969 Q1067.6625,477.0547 1067.2719,477.0547 Q1066.8969,477.0547 1066.6625,476.7969 Q1066.4281,476.5391 1066.4281,475.9297 L1066.4281,475.0391 L1062.4594,475.0391 L1062.4594,477.4922 L1063.9438,477.4922 Q1063.9438,476.8359 1064.0688,476.6484 Q1064.3344,476.2422 1064.8031,476.2422 Q1065.1781,476.2422 1065.4125,476.5 Q1065.6469,476.7578 1065.6469,477.3672 L1065.6469,479.3359 Q1065.6469,479.8828 1065.5219,480.0703 Q1065.2563,480.4609 1064.8031,480.4609 Q1064.3344,480.4609 1064.0688,480.0547 Q1063.9438,479.8672 1063.9438,479.1953 L1062.4594,479.1953 Z " fill="#000000"/><text fill="#000000" font-family="sans-serif" font-size="12" font-style="italic" lengthAdjust="spacing" textLength="43" x="1081.4" y="466.957">«entity»</text><text fill="#000000" font-family="sans-serif" font-size="12" font-style="italic" lengthAdjust="spacing" textLength="35" x="1085.4" y="482.0508">«root»</text><text fill="#000000" font-family="sans-serif" font-size="14" lengthAdjust="spacing" textLength="33" x="1086.4" y="499.2207">Floor</text><line style="stroke:#1E90FF;stroke-width:0.5;" x1="1023.5" x2="1150.5" y1="507.2969" y2="507.2969"/><text fill="#000000" font-family="sans-serif" font-size="14" lengthAdjust="spacing" textLength="31" x="1028.5" y="525.8301">code</text><text fill="#000000" font-family="sans-serif" font-size="14" lengthAdjust="spacing" textLength="69" x="1028.5" y="543.4395">description</text><text fill="#000000" font-family="sans-serif" font-size="14" lengthAdjust="spacing" textLength="117" x="1028.5" y="561.0488">served by elevator</text></g><!--MD5=[2596564e44ab3aa47d7c167100f8b894]
entity Map--><g id="elem_Map"><rect fill="#D8F5FF" height="41.2188" rx="2.5" ry="2.5" style="stroke:#1E90FF;stroke-width:0.5;" width="117" x="1246.5" y="485.5"/><text fill="#000000" font-family="sans-serif" font-size="14" font-style="italic" lengthAdjust="spacing" textLength="97" x="1256.5" y="503.0332">«Value Object»</text><text fill="#000000" font-family="sans-serif" font-size="14" lengthAdjust="spacing" textLength="27" x="1291.5" y="520.6426">Map</text></g><!--MD5=[deda5ac1b41de4b644e95d7bbc0f99e6]
class BaseUser--><g id="elem_BaseUser"><rect codeLine="87" fill="#D8F5FF" height="50.7031" id="BaseUser" rx="2.5" ry="2.5" style="stroke:#1E90FF;stroke-width:0.5;" width="93" x="1258.5" y="1124.5"/><ellipse cx="1273.5" cy="1145.8516" fill="#ADD1B2" rx="11" ry="11" style="stroke:#181818;stroke-width:1.0;"/><path d="M1272.3594,1146.6484 L1272.3594,1149.1484 L1276.6875,1149.1484 L1276.6875,1148.2266 Q1276.6875,1147.6172 1276.9297,1147.3516 Q1277.1719,1147.0859 1277.5469,1147.0859 Q1277.9219,1147.0859 1278.1563,1147.3516 Q1278.3906,1147.6172 1278.3906,1148.2266 L1278.3906,1150.8516 L1270.3906,1150.8516 Q1269.7656,1150.8516 1269.5078,1150.6172 Q1269.25,1150.3828 1269.25,1149.9922 Q1269.25,1149.6172 1269.5156,1149.3828 Q1269.7813,1149.1484 1270.3906,1149.1484 L1270.6563,1149.1484 L1270.6563,1142.4922 L1270.3906,1142.4922 Q1269.7656,1142.4922 1269.5078,1142.2578 Q1269.25,1142.0234 1269.25,1141.6328 Q1269.25,1141.2578 1269.5078,1141.0234 Q1269.7656,1140.7891 1270.3906,1140.7891 L1278.0156,1140.7891 L1278.0156,1143.3828 Q1278.0156,1143.9922 1277.7891,1144.25 Q1277.5625,1144.5078 1277.1719,1144.5078 Q1276.7969,1144.5078 1276.5625,1144.25 Q1276.3281,1143.9922 1276.3281,1143.3828 L1276.3281,1142.4922 L1272.3594,1142.4922 L1272.3594,1144.9453 L1273.8438,1144.9453 Q1273.8438,1144.2891 1273.9688,1144.1016 Q1274.2344,1143.6953 1274.7031,1143.6953 Q1275.0781,1143.6953 1275.3125,1143.9531 Q1275.5469,1144.2109 1275.5469,1144.8203 L1275.5469,1146.7891 Q1275.5469,1147.3359 1275.4219,1147.5234 Q1275.1563,1147.9141 1274.7031,1147.9141 Q1274.2344,1147.9141 1273.9688,1147.5078 Q1273.8438,1147.3203 1273.8438,1146.6484 L1272.3594,1146.6484 Z " fill="#000000"/><text fill="#000000" font-family="sans-serif" font-size="12" font-style="italic" lengthAdjust="spacing" textLength="44" x="1296" y="1141.957">«Entity»</text><text fill="#000000" font-family="sans-serif" font-size="14" lengthAdjust="spacing" textLength="61" x="1287.5" y="1159.127">BaseUser</text><line style="stroke:#1E90FF;stroke-width:0.5;" x1="1259.5" x2="1350.5" y1="1167.2031" y2="1167.2031"/></g><!--MD5=[c3da1d0926ee37770232973501de3d63]
entity PhoneNumber--><g id="elem_PhoneNumber"><rect fill="#D8F5FF" height="41.2188" rx="2.5" ry="2.5" style="stroke:#1E90FF;stroke-width:0.5;" width="117" x="1433.5" y="1129.5"/><text fill="#000000" font-family="sans-serif" font-size="14" font-style="italic" lengthAdjust="spacing" textLength="97" x="1443.5" y="1147.0332">«Value Object»</text><text fill="#000000" font-family="sans-serif" font-size="14" lengthAdjust="spacing" textLength="90" x="1447" y="1164.6426">PhoneNumber</text></g><!--MD5=[c64b233501178c997e71b8533419e088]
entity Email--><g id="elem_Email"><rect fill="#D8F5FF" height="41.2188" rx="2.5" ry="2.5" style="stroke:#1E90FF;stroke-width:0.5;" width="117" x="1433.5" y="1053.5"/><text fill="#000000" font-family="sans-serif" font-size="14" font-style="italic" lengthAdjust="spacing" textLength="97" x="1443.5" y="1071.0332">«Value Object»</text><text fill="#000000" font-family="sans-serif" font-size="14" lengthAdjust="spacing" textLength="34" x="1475" y="1088.6426">Email</text></g><!--MD5=[eccb22e7e361a8d7557906acb7543538]
entity Password--><g id="elem_Password"><rect fill="#D8F5FF" height="41.2188" rx="2.5" ry="2.5" style="stroke:#1E90FF;stroke-width:0.5;" width="117" x="1433.5" y="1205.5"/><text fill="#000000" font-family="sans-serif" font-size="14" font-style="italic" lengthAdjust="spacing" textLength="97" x="1443.5" y="1223.0332">«Value Object»</text><text fill="#000000" font-family="sans-serif" font-size="14" lengthAdjust="spacing" textLength="61" x="1461.5" y="1240.6426">Password</text></g><!--MD5=[b34797a66dc35cbf1d65f7e3ca75530e]
class Task--><g id="elem_Task"><rect codeLine="103" fill="#D8F5FF" height="50.7031" id="Task" rx="2.5" ry="2.5" style="stroke:#1E90FF;stroke-width:0.5;" width="72" x="518" y="1001.5"/><ellipse cx="533" cy="1022.8516" fill="#ADD1B2" rx="11" ry="11" style="stroke:#181818;stroke-width:1.0;"/><path d="M531.8594,1023.6484 L531.8594,1026.1484 L536.1875,1026.1484 L536.1875,1025.2266 Q536.1875,1024.6172 536.4297,1024.3516 Q536.6719,1024.0859 537.0469,1024.0859 Q537.4219,1024.0859 537.6563,1024.3516 Q537.8906,1024.6172 537.8906,1025.2266 L537.8906,1027.8516 L529.8906,1027.8516 Q529.2656,1027.8516 529.0078,1027.6172 Q528.75,1027.3828 528.75,1026.9922 Q528.75,1026.6172 529.0156,1026.3828 Q529.2813,1026.1484 529.8906,1026.1484 L530.1563,1026.1484 L530.1563,1019.4922 L529.8906,1019.4922 Q529.2656,1019.4922 529.0078,1019.2578 Q528.75,1019.0234 528.75,1018.6328 Q528.75,1018.2578 529.0078,1018.0234 Q529.2656,1017.7891 529.8906,1017.7891 L537.5156,1017.7891 L537.5156,1020.3828 Q537.5156,1020.9922 537.2891,1021.25 Q537.0625,1021.5078 536.6719,1021.5078 Q536.2969,1021.5078 536.0625,1021.25 Q535.8281,1020.9922 535.8281,1020.3828 L535.8281,1019.4922 L531.8594,1019.4922 L531.8594,1021.9453 L533.3438,1021.9453 Q533.3438,1021.2891 533.4688,1021.1016 Q533.7344,1020.6953 534.2031,1020.6953 Q534.5781,1020.6953 534.8125,1020.9531 Q535.0469,1021.2109 535.0469,1021.8203 L535.0469,1023.7891 Q535.0469,1024.3359 534.9219,1024.5234 Q534.6563,1024.9141 534.2031,1024.9141 Q533.7344,1024.9141 533.4688,1024.5078 Q533.3438,1024.3203 533.3438,1023.6484 L531.8594,1023.6484 Z " fill="#000000"/><text fill="#000000" font-family="sans-serif" font-size="12" font-style="italic" lengthAdjust="spacing" textLength="44" x="545" y="1018.957">«Entity»</text><text fill="#000000" font-family="sans-serif" font-size="14" lengthAdjust="spacing" textLength="31" x="551.5" y="1036.127">Task</text><line style="stroke:#1E90FF;stroke-width:0.5;" x1="519" x2="589" y1="1044.2031" y2="1044.2031"/></g><!--MD5=[007b513da6771087a86fbb3bd355c48d]
class TaskStatus--><g id="elem_TaskStatus"><rect codeLine="107" fill="#D8F5FF" height="128.0469" id="TaskStatus" rx="2.5" ry="2.5" style="stroke:#1E90FF;stroke-width:0.5;" width="103" x="784.5" y="991"/><ellipse cx="799.5" cy="1007" fill="#EB937F" rx="11" ry="11" style="stroke:#181818;stroke-width:1.0;"/><path d="M798.3594,1007.7969 L798.3594,1010.2969 L802.6875,1010.2969 L802.6875,1009.375 Q802.6875,1008.7656 802.9297,1008.5 Q803.1719,1008.2344 803.5469,1008.2344 Q803.9219,1008.2344 804.1563,1008.5 Q804.3906,1008.7656 804.3906,1009.375 L804.3906,1012 L796.3906,1012 Q795.7656,1012 795.5078,1011.7656 Q795.25,1011.5313 795.25,1011.1406 Q795.25,1010.7656 795.5156,1010.5313 Q795.7813,1010.2969 796.3906,1010.2969 L796.6563,1010.2969 L796.6563,1003.6406 L796.3906,1003.6406 Q795.7656,1003.6406 795.5078,1003.4063 Q795.25,1003.1719 795.25,1002.7813 Q795.25,1002.4063 795.5078,1002.1719 Q795.7656,1001.9375 796.3906,1001.9375 L804.0156,1001.9375 L804.0156,1004.5313 Q804.0156,1005.1406 803.7891,1005.3984 Q803.5625,1005.6563 803.1719,1005.6563 Q802.7969,1005.6563 802.5625,1005.3984 Q802.3281,1005.1406 802.3281,1004.5313 L802.3281,1003.6406 L798.3594,1003.6406 L798.3594,1006.0938 L799.8438,1006.0938 Q799.8438,1005.4375 799.9688,1005.25 Q800.2344,1004.8438 800.7031,1004.8438 Q801.0781,1004.8438 801.3125,1005.1016 Q801.5469,1005.3594 801.5469,1005.9688 L801.5469,1007.9375 Q801.5469,1008.4844 801.4219,1008.6719 Q801.1563,1009.0625 800.7031,1009.0625 Q800.2344,1009.0625 799.9688,1008.6563 Q799.8438,1008.4688 799.8438,1007.7969 L798.3594,1007.7969 Z " fill="#000000"/><text fill="#000000" font-family="sans-serif" font-size="14" lengthAdjust="spacing" textLength="71" x="813.5" y="1012.7285">TaskStatus</text><line style="stroke:#1E90FF;stroke-width:0.5;" x1="785.5" x2="886.5" y1="1023" y2="1023"/><text fill="#000000" font-family="sans-serif" font-size="14" lengthAdjust="spacing" textLength="52" x="790.5" y="1041.5332">Pending</text><text fill="#000000" font-family="sans-serif" font-size="14" lengthAdjust="spacing" textLength="61" x="790.5" y="1059.1426">Approved</text><text fill="#000000" font-family="sans-serif" font-size="14" lengthAdjust="spacing" textLength="75" x="790.5" y="1076.752">In execution</text><text fill="#000000" font-family="sans-serif" font-size="14" lengthAdjust="spacing" textLength="68" x="790.5" y="1094.3613">Completed</text><text fill="#000000" font-family="sans-serif" font-size="14" lengthAdjust="spacing" textLength="45" x="790.5" y="1111.9707">Denied</text></g><!--MD5=[88ee21eff3843b66d49ba6da731dc29a]
class TaskType--><g id="elem_TaskType"><rect codeLine="120" fill="#D8F5FF" height="50.7031" id="TaskType" rx="2.5" ry="2.5" style="stroke:#1E90FF;stroke-width:0.5;" width="95" x="1257.5" y="174.5"/><ellipse cx="1272.5" cy="195.8516" fill="#ADD1B2" rx="11" ry="11" style="stroke:#181818;stroke-width:1.0;"/><path d="M1271.3594,196.6484 L1271.3594,199.1484 L1275.6875,199.1484 L1275.6875,198.2266 Q1275.6875,197.6172 1275.9297,197.3516 Q1276.1719,197.0859 1276.5469,197.0859 Q1276.9219,197.0859 1277.1563,197.3516 Q1277.3906,197.6172 1277.3906,198.2266 L1277.3906,200.8516 L1269.3906,200.8516 Q1268.7656,200.8516 1268.5078,200.6172 Q1268.25,200.3828 1268.25,199.9922 Q1268.25,199.6172 1268.5156,199.3828 Q1268.7813,199.1484 1269.3906,199.1484 L1269.6563,199.1484 L1269.6563,192.4922 L1269.3906,192.4922 Q1268.7656,192.4922 1268.5078,192.2578 Q1268.25,192.0234 1268.25,191.6328 Q1268.25,191.2578 1268.5078,191.0234 Q1268.7656,190.7891 1269.3906,190.7891 L1277.0156,190.7891 L1277.0156,193.3828 Q1277.0156,193.9922 1276.7891,194.25 Q1276.5625,194.5078 1276.1719,194.5078 Q1275.7969,194.5078 1275.5625,194.25 Q1275.3281,193.9922 1275.3281,193.3828 L1275.3281,192.4922 L1271.3594,192.4922 L1271.3594,194.9453 L1272.8438,194.9453 Q1272.8438,194.2891 1272.9688,194.1016 Q1273.2344,193.6953 1273.7031,193.6953 Q1274.0781,193.6953 1274.3125,193.9531 Q1274.5469,194.2109 1274.5469,194.8203 L1274.5469,196.7891 Q1274.5469,197.3359 1274.4219,197.5234 Q1274.1563,197.9141 1273.7031,197.9141 Q1273.2344,197.9141 1272.9688,197.5078 Q1272.8438,197.3203 1272.8438,196.6484 L1271.3594,196.6484 Z " fill="#000000"/><text fill="#000000" font-family="sans-serif" font-size="12" font-style="italic" lengthAdjust="spacing" textLength="43" x="1296.5" y="191.957">«entity»</text><text fill="#000000" font-family="sans-serif" font-size="14" lengthAdjust="spacing" textLength="63" x="1286.5" y="209.127">TaskType</text><line style="stroke:#1E90FF;stroke-width:0.5;" x1="1258.5" x2="1351.5" y1="217.2031" y2="217.2031"/></g><!--MD5=[ff5b00e4f788038bc8b9934b246a9c20]
class Types--><g id="elem_Types"><rect codeLine="123" fill="#D8F5FF" height="75.2188" id="Types" rx="2.5" ry="2.5" style="stroke:#1E90FF;stroke-width:0.5;" width="89" x="1260.5" y="64.5"/><ellipse cx="1283.6" cy="80.5" fill="#EB937F" rx="11" ry="11" style="stroke:#181818;stroke-width:1.0;"/><path d="M1282.4594,81.2969 L1282.4594,83.7969 L1286.7875,83.7969 L1286.7875,82.875 Q1286.7875,82.2656 1287.0297,82 Q1287.2719,81.7344 1287.6469,81.7344 Q1288.0219,81.7344 1288.2563,82 Q1288.4906,82.2656 1288.4906,82.875 L1288.4906,85.5 L1280.4906,85.5 Q1279.8656,85.5 1279.6078,85.2656 Q1279.35,85.0313 1279.35,84.6406 Q1279.35,84.2656 1279.6156,84.0313 Q1279.8813,83.7969 1280.4906,83.7969 L1280.7563,83.7969 L1280.7563,77.1406 L1280.4906,77.1406 Q1279.8656,77.1406 1279.6078,76.9063 Q1279.35,76.6719 1279.35,76.2813 Q1279.35,75.9063 1279.6078,75.6719 Q1279.8656,75.4375 1280.4906,75.4375 L1288.1156,75.4375 L1288.1156,78.0313 Q1288.1156,78.6406 1287.8891,78.8984 Q1287.6625,79.1563 1287.2719,79.1563 Q1286.8969,79.1563 1286.6625,78.8984 Q1286.4281,78.6406 1286.4281,78.0313 L1286.4281,77.1406 L1282.4594,77.1406 L1282.4594,79.5938 L1283.9438,79.5938 Q1283.9438,78.9375 1284.0688,78.75 Q1284.3344,78.3438 1284.8031,78.3438 Q1285.1781,78.3438 1285.4125,78.6016 Q1285.6469,78.8594 1285.6469,79.4688 L1285.6469,81.4375 Q1285.6469,81.9844 1285.5219,82.1719 Q1285.2563,82.5625 1284.8031,82.5625 Q1284.3344,82.5625 1284.0688,82.1563 Q1283.9438,81.9688 1283.9438,81.2969 L1282.4594,81.2969 Z " fill="#000000"/><text fill="#000000" font-family="sans-serif" font-size="14" lengthAdjust="spacing" textLength="39" x="1299.4" y="86.2285">Types</text><line style="stroke:#1E90FF;stroke-width:0.5;" x1="1261.5" x2="1348.5" y1="96.5" y2="96.5"/><text fill="#000000" font-family="sans-serif" font-size="14" lengthAdjust="spacing" textLength="77" x="1266.5" y="115.0332">Surveillance</text><text fill="#000000" font-family="sans-serif" font-size="14" lengthAdjust="spacing" textLength="51" x="1266.5" y="132.6426">Delivery</text></g><!--MD5=[019a73386217e12d5bb8e34bf0b46b9e]
class FleetManager--><g id="elem_FleetManager"><rect codeLine="133" fill="#D8F5FF" height="65.7969" id="FleetManager" rx="2.5" ry="2.5" style="stroke:#1E90FF;stroke-width:0.5;" width="120" x="225.5" y="202"/><ellipse cx="240.5" cy="230.8984" fill="#ADD1B2" rx="11" ry="11" style="stroke:#181818;stroke-width:1.0;"/><path d="M239.3594,231.6953 L239.3594,234.1953 L243.6875,234.1953 L243.6875,233.2734 Q243.6875,232.6641 243.9297,232.3984 Q244.1719,232.1328 244.5469,232.1328 Q244.9219,232.1328 245.1563,232.3984 Q245.3906,232.6641 245.3906,233.2734 L245.3906,235.8984 L237.3906,235.8984 Q236.7656,235.8984 236.5078,235.6641 Q236.25,235.4297 236.25,235.0391 Q236.25,234.6641 236.5156,234.4297 Q236.7813,234.1953 237.3906,234.1953 L237.6563,234.1953 L237.6563,227.5391 L237.3906,227.5391 Q236.7656,227.5391 236.5078,227.3047 Q236.25,227.0703 236.25,226.6797 Q236.25,226.3047 236.5078,226.0703 Q236.7656,225.8359 237.3906,225.8359 L245.0156,225.8359 L245.0156,228.4297 Q245.0156,229.0391 244.7891,229.2969 Q244.5625,229.5547 244.1719,229.5547 Q243.7969,229.5547 243.5625,229.2969 Q243.3281,229.0391 243.3281,228.4297 L243.3281,227.5391 L239.3594,227.5391 L239.3594,229.9922 L240.8438,229.9922 Q240.8438,229.3359 240.9688,229.1484 Q241.2344,228.7422 241.7031,228.7422 Q242.0781,228.7422 242.3125,229 Q242.5469,229.2578 242.5469,229.8672 L242.5469,231.8359 Q242.5469,232.3828 242.4219,232.5703 Q242.1563,232.9609 241.7031,232.9609 Q241.2344,232.9609 240.9688,232.5547 Q240.8438,232.3672 240.8438,231.6953 L239.3594,231.6953 Z " fill="#000000"/><text fill="#000000" font-family="sans-serif" font-size="12" font-style="italic" lengthAdjust="spacing" textLength="43" x="277" y="219.457">«entity»</text><text fill="#000000" font-family="sans-serif" font-size="12" font-style="italic" lengthAdjust="spacing" textLength="35" x="281" y="234.5508">«root»</text><text fill="#000000" font-family="sans-serif" font-size="14" lengthAdjust="spacing" textLength="88" x="254.5" y="251.7207">FleetManager</text><line style="stroke:#1E90FF;stroke-width:0.5;" x1="226.5" x2="344.5" y1="259.7969" y2="259.7969"/></g><!--MD5=[30c6b2ed4da85cef5b9d586bf674f588]
class TaskManager--><g id="elem_TaskManager"><rect codeLine="140" fill="#D8F5FF" height="65.7969" id="TaskManager" rx="2.5" ry="2.5" style="stroke:#1E90FF;stroke-width:0.5;" width="119" x="226" y="984"/><ellipse cx="241" cy="1012.8984" fill="#ADD1B2" rx="11" ry="11" style="stroke:#181818;stroke-width:1.0;"/><path d="M239.8594,1013.6953 L239.8594,1016.1953 L244.1875,1016.1953 L244.1875,1015.2734 Q244.1875,1014.6641 244.4297,1014.3984 Q244.6719,1014.1328 245.0469,1014.1328 Q245.4219,1014.1328 245.6563,1014.3984 Q245.8906,1014.6641 245.8906,1015.2734 L245.8906,1017.8984 L237.8906,1017.8984 Q237.2656,1017.8984 237.0078,1017.6641 Q236.75,1017.4297 236.75,1017.0391 Q236.75,1016.6641 237.0156,1016.4297 Q237.2813,1016.1953 237.8906,1016.1953 L238.1563,1016.1953 L238.1563,1009.5391 L237.8906,1009.5391 Q237.2656,1009.5391 237.0078,1009.3047 Q236.75,1009.0703 236.75,1008.6797 Q236.75,1008.3047 237.0078,1008.0703 Q237.2656,1007.8359 237.8906,1007.8359 L245.5156,1007.8359 L245.5156,1010.4297 Q245.5156,1011.0391 245.2891,1011.2969 Q245.0625,1011.5547 244.6719,1011.5547 Q244.2969,1011.5547 244.0625,1011.2969 Q243.8281,1011.0391 243.8281,1010.4297 L243.8281,1009.5391 L239.8594,1009.5391 L239.8594,1011.9922 L241.3438,1011.9922 Q241.3438,1011.3359 241.4688,1011.1484 Q241.7344,1010.7422 242.2031,1010.7422 Q242.5781,1010.7422 242.8125,1011 Q243.0469,1011.2578 243.0469,1011.8672 L243.0469,1013.8359 Q243.0469,1014.3828 242.9219,1014.5703 Q242.6563,1014.9609 242.2031,1014.9609 Q241.7344,1014.9609 241.4688,1014.5547 Q241.3438,1014.3672 241.3438,1013.6953 L239.8594,1013.6953 Z " fill="#000000"/><text fill="#000000" font-family="sans-serif" font-size="12" font-style="italic" lengthAdjust="spacing" textLength="43" x="277" y="1001.457">«entity»</text><text fill="#000000" font-family="sans-serif" font-size="12" font-style="italic" lengthAdjust="spacing" textLength="35" x="281" y="1016.5508">«root»</text><text fill="#000000" font-family="sans-serif" font-size="14" lengthAdjust="spacing" textLength="87" x="255" y="1033.7207">TaskManager</text><line style="stroke:#1E90FF;stroke-width:0.5;" x1="227" x2="344" y1="1041.7969" y2="1041.7969"/></g><!--MD5=[209029d07fd19def03f61823c9c1351a]
class Campus--><g id="elem_Campus"><rect codeLine="147" fill="#D8F5FF" height="50.7031" id="Campus" rx="2.5" ry="2.5" style="stroke:#1E90FF;stroke-width:0.5;" width="84" x="39" y="651.5"/><ellipse cx="54" cy="672.8516" fill="#ADD1B2" rx="11" ry="11" style="stroke:#181818;stroke-width:1.0;"/><path d="M52.8594,673.6484 L52.8594,676.1484 L57.1875,676.1484 L57.1875,675.2266 Q57.1875,674.6172 57.4297,674.3516 Q57.6719,674.0859 58.0469,674.0859 Q58.4219,674.0859 58.6563,674.3516 Q58.8906,674.6172 58.8906,675.2266 L58.8906,677.8516 L50.8906,677.8516 Q50.2656,677.8516 50.0078,677.6172 Q49.75,677.3828 49.75,676.9922 Q49.75,676.6172 50.0156,676.3828 Q50.2813,676.1484 50.8906,676.1484 L51.1563,676.1484 L51.1563,669.4922 L50.8906,669.4922 Q50.2656,669.4922 50.0078,669.2578 Q49.75,669.0234 49.75,668.6328 Q49.75,668.2578 50.0078,668.0234 Q50.2656,667.7891 50.8906,667.7891 L58.5156,667.7891 L58.5156,670.3828 Q58.5156,670.9922 58.2891,671.25 Q58.0625,671.5078 57.6719,671.5078 Q57.2969,671.5078 57.0625,671.25 Q56.8281,670.9922 56.8281,670.3828 L56.8281,669.4922 L52.8594,669.4922 L52.8594,671.9453 L54.3438,671.9453 Q54.3438,671.2891 54.4688,671.1016 Q54.7344,670.6953 55.2031,670.6953 Q55.5781,670.6953 55.8125,670.9531 Q56.0469,671.2109 56.0469,671.8203 L56.0469,673.7891 Q56.0469,674.3359 55.9219,674.5234 Q55.6563,674.9141 55.2031,674.9141 Q54.7344,674.9141 54.4688,674.5078 Q54.3438,674.3203 54.3438,673.6484 L52.8594,673.6484 Z " fill="#000000"/><text fill="#000000" font-family="sans-serif" font-size="12" font-style="italic" lengthAdjust="spacing" textLength="43" x="72.5" y="668.957">«entity»</text><text fill="#000000" font-family="sans-serif" font-size="14" lengthAdjust="spacing" textLength="52" x="68" y="686.127">Campus</text><line style="stroke:#1E90FF;stroke-width:0.5;" x1="40" x2="122" y1="694.2031" y2="694.2031"/></g><!--MD5=[261434495880b69ba1c29d5442688202]
class SurveillanceTask--><g id="elem_SurveillanceTask"><rect codeLine="154" fill="#D8F5FF" height="65.7969" id="SurveillanceTask" rx="2.5" ry="2.5" style="stroke:#1E90FF;stroke-width:0.5;" width="140" x="215.5" y="805"/><ellipse cx="230.5" cy="833.8984" fill="#ADD1B2" rx="11" ry="11" style="stroke:#181818;stroke-width:1.0;"/><path d="M229.3594,834.6953 L229.3594,837.1953 L233.6875,837.1953 L233.6875,836.2734 Q233.6875,835.6641 233.9297,835.3984 Q234.1719,835.1328 234.5469,835.1328 Q234.9219,835.1328 235.1563,835.3984 Q235.3906,835.6641 235.3906,836.2734 L235.3906,838.8984 L227.3906,838.8984 Q226.7656,838.8984 226.5078,838.6641 Q226.25,838.4297 226.25,838.0391 Q226.25,837.6641 226.5156,837.4297 Q226.7813,837.1953 227.3906,837.1953 L227.6563,837.1953 L227.6563,830.5391 L227.3906,830.5391 Q226.7656,830.5391 226.5078,830.3047 Q226.25,830.0703 226.25,829.6797 Q226.25,829.3047 226.5078,829.0703 Q226.7656,828.8359 227.3906,828.8359 L235.0156,828.8359 L235.0156,831.4297 Q235.0156,832.0391 234.7891,832.2969 Q234.5625,832.5547 234.1719,832.5547 Q233.7969,832.5547 233.5625,832.2969 Q233.3281,832.0391 233.3281,831.4297 L233.3281,830.5391 L229.3594,830.5391 L229.3594,832.9922 L230.8438,832.9922 Q230.8438,832.3359 230.9688,832.1484 Q231.2344,831.7422 231.7031,831.7422 Q232.0781,831.7422 232.3125,832 Q232.5469,832.2578 232.5469,832.8672 L232.5469,834.8359 Q232.5469,835.3828 232.4219,835.5703 Q232.1563,835.9609 231.7031,835.9609 Q231.2344,835.9609 230.9688,835.5547 Q230.8438,835.3672 230.8438,834.6953 L229.3594,834.6953 Z " fill="#000000"/><text fill="#000000" font-family="sans-serif" font-size="12" font-style="italic" lengthAdjust="spacing" textLength="43" x="277" y="822.457">«entity»</text><text fill="#000000" font-family="sans-serif" font-size="12" font-style="italic" lengthAdjust="spacing" textLength="35" x="281" y="837.5508">«root»</text><text fill="#000000" font-family="sans-serif" font-size="14" lengthAdjust="spacing" textLength="108" x="244.5" y="854.7207">SurveillanceTask</text><line style="stroke:#1E90FF;stroke-width:0.5;" x1="216.5" x2="354.5" y1="862.7969" y2="862.7969"/></g><!--MD5=[043dfb9307d7c4f9d7e43721f74c4cba]
entity Phone_Number--><g id="elem_Phone_Number"><rect fill="#D8F5FF" height="41.2188" rx="2.5" ry="2.5" style="stroke:#1E90FF;stroke-width:0.5;" width="118" x="495" y="817.5"/><text fill="#000000" font-family="sans-serif" font-size="14" font-style="italic" lengthAdjust="spacing" textLength="97" x="505.5" y="835.0332">«Value Object»</text><text fill="#000000" font-family="sans-serif" font-size="14" lengthAdjust="spacing" textLength="98" x="505" y="852.6426">Phone_Number</text></g><!--MD5=[cc8c25931ee1388bf3ec7fe763996063]
class DeliveryTask--><g id="elem_DeliveryTask"><rect codeLine="164" fill="#D8F5FF" height="189.0625" id="DeliveryTask" rx="2.5" ry="2.5" style="stroke:#1E90FF;stroke-width:0.5;" width="153" x="209" y="1265.5"/><ellipse cx="241.55" cy="1294.3984" fill="#ADD1B2" rx="11" ry="11" style="stroke:#181818;stroke-width:1.0;"/><path d="M240.4094,1295.1953 L240.4094,1297.6953 L244.7375,1297.6953 L244.7375,1296.7734 Q244.7375,1296.1641 244.9797,1295.8984 Q245.2219,1295.6328 245.5969,1295.6328 Q245.9719,1295.6328 246.2063,1295.8984 Q246.4406,1296.1641 246.4406,1296.7734 L246.4406,1299.3984 L238.4406,1299.3984 Q237.8156,1299.3984 237.5578,1299.1641 Q237.3,1298.9297 237.3,1298.5391 Q237.3,1298.1641 237.5656,1297.9297 Q237.8313,1297.6953 238.4406,1297.6953 L238.7063,1297.6953 L238.7063,1291.0391 L238.4406,1291.0391 Q237.8156,1291.0391 237.5578,1290.8047 Q237.3,1290.5703 237.3,1290.1797 Q237.3,1289.8047 237.5578,1289.5703 Q237.8156,1289.3359 238.4406,1289.3359 L246.0656,1289.3359 L246.0656,1291.9297 Q246.0656,1292.5391 245.8391,1292.7969 Q245.6125,1293.0547 245.2219,1293.0547 Q244.8469,1293.0547 244.6125,1292.7969 Q244.3781,1292.5391 244.3781,1291.9297 L244.3781,1291.0391 L240.4094,1291.0391 L240.4094,1293.4922 L241.8938,1293.4922 Q241.8938,1292.8359 242.0188,1292.6484 Q242.2844,1292.2422 242.7531,1292.2422 Q243.1281,1292.2422 243.3625,1292.5 Q243.5969,1292.7578 243.5969,1293.3672 L243.5969,1295.3359 Q243.5969,1295.8828 243.4719,1296.0703 Q243.2063,1296.4609 242.7531,1296.4609 Q242.2844,1296.4609 242.0188,1296.0547 Q241.8938,1295.8672 241.8938,1295.1953 L240.4094,1295.1953 Z " fill="#000000"/><text fill="#000000" font-family="sans-serif" font-size="12" font-style="italic" lengthAdjust="spacing" textLength="43" x="278.95" y="1282.957">«entity»</text><text fill="#000000" font-family="sans-serif" font-size="12" font-style="italic" lengthAdjust="spacing" textLength="35" x="282.95" y="1298.0508">«root»</text><text fill="#000000" font-family="sans-serif" font-size="14" lengthAdjust="spacing" textLength="82" x="259.45" y="1315.2207">DeliveryTask</text><line style="stroke:#1E90FF;stroke-width:0.5;" x1="210" x2="361" y1="1323.2969" y2="1323.2969"/><text fill="#000000" font-family="sans-serif" font-size="14" lengthAdjust="spacing" textLength="79" x="215" y="1341.8301">pickUpRoom</text><text fill="#000000" font-family="sans-serif" font-size="14" lengthAdjust="spacing" textLength="86" x="215" y="1359.4395">deliveryRoom</text><text fill="#000000" font-family="sans-serif" font-size="14" lengthAdjust="spacing" textLength="78" x="215" y="1377.0488">namePickUp</text><text fill="#000000" font-family="sans-serif" font-size="14" lengthAdjust="spacing" textLength="83" x="215" y="1394.6582">phonePickUp</text><text fill="#000000" font-family="sans-serif" font-size="14" lengthAdjust="spacing" textLength="91" x="215" y="1412.2676">phoneDelivery</text><text fill="#000000" font-family="sans-serif" font-size="14" lengthAdjust="spacing" textLength="111" x="215" y="1429.877">confirmationCode</text><text fill="#000000" font-family="sans-serif" font-size="14" lengthAdjust="spacing" textLength="141" x="215" y="1447.4863">descriptionOfContents</text></g><!--MD5=[d218c48b946d362ff1ecd879cabebcad]
class Room--><g id="elem_Room"><rect codeLine="177" fill="#D8F5FF" height="136.2344" id="Room" rx="2.5" ry="2.5" style="stroke:#1E90FF;stroke-width:0.5;" width="81" x="795.5" y="1259"/><ellipse cx="814.55" cy="1287.8984" fill="#ADD1B2" rx="11" ry="11" style="stroke:#181818;stroke-width:1.0;"/><path d="M813.4094,1288.6953 L813.4094,1291.1953 L817.7375,1291.1953 L817.7375,1290.2734 Q817.7375,1289.6641 817.9797,1289.3984 Q818.2219,1289.1328 818.5969,1289.1328 Q818.9719,1289.1328 819.2063,1289.3984 Q819.4406,1289.6641 819.4406,1290.2734 L819.4406,1292.8984 L811.4406,1292.8984 Q810.8156,1292.8984 810.5578,1292.6641 Q810.3,1292.4297 810.3,1292.0391 Q810.3,1291.6641 810.5656,1291.4297 Q810.8313,1291.1953 811.4406,1291.1953 L811.7063,1291.1953 L811.7063,1284.5391 L811.4406,1284.5391 Q810.8156,1284.5391 810.5578,1284.3047 Q810.3,1284.0703 810.3,1283.6797 Q810.3,1283.3047 810.5578,1283.0703 Q810.8156,1282.8359 811.4406,1282.8359 L819.0656,1282.8359 L819.0656,1285.4297 Q819.0656,1286.0391 818.8391,1286.2969 Q818.6125,1286.5547 818.2219,1286.5547 Q817.8469,1286.5547 817.6125,1286.2969 Q817.3781,1286.0391 817.3781,1285.4297 L817.3781,1284.5391 L813.4094,1284.5391 L813.4094,1286.9922 L814.8938,1286.9922 Q814.8938,1286.3359 815.0188,1286.1484 Q815.2844,1285.7422 815.7531,1285.7422 Q816.1281,1285.7422 816.3625,1286 Q816.5969,1286.2578 816.5969,1286.8672 L816.5969,1288.8359 Q816.5969,1289.3828 816.4719,1289.5703 Q816.2063,1289.9609 815.7531,1289.9609 Q815.2844,1289.9609 815.0188,1289.5547 Q814.8938,1289.3672 814.8938,1288.6953 L813.4094,1288.6953 Z " fill="#000000"/><text fill="#000000" font-family="sans-serif" font-size="12" font-style="italic" lengthAdjust="spacing" textLength="44" x="827.45" y="1276.457">«Entity»</text><text fill="#000000" font-family="sans-serif" font-size="12" font-style="italic" lengthAdjust="spacing" textLength="35" x="831.95" y="1291.5508">«root»</text><text fill="#000000" font-family="sans-serif" font-size="14" lengthAdjust="spacing" textLength="37" x="830.95" y="1308.7207">Room</text><line style="stroke:#1E90FF;stroke-width:0.5;" x1="796.5" x2="875.5" y1="1316.7969" y2="1316.7969"/><text fill="#000000" font-family="sans-serif" font-size="14" lengthAdjust="spacing" textLength="31" x="801.5" y="1335.3301">code</text><text fill="#000000" font-family="sans-serif" font-size="14" lengthAdjust="spacing" textLength="55" x="801.5" y="1352.9395">category</text><text fill="#000000" font-family="sans-serif" font-size="14" lengthAdjust="spacing" textLength="69" x="801.5" y="1370.5488">description</text><text fill="#000000" font-family="sans-serif" font-size="14" lengthAdjust="spacing" textLength="64" x="801.5" y="1388.1582">dimension</text></g><!--MD5=[ea420d35c18f469482e294cb2458608e]
class RoomCategory--><g id="elem_RoomCategory"><rect codeLine="184" fill="#D8F5FF" height="110.4375" id="RoomCategory" rx="2.5" ry="2.5" style="stroke:#1E90FF;stroke-width:0.5;" width="127" x="1023.5" y="1272"/><ellipse cx="1038.5" cy="1288" fill="#EB937F" rx="11" ry="11" style="stroke:#181818;stroke-width:1.0;"/><path d="M1037.3594,1288.7969 L1037.3594,1291.2969 L1041.6875,1291.2969 L1041.6875,1290.375 Q1041.6875,1289.7656 1041.9297,1289.5 Q1042.1719,1289.2344 1042.5469,1289.2344 Q1042.9219,1289.2344 1043.1563,1289.5 Q1043.3906,1289.7656 1043.3906,1290.375 L1043.3906,1293 L1035.3906,1293 Q1034.7656,1293 1034.5078,1292.7656 Q1034.25,1292.5313 1034.25,1292.1406 Q1034.25,1291.7656 1034.5156,1291.5313 Q1034.7813,1291.2969 1035.3906,1291.2969 L1035.6563,1291.2969 L1035.6563,1284.6406 L1035.3906,1284.6406 Q1034.7656,1284.6406 1034.5078,1284.4063 Q1034.25,1284.1719 1034.25,1283.7813 Q1034.25,1283.4063 1034.5078,1283.1719 Q1034.7656,1282.9375 1035.3906,1282.9375 L1043.0156,1282.9375 L1043.0156,1285.5313 Q1043.0156,1286.1406 1042.7891,1286.3984 Q1042.5625,1286.6563 1042.1719,1286.6563 Q1041.7969,1286.6563 1041.5625,1286.3984 Q1041.3281,1286.1406 1041.3281,1285.5313 L1041.3281,1284.6406 L1037.3594,1284.6406 L1037.3594,1287.0938 L1038.8438,1287.0938 Q1038.8438,1286.4375 1038.9688,1286.25 Q1039.2344,1285.8438 1039.7031,1285.8438 Q1040.0781,1285.8438 1040.3125,1286.1016 Q1040.5469,1286.3594 1040.5469,1286.9688 L1040.5469,1288.9375 Q1040.5469,1289.4844 1040.4219,1289.6719 Q1040.1563,1290.0625 1039.7031,1290.0625 Q1039.2344,1290.0625 1038.9688,1289.6563 Q1038.8438,1289.4688 1038.8438,1288.7969 L1037.3594,1288.7969 Z " fill="#000000"/><text fill="#000000" font-family="sans-serif" font-size="14" lengthAdjust="spacing" textLength="95" x="1052.5" y="1293.7285">RoomCategory</text><line style="stroke:#1E90FF;stroke-width:0.5;" x1="1024.5" x2="1149.5" y1="1304" y2="1304"/><text fill="#000000" font-family="sans-serif" font-size="14" lengthAdjust="spacing" textLength="37" x="1029.5" y="1322.5332">Office</text><text fill="#000000" font-family="sans-serif" font-size="14" lengthAdjust="spacing" textLength="84" x="1029.5" y="1340.1426">Amphitheater</text><text fill="#000000" font-family="sans-serif" font-size="14" lengthAdjust="spacing" textLength="69" x="1029.5" y="1357.752">Laboratory</text><text fill="#000000" font-family="sans-serif" font-size="14" lengthAdjust="spacing" textLength="36" x="1029.5" y="1375.3613">Other</text></g><!--MD5=[941b7aeffb035281a8311db077b9e408]
class Passage--><g id="elem_Passage"><rect codeLine="195" fill="#D8F5FF" height="65.7969" id="Passage" rx="2.5" ry="2.5" style="stroke:#1E90FF;stroke-width:0.5;" width="87" x="792.5" y="457"/><ellipse cx="807.5" cy="485.8984" fill="#ADD1B2" rx="11" ry="11" style="stroke:#181818;stroke-width:1.0;"/><path d="M806.3594,486.6953 L806.3594,489.1953 L810.6875,489.1953 L810.6875,488.2734 Q810.6875,487.6641 810.9297,487.3984 Q811.1719,487.1328 811.5469,487.1328 Q811.9219,487.1328 812.1563,487.3984 Q812.3906,487.6641 812.3906,488.2734 L812.3906,490.8984 L804.3906,490.8984 Q803.7656,490.8984 803.5078,490.6641 Q803.25,490.4297 803.25,490.0391 Q803.25,489.6641 803.5156,489.4297 Q803.7813,489.1953 804.3906,489.1953 L804.6563,489.1953 L804.6563,482.5391 L804.3906,482.5391 Q803.7656,482.5391 803.5078,482.3047 Q803.25,482.0703 803.25,481.6797 Q803.25,481.3047 803.5078,481.0703 Q803.7656,480.8359 804.3906,480.8359 L812.0156,480.8359 L812.0156,483.4297 Q812.0156,484.0391 811.7891,484.2969 Q811.5625,484.5547 811.1719,484.5547 Q810.7969,484.5547 810.5625,484.2969 Q810.3281,484.0391 810.3281,483.4297 L810.3281,482.5391 L806.3594,482.5391 L806.3594,484.9922 L807.8438,484.9922 Q807.8438,484.3359 807.9688,484.1484 Q808.2344,483.7422 808.7031,483.7422 Q809.0781,483.7422 809.3125,484 Q809.5469,484.2578 809.5469,484.8672 L809.5469,486.8359 Q809.5469,487.3828 809.4219,487.5703 Q809.1563,487.9609 808.7031,487.9609 Q808.2344,487.9609 807.9688,487.5547 Q807.8438,487.3672 807.8438,486.6953 L806.3594,486.6953 Z " fill="#000000"/><text fill="#000000" font-family="sans-serif" font-size="12" font-style="italic" lengthAdjust="spacing" textLength="44" x="827" y="474.457">«Entity»</text><text fill="#000000" font-family="sans-serif" font-size="12" font-style="italic" lengthAdjust="spacing" textLength="35" x="831.5" y="489.5508">«root»</text><text fill="#000000" font-family="sans-serif" font-size="14" lengthAdjust="spacing" textLength="55" x="821.5" y="506.7207">Passage</text><line style="stroke:#1E90FF;stroke-width:0.5;" x1="793.5" x2="878.5" y1="514.7969" y2="514.7969"/></g><!--MD5=[3fd616f346a44cd59a91eb10b19e157c]
class User--><g id="elem_User"><rect codeLine="201" fill="#D8F5FF" height="65.7969" id="User" rx="2.5" ry="2.5" style="stroke:#1E90FF;stroke-width:0.5;" width="72" x="1051" y="1117"/><ellipse cx="1066" cy="1145.8984" fill="#ADD1B2" rx="11" ry="11" style="stroke:#181818;stroke-width:1.0;"/><path d="M1064.8594,1146.6953 L1064.8594,1149.1953 L1069.1875,1149.1953 L1069.1875,1148.2734 Q1069.1875,1147.6641 1069.4297,1147.3984 Q1069.6719,1147.1328 1070.0469,1147.1328 Q1070.4219,1147.1328 1070.6563,1147.3984 Q1070.8906,1147.6641 1070.8906,1148.2734 L1070.8906,1150.8984 L1062.8906,1150.8984 Q1062.2656,1150.8984 1062.0078,1150.6641 Q1061.75,1150.4297 1061.75,1150.0391 Q1061.75,1149.6641 1062.0156,1149.4297 Q1062.2813,1149.1953 1062.8906,1149.1953 L1063.1563,1149.1953 L1063.1563,1142.5391 L1062.8906,1142.5391 Q1062.2656,1142.5391 1062.0078,1142.3047 Q1061.75,1142.0703 1061.75,1141.6797 Q1061.75,1141.3047 1062.0078,1141.0703 Q1062.2656,1140.8359 1062.8906,1140.8359 L1070.5156,1140.8359 L1070.5156,1143.4297 Q1070.5156,1144.0391 1070.2891,1144.2969 Q1070.0625,1144.5547 1069.6719,1144.5547 Q1069.2969,1144.5547 1069.0625,1144.2969 Q1068.8281,1144.0391 1068.8281,1143.4297 L1068.8281,1142.5391 L1064.8594,1142.5391 L1064.8594,1144.9922 L1066.3438,1144.9922 Q1066.3438,1144.3359 1066.4688,1144.1484 Q1066.7344,1143.7422 1067.2031,1143.7422 Q1067.5781,1143.7422 1067.8125,1144 Q1068.0469,1144.2578 1068.0469,1144.8672 L1068.0469,1146.8359 Q1068.0469,1147.3828 1067.9219,1147.5703 Q1067.6563,1147.9609 1067.2031,1147.9609 Q1066.7344,1147.9609 1066.4688,1147.5547 Q1066.3438,1147.3672 1066.3438,1146.6953 L1064.8594,1146.6953 Z " fill="#000000"/><text fill="#000000" font-family="sans-serif" font-size="12" font-style="italic" lengthAdjust="spacing" textLength="44" x="1078" y="1134.457">«Entity»</text><text fill="#000000" font-family="sans-serif" font-size="12" font-style="italic" lengthAdjust="spacing" textLength="35" x="1082.5" y="1149.5508">«root»</text><text fill="#000000" font-family="sans-serif" font-size="14" lengthAdjust="spacing" textLength="29" x="1085.5" y="1166.7207">User</text><line style="stroke:#1E90FF;stroke-width:0.5;" x1="1052" x2="1122" y1="1174.7969" y2="1174.7969"/></g><!--MD5=[ff932f6882b9b21e4e2a2cd8313daebb]
link Building to Elevator--><g id="link_Building_Elevator"><path codeLine="63" d="M1361.51,746.3 C1388.04,746.44 1419.43,746.61 1444.66,746.75 " fill="none" id="Building-to-Elevator" style="stroke:#1E90FF;stroke-width:1.0;"/><polygon fill="#1E90FF" points="1449.94,746.78,1440.963,742.7286,1444.9401,746.7514,1440.9173,750.7285,1449.94,746.78" style="stroke:#1E90FF;stroke-width:1.0;"/><text fill="#000000" font-family="sans-serif" font-size="13" lengthAdjust="spacing" textLength="7" x="1369.5738" y="760.9068">1</text><text fill="#000000" font-family="sans-serif" font-size="13" lengthAdjust="spacing" textLength="7" x="1435.1094" y="761.668">1</text></g><!--MD5=[54c7f133c502edc1e39b0f9734815381]
link Building to Name--><g id="link_Building_Name"><path codeLine="64" d="M1361.51,722 C1385.95,711.43 1414.53,699.07 1438.6,688.66 " fill="none" id="Building-to-Name" style="stroke:#1E90FF;stroke-width:1.0;"/><polygon fill="#1E90FF" points="1443.36,686.6,1433.5116,686.5057,1438.7717,688.5868,1436.6905,693.8469,1443.36,686.6" style="stroke:#1E90FF;stroke-width:1.0;"/></g><!--MD5=[dd3f9223360f0a0b5cc8bb75b4435d1f]
link Building to Description--><g id="link_Building_Description"><path codeLine="65" d="M1346.58,787.61 C1370.87,811.62 1402.87,841.76 1433.5,866 C1439.79,870.98 1446.74,875.96 1453.56,880.6 " fill="none" id="Building-to-Description" style="stroke:#1E90FF;stroke-width:1.0;"/><polygon fill="#1E90FF" points="1457.78,883.44,1452.5632,875.0863,1453.6374,880.6402,1448.0835,881.7144,1457.78,883.44" style="stroke:#1E90FF;stroke-width:1.0;"/></g><!--MD5=[727797ff5554768dd76684d70c1ef924]
link Building to Code--><g id="link_Building_Code"><path codeLine="66" d="M1361.51,770.6 C1386.35,781.62 1415.46,794.52 1439.78,805.3 " fill="none" id="Building-to-Code" style="stroke:#1E90FF;stroke-width:1.0;"/><polygon fill="#1E90FF" points="1444.58,807.42,1437.9569,800.1306,1440.0045,805.4039,1434.7312,807.4515,1444.58,807.42" style="stroke:#1E90FF;stroke-width:1.0;"/></g><!--MD5=[f418f578158fd061b6e9dc4e21a03c64]
link Floor to Map--><g id="link_Floor_Map"><path codeLine="81" d="M1151.64,508.12 C1179.87,507.72 1213,507.26 1241.14,506.87 " fill="none" id="Floor-to-Map" style="stroke:#1E90FF;stroke-width:1.0;"/><polygon fill="#1E90FF" points="1246.34,506.8,1237.2838,502.929,1241.3405,506.8714,1237.3981,510.9282,1246.34,506.8" style="stroke:#1E90FF;stroke-width:1.0;"/><text fill="#000000" font-family="sans-serif" font-size="13" lengthAdjust="spacing" textLength="21" x="1185" y="504.4951">has</text></g><!--MD5=[0bcf95c2c9d71654669e67212c735c38]
link BaseUser to PhoneNumber--><g id="link_BaseUser_PhoneNumber"><path codeLine="96" d="M1351.73,1150 C1374.71,1150 1402.91,1150 1427.91,1150 " fill="none" id="BaseUser-to-PhoneNumber" style="stroke:#1E90FF;stroke-width:1.0;"/><polygon fill="#1E90FF" points="1433.19,1150,1424.19,1146,1428.19,1150,1424.19,1154,1433.19,1150" style="stroke:#1E90FF;stroke-width:1.0;"/></g><!--MD5=[a44eff3eb51a0f2f0b2c2cd54821e8d1]
link BaseUser to Email--><g id="link_BaseUser_Email"><path codeLine="97" d="M1351.73,1131.21 C1377.22,1120.74 1409.13,1107.63 1435.97,1096.61 " fill="none" id="BaseUser-to-Email" style="stroke:#1E90FF;stroke-width:1.0;"/><polygon fill="#1E90FF" points="1440.92,1094.57,1431.0752,1094.2873,1436.2945,1096.4687,1434.1132,1101.6881,1440.92,1094.57" style="stroke:#1E90FF;stroke-width:1.0;"/></g><!--MD5=[c6fc01dc59c0d2acf922130493ca1450]
link BaseUser to Password--><g id="link_BaseUser_Password"><path codeLine="98" d="M1351.73,1168.79 C1377.22,1179.26 1409.13,1192.37 1435.97,1203.39 " fill="none" id="BaseUser-to-Password" style="stroke:#1E90FF;stroke-width:1.0;"/><polygon fill="#1E90FF" points="1440.92,1205.43,1434.1132,1198.3119,1436.2945,1203.5313,1431.0752,1205.7127,1440.92,1205.43" style="stroke:#1E90FF;stroke-width:1.0;"/></g><!--MD5=[e7470f68175942cba5d83e095e35829d]
link Task to TaskStatus--><g id="link_Task_TaskStatus"><path codeLine="115" d="M590.18,1030.52 C637.73,1035.27 723.02,1043.8 779.32,1049.43 " fill="none" id="Task-to-TaskStatus" style="stroke:#1E90FF;stroke-width:1.0;"/><polygon fill="#1E90FF" points="784.34,1049.93,775.7855,1045.0494,779.3651,1049.4297,774.9849,1053.0093,784.34,1049.93" style="stroke:#1E90FF;stroke-width:1.0;"/></g><!--MD5=[059c9c816fd4a9e37f9290e36f324c55]
link TaskType to Types--><g id="link_TaskType_Types"><path codeLine="128" d="M1305,174.35 C1305,164.48 1305,154.62 1305,144.75 " fill="none" id="TaskType-to-Types" style="stroke:#1E90FF;stroke-width:1.0;"/><polygon fill="#1E90FF" points="1305,139.59,1301,148.59,1305,144.59,1309,148.59,1305,139.59" style="stroke:#1E90FF;stroke-width:1.0;"/></g><!--MD5=[9c2c4d6704eb946273bdaf086fd4811b]
link SurveillanceTask to Phone_Number--><g id="link_SurveillanceTask_Phone_Number"><path codeLine="160" d="M355.82,838 C397.15,838 449.23,838 489.49,838 " fill="none" id="SurveillanceTask-to-Phone_Number" style="stroke:#1E90FF;stroke-width:1.0;"/><polygon fill="#1E90FF" points="494.83,838,485.83,834,489.83,838,485.83,842,494.83,838" style="stroke:#1E90FF;stroke-width:1.0;"/></g><!--MD5=[3ad1e65c7d6af55c9da8c6196df9a73d]
link Room to RoomCategory--><g id="link_Room_RoomCategory"><path codeLine="190" d="M876.73,1327 C914.67,1327 972.62,1327 1017.93,1327 " fill="none" id="Room-to-RoomCategory" style="stroke:#1E90FF;stroke-width:1.0;"/><polygon fill="#1E90FF" points="1023.11,1327,1014.11,1323,1018.11,1327,1014.11,1331,1023.11,1327" style="stroke:#1E90FF;stroke-width:1.0;"/></g><!--MD5=[b799bec8400e9de87652545c025c9ef0]
link Passage to Floor--><g id="link_Passage_Floor"><path codeLine="205" d="M879.52,493.24 C917.24,496.12 973.02,500.38 1017.11,503.74 " fill="none" id="Passage-to-Floor" style="stroke:#1E90FF;stroke-width:1.0;"/><polygon fill="#1E90FF" points="1022.15,504.13,1013.4853,499.4477,1017.1649,503.7443,1012.8683,507.4239,1022.15,504.13" style="stroke:#1E90FF;stroke-width:1.0;"/><text fill="#000000" font-family="sans-serif" font-size="13" lengthAdjust="spacing" textLength="53" x="936.5" y="494.4951">connects</text><text fill="#000000" font-family="sans-serif" font-size="13" lengthAdjust="spacing" textLength="5" x="887.4297" y="508.7147">*</text><text fill="#000000" font-family="sans-serif" font-size="13" lengthAdjust="spacing" textLength="7" x="1007.6742" y="518.0072">1</text></g><!--MD5=[b799bec8400e9de87652545c025c9ef0]
link Passage to Floor--><g id="link_Passage_Floor"><path codeLine="206" d="M879.63,510.39 C896.61,517.45 916.58,524.48 935.5,528 C962.08,532.95 991.54,530.87 1017.3,526.61 " fill="none" id="Passage-to-Floor-1" style="stroke:#1E90FF;stroke-width:1.0;"/><polygon fill="#1E90FF" points="1022.4,525.73,1012.8545,523.3043,1017.4715,526.5728,1014.2031,531.1899,1022.4,525.73" style="stroke:#1E90FF;stroke-width:1.0;"/><text fill="#000000" font-family="sans-serif" font-size="13" lengthAdjust="spacing" textLength="53" x="936.5" y="524.4951">connects</text><text fill="#000000" font-family="sans-serif" font-size="13" lengthAdjust="spacing" textLength="5" x="887.5586" y="528.8123">*</text><text fill="#000000" font-family="sans-serif" font-size="13" lengthAdjust="spacing" textLength="7" x="1007.5259" y="542.1265">1</text></g><!--MD5=[9bd558bda1c2c091fafbb27e99354104]
link Floor to Building--><g id="link_Floor_Building"><path codeLine="207" d="M1151.61,552.57 C1170.99,567.39 1191.62,584.82 1208.5,603 C1235.79,632.38 1260.73,670.29 1278.28,699.7 " fill="none" id="Floor-to-Building" style="stroke:#1E90FF;stroke-width:1.0;"/><polygon fill="#1E90FF" points="1281.03,704.34,1279.8919,694.5571,1278.4849,700.0362,1273.0058,698.6293,1281.03,704.34" style="stroke:#1E90FF;stroke-width:1.0;"/><text fill="#000000" font-family="sans-serif" font-size="13" lengthAdjust="spacing" textLength="24" x="1183.5" y="576.4951">is in</text><text fill="#000000" font-family="sans-serif" font-size="13" lengthAdjust="spacing" textLength="20" x="1159.3042" y="571.4207">1..*</text><text fill="#000000" font-family="sans-serif" font-size="13" lengthAdjust="spacing" textLength="7" x="1269.4803" y="693.6057">1</text></g><!--MD5=[ca76a5cd1232cecc0d7d3307256b492c]
link Robot to RobotType--><g id="link_Robot_RobotType"><path codeLine="208" d="M594.23,303.96 C642.88,261.73 726.07,189.54 780.79,142.04 " fill="none" id="Robot-to-RobotType" style="stroke:#1E90FF;stroke-width:1.0;"/><polygon fill="#1E90FF" points="784.68,138.67,775.255,141.5281,780.8968,141.9392,780.4857,147.5811,784.68,138.67" style="stroke:#1E90FF;stroke-width:1.0;"/><text fill="#000000" font-family="sans-serif" font-size="13" lengthAdjust="spacing" textLength="21" x="680" y="184.4951">has</text><text fill="#000000" font-family="sans-serif" font-size="13" lengthAdjust="spacing" textLength="5" x="602.1083" y="312.6648">*</text><text fill="#000000" font-family="sans-serif" font-size="13" lengthAdjust="spacing" textLength="7" x="769.9709" y="159.4889">1</text></g><!--MD5=[edabc3ddf355f16d97a14c7b9ad15af5]
link RobotType to TaskType--><g id="link_RobotType_TaskType"><path codeLine="209" d="M887.08,104.72 C958.62,118.81 1094.11,146.29 1208.5,174 C1222.63,177.42 1237.85,181.42 1251.9,185.25 " fill="none" id="RobotType-to-TaskType" style="stroke:#1E90FF;stroke-width:1.0;"/><polygon fill="#1E90FF" points="1257.02,186.64,1249.4084,180.3899,1252.2002,185.3099,1247.2802,188.1017,1257.02,186.64" style="stroke:#1E90FF;stroke-width:1.0;"/><text fill="#000000" font-family="sans-serif" font-size="13" lengthAdjust="spacing" textLength="21" x="1076.5" y="124.4951">has</text><text fill="#000000" font-family="sans-serif" font-size="13" lengthAdjust="spacing" textLength="20" x="894.9059" y="120.538">1..*</text><text fill="#000000" font-family="sans-serif" font-size="13" lengthAdjust="spacing" textLength="20" x="1229.5913" y="199.4899">1..*</text></g><!--MD5=[8d0d839979bc5a6cc84fbc9930d69b0d]
link Task to TaskType--><g id="link_Task_TaskType"><path codeLine="210" d="M575.27,1001.46 C595.18,974.7 624.35,930.55 637,887 C650.96,838.95 633.67,710.73 645,662 C669.36,557.17 667.34,516.54 744,441 C820.59,365.53 1128.37,258.04 1252.11,216.9 " fill="none" id="Task-to-TaskType" style="stroke:#1E90FF;stroke-width:1.0;"/><polygon fill="#1E90FF" points="1257.14,215.23,1247.3387,214.2636,1252.3937,216.8026,1249.8548,221.8576,1257.14,215.23" style="stroke:#1E90FF;stroke-width:1.0;"/><text fill="#000000" font-family="sans-serif" font-size="13" lengthAdjust="spacing" textLength="21" x="952.5" y="309.4951">has</text><text fill="#000000" font-family="sans-serif" font-size="13" lengthAdjust="spacing" textLength="5" x="575.0798" y="990.4436">*</text><text fill="#000000" font-family="sans-serif" font-size="13" lengthAdjust="spacing" textLength="7" x="1242.5965" y="232.1846">1</text></g><!--MD5=[c03fde9cc1bc385fcc688737864e0771]
link FleetManager to Robot--><g id="link_FleetManager_Robot"><path codeLine="211" d="M345.64,257.86 C395.06,276.96 464.42,303.76 509.03,321.01 " fill="none" id="FleetManager-to-Robot" style="stroke:#1E90FF;stroke-width:1.0;"/><polygon fill="#1E90FF" points="513.81,322.85,506.8573,315.8744,509.1462,321.0474,503.9732,323.3364,513.81,322.85" style="stroke:#1E90FF;stroke-width:1.0;"/><text fill="#000000" font-family="sans-serif" font-size="13" lengthAdjust="spacing" textLength="53" x="400" y="277.4951">manages</text><text fill="#000000" font-family="sans-serif" font-size="13" lengthAdjust="spacing" textLength="7" x="353.3961" y="275.15">1</text><text fill="#000000" font-family="sans-serif" font-size="13" lengthAdjust="spacing" textLength="5" x="500.939" y="335.0376">*</text></g><!--MD5=[3e21d52389d344754c86fc68c476c2d0]
link FleetManager to TaskType--><g id="link_FleetManager_TaskType"><path codeLine="212" d="M345.75,222.71 C399.56,212.62 481.25,200 553,200 C553,200 553,200 1088,200 C1144.03,200 1208.25,200 1252,200 " fill="none" id="FleetManager-to-TaskType" style="stroke:#1E90FF;stroke-width:1.0;"/><polygon fill="#1E90FF" points="1257.23,200,1248.23,196,1252.23,200,1248.23,204,1257.23,200" style="stroke:#1E90FF;stroke-width:1.0;"/><text fill="#000000" font-family="sans-serif" font-size="13" lengthAdjust="spacing" textLength="53" x="809.5" y="196.4951">manages</text><text fill="#000000" font-family="sans-serif" font-size="13" lengthAdjust="spacing" textLength="7" x="353.5195" y="235.7161">1</text><text fill="#000000" font-family="sans-serif" font-size="13" lengthAdjust="spacing" textLength="5" x="1244.5324" y="214.7698">*</text></g><!--MD5=[6d870b3845f16cc3cb3c963eb5b9e1ac]
link FleetManager to RobotType--><g id="link_FleetManager_RobotType"><path codeLine="213" d="M339.26,201.91 C357.59,191.64 378.67,181.15 399,174 C531.04,127.58 695.62,107.24 779.8,99.36 " fill="none" id="FleetManager-to-RobotType" style="stroke:#1E90FF;stroke-width:1.0;"/><polygon fill="#1E90FF" points="784.98,98.88,775.6524,95.7185,780.0009,99.3365,776.3828,103.6851,784.98,98.88" style="stroke:#1E90FF;stroke-width:1.0;"/><text fill="#000000" font-family="sans-serif" font-size="13" lengthAdjust="spacing" textLength="53" x="527.5" y="114.4951">manages</text><text fill="#000000" font-family="sans-serif" font-size="13" lengthAdjust="spacing" textLength="7" x="342.6261" y="190.9875">1</text><text fill="#000000" font-family="sans-serif" font-size="13" lengthAdjust="spacing" textLength="5" x="772.1193" y="114.1802">*</text></g><!--MD5=[06a5afa8b8fb3e5b663228865623ad1d]
link FleetManager to BaseUser--><g id="link_FleetManager_BaseUser"><path codeLine="214" d="M316.81,268.04 C353.36,307.01 417.58,372.73 479,422 C665.25,571.41 748.26,559.82 928,717 C1080.85,850.66 1228.79,1046.15 1282.64,1120.14 " fill="none" id="FleetManager-to-BaseUser" style="stroke:#1E90FF;stroke-width:1.0;"/><polygon fill="#1E90FF" points="1285.74,1124.42,1283.6774,1114.7896,1282.7974,1120.3776,1277.2094,1119.4976,1285.74,1124.42" style="stroke:#1E90FF;stroke-width:1.0;"/><text fill="#000000" font-family="sans-serif" font-size="13" lengthAdjust="spacing" textLength="10" x="831" y="585.4951">is</text><text fill="#000000" font-family="sans-serif" font-size="13" lengthAdjust="spacing" textLength="7" x="315.1113" y="289.4112">1</text><text fill="#000000" font-family="sans-serif" font-size="13" lengthAdjust="spacing" textLength="7" x="1273.1923" y="1113.809">1</text></g><!--MD5=[76f37a11cb0da09cd73c033a9950316a]
link TaskManager to BaseUser--><g id="link_TaskManager_BaseUser"><path codeLine="215" d="M345.36,1000.72 C383.2,991.11 433.6,979.9 479,975 C677.41,953.61 733.16,931.88 928,975 C1055.95,1003.32 1192.02,1079.82 1259.99,1121.69 " fill="none" id="TaskManager-to-BaseUser" style="stroke:#1E90FF;stroke-width:1.0;"/><polygon fill="#1E90FF" points="1264.37,1124.39,1258.8259,1116.2498,1260.1196,1121.7567,1254.6127,1123.0505,1264.37,1124.39" style="stroke:#1E90FF;stroke-width:1.0;"/><text fill="#000000" font-family="sans-serif" font-size="13" lengthAdjust="spacing" textLength="10" x="831" y="947.4951">is</text><text fill="#000000" font-family="sans-serif" font-size="13" lengthAdjust="spacing" textLength="7" x="353.082" y="1013.2398">1</text><text fill="#000000" font-family="sans-serif" font-size="13" lengthAdjust="spacing" textLength="7" x="1246.6133" y="1113.7717">1</text></g><!--MD5=[a7a0ac10aad9828e723872f2a24a8c5f]
link TaskManager to Task--><g id="link_TaskManager_Task"><path codeLine="216" d="M345.31,1019.21 C396.09,1021.11 468.09,1023.81 512.6,1025.48 " fill="none" id="TaskManager-to-Task" style="stroke:#1E90FF;stroke-width:1.0;"/><polygon fill="#1E90FF" points="517.62,1025.67,508.7751,1021.3378,512.6235,1025.4839,508.4773,1029.3322,517.62,1025.67" style="stroke:#1E90FF;stroke-width:1.0;"/><text fill="#000000" font-family="sans-serif" font-size="13" lengthAdjust="spacing" textLength="53" x="400" y="1018.4951">manages</text><text fill="#000000" font-family="sans-serif" font-size="13" lengthAdjust="spacing" textLength="7" x="353.0259" y="1033.9833">1</text><text fill="#000000" font-family="sans-serif" font-size="13" lengthAdjust="spacing" textLength="5" x="504.9655" y="1040.5421">*</text></g><!--MD5=[6faf59eaf630cb3dfedac14444841e27]
link Campus to Robot--><g id="link_Campus_Robot"><path codeLine="217" d="M117.79,651.24 C202.95,589.95 417.42,435.59 509.69,369.17 " fill="none" id="Campus-to-Robot" style="stroke:#1E90FF;stroke-width:1.0;"/><polygon fill="#1E90FF" points="513.99,366.08,504.3467,368.0819,509.9291,368.997,509.0139,374.5793,513.99,366.08" style="stroke:#1E90FF;stroke-width:1.0;"/><text fill="#000000" font-family="sans-serif" font-size="13" lengthAdjust="spacing" textLength="21" x="275" y="451.4951">has</text><text fill="#000000" font-family="sans-serif" font-size="13" lengthAdjust="spacing" textLength="7" x="118.9044" y="640.5851">1</text><text fill="#000000" font-family="sans-serif" font-size="13" lengthAdjust="spacing" textLength="20" x="486.0197" y="385.3347">1..*</text></g><!--MD5=[64a6d3adedf3b0fb0946824f6c0772b5]
link Campus to Building--><g id="link_Campus_Building"><path codeLine="218" d="M123.19,683.19 C216.04,696.82 448.86,729.14 645,741 C865,754.3 1127.05,750.42 1243.3,747.68 " fill="none" id="Campus-to-Building" style="stroke:#1E90FF;stroke-width:1.0;"/><polygon fill="#1E90FF" points="1248.39,747.56,1239.3007,743.7673,1243.3913,747.6746,1239.484,751.7652,1248.39,747.56" style="stroke:#1E90FF;stroke-width:1.0;"/><text fill="#000000" font-family="sans-serif" font-size="13" lengthAdjust="spacing" textLength="49" x="666" y="737.4951">contains</text><text fill="#000000" font-family="sans-serif" font-size="13" lengthAdjust="spacing" textLength="7" x="131.043" y="699.1797">1</text><text fill="#000000" font-family="sans-serif" font-size="13" lengthAdjust="spacing" textLength="20" x="1220.6882" y="762.1573">1..*</text></g><!--MD5=[b695062ca0045c968146141b60f91aa7]
link Robot to Floor--><g id="link_Robot_Floor"><path codeLine="219" d="M594.11,328.42 C674.63,310.98 862.11,282.34 990.5,357 C1023.75,376.34 1047.14,412.36 1062.45,444.49 " fill="none" id="Robot-to-Floor" style="stroke:#1E90FF;stroke-width:1.0;"/><polygon fill="#1E90FF" points="1064.65,449.2,1064.4789,439.3526,1062.5403,444.6669,1057.226,442.7282,1064.65,449.2" style="stroke:#1E90FF;stroke-width:1.0;"/><text fill="#000000" font-family="sans-serif" font-size="13" lengthAdjust="spacing" textLength="28" x="822" y="305.4951">is on</text><text fill="#000000" font-family="sans-serif" font-size="13" lengthAdjust="spacing" textLength="5" x="601.9662" y="341.6346">*</text><text fill="#000000" font-family="sans-serif" font-size="13" lengthAdjust="spacing" textLength="7" x="1054.4995" y="438.4763">1</text></g><!--MD5=[72b016db4298bbca18290089dcc4871d]
link SurveillanceTask to Floor--><g id="link_SurveillanceTask_Floor"><path codeLine="220" d="M355.59,814.7 C518.62,759.66 914.67,625.75 928,619 C959.14,603.24 991.16,582.04 1018.16,562.45 " fill="none" id="SurveillanceTask-to-Floor" style="stroke:#1E90FF;stroke-width:1.0;"/><polygon fill="#1E90FF" points="1022.45,559.32,1012.823,561.3989,1018.4125,562.2694,1017.542,567.8588,1022.45,559.32" style="stroke:#1E90FF;stroke-width:1.0;"/><text fill="#000000" font-family="sans-serif" font-size="13" lengthAdjust="spacing" textLength="89" x="646" y="684.4951">is performed on</text><text fill="#000000" font-family="sans-serif" font-size="13" lengthAdjust="spacing" textLength="5" x="363.5295" y="826.552">*</text><text fill="#000000" font-family="sans-serif" font-size="13" lengthAdjust="spacing" textLength="20" x="994.2961" y="579.2336">1..*</text></g><!--MD5=[3c4722e1a71814a9ff0b335814e1f6d0]
link DeliveryTask to Room--><g id="link_DeliveryTask_Room"><path codeLine="221" d="M362.19,1355.45 C478.14,1348.47 696.15,1335.35 790.07,1329.7 " fill="none" id="DeliveryTask-to-Room" style="stroke:#1E90FF;stroke-width:1.0;"/><polygon fill="#1E90FF" points="795.27,1329.39,786.0466,1325.9362,790.279,1329.6895,786.5257,1333.9218,795.27,1329.39" style="stroke:#1E90FF;stroke-width:1.0;"/><text fill="#000000" font-family="sans-serif" font-size="13" lengthAdjust="spacing" textLength="64" x="522" y="1336.4951">has (origin)</text><text fill="#000000" font-family="sans-serif" font-size="13" lengthAdjust="spacing" textLength="5" x="369.9853" y="1369.299">*</text><text fill="#000000" font-family="sans-serif" font-size="13" lengthAdjust="spacing" textLength="7" x="780.3915" y="1344.7463">1</text></g><!--MD5=[3c4722e1a71814a9ff0b335814e1f6d0]
link DeliveryTask to Room--><g id="link_DeliveryTask_Room"><path codeLine="222" d="M362.05,1335.54 C374.32,1332.04 386.96,1328.71 399,1326 C545.29,1293.1 586.6,1297.27 736,1310 C753.79,1311.52 773.19,1314.54 790.07,1317.62 " fill="none" id="DeliveryTask-to-Room-1" style="stroke:#1E90FF;stroke-width:1.0;"/><polygon fill="#1E90FF" points="795.22,1318.58,787.1035,1313.0013,790.3043,1317.6655,785.6402,1320.8663,795.22,1318.58" style="stroke:#1E90FF;stroke-width:1.0;"/><text fill="#000000" font-family="sans-serif" font-size="13" lengthAdjust="spacing" textLength="96" x="506" y="1297.4951">has (destination)</text><text fill="#000000" font-family="sans-serif" font-size="13" lengthAdjust="spacing" textLength="5" x="370.202" y="1347.3526">*</text><text fill="#000000" font-family="sans-serif" font-size="13" lengthAdjust="spacing" textLength="7" x="780.6094" y="1313.263">1</text></g><!--MD5=[b84020e4b7a2d97ebe9c7060df23745e]
link User to BaseUser--><g id="link_User_BaseUser"><path codeLine="223" d="M1123.18,1150 C1158.42,1150 1213.02,1150 1253,1150 " fill="none" id="User-to-BaseUser" style="stroke:#1E90FF;stroke-width:1.0;"/><polygon fill="#1E90FF" points="1258.3,1150,1249.3,1146,1253.3,1150,1249.3,1154,1258.3,1150" style="stroke:#1E90FF;stroke-width:1.0;"/><text fill="#000000" font-family="sans-serif" font-size="13" lengthAdjust="spacing" textLength="10" x="1190.5" y="1146.4951">is</text><text fill="#000000" font-family="sans-serif" font-size="13" lengthAdjust="spacing" textLength="7" x="1130.992" y="1165.1247">1</text><text fill="#000000" font-family="sans-serif" font-size="13" lengthAdjust="spacing" textLength="7" x="1243.6131" y="1164.7698">1</text></g><!--MD5=[3cea0ac5c48e5e47bfbbb5b65e7c018c]
link DeliveryTask to BaseUser--><g id="link_DeliveryTask_BaseUser"><path codeLine="224" d="M362.16,1399.24 C414.36,1422.71 486.13,1448 553,1448 C553,1448 553,1448 1088,1448 C1218.88,1448 1278.6,1257.22 1297.25,1180.95 " fill="none" id="DeliveryTask-to-BaseUser" style="stroke:#1E90FF;stroke-width:1.0;"/><polygon fill="#1E90FF" points="1298.52,1175.67,1292.5214,1183.4813,1297.3477,1180.5306,1300.2984,1185.357,1298.52,1175.67" style="stroke:#1E90FF;stroke-width:1.0;"/><text fill="#000000" font-family="sans-serif" font-size="13" lengthAdjust="spacing" textLength="102" x="785" y="1444.4951">mentions (Owner)</text><text fill="#000000" font-family="sans-serif" font-size="13" lengthAdjust="spacing" textLength="5" x="369.9523" y="1417.3995">*</text><text fill="#000000" font-family="sans-serif" font-size="13" lengthAdjust="spacing" textLength="7" x="1289.3369" y="1196.6014">1</text></g><!--MD5=[3cea0ac5c48e5e47bfbbb5b65e7c018c]
link DeliveryTask to BaseUser--><g id="link_DeliveryTask_BaseUser"><path codeLine="225" d="M362.27,1444.13 C411.5,1489.38 479.95,1536 553,1536 C553,1536 553,1536 1088,1536 C1250.61,1536 1291.99,1271.92 1301.44,1180.62 " fill="none" id="DeliveryTask-to-BaseUser-1" style="stroke:#1E90FF;stroke-width:1.0;"/><polygon fill="#1E90FF" points="1301.95,1175.63,1297.0694,1184.1845,1301.4497,1180.6049,1305.0293,1184.9851,1301.95,1175.63" style="stroke:#1E90FF;stroke-width:1.0;"/><text fill="#000000" font-family="sans-serif" font-size="13" lengthAdjust="spacing" textLength="102" x="785" y="1532.4951">mentions (reciver)</text><text fill="#000000" font-family="sans-serif" font-size="13" lengthAdjust="spacing" textLength="5" x="370.0731" y="1466.7084">*</text><text fill="#000000" font-family="sans-serif" font-size="13" lengthAdjust="spacing" textLength="7" x="1302.0484" y="1196.5526">1</text></g><!--MD5=[92d0919ae475adb8a5bbe41b23e4e52c]
link Room to Floor--><g id="link_Room_Floor"><path codeLine="226" d="M876.58,1287.64 C894.77,1267.48 915.11,1241.6 928,1215 C1034.43,995.38 1070.32,702.42 1081.44,573.98 " fill="none" id="Room-to-Floor" style="stroke:#1E90FF;stroke-width:1.0;"/><polygon fill="#1E90FF" points="1081.89,568.73,1077.1564,577.3667,1081.4748,573.7127,1085.1288,578.0311,1081.89,568.73" style="stroke:#1E90FF;stroke-width:1.0;"/><text fill="#000000" font-family="sans-serif" font-size="13" lengthAdjust="spacing" textLength="28" x="949" y="1065.4951">is on</text><text fill="#000000" font-family="sans-serif" font-size="13" lengthAdjust="spacing" textLength="20" x="884.6412" y="1296.1465">1..*</text><text fill="#000000" font-family="sans-serif" font-size="13" lengthAdjust="spacing" textLength="7" x="1073.9483" y="589.6728">1</text></g><!--MD5=[7a504693096f6b39af42b062475f830d]
link SurveillanceTask to Task--><g id="link_SurveillanceTask_Task"><path codeLine="227" d="M333.23,871.14 C384.38,907.41 465.5,964.95 513.57,999.03 " fill="none" id="SurveillanceTask-to-Task" style="stroke:#1E90FF;stroke-width:1.0;"/><polygon fill="#1E90FF" points="517.83,1002.05,512.8061,993.5789,513.7527,999.156,508.1756,1000.1026,517.83,1002.05" style="stroke:#1E90FF;stroke-width:1.0;"/><text fill="#000000" font-family="sans-serif" font-size="13" lengthAdjust="spacing" textLength="7" x="334.3849" y="892.2714">1</text><text fill="#000000" font-family="sans-serif" font-size="13" lengthAdjust="spacing" textLength="7" x="503.02" y="1012.2719">1</text></g><!--MD5=[0d2e4f9a1c4cd4368b640ee7a7ebee58]
link DeliveryTask to Task--><g id="link_DeliveryTask_Task"><path codeLine="228" d="M362.16,1265.47 C418.62,1194.91 492.17,1103.01 529.32,1056.59 " fill="none" id="DeliveryTask-to-Task" style="stroke:#1E90FF;stroke-width:1.0;"/><polygon fill="#1E90FF" points="532.58,1052.52,523.8383,1057.0569,529.46,1056.4271,530.0897,1062.0488,532.58,1052.52" style="stroke:#1E90FF;stroke-width:1.0;"/><text fill="#000000" font-family="sans-serif" font-size="13" lengthAdjust="spacing" textLength="7" x="370.0508" y="1270.4615">1</text><text fill="#000000" font-family="sans-serif" font-size="13" lengthAdjust="spacing" textLength="7" x="519.8173" y="1073.8416">1</text></g><!--MD5=[59f436a63fd120c4f40f9b73b6fc58b5]
link Task to User--><g id="link_Task_User"><path codeLine="229" d="M581.68,1052.64 C616,1083.66 678.96,1134.18 744,1154 C849.04,1186.01 980.79,1169.69 1045.85,1158.16 " fill="none" id="Task-to-User" style="stroke:#1E90FF;stroke-width:1.0;"/><polygon fill="#1E90FF" points="1050.8,1157.26,1041.2267,1154.9467,1045.8818,1158.1607,1042.6678,1162.8159,1050.8,1157.26" style="stroke:#1E90FF;stroke-width:1.0;"/><text fill="#000000" font-family="sans-serif" font-size="13" lengthAdjust="spacing" textLength="75" x="798.5" y="1150.4951">requested by</text><text fill="#000000" font-family="sans-serif" font-size="13" lengthAdjust="spacing" textLength="5" x="582.1881" y="1073.5648">*</text><text fill="#000000" font-family="sans-serif" font-size="13" lengthAdjust="spacing" textLength="7" x="1035.9841" y="1173.814">1</text></g><!--MD5=[d5b1a9a4fd0eb9643882d3eec36cbf2a]
@startuml "Domain Model"


hide methods
left to right direction

skinparam classAttributeIconSize 0

skinparam class {
    LifeLineBorderColor DodgerBlue
    LifeLineBackgroundColor APPLICATION
    BackgroundColor #D8F5FF
    ArrowColor DodgerBlue
    BorderColor DodgerBlue
}

skinparam packageStyle rectangle

skinparam card {
    LifeLineBorderColor DodgerBlue
    LifeLineBackgroundColor APPLICATION
    BackgroundColor #D8F5FF
    ArrowColor DodgerBlue
    BorderColor DodgerBlue
}

package "Robot Aggregate" {

    entity Robot <<entity>><<root>>{
        id
        fullName
        shortName
        ?location?
    }

}

package "RobotType Aggregate"{
    entity RobotType <<entity>>{
            brand
            model
            name
     }
}

package "Building Aggregate" {

    entity Building <<entity>><<root>>{
        floorDimensions
    }

    card Name <<Value Object>>{
    }

    card Description <<Value Object>>{
    }

    card Code <<Value Object>>{
    }

    entity Elevator <<Entity>>{
    }

    Building "1" - -> "1" Elevator
    Building - -> Name
    Building - -> Description
    Building - -> Code

}

package "Floor Aggregate"{

    entity Floor <<entity>> <<root>>{
        code
        description
        served by elevator
    }

    card Map <<Value Object>>{
    }

    Floor - -> Map : has

}

package "BaseUser Aggregate"{

    entity BaseUser <<Entity>>{
    }
    card PhoneNumber <<Value Object>>{
    }
    card Email <<Value Object>>{
    }
    card Password <<Value Object>>{
    }

    BaseUser - -> PhoneNumber
    BaseUser - -> Email
    BaseUser - -> Password
}

package "Task Aggregate"{

    entity Task <<Entity>>{

    }

    enum TaskStatus {
        Pending
        Approved
        In execution
        Completed
        Denied
    }

    Task - -> TaskStatus
}


package "Task Type Aggregate" {
    entity TaskType <<entity>>{

    }
    enum Types {
        Surveillance
        Delivery
    }

    TaskType -> Types
}

package "Fleet Manager Aggregate"{

    entity FleetManager <<entity>> <<root>>{
    }

}

package "Task Manager Aggregate"{

    entity TaskManager <<entity>> <<root>>{
    }

}

package "Campus Aggregate"{

    entity Campus <<entity>>{
    }

}

package "Surveillance Task Aggregate"{

    entity SurveillanceTask <<entity>> <<root>>{
    }

    card Phone_Number <<Value Object>> {
    }

    SurveillanceTask - -> Phone_Number
}

package "Delivery Task Aggregate"{
    entity DeliveryTask <<entity>> <<root>>{
        pickUpRoom
        deliveryRoom
        namePickUp
        phonePickUp
        phoneDelivery
        confirmationCode
        descriptionOfContents
    }
}

package "Room Aggregate"{

    entity Room <<Entity>><<root>>{
        code
        category
        description
        dimension
    }

    enum RoomCategory{
        Office
        Amphitheater
        Laboratory
        Other
    }
    Room - -> RoomCategory
}

package "Passage Aggregate"{

    entity Passage <<Entity>> <<root>>{
    }

}

package "User" {
    entity User<<Entity>><<root>>{
    }
}

Passage "*" - -> "1" Floor : connects
Passage "*" - -> "1" Floor : connects
Floor "1..*" - -> "1" Building : is in
Robot "*" - -> "1" RobotType : has
RobotType "1..*" - - -> "1..*" TaskType : has
Task "*" - -> "1" TaskType : has
FleetManager "1" - -> "*" Robot : "manages"
FleetManager "1" - - -> "*" TaskType : "manages"
FleetManager "1" - -> "*" RobotType : "manages"
FleetManager "1" - -> "1" BaseUser : is
TaskManager "1"- -> "1" BaseUser : is
TaskManager "1" - -> "*" Task : "manages"
Campus "1" - - -> "1..*" Robot : has
Campus "1" - -> "1..*" Building : contains
Robot "*" - - -> "1" Floor : is on
SurveillanceTask "*" - - - -> "1..*" Floor : is performed on
DeliveryTask "*" - - -> "1" Room : has (origin)
DeliveryTask "*" - - -> "1" Room : has (destination)
User "1" - -> "1" BaseUser : is
DeliveryTask "*" - -> "1" BaseUser : mentions (Owner)
DeliveryTask "*" - -> "1" BaseUser : mentions (reciver)
Room "1..*" - -> "1" Floor : is on
SurveillanceTask "1" - -> "1" Task
DeliveryTask "1" - -> "1" Task
Task "*" - - -> "1" User  : requested by

@enduml

PlantUML version 1.2022.7(Mon Aug 22 18:01:30 BST 2022)
(GPL source distribution)
Java Runtime: Java(TM) SE Runtime Environment
JVM: Java HotSpot(TM) Client VM
Default Encoding: Cp1252
Language: en
Country: US
--></g></svg>