<?xml version="1.0" encoding="UTF-8" standalone="no"?><svg xmlns="http://www.w3.org/2000/svg" xmlns:xlink="http://www.w3.org/1999/xlink" contentStyleType="text/css" height="198px" preserveAspectRatio="none" style="width:332px;height:198px;background:#FFFFFF;" version="1.1" viewBox="0 0 332 198" width="332px" zoomAndPan="magnify"><defs/><g><rect fill="#FFFFFF" height="73.7031" style="stroke:#181818;stroke-width:1.0;" width="10" x="129" y="69.9609"/><line style="stroke:#181818;stroke-width:0.5;stroke-dasharray:5.0,5.0;" x1="134" x2="134" y1="37.6094" y2="161.6641"/><rect fill="#E2E2F0" height="31.6094" rx="2.5" ry="2.5" style="stroke:#181818;stroke-width:0.5;" width="138" x="65" y="5"/><text fill="#000000" font-family="sans-serif" font-size="14" lengthAdjust="spacing" textLength="124" x="72" y="26.5332">Robot Management</text><rect fill="#E2E2F0" height="31.6094" rx="2.5" ry="2.5" style="stroke:#181818;stroke-width:0.5;" width="138" x="65" y="160.6641"/><text fill="#000000" font-family="sans-serif" font-size="14" lengthAdjust="spacing" textLength="124" x="72" y="182.1973">Robot Management</text><rect fill="#FFFFFF" height="73.7031" style="stroke:#181818;stroke-width:1.0;" width="10" x="129" y="69.9609"/><ellipse cx="7.5" cy="69.2109" fill="none" rx="4" ry="4" style="stroke:#181818;stroke-width:1.5;"/><polygon fill="#181818" points="117,65.9609,127,69.9609,117,73.9609,121,69.9609" style="stroke:#181818;stroke-width:1.0;"/><line style="stroke:#181818;stroke-width:1.0;" x1="12" x2="123" y1="69.9609" y2="69.9609"/><text fill="#000000" font-family="sans-serif" font-size="13" lengthAdjust="spacing" textLength="102" x="15" y="65.1045">GET /robot?query</text><line style="stroke:#181818;stroke-width:1.0;" x1="139" x2="181" y1="100.3125" y2="100.3125"/><line style="stroke:#181818;stroke-width:1.0;" x1="181" x2="181" y1="100.3125" y2="113.3125"/><line style="stroke:#181818;stroke-width:1.0;" x1="140" x2="181" y1="113.3125" y2="113.3125"/><polygon fill="#181818" points="150,109.3125,140,113.3125,150,117.3125,146,113.3125" style="stroke:#181818;stroke-width:1.0;"/><text fill="#000000" font-family="sans-serif" font-size="13" lengthAdjust="spacing" textLength="179" x="146" y="95.4561">Retrieve robots based on query</text><ellipse cx="7.5" cy="142.9141" fill="none" rx="4" ry="4" style="stroke:#181818;stroke-width:1.5;"/><polygon fill="#181818" points="24.5,139.6641,14.5,143.6641,24.5,147.6641,20.5,143.6641" style="stroke:#181818;stroke-width:1.0;"/><ellipse cx="133.5" cy="142.9141" fill="none" rx="4" ry="4" style="stroke:#181818;stroke-width:1.5;"/><line style="stroke:#181818;stroke-width:1.0;stroke-dasharray:2.0,2.0;" x1="22.5" x2="129" y1="143.6641" y2="143.6641"/><text fill="#000000" font-family="sans-serif" font-size="13" lengthAdjust="spacing" textLength="57" x="25" y="138.8076">robots list</text><!--MD5=[b5696f3f46d0174f9476236205b0ca1c]
@startuml SD Lv1

participant "Robot Management" as system

[o-> system : GET /robot?query
activate system

system -> system : Retrieve robots based on query
[o<- -o system : robots list

deactivate system

@enduml

PlantUML version 1.2022.7(Mon Aug 22 18:01:30 BST 2022)
(GPL source distribution)
Java Runtime: Java(TM) SE Runtime Environment
JVM: Java HotSpot(TM) Client VM
Default Encoding: Cp1252
Language: en
Country: US
--></g></svg>