<?xml version="1.0" encoding="UTF-8" standalone="no"?><svg xmlns="http://www.w3.org/2000/svg" xmlns:xlink="http://www.w3.org/1999/xlink" contentStyleType="text/css" height="689px" preserveAspectRatio="none" style="width:1507px;height:689px;background:#FFFFFF;" version="1.1" viewBox="0 0 1507 689" width="1507px" zoomAndPan="magnify"><defs/><g><rect fill="#ADD8E6" height="677.25" style="stroke:#181818;stroke-width:0.5;" width="1437" x="64" y="6"/><text fill="#000000" font-family="sans-serif" font-size="13" font-weight="bold" lengthAdjust="spacing" textLength="124" x="720.5" y="19.4951">Robot Management</text><rect fill="#00FFFF" height="655.8984" style="stroke:#181818;stroke-width:0.5;" width="446" x="64" y="27.3516"/><text fill="#000000" font-family="sans-serif" font-size="13" font-weight="bold" lengthAdjust="spacing" textLength="189" x="192.5" y="40.8467">Framework And Drivers Layer</text><rect fill="#77FFAA" height="655.8984" style="stroke:#181818;stroke-width:0.5;" width="422" x="618" y="27.3516"/><text fill="#000000" font-family="sans-serif" font-size="13" font-weight="bold" lengthAdjust="spacing" textLength="156" x="751" y="40.8467">Interface Adapters Layer</text><rect fill="#FF6666" height="655.8984" style="stroke:#181818;stroke-width:0.5;" width="194" x="1307" y="27.3516"/><text fill="#000000" font-family="sans-serif" font-size="13" font-weight="bold" lengthAdjust="spacing" textLength="170" x="1319" y="40.8467">Application Business Rules</text><line style="stroke:#181818;stroke-width:0.5;stroke-dasharray:5.0,5.0;" x1="131" x2="131" y1="80.3125" y2="644.6406"/><rect fill="#FFFFFF" height="515.9766" style="stroke:#181818;stroke-width:1.0;" width="10" x="126" y="110.6641"/><line style="stroke:#181818;stroke-width:0.5;stroke-dasharray:5.0,5.0;" x1="269" x2="269" y1="80.3125" y2="644.6406"/><rect fill="#FFFFFF" height="30.3516" style="stroke:#181818;stroke-width:1.0;" width="10" x="264" y="353.4766"/><line style="stroke:#181818;stroke-width:0.5;stroke-dasharray:5.0,5.0;" x1="425" x2="425" y1="80.3125" y2="644.6406"/><rect fill="#FFFFFF" height="30.3516" style="stroke:#181818;stroke-width:1.0;" width="10" x="420" y="232.0703"/><line style="stroke:#181818;stroke-width:0.5;stroke-dasharray:5.0,5.0;" x1="569" x2="569" y1="80.3125" y2="644.6406"/><line style="stroke:#181818;stroke-width:0.5;stroke-dasharray:5.0,5.0;" x1="679" x2="679" y1="80.3125" y2="644.6406"/><rect fill="#FFFFFF" height="455.2734" style="stroke:#181818;stroke-width:1.0;" width="10" x="674" y="141.0156"/><line style="stroke:#181818;stroke-width:0.5;stroke-dasharray:5.0,5.0;" x1="808" x2="808" y1="80.3125" y2="644.6406"/><rect fill="#FFFFFF" height="91.0547" style="stroke:#181818;stroke-width:1.0;" width="10" x="803" y="323.125"/><line style="stroke:#181818;stroke-width:0.5;stroke-dasharray:5.0,5.0;" x1="958" x2="958" y1="80.3125" y2="644.6406"/><rect fill="#FFFFFF" height="91.0547" style="stroke:#181818;stroke-width:1.0;" width="10" x="953" y="201.7188"/><line style="stroke:#181818;stroke-width:0.5;stroke-dasharray:5.0,5.0;" x1="1099" x2="1099" y1="80.3125" y2="644.6406"/><rect fill="#FFFFFF" height="30.3516" style="stroke:#181818;stroke-width:1.0;" width="10" x="1094" y="474.8828"/><line style="stroke:#181818;stroke-width:0.5;stroke-dasharray:5.0,5.0;" x1="1249" x2="1249" y1="80.3125" y2="644.6406"/><rect fill="#FFFFFF" height="91.0547" style="stroke:#181818;stroke-width:1.0;" width="10" x="1244" y="444.5313"/><line style="stroke:#181818;stroke-width:0.5;stroke-dasharray:5.0,5.0;" x1="1404" x2="1404" y1="80.3125" y2="644.6406"/><rect fill="#FFFFFF" height="394.5703" style="stroke:#181818;stroke-width:1.0;" width="10" x="1399" y="171.3672"/><rect fill="#E2E2F0" height="31.6094" rx="2.5" ry="2.5" style="stroke:#181818;stroke-width:0.5;" width="126" x="68" y="47.7031"/><text fill="#000000" font-family="sans-serif" font-size="14" lengthAdjust="spacing" textLength="112" x="75" y="69.2363">Request Handling</text><rect fill="#E2E2F0" height="31.6094" rx="2.5" ry="2.5" style="stroke:#181818;stroke-width:0.5;" width="130" x="204" y="47.7031"/><text fill="#000000" font-family="sans-serif" font-size="14" lengthAdjust="spacing" textLength="116" x="211" y="69.2363">Robot Persistence</text><rect fill="#E2E2F0" height="31.6094" rx="2.5" ry="2.5" style="stroke:#181818;stroke-width:0.5;" width="162" x="344" y="47.7031"/><text fill="#000000" font-family="sans-serif" font-size="14" lengthAdjust="spacing" textLength="148" x="351" y="69.2363">RobotType Persistence</text><rect fill="#E2E2F0" height="31.6094" rx="2.5" ry="2.5" style="stroke:#181818;stroke-width:0.5;" width="86" x="526" y="47.7031"/><text fill="#000000" font-family="sans-serif" font-size="14" lengthAdjust="spacing" textLength="72" x="533" y="69.2363">Data Model</text><rect fill="#E2E2F0" height="31.6094" rx="2.5" ry="2.5" style="stroke:#181818;stroke-width:0.5;" width="114" x="622" y="47.7031"/><text fill="#000000" font-family="sans-serif" font-size="14" lengthAdjust="spacing" textLength="100" x="629" y="69.2363">RobotController</text><rect fill="#E2E2F0" height="31.6094" rx="2.5" ry="2.5" style="stroke:#181818;stroke-width:0.5;" width="124" x="746" y="47.7031"/><text fill="#000000" font-family="sans-serif" font-size="14" lengthAdjust="spacing" textLength="110" x="753" y="69.2363">Robot Repository</text><rect fill="#E2E2F0" height="31.6094" rx="2.5" ry="2.5" style="stroke:#181818;stroke-width:0.5;" width="156" x="880" y="47.7031"/><text fill="#000000" font-family="sans-serif" font-size="14" lengthAdjust="spacing" textLength="142" x="887" y="69.2363">RobotType Repository</text><rect fill="#E2E2F0" height="31.6094" rx="2.5" ry="2.5" style="stroke:#181818;stroke-width:0.5;" width="86" x="1056" y="47.7031"/><text fill="#000000" font-family="sans-serif" font-size="14" lengthAdjust="spacing" textLength="72" x="1063" y="69.2363">Robot DTO</text><rect fill="#E2E2F0" height="31.6094" rx="2.5" ry="2.5" style="stroke:#181818;stroke-width:0.5;" width="104" x="1197" y="47.7031"/><text fill="#000000" font-family="sans-serif" font-size="14" lengthAdjust="spacing" textLength="90" x="1204" y="69.2363">Robot Mapper</text><rect fill="#E2E2F0" height="31.6094" rx="2.5" ry="2.5" style="stroke:#181818;stroke-width:0.5;" width="103" x="1352.5" y="47.7031"/><text fill="#000000" font-family="sans-serif" font-size="14" lengthAdjust="spacing" textLength="89" x="1359.5" y="69.2363">Robot Service</text><rect fill="#E2E2F0" height="31.6094" rx="2.5" ry="2.5" style="stroke:#181818;stroke-width:0.5;" width="126" x="68" y="644.6406"/><text fill="#000000" font-family="sans-serif" font-size="14" lengthAdjust="spacing" textLength="112" x="75" y="666.1738">Request Handling</text><rect fill="#E2E2F0" height="31.6094" rx="2.5" ry="2.5" style="stroke:#181818;stroke-width:0.5;" width="130" x="204" y="644.6406"/><text fill="#000000" font-family="sans-serif" font-size="14" lengthAdjust="spacing" textLength="116" x="211" y="666.1738">Robot Persistence</text><rect fill="#E2E2F0" height="31.6094" rx="2.5" ry="2.5" style="stroke:#181818;stroke-width:0.5;" width="162" x="344" y="644.6406"/><text fill="#000000" font-family="sans-serif" font-size="14" lengthAdjust="spacing" textLength="148" x="351" y="666.1738">RobotType Persistence</text><rect fill="#E2E2F0" height="31.6094" rx="2.5" ry="2.5" style="stroke:#181818;stroke-width:0.5;" width="86" x="526" y="644.6406"/><text fill="#000000" font-family="sans-serif" font-size="14" lengthAdjust="spacing" textLength="72" x="533" y="666.1738">Data Model</text><rect fill="#E2E2F0" height="31.6094" rx="2.5" ry="2.5" style="stroke:#181818;stroke-width:0.5;" width="114" x="622" y="644.6406"/><text fill="#000000" font-family="sans-serif" font-size="14" lengthAdjust="spacing" textLength="100" x="629" y="666.1738">RobotController</text><rect fill="#E2E2F0" height="31.6094" rx="2.5" ry="2.5" style="stroke:#181818;stroke-width:0.5;" width="124" x="746" y="644.6406"/><text fill="#000000" font-family="sans-serif" font-size="14" lengthAdjust="spacing" textLength="110" x="753" y="666.1738">Robot Repository</text><rect fill="#E2E2F0" height="31.6094" rx="2.5" ry="2.5" style="stroke:#181818;stroke-width:0.5;" width="156" x="880" y="644.6406"/><text fill="#000000" font-family="sans-serif" font-size="14" lengthAdjust="spacing" textLength="142" x="887" y="666.1738">RobotType Repository</text><rect fill="#E2E2F0" height="31.6094" rx="2.5" ry="2.5" style="stroke:#181818;stroke-width:0.5;" width="86" x="1056" y="644.6406"/><text fill="#000000" font-family="sans-serif" font-size="14" lengthAdjust="spacing" textLength="72" x="1063" y="666.1738">Robot DTO</text><rect fill="#E2E2F0" height="31.6094" rx="2.5" ry="2.5" style="stroke:#181818;stroke-width:0.5;" width="104" x="1197" y="644.6406"/><text fill="#000000" font-family="sans-serif" font-size="14" lengthAdjust="spacing" textLength="90" x="1204" y="666.1738">Robot Mapper</text><rect fill="#E2E2F0" height="31.6094" rx="2.5" ry="2.5" style="stroke:#181818;stroke-width:0.5;" width="103" x="1352.5" y="644.6406"/><text fill="#000000" font-family="sans-serif" font-size="14" lengthAdjust="spacing" textLength="89" x="1359.5" y="666.1738">Robot Service</text><ellipse cx="10.5" cy="109.9141" fill="none" rx="4" ry="4" style="stroke:#181818;stroke-width:1.5;"/><polygon fill="#181818" points="114,106.6641,124,110.6641,114,114.6641,118,110.6641" style="stroke:#181818;stroke-width:1.0;"/><line style="stroke:#181818;stroke-width:1.0;" x1="15" x2="120" y1="110.6641" y2="110.6641"/><text fill="#000000" font-family="sans-serif" font-size="13" lengthAdjust="spacing" textLength="102" x="18" y="105.8076">GET /robot?query</text><polygon fill="#181818" points="662,137.0156,672,141.0156,662,145.0156,666,141.0156" style="stroke:#181818;stroke-width:1.0;"/><line style="stroke:#181818;stroke-width:1.0;" x1="136" x2="668" y1="141.0156" y2="141.0156"/><text fill="#000000" font-family="sans-serif" font-size="13" lengthAdjust="spacing" textLength="162" x="143" y="136.1592">getByType(robotTypeQuery)</text><polygon fill="#181818" points="1387,167.3672,1397,171.3672,1387,175.3672,1391,171.3672" style="stroke:#181818;stroke-width:1.0;"/><line style="stroke:#181818;stroke-width:1.0;" x1="684" x2="1393" y1="171.3672" y2="171.3672"/><text fill="#000000" font-family="sans-serif" font-size="13" lengthAdjust="spacing" textLength="198" x="691" y="166.5107">findRobotByType(robotTypeQuery)</text><polygon fill="#181818" points="974,197.7188,964,201.7188,974,205.7188,970,201.7188" style="stroke:#181818;stroke-width:1.0;"/><line style="stroke:#181818;stroke-width:1.0;" x1="968" x2="1398" y1="201.7188" y2="201.7188"/><text fill="#000000" font-family="sans-serif" font-size="13" lengthAdjust="spacing" textLength="143" x="980" y="196.8623">findByMultiple(attributes)</text><polygon fill="#181818" points="441,228.0703,431,232.0703,441,236.0703,437,232.0703" style="stroke:#181818;stroke-width:1.0;"/><line style="stroke:#181818;stroke-width:1.0;" x1="435" x2="952" y1="232.0703" y2="232.0703"/><text fill="#000000" font-family="sans-serif" font-size="13" lengthAdjust="spacing" textLength="101" x="447" y="227.2139">query robot types</text><polygon fill="#181818" points="941,258.4219,951,262.4219,941,266.4219,945,262.4219" style="stroke:#181818;stroke-width:1.0;"/><line style="stroke:#181818;stroke-width:1.0;stroke-dasharray:2.0,2.0;" x1="430" x2="947" y1="262.4219" y2="262.4219"/><text fill="#000000" font-family="sans-serif" font-size="13" lengthAdjust="spacing" textLength="72" x="437" y="257.5654">robotTypes[]</text><polygon fill="#181818" points="1387,288.7734,1397,292.7734,1387,296.7734,1391,292.7734" style="stroke:#181818;stroke-width:1.0;"/><line style="stroke:#181818;stroke-width:1.0;stroke-dasharray:2.0,2.0;" x1="963" x2="1393" y1="292.7734" y2="292.7734"/><text fill="#000000" font-family="sans-serif" font-size="13" lengthAdjust="spacing" textLength="72" x="970" y="287.917">robotTypes[]</text><polygon fill="#181818" points="824,319.125,814,323.125,824,327.125,820,323.125" style="stroke:#181818;stroke-width:1.0;"/><line style="stroke:#181818;stroke-width:1.0;" x1="818" x2="1398" y1="323.125" y2="323.125"/><text fill="#000000" font-family="sans-serif" font-size="13" lengthAdjust="spacing" textLength="97" x="830" y="318.2686">findByType(type)</text><polygon fill="#181818" points="285,349.4766,275,353.4766,285,357.4766,281,353.4766" style="stroke:#181818;stroke-width:1.0;"/><line style="stroke:#181818;stroke-width:1.0;" x1="279" x2="802" y1="353.4766" y2="353.4766"/><text fill="#000000" font-family="sans-serif" font-size="13" lengthAdjust="spacing" textLength="119" x="291" y="348.6201">query robots by type</text><polygon fill="#181818" points="791,379.8281,801,383.8281,791,387.8281,795,383.8281" style="stroke:#181818;stroke-width:1.0;"/><line style="stroke:#181818;stroke-width:1.0;stroke-dasharray:2.0,2.0;" x1="274" x2="797" y1="383.8281" y2="383.8281"/><text fill="#000000" font-family="sans-serif" font-size="13" lengthAdjust="spacing" textLength="44" x="281" y="378.9717">robots[]</text><polygon fill="#181818" points="1387,410.1797,1397,414.1797,1387,418.1797,1391,414.1797" style="stroke:#181818;stroke-width:1.0;"/><line style="stroke:#181818;stroke-width:1.0;stroke-dasharray:2.0,2.0;" x1="813" x2="1393" y1="414.1797" y2="414.1797"/><text fill="#000000" font-family="sans-serif" font-size="13" lengthAdjust="spacing" textLength="44" x="820" y="409.3232">robots[]</text><polygon fill="#181818" points="1265,440.5313,1255,444.5313,1265,448.5313,1261,444.5313" style="stroke:#181818;stroke-width:1.0;"/><line style="stroke:#181818;stroke-width:1.0;" x1="1259" x2="1398" y1="444.5313" y2="444.5313"/><text fill="#000000" font-family="sans-serif" font-size="13" lengthAdjust="spacing" textLength="89" x="1271" y="439.6748">toDTO(robots[])</text><polygon fill="#181818" points="1115,470.8828,1105,474.8828,1115,478.8828,1111,474.8828" style="stroke:#181818;stroke-width:1.0;"/><line style="stroke:#181818;stroke-width:1.0;" x1="1109" x2="1243" y1="474.8828" y2="474.8828"/><text fill="#000000" font-family="sans-serif" font-size="13" lengthAdjust="spacing" textLength="116" x="1121" y="470.0264">map domain to DTO</text><polygon fill="#181818" points="1232,501.2344,1242,505.2344,1232,509.2344,1236,505.2344" style="stroke:#181818;stroke-width:1.0;"/><line style="stroke:#181818;stroke-width:1.0;stroke-dasharray:2.0,2.0;" x1="1104" x2="1238" y1="505.2344" y2="505.2344"/><text fill="#000000" font-family="sans-serif" font-size="13" lengthAdjust="spacing" textLength="70" x="1111" y="500.3779">robotDTOs[]</text><polygon fill="#181818" points="1387,531.5859,1397,535.5859,1387,539.5859,1391,535.5859" style="stroke:#181818;stroke-width:1.0;"/><line style="stroke:#181818;stroke-width:1.0;stroke-dasharray:2.0,2.0;" x1="1254" x2="1393" y1="535.5859" y2="535.5859"/><text fill="#000000" font-family="sans-serif" font-size="13" lengthAdjust="spacing" textLength="70" x="1261" y="530.7295">robotDTOs[]</text><polygon fill="#181818" points="695,561.9375,685,565.9375,695,569.9375,691,565.9375" style="stroke:#181818;stroke-width:1.0;"/><line style="stroke:#181818;stroke-width:1.0;stroke-dasharray:2.0,2.0;" x1="689" x2="1398" y1="565.9375" y2="565.9375"/><text fill="#000000" font-family="sans-serif" font-size="13" lengthAdjust="spacing" textLength="70" x="701" y="561.0811">robotDTOs[]</text><polygon fill="#181818" points="147,592.2891,137,596.2891,147,600.2891,143,596.2891" style="stroke:#181818;stroke-width:1.0;"/><line style="stroke:#181818;stroke-width:1.0;stroke-dasharray:2.0,2.0;" x1="141" x2="673" y1="596.2891" y2="596.2891"/><text fill="#000000" font-family="sans-serif" font-size="13" lengthAdjust="spacing" textLength="70" x="153" y="591.4326">robotDTOs[]</text><ellipse cx="10.5" cy="625.8906" fill="none" rx="4" ry="4" style="stroke:#181818;stroke-width:1.5;"/><polygon fill="#181818" points="27.5,622.6406,17.5,626.6406,27.5,630.6406,23.5,626.6406" style="stroke:#181818;stroke-width:1.0;"/><ellipse cx="125.5" cy="625.8906" fill="none" rx="4" ry="4" style="stroke:#181818;stroke-width:1.5;"/><line style="stroke:#181818;stroke-width:1.0;stroke-dasharray:2.0,2.0;" x1="25.5" x2="121" y1="626.6406" y2="626.6406"/><text fill="#000000" font-family="sans-serif" font-size="13" lengthAdjust="spacing" textLength="70" x="28" y="621.7842">robotDTOs[]</text><!--MD5=[089706615e7518c420215cceda087600]
@startuml SD Lv3

!pragma teoz true

box "Robot Management" #LightBlue

    box "Framework And Drivers Layer" #00ffff
        participant "Request Handling" as Routing
        participant "Robot Persistence" as RobotPersistence
        participant "RobotType Persistence" as RobotTypePersistence
    end box

    participant "Data Model" as Data
    box "Interface Adapters Layer" #77ffaa
        participant RobotController as Controller
        participant "Robot Repository" as RobotRepo
        participant "RobotType Repository" as RobotTypeRepo
    end box

    participant "Robot DTO" as RobotDTO
    participant "Robot Mapper" as RobotMapper
    box "Application Business Rules" #ff6666
        participant "Robot Service" as RobotService
    end box

end box

[o-> Routing : GET /robot?query
activate Routing

    Routing -> Controller : getByType(robotTypeQuery)
    activate Controller

        Controller -> RobotService : findRobotByType(robotTypeQuery)
        activate RobotService
        
            RobotService -> RobotTypeRepo : findByMultiple(attributes)
            activate RobotTypeRepo

                RobotTypeRepo -> RobotTypePersistence : query robot types
                activate RobotTypePersistence

                RobotTypePersistence - -> RobotTypeRepo : robotTypes[]
                deactivate RobotTypePersistence

            RobotTypeRepo - -> RobotService : robotTypes[]
            deactivate RobotTypeRepo

            RobotService -> RobotRepo : findByType(type)
            activate RobotRepo

                RobotRepo -> RobotPersistence : query robots by type
                activate RobotPersistence

                RobotPersistence - -> RobotRepo : robots[]
                deactivate RobotPersistence

            RobotRepo - -> RobotService : robots[]
            deactivate RobotRepo

            RobotService -> RobotMapper : toDTO(robots[])
            activate RobotMapper
            
                RobotMapper -> RobotDTO : map domain to DTO
                activate RobotDTO

                RobotDTO - -> RobotMapper : robotDTOs[]
                deactivate RobotDTO

            RobotMapper - -> RobotService : robotDTOs[]
            deactivate RobotMapper

        RobotService - -> Controller : robotDTOs[]
        deactivate RobotService

    Controller - -> Routing : robotDTOs[]
    deactivate Controller

[o<- -o Routing : robotDTOs[]
deactivate Routing

@enduml

PlantUML version 1.2022.7(Mon Aug 22 18:01:30 BST 2022)
(GPL source distribution)
Java Runtime: Java(TM) SE Runtime Environment
JVM: Java HotSpot(TM) Client VM
Default Encoding: Cp1252
Language: en
Country: US
--></g></svg>