<?xml version="1.0" encoding="UTF-8" standalone="no"?><svg xmlns="http://www.w3.org/2000/svg" xmlns:xlink="http://www.w3.org/1999/xlink" contentStyleType="text/css" height="409px" preserveAspectRatio="none" style="width:439px;height:409px;background:#FFFFFF;" version="1.1" viewBox="0 0 439 409" width="439px" zoomAndPan="magnify"><defs/><g><rect fill="#FFFFFF" height="194.1094" style="stroke:#181818;stroke-width:1.0;" width="10" x="315" y="114.9609"/><line style="stroke:#181818;stroke-width:0.5;stroke-dasharray:5.0,5.0;" x1="64" x2="64" y1="82.6094" y2="327.0703"/><line style="stroke:#181818;stroke-width:0.5;stroke-dasharray:5.0,5.0;" x1="320" x2="320" y1="82.6094" y2="327.0703"/><text fill="#000000" font-family="sans-serif" font-size="14" lengthAdjust="spacing" textLength="112" x="5" y="79.5332">Campus Manager</text><ellipse cx="64" cy="13.5" fill="#E2E2F0" rx="8" ry="8" style="stroke:#181818;stroke-width:0.5;"/><path d="M64,21.5 L64,48.5 M51,29.5 L77,29.5 M64,48.5 L51,63.5 M64,48.5 L77,63.5 " fill="none" style="stroke:#181818;stroke-width:0.5;"/><text fill="#000000" font-family="sans-serif" font-size="14" lengthAdjust="spacing" textLength="112" x="5" y="340.6035">Campus Manager</text><ellipse cx="64" cy="352.1797" fill="#E2E2F0" rx="8" ry="8" style="stroke:#181818;stroke-width:0.5;"/><path d="M64,360.1797 L64,387.1797 M51,368.1797 L77,368.1797 M64,387.1797 L51,402.1797 M64,387.1797 L77,402.1797 " fill="none" style="stroke:#181818;stroke-width:0.5;"/><rect fill="#E2E2F0" height="31.6094" rx="2.5" ry="2.5" style="stroke:#181818;stroke-width:0.5;" width="98" x="271" y="50"/><text fill="#000000" font-family="sans-serif" font-size="14" lengthAdjust="spacing" textLength="84" x="278" y="71.5332">RobDroneGo</text><rect fill="#E2E2F0" height="31.6094" rx="2.5" ry="2.5" style="stroke:#181818;stroke-width:0.5;" width="98" x="271" y="326.0703"/><text fill="#000000" font-family="sans-serif" font-size="14" lengthAdjust="spacing" textLength="84" x="278" y="347.6035">RobDroneGo</text><rect fill="#FFFFFF" height="194.1094" style="stroke:#181818;stroke-width:1.0;" width="10" x="315" y="114.9609"/><polygon fill="#181818" points="303,110.9609,313,114.9609,303,118.9609,307,114.9609" style="stroke:#181818;stroke-width:1.0;"/><line style="stroke:#181818;stroke-width:1.0;" x1="64" x2="309" y1="114.9609" y2="114.9609"/><text fill="#000000" font-family="sans-serif" font-size="13" lengthAdjust="spacing" textLength="168" x="71" y="110.1045">GET /campus/building/create</text><line style="stroke:#181818;stroke-width:1.0;" x1="325" x2="367" y1="161.6641" y2="161.6641"/><line style="stroke:#181818;stroke-width:1.0;" x1="367" x2="367" y1="161.6641" y2="174.6641"/><line style="stroke:#181818;stroke-width:1.0;" x1="326" x2="367" y1="174.6641" y2="174.6641"/><polygon fill="#181818" points="336,170.6641,326,174.6641,336,178.6641,332,174.6641" style="stroke:#181818;stroke-width:1.0;"/><text fill="#000000" font-family="sans-serif" font-size="13" lengthAdjust="spacing" textLength="100" x="332" y="140.4561">Check user's role</text><text fill="#000000" font-family="sans-serif" font-size="13" lengthAdjust="spacing" textLength="95" x="332" y="156.8076">and permissions</text><polygon fill="#181818" points="75,201.0156,65,205.0156,75,209.0156,71,205.0156" style="stroke:#181818;stroke-width:1.0;"/><line style="stroke:#181818;stroke-width:1.0;stroke-dasharray:2.0,2.0;" x1="69" x2="314" y1="205.0156" y2="205.0156"/><text fill="#000000" font-family="sans-serif" font-size="13" lengthAdjust="spacing" textLength="166" x="81" y="200.1592">Show building creation menu</text><polygon fill="#181818" points="303,231.3672,313,235.3672,303,239.3672,307,235.3672" style="stroke:#181818;stroke-width:1.0;"/><line style="stroke:#181818;stroke-width:1.0;" x1="64" x2="309" y1="235.3672" y2="235.3672"/><text fill="#000000" font-family="sans-serif" font-size="13" lengthAdjust="spacing" textLength="168" x="71" y="230.5107">Submit building creation form</text><line style="stroke:#181818;stroke-width:1.0;" x1="325" x2="367" y1="265.7188" y2="265.7188"/><line style="stroke:#181818;stroke-width:1.0;" x1="367" x2="367" y1="265.7188" y2="278.7188"/><line style="stroke:#181818;stroke-width:1.0;" x1="326" x2="367" y1="278.7188" y2="278.7188"/><polygon fill="#181818" points="336,274.7188,326,278.7188,336,282.7188,332,278.7188" style="stroke:#181818;stroke-width:1.0;"/><text fill="#000000" font-family="sans-serif" font-size="13" lengthAdjust="spacing" textLength="86" x="332" y="260.8623">Create building</text><polygon fill="#181818" points="75,305.0703,65,309.0703,75,313.0703,71,309.0703" style="stroke:#181818;stroke-width:1.0;"/><line style="stroke:#181818;stroke-width:1.0;stroke-dasharray:2.0,2.0;" x1="69" x2="319" y1="309.0703" y2="309.0703"/><text fill="#000000" font-family="sans-serif" font-size="13" lengthAdjust="spacing" textLength="227" x="81" y="304.2139">Show building creation status message</text><!--MD5=[65d92d319ec80c0540118c7ca35b049a]
@startuml SD Lv1

actor "Campus Manager" as user
participant RobDroneGo as system

user -> system : GET /campus/building/create
activate system

system -> system : Check user's role\nand permissions

user <- - system : Show building creation menu

user -> system : Submit building creation form

system -> system : Create building

user <- - system : Show building creation status message

deactivate system

@enduml

PlantUML version 1.2022.7(Mon Aug 22 18:01:30 BST 2022)
(GPL source distribution)
Java Runtime: Java(TM) SE Runtime Environment
JVM: Java HotSpot(TM) Client VM
Default Encoding: Cp1252
Language: en
Country: US
--></g></svg>