<?xml version="1.0" encoding="UTF-8" standalone="no"?><svg xmlns="http://www.w3.org/2000/svg" xmlns:xlink="http://www.w3.org/1999/xlink" contentStyleType="text/css" height="753px" preserveAspectRatio="none" style="width:1883px;height:753px;background:#FFFFFF;" version="1.1" viewBox="0 0 1883 753" width="1883px" zoomAndPan="magnify"><defs/><g><rect fill="#ADD8E6" height="741.8984" style="stroke:#181818;stroke-width:0.5;" width="956" x="213" y="6"/><text fill="#000000" font-family="sans-serif" font-size="13" font-weight="bold" lengthAdjust="spacing" textLength="98" x="642" y="19.4951">RobDroneGo UI</text><rect fill="#DDDDDD" height="720.5469" style="stroke:#181818;stroke-width:0.5;" width="400" x="213" y="27.3516"/><text fill="#000000" font-family="sans-serif" font-size="13" font-weight="bold" lengthAdjust="spacing" textLength="32" x="397" y="40.8467">View</text><rect fill="#DDDDDD" height="741.8984" style="stroke:#181818;stroke-width:0.5;" width="378" x="1252.5" y="6"/><text fill="#000000" font-family="sans-serif" font-size="13" font-weight="bold" lengthAdjust="spacing" textLength="140" x="1371.5" y="19.4951">RobDroneGo Backend</text><line style="stroke:#181818;stroke-width:0.5;stroke-dasharray:5.0,5.0;" x1="64" x2="64" y1="125.3125" y2="664.2891"/><line style="stroke:#181818;stroke-width:0.5;stroke-dasharray:5.0,5.0;" x1="280" x2="280" y1="125.3125" y2="664.2891"/><rect fill="#FFFFFF" height="490.625" style="stroke:#181818;stroke-width:1.0;" width="10" x="275" y="155.6641"/><line style="stroke:#181818;stroke-width:0.5;stroke-dasharray:5.0,5.0;" x1="547" x2="547" y1="125.3125" y2="664.2891"/><rect fill="#FFFFFF" height="429.9219" style="stroke:#181818;stroke-width:1.0;" width="10" x="542" y="186.0156"/><line style="stroke:#181818;stroke-width:0.5;stroke-dasharray:5.0,5.0;" x1="771" x2="771" y1="125.3125" y2="664.2891"/><rect fill="#FFFFFF" height="369.2188" style="stroke:#181818;stroke-width:1.0;" width="10" x="766" y="216.3672"/><line style="stroke:#181818;stroke-width:0.5;stroke-dasharray:5.0,5.0;" x1="1023" x2="1023" y1="125.3125" y2="664.2891"/><rect fill="#FFFFFF" height="30.3516" style="stroke:#181818;stroke-width:1.0;" width="10" x="1018" y="246.7188"/><line style="stroke:#181818;stroke-width:0.5;stroke-dasharray:5.0,5.0;" x1="1120" x2="1120" y1="125.3125" y2="664.2891"/><rect fill="#FFFFFF" height="247.8125" style="stroke:#181818;stroke-width:1.0;" width="10" x="1115" y="307.4219"/><line style="stroke:#181818;stroke-width:0.5;stroke-dasharray:5.0,5.0;" x1="1321" x2="1321" y1="125.3125" y2="664.2891"/><rect fill="#FFFFFF" height="73.7031" style="stroke:#181818;stroke-width:1.0;" width="10" x="1316" y="337.7734"/><line style="stroke:#181818;stroke-width:0.5;stroke-dasharray:5.0,5.0;" x1="1539" x2="1539" y1="125.3125" y2="664.2891"/><rect fill="#FFFFFF" height="83.0547" style="stroke:#181818;stroke-width:1.0;" width="10" x="1534" y="441.8281"/><text fill="#000000" font-family="sans-serif" font-size="14" lengthAdjust="spacing" textLength="112" x="5" y="122.2363">Campus Manager</text><ellipse cx="64" cy="56.2031" fill="#E2E2F0" rx="8" ry="8" style="stroke:#181818;stroke-width:0.5;"/><path d="M64,64.2031 L64,91.2031 M51,72.2031 L77,72.2031 M64,91.2031 L51,106.2031 M64,91.2031 L77,106.2031 " fill="none" style="stroke:#181818;stroke-width:0.5;"/><rect fill="#E2E2F0" height="31.6094" rx="2.5" ry="2.5" style="stroke:#181818;stroke-width:0.5;" width="126" x="217" y="92.7031"/><text fill="#000000" font-family="sans-serif" font-size="14" lengthAdjust="spacing" textLength="112" x="224" y="114.2363">HTML + CSS + JS</text><rect fill="#E2E2F0" height="31.6094" rx="2.5" ry="2.5" style="stroke:#181818;stroke-width:0.5;" width="124" x="485" y="92.7031"/><text fill="#000000" font-family="sans-serif" font-size="14" lengthAdjust="spacing" textLength="110" x="492" y="114.2363">Form Component</text><rect fill="#E2E2F0" height="31.6094" rx="2.5" ry="2.5" style="stroke:#181818;stroke-width:0.5;" width="77" x="732.5" y="92.7031"/><text fill="#000000" font-family="sans-serif" font-size="14" lengthAdjust="spacing" textLength="63" x="739.5" y="114.2363">UI Service</text><rect fill="#E2E2F0" height="31.6094" rx="2.5" ry="2.5" style="stroke:#181818;stroke-width:0.5;" width="84" x="981" y="92.7031"/><text fill="#000000" font-family="sans-serif" font-size="14" lengthAdjust="spacing" textLength="70" x="988" y="114.2363">API Routes</text><rect fill="#E2E2F0" height="31.6094" rx="2.5" ry="2.5" style="stroke:#181818;stroke-width:0.5;" width="90" x="1075" y="92.7031"/><text fill="#000000" font-family="sans-serif" font-size="14" lengthAdjust="spacing" textLength="76" x="1082" y="114.2363">HTTP Client</text><rect fill="#E2E2F0" height="31.6094" rx="2.5" ry="2.5" style="stroke:#181818;stroke-width:0.5;" width="129" x="1256.5" y="92.7031"/><text fill="#000000" font-family="sans-serif" font-size="14" lengthAdjust="spacing" textLength="115" x="1263.5" y="114.2363">Authentication API</text><rect fill="#E2E2F0" height="31.6094" rx="2.5" ry="2.5" style="stroke:#181818;stroke-width:0.5;" width="175" x="1451.5" y="92.7031"/><text fill="#000000" font-family="sans-serif" font-size="14" lengthAdjust="spacing" textLength="161" x="1458.5" y="114.2363">Building Management API</text><text fill="#000000" font-family="sans-serif" font-size="14" lengthAdjust="spacing" textLength="112" x="5" y="738.8223">Campus Manager</text><ellipse cx="64" cy="672.7891" fill="#E2E2F0" rx="8" ry="8" style="stroke:#181818;stroke-width:0.5;"/><path d="M64,680.7891 L64,707.7891 M51,688.7891 L77,688.7891 M64,707.7891 L51,722.7891 M64,707.7891 L77,722.7891 " fill="none" style="stroke:#181818;stroke-width:0.5;"/><rect fill="#E2E2F0" height="31.6094" rx="2.5" ry="2.5" style="stroke:#181818;stroke-width:0.5;" width="126" x="217" y="664.2891"/><text fill="#000000" font-family="sans-serif" font-size="14" lengthAdjust="spacing" textLength="112" x="224" y="685.8223">HTML + CSS + JS</text><rect fill="#E2E2F0" height="31.6094" rx="2.5" ry="2.5" style="stroke:#181818;stroke-width:0.5;" width="124" x="485" y="664.2891"/><text fill="#000000" font-family="sans-serif" font-size="14" lengthAdjust="spacing" textLength="110" x="492" y="685.8223">Form Component</text><rect fill="#E2E2F0" height="31.6094" rx="2.5" ry="2.5" style="stroke:#181818;stroke-width:0.5;" width="77" x="732.5" y="664.2891"/><text fill="#000000" font-family="sans-serif" font-size="14" lengthAdjust="spacing" textLength="63" x="739.5" y="685.8223">UI Service</text><rect fill="#E2E2F0" height="31.6094" rx="2.5" ry="2.5" style="stroke:#181818;stroke-width:0.5;" width="84" x="981" y="664.2891"/><text fill="#000000" font-family="sans-serif" font-size="14" lengthAdjust="spacing" textLength="70" x="988" y="685.8223">API Routes</text><rect fill="#E2E2F0" height="31.6094" rx="2.5" ry="2.5" style="stroke:#181818;stroke-width:0.5;" width="90" x="1075" y="664.2891"/><text fill="#000000" font-family="sans-serif" font-size="14" lengthAdjust="spacing" textLength="76" x="1082" y="685.8223">HTTP Client</text><rect fill="#E2E2F0" height="31.6094" rx="2.5" ry="2.5" style="stroke:#181818;stroke-width:0.5;" width="129" x="1256.5" y="664.2891"/><text fill="#000000" font-family="sans-serif" font-size="14" lengthAdjust="spacing" textLength="115" x="1263.5" y="685.8223">Authentication API</text><rect fill="#E2E2F0" height="31.6094" rx="2.5" ry="2.5" style="stroke:#181818;stroke-width:0.5;" width="175" x="1451.5" y="664.2891"/><text fill="#000000" font-family="sans-serif" font-size="14" lengthAdjust="spacing" textLength="161" x="1458.5" y="685.8223">Building Management API</text><polygon fill="#181818" points="263,151.6641,273,155.6641,263,159.6641,267,155.6641" style="stroke:#181818;stroke-width:1.0;"/><line style="stroke:#181818;stroke-width:1.0;" x1="64" x2="269" y1="155.6641" y2="155.6641"/><text fill="#000000" font-family="sans-serif" font-size="13" lengthAdjust="spacing" textLength="174" x="71" y="150.8076">Request Create Building Page</text><polygon fill="#181818" points="530,182.0156,540,186.0156,530,190.0156,534,186.0156" style="stroke:#181818;stroke-width:1.0;"/><line style="stroke:#181818;stroke-width:1.0;" x1="285" x2="536" y1="186.0156" y2="186.0156"/><text fill="#000000" font-family="sans-serif" font-size="13" lengthAdjust="spacing" textLength="164" x="292" y="181.1592">Load Building Creation Form</text><polygon fill="#181818" points="754,212.3672,764,216.3672,754,220.3672,758,216.3672" style="stroke:#181818;stroke-width:1.0;"/><line style="stroke:#181818;stroke-width:1.0;" x1="552" x2="760" y1="216.3672" y2="216.3672"/><text fill="#000000" font-family="sans-serif" font-size="13" lengthAdjust="spacing" textLength="195" x="559" y="211.5107">Submit Building Creation Request</text><polygon fill="#181818" points="1006,242.7188,1016,246.7188,1006,250.7188,1010,246.7188" style="stroke:#181818;stroke-width:1.0;"/><line style="stroke:#181818;stroke-width:1.0;" x1="776" x2="1012" y1="246.7188" y2="246.7188"/><text fill="#000000" font-family="sans-serif" font-size="13" lengthAdjust="spacing" textLength="223" x="783" y="241.8623">Fetch Auth and Building Creation APIs</text><polygon fill="#181818" points="787,273.0703,777,277.0703,787,281.0703,783,277.0703" style="stroke:#181818;stroke-width:1.0;"/><line style="stroke:#181818;stroke-width:1.0;stroke-dasharray:2.0,2.0;" x1="781" x2="1017" y1="277.0703" y2="277.0703"/><text fill="#000000" font-family="sans-serif" font-size="13" lengthAdjust="spacing" textLength="83" x="793" y="272.2139">API Endpoints</text><polygon fill="#181818" points="1103,303.4219,1113,307.4219,1103,311.4219,1107,307.4219" style="stroke:#181818;stroke-width:1.0;"/><line style="stroke:#181818;stroke-width:1.0;" x1="776" x2="1109" y1="307.4219" y2="307.4219"/><text fill="#000000" font-family="sans-serif" font-size="13" lengthAdjust="spacing" textLength="274" x="783" y="302.5654">POST /api/building/create (Auth &amp; Building Info)</text><polygon fill="#181818" points="1304,333.7734,1314,337.7734,1304,341.7734,1308,337.7734" style="stroke:#181818;stroke-width:1.0;"/><line style="stroke:#181818;stroke-width:1.0;" x1="1125" x2="1310" y1="337.7734" y2="337.7734"/><text fill="#000000" font-family="sans-serif" font-size="13" lengthAdjust="spacing" textLength="154" x="1132" y="332.917">Validate User Permissions</text><line style="stroke:#181818;stroke-width:1.0;" x1="1326" x2="1368" y1="368.125" y2="368.125"/><line style="stroke:#181818;stroke-width:1.0;" x1="1368" x2="1368" y1="368.125" y2="381.125"/><line style="stroke:#181818;stroke-width:1.0;" x1="1327" x2="1368" y1="381.125" y2="381.125"/><polygon fill="#181818" points="1337,377.125,1327,381.125,1337,385.125,1333,381.125" style="stroke:#181818;stroke-width:1.0;"/><text fill="#000000" font-family="sans-serif" font-size="13" lengthAdjust="spacing" textLength="199" x="1333" y="363.2686">Check User Role and Permissions</text><polygon fill="#181818" points="1136,407.4766,1126,411.4766,1136,415.4766,1132,411.4766" style="stroke:#181818;stroke-width:1.0;"/><line style="stroke:#181818;stroke-width:1.0;stroke-dasharray:2.0,2.0;" x1="1130" x2="1315" y1="411.4766" y2="411.4766"/><text fill="#000000" font-family="sans-serif" font-size="13" lengthAdjust="spacing" textLength="167" x="1142" y="406.6201">Permission Validation Result</text><polygon fill="#181818" points="1522,437.8281,1532,441.8281,1522,445.8281,1526,441.8281" style="stroke:#181818;stroke-width:1.0;"/><line style="stroke:#181818;stroke-width:1.0;" x1="1125" x2="1528" y1="441.8281" y2="441.8281"/><text fill="#000000" font-family="sans-serif" font-size="13" lengthAdjust="spacing" textLength="140" x="1132" y="436.9717">Create Building Request</text><line style="stroke:#181818;stroke-width:1.0;" x1="1544" x2="1586" y1="472.1797" y2="472.1797"/><line style="stroke:#181818;stroke-width:1.0;" x1="1586" x2="1586" y1="472.1797" y2="485.1797"/><line style="stroke:#181818;stroke-width:1.0;" x1="1545" x2="1586" y1="485.1797" y2="485.1797"/><polygon fill="#181818" points="1555,481.1797,1545,485.1797,1555,489.1797,1551,485.1797" style="stroke:#181818;stroke-width:1.0;"/><text fill="#000000" font-family="sans-serif" font-size="13" lengthAdjust="spacing" textLength="144" x="1551" y="467.3232">Create and store building</text><path d="M1707,454.8281 L1707,496.8281 L1876,496.8281 L1876,464.8281 L1866,454.8281 L1707,454.8281 " fill="#FEFFDD" style="stroke:#181818;stroke-width:0.5;"/><path d="M1866,454.8281 L1866,464.8281 L1876,464.8281 L1866,454.8281 " fill="#FEFFDD" style="stroke:#181818;stroke-width:0.5;"/><text fill="#000000" font-family="sans-serif" font-size="13" lengthAdjust="spacing" textLength="148" x="1713" y="473.3232">Building Creation process</text><text fill="#000000" font-family="sans-serif" font-size="13" lengthAdjust="spacing" textLength="132" x="1713" y="489.6748">is detailed in US ID150</text><polygon fill="#181818" points="1136,520.8828,1126,524.8828,1136,528.8828,1132,524.8828" style="stroke:#181818;stroke-width:1.0;"/><line style="stroke:#181818;stroke-width:1.0;stroke-dasharray:2.0,2.0;" x1="1130" x2="1533" y1="524.8828" y2="524.8828"/><text fill="#000000" font-family="sans-serif" font-size="13" lengthAdjust="spacing" textLength="160" x="1142" y="520.0264">Building Creation Response</text><polygon fill="#181818" points="787,551.2344,777,555.2344,787,559.2344,783,555.2344" style="stroke:#181818;stroke-width:1.0;"/><line style="stroke:#181818;stroke-width:1.0;stroke-dasharray:2.0,2.0;" x1="781" x2="1114" y1="555.2344" y2="555.2344"/><text fill="#000000" font-family="sans-serif" font-size="13" lengthAdjust="spacing" textLength="140" x="793" y="550.3779">Building Creation Status</text><polygon fill="#181818" points="563,581.5859,553,585.5859,563,589.5859,559,585.5859" style="stroke:#181818;stroke-width:1.0;"/><line style="stroke:#181818;stroke-width:1.0;stroke-dasharray:2.0,2.0;" x1="557" x2="765" y1="585.5859" y2="585.5859"/><text fill="#000000" font-family="sans-serif" font-size="13" lengthAdjust="spacing" textLength="131" x="569" y="580.7295">Display Status to User</text><polygon fill="#181818" points="296,611.9375,286,615.9375,296,619.9375,292,615.9375" style="stroke:#181818;stroke-width:1.0;"/><line style="stroke:#181818;stroke-width:1.0;stroke-dasharray:2.0,2.0;" x1="290" x2="541" y1="615.9375" y2="615.9375"/><text fill="#000000" font-family="sans-serif" font-size="13" lengthAdjust="spacing" textLength="233" x="302" y="611.0811">Show Building Creation Status Message</text><polygon fill="#181818" points="75,642.2891,65,646.2891,75,650.2891,71,646.2891" style="stroke:#181818;stroke-width:1.0;"/><line style="stroke:#181818;stroke-width:1.0;stroke-dasharray:2.0,2.0;" x1="69" x2="274" y1="646.2891" y2="646.2891"/><text fill="#000000" font-family="sans-serif" font-size="13" lengthAdjust="spacing" textLength="187" x="81" y="641.4326">Display Building Creation Status</text><!--MD5=[c2f7a5cb97daabaf59ad2d35d16e4449]
@startuml SD Lv3

!pragma teoz true

actor "Campus Manager" as user
box "RobDroneGo UI" #LightBlue

    box "View"
        participant "HTML + CSS + JS" as FrontEnd
        participant "Form Component" as Form
    end box
    participant "UI Service" as UIService
    participant "API Routes" as API_ROUTES
    participant "HTTP Client" as HttpClient

end box
box "RobDroneGo Backend"
    participant "Authentication API" as AuthAPI
    participant "Building Management API" as CampusAPI
end box


user -> FrontEnd : Request Create Building Page
activate FrontEnd

    FrontEnd -> Form : Load Building Creation Form
    activate Form

        Form -> UIService : Submit Building Creation Request
        activate UIService

            UIService -> API_ROUTES : Fetch Auth and Building Creation APIs
            activate API_ROUTES

            API_ROUTES - -> UIService : API Endpoints
            deactivate API_ROUTES

            UIService -> HttpClient : POST /api/building/create (Auth & Building Info)
            activate HttpClient

                HttpClient -> AuthAPI : Validate User Permissions
                activate AuthAPI

                    AuthAPI -> AuthAPI : Check User Role and Permissions

                AuthAPI - -> HttpClient : Permission Validation Result
                deactivate AuthAPI

                HttpClient -> CampusAPI : Create Building Request
                activate CampusAPI

                CampusAPI -> CampusAPI : Create and store building
                note right
                    Building Creation process
                    is detailed in US ID150
                end note

                CampusAPI - -> HttpClient : Building Creation Response
                deactivate CampusAPI

            HttpClient - -> UIService : Building Creation Status
            deactivate HttpClient

        UIService - -> Form : Display Status to User
        deactivate UIService

    Form - -> FrontEnd : Show Building Creation Status Message
    deactivate Form

FrontEnd - -> user : Display Building Creation Status
deactivate FrontEnd

@enduml

PlantUML version 1.2022.7(Mon Aug 22 18:01:30 BST 2022)
(GPL source distribution)
Java Runtime: Java(TM) SE Runtime Environment
JVM: Java HotSpot(TM) Client VM
Default Encoding: Cp1252
Language: en
Country: US
--></g></svg>