<?xml version="1.0" encoding="UTF-8" standalone="no"?><svg xmlns="http://www.w3.org/2000/svg" xmlns:xlink="http://www.w3.org/1999/xlink" contentStyleType="text/css" height="563px" preserveAspectRatio="none" style="width:539px;height:563px;background:#FFFFFF;" version="1.1" viewBox="0 0 539 563" width="539px" zoomAndPan="magnify"><defs/><g><rect fill="#ADD8E6" height="551.8125" style="stroke:#181818;stroke-width:0.5;" width="375.5" x="141" y="6"/><text fill="#000000" font-family="sans-serif" font-size="13" font-weight="bold" lengthAdjust="spacing" textLength="138" x="259.75" y="19.4951">Campus Management</text><rect fill="#FFFFFF" height="420.8906" style="stroke:#181818;stroke-width:1.0;" width="10" x="216" y="91.3125"/><rect fill="#FFFFFF" height="30.3516" style="stroke:#181818;stroke-width:1.0;" width="10" x="491" y="121.6641"/><rect fill="#FFFFFF" height="30.3516" style="stroke:#181818;stroke-width:1.0;" width="10" x="491" y="207.7188"/><rect fill="#FFFFFF" height="30.3516" style="stroke:#181818;stroke-width:1.0;" width="10" x="491" y="337.125"/><rect fill="none" height="338.1875" style="stroke:#000000;stroke-width:1.5;" width="521.5" x="11" y="167.0156"/><rect fill="none" height="198.9453" style="stroke:#000000;stroke-width:1.5;" width="511.5" x="11" y="253.0703"/><line style="stroke:#181818;stroke-width:0.5;stroke-dasharray:5.0,5.0;" x1="221" x2="221" y1="58.9609" y2="522.2031"/><line style="stroke:#181818;stroke-width:0.5;stroke-dasharray:5.0,5.0;" x1="495.5" x2="495.5" y1="58.9609" y2="522.2031"/><rect fill="#E2E2F0" height="31.6094" rx="2.5" ry="2.5" style="stroke:#181818;stroke-width:0.5;" width="152" x="145" y="26.3516"/><text fill="#000000" font-family="sans-serif" font-size="14" lengthAdjust="spacing" textLength="138" x="152" y="47.8848">Campus Management</text><rect fill="#E2E2F0" height="31.6094" rx="2.5" ry="2.5" style="stroke:#181818;stroke-width:0.5;" width="152" x="145" y="521.2031"/><text fill="#000000" font-family="sans-serif" font-size="14" lengthAdjust="spacing" textLength="138" x="152" y="542.7363">Campus Management</text><rect fill="#E2E2F0" height="31.6094" rx="2.5" ry="2.5" style="stroke:#181818;stroke-width:0.5;" width="33" x="479.5" y="26.3516"/><text fill="#000000" font-family="sans-serif" font-size="14" lengthAdjust="spacing" textLength="19" x="486.5" y="47.8848">DB</text><rect fill="#E2E2F0" height="31.6094" rx="2.5" ry="2.5" style="stroke:#181818;stroke-width:0.5;" width="33" x="479.5" y="521.2031"/><text fill="#000000" font-family="sans-serif" font-size="14" lengthAdjust="spacing" textLength="19" x="486.5" y="542.7363">DB</text><rect fill="#FFFFFF" height="420.8906" style="stroke:#181818;stroke-width:1.0;" width="10" x="216" y="91.3125"/><rect fill="#FFFFFF" height="30.3516" style="stroke:#181818;stroke-width:1.0;" width="10" x="491" y="121.6641"/><rect fill="#FFFFFF" height="30.3516" style="stroke:#181818;stroke-width:1.0;" width="10" x="491" y="207.7188"/><rect fill="#FFFFFF" height="30.3516" style="stroke:#181818;stroke-width:1.0;" width="10" x="491" y="337.125"/><ellipse cx="7.5" cy="90.5625" fill="none" rx="4" ry="4" style="stroke:#181818;stroke-width:1.5;"/><polygon fill="#181818" points="204,87.3125,214,91.3125,204,95.3125,208,91.3125" style="stroke:#181818;stroke-width:1.0;"/><line style="stroke:#181818;stroke-width:1.0;" x1="12" x2="210" y1="91.3125" y2="91.3125"/><text fill="#000000" font-family="sans-serif" font-size="13" lengthAdjust="spacing" textLength="92" x="15" y="86.4561">POST /passage</text><polygon fill="#181818" points="479,117.6641,489,121.6641,479,125.6641,483,121.6641" style="stroke:#181818;stroke-width:1.0;"/><line style="stroke:#181818;stroke-width:1.0;" x1="226" x2="485" y1="121.6641" y2="121.6641"/><text fill="#000000" font-family="sans-serif" font-size="13" lengthAdjust="spacing" textLength="185" x="233" y="116.8076">find passages by building codes</text><polygon fill="#181818" points="237,148.0156,227,152.0156,237,156.0156,233,152.0156" style="stroke:#181818;stroke-width:1.0;"/><line style="stroke:#181818;stroke-width:1.0;stroke-dasharray:2.0,2.0;" x1="231" x2="495" y1="152.0156" y2="152.0156"/><text fill="#000000" font-family="sans-serif" font-size="13" lengthAdjust="spacing" textLength="143" x="243" y="147.1592">passage data / not found</text><path d="M11,167.0156 L72,167.0156 L72,175.3672 L62,185.3672 L11,185.3672 L11,167.0156 " fill="#EEEEEE" style="stroke:#000000;stroke-width:1.5;"/><rect fill="none" height="338.1875" style="stroke:#000000;stroke-width:1.5;" width="521.5" x="11" y="167.0156"/><text fill="#000000" font-family="sans-serif" font-size="13" font-weight="bold" lengthAdjust="spacing" textLength="16" x="26" y="181.5107">alt</text><text fill="#000000" font-family="sans-serif" font-size="11" font-weight="bold" lengthAdjust="spacing" textLength="121" x="87" y="180.4346">[if passage not found]</text><polygon fill="#181818" points="479,203.7188,489,207.7188,479,211.7188,483,207.7188" style="stroke:#181818;stroke-width:1.0;"/><line style="stroke:#181818;stroke-width:1.0;" x1="226" x2="485" y1="207.7188" y2="207.7188"/><text fill="#000000" font-family="sans-serif" font-size="13" lengthAdjust="spacing" textLength="246" x="233" y="202.8623">find floor by building code and floor number</text><polygon fill="#181818" points="237,234.0703,227,238.0703,237,242.0703,233,238.0703" style="stroke:#181818;stroke-width:1.0;"/><line style="stroke:#181818;stroke-width:1.0;stroke-dasharray:2.0,2.0;" x1="231" x2="495" y1="238.0703" y2="238.0703"/><text fill="#000000" font-family="sans-serif" font-size="13" lengthAdjust="spacing" textLength="118" x="243" y="233.2139">floor data / not found</text><path d="M11,253.0703 L72,253.0703 L72,261.4219 L62,271.4219 L11,271.4219 L11,253.0703 " fill="#EEEEEE" style="stroke:#000000;stroke-width:1.5;"/><rect fill="none" height="198.9453" style="stroke:#000000;stroke-width:1.5;" width="511.5" x="11" y="253.0703"/><text fill="#000000" font-family="sans-serif" font-size="13" font-weight="bold" lengthAdjust="spacing" textLength="16" x="26" y="267.5654">alt</text><text fill="#000000" font-family="sans-serif" font-size="11" font-weight="bold" lengthAdjust="spacing" textLength="114" x="87" y="266.4893">[if both floors found]</text><line style="stroke:#181818;stroke-width:1.0;" x1="226" x2="268" y1="293.7734" y2="293.7734"/><line style="stroke:#181818;stroke-width:1.0;" x1="268" x2="268" y1="293.7734" y2="306.7734"/><line style="stroke:#181818;stroke-width:1.0;" x1="227" x2="268" y1="306.7734" y2="306.7734"/><polygon fill="#181818" points="237,302.7734,227,306.7734,237,310.7734,233,306.7734" style="stroke:#181818;stroke-width:1.0;"/><text fill="#000000" font-family="sans-serif" font-size="13" lengthAdjust="spacing" textLength="177" x="233" y="288.917">create new passage properties</text><polygon fill="#181818" points="479,333.125,489,337.125,479,341.125,483,337.125" style="stroke:#181818;stroke-width:1.0;"/><line style="stroke:#181818;stroke-width:1.0;" x1="226" x2="485" y1="337.125" y2="337.125"/><text fill="#000000" font-family="sans-serif" font-size="13" lengthAdjust="spacing" textLength="106" x="233" y="332.2686">save new passage</text><polygon fill="#181818" points="237,363.4766,227,367.4766,237,371.4766,233,367.4766" style="stroke:#181818;stroke-width:1.0;"/><line style="stroke:#181818;stroke-width:1.0;stroke-dasharray:2.0,2.0;" x1="231" x2="495" y1="367.4766" y2="367.4766"/><text fill="#000000" font-family="sans-serif" font-size="13" lengthAdjust="spacing" textLength="89" x="243" y="362.6201">operation result</text><ellipse cx="7.5" cy="397.0781" fill="none" rx="4" ry="4" style="stroke:#181818;stroke-width:1.5;"/><polygon fill="#181818" points="24.5,393.8281,14.5,397.8281,24.5,401.8281,20.5,397.8281" style="stroke:#181818;stroke-width:1.0;"/><ellipse cx="215.5" cy="397.0781" fill="none" rx="4" ry="4" style="stroke:#181818;stroke-width:1.5;"/><line style="stroke:#181818;stroke-width:1.0;stroke-dasharray:2.0,2.0;" x1="22.5" x2="211" y1="397.8281" y2="397.8281"/><text fill="#000000" font-family="sans-serif" font-size="13" lengthAdjust="spacing" textLength="82" x="25" y="392.9717">creation result</text><line style="stroke:#000000;stroke-width:1.0;stroke-dasharray:2.0,2.0;" x1="11" x2="522.5" y1="406.8281" y2="406.8281"/><text fill="#000000" font-family="sans-serif" font-size="11" font-weight="bold" lengthAdjust="spacing" textLength="174" x="16" y="418.2471">[if one or both floors not found]</text><ellipse cx="7.5" cy="443.2656" fill="none" rx="4" ry="4" style="stroke:#181818;stroke-width:1.5;"/><polygon fill="#181818" points="24.5,440.0156,14.5,444.0156,24.5,448.0156,20.5,444.0156" style="stroke:#181818;stroke-width:1.0;"/><ellipse cx="215.5" cy="443.2656" fill="none" rx="4" ry="4" style="stroke:#181818;stroke-width:1.5;"/><line style="stroke:#181818;stroke-width:1.0;stroke-dasharray:2.0,2.0;" x1="22.5" x2="211" y1="444.0156" y2="444.0156"/><text fill="#000000" font-family="sans-serif" font-size="13" lengthAdjust="spacing" textLength="189" x="25" y="439.1592">error "Floor or building not found"</text><line style="stroke:#000000;stroke-width:1.0;stroke-dasharray:2.0,2.0;" x1="11" x2="532.5" y1="460.0156" y2="460.0156"/><text fill="#000000" font-family="sans-serif" font-size="11" font-weight="bold" lengthAdjust="spacing" textLength="100" x="16" y="471.4346">[if passage found]</text><ellipse cx="7.5" cy="496.4531" fill="none" rx="4" ry="4" style="stroke:#181818;stroke-width:1.5;"/><polygon fill="#181818" points="24.5,493.2031,14.5,497.2031,24.5,501.2031,20.5,497.2031" style="stroke:#181818;stroke-width:1.0;"/><ellipse cx="215.5" cy="496.4531" fill="none" rx="4" ry="4" style="stroke:#181818;stroke-width:1.5;"/><line style="stroke:#181818;stroke-width:1.0;stroke-dasharray:2.0,2.0;" x1="22.5" x2="211" y1="497.2031" y2="497.2031"/><text fill="#000000" font-family="sans-serif" font-size="13" lengthAdjust="spacing" textLength="176" x="25" y="492.3467">error "Passage already exists"</text><!--MD5=[e68b9fc49d9ff6b7754395146a7dc704]
@startuml SD Lv2

box "Campus Management" #LightBlue
    participant "Campus Management" as Campus
    participant "DB" as DB
end box

[o-> Campus : POST /passage
activate Campus

Campus -> DB : find passages by building codes
activate DB
DB - -> Campus : passage data / not found
deactivate DB

alt if passage not found

    Campus -> DB : find floor by building code and floor number
    activate DB
    DB - -> Campus : floor data / not found
    deactivate DB
    
    alt if both floors found
        Campus -> Campus : create new passage properties

        Campus -> DB : save new passage
        activate DB
        DB - -> Campus : operation result
        deactivate DB

        [o<- -o Campus : creation result
    else if one or both floors not found
        [o<- -o Campus : error "Floor or building not found"
    end

else if passage found
    [o<- -o Campus : error "Passage already exists"
end
deactivate Campus

@enduml

PlantUML version 1.2022.7(Mon Aug 22 18:01:30 BST 2022)
(GPL source distribution)
Java Runtime: Java(TM) SE Runtime Environment
JVM: Java HotSpot(TM) Client VM
Default Encoding: Cp1252
Language: en
Country: US
--></g></svg>