<?xml version="1.0" encoding="UTF-8" standalone="no"?><svg xmlns="http://www.w3.org/2000/svg" xmlns:xlink="http://www.w3.org/1999/xlink" contentStyleType="text/css" height="247px" preserveAspectRatio="none" style="width:337px;height:247px;background:#FFFFFF;" version="1.1" viewBox="0 0 337 247" width="337px" zoomAndPan="magnify"><defs/><g><rect fill="#FFFFFF" height="106.4063" style="stroke:#181818;stroke-width:1.0;" width="10" x="199" y="86.3125"/><line style="stroke:#181818;stroke-width:0.5;stroke-dasharray:5.0,5.0;" x1="204" x2="204" y1="37.6094" y2="210.7188"/><rect fill="#E2E2F0" height="31.6094" rx="2.5" ry="2.5" style="stroke:#181818;stroke-width:0.5;" width="98" x="155" y="5"/><text fill="#000000" font-family="sans-serif" font-size="14" lengthAdjust="spacing" textLength="84" x="162" y="26.5332">RobDroneGo</text><rect fill="#E2E2F0" height="31.6094" rx="2.5" ry="2.5" style="stroke:#181818;stroke-width:0.5;" width="98" x="155" y="209.7188"/><text fill="#000000" font-family="sans-serif" font-size="14" lengthAdjust="spacing" textLength="84" x="162" y="231.252">RobDroneGo</text><rect fill="#FFFFFF" height="106.4063" style="stroke:#181818;stroke-width:1.0;" width="10" x="199" y="86.3125"/><ellipse cx="7.5" cy="85.5625" fill="none" rx="4" ry="4" style="stroke:#181818;stroke-width:1.5;"/><polygon fill="#181818" points="187,82.3125,197,86.3125,187,90.3125,191,86.3125" style="stroke:#181818;stroke-width:1.0;"/><line style="stroke:#181818;stroke-width:1.0;" x1="12" x2="193" y1="86.3125" y2="86.3125"/><text fill="#000000" font-family="sans-serif" font-size="13" lengthAdjust="spacing" textLength="172" x="15" y="65.1045">GET /building?minFloor={min}</text><text fill="#000000" font-family="sans-serif" font-size="13" lengthAdjust="spacing" textLength="104" x="47" y="81.4561">&amp;maxFloor={max}</text><line style="stroke:#181818;stroke-width:1.0;" x1="209" x2="251" y1="133.0156" y2="133.0156"/><line style="stroke:#181818;stroke-width:1.0;" x1="251" x2="251" y1="133.0156" y2="146.0156"/><line style="stroke:#181818;stroke-width:1.0;" x1="210" x2="251" y1="146.0156" y2="146.0156"/><polygon fill="#181818" points="220,142.0156,210,146.0156,220,150.0156,216,146.0156" style="stroke:#181818;stroke-width:1.0;"/><text fill="#000000" font-family="sans-serif" font-size="13" lengthAdjust="spacing" textLength="114" x="216" y="111.8076">Search for buildings</text><text fill="#000000" font-family="sans-serif" font-size="13" lengthAdjust="spacing" textLength="78" x="252" y="128.1592">by floor range</text><ellipse cx="7.5" cy="191.9688" fill="none" rx="4" ry="4" style="stroke:#181818;stroke-width:1.5;"/><polygon fill="#181818" points="24.5,188.7188,14.5,192.7188,24.5,196.7188,20.5,192.7188" style="stroke:#181818;stroke-width:1.0;"/><ellipse cx="203.5" cy="191.9688" fill="none" rx="4" ry="4" style="stroke:#181818;stroke-width:1.5;"/><line style="stroke:#181818;stroke-width:1.0;stroke-dasharray:2.0,2.0;" x1="22.5" x2="199" y1="192.7188" y2="192.7188"/><text fill="#000000" font-family="sans-serif" font-size="13" lengthAdjust="spacing" textLength="128" x="25" y="171.5107">Return list of buildings</text><text fill="#000000" font-family="sans-serif" font-size="13" lengthAdjust="spacing" textLength="97" x="29" y="187.8623">within floor range</text><!--MD5=[d7e3dd74d3336a055b75c6313d6bb9e6]
@startuml SD Lv1

participant "RobDroneGo" as System

[o-> System : GET /building?minFloor={min}\n\t&maxFloor={max}
activate System

System -> System : Search for buildings\n\t by floor range

[o<- -o System : Return list of buildings\n within floor range
deactivate System

@enduml

PlantUML version 1.2022.7(Mon Aug 22 18:01:30 BST 2022)
(GPL source distribution)
Java Runtime: Java(TM) SE Runtime Environment
JVM: Java HotSpot(TM) Client VM
Default Encoding: Cp1252
Language: en
Country: US
--></g></svg>