<?xml version="1.0" encoding="UTF-8" standalone="no"?><svg xmlns="http://www.w3.org/2000/svg" xmlns:xlink="http://www.w3.org/1999/xlink" contentStyleType="text/css" height="558px" preserveAspectRatio="none" style="width:619px;height:558px;background:#FFFFFF;" version="1.1" viewBox="0 0 619 558" width="619px" zoomAndPan="magnify"><defs/><g><rect fill="#ADD8E6" height="546.4922" style="stroke:#181818;stroke-width:0.5;" width="416" x="197" y="6"/><text fill="#000000" font-family="sans-serif" font-size="13" font-weight="bold" lengthAdjust="spacing" textLength="81" x="364.5" y="19.4951">RobDroneGo</text><rect fill="#FFFFFF" height="407.5703" style="stroke:#181818;stroke-width:1.0;" width="10" x="280" y="91.3125"/><rect fill="#FFFFFF" height="91.0547" style="stroke:#181818;stroke-width:1.0;" width="10" x="462.5" y="121.6641"/><rect fill="#FFFFFF" height="134.4063" style="stroke:#181818;stroke-width:1.0;" width="10" x="462.5" y="334.125"/><rect fill="#FFFFFF" height="30.3516" style="stroke:#181818;stroke-width:1.0;" width="10" x="587.5" y="152.0156"/><rect fill="#FFFFFF" height="30.3516" style="stroke:#181818;stroke-width:1.0;" width="10" x="587.5" y="407.8281"/><line style="stroke:#181818;stroke-width:0.5;stroke-dasharray:5.0,5.0;" x1="81" x2="81" y1="58.9609" y2="516.8828"/><line style="stroke:#181818;stroke-width:0.5;stroke-dasharray:5.0,5.0;" x1="285" x2="285" y1="58.9609" y2="516.8828"/><line style="stroke:#181818;stroke-width:0.5;stroke-dasharray:5.0,5.0;" x1="467" x2="467" y1="58.9609" y2="516.8828"/><line style="stroke:#181818;stroke-width:0.5;stroke-dasharray:5.0,5.0;" x1="592" x2="592" y1="58.9609" y2="516.8828"/><rect fill="#E2E2F0" height="31.6094" rx="2.5" ry="2.5" style="stroke:#181818;stroke-width:0.5;" width="152" x="5" y="26.3516"/><text fill="#000000" font-family="sans-serif" font-size="14" lengthAdjust="spacing" textLength="138" x="12" y="47.8848">Campus Management</text><rect fill="#E2E2F0" height="31.6094" rx="2.5" ry="2.5" style="stroke:#181818;stroke-width:0.5;" width="152" x="5" y="515.8828"/><text fill="#000000" font-family="sans-serif" font-size="14" lengthAdjust="spacing" textLength="138" x="12" y="537.416">Campus Management</text><rect fill="#E2E2F0" height="31.6094" rx="2.5" ry="2.5" style="stroke:#181818;stroke-width:0.5;" width="168" x="201" y="26.3516"/><text fill="#000000" font-family="sans-serif" font-size="14" lengthAdjust="spacing" textLength="154" x="208" y="47.8848">Campus Management UI</text><rect fill="#E2E2F0" height="31.6094" rx="2.5" ry="2.5" style="stroke:#181818;stroke-width:0.5;" width="168" x="201" y="515.8828"/><text fill="#000000" font-family="sans-serif" font-size="14" lengthAdjust="spacing" textLength="154" x="208" y="537.416">Campus Management UI</text><rect fill="#E2E2F0" height="31.6094" rx="2.5" ry="2.5" style="stroke:#181818;stroke-width:0.5;" width="177" x="379" y="26.3516"/><text fill="#000000" font-family="sans-serif" font-size="14" lengthAdjust="spacing" textLength="163" x="386" y="47.8848">Campus Management API</text><rect fill="#E2E2F0" height="31.6094" rx="2.5" ry="2.5" style="stroke:#181818;stroke-width:0.5;" width="177" x="379" y="515.8828"/><text fill="#000000" font-family="sans-serif" font-size="14" lengthAdjust="spacing" textLength="163" x="386" y="537.416">Campus Management API</text><rect fill="#E2E2F0" height="31.6094" rx="2.5" ry="2.5" style="stroke:#181818;stroke-width:0.5;" width="33" x="576" y="26.3516"/><text fill="#000000" font-family="sans-serif" font-size="14" lengthAdjust="spacing" textLength="19" x="583" y="47.8848">DB</text><rect fill="#E2E2F0" height="31.6094" rx="2.5" ry="2.5" style="stroke:#181818;stroke-width:0.5;" width="33" x="576" y="515.8828"/><text fill="#000000" font-family="sans-serif" font-size="14" lengthAdjust="spacing" textLength="19" x="583" y="537.416">DB</text><rect fill="#FFFFFF" height="407.5703" style="stroke:#181818;stroke-width:1.0;" width="10" x="280" y="91.3125"/><rect fill="#FFFFFF" height="91.0547" style="stroke:#181818;stroke-width:1.0;" width="10" x="462.5" y="121.6641"/><rect fill="#FFFFFF" height="134.4063" style="stroke:#181818;stroke-width:1.0;" width="10" x="462.5" y="334.125"/><rect fill="#FFFFFF" height="30.3516" style="stroke:#181818;stroke-width:1.0;" width="10" x="587.5" y="152.0156"/><rect fill="#FFFFFF" height="30.3516" style="stroke:#181818;stroke-width:1.0;" width="10" x="587.5" y="407.8281"/><polygon fill="#181818" points="268,87.3125,278,91.3125,268,95.3125,272,91.3125" style="stroke:#181818;stroke-width:1.0;"/><line style="stroke:#181818;stroke-width:1.0;" x1="81" x2="274" y1="91.3125" y2="91.3125"/><text fill="#000000" font-family="sans-serif" font-size="13" lengthAdjust="spacing" textLength="61" x="88" y="86.4561">open route</text><polygon fill="#181818" points="450.5,117.6641,460.5,121.6641,450.5,125.6641,454.5,121.6641" style="stroke:#181818;stroke-width:1.0;"/><line style="stroke:#181818;stroke-width:1.0;" x1="290" x2="456.5" y1="121.6641" y2="121.6641"/><text fill="#000000" font-family="sans-serif" font-size="13" lengthAdjust="spacing" textLength="101" x="297" y="116.8076">load all passages</text><polygon fill="#181818" points="575.5,148.0156,585.5,152.0156,575.5,156.0156,579.5,152.0156" style="stroke:#181818;stroke-width:1.0;"/><line style="stroke:#181818;stroke-width:1.0;" x1="472.5" x2="581.5" y1="152.0156" y2="152.0156"/><text fill="#000000" font-family="sans-serif" font-size="13" lengthAdjust="spacing" textLength="95" x="479.5" y="147.1592">get all passages</text><polygon fill="#181818" points="483.5,178.3672,473.5,182.3672,483.5,186.3672,479.5,182.3672" style="stroke:#181818;stroke-width:1.0;"/><line style="stroke:#181818;stroke-width:1.0;stroke-dasharray:2.0,2.0;" x1="477.5" x2="591.5" y1="182.3672" y2="182.3672"/><text fill="#000000" font-family="sans-serif" font-size="13" lengthAdjust="spacing" textLength="91" x="489.5" y="177.5107">list of passages</text><polygon fill="#181818" points="301,208.7188,291,212.7188,301,216.7188,297,212.7188" style="stroke:#181818;stroke-width:1.0;"/><line style="stroke:#181818;stroke-width:1.0;stroke-dasharray:2.0,2.0;" x1="295" x2="466.5" y1="212.7188" y2="212.7188"/><text fill="#000000" font-family="sans-serif" font-size="13" lengthAdjust="spacing" textLength="91" x="307" y="207.8623">list of passages</text><polygon fill="#181818" points="92,239.0703,82,243.0703,92,247.0703,88,243.0703" style="stroke:#181818;stroke-width:1.0;"/><line style="stroke:#181818;stroke-width:1.0;stroke-dasharray:2.0,2.0;" x1="86" x2="279" y1="243.0703" y2="243.0703"/><text fill="#000000" font-family="sans-serif" font-size="13" lengthAdjust="spacing" textLength="142" x="98" y="238.2139">show list of all passages</text><polygon fill="#181818" points="268,269.4219,278,273.4219,268,277.4219,272,273.4219" style="stroke:#181818;stroke-width:1.0;"/><line style="stroke:#181818;stroke-width:1.0;" x1="81" x2="274" y1="273.4219" y2="273.4219"/><text fill="#000000" font-family="sans-serif" font-size="13" lengthAdjust="spacing" textLength="88" x="88" y="268.5654">select passage</text><polygon fill="#181818" points="268,299.7734,278,303.7734,268,307.7734,272,303.7734" style="stroke:#181818;stroke-width:1.0;"/><line style="stroke:#181818;stroke-width:1.0;" x1="81" x2="274" y1="303.7734" y2="303.7734"/><text fill="#000000" font-family="sans-serif" font-size="13" lengthAdjust="spacing" textLength="175" x="88" y="298.917">input new passage information</text><polygon fill="#181818" points="450.5,330.125,460.5,334.125,450.5,338.125,454.5,334.125" style="stroke:#181818;stroke-width:1.0;"/><line style="stroke:#181818;stroke-width:1.0;" x1="290" x2="456.5" y1="334.125" y2="334.125"/><text fill="#000000" font-family="sans-serif" font-size="13" lengthAdjust="spacing" textLength="143" x="297" y="329.2686">new passage information</text><line style="stroke:#181818;stroke-width:1.0;" x1="472.5" x2="514.5" y1="364.4766" y2="364.4766"/><line style="stroke:#181818;stroke-width:1.0;" x1="514.5" x2="514.5" y1="364.4766" y2="377.4766"/><line style="stroke:#181818;stroke-width:1.0;" x1="473.5" x2="514.5" y1="377.4766" y2="377.4766"/><polygon fill="#181818" points="483.5,373.4766,473.5,377.4766,483.5,381.4766,479.5,377.4766" style="stroke:#181818;stroke-width:1.0;"/><text fill="#000000" font-family="sans-serif" font-size="13" lengthAdjust="spacing" textLength="92" x="479.5" y="359.6201">update passage</text><polygon fill="#181818" points="575.5,403.8281,585.5,407.8281,575.5,411.8281,579.5,407.8281" style="stroke:#181818;stroke-width:1.0;"/><line style="stroke:#181818;stroke-width:1.0;" x1="472.5" x2="581.5" y1="407.8281" y2="407.8281"/><text fill="#000000" font-family="sans-serif" font-size="13" lengthAdjust="spacing" textLength="79" x="479.5" y="402.9717">save passage</text><polygon fill="#181818" points="483.5,434.1797,473.5,438.1797,483.5,442.1797,479.5,438.1797" style="stroke:#181818;stroke-width:1.0;"/><line style="stroke:#181818;stroke-width:1.0;stroke-dasharray:2.0,2.0;" x1="477.5" x2="591.5" y1="438.1797" y2="438.1797"/><text fill="#000000" font-family="sans-serif" font-size="13" lengthAdjust="spacing" textLength="86" x="489.5" y="433.3232">passage saved</text><polygon fill="#181818" points="301,464.5313,291,468.5313,301,472.5313,297,468.5313" style="stroke:#181818;stroke-width:1.0;"/><line style="stroke:#181818;stroke-width:1.0;stroke-dasharray:2.0,2.0;" x1="295" x2="466.5" y1="468.5313" y2="468.5313"/><text fill="#000000" font-family="sans-serif" font-size="13" lengthAdjust="spacing" textLength="99" x="307" y="463.6748">updated passage</text><polygon fill="#181818" points="92,494.8828,82,498.8828,92,502.8828,88,498.8828" style="stroke:#181818;stroke-width:1.0;"/><line style="stroke:#181818;stroke-width:1.0;stroke-dasharray:2.0,2.0;" x1="86" x2="284" y1="498.8828" y2="498.8828"/><text fill="#000000" font-family="sans-serif" font-size="13" lengthAdjust="spacing" textLength="175" x="98" y="494.0264">passage updated successfully</text><!--MD5=[07e62fe238109bbbaf1f0b7eb2e18e26]
@startuml SD Lv2

participant "Campus Management" as campusManager
box "RobDroneGo" #LightBlue
    participant "Campus Management UI" as campusUI
    participant "Campus Management API" as campusAPI
    participant "DB" as DB
end box

campusManager -> campusUI : open route
activate campusUI

    campusUI -> campusAPI : load all passages
    activate campusAPI

    campusAPI -> DB : get all passages
    activate DB
    DB - -> campusAPI : list of passages
    deactivate DB

    campusAPI - -> campusUI : list of passages
    deactivate campusAPI

campusManager <- - campusUI : show list of all passages

campusManager -> campusUI : select passage

campusManager -> campusUI : input new passage information

        campusUI -> campusAPI : new passage information
        activate campusAPI
        campusAPI -> campusAPI : update passage
    
        campusAPI -> DB : save passage
        activate DB
        DB - -> campusAPI : passage saved
        deactivate DB
    
        campusAPI - -> campusUI : updated passage
        deactivate campusAPI
    
campusManager <- - campusUI : passage updated successfully
deactivate campusUI

@enduml

PlantUML version 1.2022.7(Mon Aug 22 18:01:30 BST 2022)
(GPL source distribution)
Java Runtime: Java(TM) SE Runtime Environment
JVM: Java HotSpot(TM) 64-Bit Server VM
Default Encoding: Cp1252
Language: pt
Country: PT
--></g></svg>