<?xml version="1.0" encoding="UTF-8" standalone="no"?><svg xmlns="http://www.w3.org/2000/svg" xmlns:xlink="http://www.w3.org/1999/xlink" contentStyleType="text/css" height="230px" preserveAspectRatio="none" style="width:265px;height:230px;background:#FFFFFF;" version="1.1" viewBox="0 0 265 230" width="265px" zoomAndPan="magnify"><defs/><g><rect fill="#FFFFFF" height="90.0547" style="stroke:#181818;stroke-width:1.0;" width="10" x="143" y="86.3125"/><line style="stroke:#181818;stroke-width:0.5;stroke-dasharray:5.0,5.0;" x1="148" x2="148" y1="37.6094" y2="194.3672"/><rect fill="#E2E2F0" height="31.6094" rx="2.5" ry="2.5" style="stroke:#181818;stroke-width:0.5;" width="98" x="99" y="5"/><text fill="#000000" font-family="sans-serif" font-size="14" lengthAdjust="spacing" textLength="84" x="106" y="26.5332">RobDroneGo</text><rect fill="#E2E2F0" height="31.6094" rx="2.5" ry="2.5" style="stroke:#181818;stroke-width:0.5;" width="98" x="99" y="193.3672"/><text fill="#000000" font-family="sans-serif" font-size="14" lengthAdjust="spacing" textLength="84" x="106" y="214.9004">RobDroneGo</text><rect fill="#FFFFFF" height="90.0547" style="stroke:#181818;stroke-width:1.0;" width="10" x="143" y="86.3125"/><ellipse cx="7.5" cy="85.5625" fill="none" rx="4" ry="4" style="stroke:#181818;stroke-width:1.5;"/><polygon fill="#181818" points="131,82.3125,141,86.3125,131,90.3125,135,86.3125" style="stroke:#181818;stroke-width:1.0;"/><line style="stroke:#181818;stroke-width:1.0;" x1="12" x2="137" y1="86.3125" y2="86.3125"/><text fill="#000000" font-family="sans-serif" font-size="13" lengthAdjust="spacing" textLength="116" x="15" y="65.1045">Put (oldPassageinfo</text><text fill="#000000" font-family="sans-serif" font-size="13" lengthAdjust="spacing" textLength="98" x="15" y="81.4561">newPassageInfo)</text><line style="stroke:#181818;stroke-width:1.0;" x1="153" x2="195" y1="133.0156" y2="133.0156"/><line style="stroke:#181818;stroke-width:1.0;" x1="195" x2="195" y1="133.0156" y2="146.0156"/><line style="stroke:#181818;stroke-width:1.0;" x1="154" x2="195" y1="146.0156" y2="146.0156"/><polygon fill="#181818" points="164,142.0156,154,146.0156,164,150.0156,160,146.0156" style="stroke:#181818;stroke-width:1.0;"/><text fill="#000000" font-family="sans-serif" font-size="13" lengthAdjust="spacing" textLength="94" x="160" y="111.8076">Update passage</text><text fill="#000000" font-family="sans-serif" font-size="13" lengthAdjust="spacing" textLength="62" x="160" y="128.1592">to new info</text><ellipse cx="7.5" cy="175.6172" fill="none" rx="4" ry="4" style="stroke:#181818;stroke-width:1.5;"/><polygon fill="#181818" points="24.5,172.3672,14.5,176.3672,24.5,180.3672,20.5,176.3672" style="stroke:#181818;stroke-width:1.0;"/><ellipse cx="147.5" cy="175.6172" fill="none" rx="4" ry="4" style="stroke:#181818;stroke-width:1.5;"/><line style="stroke:#181818;stroke-width:1.0;stroke-dasharray:2.0,2.0;" x1="22.5" x2="143" y1="176.3672" y2="176.3672"/><text fill="#000000" font-family="sans-serif" font-size="13" lengthAdjust="spacing" textLength="51" x="25" y="171.5107">Passage</text><!--MD5=[fd73649dcce743c71a8b3511d16f1a1d]
@startuml SD Lv1

participant RobDroneGo as system
[o-> system : Put (oldPassageinfo\nnewPassageInfo)
activate system

system -> system : Update passage \nto new info

[o<- -o system : Passage
deactivate system

@enduml

PlantUML version 1.2022.7(Mon Aug 22 18:01:30 BST 2022)
(GPL source distribution)
Java Runtime: Java(TM) SE Runtime Environment
JVM: Java HotSpot(TM) 64-Bit Server VM
Default Encoding: Cp1252
Language: pt
Country: PT
--></g></svg>