<?xml version="1.0" encoding="UTF-8" standalone="no"?><svg xmlns="http://www.w3.org/2000/svg" xmlns:xlink="http://www.w3.org/1999/xlink" contentStyleType="text/css" height="439px" preserveAspectRatio="none" style="width:307px;height:439px;background:#FFFFFF;" version="1.1" viewBox="0 0 307 439" width="307px" zoomAndPan="magnify"><defs/><g><rect fill="#ADD8E6" height="427.4375" style="stroke:#181818;stroke-width:0.5;" width="233.5" x="68" y="6"/><text fill="#000000" font-family="sans-serif" font-size="13" font-weight="bold" lengthAdjust="spacing" textLength="81" x="144.25" y="19.4951">RobDroneGo</text><rect fill="#FFFFFF" height="272.1641" style="stroke:#181818;stroke-width:1.0;" width="10" x="143" y="107.6641"/><rect fill="#FFFFFF" height="30.3516" style="stroke:#181818;stroke-width:1.0;" width="10" x="276" y="138.0156"/><rect fill="#FFFFFF" height="30.3516" style="stroke:#181818;stroke-width:1.0;" width="10" x="276" y="198.7188"/><rect fill="#FFFFFF" height="30.3516" style="stroke:#181818;stroke-width:1.0;" width="10" x="276" y="319.125"/><line style="stroke:#181818;stroke-width:0.5;stroke-dasharray:5.0,5.0;" x1="14" x2="14" y1="58.9609" y2="397.8281"/><line style="stroke:#181818;stroke-width:0.5;stroke-dasharray:5.0,5.0;" x1="148" x2="148" y1="58.9609" y2="397.8281"/><line style="stroke:#181818;stroke-width:0.5;stroke-dasharray:5.0,5.0;" x1="280.5" x2="280.5" y1="58.9609" y2="397.8281"/><rect fill="#E2E2F0" height="31.6094" rx="2.5" ry="2.5" style="stroke:#181818;stroke-width:0.5;" width="18" x="5" y="26.3516"/><text fill="#000000" font-family="sans-serif" font-size="14" lengthAdjust="spacing" textLength="4" x="12" y="47.8848"> </text><rect fill="#E2E2F0" height="31.6094" rx="2.5" ry="2.5" style="stroke:#181818;stroke-width:0.5;" width="18" x="5" y="396.8281"/><text fill="#000000" font-family="sans-serif" font-size="14" lengthAdjust="spacing" textLength="4" x="12" y="418.3613"> </text><rect fill="#E2E2F0" height="31.6094" rx="2.5" ry="2.5" style="stroke:#181818;stroke-width:0.5;" width="152" x="72" y="26.3516"/><text fill="#000000" font-family="sans-serif" font-size="14" lengthAdjust="spacing" textLength="138" x="79" y="47.8848">Campus Management</text><rect fill="#E2E2F0" height="31.6094" rx="2.5" ry="2.5" style="stroke:#181818;stroke-width:0.5;" width="152" x="72" y="396.8281"/><text fill="#000000" font-family="sans-serif" font-size="14" lengthAdjust="spacing" textLength="138" x="79" y="418.3613">Campus Management</text><rect fill="#E2E2F0" height="31.6094" rx="2.5" ry="2.5" style="stroke:#181818;stroke-width:0.5;" width="33" x="264.5" y="26.3516"/><text fill="#000000" font-family="sans-serif" font-size="14" lengthAdjust="spacing" textLength="19" x="271.5" y="47.8848">DB</text><rect fill="#E2E2F0" height="31.6094" rx="2.5" ry="2.5" style="stroke:#181818;stroke-width:0.5;" width="33" x="264.5" y="396.8281"/><text fill="#000000" font-family="sans-serif" font-size="14" lengthAdjust="spacing" textLength="19" x="271.5" y="418.3613">DB</text><rect fill="#FFFFFF" height="272.1641" style="stroke:#181818;stroke-width:1.0;" width="10" x="143" y="107.6641"/><rect fill="#FFFFFF" height="30.3516" style="stroke:#181818;stroke-width:1.0;" width="10" x="276" y="138.0156"/><rect fill="#FFFFFF" height="30.3516" style="stroke:#181818;stroke-width:1.0;" width="10" x="276" y="198.7188"/><rect fill="#FFFFFF" height="30.3516" style="stroke:#181818;stroke-width:1.0;" width="10" x="276" y="319.125"/><ellipse cx="7.5" cy="106.9141" fill="none" rx="4" ry="4" style="stroke:#181818;stroke-width:1.5;"/><polygon fill="#181818" points="131,103.6641,141,107.6641,131,111.6641,135,107.6641" style="stroke:#181818;stroke-width:1.0;"/><line style="stroke:#181818;stroke-width:1.0;" x1="12" x2="137" y1="107.6641" y2="107.6641"/><text fill="#000000" font-family="sans-serif" font-size="13" lengthAdjust="spacing" textLength="116" x="15" y="86.4561">Put (oldPassageinfo</text><text fill="#000000" font-family="sans-serif" font-size="13" lengthAdjust="spacing" textLength="98" x="15" y="102.8076">newPassageInfo)</text><polygon fill="#181818" points="264,134.0156,274,138.0156,264,142.0156,268,138.0156" style="stroke:#181818;stroke-width:1.0;"/><line style="stroke:#181818;stroke-width:1.0;" x1="153" x2="270" y1="138.0156" y2="138.0156"/><text fill="#000000" font-family="sans-serif" font-size="13" lengthAdjust="spacing" textLength="77" x="160" y="133.1592">load passage</text><polygon fill="#181818" points="164,164.3672,154,168.3672,164,172.3672,160,168.3672" style="stroke:#181818;stroke-width:1.0;"/><line style="stroke:#181818;stroke-width:1.0;stroke-dasharray:2.0,2.0;" x1="158" x2="280" y1="168.3672" y2="168.3672"/><text fill="#000000" font-family="sans-serif" font-size="13" lengthAdjust="spacing" textLength="49" x="170" y="163.5107">passage</text><polygon fill="#181818" points="264,194.7188,274,198.7188,264,202.7188,268,198.7188" style="stroke:#181818;stroke-width:1.0;"/><line style="stroke:#181818;stroke-width:1.0;" x1="153" x2="270" y1="198.7188" y2="198.7188"/><text fill="#000000" font-family="sans-serif" font-size="13" lengthAdjust="spacing" textLength="78" x="160" y="193.8623">validate floors</text><polygon fill="#181818" points="164,225.0703,154,229.0703,164,233.0703,160,229.0703" style="stroke:#181818;stroke-width:1.0;"/><line style="stroke:#181818;stroke-width:1.0;stroke-dasharray:2.0,2.0;" x1="158" x2="280" y1="229.0703" y2="229.0703"/><text fill="#000000" font-family="sans-serif" font-size="13" lengthAdjust="spacing" textLength="31" x="170" y="224.2139">floors</text><line style="stroke:#181818;stroke-width:1.0;" x1="153" x2="195" y1="275.7734" y2="275.7734"/><line style="stroke:#181818;stroke-width:1.0;" x1="195" x2="195" y1="275.7734" y2="288.7734"/><line style="stroke:#181818;stroke-width:1.0;" x1="154" x2="195" y1="288.7734" y2="288.7734"/><polygon fill="#181818" points="164,284.7734,154,288.7734,164,292.7734,160,288.7734" style="stroke:#181818;stroke-width:1.0;"/><text fill="#000000" font-family="sans-serif" font-size="13" lengthAdjust="spacing" textLength="92" x="160" y="254.5654">update passage</text><text fill="#000000" font-family="sans-serif" font-size="13" lengthAdjust="spacing" textLength="109" x="160" y="270.917">to newPassageInfo</text><polygon fill="#181818" points="264,315.125,274,319.125,264,323.125,268,319.125" style="stroke:#181818;stroke-width:1.0;"/><line style="stroke:#181818;stroke-width:1.0;" x1="153" x2="270" y1="319.125" y2="319.125"/><text fill="#000000" font-family="sans-serif" font-size="13" lengthAdjust="spacing" textLength="79" x="160" y="314.2686">save passage</text><polygon fill="#181818" points="164,345.4766,154,349.4766,164,353.4766,160,349.4766" style="stroke:#181818;stroke-width:1.0;"/><line style="stroke:#181818;stroke-width:1.0;stroke-dasharray:2.0,2.0;" x1="158" x2="280" y1="349.4766" y2="349.4766"/><text fill="#000000" font-family="sans-serif" font-size="13" lengthAdjust="spacing" textLength="49" x="170" y="344.6201">passage</text><ellipse cx="7.5" cy="379.0781" fill="none" rx="4" ry="4" style="stroke:#181818;stroke-width:1.5;"/><polygon fill="#181818" points="24.5,375.8281,14.5,379.8281,24.5,383.8281,20.5,379.8281" style="stroke:#181818;stroke-width:1.0;"/><ellipse cx="147.5" cy="379.0781" fill="none" rx="4" ry="4" style="stroke:#181818;stroke-width:1.5;"/><line style="stroke:#181818;stroke-width:1.0;stroke-dasharray:2.0,2.0;" x1="22.5" x2="143" y1="379.8281" y2="379.8281"/><text fill="#000000" font-family="sans-serif" font-size="13" lengthAdjust="spacing" textLength="49" x="25" y="374.9717">passage</text><!--MD5=[71c1b499998d26d445beeb1884e03247]
@startuml SD Lv2

participant " "
box "RobDroneGo" #LightBlue
    participant "Campus Management" as campus
    participant "DB" as DB
end box

[o-> campus : Put (oldPassageinfo\nnewPassageInfo)
activate campus

campus -> DB : load passage
activate DB
DB - -> campus : passage
deactivate DB

campus -> DB : validate floors
activate DB
DB - -> campus : floors
deactivate DB

campus -> campus: update passage\nto newPassageInfo

campus -> DB : save passage
activate DB
DB - -> campus : passage
deactivate DB

[o<- -o campus : passage
deactivate campus

@enduml

PlantUML version 1.2022.7(Mon Aug 22 18:01:30 BST 2022)
(GPL source distribution)
Java Runtime: Java(TM) SE Runtime Environment
JVM: Java HotSpot(TM) 64-Bit Server VM
Default Encoding: Cp1252
Language: pt
Country: PT
--></g></svg>