<?xml version="1.0" encoding="UTF-8" standalone="no"?><svg xmlns="http://www.w3.org/2000/svg" xmlns:xlink="http://www.w3.org/1999/xlink" contentStyleType="text/css" height="424px" preserveAspectRatio="none" style="width:380px;height:424px;background:#FFFFFF;" version="1.1" viewBox="0 0 380 424" width="380px" zoomAndPan="magnify"><defs/><g><rect fill="#ADD8E6" height="412.5703" style="stroke:#181818;stroke-width:0.5;" width="272.5" x="95" y="6"/><text fill="#000000" font-family="sans-serif" font-size="13" font-weight="bold" lengthAdjust="spacing" textLength="81" x="190.75" y="19.4951">RobDroneGo</text><rect fill="#FFFFFF" height="220.4609" style="stroke:#181818;stroke-width:1.0;" width="10" x="170" y="91.3125"/><rect fill="#FFFFFF" height="30.3516" style="stroke:#181818;stroke-width:1.0;" width="10" x="342" y="121.6641"/><rect fill="#FFFFFF" height="30.3516" style="stroke:#181818;stroke-width:1.0;" width="10" x="342" y="251.0703"/><rect fill="none" height="198.9453" style="stroke:#000000;stroke-width:1.5;" width="362.5" x="11" y="167.0156"/><line style="stroke:#181818;stroke-width:0.5;stroke-dasharray:5.0,5.0;" x1="14" x2="14" y1="58.9609" y2="382.9609"/><line style="stroke:#181818;stroke-width:0.5;stroke-dasharray:5.0,5.0;" x1="175" x2="175" y1="58.9609" y2="382.9609"/><line style="stroke:#181818;stroke-width:0.5;stroke-dasharray:5.0,5.0;" x1="346.5" x2="346.5" y1="58.9609" y2="382.9609"/><rect fill="#E2E2F0" height="31.6094" rx="2.5" ry="2.5" style="stroke:#181818;stroke-width:0.5;" width="18" x="5" y="26.3516"/><text fill="#000000" font-family="sans-serif" font-size="14" lengthAdjust="spacing" textLength="4" x="12" y="47.8848"> </text><rect fill="#E2E2F0" height="31.6094" rx="2.5" ry="2.5" style="stroke:#181818;stroke-width:0.5;" width="18" x="5" y="381.9609"/><text fill="#000000" font-family="sans-serif" font-size="14" lengthAdjust="spacing" textLength="4" x="12" y="403.4941"> </text><rect fill="#E2E2F0" height="31.6094" rx="2.5" ry="2.5" style="stroke:#181818;stroke-width:0.5;" width="152" x="99" y="26.3516"/><text fill="#000000" font-family="sans-serif" font-size="14" lengthAdjust="spacing" textLength="138" x="106" y="47.8848">Campus Management</text><rect fill="#E2E2F0" height="31.6094" rx="2.5" ry="2.5" style="stroke:#181818;stroke-width:0.5;" width="152" x="99" y="381.9609"/><text fill="#000000" font-family="sans-serif" font-size="14" lengthAdjust="spacing" textLength="138" x="106" y="403.4941">Campus Management</text><rect fill="#E2E2F0" height="31.6094" rx="2.5" ry="2.5" style="stroke:#181818;stroke-width:0.5;" width="33" x="330.5" y="26.3516"/><text fill="#000000" font-family="sans-serif" font-size="14" lengthAdjust="spacing" textLength="19" x="337.5" y="47.8848">DB</text><rect fill="#E2E2F0" height="31.6094" rx="2.5" ry="2.5" style="stroke:#181818;stroke-width:0.5;" width="33" x="330.5" y="381.9609"/><text fill="#000000" font-family="sans-serif" font-size="14" lengthAdjust="spacing" textLength="19" x="337.5" y="403.4941">DB</text><rect fill="#FFFFFF" height="220.4609" style="stroke:#181818;stroke-width:1.0;" width="10" x="170" y="91.3125"/><rect fill="#FFFFFF" height="30.3516" style="stroke:#181818;stroke-width:1.0;" width="10" x="342" y="121.6641"/><rect fill="#FFFFFF" height="30.3516" style="stroke:#181818;stroke-width:1.0;" width="10" x="342" y="251.0703"/><ellipse cx="7.5" cy="90.5625" fill="none" rx="4" ry="4" style="stroke:#181818;stroke-width:1.5;"/><polygon fill="#181818" points="158,87.3125,168,91.3125,158,95.3125,162,91.3125" style="stroke:#181818;stroke-width:1.0;"/><line style="stroke:#181818;stroke-width:1.0;" x1="12" x2="164" y1="91.3125" y2="91.3125"/><text fill="#000000" font-family="sans-serif" font-size="13" lengthAdjust="spacing" textLength="95" x="15" y="86.4561">PUT building/{id}</text><polygon fill="#181818" points="330,117.6641,340,121.6641,330,125.6641,334,121.6641" style="stroke:#181818;stroke-width:1.0;"/><line style="stroke:#181818;stroke-width:1.0;" x1="180" x2="336" y1="121.6641" y2="121.6641"/><text fill="#000000" font-family="sans-serif" font-size="13" lengthAdjust="spacing" textLength="100" x="187" y="116.8076">find building by id</text><polygon fill="#181818" points="191,148.0156,181,152.0156,191,156.0156,187,152.0156" style="stroke:#181818;stroke-width:1.0;"/><line style="stroke:#181818;stroke-width:1.0;stroke-dasharray:2.0,2.0;" x1="185" x2="346" y1="152.0156" y2="152.0156"/><text fill="#000000" font-family="sans-serif" font-size="13" lengthAdjust="spacing" textLength="138" x="197" y="147.1592">building data / not found</text><path d="M11,167.0156 L72,167.0156 L72,175.3672 L62,185.3672 L11,185.3672 L11,167.0156 " fill="#EEEEEE" style="stroke:#000000;stroke-width:1.5;"/><rect fill="none" height="198.9453" style="stroke:#000000;stroke-width:1.5;" width="362.5" x="11" y="167.0156"/><text fill="#000000" font-family="sans-serif" font-size="13" font-weight="bold" lengthAdjust="spacing" textLength="16" x="26" y="181.5107">alt</text><text fill="#000000" font-family="sans-serif" font-size="11" font-weight="bold" lengthAdjust="spacing" textLength="97" x="87" y="180.4346">[if building found]</text><line style="stroke:#181818;stroke-width:1.0;" x1="180" x2="222" y1="207.7188" y2="207.7188"/><line style="stroke:#181818;stroke-width:1.0;" x1="222" x2="222" y1="207.7188" y2="220.7188"/><line style="stroke:#181818;stroke-width:1.0;" x1="181" x2="222" y1="220.7188" y2="220.7188"/><polygon fill="#181818" points="191,216.7188,181,220.7188,191,224.7188,187,220.7188" style="stroke:#181818;stroke-width:1.0;"/><text fill="#000000" font-family="sans-serif" font-size="13" lengthAdjust="spacing" textLength="148" x="187" y="202.8623">update building properties</text><polygon fill="#181818" points="330,247.0703,340,251.0703,330,255.0703,334,251.0703" style="stroke:#181818;stroke-width:1.0;"/><line style="stroke:#181818;stroke-width:1.0;" x1="180" x2="336" y1="251.0703" y2="251.0703"/><text fill="#000000" font-family="sans-serif" font-size="13" lengthAdjust="spacing" textLength="124" x="187" y="246.2139">save updated building</text><polygon fill="#181818" points="191,277.4219,181,281.4219,191,285.4219,187,281.4219" style="stroke:#181818;stroke-width:1.0;"/><line style="stroke:#181818;stroke-width:1.0;stroke-dasharray:2.0,2.0;" x1="185" x2="346" y1="281.4219" y2="281.4219"/><text fill="#000000" font-family="sans-serif" font-size="13" lengthAdjust="spacing" textLength="89" x="197" y="276.5654">operation result</text><ellipse cx="7.5" cy="311.0234" fill="none" rx="4" ry="4" style="stroke:#181818;stroke-width:1.5;"/><polygon fill="#181818" points="24.5,307.7734,14.5,311.7734,24.5,315.7734,20.5,311.7734" style="stroke:#181818;stroke-width:1.0;"/><ellipse cx="174.5" cy="311.0234" fill="none" rx="4" ry="4" style="stroke:#181818;stroke-width:1.5;"/><line style="stroke:#181818;stroke-width:1.0;stroke-dasharray:2.0,2.0;" x1="22.5" x2="170" y1="311.7734" y2="311.7734"/><text fill="#000000" font-family="sans-serif" font-size="13" lengthAdjust="spacing" textLength="75" x="25" y="306.917">update result</text><line style="stroke:#000000;stroke-width:1.0;stroke-dasharray:2.0,2.0;" x1="11" x2="373.5" y1="320.7734" y2="320.7734"/><text fill="#000000" font-family="sans-serif" font-size="11" font-weight="bold" lengthAdjust="spacing" textLength="118" x="16" y="332.1924">[if building not found]</text><ellipse cx="7.5" cy="357.2109" fill="none" rx="4" ry="4" style="stroke:#181818;stroke-width:1.5;"/><polygon fill="#181818" points="24.5,353.9609,14.5,357.9609,24.5,361.9609,20.5,357.9609" style="stroke:#181818;stroke-width:1.0;"/><ellipse cx="174.5" cy="357.2109" fill="none" rx="4" ry="4" style="stroke:#181818;stroke-width:1.5;"/><line style="stroke:#181818;stroke-width:1.0;stroke-dasharray:2.0,2.0;" x1="22.5" x2="170" y1="357.9609" y2="357.9609"/><text fill="#000000" font-family="sans-serif" font-size="13" lengthAdjust="spacing" textLength="143" x="25" y="353.1045">error "Building not found"</text><!--MD5=[d68725c570c3600df96c7c0bfda93820]
@startuml SD Lv2

participant " "
box "RobDroneGo" #LightBlue
    participant "Campus Management" as campus
    participant "DB" as DB
end box

[o-> campus : PUT building/{id}
activate campus

campus -> DB : find building by id
activate DB
DB - -> campus : building data / not found
deactivate DB

alt if building found

    campus -> campus : update building properties

    campus -> DB : save updated building
    activate DB
    DB - -> campus : operation result
    deactivate DB

    [o<- -o campus : update result
    deactivate campus

else if building not found

    [o<- -o campus : error "Building not found"
    deactivate campus

end

@enduml

PlantUML version 1.2022.7(Mon Aug 22 18:01:30 BST 2022)
(GPL source distribution)
Java Runtime: Java(TM) SE Runtime Environment
JVM: Java HotSpot(TM) Client VM
Default Encoding: Cp1252
Language: en
Country: US
--></g></svg>