<?xml version="1.0" encoding="UTF-8" standalone="no"?><svg xmlns="http://www.w3.org/2000/svg" xmlns:xlink="http://www.w3.org/1999/xlink" contentStyleType="text/css" height="409px" preserveAspectRatio="none" style="width:378px;height:409px;background:#FFFFFF;" version="1.1" viewBox="0 0 378 409" width="378px" zoomAndPan="magnify"><defs/><g><rect fill="#FFFFFF" height="194.1094" style="stroke:#181818;stroke-width:1.0;" width="10" x="232.5" y="114.9609"/><line style="stroke:#181818;stroke-width:0.5;stroke-dasharray:5.0,5.0;" x1="22" x2="22" y1="82.6094" y2="327.0703"/><line style="stroke:#181818;stroke-width:0.5;stroke-dasharray:5.0,5.0;" x1="237.5" x2="237.5" y1="82.6094" y2="327.0703"/><text fill="#000000" font-family="sans-serif" font-size="14" lengthAdjust="spacing" textLength="29" x="5" y="79.5332">User</text><ellipse cx="22.5" cy="13.5" fill="#E2E2F0" rx="8" ry="8" style="stroke:#181818;stroke-width:0.5;"/><path d="M22.5,21.5 L22.5,48.5 M9.5,29.5 L35.5,29.5 M22.5,48.5 L9.5,63.5 M22.5,48.5 L35.5,63.5 " fill="none" style="stroke:#181818;stroke-width:0.5;"/><text fill="#000000" font-family="sans-serif" font-size="14" lengthAdjust="spacing" textLength="29" x="5" y="340.6035">User</text><ellipse cx="22.5" cy="352.1797" fill="#E2E2F0" rx="8" ry="8" style="stroke:#181818;stroke-width:0.5;"/><path d="M22.5,360.1797 L22.5,387.1797 M9.5,368.1797 L35.5,368.1797 M22.5,387.1797 L9.5,402.1797 M22.5,387.1797 L35.5,402.1797 " fill="none" style="stroke:#181818;stroke-width:0.5;"/><rect fill="#E2E2F0" height="31.6094" rx="2.5" ry="2.5" style="stroke:#181818;stroke-width:0.5;" width="98" x="188.5" y="50"/><text fill="#000000" font-family="sans-serif" font-size="14" lengthAdjust="spacing" textLength="84" x="195.5" y="71.5332">RobDroneGo</text><rect fill="#E2E2F0" height="31.6094" rx="2.5" ry="2.5" style="stroke:#181818;stroke-width:0.5;" width="98" x="188.5" y="326.0703"/><text fill="#000000" font-family="sans-serif" font-size="14" lengthAdjust="spacing" textLength="84" x="195.5" y="347.6035">RobDroneGo</text><rect fill="#FFFFFF" height="194.1094" style="stroke:#181818;stroke-width:1.0;" width="10" x="232.5" y="114.9609"/><polygon fill="#181818" points="220.5,110.9609,230.5,114.9609,220.5,118.9609,224.5,114.9609" style="stroke:#181818;stroke-width:1.0;"/><line style="stroke:#181818;stroke-width:1.0;" x1="22.5" x2="226.5" y1="114.9609" y2="114.9609"/><text fill="#000000" font-family="sans-serif" font-size="13" lengthAdjust="spacing" textLength="86" x="29.5" y="110.1045">Go to /task/list</text><line style="stroke:#181818;stroke-width:1.0;" x1="242.5" x2="284.5" y1="161.6641" y2="161.6641"/><line style="stroke:#181818;stroke-width:1.0;" x1="284.5" x2="284.5" y1="161.6641" y2="174.6641"/><line style="stroke:#181818;stroke-width:1.0;" x1="243.5" x2="284.5" y1="174.6641" y2="174.6641"/><polygon fill="#181818" points="253.5,170.6641,243.5,174.6641,253.5,178.6641,249.5,174.6641" style="stroke:#181818;stroke-width:1.0;"/><text fill="#000000" font-family="sans-serif" font-size="13" lengthAdjust="spacing" textLength="100" x="249.5" y="140.4561">Check user's role</text><text fill="#000000" font-family="sans-serif" font-size="13" lengthAdjust="spacing" textLength="95" x="249.5" y="156.8076">and permissions</text><polygon fill="#181818" points="33.5,201.0156,23.5,205.0156,33.5,209.0156,29.5,205.0156" style="stroke:#181818;stroke-width:1.0;"/><line style="stroke:#181818;stroke-width:1.0;stroke-dasharray:2.0,2.0;" x1="27.5" x2="231.5" y1="205.0156" y2="205.0156"/><text fill="#000000" font-family="sans-serif" font-size="13" lengthAdjust="spacing" textLength="126" x="39.5" y="200.1592">Show all taskRequest</text><polygon fill="#181818" points="220.5,231.3672,230.5,235.3672,220.5,239.3672,224.5,235.3672" style="stroke:#181818;stroke-width:1.0;"/><line style="stroke:#181818;stroke-width:1.0;" x1="22.5" x2="226.5" y1="235.3672" y2="235.3672"/><text fill="#000000" font-family="sans-serif" font-size="13" lengthAdjust="spacing" textLength="134" x="29.5" y="230.5107">Click on "only pending"</text><line style="stroke:#181818;stroke-width:1.0;" x1="242.5" x2="284.5" y1="265.7188" y2="265.7188"/><line style="stroke:#181818;stroke-width:1.0;" x1="284.5" x2="284.5" y1="265.7188" y2="278.7188"/><line style="stroke:#181818;stroke-width:1.0;" x1="243.5" x2="284.5" y1="278.7188" y2="278.7188"/><polygon fill="#181818" points="253.5,274.7188,243.5,278.7188,253.5,282.7188,249.5,278.7188" style="stroke:#181818;stroke-width:1.0;"/><text fill="#000000" font-family="sans-serif" font-size="13" lengthAdjust="spacing" textLength="122" x="249.5" y="260.8623">filter taskRequest list</text><polygon fill="#181818" points="33.5,305.0703,23.5,309.0703,33.5,313.0703,29.5,309.0703" style="stroke:#181818;stroke-width:1.0;"/><line style="stroke:#181818;stroke-width:1.0;stroke-dasharray:2.0,2.0;" x1="27.5" x2="236.5" y1="309.0703" y2="309.0703"/><text fill="#000000" font-family="sans-serif" font-size="13" lengthAdjust="spacing" textLength="186" x="39.5" y="304.2139">Show only pending taskRequest</text><!--MD5=[889bc6b53930fae62ba3c284f208a97f]
@startuml SD Lv1

actor "User" as user
participant RobDroneGo as system

user -> system : Go to /task/list
activate  system

system -> system : Check user's role\nand permissions

user <- - system : Show all taskRequest

user -> system : Click on "only pending"

system -> system : filter taskRequest list

user <- - system : Show only pending taskRequest

deactivate system

@enduml

PlantUML version 1.2022.7(Mon Aug 22 18:01:30 BST 2022)
(GPL source distribution)
Java Runtime: Java(TM) SE Runtime Environment
JVM: Java HotSpot(TM) 64-Bit Server VM
Default Encoding: Cp1252
Language: pt
Country: PT
--></g></svg>