<?xml version="1.0" encoding="UTF-8" standalone="no"?><svg xmlns="http://www.w3.org/2000/svg" xmlns:xlink="http://www.w3.org/1999/xlink" contentStyleType="text/css" height="552px" preserveAspectRatio="none" style="width:623px;height:552px;background:#FFFFFF;" version="1.1" viewBox="0 0 623 552" width="623px" zoomAndPan="magnify"><defs/><g><rect fill="#ADD8E6" height="540.4375" style="stroke:#181818;stroke-width:0.5;" width="390" x="227.5" y="6"/><text fill="#000000" font-family="sans-serif" font-size="13" font-weight="bold" lengthAdjust="spacing" textLength="131" x="357" y="19.4951">RobDroneGo System</text><rect fill="#FFFFFF" height="316.5156" style="stroke:#181818;stroke-width:1.0;" width="10" x="239.5" y="131.3125"/><rect fill="#FFFFFF" height="91.0547" style="stroke:#181818;stroke-width:1.0;" width="10" x="411.5" y="222.3672"/><rect fill="#FFFFFF" height="30.3516" style="stroke:#181818;stroke-width:1.0;" width="10" x="517.5" y="161.6641"/><rect fill="#FFFFFF" height="30.3516" style="stroke:#181818;stroke-width:1.0;" width="10" x="592" y="252.7188"/><line style="stroke:#181818;stroke-width:0.5;stroke-dasharray:5.0,5.0;" x1="22" x2="22" y1="82.6094" y2="465.8281"/><line style="stroke:#181818;stroke-width:0.5;stroke-dasharray:5.0,5.0;" x1="244.5" x2="244.5" y1="82.6094" y2="465.8281"/><line style="stroke:#181818;stroke-width:0.5;stroke-dasharray:5.0,5.0;" x1="416.5" x2="416.5" y1="82.6094" y2="465.8281"/><line style="stroke:#181818;stroke-width:0.5;stroke-dasharray:5.0,5.0;" x1="522.5" x2="522.5" y1="82.6094" y2="465.8281"/><line style="stroke:#181818;stroke-width:0.5;stroke-dasharray:5.0,5.0;" x1="596.5" x2="596.5" y1="82.6094" y2="465.8281"/><text fill="#000000" font-family="sans-serif" font-size="14" lengthAdjust="spacing" textLength="29" x="5" y="79.5332">User</text><ellipse cx="22.5" cy="13.5" fill="#E2E2F0" rx="8" ry="8" style="stroke:#181818;stroke-width:0.5;"/><path d="M22.5,21.5 L22.5,48.5 M9.5,29.5 L35.5,29.5 M22.5,48.5 L9.5,63.5 M22.5,48.5 L35.5,63.5 " fill="none" style="stroke:#181818;stroke-width:0.5;"/><text fill="#000000" font-family="sans-serif" font-size="14" lengthAdjust="spacing" textLength="29" x="5" y="479.3613">User</text><ellipse cx="22.5" cy="490.9375" fill="#E2E2F0" rx="8" ry="8" style="stroke:#181818;stroke-width:0.5;"/><path d="M22.5,498.9375 L22.5,525.9375 M9.5,506.9375 L35.5,506.9375 M22.5,525.9375 L9.5,540.9375 M22.5,525.9375 L35.5,540.9375 " fill="none" style="stroke:#181818;stroke-width:0.5;"/><rect fill="#E2E2F0" height="31.6094" rx="2.5" ry="2.5" style="stroke:#181818;stroke-width:0.5;" width="26" x="231.5" y="50"/><text fill="#000000" font-family="sans-serif" font-size="14" lengthAdjust="spacing" textLength="12" x="238.5" y="71.5332">UI</text><rect fill="#E2E2F0" height="31.6094" rx="2.5" ry="2.5" style="stroke:#181818;stroke-width:0.5;" width="26" x="231.5" y="464.8281"/><text fill="#000000" font-family="sans-serif" font-size="14" lengthAdjust="spacing" textLength="12" x="238.5" y="486.3613">UI</text><rect fill="#E2E2F0" height="49.2188" rx="2.5" ry="2.5" style="stroke:#181818;stroke-width:0.5;" width="96" x="368.5" y="32.3906"/><text fill="#000000" font-family="sans-serif" font-size="14" lengthAdjust="spacing" textLength="31" x="399" y="53.9238">Task</text><text fill="#000000" font-family="sans-serif" font-size="14" lengthAdjust="spacing" textLength="82" x="375.5" y="71.5332">Management</text><rect fill="#E2E2F0" height="49.2188" rx="2.5" ry="2.5" style="stroke:#181818;stroke-width:0.5;" width="96" x="368.5" y="464.8281"/><text fill="#000000" font-family="sans-serif" font-size="14" lengthAdjust="spacing" textLength="31" x="399" y="486.3613">Task</text><text fill="#000000" font-family="sans-serif" font-size="14" lengthAdjust="spacing" textLength="82" x="375.5" y="503.9707">Management</text><rect fill="#E2E2F0" height="49.2188" rx="2.5" ry="2.5" style="stroke:#181818;stroke-width:0.5;" width="96" x="474.5" y="32.3906"/><text fill="#000000" font-family="sans-serif" font-size="14" lengthAdjust="spacing" textLength="29" x="506" y="53.9238">User</text><text fill="#000000" font-family="sans-serif" font-size="14" lengthAdjust="spacing" textLength="82" x="481.5" y="71.5332">Management</text><rect fill="#E2E2F0" height="49.2188" rx="2.5" ry="2.5" style="stroke:#181818;stroke-width:0.5;" width="96" x="474.5" y="464.8281"/><text fill="#000000" font-family="sans-serif" font-size="14" lengthAdjust="spacing" textLength="29" x="506" y="486.3613">User</text><text fill="#000000" font-family="sans-serif" font-size="14" lengthAdjust="spacing" textLength="82" x="481.5" y="503.9707">Management</text><rect fill="#E2E2F0" height="31.6094" rx="2.5" ry="2.5" style="stroke:#181818;stroke-width:0.5;" width="33" x="580.5" y="50"/><text fill="#000000" font-family="sans-serif" font-size="14" lengthAdjust="spacing" textLength="19" x="587.5" y="71.5332">DB</text><rect fill="#E2E2F0" height="31.6094" rx="2.5" ry="2.5" style="stroke:#181818;stroke-width:0.5;" width="33" x="580.5" y="464.8281"/><text fill="#000000" font-family="sans-serif" font-size="14" lengthAdjust="spacing" textLength="19" x="587.5" y="486.3613">DB</text><rect fill="#FFFFFF" height="316.5156" style="stroke:#181818;stroke-width:1.0;" width="10" x="239.5" y="131.3125"/><rect fill="#FFFFFF" height="91.0547" style="stroke:#181818;stroke-width:1.0;" width="10" x="411.5" y="222.3672"/><rect fill="#FFFFFF" height="30.3516" style="stroke:#181818;stroke-width:1.0;" width="10" x="517.5" y="161.6641"/><rect fill="#FFFFFF" height="30.3516" style="stroke:#181818;stroke-width:1.0;" width="10" x="592" y="252.7188"/><polygon fill="#181818" points="227.5,127.3125,237.5,131.3125,227.5,135.3125,231.5,131.3125" style="stroke:#181818;stroke-width:1.0;"/><line style="stroke:#181818;stroke-width:1.0;" x1="22.5" x2="233.5" y1="131.3125" y2="131.3125"/><text fill="#000000" font-family="sans-serif" font-size="13" lengthAdjust="spacing" textLength="86" x="29.5" y="110.1045">Go to /task/list</text><text fill="#000000" font-family="sans-serif" font-size="13" lengthAdjust="spacing" textLength="60" x="33.5" y="126.4561">SPA route</text><polygon fill="#181818" points="505.5,157.6641,515.5,161.6641,505.5,165.6641,509.5,161.6641" style="stroke:#181818;stroke-width:1.0;"/><line style="stroke:#181818;stroke-width:1.0;" x1="249.5" x2="511.5" y1="161.6641" y2="161.6641"/><text fill="#000000" font-family="sans-serif" font-size="13" lengthAdjust="spacing" textLength="195" x="256.5" y="156.8076">Verify user's role and permissions</text><polygon fill="#181818" points="260.5,188.0156,250.5,192.0156,260.5,196.0156,256.5,192.0156" style="stroke:#181818;stroke-width:1.0;"/><line style="stroke:#181818;stroke-width:1.0;stroke-dasharray:2.0,2.0;" x1="254.5" x2="521.5" y1="192.0156" y2="192.0156"/><text fill="#000000" font-family="sans-serif" font-size="13" lengthAdjust="spacing" textLength="126" x="266.5" y="187.1592">Permissions validated</text><polygon fill="#181818" points="399.5,218.3672,409.5,222.3672,399.5,226.3672,403.5,222.3672" style="stroke:#181818;stroke-width:1.0;"/><line style="stroke:#181818;stroke-width:1.0;" x1="249.5" x2="405.5" y1="222.3672" y2="222.3672"/><text fill="#000000" font-family="sans-serif" font-size="13" lengthAdjust="spacing" textLength="112" x="256.5" y="217.5107">List Tasks Request</text><polygon fill="#181818" points="580,248.7188,590,252.7188,580,256.7188,584,252.7188" style="stroke:#181818;stroke-width:1.0;"/><line style="stroke:#181818;stroke-width:1.0;" x1="421.5" x2="586" y1="252.7188" y2="252.7188"/><text fill="#000000" font-family="sans-serif" font-size="13" lengthAdjust="spacing" textLength="114" x="428.5" y="247.8623">Get all task request</text><polygon fill="#181818" points="432.5,279.0703,422.5,283.0703,432.5,287.0703,428.5,283.0703" style="stroke:#181818;stroke-width:1.0;"/><line style="stroke:#181818;stroke-width:1.0;stroke-dasharray:2.0,2.0;" x1="426.5" x2="596" y1="283.0703" y2="283.0703"/><text fill="#000000" font-family="sans-serif" font-size="13" lengthAdjust="spacing" textLength="138" x="438.5" y="278.2139">Return Task request list</text><polygon fill="#181818" points="260.5,309.4219,250.5,313.4219,260.5,317.4219,256.5,313.4219" style="stroke:#181818;stroke-width:1.0;"/><line style="stroke:#181818;stroke-width:1.0;stroke-dasharray:2.0,2.0;" x1="254.5" x2="415.5" y1="313.4219" y2="313.4219"/><text fill="#000000" font-family="sans-serif" font-size="13" lengthAdjust="spacing" textLength="138" x="266.5" y="308.5654">Return Task request list</text><polygon fill="#181818" points="33.5,339.7734,23.5,343.7734,33.5,347.7734,29.5,343.7734" style="stroke:#181818;stroke-width:1.0;"/><line style="stroke:#181818;stroke-width:1.0;stroke-dasharray:2.0,2.0;" x1="27.5" x2="238.5" y1="343.7734" y2="343.7734"/><text fill="#000000" font-family="sans-serif" font-size="13" lengthAdjust="spacing" textLength="129" x="39.5" y="338.917">Show all 'task request'</text><polygon fill="#181818" points="227.5,370.125,237.5,374.125,227.5,378.125,231.5,374.125" style="stroke:#181818;stroke-width:1.0;"/><line style="stroke:#181818;stroke-width:1.0;" x1="22.5" x2="233.5" y1="374.125" y2="374.125"/><text fill="#000000" font-family="sans-serif" font-size="13" lengthAdjust="spacing" textLength="193" x="29.5" y="369.2686">Click on 'Only Pending' checkbox</text><line style="stroke:#181818;stroke-width:1.0;" x1="249.5" x2="291.5" y1="404.4766" y2="404.4766"/><line style="stroke:#181818;stroke-width:1.0;" x1="291.5" x2="291.5" y1="404.4766" y2="417.4766"/><line style="stroke:#181818;stroke-width:1.0;" x1="250.5" x2="291.5" y1="417.4766" y2="417.4766"/><polygon fill="#181818" points="260.5,413.4766,250.5,417.4766,260.5,421.4766,256.5,417.4766" style="stroke:#181818;stroke-width:1.0;"/><text fill="#000000" font-family="sans-serif" font-size="13" lengthAdjust="spacing" textLength="126" x="256.5" y="399.6201">Filter task request list</text><polygon fill="#181818" points="33.5,443.8281,23.5,447.8281,33.5,451.8281,29.5,447.8281" style="stroke:#181818;stroke-width:1.0;"/><line style="stroke:#181818;stroke-width:1.0;stroke-dasharray:2.0,2.0;" x1="27.5" x2="243.5" y1="447.8281" y2="447.8281"/><text fill="#000000" font-family="sans-serif" font-size="13" lengthAdjust="spacing" textLength="189" x="39.5" y="442.9717">Show only pending 'task request'</text><!--MD5=[65ed020cd7088b498b977a1d3ea900eb]
@startuml SD Lv2

actor "User" as user
box "RobDroneGo System" #LightBlue
    participant "UI" as UI
    participant "Task \nManagement" as TaskModule
    participant "User \nManagement" as UserModule
    participant "DB" as DB
end box

user -> UI : Go to /task/list\n SPA route

activate UI
UI -> UserModule : Verify user's role and permissions
activate UserModule
UserModule - -> UI : Permissions validated
deactivate UserModule

UI -> TaskModule : List Tasks Request
activate TaskModule
TaskModule -> DB : Get all task request
activate DB
DB - -> TaskModule : Return Task request list
deactivate DB
TaskModule - -> UI : Return Task request list
deactivate TaskModule
UI - -> user : Show all 'task request'

user -> UI : Click on 'Only Pending' checkbox
UI -> UI : Filter task request list
UI - -> user : Show only pending 'task request'
deactivate UI

@enduml

PlantUML version 1.2022.7(Mon Aug 22 18:01:30 BST 2022)
(GPL source distribution)
Java Runtime: Java(TM) SE Runtime Environment
JVM: Java HotSpot(TM) 64-Bit Server VM
Default Encoding: Cp1252
Language: pt
Country: PT
--></g></svg>