<?xml version="1.0" encoding="UTF-8" standalone="no"?><svg xmlns="http://www.w3.org/2000/svg" xmlns:xlink="http://www.w3.org/1999/xlink" contentStyleType="text/css" height="1037px" preserveAspectRatio="none" style="width:1891px;height:1037px;background:#FFFFFF;" version="1.1" viewBox="0 0 1891 1037" width="1891px" zoomAndPan="magnify"><defs/><g><rect fill="#ADD8E6" height="1025.4141" style="stroke:#181818;stroke-width:0.5;" width="716" x="192.5" y="6"/><text fill="#000000" font-family="sans-serif" font-size="13" font-weight="bold" lengthAdjust="spacing" textLength="98" x="501.5" y="19.4951">RobDroneGo UI</text><rect fill="#DDDDDD" height="1004.0625" style="stroke:#181818;stroke-width:0.5;" width="302.5" x="192.5" y="27.3516"/><text fill="#000000" font-family="sans-serif" font-size="13" font-weight="bold" lengthAdjust="spacing" textLength="32" x="327.75" y="40.8467">View</text><rect fill="#DDDDDD" height="1025.4141" style="stroke:#181818;stroke-width:0.5;" width="772" x="920.5" y="6"/><text fill="#000000" font-family="sans-serif" font-size="13" font-weight="bold" lengthAdjust="spacing" textLength="268" x="1172.5" y="19.4951">RobDroneGo Backend (Task Management)</text><line style="stroke:#181818;stroke-width:0.5;stroke-dasharray:5.0,5.0;" x1="22.5" x2="22.5" y1="125.3125" y2="947.8047"/><line style="stroke:#181818;stroke-width:0.5;stroke-dasharray:5.0,5.0;" x1="259.5" x2="259.5" y1="125.3125" y2="947.8047"/><rect fill="#FFFFFF" height="775.7891" style="stroke:#181818;stroke-width:1.0;" width="10" x="254.5" y="172.0156"/><line style="stroke:#181818;stroke-width:0.5;stroke-dasharray:5.0,5.0;" x1="432.5" x2="432.5" y1="125.3125" y2="947.8047"/><rect fill="#FFFFFF" height="515.9766" style="stroke:#181818;stroke-width:1.0;" width="10" x="427.5" y="202.3672"/><rect fill="#FFFFFF" height="90.0547" style="stroke:#181818;stroke-width:1.0;" width="10" x="427.5" y="809.3984"/><line style="stroke:#181818;stroke-width:0.5;stroke-dasharray:5.0,5.0;" x1="573.5" x2="573.5" y1="125.3125" y2="947.8047"/><line style="stroke:#181818;stroke-width:0.5;stroke-dasharray:5.0,5.0;" x1="677.5" x2="677.5" y1="125.3125" y2="947.8047"/><rect fill="#FFFFFF" height="455.2734" style="stroke:#181818;stroke-width:1.0;" width="10" x="672.5" y="232.7188"/><line style="stroke:#181818;stroke-width:0.5;stroke-dasharray:5.0,5.0;" x1="873.5" x2="873.5" y1="125.3125" y2="947.8047"/><rect fill="#FFFFFF" height="30.3516" style="stroke:#181818;stroke-width:1.0;" width="10" x="868.5" y="627.2891"/><line style="stroke:#181818;stroke-width:0.5;stroke-dasharray:5.0,5.0;" x1="956" x2="956" y1="125.3125" y2="947.8047"/><rect fill="#FFFFFF" height="333.8672" style="stroke:#181818;stroke-width:1.0;" width="10" x="951" y="263.0703"/><line style="stroke:#181818;stroke-width:0.5;stroke-dasharray:5.0,5.0;" x1="1109" x2="1109" y1="125.3125" y2="947.8047"/><rect fill="#FFFFFF" height="273.1641" style="stroke:#181818;stroke-width:1.0;" width="10" x="1104" y="293.4219"/><line style="stroke:#181818;stroke-width:0.5;stroke-dasharray:5.0,5.0;" x1="1179" x2="1179" y1="125.3125" y2="947.8047"/><line style="stroke:#181818;stroke-width:0.5;stroke-dasharray:5.0,5.0;" x1="1262" x2="1262" y1="125.3125" y2="947.8047"/><rect fill="#FFFFFF" height="212.4609" style="stroke:#181818;stroke-width:1.0;" width="10" x="1257" y="323.7734"/><line style="stroke:#181818;stroke-width:0.5;stroke-dasharray:5.0,5.0;" x1="1335.5" x2="1335.5" y1="125.3125" y2="947.8047"/><line style="stroke:#181818;stroke-width:0.5;stroke-dasharray:5.0,5.0;" x1="1419.5" x2="1419.5" y1="125.3125" y2="947.8047"/><rect fill="#FFFFFF" height="91.0547" style="stroke:#181818;stroke-width:1.0;" width="10" x="1414.5" y="354.125"/><line style="stroke:#181818;stroke-width:0.5;stroke-dasharray:5.0,5.0;" x1="1572.5" x2="1572.5" y1="125.3125" y2="947.8047"/><rect fill="#FFFFFF" height="30.3516" style="stroke:#181818;stroke-width:1.0;" width="10" x="1567.5" y="384.4766"/><line style="stroke:#181818;stroke-width:0.5;stroke-dasharray:5.0,5.0;" x1="1657.5" x2="1657.5" y1="125.3125" y2="947.8047"/><rect fill="#FFFFFF" height="30.3516" style="stroke:#181818;stroke-width:1.0;" width="10" x="1652.5" y="475.5313"/><line style="stroke:#181818;stroke-width:0.5;stroke-dasharray:5.0,5.0;" x1="1797" x2="1797" y1="125.3125" y2="947.8047"/><text fill="#000000" font-family="sans-serif" font-size="14" lengthAdjust="spacing" textLength="29" x="5" y="122.2363">User</text><ellipse cx="22.5" cy="56.2031" fill="#E2E2F0" rx="8" ry="8" style="stroke:#181818;stroke-width:0.5;"/><path d="M22.5,64.2031 L22.5,91.2031 M9.5,72.2031 L35.5,72.2031 M22.5,91.2031 L9.5,106.2031 M22.5,91.2031 L35.5,106.2031 " fill="none" style="stroke:#181818;stroke-width:0.5;"/><rect fill="#E2E2F0" height="31.6094" rx="2.5" ry="2.5" style="stroke:#181818;stroke-width:0.5;" width="126" x="196.5" y="92.7031"/><text fill="#000000" font-family="sans-serif" font-size="14" lengthAdjust="spacing" textLength="112" x="203.5" y="114.2363">HTML + CSS + JS</text><rect fill="#E2E2F0" height="49.2188" rx="2.5" ry="2.5" style="stroke:#181818;stroke-width:0.5;" width="117" x="374" y="75.0938"/><text fill="#000000" font-family="sans-serif" font-size="14" lengthAdjust="spacing" textLength="88" x="388.5" y="96.627">Task Request</text><text fill="#000000" font-family="sans-serif" font-size="14" lengthAdjust="spacing" textLength="99" x="385" y="114.2363">List Component</text><rect fill="#E2E2F0" height="31.6094" rx="2.5" ry="2.5" style="stroke:#181818;stroke-width:0.5;" width="86" x="530.5" y="92.7031"/><text fill="#000000" font-family="sans-serif" font-size="14" lengthAdjust="spacing" textLength="72" x="537.5" y="114.2363">Data Model</text><rect fill="#E2E2F0" height="49.2188" rx="2.5" ry="2.5" style="stroke:#181818;stroke-width:0.5;" width="102" x="626.5" y="75.0938"/><text fill="#000000" font-family="sans-serif" font-size="14" lengthAdjust="spacing" textLength="88" x="633.5" y="96.627">Task Request</text><text fill="#000000" font-family="sans-serif" font-size="14" lengthAdjust="spacing" textLength="47" x="656" y="114.2363">Service</text><rect fill="#E2E2F0" height="31.6094" rx="2.5" ry="2.5" style="stroke:#181818;stroke-width:0.5;" width="62" x="842.5" y="92.7031"/><text fill="#000000" font-family="sans-serif" font-size="14" lengthAdjust="spacing" textLength="48" x="849.5" y="114.2363">Mapper</text><rect fill="#E2E2F0" height="31.6094" rx="2.5" ry="2.5" style="stroke:#181818;stroke-width:0.5;" width="63" x="924.5" y="92.7031"/><text fill="#000000" font-family="sans-serif" font-size="14" lengthAdjust="spacing" textLength="49" x="931.5" y="114.2363">Routing</text><rect fill="#E2E2F0" height="31.6094" rx="2.5" ry="2.5" style="stroke:#181818;stroke-width:0.5;" width="76" x="1071" y="92.7031"/><text fill="#000000" font-family="sans-serif" font-size="14" lengthAdjust="spacing" textLength="62" x="1078" y="114.2363">Controller</text><rect fill="#E2E2F0" height="31.6094" rx="2.5" ry="2.5" style="stroke:#181818;stroke-width:0.5;" width="44" x="1157" y="92.7031"/><text fill="#000000" font-family="sans-serif" font-size="14" lengthAdjust="spacing" textLength="30" x="1164" y="114.2363">DTO</text><rect fill="#E2E2F0" height="49.2188" rx="2.5" ry="2.5" style="stroke:#181818;stroke-width:0.5;" width="61" x="1231.5" y="75.0938"/><text fill="#000000" font-family="sans-serif" font-size="14" lengthAdjust="spacing" textLength="31" x="1244.5" y="96.627">Task</text><text fill="#000000" font-family="sans-serif" font-size="14" lengthAdjust="spacing" textLength="47" x="1238.5" y="114.2363">Service</text><rect fill="#E2E2F0" height="49.2188" rx="2.5" ry="2.5" style="stroke:#181818;stroke-width:0.5;" width="66" x="1302.5" y="75.0938"/><text fill="#000000" font-family="sans-serif" font-size="14" lengthAdjust="spacing" textLength="48" x="1309.5" y="96.627">Domain</text><text fill="#000000" font-family="sans-serif" font-size="14" lengthAdjust="spacing" textLength="38" x="1320.5" y="114.2363">Model</text><rect fill="#E2E2F0" height="31.6094" rx="2.5" ry="2.5" style="stroke:#181818;stroke-width:0.5;" width="82" x="1378.5" y="92.7031"/><text fill="#000000" font-family="sans-serif" font-size="14" lengthAdjust="spacing" textLength="68" x="1385.5" y="114.2363">Repository</text><rect fill="#E2E2F0" height="31.6094" rx="2.5" ry="2.5" style="stroke:#181818;stroke-width:0.5;" width="88" x="1528.5" y="92.7031"/><text fill="#000000" font-family="sans-serif" font-size="14" lengthAdjust="spacing" textLength="74" x="1535.5" y="114.2363">Persistance</text><rect fill="#E2E2F0" height="31.6094" rx="2.5" ry="2.5" style="stroke:#181818;stroke-width:0.5;" width="62" x="1626.5" y="92.7031"/><text fill="#000000" font-family="sans-serif" font-size="14" lengthAdjust="spacing" textLength="48" x="1633.5" y="114.2363">Mapper</text><rect fill="#E2E2F0" height="31.6094" rx="2.5" ry="2.5" style="stroke:#181818;stroke-width:0.5;" width="177" x="1708.5" y="92.7031"/><text fill="#000000" font-family="sans-serif" font-size="14" lengthAdjust="spacing" textLength="163" x="1715.5" y="114.2363">Campus Management API</text><text fill="#000000" font-family="sans-serif" font-size="14" lengthAdjust="spacing" textLength="29" x="5" y="1022.3379">User</text><ellipse cx="22.5" cy="956.3047" fill="#E2E2F0" rx="8" ry="8" style="stroke:#181818;stroke-width:0.5;"/><path d="M22.5,964.3047 L22.5,991.3047 M9.5,972.3047 L35.5,972.3047 M22.5,991.3047 L9.5,1006.3047 M22.5,991.3047 L35.5,1006.3047 " fill="none" style="stroke:#181818;stroke-width:0.5;"/><rect fill="#E2E2F0" height="31.6094" rx="2.5" ry="2.5" style="stroke:#181818;stroke-width:0.5;" width="126" x="196.5" y="947.8047"/><text fill="#000000" font-family="sans-serif" font-size="14" lengthAdjust="spacing" textLength="112" x="203.5" y="969.3379">HTML + CSS + JS</text><rect fill="#E2E2F0" height="49.2188" rx="2.5" ry="2.5" style="stroke:#181818;stroke-width:0.5;" width="117" x="374" y="947.8047"/><text fill="#000000" font-family="sans-serif" font-size="14" lengthAdjust="spacing" textLength="88" x="388.5" y="969.3379">Task Request</text><text fill="#000000" font-family="sans-serif" font-size="14" lengthAdjust="spacing" textLength="99" x="385" y="986.9473">List Component</text><rect fill="#E2E2F0" height="31.6094" rx="2.5" ry="2.5" style="stroke:#181818;stroke-width:0.5;" width="86" x="530.5" y="947.8047"/><text fill="#000000" font-family="sans-serif" font-size="14" lengthAdjust="spacing" textLength="72" x="537.5" y="969.3379">Data Model</text><rect fill="#E2E2F0" height="49.2188" rx="2.5" ry="2.5" style="stroke:#181818;stroke-width:0.5;" width="102" x="626.5" y="947.8047"/><text fill="#000000" font-family="sans-serif" font-size="14" lengthAdjust="spacing" textLength="88" x="633.5" y="969.3379">Task Request</text><text fill="#000000" font-family="sans-serif" font-size="14" lengthAdjust="spacing" textLength="47" x="656" y="986.9473">Service</text><rect fill="#E2E2F0" height="31.6094" rx="2.5" ry="2.5" style="stroke:#181818;stroke-width:0.5;" width="62" x="842.5" y="947.8047"/><text fill="#000000" font-family="sans-serif" font-size="14" lengthAdjust="spacing" textLength="48" x="849.5" y="969.3379">Mapper</text><rect fill="#E2E2F0" height="31.6094" rx="2.5" ry="2.5" style="stroke:#181818;stroke-width:0.5;" width="63" x="924.5" y="947.8047"/><text fill="#000000" font-family="sans-serif" font-size="14" lengthAdjust="spacing" textLength="49" x="931.5" y="969.3379">Routing</text><rect fill="#E2E2F0" height="31.6094" rx="2.5" ry="2.5" style="stroke:#181818;stroke-width:0.5;" width="76" x="1071" y="947.8047"/><text fill="#000000" font-family="sans-serif" font-size="14" lengthAdjust="spacing" textLength="62" x="1078" y="969.3379">Controller</text><rect fill="#E2E2F0" height="31.6094" rx="2.5" ry="2.5" style="stroke:#181818;stroke-width:0.5;" width="44" x="1157" y="947.8047"/><text fill="#000000" font-family="sans-serif" font-size="14" lengthAdjust="spacing" textLength="30" x="1164" y="969.3379">DTO</text><rect fill="#E2E2F0" height="49.2188" rx="2.5" ry="2.5" style="stroke:#181818;stroke-width:0.5;" width="61" x="1231.5" y="947.8047"/><text fill="#000000" font-family="sans-serif" font-size="14" lengthAdjust="spacing" textLength="31" x="1244.5" y="969.3379">Task</text><text fill="#000000" font-family="sans-serif" font-size="14" lengthAdjust="spacing" textLength="47" x="1238.5" y="986.9473">Service</text><rect fill="#E2E2F0" height="49.2188" rx="2.5" ry="2.5" style="stroke:#181818;stroke-width:0.5;" width="66" x="1302.5" y="947.8047"/><text fill="#000000" font-family="sans-serif" font-size="14" lengthAdjust="spacing" textLength="48" x="1309.5" y="969.3379">Domain</text><text fill="#000000" font-family="sans-serif" font-size="14" lengthAdjust="spacing" textLength="38" x="1320.5" y="986.9473">Model</text><rect fill="#E2E2F0" height="31.6094" rx="2.5" ry="2.5" style="stroke:#181818;stroke-width:0.5;" width="82" x="1378.5" y="947.8047"/><text fill="#000000" font-family="sans-serif" font-size="14" lengthAdjust="spacing" textLength="68" x="1385.5" y="969.3379">Repository</text><rect fill="#E2E2F0" height="31.6094" rx="2.5" ry="2.5" style="stroke:#181818;stroke-width:0.5;" width="88" x="1528.5" y="947.8047"/><text fill="#000000" font-family="sans-serif" font-size="14" lengthAdjust="spacing" textLength="74" x="1535.5" y="969.3379">Persistance</text><rect fill="#E2E2F0" height="31.6094" rx="2.5" ry="2.5" style="stroke:#181818;stroke-width:0.5;" width="62" x="1626.5" y="947.8047"/><text fill="#000000" font-family="sans-serif" font-size="14" lengthAdjust="spacing" textLength="48" x="1633.5" y="969.3379">Mapper</text><rect fill="#E2E2F0" height="31.6094" rx="2.5" ry="2.5" style="stroke:#181818;stroke-width:0.5;" width="177" x="1708.5" y="947.8047"/><text fill="#000000" font-family="sans-serif" font-size="14" lengthAdjust="spacing" textLength="163" x="1715.5" y="969.3379">Campus Management API</text><polygon fill="#181818" points="242.5,168.0156,252.5,172.0156,242.5,176.0156,246.5,172.0156" style="stroke:#181818;stroke-width:1.0;"/><line style="stroke:#181818;stroke-width:1.0;" x1="22.5" x2="248.5" y1="172.0156" y2="172.0156"/><text fill="#000000" font-family="sans-serif" font-size="13" lengthAdjust="spacing" textLength="86" x="29.5" y="150.8076">Go to /task/list</text><text fill="#000000" font-family="sans-serif" font-size="13" lengthAdjust="spacing" textLength="60" x="33.5" y="167.1592">SPA route</text><polygon fill="#181818" points="415.5,198.3672,425.5,202.3672,415.5,206.3672,419.5,202.3672" style="stroke:#181818;stroke-width:1.0;"/><line style="stroke:#181818;stroke-width:1.0;" x1="264.5" x2="421.5" y1="202.3672" y2="202.3672"/><text fill="#000000" font-family="sans-serif" font-size="13" lengthAdjust="spacing" textLength="144" x="271.5" y="197.5107">asks for taskRequest list</text><polygon fill="#181818" points="660.5,228.7188,670.5,232.7188,660.5,236.7188,664.5,232.7188" style="stroke:#181818;stroke-width:1.0;"/><line style="stroke:#181818;stroke-width:1.0;" x1="437.5" x2="666.5" y1="232.7188" y2="232.7188"/><text fill="#000000" font-family="sans-serif" font-size="13" lengthAdjust="spacing" textLength="148" x="444.5" y="227.8623">requests taskRequest list</text><polygon fill="#181818" points="939,259.0703,949,263.0703,939,267.0703,943,263.0703" style="stroke:#181818;stroke-width:1.0;"/><line style="stroke:#181818;stroke-width:1.0;" x1="682.5" x2="945" y1="263.0703" y2="263.0703"/><text fill="#000000" font-family="sans-serif" font-size="13" lengthAdjust="spacing" textLength="136" x="689.5" y="258.2139">GET /api/taskRequest()</text><polygon fill="#181818" points="1092,289.4219,1102,293.4219,1092,297.4219,1096,293.4219" style="stroke:#181818;stroke-width:1.0;"/><line style="stroke:#181818;stroke-width:1.0;" x1="961" x2="1098" y1="293.4219" y2="293.4219"/><text fill="#000000" font-family="sans-serif" font-size="13" lengthAdjust="spacing" textLength="124" x="968" y="288.5654">getAllTaskRequests()</text><polygon fill="#181818" points="1245,319.7734,1255,323.7734,1245,327.7734,1249,323.7734" style="stroke:#181818;stroke-width:1.0;"/><line style="stroke:#181818;stroke-width:1.0;" x1="1114" x2="1251" y1="323.7734" y2="323.7734"/><text fill="#000000" font-family="sans-serif" font-size="13" lengthAdjust="spacing" textLength="124" x="1121" y="318.917">getAllTaskRequests()</text><polygon fill="#181818" points="1402.5,350.125,1412.5,354.125,1402.5,358.125,1406.5,354.125" style="stroke:#181818;stroke-width:1.0;"/><line style="stroke:#181818;stroke-width:1.0;" x1="1267" x2="1408.5" y1="354.125" y2="354.125"/><text fill="#000000" font-family="sans-serif" font-size="13" lengthAdjust="spacing" textLength="124" x="1274" y="349.2686">getAllTaskRequests()</text><polygon fill="#181818" points="1555.5,380.4766,1565.5,384.4766,1555.5,388.4766,1559.5,384.4766" style="stroke:#181818;stroke-width:1.0;"/><line style="stroke:#181818;stroke-width:1.0;" x1="1424.5" x2="1561.5" y1="384.4766" y2="384.4766"/><text fill="#000000" font-family="sans-serif" font-size="13" lengthAdjust="spacing" textLength="124" x="1431.5" y="379.6201">getAllTaskRequests()</text><polygon fill="#181818" points="1435.5,410.8281,1425.5,414.8281,1435.5,418.8281,1431.5,414.8281" style="stroke:#181818;stroke-width:1.0;"/><line style="stroke:#181818;stroke-width:1.0;stroke-dasharray:2.0,2.0;" x1="1429.5" x2="1566.5" y1="414.8281" y2="414.8281"/><text fill="#000000" font-family="sans-serif" font-size="13" lengthAdjust="spacing" textLength="94" x="1441.5" y="409.9717">taskRequest list</text><polygon fill="#181818" points="1278,441.1797,1268,445.1797,1278,449.1797,1274,445.1797" style="stroke:#181818;stroke-width:1.0;"/><line style="stroke:#181818;stroke-width:1.0;stroke-dasharray:2.0,2.0;" x1="1272" x2="1413.5" y1="445.1797" y2="445.1797"/><text fill="#000000" font-family="sans-serif" font-size="13" lengthAdjust="spacing" textLength="94" x="1284" y="440.3232">taskRequest list</text><polygon fill="#181818" points="1640.5,471.5313,1650.5,475.5313,1640.5,479.5313,1644.5,475.5313" style="stroke:#181818;stroke-width:1.0;"/><line style="stroke:#181818;stroke-width:1.0;stroke-dasharray:2.0,2.0;" x1="1267" x2="1646.5" y1="475.5313" y2="475.5313"/><text fill="#000000" font-family="sans-serif" font-size="13" lengthAdjust="spacing" textLength="154" x="1274" y="470.6748">Map to TaskRequestDTO[]</text><polygon fill="#181818" points="1278,501.8828,1268,505.8828,1278,509.8828,1274,505.8828" style="stroke:#181818;stroke-width:1.0;"/><line style="stroke:#181818;stroke-width:1.0;stroke-dasharray:2.0,2.0;" x1="1272" x2="1651.5" y1="505.8828" y2="505.8828"/><text fill="#000000" font-family="sans-serif" font-size="13" lengthAdjust="spacing" textLength="110" x="1284" y="501.0264">TaskRequestDTO[]</text><polygon fill="#181818" points="1125,532.2344,1115,536.2344,1125,540.2344,1121,536.2344" style="stroke:#181818;stroke-width:1.0;"/><line style="stroke:#181818;stroke-width:1.0;stroke-dasharray:2.0,2.0;" x1="1119" x2="1256" y1="536.2344" y2="536.2344"/><text fill="#000000" font-family="sans-serif" font-size="13" lengthAdjust="spacing" textLength="110" x="1131" y="531.3779">TaskRequestDTO[]</text><polygon fill="#181818" points="972,562.5859,962,566.5859,972,570.5859,968,566.5859" style="stroke:#181818;stroke-width:1.0;"/><line style="stroke:#181818;stroke-width:1.0;stroke-dasharray:2.0,2.0;" x1="966" x2="1103" y1="566.5859" y2="566.5859"/><text fill="#000000" font-family="sans-serif" font-size="13" lengthAdjust="spacing" textLength="110" x="978" y="561.7295">TaskRequestDTO[]</text><polygon fill="#181818" points="693.5,592.9375,683.5,596.9375,693.5,600.9375,689.5,596.9375" style="stroke:#181818;stroke-width:1.0;"/><line style="stroke:#181818;stroke-width:1.0;stroke-dasharray:2.0,2.0;" x1="687.5" x2="950" y1="596.9375" y2="596.9375"/><text fill="#000000" font-family="sans-serif" font-size="13" lengthAdjust="spacing" textLength="110" x="699.5" y="592.0811">TaskRequestDTO[]</text><polygon fill="#181818" points="856.5,623.2891,866.5,627.2891,856.5,631.2891,860.5,627.2891" style="stroke:#181818;stroke-width:1.0;"/><line style="stroke:#181818;stroke-width:1.0;" x1="682.5" x2="862.5" y1="627.2891" y2="627.2891"/><text fill="#000000" font-family="sans-serif" font-size="13" lengthAdjust="spacing" textLength="167" x="689.5" y="622.4326">Map to TaskRequest[] model</text><polygon fill="#181818" points="693.5,653.6406,683.5,657.6406,693.5,661.6406,689.5,657.6406" style="stroke:#181818;stroke-width:1.0;"/><line style="stroke:#181818;stroke-width:1.0;stroke-dasharray:2.0,2.0;" x1="687.5" x2="867.5" y1="657.6406" y2="657.6406"/><text fill="#000000" font-family="sans-serif" font-size="13" lengthAdjust="spacing" textLength="123" x="699.5" y="652.7842">TaskRequest[] model</text><polygon fill="#181818" points="448.5,683.9922,438.5,687.9922,448.5,691.9922,444.5,687.9922" style="stroke:#181818;stroke-width:1.0;"/><line style="stroke:#181818;stroke-width:1.0;stroke-dasharray:2.0,2.0;" x1="442.5" x2="671.5" y1="687.9922" y2="687.9922"/><text fill="#000000" font-family="sans-serif" font-size="13" lengthAdjust="spacing" textLength="123" x="454.5" y="683.1357">TaskRequest[] model</text><polygon fill="#181818" points="275.5,714.3438,265.5,718.3438,275.5,722.3438,271.5,718.3438" style="stroke:#181818;stroke-width:1.0;"/><line style="stroke:#181818;stroke-width:1.0;stroke-dasharray:2.0,2.0;" x1="269.5" x2="426.5" y1="718.3438" y2="718.3438"/><text fill="#000000" font-family="sans-serif" font-size="13" lengthAdjust="spacing" textLength="123" x="281.5" y="713.4873">TaskRequest[] model</text><polygon fill="#181818" points="33.5,744.6953,23.5,748.6953,33.5,752.6953,29.5,748.6953" style="stroke:#181818;stroke-width:1.0;"/><line style="stroke:#181818;stroke-width:1.0;stroke-dasharray:2.0,2.0;" x1="27.5" x2="253.5" y1="748.6953" y2="748.6953"/><text fill="#000000" font-family="sans-serif" font-size="13" lengthAdjust="spacing" textLength="129" x="39.5" y="743.8389">Show all 'task request'</text><polygon fill="#181818" points="242.5,775.0469,252.5,779.0469,242.5,783.0469,246.5,779.0469" style="stroke:#181818;stroke-width:1.0;"/><line style="stroke:#181818;stroke-width:1.0;" x1="22.5" x2="248.5" y1="779.0469" y2="779.0469"/><text fill="#000000" font-family="sans-serif" font-size="13" lengthAdjust="spacing" textLength="208" x="29.5" y="774.1904">select only pending tasks checkbox</text><polygon fill="#181818" points="415.5,805.3984,425.5,809.3984,415.5,813.3984,419.5,809.3984" style="stroke:#181818;stroke-width:1.0;"/><line style="stroke:#181818;stroke-width:1.0;" x1="264.5" x2="421.5" y1="809.3984" y2="809.3984"/><text fill="#000000" font-family="sans-serif" font-size="13" lengthAdjust="spacing" textLength="107" x="271.5" y="804.542">onPendingToggle()</text><line style="stroke:#181818;stroke-width:1.0;" x1="437.5" x2="479.5" y1="856.1016" y2="856.1016"/><line style="stroke:#181818;stroke-width:1.0;" x1="479.5" x2="479.5" y1="856.1016" y2="869.1016"/><line style="stroke:#181818;stroke-width:1.0;" x1="438.5" x2="479.5" y1="869.1016" y2="869.1016"/><polygon fill="#181818" points="448.5,865.1016,438.5,869.1016,448.5,873.1016,444.5,869.1016" style="stroke:#181818;stroke-width:1.0;"/><text fill="#000000" font-family="sans-serif" font-size="13" lengthAdjust="spacing" textLength="122" x="444.5" y="834.8936">filter taskRequest list</text><text fill="#000000" font-family="sans-serif" font-size="13" lengthAdjust="spacing" textLength="91" x="448.5" y="851.2451">for only pending</text><polygon fill="#181818" points="275.5,895.4531,265.5,899.4531,275.5,903.4531,271.5,899.4531" style="stroke:#181818;stroke-width:1.0;"/><line style="stroke:#181818;stroke-width:1.0;stroke-dasharray:2.0,2.0;" x1="269.5" x2="426.5" y1="899.4531" y2="899.4531"/><text fill="#000000" font-family="sans-serif" font-size="13" lengthAdjust="spacing" textLength="123" x="281.5" y="894.5967">TaskRequest[] model</text><polygon fill="#181818" points="33.5,925.8047,23.5,929.8047,33.5,933.8047,29.5,929.8047" style="stroke:#181818;stroke-width:1.0;"/><line style="stroke:#181818;stroke-width:1.0;stroke-dasharray:2.0,2.0;" x1="27.5" x2="253.5" y1="929.8047" y2="929.8047"/><text fill="#000000" font-family="sans-serif" font-size="13" lengthAdjust="spacing" textLength="143" x="39.5" y="924.9482">show only pending tasks</text><!--MD5=[de20848805c58299ea4f6512c774161e]
@startuml SD Lv3

!pragma teoz true

actor "User" as user
box "RobDroneGo UI" #LightBlue
    box "View"
        participant "HTML + CSS + JS" as FrontEnd
        participant "Task Request\n List Component" as UIComponent
    end box
    participant "Data Model" as ModelFE
    participant "Task Request\n Service" as TaskServiceFE
    participant "Mapper" as TaskMapperFE
end box
box "RobDroneGo Backend (Task Management)"
    participant "Routing" as TaskRouteBE
    participant "Controller" as TaskControllerBE
    participant "DTO" as TaskDtoBE
    participant "Task \nService" as TaskServiceBE
    participant "Domain \n  Model" as TaskDomainModelBE
    participant "Repository" as TaskRepositoryBE
    participant "Persistance" as TaskPersistanceBE
    participant "Mapper" as TaskMapperBE
end box

participant "Campus Management API" as CampusAPI
  
user -> FrontEnd : Go to /task/list\n SPA route
activate FrontEnd


FrontEnd -> UIComponent : asks for taskRequest list
activate UIComponent
UIComponent -> TaskServiceFE : requests taskRequest list
activate TaskServiceFE
TaskServiceFE -> TaskRouteBE : GET /api/taskRequest()
activate TaskRouteBE
TaskRouteBE -> TaskControllerBE : getAllTaskRequests()
activate TaskControllerBE
TaskControllerBE -> TaskServiceBE : getAllTaskRequests()
activate TaskServiceBE
TaskServiceBE -> TaskRepositoryBE : getAllTaskRequests()
activate TaskRepositoryBE
TaskRepositoryBE -> TaskPersistanceBE : getAllTaskRequests()
activate TaskPersistanceBE
TaskPersistanceBE - -> TaskRepositoryBE : taskRequest list
deactivate TaskPersistanceBE
TaskRepositoryBE - -> TaskServiceBE : taskRequest list
deactivate TaskRepositoryBE
TaskServiceBE - -> TaskMapperBE : Map to TaskRequestDTO[]
activate TaskMapperBE
TaskMapperBE - -> TaskServiceBE : TaskRequestDTO[]
deactivate TaskMapperBE
TaskServiceBE - -> TaskControllerBE : TaskRequestDTO[]
deactivate TaskServiceBE
TaskControllerBE - -> TaskRouteBE : TaskRequestDTO[]
deactivate TaskControllerBE

TaskRouteBE - -> TaskServiceFE : TaskRequestDTO[]
deactivate TaskRouteBE
TaskServiceFE -> TaskMapperFE : Map to TaskRequest[] model
activate TaskMapperFE
TaskMapperFE - -> TaskServiceFE : TaskRequest[] model
deactivate TaskMapperFE
TaskServiceFE - -> UIComponent : TaskRequest[] model
deactivate TaskServiceFE
UIComponent - -> FrontEnd : TaskRequest[] model
deactivate UIComponent
FrontEnd - -> user : Show all 'task request'

user -> FrontEnd : select only pending tasks checkbox
FrontEnd -> UIComponent : onPendingToggle()
activate UIComponent
UIComponent -> UIComponent : filter taskRequest list\n for only pending
UIComponent - -> FrontEnd : TaskRequest[] model
deactivate UIComponent
FrontEnd - -> user : show only pending tasks


@enduml

PlantUML version 1.2022.7(Mon Aug 22 18:01:30 BST 2022)
(GPL source distribution)
Java Runtime: Java(TM) SE Runtime Environment
JVM: Java HotSpot(TM) 64-Bit Server VM
Default Encoding: Cp1252
Language: pt
Country: PT
--></g></svg>