<?xml version="1.0" encoding="UTF-8" standalone="no"?><svg xmlns="http://www.w3.org/2000/svg" xmlns:xlink="http://www.w3.org/1999/xlink" contentStyleType="text/css" height="687px" preserveAspectRatio="none" style="width:486px;height:687px;background:#FFFFFF;" version="1.1" viewBox="0 0 486 687" width="486px" zoomAndPan="magnify"><defs/><g><rect fill="#ADD8E6" height="675.5469" style="stroke:#181818;stroke-width:0.5;" width="296.5" x="157" y="6"/><text fill="#000000" font-family="sans-serif" font-size="13" font-weight="bold" lengthAdjust="spacing" textLength="138" x="236.25" y="19.4951">Campus Management</text><rect fill="#FFFFFF" height="544.625" style="stroke:#181818;stroke-width:1.0;" width="10" x="232" y="91.3125"/><rect fill="#FFFFFF" height="30.3516" style="stroke:#181818;stroke-width:1.0;" width="10" x="428" y="121.6641"/><rect fill="#FFFFFF" height="30.3516" style="stroke:#181818;stroke-width:1.0;" width="10" x="428" y="207.7188"/><rect fill="#FFFFFF" height="30.3516" style="stroke:#181818;stroke-width:1.0;" width="10" x="428" y="449.1797"/><rect fill="none" height="461.9219" style="stroke:#000000;stroke-width:1.5;" width="468.5" x="11" y="167.0156"/><rect fill="none" height="336.5156" style="stroke:#000000;stroke-width:1.5;" width="458.5" x="11" y="253.0703"/><rect fill="none" height="185.1094" style="stroke:#000000;stroke-width:1.5;" width="448.5" x="11" y="365.125"/><line style="stroke:#181818;stroke-width:0.5;stroke-dasharray:5.0,5.0;" x1="237" x2="237" y1="58.9609" y2="645.9375"/><line style="stroke:#181818;stroke-width:0.5;stroke-dasharray:5.0,5.0;" x1="432.5" x2="432.5" y1="58.9609" y2="645.9375"/><rect fill="#E2E2F0" height="31.6094" rx="2.5" ry="2.5" style="stroke:#181818;stroke-width:0.5;" width="152" x="161" y="26.3516"/><text fill="#000000" font-family="sans-serif" font-size="14" lengthAdjust="spacing" textLength="138" x="168" y="47.8848">Campus Management</text><rect fill="#E2E2F0" height="31.6094" rx="2.5" ry="2.5" style="stroke:#181818;stroke-width:0.5;" width="152" x="161" y="644.9375"/><text fill="#000000" font-family="sans-serif" font-size="14" lengthAdjust="spacing" textLength="138" x="168" y="666.4707">Campus Management</text><rect fill="#E2E2F0" height="31.6094" rx="2.5" ry="2.5" style="stroke:#181818;stroke-width:0.5;" width="33" x="416.5" y="26.3516"/><text fill="#000000" font-family="sans-serif" font-size="14" lengthAdjust="spacing" textLength="19" x="423.5" y="47.8848">DB</text><rect fill="#E2E2F0" height="31.6094" rx="2.5" ry="2.5" style="stroke:#181818;stroke-width:0.5;" width="33" x="416.5" y="644.9375"/><text fill="#000000" font-family="sans-serif" font-size="14" lengthAdjust="spacing" textLength="19" x="423.5" y="666.4707">DB</text><rect fill="#FFFFFF" height="544.625" style="stroke:#181818;stroke-width:1.0;" width="10" x="232" y="91.3125"/><rect fill="#FFFFFF" height="30.3516" style="stroke:#181818;stroke-width:1.0;" width="10" x="428" y="121.6641"/><rect fill="#FFFFFF" height="30.3516" style="stroke:#181818;stroke-width:1.0;" width="10" x="428" y="207.7188"/><rect fill="#FFFFFF" height="30.3516" style="stroke:#181818;stroke-width:1.0;" width="10" x="428" y="449.1797"/><ellipse cx="7.5" cy="90.5625" fill="none" rx="4" ry="4" style="stroke:#181818;stroke-width:1.5;"/><polygon fill="#181818" points="220,87.3125,230,91.3125,220,95.3125,224,91.3125" style="stroke:#181818;stroke-width:1.0;"/><line style="stroke:#181818;stroke-width:1.0;" x1="12" x2="226" y1="91.3125" y2="91.3125"/><text fill="#000000" font-family="sans-serif" font-size="13" lengthAdjust="spacing" textLength="72" x="15" y="86.4561">POST /room</text><polygon fill="#181818" points="416,117.6641,426,121.6641,416,125.6641,420,121.6641" style="stroke:#181818;stroke-width:1.0;"/><line style="stroke:#181818;stroke-width:1.0;" x1="242" x2="422" y1="121.6641" y2="121.6641"/><text fill="#000000" font-family="sans-serif" font-size="13" lengthAdjust="spacing" textLength="117" x="249" y="116.8076">check if room exists</text><polygon fill="#181818" points="253,148.0156,243,152.0156,253,156.0156,249,152.0156" style="stroke:#181818;stroke-width:1.0;"/><line style="stroke:#181818;stroke-width:1.0;stroke-dasharray:2.0,2.0;" x1="247" x2="432" y1="152.0156" y2="152.0156"/><text fill="#000000" font-family="sans-serif" font-size="13" lengthAdjust="spacing" textLength="162" x="259" y="147.1592">room exists / does not exist</text><path d="M11,167.0156 L72,167.0156 L72,175.3672 L62,185.3672 L11,185.3672 L11,167.0156 " fill="#EEEEEE" style="stroke:#000000;stroke-width:1.5;"/><rect fill="none" height="461.9219" style="stroke:#000000;stroke-width:1.5;" width="468.5" x="11" y="167.0156"/><text fill="#000000" font-family="sans-serif" font-size="13" font-weight="bold" lengthAdjust="spacing" textLength="16" x="26" y="181.5107">alt</text><text fill="#000000" font-family="sans-serif" font-size="11" font-weight="bold" lengthAdjust="spacing" textLength="130" x="87" y="180.4346">[if room does not exist]</text><polygon fill="#181818" points="416,203.7188,426,207.7188,416,211.7188,420,207.7188" style="stroke:#181818;stroke-width:1.0;"/><line style="stroke:#181818;stroke-width:1.0;" x1="242" x2="422" y1="207.7188" y2="207.7188"/><text fill="#000000" font-family="sans-serif" font-size="13" lengthAdjust="spacing" textLength="112" x="249" y="202.8623">check if floor exists</text><polygon fill="#181818" points="253,234.0703,243,238.0703,253,242.0703,249,238.0703" style="stroke:#181818;stroke-width:1.0;"/><line style="stroke:#181818;stroke-width:1.0;stroke-dasharray:2.0,2.0;" x1="247" x2="432" y1="238.0703" y2="238.0703"/><text fill="#000000" font-family="sans-serif" font-size="13" lengthAdjust="spacing" textLength="157" x="259" y="233.2139">floor exists / does not exist</text><path d="M11,253.0703 L72,253.0703 L72,261.4219 L62,271.4219 L11,271.4219 L11,253.0703 " fill="#EEEEEE" style="stroke:#000000;stroke-width:1.5;"/><rect fill="none" height="336.5156" style="stroke:#000000;stroke-width:1.5;" width="458.5" x="11" y="253.0703"/><text fill="#000000" font-family="sans-serif" font-size="13" font-weight="bold" lengthAdjust="spacing" textLength="16" x="26" y="267.5654">alt</text><text fill="#000000" font-family="sans-serif" font-size="11" font-weight="bold" lengthAdjust="spacing" textLength="81" x="87" y="266.4893">[if floor exists]</text><line style="stroke:#181818;stroke-width:1.0;" x1="242" x2="284" y1="293.7734" y2="293.7734"/><line style="stroke:#181818;stroke-width:1.0;" x1="284" x2="284" y1="293.7734" y2="306.7734"/><line style="stroke:#181818;stroke-width:1.0;" x1="243" x2="284" y1="306.7734" y2="306.7734"/><polygon fill="#181818" points="253,302.7734,243,306.7734,253,310.7734,249,306.7734" style="stroke:#181818;stroke-width:1.0;"/><text fill="#000000" font-family="sans-serif" font-size="13" lengthAdjust="spacing" textLength="141" x="249" y="288.917">validate room within floor</text><line style="stroke:#181818;stroke-width:1.0;" x1="242" x2="284" y1="337.125" y2="337.125"/><line style="stroke:#181818;stroke-width:1.0;" x1="284" x2="284" y1="337.125" y2="350.125"/><line style="stroke:#181818;stroke-width:1.0;" x1="243" x2="284" y1="350.125" y2="350.125"/><polygon fill="#181818" points="253,346.125,243,350.125,253,354.125,249,350.125" style="stroke:#181818;stroke-width:1.0;"/><text fill="#000000" font-family="sans-serif" font-size="13" lengthAdjust="spacing" textLength="112" x="249" y="332.2686">check room overlap</text><path d="M11,365.125 L72,365.125 L72,373.4766 L62,383.4766 L11,383.4766 L11,365.125 " fill="#EEEEEE" style="stroke:#000000;stroke-width:1.5;"/><rect fill="none" height="185.1094" style="stroke:#000000;stroke-width:1.5;" width="448.5" x="11" y="365.125"/><text fill="#000000" font-family="sans-serif" font-size="13" font-weight="bold" lengthAdjust="spacing" textLength="16" x="26" y="379.6201">alt</text><text fill="#000000" font-family="sans-serif" font-size="11" font-weight="bold" lengthAdjust="spacing" textLength="107" x="87" y="378.5439">[if validations pass]</text><line style="stroke:#181818;stroke-width:1.0;" x1="242" x2="284" y1="405.8281" y2="405.8281"/><line style="stroke:#181818;stroke-width:1.0;" x1="284" x2="284" y1="405.8281" y2="418.8281"/><line style="stroke:#181818;stroke-width:1.0;" x1="243" x2="284" y1="418.8281" y2="418.8281"/><polygon fill="#181818" points="253,414.8281,243,418.8281,253,422.8281,249,418.8281" style="stroke:#181818;stroke-width:1.0;"/><text fill="#000000" font-family="sans-serif" font-size="13" lengthAdjust="spacing" textLength="96" x="249" y="400.9717">create new room</text><polygon fill="#181818" points="416,445.1797,426,449.1797,416,453.1797,420,449.1797" style="stroke:#181818;stroke-width:1.0;"/><line style="stroke:#181818;stroke-width:1.0;" x1="242" x2="422" y1="449.1797" y2="449.1797"/><text fill="#000000" font-family="sans-serif" font-size="13" lengthAdjust="spacing" textLength="86" x="249" y="444.3232">save new room</text><polygon fill="#181818" points="253,475.5313,243,479.5313,253,483.5313,249,479.5313" style="stroke:#181818;stroke-width:1.0;"/><line style="stroke:#181818;stroke-width:1.0;stroke-dasharray:2.0,2.0;" x1="247" x2="432" y1="479.5313" y2="479.5313"/><text fill="#000000" font-family="sans-serif" font-size="13" lengthAdjust="spacing" textLength="49" x="259" y="474.6748">success</text><ellipse cx="7.5" cy="509.1328" fill="none" rx="4" ry="4" style="stroke:#181818;stroke-width:1.5;"/><polygon fill="#181818" points="24.5,505.8828,14.5,509.8828,24.5,513.8828,20.5,509.8828" style="stroke:#181818;stroke-width:1.0;"/><ellipse cx="231.5" cy="509.1328" fill="none" rx="4" ry="4" style="stroke:#181818;stroke-width:1.5;"/><line style="stroke:#181818;stroke-width:1.0;stroke-dasharray:2.0,2.0;" x1="22.5" x2="227" y1="509.8828" y2="509.8828"/><text fill="#000000" font-family="sans-serif" font-size="13" lengthAdjust="spacing" textLength="65" x="25" y="505.0264">room result</text><line style="stroke:#000000;stroke-width:1.0;stroke-dasharray:2.0,2.0;" x1="11" x2="459.5" y1="518.8828" y2="518.8828"/><ellipse cx="7.5" cy="541.4844" fill="none" rx="4" ry="4" style="stroke:#181818;stroke-width:1.5;"/><polygon fill="#181818" points="24.5,538.2344,14.5,542.2344,24.5,546.2344,20.5,542.2344" style="stroke:#181818;stroke-width:1.0;"/><ellipse cx="231.5" cy="541.4844" fill="none" rx="4" ry="4" style="stroke:#181818;stroke-width:1.5;"/><line style="stroke:#181818;stroke-width:1.0;stroke-dasharray:2.0,2.0;" x1="22.5" x2="227" y1="542.2344" y2="542.2344"/><text fill="#000000" font-family="sans-serif" font-size="13" lengthAdjust="spacing" textLength="186" x="25" y="537.3779">error message (validation failure)</text><line style="stroke:#000000;stroke-width:1.0;stroke-dasharray:2.0,2.0;" x1="11" x2="469.5" y1="558.2344" y2="558.2344"/><ellipse cx="7.5" cy="580.8359" fill="none" rx="4" ry="4" style="stroke:#181818;stroke-width:1.5;"/><polygon fill="#181818" points="24.5,577.5859,14.5,581.5859,24.5,585.5859,20.5,581.5859" style="stroke:#181818;stroke-width:1.0;"/><ellipse cx="231.5" cy="580.8359" fill="none" rx="4" ry="4" style="stroke:#181818;stroke-width:1.5;"/><line style="stroke:#181818;stroke-width:1.0;stroke-dasharray:2.0,2.0;" x1="22.5" x2="227" y1="581.5859" y2="581.5859"/><text fill="#000000" font-family="sans-serif" font-size="13" lengthAdjust="spacing" textLength="205" x="25" y="576.7295">error message (floor does not exist)</text><line style="stroke:#000000;stroke-width:1.0;stroke-dasharray:2.0,2.0;" x1="11" x2="479.5" y1="597.5859" y2="597.5859"/><ellipse cx="7.5" cy="620.1875" fill="none" rx="4" ry="4" style="stroke:#181818;stroke-width:1.5;"/><polygon fill="#181818" points="24.5,616.9375,14.5,620.9375,24.5,624.9375,20.5,620.9375" style="stroke:#181818;stroke-width:1.0;"/><ellipse cx="231.5" cy="620.1875" fill="none" rx="4" ry="4" style="stroke:#181818;stroke-width:1.5;"/><line style="stroke:#181818;stroke-width:1.0;stroke-dasharray:2.0,2.0;" x1="22.5" x2="227" y1="620.9375" y2="620.9375"/><text fill="#000000" font-family="sans-serif" font-size="13" lengthAdjust="spacing" textLength="163" x="25" y="616.0811">error message (room exists)</text><!--MD5=[2ff5e132352881875fb2383dacfb027e]
@startuml SD Lv2

box "Campus Management" #LightBlue
    participant "Campus Management" as campus
    participant "DB" as DB
end box

[o-> campus : POST /room
activate campus

campus -> DB : check if room exists
activate DB
DB - -> campus : room exists / does not exist
deactivate DB

alt if room does not exist

    campus -> DB : check if floor exists
    activate DB
    DB - -> campus : floor exists / does not exist
    deactivate DB

    alt if floor exists
        campus -> campus : validate room within floor
        campus -> campus : check room overlap

        alt if validations pass
            campus -> campus : create new room

            campus -> DB : save new room
            activate DB
            DB - -> campus : success
            deactivate DB

            [o<- -o campus : room result
        else
            [o<- -o campus : error message (validation failure)
        end
    else
        [o<- -o campus : error message (floor does not exist)
    end

else
    [o<- -o campus : error message (room exists)
end

deactivate campus

@enduml

PlantUML version 1.2022.7(Mon Aug 22 18:01:30 BST 2022)
(GPL source distribution)
Java Runtime: Java(TM) SE Runtime Environment
JVM: Java HotSpot(TM) Client VM
Default Encoding: Cp1252
Language: en
Country: US
--></g></svg>