<?xml version="1.0" encoding="UTF-8" standalone="no"?><svg xmlns="http://www.w3.org/2000/svg" xmlns:xlink="http://www.w3.org/1999/xlink" contentStyleType="text/css" height="306px" preserveAspectRatio="none" style="width:299px;height:306px;background:#FFFFFF;" version="1.1" viewBox="0 0 299 306" width="299px" zoomAndPan="magnify"><defs/><g><rect fill="#FFFFFF" height="189.7578" style="stroke:#181818;stroke-width:1.0;" width="10" x="110" y="69.9609"/><rect fill="none" height="124.4063" style="stroke:#000000;stroke-width:1.5;" width="281" x="11" y="128.3125"/><line style="stroke:#181818;stroke-width:0.5;stroke-dasharray:5.0,5.0;" x1="115" x2="115" y1="37.6094" y2="269.7188"/><rect fill="#E2E2F0" height="31.6094" rx="2.5" ry="2.5" style="stroke:#181818;stroke-width:0.5;" width="152" x="39" y="5"/><text fill="#000000" font-family="sans-serif" font-size="14" lengthAdjust="spacing" textLength="138" x="46" y="26.5332">Campus Management</text><rect fill="#E2E2F0" height="31.6094" rx="2.5" ry="2.5" style="stroke:#181818;stroke-width:0.5;" width="152" x="39" y="268.7188"/><text fill="#000000" font-family="sans-serif" font-size="14" lengthAdjust="spacing" textLength="138" x="46" y="290.252">Campus Management</text><rect fill="#FFFFFF" height="189.7578" style="stroke:#181818;stroke-width:1.0;" width="10" x="110" y="69.9609"/><ellipse cx="7.5" cy="69.2109" fill="none" rx="4" ry="4" style="stroke:#181818;stroke-width:1.5;"/><polygon fill="#181818" points="98,65.9609,108,69.9609,98,73.9609,102,69.9609" style="stroke:#181818;stroke-width:1.0;"/><line style="stroke:#181818;stroke-width:1.0;" x1="12" x2="104" y1="69.9609" y2="69.9609"/><text fill="#000000" font-family="sans-serif" font-size="13" lengthAdjust="spacing" textLength="72" x="15" y="65.1045">POST /room</text><line style="stroke:#181818;stroke-width:1.0;" x1="120" x2="162" y1="100.3125" y2="100.3125"/><line style="stroke:#181818;stroke-width:1.0;" x1="162" x2="162" y1="100.3125" y2="113.3125"/><line style="stroke:#181818;stroke-width:1.0;" x1="121" x2="162" y1="113.3125" y2="113.3125"/><polygon fill="#181818" points="131,109.3125,121,113.3125,131,117.3125,127,113.3125" style="stroke:#181818;stroke-width:1.0;"/><text fill="#000000" font-family="sans-serif" font-size="13" lengthAdjust="spacing" textLength="155" x="127" y="95.4561">Check room already exists</text><path d="M11,128.3125 L72,128.3125 L72,136.6641 L62,146.6641 L11,146.6641 L11,128.3125 " fill="#EEEEEE" style="stroke:#000000;stroke-width:1.5;"/><rect fill="none" height="124.4063" style="stroke:#000000;stroke-width:1.5;" width="281" x="11" y="128.3125"/><text fill="#000000" font-family="sans-serif" font-size="13" font-weight="bold" lengthAdjust="spacing" textLength="16" x="26" y="142.8076">alt</text><text fill="#000000" font-family="sans-serif" font-size="11" font-weight="bold" lengthAdjust="spacing" textLength="120" x="87" y="141.7314">[room does not exist]</text><line style="stroke:#181818;stroke-width:1.0;" x1="120" x2="162" y1="169.0156" y2="169.0156"/><line style="stroke:#181818;stroke-width:1.0;" x1="162" x2="162" y1="169.0156" y2="182.0156"/><line style="stroke:#181818;stroke-width:1.0;" x1="121" x2="162" y1="182.0156" y2="182.0156"/><polygon fill="#181818" points="131,178.0156,121,182.0156,131,186.0156,127,182.0156" style="stroke:#181818;stroke-width:1.0;"/><text fill="#000000" font-family="sans-serif" font-size="13" lengthAdjust="spacing" textLength="153" x="127" y="164.1592">Create and save new room</text><ellipse cx="7.5" cy="211.6172" fill="none" rx="4" ry="4" style="stroke:#181818;stroke-width:1.5;"/><polygon fill="#181818" points="24.5,208.3672,14.5,212.3672,24.5,216.3672,20.5,212.3672" style="stroke:#181818;stroke-width:1.0;"/><ellipse cx="109.5" cy="211.6172" fill="none" rx="4" ry="4" style="stroke:#181818;stroke-width:1.5;"/><line style="stroke:#181818;stroke-width:1.0;stroke-dasharray:2.0,2.0;" x1="22.5" x2="105" y1="212.3672" y2="212.3672"/><text fill="#000000" font-family="sans-serif" font-size="13" lengthAdjust="spacing" textLength="65" x="25" y="207.5107">room result</text><line style="stroke:#000000;stroke-width:1.0;stroke-dasharray:2.0,2.0;" x1="11" x2="292" y1="221.3672" y2="221.3672"/><ellipse cx="7.5" cy="243.9688" fill="none" rx="4" ry="4" style="stroke:#181818;stroke-width:1.5;"/><polygon fill="#181818" points="24.5,240.7188,14.5,244.7188,24.5,248.7188,20.5,244.7188" style="stroke:#181818;stroke-width:1.0;"/><ellipse cx="109.5" cy="243.9688" fill="none" rx="4" ry="4" style="stroke:#181818;stroke-width:1.5;"/><line style="stroke:#181818;stroke-width:1.0;stroke-dasharray:2.0,2.0;" x1="22.5" x2="105" y1="244.7188" y2="244.7188"/><text fill="#000000" font-family="sans-serif" font-size="13" lengthAdjust="spacing" textLength="83" x="25" y="239.8623">error message</text><!--MD5=[6de4084694633949965472eb579e3511]
@startuml SD Lv1

participant "Campus Management" as system
[o-> system : POST /room
activate system

system -> system : Check room already exists
alt room does not exist
    system -> system : Create and save new room
    [o<- -o system : room result
else
    [o<- -o system : error message
end
deactivate system

@enduml

PlantUML version 1.2022.7(Mon Aug 22 18:01:30 BST 2022)
(GPL source distribution)
Java Runtime: Java(TM) SE Runtime Environment
JVM: Java HotSpot(TM) Client VM
Default Encoding: Cp1252
Language: en
Country: US
--></g></svg>