<?xml version="1.0" encoding="UTF-8" standalone="no"?><svg xmlns="http://www.w3.org/2000/svg" xmlns:xlink="http://www.w3.org/1999/xlink" contentStyleType="text/css" height="320px" preserveAspectRatio="none" style="width:308px;height:320px;background:#FFFFFF;" version="1.1" viewBox="0 0 308 320" width="308px" zoomAndPan="magnify"><defs/><g><rect fill="#FFFFFF" height="203.5938" style="stroke:#181818;stroke-width:1.0;" width="10" x="114" y="69.9609"/><rect fill="none" height="138.2422" style="stroke:#000000;stroke-width:1.5;" width="249" x="11" y="128.3125"/><line style="stroke:#181818;stroke-width:0.5;stroke-dasharray:5.0,5.0;" x1="119" x2="119" y1="37.6094" y2="283.5547"/><rect fill="#E2E2F0" height="31.6094" rx="2.5" ry="2.5" style="stroke:#181818;stroke-width:0.5;" width="98" x="70" y="5"/><text fill="#000000" font-family="sans-serif" font-size="14" lengthAdjust="spacing" textLength="84" x="77" y="26.5332">RobDroneGo</text><rect fill="#E2E2F0" height="31.6094" rx="2.5" ry="2.5" style="stroke:#181818;stroke-width:0.5;" width="98" x="70" y="282.5547"/><text fill="#000000" font-family="sans-serif" font-size="14" lengthAdjust="spacing" textLength="84" x="77" y="304.0879">RobDroneGo</text><rect fill="#FFFFFF" height="203.5938" style="stroke:#181818;stroke-width:1.0;" width="10" x="114" y="69.9609"/><ellipse cx="7.5" cy="69.2109" fill="none" rx="4" ry="4" style="stroke:#181818;stroke-width:1.5;"/><polygon fill="#181818" points="102,65.9609,112,69.9609,102,73.9609,106,69.9609" style="stroke:#181818;stroke-width:1.0;"/><line style="stroke:#181818;stroke-width:1.0;" x1="12" x2="108" y1="69.9609" y2="69.9609"/><text fill="#000000" font-family="sans-serif" font-size="13" lengthAdjust="spacing" textLength="87" x="15" y="65.1045">POST /building</text><line style="stroke:#181818;stroke-width:1.0;" x1="124" x2="166" y1="100.3125" y2="100.3125"/><line style="stroke:#181818;stroke-width:1.0;" x1="166" x2="166" y1="100.3125" y2="113.3125"/><line style="stroke:#181818;stroke-width:1.0;" x1="125" x2="166" y1="113.3125" y2="113.3125"/><polygon fill="#181818" points="135,109.3125,125,113.3125,135,117.3125,131,113.3125" style="stroke:#181818;stroke-width:1.0;"/><text fill="#000000" font-family="sans-serif" font-size="13" lengthAdjust="spacing" textLength="170" x="131" y="95.4561">Check building already exists</text><path d="M11,128.3125 L72,128.3125 L72,136.6641 L62,146.6641 L11,146.6641 L11,128.3125 " fill="#EEEEEE" style="stroke:#000000;stroke-width:1.5;"/><rect fill="none" height="138.2422" style="stroke:#000000;stroke-width:1.5;" width="249" x="11" y="128.3125"/><text fill="#000000" font-family="sans-serif" font-size="13" font-weight="bold" lengthAdjust="spacing" textLength="16" x="26" y="142.8076">alt</text><text fill="#000000" font-family="sans-serif" font-size="11" font-weight="bold" lengthAdjust="spacing" textLength="168" x="87" y="141.7314">[same building does not exist]</text><line style="stroke:#181818;stroke-width:1.0;" x1="124" x2="166" y1="169.0156" y2="169.0156"/><line style="stroke:#181818;stroke-width:1.0;" x1="166" x2="166" y1="169.0156" y2="182.0156"/><line style="stroke:#181818;stroke-width:1.0;" x1="125" x2="166" y1="182.0156" y2="182.0156"/><polygon fill="#181818" points="135,178.0156,125,182.0156,135,186.0156,131,182.0156" style="stroke:#181818;stroke-width:1.0;"/><text fill="#000000" font-family="sans-serif" font-size="13" lengthAdjust="spacing" textLength="103" x="131" y="164.1592">Save new building</text><ellipse cx="7.5" cy="211.6172" fill="none" rx="4" ry="4" style="stroke:#181818;stroke-width:1.5;"/><polygon fill="#181818" points="24.5,208.3672,14.5,212.3672,24.5,216.3672,20.5,212.3672" style="stroke:#181818;stroke-width:1.0;"/><ellipse cx="113.5" cy="211.6172" fill="none" rx="4" ry="4" style="stroke:#181818;stroke-width:1.5;"/><line style="stroke:#181818;stroke-width:1.0;stroke-dasharray:2.0,2.0;" x1="22.5" x2="109" y1="212.3672" y2="212.3672"/><text fill="#000000" font-family="sans-serif" font-size="13" lengthAdjust="spacing" textLength="80" x="25" y="207.5107">building result</text><line style="stroke:#000000;stroke-width:1.0;stroke-dasharray:2.0,2.0;" x1="11" x2="260" y1="221.3672" y2="221.3672"/><text fill="#000000" font-family="sans-serif" font-size="11" font-weight="bold" lengthAdjust="spacing" textLength="156" x="16" y="232.7861">[if building with code exists]</text><ellipse cx="7.5" cy="257.8047" fill="none" rx="4" ry="4" style="stroke:#181818;stroke-width:1.5;"/><polygon fill="#181818" points="24.5,254.5547,14.5,258.5547,24.5,262.5547,20.5,258.5547" style="stroke:#181818;stroke-width:1.0;"/><ellipse cx="113.5" cy="257.8047" fill="none" rx="4" ry="4" style="stroke:#181818;stroke-width:1.5;"/><line style="stroke:#181818;stroke-width:1.0;stroke-dasharray:2.0,2.0;" x1="22.5" x2="109" y1="258.5547" y2="258.5547"/><text fill="#000000" font-family="sans-serif" font-size="13" lengthAdjust="spacing" textLength="83" x="25" y="253.6982">error message</text><!--MD5=[5fdbc79354ed37165df839addfa25238]
@startuml SD Lv1

participant RobDroneGo as system
[o-> system : POST /building
activate system

system -> system : Check building already exists

alt same building does not exist

    system -> system : Save new building

    [o<- -o system : building result
    
else if building with code exists

    [o<- -o system : error message

end
deactivate system

@enduml

PlantUML version 1.2022.7(Mon Aug 22 18:01:30 BST 2022)
(GPL source distribution)
Java Runtime: Java(TM) SE Runtime Environment
JVM: Java HotSpot(TM) Client VM
Default Encoding: Cp1252
Language: en
Country: US
--></g></svg>