<?xml version="1.0" encoding="UTF-8" standalone="no"?><svg xmlns="http://www.w3.org/2000/svg" xmlns:xlink="http://www.w3.org/1999/xlink" contentStyleType="text/css" height="198px" preserveAspectRatio="none" style="width:210px;height:198px;background:#FFFFFF;" version="1.1" viewBox="0 0 210 198" width="210px" zoomAndPan="magnify"><defs/><g><rect fill="#FFFFFF" height="73.7031" style="stroke:#181818;stroke-width:1.0;" width="10" x="110" y="69.9609"/><line style="stroke:#181818;stroke-width:0.5;stroke-dasharray:5.0,5.0;" x1="115" x2="115" y1="37.6094" y2="161.6641"/><rect fill="#E2E2F0" height="31.6094" rx="2.5" ry="2.5" style="stroke:#181818;stroke-width:0.5;" width="98" x="66" y="5"/><text fill="#000000" font-family="sans-serif" font-size="14" lengthAdjust="spacing" textLength="84" x="73" y="26.5332">RobDroneGo</text><rect fill="#E2E2F0" height="31.6094" rx="2.5" ry="2.5" style="stroke:#181818;stroke-width:0.5;" width="98" x="66" y="160.6641"/><text fill="#000000" font-family="sans-serif" font-size="14" lengthAdjust="spacing" textLength="84" x="73" y="182.1973">RobDroneGo</text><rect fill="#FFFFFF" height="73.7031" style="stroke:#181818;stroke-width:1.0;" width="10" x="110" y="69.9609"/><ellipse cx="7.5" cy="69.2109" fill="none" rx="4" ry="4" style="stroke:#181818;stroke-width:1.5;"/><polygon fill="#181818" points="98,65.9609,108,69.9609,98,73.9609,102,69.9609" style="stroke:#181818;stroke-width:1.0;"/><line style="stroke:#181818;stroke-width:1.0;" x1="12" x2="104" y1="69.9609" y2="69.9609"/><text fill="#000000" font-family="sans-serif" font-size="13" lengthAdjust="spacing" textLength="83" x="15" y="65.1045">POST building</text><line style="stroke:#181818;stroke-width:1.0;" x1="120" x2="162" y1="100.3125" y2="100.3125"/><line style="stroke:#181818;stroke-width:1.0;" x1="162" x2="162" y1="100.3125" y2="113.3125"/><line style="stroke:#181818;stroke-width:1.0;" x1="121" x2="162" y1="113.3125" y2="113.3125"/><polygon fill="#181818" points="131,109.3125,121,113.3125,131,117.3125,127,113.3125" style="stroke:#181818;stroke-width:1.0;"/><text fill="#000000" font-family="sans-serif" font-size="13" lengthAdjust="spacing" textLength="76" x="127" y="95.4561">Save building</text><ellipse cx="7.5" cy="142.9141" fill="none" rx="4" ry="4" style="stroke:#181818;stroke-width:1.5;"/><polygon fill="#181818" points="24.5,139.6641,14.5,143.6641,24.5,147.6641,20.5,143.6641" style="stroke:#181818;stroke-width:1.0;"/><ellipse cx="114.5" cy="142.9141" fill="none" rx="4" ry="4" style="stroke:#181818;stroke-width:1.5;"/><line style="stroke:#181818;stroke-width:1.0;stroke-dasharray:2.0,2.0;" x1="22.5" x2="110" y1="143.6641" y2="143.6641"/><text fill="#000000" font-family="sans-serif" font-size="13" lengthAdjust="spacing" textLength="80" x="25" y="138.8076">building result</text><!--MD5=[80c2f06fc630726408eb0957471d2453]
@startuml SD Lv1

participant RobDroneGo as system
[o-> system : POST building
activate system

system -> system : Save building

[o<- -o system : building result
deactivate system

@enduml

PlantUML version 1.2022.7(Mon Aug 22 18:01:30 BST 2022)
(GPL source distribution)
Java Runtime: Java(TM) SE Runtime Environment
JVM: Java HotSpot(TM) Client VM
Default Encoding: Cp1252
Language: en
Country: US
--></g></svg>