<?xml version="1.0" encoding="UTF-8" standalone="no"?><svg xmlns="http://www.w3.org/2000/svg" xmlns:xlink="http://www.w3.org/1999/xlink" contentStyleType="text/css" height="424px" preserveAspectRatio="none" style="width:372px;height:424px;background:#FFFFFF;" version="1.1" viewBox="0 0 372 424" width="372px" zoomAndPan="magnify"><defs/><g><rect fill="#ADD8E6" height="412.5703" style="stroke:#181818;stroke-width:0.5;" width="320.5" x="39" y="6"/><text fill="#000000" font-family="sans-serif" font-size="13" font-weight="bold" lengthAdjust="spacing" textLength="81" x="158.75" y="19.4951">RobDroneGo</text><rect fill="#FFFFFF" height="281.6484" style="stroke:#181818;stroke-width:1.0;" width="10" x="114" y="91.3125"/><rect fill="#FFFFFF" height="30.3516" style="stroke:#181818;stroke-width:1.0;" width="10" x="334" y="121.6641"/><rect fill="#FFFFFF" height="30.3516" style="stroke:#181818;stroke-width:1.0;" width="10" x="334" y="251.0703"/><rect fill="none" height="198.9453" style="stroke:#000000;stroke-width:1.5;" width="354.5" x="11" y="167.0156"/><line style="stroke:#181818;stroke-width:0.5;stroke-dasharray:5.0,5.0;" x1="119" x2="119" y1="58.9609" y2="382.9609"/><line style="stroke:#181818;stroke-width:0.5;stroke-dasharray:5.0,5.0;" x1="338.5" x2="338.5" y1="58.9609" y2="382.9609"/><rect fill="#E2E2F0" height="31.6094" rx="2.5" ry="2.5" style="stroke:#181818;stroke-width:0.5;" width="152" x="43" y="26.3516"/><text fill="#000000" font-family="sans-serif" font-size="14" lengthAdjust="spacing" textLength="138" x="50" y="47.8848">Campus Management</text><rect fill="#E2E2F0" height="31.6094" rx="2.5" ry="2.5" style="stroke:#181818;stroke-width:0.5;" width="152" x="43" y="381.9609"/><text fill="#000000" font-family="sans-serif" font-size="14" lengthAdjust="spacing" textLength="138" x="50" y="403.4941">Campus Management</text><rect fill="#E2E2F0" height="31.6094" rx="2.5" ry="2.5" style="stroke:#181818;stroke-width:0.5;" width="33" x="322.5" y="26.3516"/><text fill="#000000" font-family="sans-serif" font-size="14" lengthAdjust="spacing" textLength="19" x="329.5" y="47.8848">DB</text><rect fill="#E2E2F0" height="31.6094" rx="2.5" ry="2.5" style="stroke:#181818;stroke-width:0.5;" width="33" x="322.5" y="381.9609"/><text fill="#000000" font-family="sans-serif" font-size="14" lengthAdjust="spacing" textLength="19" x="329.5" y="403.4941">DB</text><rect fill="#FFFFFF" height="281.6484" style="stroke:#181818;stroke-width:1.0;" width="10" x="114" y="91.3125"/><rect fill="#FFFFFF" height="30.3516" style="stroke:#181818;stroke-width:1.0;" width="10" x="334" y="121.6641"/><rect fill="#FFFFFF" height="30.3516" style="stroke:#181818;stroke-width:1.0;" width="10" x="334" y="251.0703"/><ellipse cx="7.5" cy="90.5625" fill="none" rx="4" ry="4" style="stroke:#181818;stroke-width:1.5;"/><polygon fill="#181818" points="102,87.3125,112,91.3125,102,95.3125,106,91.3125" style="stroke:#181818;stroke-width:1.0;"/><line style="stroke:#181818;stroke-width:1.0;" x1="12" x2="108" y1="91.3125" y2="91.3125"/><text fill="#000000" font-family="sans-serif" font-size="13" lengthAdjust="spacing" textLength="87" x="15" y="86.4561">POST /building</text><polygon fill="#181818" points="322,117.6641,332,121.6641,322,125.6641,326,121.6641" style="stroke:#181818;stroke-width:1.0;"/><line style="stroke:#181818;stroke-width:1.0;" x1="124" x2="328" y1="121.6641" y2="121.6641"/><text fill="#000000" font-family="sans-serif" font-size="13" lengthAdjust="spacing" textLength="191" x="131" y="116.8076">check if building with code exists</text><polygon fill="#181818" points="135,148.0156,125,152.0156,135,156.0156,131,152.0156" style="stroke:#181818;stroke-width:1.0;"/><line style="stroke:#181818;stroke-width:1.0;stroke-dasharray:2.0,2.0;" x1="129" x2="338" y1="152.0156" y2="152.0156"/><text fill="#000000" font-family="sans-serif" font-size="13" lengthAdjust="spacing" textLength="177" x="141" y="147.1592">building exists / does not exist</text><path d="M11,167.0156 L72,167.0156 L72,175.3672 L62,185.3672 L11,185.3672 L11,167.0156 " fill="#EEEEEE" style="stroke:#000000;stroke-width:1.5;"/><rect fill="none" height="198.9453" style="stroke:#000000;stroke-width:1.5;" width="354.5" x="11" y="167.0156"/><text fill="#000000" font-family="sans-serif" font-size="13" font-weight="bold" lengthAdjust="spacing" textLength="16" x="26" y="181.5107">alt</text><text fill="#000000" font-family="sans-serif" font-size="11" font-weight="bold" lengthAdjust="spacing" textLength="201" x="87" y="180.4346">[if building with code does not exist]</text><line style="stroke:#181818;stroke-width:1.0;" x1="124" x2="166" y1="207.7188" y2="207.7188"/><line style="stroke:#181818;stroke-width:1.0;" x1="166" x2="166" y1="207.7188" y2="220.7188"/><line style="stroke:#181818;stroke-width:1.0;" x1="125" x2="166" y1="220.7188" y2="220.7188"/><polygon fill="#181818" points="135,216.7188,125,220.7188,135,224.7188,131,220.7188" style="stroke:#181818;stroke-width:1.0;"/><text fill="#000000" font-family="sans-serif" font-size="13" lengthAdjust="spacing" textLength="111" x="131" y="202.8623">create new building</text><polygon fill="#181818" points="322,247.0703,332,251.0703,322,255.0703,326,251.0703" style="stroke:#181818;stroke-width:1.0;"/><line style="stroke:#181818;stroke-width:1.0;" x1="124" x2="328" y1="251.0703" y2="251.0703"/><text fill="#000000" font-family="sans-serif" font-size="13" lengthAdjust="spacing" textLength="101" x="131" y="246.2139">save new building</text><polygon fill="#181818" points="135,277.4219,125,281.4219,135,285.4219,131,281.4219" style="stroke:#181818;stroke-width:1.0;"/><line style="stroke:#181818;stroke-width:1.0;stroke-dasharray:2.0,2.0;" x1="129" x2="338" y1="281.4219" y2="281.4219"/><text fill="#000000" font-family="sans-serif" font-size="13" lengthAdjust="spacing" textLength="49" x="141" y="276.5654">success</text><ellipse cx="7.5" cy="311.0234" fill="none" rx="4" ry="4" style="stroke:#181818;stroke-width:1.5;"/><polygon fill="#181818" points="24.5,307.7734,14.5,311.7734,24.5,315.7734,20.5,311.7734" style="stroke:#181818;stroke-width:1.0;"/><ellipse cx="113.5" cy="311.0234" fill="none" rx="4" ry="4" style="stroke:#181818;stroke-width:1.5;"/><line style="stroke:#181818;stroke-width:1.0;stroke-dasharray:2.0,2.0;" x1="22.5" x2="109" y1="311.7734" y2="311.7734"/><text fill="#000000" font-family="sans-serif" font-size="13" lengthAdjust="spacing" textLength="80" x="25" y="306.917">building result</text><line style="stroke:#000000;stroke-width:1.0;stroke-dasharray:2.0,2.0;" x1="11" x2="365.5" y1="320.7734" y2="320.7734"/><text fill="#000000" font-family="sans-serif" font-size="11" font-weight="bold" lengthAdjust="spacing" textLength="156" x="16" y="332.1924">[if building with code exists]</text><ellipse cx="7.5" cy="357.2109" fill="none" rx="4" ry="4" style="stroke:#181818;stroke-width:1.5;"/><polygon fill="#181818" points="24.5,353.9609,14.5,357.9609,24.5,361.9609,20.5,357.9609" style="stroke:#181818;stroke-width:1.0;"/><ellipse cx="113.5" cy="357.2109" fill="none" rx="4" ry="4" style="stroke:#181818;stroke-width:1.5;"/><line style="stroke:#181818;stroke-width:1.0;stroke-dasharray:2.0,2.0;" x1="22.5" x2="109" y1="357.9609" y2="357.9609"/><text fill="#000000" font-family="sans-serif" font-size="13" lengthAdjust="spacing" textLength="83" x="25" y="353.1045">error message</text><!--MD5=[d33982df1198118f8b758f0811c3a885]
@startuml SD Lv2

box "RobDroneGo" #LightBlue
    participant "Campus Management" as campus
    participant "DB" as DB
end box

[o-> campus : POST /building
activate campus

campus -> DB : check if building with code exists
activate DB
DB - -> campus : building exists / does not exist
deactivate DB

alt if building with code does not exist

    campus -> campus : create new building

    campus -> DB : save new building
    activate DB
    DB - -> campus : success
    deactivate DB

    [o<- -o campus : building result

else if building with code exists

    [o<- -o campus : error message

end
deactivate campus

@enduml

PlantUML version 1.2022.7(Mon Aug 22 18:01:30 BST 2022)
(GPL source distribution)
Java Runtime: Java(TM) SE Runtime Environment
JVM: Java HotSpot(TM) Client VM
Default Encoding: Cp1252
Language: en
Country: US
--></g></svg>