<?xml version="1.0" encoding="UTF-8" standalone="no"?><svg xmlns="http://www.w3.org/2000/svg" xmlns:xlink="http://www.w3.org/1999/xlink" contentStyleType="text/css" height="424px" preserveAspectRatio="none" style="width:519px;height:424px;background:#FFFFFF;" version="1.1" viewBox="0 0 519 424" width="519px" zoomAndPan="magnify"><defs/><g><rect fill="#ADD8E6" height="412.5703" style="stroke:#181818;stroke-width:0.5;" width="324.5" x="182" y="6"/><text fill="#000000" font-family="sans-serif" font-size="13" font-weight="bold" lengthAdjust="spacing" textLength="81" x="303.75" y="19.4951">RobDroneGo</text><rect fill="#FFFFFF" height="220.4609" style="stroke:#181818;stroke-width:1.0;" width="10" x="257" y="91.3125"/><rect fill="#FFFFFF" height="30.3516" style="stroke:#181818;stroke-width:1.0;" width="10" x="481" y="121.6641"/><rect fill="#FFFFFF" height="30.3516" style="stroke:#181818;stroke-width:1.0;" width="10" x="481" y="251.0703"/><rect fill="none" height="198.9453" style="stroke:#000000;stroke-width:1.5;" width="501.5" x="11" y="167.0156"/><line style="stroke:#181818;stroke-width:0.5;stroke-dasharray:5.0,5.0;" x1="262" x2="262" y1="58.9609" y2="382.9609"/><line style="stroke:#181818;stroke-width:0.5;stroke-dasharray:5.0,5.0;" x1="485.5" x2="485.5" y1="58.9609" y2="382.9609"/><rect fill="#E2E2F0" height="31.6094" rx="2.5" ry="2.5" style="stroke:#181818;stroke-width:0.5;" width="152" x="186" y="26.3516"/><text fill="#000000" font-family="sans-serif" font-size="14" lengthAdjust="spacing" textLength="138" x="193" y="47.8848">Campus Management</text><rect fill="#E2E2F0" height="31.6094" rx="2.5" ry="2.5" style="stroke:#181818;stroke-width:0.5;" width="152" x="186" y="381.9609"/><text fill="#000000" font-family="sans-serif" font-size="14" lengthAdjust="spacing" textLength="138" x="193" y="403.4941">Campus Management</text><rect fill="#E2E2F0" height="31.6094" rx="2.5" ry="2.5" style="stroke:#181818;stroke-width:0.5;" width="33" x="469.5" y="26.3516"/><text fill="#000000" font-family="sans-serif" font-size="14" lengthAdjust="spacing" textLength="19" x="476.5" y="47.8848">DB</text><rect fill="#E2E2F0" height="31.6094" rx="2.5" ry="2.5" style="stroke:#181818;stroke-width:0.5;" width="33" x="469.5" y="381.9609"/><text fill="#000000" font-family="sans-serif" font-size="14" lengthAdjust="spacing" textLength="19" x="476.5" y="403.4941">DB</text><rect fill="#FFFFFF" height="220.4609" style="stroke:#181818;stroke-width:1.0;" width="10" x="257" y="91.3125"/><rect fill="#FFFFFF" height="30.3516" style="stroke:#181818;stroke-width:1.0;" width="10" x="481" y="121.6641"/><rect fill="#FFFFFF" height="30.3516" style="stroke:#181818;stroke-width:1.0;" width="10" x="481" y="251.0703"/><ellipse cx="7.5" cy="90.5625" fill="none" rx="4" ry="4" style="stroke:#181818;stroke-width:1.5;"/><polygon fill="#181818" points="245,87.3125,255,91.3125,245,95.3125,249,91.3125" style="stroke:#181818;stroke-width:1.0;"/><line style="stroke:#181818;stroke-width:1.0;" x1="12" x2="251" y1="91.3125" y2="91.3125"/><text fill="#000000" font-family="sans-serif" font-size="13" lengthAdjust="spacing" textLength="103" x="15" y="86.4561">PUT /floor/{floorId}</text><polygon fill="#181818" points="469,117.6641,479,121.6641,469,125.6641,473,121.6641" style="stroke:#181818;stroke-width:1.0;"/><line style="stroke:#181818;stroke-width:1.0;" x1="267" x2="475" y1="121.6641" y2="121.6641"/><text fill="#000000" font-family="sans-serif" font-size="13" lengthAdjust="spacing" textLength="123" x="274" y="116.8076">check floor existence</text><polygon fill="#181818" points="278,148.0156,268,152.0156,278,156.0156,274,152.0156" style="stroke:#181818;stroke-width:1.0;"/><line style="stroke:#181818;stroke-width:1.0;stroke-dasharray:2.0,2.0;" x1="272" x2="485" y1="152.0156" y2="152.0156"/><text fill="#000000" font-family="sans-serif" font-size="13" lengthAdjust="spacing" textLength="118" x="284" y="147.1592">floor data / not found</text><path d="M11,167.0156 L72,167.0156 L72,175.3672 L62,185.3672 L11,185.3672 L11,167.0156 " fill="#EEEEEE" style="stroke:#000000;stroke-width:1.5;"/><rect fill="none" height="198.9453" style="stroke:#000000;stroke-width:1.5;" width="501.5" x="11" y="167.0156"/><text fill="#000000" font-family="sans-serif" font-size="13" font-weight="bold" lengthAdjust="spacing" textLength="16" x="26" y="181.5107">alt</text><text fill="#000000" font-family="sans-serif" font-size="11" font-weight="bold" lengthAdjust="spacing" textLength="79" x="87" y="180.4346">[if floor found]</text><line style="stroke:#181818;stroke-width:1.0;" x1="267" x2="309" y1="207.7188" y2="207.7188"/><line style="stroke:#181818;stroke-width:1.0;" x1="309" x2="309" y1="207.7188" y2="220.7188"/><line style="stroke:#181818;stroke-width:1.0;" x1="268" x2="309" y1="220.7188" y2="220.7188"/><polygon fill="#181818" points="278,216.7188,268,220.7188,278,224.7188,274,220.7188" style="stroke:#181818;stroke-width:1.0;"/><text fill="#000000" font-family="sans-serif" font-size="13" lengthAdjust="spacing" textLength="200" x="274" y="202.8623">validate and update floor properties</text><polygon fill="#181818" points="469,247.0703,479,251.0703,469,255.0703,473,251.0703" style="stroke:#181818;stroke-width:1.0;"/><line style="stroke:#181818;stroke-width:1.0;" x1="267" x2="475" y1="251.0703" y2="251.0703"/><text fill="#000000" font-family="sans-serif" font-size="13" lengthAdjust="spacing" textLength="104" x="274" y="246.2139">save updated floor</text><polygon fill="#181818" points="278,277.4219,268,281.4219,278,285.4219,274,281.4219" style="stroke:#181818;stroke-width:1.0;"/><line style="stroke:#181818;stroke-width:1.0;stroke-dasharray:2.0,2.0;" x1="272" x2="485" y1="281.4219" y2="281.4219"/><text fill="#000000" font-family="sans-serif" font-size="13" lengthAdjust="spacing" textLength="119" x="284" y="276.5654">save operation result</text><ellipse cx="7.5" cy="311.0234" fill="none" rx="4" ry="4" style="stroke:#181818;stroke-width:1.5;"/><polygon fill="#181818" points="24.5,307.7734,14.5,311.7734,24.5,315.7734,20.5,311.7734" style="stroke:#181818;stroke-width:1.0;"/><ellipse cx="261.5" cy="311.0234" fill="none" rx="4" ry="4" style="stroke:#181818;stroke-width:1.5;"/><line style="stroke:#181818;stroke-width:1.0;stroke-dasharray:2.0,2.0;" x1="22.5" x2="257" y1="311.7734" y2="311.7734"/><text fill="#000000" font-family="sans-serif" font-size="13" lengthAdjust="spacing" textLength="120" x="25" y="306.917">floor update success</text><line style="stroke:#000000;stroke-width:1.0;stroke-dasharray:2.0,2.0;" x1="11" x2="512.5" y1="320.7734" y2="320.7734"/><text fill="#000000" font-family="sans-serif" font-size="11" font-weight="bold" lengthAdjust="spacing" textLength="200" x="16" y="332.1924">[if floor not found or building invalid]</text><ellipse cx="7.5" cy="357.2109" fill="none" rx="4" ry="4" style="stroke:#181818;stroke-width:1.5;"/><polygon fill="#181818" points="24.5,353.9609,14.5,357.9609,24.5,361.9609,20.5,357.9609" style="stroke:#181818;stroke-width:1.0;"/><ellipse cx="261.5" cy="357.2109" fill="none" rx="4" ry="4" style="stroke:#181818;stroke-width:1.5;"/><line style="stroke:#181818;stroke-width:1.0;stroke-dasharray:2.0,2.0;" x1="22.5" x2="257" y1="357.9609" y2="357.9609"/><text fill="#000000" font-family="sans-serif" font-size="13" lengthAdjust="spacing" textLength="230" x="25" y="353.1045">error "Floor not found or Building invalid"</text><!--MD5=[b91a38b3915d0e4cfed76961758177ae]
@startuml SD Lv2

box "RobDroneGo" #LightBlue
    participant "Campus Management" as campus
    participant "DB" as DB
end box

[o-> campus : PUT /floor/{floorId}
activate campus

campus -> DB : check floor existence
activate DB
DB - -> campus : floor data / not found
deactivate DB

alt if floor found

    campus -> campus : validate and update floor properties

    campus -> DB : save updated floor
    activate DB
    DB - -> campus : save operation result
    deactivate DB

    [o<- -o campus : floor update success
    deactivate campus

else if floor not found or building invalid

    [o<- -o campus : error "Floor not found or Building invalid"
    deactivate campus

end

@enduml

PlantUML version 1.2022.7(Mon Aug 22 18:01:30 BST 2022)
(GPL source distribution)
Java Runtime: Java(TM) SE Runtime Environment
JVM: Java HotSpot(TM) Client VM
Default Encoding: Cp1252
Language: en
Country: US
--></g></svg>