<?xml version="1.0" encoding="UTF-8" standalone="no"?><svg xmlns="http://www.w3.org/2000/svg" xmlns:xlink="http://www.w3.org/1999/xlink" contentStyleType="text/css" height="346px" preserveAspectRatio="none" style="width:301px;height:346px;background:#FFFFFF;" version="1.1" viewBox="0 0 301 346" width="301px" zoomAndPan="magnify"><defs/><g><rect fill="#ADD8E6" height="334.0313" style="stroke:#181818;stroke-width:0.5;" width="212.5" x="83" y="6"/><text fill="#000000" font-family="sans-serif" font-size="13" font-weight="bold" lengthAdjust="spacing" textLength="81" x="148.75" y="19.4951">RobDroneGo</text><rect fill="#FFFFFF" height="195.1094" style="stroke:#181818;stroke-width:1.0;" width="10" x="148" y="91.3125"/><rect fill="#FFFFFF" height="30.3516" style="stroke:#181818;stroke-width:1.0;" width="10" x="270" y="121.6641"/><rect fill="#FFFFFF" height="30.3516" style="stroke:#181818;stroke-width:1.0;" width="10" x="270" y="225.7188"/><line style="stroke:#181818;stroke-width:0.5;stroke-dasharray:5.0,5.0;" x1="14" x2="14" y1="58.9609" y2="304.4219"/><line style="stroke:#181818;stroke-width:0.5;stroke-dasharray:5.0,5.0;" x1="153" x2="153" y1="58.9609" y2="304.4219"/><line style="stroke:#181818;stroke-width:0.5;stroke-dasharray:5.0,5.0;" x1="274.5" x2="274.5" y1="58.9609" y2="304.4219"/><rect fill="#E2E2F0" height="31.6094" rx="2.5" ry="2.5" style="stroke:#181818;stroke-width:0.5;" width="18" x="5" y="26.3516"/><text fill="#000000" font-family="sans-serif" font-size="14" lengthAdjust="spacing" textLength="4" x="12" y="47.8848"> </text><rect fill="#E2E2F0" height="31.6094" rx="2.5" ry="2.5" style="stroke:#181818;stroke-width:0.5;" width="18" x="5" y="303.4219"/><text fill="#000000" font-family="sans-serif" font-size="14" lengthAdjust="spacing" textLength="4" x="12" y="324.9551"> </text><rect fill="#E2E2F0" height="31.6094" rx="2.5" ry="2.5" style="stroke:#181818;stroke-width:0.5;" width="132" x="87" y="26.3516"/><text fill="#000000" font-family="sans-serif" font-size="14" lengthAdjust="spacing" textLength="118" x="94" y="47.8848">Fleet Management</text><rect fill="#E2E2F0" height="31.6094" rx="2.5" ry="2.5" style="stroke:#181818;stroke-width:0.5;" width="132" x="87" y="303.4219"/><text fill="#000000" font-family="sans-serif" font-size="14" lengthAdjust="spacing" textLength="118" x="94" y="324.9551">Fleet Management</text><rect fill="#E2E2F0" height="31.6094" rx="2.5" ry="2.5" style="stroke:#181818;stroke-width:0.5;" width="33" x="258.5" y="26.3516"/><text fill="#000000" font-family="sans-serif" font-size="14" lengthAdjust="spacing" textLength="19" x="265.5" y="47.8848">DB</text><rect fill="#E2E2F0" height="31.6094" rx="2.5" ry="2.5" style="stroke:#181818;stroke-width:0.5;" width="33" x="258.5" y="303.4219"/><text fill="#000000" font-family="sans-serif" font-size="14" lengthAdjust="spacing" textLength="19" x="265.5" y="324.9551">DB</text><rect fill="#FFFFFF" height="195.1094" style="stroke:#181818;stroke-width:1.0;" width="10" x="148" y="91.3125"/><rect fill="#FFFFFF" height="30.3516" style="stroke:#181818;stroke-width:1.0;" width="10" x="270" y="121.6641"/><rect fill="#FFFFFF" height="30.3516" style="stroke:#181818;stroke-width:1.0;" width="10" x="270" y="225.7188"/><ellipse cx="7.5" cy="90.5625" fill="none" rx="4" ry="4" style="stroke:#181818;stroke-width:1.5;"/><polygon fill="#181818" points="136,87.3125,146,91.3125,136,95.3125,140,91.3125" style="stroke:#181818;stroke-width:1.0;"/><line style="stroke:#181818;stroke-width:1.0;" x1="12" x2="142" y1="91.3125" y2="91.3125"/><text fill="#000000" font-family="sans-serif" font-size="13" lengthAdjust="spacing" textLength="121" x="15" y="86.4561">Post (robot type info)</text><polygon fill="#181818" points="258,117.6641,268,121.6641,258,125.6641,262,121.6641" style="stroke:#181818;stroke-width:1.0;"/><line style="stroke:#181818;stroke-width:1.0;" x1="158" x2="264" y1="121.6641" y2="121.6641"/><text fill="#000000" font-family="sans-serif" font-size="13" lengthAdjust="spacing" textLength="83" x="165" y="116.8076">get task types</text><polygon fill="#181818" points="169,148.0156,159,152.0156,169,156.0156,165,152.0156" style="stroke:#181818;stroke-width:1.0;"/><line style="stroke:#181818;stroke-width:1.0;stroke-dasharray:2.0,2.0;" x1="163" x2="274" y1="152.0156" y2="152.0156"/><text fill="#000000" font-family="sans-serif" font-size="13" lengthAdjust="spacing" textLength="61" x="175" y="147.1592">task types</text><line style="stroke:#181818;stroke-width:1.0;" x1="158" x2="200" y1="182.3672" y2="182.3672"/><line style="stroke:#181818;stroke-width:1.0;" x1="200" x2="200" y1="182.3672" y2="195.3672"/><line style="stroke:#181818;stroke-width:1.0;" x1="159" x2="200" y1="195.3672" y2="195.3672"/><polygon fill="#181818" points="169,191.3672,159,195.3672,169,199.3672,165,195.3672" style="stroke:#181818;stroke-width:1.0;"/><text fill="#000000" font-family="sans-serif" font-size="13" lengthAdjust="spacing" textLength="98" x="165" y="177.5107">create robot type</text><polygon fill="#181818" points="258,221.7188,268,225.7188,258,229.7188,262,225.7188" style="stroke:#181818;stroke-width:1.0;"/><line style="stroke:#181818;stroke-width:1.0;" x1="158" x2="264" y1="225.7188" y2="225.7188"/><text fill="#000000" font-family="sans-serif" font-size="13" lengthAdjust="spacing" textLength="88" x="165" y="220.8623">save robot type</text><polygon fill="#181818" points="169,252.0703,159,256.0703,169,260.0703,165,256.0703" style="stroke:#181818;stroke-width:1.0;"/><line style="stroke:#181818;stroke-width:1.0;stroke-dasharray:2.0,2.0;" x1="163" x2="274" y1="256.0703" y2="256.0703"/><text fill="#000000" font-family="sans-serif" font-size="13" lengthAdjust="spacing" textLength="58" x="175" y="251.2139">robot type</text><ellipse cx="7.5" cy="285.6719" fill="none" rx="4" ry="4" style="stroke:#181818;stroke-width:1.5;"/><polygon fill="#181818" points="24.5,282.4219,14.5,286.4219,24.5,290.4219,20.5,286.4219" style="stroke:#181818;stroke-width:1.0;"/><ellipse cx="152.5" cy="285.6719" fill="none" rx="4" ry="4" style="stroke:#181818;stroke-width:1.5;"/><line style="stroke:#181818;stroke-width:1.0;stroke-dasharray:2.0,2.0;" x1="22.5" x2="148" y1="286.4219" y2="286.4219"/><text fill="#000000" font-family="sans-serif" font-size="13" lengthAdjust="spacing" textLength="58" x="25" y="281.5654">robot type</text><!--MD5=[970a949eb911dba6b57baf5d6602a663]
@startuml SD Lv2

participant " "
box "RobDroneGo" #LightBlue
    participant "Fleet Management" as fleet
    participant "DB" as DB
end box

[o-> fleet : Post (robot type info)
activate fleet

fleet -> DB : get task types
activate DB

DB - -> fleet : task types
deactivate DB

fleet -> fleet : create robot type

fleet -> DB : save robot type
activate DB
DB - -> fleet : robot type
deactivate DB

[o<- -o fleet : robot type
deactivate fleet

@enduml

PlantUML version 1.2022.7(Mon Aug 22 18:01:30 BST 2022)
(GPL source distribution)
Java Runtime: Java(TM) SE Runtime Environment
JVM: Java HotSpot(TM) 64-Bit Server VM
Default Encoding: Cp1252
Language: pt
Country: PT
--></g></svg>