<?xml version="1.0" encoding="UTF-8" standalone="no"?><svg xmlns="http://www.w3.org/2000/svg" xmlns:xlink="http://www.w3.org/1999/xlink" contentStyleType="text/css" height="740px" preserveAspectRatio="none" style="width:836px;height:740px;background:#FFFFFF;" version="1.1" viewBox="0 0 836 740" width="836px" zoomAndPan="magnify"><defs/><g><rect fill="#ADD8E6" height="728.25" style="stroke:#181818;stroke-width:0.5;" width="636.5" x="193.5" y="6"/><text fill="#000000" font-family="sans-serif" font-size="13" font-weight="bold" lengthAdjust="spacing" textLength="131" x="446.25" y="19.4951">RobDroneGo System</text><rect fill="#FFFFFF" height="513.3281" style="stroke:#181818;stroke-width:1.0;" width="10" x="205.5" y="131.3125"/><rect fill="#FFFFFF" height="91.0547" style="stroke:#181818;stroke-width:1.0;" width="10" x="364.5" y="497.8828"/><rect fill="#FFFFFF" height="30.3516" style="stroke:#181818;stroke-width:1.0;" width="10" x="470.5" y="161.6641"/><rect fill="#FFFFFF" height="91.0547" style="stroke:#181818;stroke-width:1.0;" width="10" x="576.5" y="283.0703"/><rect fill="#FFFFFF" height="30.3516" style="stroke:#181818;stroke-width:1.0;" width="10" x="804.5" y="313.4219"/><rect fill="#FFFFFF" height="30.3516" style="stroke:#181818;stroke-width:1.0;" width="10" x="804.5" y="528.2344"/><line style="stroke:#181818;stroke-width:0.5;stroke-dasharray:5.0,5.0;" x1="22" x2="22" y1="82.6094" y2="653.6406"/><line style="stroke:#181818;stroke-width:0.5;stroke-dasharray:5.0,5.0;" x1="210.5" x2="210.5" y1="82.6094" y2="653.6406"/><line style="stroke:#181818;stroke-width:0.5;stroke-dasharray:5.0,5.0;" x1="369.5" x2="369.5" y1="82.6094" y2="653.6406"/><line style="stroke:#181818;stroke-width:0.5;stroke-dasharray:5.0,5.0;" x1="475.5" x2="475.5" y1="82.6094" y2="653.6406"/><line style="stroke:#181818;stroke-width:0.5;stroke-dasharray:5.0,5.0;" x1="581.5" x2="581.5" y1="82.6094" y2="653.6406"/><line style="stroke:#181818;stroke-width:0.5;stroke-dasharray:5.0,5.0;" x1="809" x2="809" y1="82.6094" y2="653.6406"/><text fill="#000000" font-family="sans-serif" font-size="14" lengthAdjust="spacing" textLength="29" x="5" y="79.5332">User</text><ellipse cx="22.5" cy="13.5" fill="#E2E2F0" rx="8" ry="8" style="stroke:#181818;stroke-width:0.5;"/><path d="M22.5,21.5 L22.5,48.5 M9.5,29.5 L35.5,29.5 M22.5,48.5 L9.5,63.5 M22.5,48.5 L35.5,63.5 " fill="none" style="stroke:#181818;stroke-width:0.5;"/><text fill="#000000" font-family="sans-serif" font-size="14" lengthAdjust="spacing" textLength="29" x="5" y="667.1738">User</text><ellipse cx="22.5" cy="678.75" fill="#E2E2F0" rx="8" ry="8" style="stroke:#181818;stroke-width:0.5;"/><path d="M22.5,686.75 L22.5,713.75 M9.5,694.75 L35.5,694.75 M22.5,713.75 L9.5,728.75 M22.5,713.75 L35.5,728.75 " fill="none" style="stroke:#181818;stroke-width:0.5;"/><rect fill="#E2E2F0" height="31.6094" rx="2.5" ry="2.5" style="stroke:#181818;stroke-width:0.5;" width="26" x="197.5" y="50"/><text fill="#000000" font-family="sans-serif" font-size="14" lengthAdjust="spacing" textLength="12" x="204.5" y="71.5332">UI</text><rect fill="#E2E2F0" height="31.6094" rx="2.5" ry="2.5" style="stroke:#181818;stroke-width:0.5;" width="26" x="197.5" y="652.6406"/><text fill="#000000" font-family="sans-serif" font-size="14" lengthAdjust="spacing" textLength="12" x="204.5" y="674.1738">UI</text><rect fill="#E2E2F0" height="49.2188" rx="2.5" ry="2.5" style="stroke:#181818;stroke-width:0.5;" width="96" x="321.5" y="32.3906"/><text fill="#000000" font-family="sans-serif" font-size="14" lengthAdjust="spacing" textLength="31" x="352" y="53.9238">Task</text><text fill="#000000" font-family="sans-serif" font-size="14" lengthAdjust="spacing" textLength="82" x="328.5" y="71.5332">Management</text><rect fill="#E2E2F0" height="49.2188" rx="2.5" ry="2.5" style="stroke:#181818;stroke-width:0.5;" width="96" x="321.5" y="652.6406"/><text fill="#000000" font-family="sans-serif" font-size="14" lengthAdjust="spacing" textLength="31" x="352" y="674.1738">Task</text><text fill="#000000" font-family="sans-serif" font-size="14" lengthAdjust="spacing" textLength="82" x="328.5" y="691.7832">Management</text><rect fill="#E2E2F0" height="49.2188" rx="2.5" ry="2.5" style="stroke:#181818;stroke-width:0.5;" width="96" x="427.5" y="32.3906"/><text fill="#000000" font-family="sans-serif" font-size="14" lengthAdjust="spacing" textLength="29" x="459" y="53.9238">User</text><text fill="#000000" font-family="sans-serif" font-size="14" lengthAdjust="spacing" textLength="82" x="434.5" y="71.5332">Management</text><rect fill="#E2E2F0" height="49.2188" rx="2.5" ry="2.5" style="stroke:#181818;stroke-width:0.5;" width="96" x="427.5" y="652.6406"/><text fill="#000000" font-family="sans-serif" font-size="14" lengthAdjust="spacing" textLength="29" x="459" y="674.1738">User</text><text fill="#000000" font-family="sans-serif" font-size="14" lengthAdjust="spacing" textLength="82" x="434.5" y="691.7832">Management</text><rect fill="#E2E2F0" height="49.2188" rx="2.5" ry="2.5" style="stroke:#181818;stroke-width:0.5;" width="96" x="533.5" y="32.3906"/><text fill="#000000" font-family="sans-serif" font-size="14" lengthAdjust="spacing" textLength="52" x="553.5" y="53.9238">Campus</text><text fill="#000000" font-family="sans-serif" font-size="14" lengthAdjust="spacing" textLength="82" x="540.5" y="71.5332">Management</text><rect fill="#E2E2F0" height="49.2188" rx="2.5" ry="2.5" style="stroke:#181818;stroke-width:0.5;" width="96" x="533.5" y="652.6406"/><text fill="#000000" font-family="sans-serif" font-size="14" lengthAdjust="spacing" textLength="52" x="553.5" y="674.1738">Campus</text><text fill="#000000" font-family="sans-serif" font-size="14" lengthAdjust="spacing" textLength="82" x="540.5" y="691.7832">Management</text><rect fill="#E2E2F0" height="31.6094" rx="2.5" ry="2.5" style="stroke:#181818;stroke-width:0.5;" width="33" x="793" y="50"/><text fill="#000000" font-family="sans-serif" font-size="14" lengthAdjust="spacing" textLength="19" x="800" y="71.5332">DB</text><rect fill="#E2E2F0" height="31.6094" rx="2.5" ry="2.5" style="stroke:#181818;stroke-width:0.5;" width="33" x="793" y="652.6406"/><text fill="#000000" font-family="sans-serif" font-size="14" lengthAdjust="spacing" textLength="19" x="800" y="674.1738">DB</text><rect fill="#FFFFFF" height="513.3281" style="stroke:#181818;stroke-width:1.0;" width="10" x="205.5" y="131.3125"/><rect fill="#FFFFFF" height="91.0547" style="stroke:#181818;stroke-width:1.0;" width="10" x="364.5" y="497.8828"/><rect fill="#FFFFFF" height="30.3516" style="stroke:#181818;stroke-width:1.0;" width="10" x="470.5" y="161.6641"/><rect fill="#FFFFFF" height="91.0547" style="stroke:#181818;stroke-width:1.0;" width="10" x="576.5" y="283.0703"/><rect fill="#FFFFFF" height="30.3516" style="stroke:#181818;stroke-width:1.0;" width="10" x="804.5" y="313.4219"/><rect fill="#FFFFFF" height="30.3516" style="stroke:#181818;stroke-width:1.0;" width="10" x="804.5" y="528.2344"/><polygon fill="#181818" points="193.5,127.3125,203.5,131.3125,193.5,135.3125,197.5,131.3125" style="stroke:#181818;stroke-width:1.0;"/><line style="stroke:#181818;stroke-width:1.0;" x1="22.5" x2="199.5" y1="131.3125" y2="131.3125"/><text fill="#000000" font-family="sans-serif" font-size="13" lengthAdjust="spacing" textLength="141" x="29.5" y="110.1045">Go to /task/request-task</text><text fill="#000000" font-family="sans-serif" font-size="13" lengthAdjust="spacing" textLength="60" x="33.5" y="126.4561">SPA route</text><polygon fill="#181818" points="458.5,157.6641,468.5,161.6641,458.5,165.6641,462.5,161.6641" style="stroke:#181818;stroke-width:1.0;"/><line style="stroke:#181818;stroke-width:1.0;" x1="215.5" x2="464.5" y1="161.6641" y2="161.6641"/><text fill="#000000" font-family="sans-serif" font-size="13" lengthAdjust="spacing" textLength="195" x="222.5" y="156.8076">Verify user's role and permissions</text><polygon fill="#181818" points="226.5,188.0156,216.5,192.0156,226.5,196.0156,222.5,192.0156" style="stroke:#181818;stroke-width:1.0;"/><line style="stroke:#181818;stroke-width:1.0;stroke-dasharray:2.0,2.0;" x1="220.5" x2="474.5" y1="192.0156" y2="192.0156"/><text fill="#000000" font-family="sans-serif" font-size="13" lengthAdjust="spacing" textLength="126" x="232.5" y="187.1592">Permissions validated</text><polygon fill="#181818" points="33.5,218.3672,23.5,222.3672,33.5,226.3672,29.5,222.3672" style="stroke:#181818;stroke-width:1.0;"/><line style="stroke:#181818;stroke-width:1.0;stroke-dasharray:2.0,2.0;" x1="27.5" x2="204.5" y1="222.3672" y2="222.3672"/><text fill="#000000" font-family="sans-serif" font-size="13" lengthAdjust="spacing" textLength="137" x="39.5" y="217.5107">Show task request form</text><polygon fill="#181818" points="193.5,248.7188,203.5,252.7188,193.5,256.7188,197.5,252.7188" style="stroke:#181818;stroke-width:1.0;"/><line style="stroke:#181818;stroke-width:1.0;" x1="22.5" x2="199.5" y1="252.7188" y2="252.7188"/><text fill="#000000" font-family="sans-serif" font-size="13" lengthAdjust="spacing" textLength="95" x="29.5" y="247.8623">Select task type</text><polygon fill="#181818" points="564.5,279.0703,574.5,283.0703,564.5,287.0703,568.5,283.0703" style="stroke:#181818;stroke-width:1.0;"/><line style="stroke:#181818;stroke-width:1.0;" x1="215.5" x2="570.5" y1="283.0703" y2="283.0703"/><text fill="#000000" font-family="sans-serif" font-size="13" lengthAdjust="spacing" textLength="207" x="222.5" y="278.2139">Request building, floor and room list</text><polygon fill="#181818" points="792.5,309.4219,802.5,313.4219,792.5,317.4219,796.5,313.4219" style="stroke:#181818;stroke-width:1.0;"/><line style="stroke:#181818;stroke-width:1.0;" x1="586.5" x2="798.5" y1="313.4219" y2="313.4219"/><text fill="#000000" font-family="sans-serif" font-size="13" lengthAdjust="spacing" textLength="194" x="593.5" y="308.5654">Query building, floor and room list</text><polygon fill="#181818" points="597.5,339.7734,587.5,343.7734,597.5,347.7734,593.5,343.7734" style="stroke:#181818;stroke-width:1.0;"/><line style="stroke:#181818;stroke-width:1.0;stroke-dasharray:2.0,2.0;" x1="591.5" x2="808.5" y1="343.7734" y2="343.7734"/><text fill="#000000" font-family="sans-serif" font-size="13" lengthAdjust="spacing" textLength="194" x="603.5" y="338.917">List of buildings, floors and rooms</text><polygon fill="#181818" points="226.5,370.125,216.5,374.125,226.5,378.125,222.5,374.125" style="stroke:#181818;stroke-width:1.0;"/><line style="stroke:#181818;stroke-width:1.0;stroke-dasharray:2.0,2.0;" x1="220.5" x2="580.5" y1="374.125" y2="374.125"/><text fill="#000000" font-family="sans-serif" font-size="13" lengthAdjust="spacing" textLength="194" x="232.5" y="369.2686">List of buildings, floors and rooms</text><polygon fill="#181818" points="33.5,416.8281,23.5,420.8281,33.5,424.8281,29.5,420.8281" style="stroke:#181818;stroke-width:1.0;"/><line style="stroke:#181818;stroke-width:1.0;stroke-dasharray:2.0,2.0;" x1="27.5" x2="204.5" y1="420.8281" y2="420.8281"/><text fill="#000000" font-family="sans-serif" font-size="13" lengthAdjust="spacing" textLength="137" x="39.5" y="399.6201">Show task request form</text><text fill="#000000" font-family="sans-serif" font-size="13" lengthAdjust="spacing" textLength="134" x="43.5" y="415.9717">with selected task type</text><polygon fill="#181818" points="193.5,463.5313,203.5,467.5313,193.5,471.5313,197.5,467.5313" style="stroke:#181818;stroke-width:1.0;"/><line style="stroke:#181818;stroke-width:1.0;" x1="22.5" x2="199.5" y1="467.5313" y2="467.5313"/><text fill="#000000" font-family="sans-serif" font-size="13" lengthAdjust="spacing" textLength="136" x="29.5" y="446.3232">Fill in task request form</text><text fill="#000000" font-family="sans-serif" font-size="13" lengthAdjust="spacing" textLength="64" x="33.5" y="462.6748">and submit</text><polygon fill="#181818" points="352.5,493.8828,362.5,497.8828,352.5,501.8828,356.5,497.8828" style="stroke:#181818;stroke-width:1.0;"/><line style="stroke:#181818;stroke-width:1.0;" x1="215.5" x2="358.5" y1="497.8828" y2="497.8828"/><text fill="#000000" font-family="sans-serif" font-size="13" lengthAdjust="spacing" textLength="114" x="222.5" y="493.0264">Create task request</text><polygon fill="#181818" points="792.5,524.2344,802.5,528.2344,792.5,532.2344,796.5,528.2344" style="stroke:#181818;stroke-width:1.0;"/><line style="stroke:#181818;stroke-width:1.0;" x1="374.5" x2="798.5" y1="528.2344" y2="528.2344"/><text fill="#000000" font-family="sans-serif" font-size="13" lengthAdjust="spacing" textLength="108" x="381.5" y="523.3779">Insert task request</text><polygon fill="#181818" points="385.5,554.5859,375.5,558.5859,385.5,562.5859,381.5,558.5859" style="stroke:#181818;stroke-width:1.0;"/><line style="stroke:#181818;stroke-width:1.0;stroke-dasharray:2.0,2.0;" x1="379.5" x2="808.5" y1="558.5859" y2="558.5859"/><text fill="#000000" font-family="sans-serif" font-size="13" lengthAdjust="spacing" textLength="122" x="391.5" y="553.7295">Task request created</text><polygon fill="#181818" points="226.5,584.9375,216.5,588.9375,226.5,592.9375,222.5,588.9375" style="stroke:#181818;stroke-width:1.0;"/><line style="stroke:#181818;stroke-width:1.0;stroke-dasharray:2.0,2.0;" x1="220.5" x2="368.5" y1="588.9375" y2="588.9375"/><text fill="#000000" font-family="sans-serif" font-size="13" lengthAdjust="spacing" textLength="125" x="232.5" y="584.0811">Created TaskRequest</text><polygon fill="#181818" points="33.5,631.6406,23.5,635.6406,33.5,639.6406,29.5,635.6406" style="stroke:#181818;stroke-width:1.0;"/><line style="stroke:#181818;stroke-width:1.0;stroke-dasharray:2.0,2.0;" x1="27.5" x2="204.5" y1="635.6406" y2="635.6406"/><text fill="#000000" font-family="sans-serif" font-size="13" lengthAdjust="spacing" textLength="159" x="39.5" y="614.4326">Show 'task request created'</text><text fill="#000000" font-family="sans-serif" font-size="13" lengthAdjust="spacing" textLength="82" x="43.5" y="630.7842">and clear form</text><!--MD5=[65213f9d9dca77f396d64cc8ca424bc0]
@startuml SD Lv2

actor "User" as user
box "RobDroneGo System" #LightBlue
    participant "UI" as UI
    participant "Task \nManagement" as TaskModule
    participant "User \nManagement" as UserModule
    participant "Campus \nManagement" as CampusModule
    participant "DB" as DB
end box

user -> UI : Go to /task/request-task\n SPA route

activate UI
UI -> UserModule : Verify user's role and permissions
activate UserModule
UserModule - -> UI : Permissions validated
deactivate UserModule
UI - -> user : Show task request form
user -> UI : Select task type

UI -> CampusModule : Request building, floor and room list
activate CampusModule
CampusModule -> DB : Query building, floor and room list
activate DB
DB - -> CampusModule : List of buildings, floors and rooms
deactivate DB
CampusModule - -> UI : List of buildings, floors and rooms
deactivate CampusModule
UI - -> user : Show task request form\n with selected task type

user -> UI : Fill in task request form\n and submit

UI -> TaskModule : Create task request
activate TaskModule
TaskModule -> DB : Insert task request
activate DB
DB - -> TaskModule : Task request created
deactivate DB
TaskModule - -> UI : Created TaskRequest
deactivate TaskModule
UI - -> user : Show 'task request created'\n and clear form

@enduml

PlantUML version 1.2022.7(Mon Aug 22 18:01:30 BST 2022)
(GPL source distribution)
Java Runtime: Java(TM) SE Runtime Environment
JVM: Java HotSpot(TM) Client VM
Default Encoding: Cp1252
Language: en
Country: US
--></g></svg>