<?xml version="1.0" encoding="UTF-8" standalone="no"?><svg xmlns="http://www.w3.org/2000/svg" xmlns:xlink="http://www.w3.org/1999/xlink" contentStyleType="text/css" height="305px" preserveAspectRatio="none" style="width:328px;height:305px;background:#FFFFFF;" version="1.1" viewBox="0 0 328 305" width="328px" zoomAndPan="magnify"><defs/><g><rect fill="#FFFFFF" height="90.0547" style="stroke:#181818;stroke-width:1.0;" width="10" x="204.5" y="114.9609"/><line style="stroke:#181818;stroke-width:0.5;stroke-dasharray:5.0,5.0;" x1="22" x2="22" y1="82.6094" y2="223.0156"/><line style="stroke:#181818;stroke-width:0.5;stroke-dasharray:5.0,5.0;" x1="209.5" x2="209.5" y1="82.6094" y2="223.0156"/><text fill="#000000" font-family="sans-serif" font-size="14" lengthAdjust="spacing" textLength="29" x="5" y="79.5332">User</text><ellipse cx="22.5" cy="13.5" fill="#E2E2F0" rx="8" ry="8" style="stroke:#181818;stroke-width:0.5;"/><path d="M22.5,21.5 L22.5,48.5 M9.5,29.5 L35.5,29.5 M22.5,48.5 L9.5,63.5 M22.5,48.5 L35.5,63.5 " fill="none" style="stroke:#181818;stroke-width:0.5;"/><text fill="#000000" font-family="sans-serif" font-size="14" lengthAdjust="spacing" textLength="29" x="5" y="236.5488">User</text><ellipse cx="22.5" cy="248.125" fill="#E2E2F0" rx="8" ry="8" style="stroke:#181818;stroke-width:0.5;"/><path d="M22.5,256.125 L22.5,283.125 M9.5,264.125 L35.5,264.125 M22.5,283.125 L9.5,298.125 M22.5,283.125 L35.5,298.125 " fill="none" style="stroke:#181818;stroke-width:0.5;"/><rect fill="#E2E2F0" height="31.6094" rx="2.5" ry="2.5" style="stroke:#181818;stroke-width:0.5;" width="98" x="160.5" y="50"/><text fill="#000000" font-family="sans-serif" font-size="14" lengthAdjust="spacing" textLength="84" x="167.5" y="71.5332">RobDroneGo</text><rect fill="#E2E2F0" height="31.6094" rx="2.5" ry="2.5" style="stroke:#181818;stroke-width:0.5;" width="98" x="160.5" y="222.0156"/><text fill="#000000" font-family="sans-serif" font-size="14" lengthAdjust="spacing" textLength="84" x="167.5" y="243.5488">RobDroneGo</text><rect fill="#FFFFFF" height="90.0547" style="stroke:#181818;stroke-width:1.0;" width="10" x="204.5" y="114.9609"/><polygon fill="#181818" points="192.5,110.9609,202.5,114.9609,192.5,118.9609,196.5,114.9609" style="stroke:#181818;stroke-width:1.0;"/><line style="stroke:#181818;stroke-width:1.0;" x1="22.5" x2="198.5" y1="114.9609" y2="114.9609"/><text fill="#000000" font-family="sans-serif" font-size="13" lengthAdjust="spacing" textLength="141" x="29.5" y="110.1045">Go to /task/request-task</text><line style="stroke:#181818;stroke-width:1.0;" x1="214.5" x2="256.5" y1="161.6641" y2="161.6641"/><line style="stroke:#181818;stroke-width:1.0;" x1="256.5" x2="256.5" y1="161.6641" y2="174.6641"/><line style="stroke:#181818;stroke-width:1.0;" x1="215.5" x2="256.5" y1="174.6641" y2="174.6641"/><polygon fill="#181818" points="225.5,170.6641,215.5,174.6641,225.5,178.6641,221.5,174.6641" style="stroke:#181818;stroke-width:1.0;"/><text fill="#000000" font-family="sans-serif" font-size="13" lengthAdjust="spacing" textLength="100" x="221.5" y="140.4561">Check user's role</text><text fill="#000000" font-family="sans-serif" font-size="13" lengthAdjust="spacing" textLength="95" x="221.5" y="156.8076">and permissions</text><polygon fill="#181818" points="33.5,201.0156,23.5,205.0156,33.5,209.0156,29.5,205.0156" style="stroke:#181818;stroke-width:1.0;"/><line style="stroke:#181818;stroke-width:1.0;stroke-dasharray:2.0,2.0;" x1="27.5" x2="208.5" y1="205.0156" y2="205.0156"/><text fill="#000000" font-family="sans-serif" font-size="13" lengthAdjust="spacing" textLength="158" x="39.5" y="200.1592">Show request creation form</text><!--MD5=[9808a73c6590b07f4929ac25a06b6788]
@startuml SD Lv1

actor "User" as user
participant RobDroneGo as system

user -> system : Go to /task/request-task
activate  system

system -> system : Check user's role\nand permissions

user <- - system : Show request creation form

deactivate system

@enduml

PlantUML version 1.2022.7(Mon Aug 22 18:01:30 BST 2022)
(GPL source distribution)
Java Runtime: Java(TM) SE Runtime Environment
JVM: Java HotSpot(TM) Client VM
Default Encoding: Cp1252
Language: en
Country: US
--></g></svg>